/* XPM */
static char * projectile_xpm[] = {
"70 74 549 2",
"  	c None",
". 	c #8C8C8C",
"+ 	c #000000",
"@ 	c #A5A5A5",
"# 	c #A4A4A4",
"$ 	c #8D8D8D",
"% 	c #A6A6A6",
"& 	c #8E8E8E",
"* 	c #808080",
"= 	c #848484",
"- 	c #808282",
"; 	c #A47269",
"> 	c #9B3600",
", 	c #9B3500",
"' 	c #967F82",
") 	c #847F81",
"! 	c #838384",
"~ 	c #939392",
"{ 	c #030303",
"] 	c #000003",
"^ 	c #D94C00",
"/ 	c #FF5C07",
"( 	c #FF5C08",
"_ 	c #9E3602",
": 	c #000A07",
"< 	c #717171",
"[ 	c #000100",
"} 	c #D84F05",
"| 	c #FD5E06",
"1 	c #FE5F06",
"2 	c #9B3B09",
"3 	c #00050E",
"4 	c #6E6F70",
"5 	c #AFB0B0",
"6 	c #BEB7BA",
"7 	c #AEB0B0",
"8 	c #4B0000",
"9 	c #710309",
"0 	c #6C0009",
"a 	c #E04D04",
"b 	c #FE5C02",
"c 	c #FE5D04",
"d 	c #A53907",
"e 	c #5E0408",
"f 	c #5A0000",
"g 	c #775459",
"h 	c #C2CBCB",
"i 	c #B1AFAF",
"j 	c #B5B5B5",
"k 	c #151515",
"l 	c #0B0000",
"m 	c #FE0416",
"n 	c #FA0210",
"o 	c #FB0011",
"p 	c #FD4E07",
"q 	c #FD5C02",
"r 	c #FD5D02",
"s 	c #FC3912",
"t 	c #F4000A",
"u 	c #FC0511",
"v 	c #D6000A",
"w 	c #212121",
"x 	c #262626",
"y 	c #010303",
"z 	c #000504",
"A 	c #FD0312",
"B 	c #FB000C",
"C 	c #FB000D",
"D 	c #FC4E06",
"E 	c #FC5E02",
"F 	c #FA390D",
"G 	c #FB0311",
"H 	c #F80408",
"I 	c #D80411",
"J 	c #000302",
"K 	c #020202",
"L 	c #2C2C2C",
"M 	c #252525",
"N 	c #000204",
"O 	c #FF0316",
"P 	c #FA020B",
"Q 	c #F8000D",
"R 	c #FC4D08",
"S 	c #FE5C06",
"T 	c #FA370E",
"U 	c #FC000A",
"V 	c #FD010C",
"W 	c #D00411",
"X 	c #000200",
"Y 	c #2B2B2B",
"Z 	c #040101",
"` 	c #0D0405",
" .	c #520306",
"..	c #500003",
"+.	c #4E0104",
"@.	c #521604",
"#.	c #531C04",
"$.	c #541B04",
"%.	c #510C06",
"&.	c #4F0302",
"*.	c #520707",
"=.	c #480202",
"-.	c #000402",
";.	c #010000",
">.	c #050204",
",.	c #030201",
"'.	c #000202",
").	c #000203",
"!.	c #000104",
"~.	c #000105",
"{.	c #000406",
"].	c #000605",
"^.	c #010405",
"/.	c #010406",
"(.	c #060202",
"_.	c #040100",
":.	c #02010B",
"<.	c #02010A",
"[.	c #060001",
"}.	c #080000",
"|.	c #070000",
"1.	c #060207",
"2.	c #040006",
"3.	c #050000",
"4.	c #040204",
"5.	c #040305",
"6.	c #030607",
"7.	c #0B5C91",
"8.	c #015A91",
"9.	c #025A90",
"0.	c #0281B7",
"a.	c #028EC4",
"b.	c #038EC4",
"c.	c #0372A9",
"d.	c #045790",
"e.	c #085891",
"f.	c #074A73",
"g.	c #070005",
"h.	c #010400",
"i.	c #0778C1",
"j.	c #0075BA",
"k.	c #0175BB",
"l.	c #02A8EC",
"m.	c #02B7FD",
"n.	c #03B8FD",
"o.	c #0392D9",
"p.	c #0273B9",
"q.	c #0473BD",
"r.	c #07649A",
"s.	c #020000",
"t.	c #060004",
"u.	c #010100",
"v.	c #0677C0",
"w.	c #0073B9",
"x.	c #01A7EB",
"y.	c #02B7FC",
"z.	c #060003",
"A.	c #0577BD",
"B.	c #0172B8",
"C.	c #0272B8",
"D.	c #03A7ED",
"E.	c #02B7FE",
"F.	c #03B8FF",
"G.	c #0373BD",
"H.	c #07679C",
"I.	c #060002",
"J.	c #000300",
"K.	c #0576BC",
"L.	c #0271B8",
"M.	c #060102",
"N.	c #010200",
"O.	c #0577BC",
"P.	c #0171B8",
"Q.	c #02A7ED",
"R.	c #0173B9",
"S.	c #07669B",
"T.	c #0578BC",
"U.	c #0073B8",
"V.	c #0072B8",
"W.	c #02A8ED",
"X.	c #0291D8",
"Y.	c #04659A",
"Z.	c #050102",
"`.	c #0579BD",
" +	c #0171B6",
".+	c #03A8ED",
"++	c #06659A",
"@+	c #016FB6",
"#+	c #0170B6",
"$+	c #0679BE",
"%+	c #01A7ED",
"&+	c #0173B8",
"*+	c #0678BD",
"=+	c #0391D8",
"-+	c #05659A",
";+	c #02B7FF",
">+	c #050004",
",+	c #010600",
"'+	c #0476BC",
")+	c #02A8EB",
"!+	c #0372B8",
"~+	c #040004",
"{+	c #010800",
"]+	c #02B8FC",
"^+	c #050003",
"/+	c #010500",
"(+	c #0071B6",
"_+	c #03A7EC",
":+	c #03B7FD",
"<+	c #04B7FE",
"[+	c #078ED5",
"}+	c #0374BB",
"|+	c #0474BC",
"1+	c #05669B",
"2+	c #050002",
"3+	c #0677BC",
"4+	c #0070B6",
"5+	c #05A6E3",
"6+	c #05B7F2",
"7+	c #07B7F2",
"8+	c #0991CF",
"9+	c #0276BF",
"0+	c #0372B9",
"a+	c #020101",
"b+	c #2E2E2E",
"c+	c #838383",
"d+	c #141414",
"e+	c #292929",
"f+	c #010202",
"g+	c #0677BD",
"h+	c #0375BB",
"i+	c #00456F",
"j+	c #00212D",
"k+	c #001F2B",
"l+	c #02588D",
"m+	c #0973BB",
"n+	c #0173BB",
"o+	c #070707",
"p+	c #121212",
"q+	c #C5C5C5",
"r+	c #9D9B98",
"s+	c #050302",
"t+	c #060103",
"u+	c #0174BA",
"v+	c #013965",
"w+	c #025F90",
"x+	c #0773BA",
"y+	c #07659B",
"z+	c #030000",
"A+	c #040302",
"B+	c #020100",
"C+	c #C5C8C7",
"D+	c #9CA0A3",
"E+	c #000106",
"F+	c #000303",
"G+	c #030705",
"H+	c #070003",
"I+	c #0676BC",
"J+	c #005B92",
"K+	c #0973BC",
"L+	c #0274BA",
"M+	c #090101",
"N+	c #000206",
"O+	c #CFCCCD",
"P+	c #979797",
"Q+	c #919191",
"R+	c #909494",
"S+	c #8E655C",
"T+	c #B20000",
"U+	c #AE020B",
"V+	c #8A010C",
"W+	c #080404",
"X+	c #0A0004",
"Y+	c #013964",
"Z+	c #005A93",
"`+	c #0873BC",
" @	c #07649B",
".@	c #090205",
"+@	c #2B0504",
"@@	c #A0020C",
"#@	c #AF020D",
"$@	c #AB0000",
"%@	c #9A7882",
"&@	c #919292",
"*@	c #929392",
"=@	c #A3A3A3",
"-@	c #434343",
";@	c #B00000",
">@	c #FF030E",
",@	c #FF010D",
"'@	c #CF020A",
")@	c #040304",
"!@	c #040000",
"~@	c #057ABE",
"{@	c #0073B6",
"]@	c #013B64",
"^@	c #015999",
"/@	c #0574B5",
"(@	c #0373BA",
"_@	c #0763A0",
":@	c #460207",
"<@	c #EB030E",
"[@	c #FF020E",
"}@	c #FE0311",
"|@	c #580000",
"1@	c #797979",
"2@	c #494949",
"3@	c #000201",
"4@	c #AF0111",
"5@	c #FF020C",
"6@	c #FD010D",
"7@	c #CC0109",
"8@	c #000001",
"9@	c #030102",
"0@	c #0274BB",
"a@	c #0174B8",
"b@	c #023D64",
"c@	c #015A9A",
"d@	c #0675B6",
"e@	c #0373BB",
"f@	c #450105",
"g@	c #E9030D",
"h@	c #FC020E",
"i@	c #FB0210",
"j@	c #5C0305",
"k@	c #7B7B7B",
"l@	c #A1A1A1",
"m@	c #9C9C9C",
"n@	c #9E9E9E",
"o@	c #3E3E3E",
"p@	c #86030D",
"q@	c #C9030A",
"r@	c #CA030A",
"s@	c #AC4948",
"t@	c #767F7F",
"u@	c #767175",
"v@	c #696E72",
"w@	c #005C94",
"x@	c #035D97",
"y@	c #035D95",
"z@	c #023052",
"A@	c #084774",
"B@	c #036094",
"C@	c #005E96",
"D@	c #355E86",
"E@	c #707472",
"F@	c #747073",
"G@	c #796E6C",
"H@	c #BC211F",
"I@	c #C7040B",
"J@	c #C6040C",
"K@	c #490305",
"L@	c #000403",
"M@	c #656565",
"N@	c #9D9D9D",
"O@	c #424242",
"P@	c #1C1C1C",
"Q@	c #1A1A1A",
"R@	c #040404",
"S@	c #010101",
"T@	c #000101",
"U@	c #0C0204",
"V@	c #150405",
"W@	c #150103",
"X@	c #54474A",
"Y@	c #000511",
"Z@	c #010307",
"`@	c #040809",
" #	c #050810",
".#	c #737271",
"+#	c #464A49",
"@#	c #150204",
"##	c #040403",
"$#	c #020201",
"%#	c #0A0A0A",
"&#	c #1D1D1D",
"*#	c #1B1B1B",
"=#	c #676767",
"-#	c #3A3A3A",
";#	c #363E3A",
">#	c #020001",
",#	c #6F7072",
"'#	c #443E40",
")#	c #626262",
"!#	c #5C5C5C",
"~#	c #4A4A4A",
"{#	c #474747",
"]#	c #616262",
"^#	c #4B4B4B",
"/#	c #4C4C4C",
"(#	c #818181",
"_#	c #484848",
":#	c #787878",
"<#	c #747474",
"[#	c #A2A2A2",
"}#	c #8E8C8F",
"|#	c #A0A7A1",
"1#	c #898D89",
"2#	c #B2ADAE",
"3#	c #F07874",
"4#	c #FB6E74",
"5#	c #FB6C75",
"6#	c #D6B652",
"7#	c #C7C700",
"8#	c #E29A63",
"9#	c #F7756A",
"0#	c #F97169",
"a#	c #EE9391",
"b#	c #F40000",
"c#	c #FE000C",
"d#	c #FD000B",
"e#	c #FED701",
"f#	c #FDFA01",
"g#	c #FCFB01",
"h#	c #F79E00",
"i#	c #FD0001",
"j#	c #F30000",
"k#	c #F96B71",
"l#	c #FB0000",
"m#	c #F80006",
"n#	c #FCD603",
"o#	c #FCF901",
"p#	c #FBFA00",
"q#	c #F79C0B",
"r#	c #FC0013",
"s#	c #F70000",
"t#	c #F96D76",
"u#	c #F98F94",
"v#	c #F6979B",
"w#	c #FC9292",
"x#	c #F38700",
"y#	c #F8830C",
"z#	c #F8800C",
"A#	c #FCDE04",
"B#	c #FDF801",
"C#	c #FDF901",
"D#	c #F8BA09",
"E#	c #F9840B",
"F#	c #F88300",
"G#	c #F7864B",
"H#	c #F79095",
"I#	c #F78D8F",
"J#	c #F79C9B",
"K#	c #FD9D97",
"L#	c #F81110",
"M#	c #FD0000",
"N#	c #F6C307",
"O#	c #F5BA01",
"P#	c #F5B902",
"Q#	c #FCE801",
"R#	c #FFF701",
"S#	c #FFF802",
"T#	c #F9D402",
"U#	c #F6BB03",
"V#	c #F7BC04",
"W#	c #F5A506",
"X#	c #FC0000",
"Y#	c #FB4746",
"Z#	c #F92224",
"`#	c #FB0008",
" $	c #FD0004",
".$	c #F6C306",
"+$	c #F7BB01",
"@$	c #F6BA01",
"#$	c #FDE701",
"$$	c #FFF801",
"%$	c #F9D500",
"&$	c #F6BB00",
"*$	c #F7BD00",
"=$	c #F5A507",
"-$	c #FC0007",
";$	c #FB3D3E",
">$	c #F6C0B1",
",$	c #F53A3E",
"'$	c #F52B35",
")$	c #F63632",
"!$	c #F7BE11",
"~$	c #F8B700",
"{$	c #FAB702",
"]$	c #FCE802",
"^$	c #FAF900",
"/$	c #F9CC19",
"($	c #F1BB07",
"_$	c #F7B60B",
":$	c #F79A14",
"<$	c #F72133",
"[$	c #F63836",
"}$	c #FA5858",
"|$	c #EBF9F9",
"1$	c #FED3D8",
"2$	c #F10000",
"3$	c #F80010",
"4$	c #F90011",
"5$	c #FCD407",
"6$	c #FBF801",
"7$	c #F7940C",
"8$	c #F80012",
"9$	c #F50000",
"0$	c #F56974",
"a$	c #FB000B",
"b$	c #FDD605",
"c$	c #FDF902",
"d$	c #F69C0C",
"e$	c #FB0212",
"f$	c #F57076",
"g$	c #FA0000",
"h$	c #FB010E",
"i$	c #FED605",
"j$	c #FFF900",
"k$	c #FFFA00",
"l$	c #F99C06",
"m$	c #F90014",
"n$	c #F90000",
"o$	c #FE717A",
"p$	c #FB010D",
"q$	c #FED604",
"r$	c #FA0014",
"s$	c #FE0111",
"t$	c #FD0010",
"u$	c #FED507",
"v$	c #FFF903",
"w$	c #FFFA05",
"x$	c #F29B0D",
"y$	c #F5010D",
"z$	c #FC6C6B",
"A$	c #F20000",
"B$	c #FBDA00",
"C$	c #FDFF05",
"D$	c #FCFF06",
"E$	c #F89F00",
"F$	c #FB6F6C",
"G$	c #FCB4AC",
"H$	c #FE736C",
"I$	c #FE7E78",
"J$	c #FB752B",
"K$	c #FA7707",
"L$	c #FA7600",
"M$	c #F58C83",
"N$	c #F4ACA8",
"O$	c #F2A69F",
"P$	c #F5B4B9",
"Q$	c #F79094",
"R$	c #FCA99F",
"S$	c #F88F91",
"T$	c #FCA79E",
"U$	c #F58387",
"V$	c #F7464C",
"W$	c #F7474E",
"X$	c #FAA5A4",
"                                                                                                                                            ",
"                                                                                                                                            ",
"                                                                                                                                            ",
"                                                                                                                                            ",
"                                                                  . + + @                                                                   ",
"                                                                  . + + #                                                                   ",
"                                                                  $ + + %                                                                   ",
"                                                                  $ + + %                                                                   ",
"                                                                  & + + %                                                                   ",
"                                                                  & + + %                                                                   ",
"                                                            * = - ; > , ' ) ! ~                                                             ",
"                                                            + { ] ^ / ( _ : + <                                                             ",
"                                                            + [ + } | 1 2 3 + 4                                                             ",
"                                                      5 6 7 8 9 0 a b c d e f g h i j                                                       ",
"                                                      k + l m n o p q r s t u v + + w                                                       ",
"                                                      x y z A B C D r E F G H I J K L                                                       ",
"                                                      M N z O P Q R S / T U V W X + Y                                                       ",
"                                                      M Z `  ...+.@.#.$.%.&.*.=.-.;.Y                                                       ",
"                                                      M >.,.N '.).N !.~.{.].{.{.^.+ L                                                       ",
"                                                      M /.(._.:.<.[.}.|.1.2.3.|.4.+ L                                                       ",
"                                                      M 5.6.7.8.9.0.a.b.c.d.e.f.;.;.L                                                       ",
"                                                      M g.h.i.j.k.l.m.n.o.p.q.r.s.;.L                                                       ",
"                                                      M t.u.v.w.w.x.y.n.o.p.q.r.s.;.L                                                       ",
"                                                      M z.X A.B.C.D.E.F.o.p.G.H.;.;.L                                                       ",
"                                                      M I.J.K.B.L.D.E.F.o.p.G.H.;.;.L                                                       ",
"                                                      M M.N.O.B.P.Q.E.F.o.R.G.S.s.;.L                                                       ",
"                                                      M M.s.T.U.V.W.E.F.X.B.q.Y.s.;.L                                                       ",
"                                                      M M.s.T.U.U.W.E.F.X.B.q.Y.s.;.L                                                       ",
"                                                      M Z.s.`.B. +.+E.F.o.p.q.++s.;.Y                                                       ",
"                                                      M Z.s.`.B.@+.+E.F.o.p.q.r.s.;.Y                                                       ",
"                                                      M Z.s.`.B.#+D.E.F.o.p.q.r.s.;.Y                                                       ",
"                                                      M Z.s.$+P.R.%+E.F.o.p.q.r.s.;.Y                                                       ",
"                                                      M Z.s.$+P.&+%+E.F.o.p.q.r.s.;.Y                                                       ",
"                                                      M I.u.*+B.P.Q.E.F.=+R.q.-+s.;.Y                                                       ",
"                                                      M I.J.K.B.L.D.E.F.X.B.q.Y.s.;.L                                                       ",
"                                                      M I.J.K.B.L.D.;+F.X.B.q.Y.s.;.L                                                       ",
"                                                      M >+,+'+U.U.)+y.n.=+!+G.Y.s.;.L                                                       ",
"                                                      M ~+{+'+U.U.)+]+n.=+!+G.Y.s.;.L                                                       ",
"                                                      M ^+/+'+R.(+_+:+<+[+}+|+1+s.;.Y                                                       ",
"                                                      w 2+X 3+p.4+5+6+7+8+9+0+H.s.a+b+                                                      ",
"                                              c+d+e+w f+2+X g+B.h+i+j+k+l+m+n+H.s.;.o+M x p+q+                                              ",
"                                              r++ + + s+t+X g+R.u+v+s.s.w+x+|+y+z+A+B++ + + C+                                              ",
"                                              D++ E+F+G+H+J.I+R.w.v+;.;.J+K+L+r.s.M+N+F+N + O+                                              ",
"                                        P+Q+R+S+T+U+V+W+X+N.g+R.w.Y+;.;.Z+`+L+ @;..@+@@@#@$@%@&@*@=@                                        ",
"                                        -@+ + ;@>@,@'@).)@!@~@R.{@]@;.;.^@/@(@_@z+u.:@<@[@}@|@+ + 1@                                        ",
"                                        2@K 3@4@5@6@7@8@9@s.~@0@a@b@s.s.c@d@e@_@;.+ f@g@h@i@j@).+ k@                                        ",
"                                  l@m@n@o@K 3@p@q@r@s@t@u@v@w@x@y@z@s.s.A@B@C@D@E@F@G@H@I@J@K@L@+ M@@ N@#                                   ",
"                                  O@P@Q@R@S@T@U@V@W@X@      + Y@Y@Z@S@f+`@ #+ .#      +#@#@###[.$#%#&#*#=#                                  ",
"                                  -#+ + + + + + + + ;#      + + + + + >#z++ + ,#      '#+ + + + + + + + )#                                  ",
"                                  !#~#~#~#~#~#~#~#{#]#      -#~#^#d++ + e+/#-@(#      )#~#~#~#~#~#~#~#_#:#                                  ",
"                                                                  <#+ + [#                                                                  ",
"                                                                  }#+ + |#                                                                  ",
"                                                                  1#+ + 2#                                                                  ",
"                                                            3#4#5#6#7#7#8#9#0#a#                                                            ",
"                                                            b#c#d#e#f#g#h#i#j#k#                                                            ",
"                                                            l#m#m#n#o#p#q#r#s#t#                                                            ",
"                                                      u#v#w#x#y#z#A#B#C#D#E#F#G#H#I#J#                                                      ",
"                                                    K#L#l#M#N#O#P#Q#R#S#T#U#V#W#X#X#Y#                                                      ",
"                                                      Z#`# $.$+$@$#$R#$$%$&$*$=$X#-$;$                                                      ",
"                                                    >$,$'$)$!$~${$]$o#^$/$($_$:$<$[$}$                                                      ",
"                                                        |$1$2$3$4$5$o#6$7$8$9$0$                                                            ",
"                                                            s#P a$b$C#c$d$e$s#f$                                                            ",
"                                                            g$h$C i$j$k$l$m$n$o$                                                            ",
"                                                            g$p$C q$j$k$l$r$n$o$                                                            ",
"                                                            l#s$t$u$v$w$x$y$9$z$                                                            ",
"                                                            A$n$s#B$C$D$E$b#g$F$                                                            ",
"                                                            G$H$I$J$K$L$M$N$O$P$                                                            ",
"                                                                  Q$X#l#R$                                                                  ",
"                                                                  S$X#X#T$                                                                  ",
"                                                                  U$V$W$X$                                                                  ",
"                                                                                                                                            ",
"                                                                                                                                            ",
"                                                                                                                                            ",
"                                                                                                                                            "};
