/* XPM */
static char *nave_small_17[] = {
/* columns rows colors chars-per-pixel */
"67 62 178 2 ",
"   c #070705",
".  c #0B0A04",
"X  c #151300",
"o  c #131E1F",
"O  c #242100",
"+  c #322E01",
"@  c #373302",
"#  c #3B3601",
"$  c #39390B",
"%  c #27231C",
"&  c #0C383D",
"*  c #143236",
"=  c #18363A",
"-  c #0F2427",
";  c gray21",
":  c #363939",
">  c gray22",
",  c #353738",
"<  c #272727",
"1  c #7F1B1B",
"2  c #762A2D",
"3  c #792528",
"4  c #4E4902",
"5  c #524C01",
"6  c #565002",
"7  c #565515",
"8  c #665F02",
"9  c #716804",
"0  c #7B7205",
"q  c #454438",
"w  c #605D34",
"e  c #103E43",
"r  c #363F40",
"t  c #16464C",
"y  c #35474A",
"u  c #364143",
"i  c #334D50",
"p  c #2E585D",
"a  c #355053",
"s  c #35585D",
"d  c #34565A",
"f  c #355D63",
"g  c #34666D",
"h  c #34696F",
"j  c #346C74",
"k  c #3F6E76",
"l  c #34757E",
"z  c #3D737B",
"x  c #337077",
"c  c #4D555B",
"v  c gray37",
"b  c #7C4D4D",
"n  c #764B4B",
"m  c #45644F",
"M  c #4C5A61",
"N  c #41656D",
"B  c #4A686E",
"V  c #5B6465",
"C  c #5D6A6C",
"Z  c #406E76",
"A  c #467279",
"S  c #4C727A",
"D  c #5A787B",
"F  c #666767",
"G  c #6D6D6D",
"H  c #6B6565",
"J  c #716B6B",
"K  c #6E7373",
"L  c #6B7B7D",
"P  c #667B7E",
"I  c #717171",
"U  c #860C0C",
"Y  c #890707",
"T  c #821515",
"R  c #847A05",
"E  c #598C4E",
"W  c #5D9056",
"Q  c #5BA263",
"!  c #908606",
"~  c #9D9410",
"^  c #8B8106",
"/  c #AA9E06",
"(  c #A69A09",
")  c #B2A606",
"_  c #9B9021",
"`  c #938A2B",
"'  c #C6B806",
"]  c #C2B509",
"[  c #CCBE08",
"{  c #CFC008",
"}  c #DBCC08",
"|  c #D3C407",
" . c #E1D108",
".. c #ECDB09",
"X. c #E8D708",
"o. c #F0DF09",
"O. c #30688C",
"+. c #316586",
"@. c #2F7880",
"#. c #347780",
"$. c #337C85",
"%. c #337F89",
"&. c #2C6E9B",
"*. c #2B719F",
"=. c #2A72A3",
"-. c #2779AD",
";. c #237DB5",
":. c #607E82",
">. c #138F9B",
",. c #32828C",
"<. c #3B838D",
"1. c #328691",
"2. c #328E99",
"3. c #318994",
"4. c #2D919C",
"5. c #30919C",
"6. c #298991",
"7. c #1599A6",
"8. c #1E99A5",
"9. c #2D9DAA",
"0. c #339AA4",
"q. c #3F9AA5",
"w. c #2082BD",
"e. c #19ACBA",
"r. c #2AA2AF",
"t. c #2AA4B1",
"y. c #2AACBA",
"u. c #34A8B6",
"i. c #45848C",
"p. c #4E868C",
"a. c #568489",
"s. c #5B8D93",
"d. c #558D92",
"f. c #5A9196",
"g. c #488991",
"h. c #668284",
"j. c #50B59B",
"k. c #449BA4",
"l. c #4B95A0",
"z. c #4EA1AA",
"x. c #48A6B2",
"c. c #44AAB7",
"v. c #44ABB8",
"b. c #1F84C1",
"n. c #1F8AC9",
"m. c #1B8FD1",
"M. c #1991D5",
"N. c #1096DD",
"B. c #2385C1",
"V. c #1CB3C2",
"C. c #26B6C5",
"Z. c #2BB3C2",
"A. c #26BBCA",
"S. c #2CBCCC",
"D. c #28B8C7",
"F. c #31B6C5",
"G. c #34B9C6",
"H. c #3EB8C7",
"J. c #3BB5C4",
"K. c #25BFD0",
"L. c #119BE5",
"P. c #119EE9",
"I. c #1FC0D0",
"U. c #2DC0CF",
"Y. c #23C5D6",
"T. c #2BC3D3",
"R. c #22CBDC",
"E. c #2CCADA",
"W. c #26C7D8",
"Q. c #1EDAED",
"!. c #1FD5E7",
"~. c #1DDFF2",
"^. c #20CFE0",
"/. c #23D3E5",
"(. c #2BD1E3",
"). c #22D7E9",
"_. c #20DAED",
"`. c None",
/* pixels */
"`.`.`.`.`.`.`.`.`.`.`.`.`.`.`.`.`.`.`.`.`.`.`.`.`.`.`.`.`.`.`.$.#.#.#.%.`.`.`.`.`.`.`.`.`.`.`.`.`.`.`.`.`.`.`.`.`.`.`.`.`.`.`.`.`.`.`.",
"`.`.`.`.`.`.`.`.`.`.`.`.`.`.`.`.`.`.`.`.`.`.`.`.`.`.`.`.`.`.`.#.#.l #.$.`.`.`.`.`.`.`.`.`.`.`.`.`.`.`.`.`.`.`.`.`.`.`.`.`.`.`.`.`.`.`.",
"`.`.`.`.`.`.`.`.`.`.`.`.`.`.`.`.`.`.`.`.`.`.`.`.`.`.`.`.`.,.#.#.l l l #.l ,.`.`.`.`.`.`.`.`.`.`.`.`.`.`.`.`.`.`.`.`.`.`.`.`.`.`.`.`.`.",
"`.`.`.`.`.`.`.`.`.`.`.`.`.`.`.`.`.`.`.`.`.`.`.`.`.`.`.`.x %.l <.2.0.4.4.#.,.l `.`.`.`.`.`.`.`.`.`.`.`.`.`.`.`.`.`.`.`.`.`.`.`.`.`.`.`.",
"`.`.`.`.`.`.`.`.`.`.`.`.`.`.`.`.`.`.`.`.`.`.`.`.`.`.`.: s $.l c./.~.Q.(.l $.s : `.`.`.`.`.`.`.`.`.`.`.`.`.`.`.`.`.`.`.`.`.`.`.`.`.`.`.",
"`.`.`.`.`.`.`.`.`.`.`.`.`.`.`.`.`.`.`.`.`.`.`.`.`.`.5.%.l l #.~.~.~.~.~.l l l l `.`.`.`.`.`.`.`.`.`.`.`.`.`.`.`.`.`.`.`.`.`.`.`.`.`.`.",
"`.`.`.`.`.`.`.`.`.`.`.`.`.`.`.`.`.`.`.`.`.`.`.`.`.`.5.%.<.k.R.~.~.~.~.~.R.T.0.l `.`.`.`.`.`.`.`.`.`.`.`.`.`.`.`.`.`.`.`.`.`.`.`.`.`.`.",
"`.`.`.`.`.`.`.`.`.`.`.`.`.`.`.`.`.`.`.`.`.`.`.`.`.`.5.%.0.T.~.~.~.~.~.~.~._.t.l `.`.`.`.`.`.`.`.`.`.`.`.`.`.`.`.`.`.`.`.`.`.`.`.`.`.`.",
"`.`.`.`.`.`.`.`.`.`.`.`.`.`.`.`.`.`.`.`.`.`.`.`.`.`.2.$.t.~.~.~.~.~.~.~.~.~.t.l `.`.`.`.`.`.`.`.`.`.`.`.`.`.`.`.`.`.`.`.`.`.`.`.`.`.`.",
"`.`.`.`.`.`.`.`.`.$.u `.`.`.`.`.`.`.`.`.`.`.`.`.`.$.$.$.r.!.~.~.~.~.~.~.~.~.y.%.$.$.`.`.`.`.`.`.`.`.`.`.`.`.`.`.,.,.`.`.`.`.`.`.`.`.`.",
"`.`.`.`.`.`.`.Q./.S.u.`.`.`.`.`.`.`.`.`.`.`.`.`.`.l 5.y.@.p ~.~.~.~.~.~.~./.Q./.Z.l `.`.`.`.`.`.`.`.`.`.`.`.`.`.F.G.`.`.`.`.`.`.`.`.`.",
"`.`.`.`.`.`.; $.i.3 2 N a , `.`.`.`.`.`.`.`.`.`.`.l I.Q.!.I.~.= V.~.A.d ~.Q.~.~./.l `.`.`.`.`.`.`.`.`.`.`.,.$.N 2 3 M $.1.`.`.`.`.`.`.",
"`.`.`.`.`.`.; l B Y 1 N a ; `.`.`.`.`.`.`.`.`.`.`.l _.~.~.~.~.7 E Q W w %.^.~.~.Q.l `.`.`.`.`.`.`.`.`.`.`.,.$.N U U c $.,.`.`.`.`.`.`.",
"`.`.`.`.`.`.; x S Y T N a ; `.`.`.`.`.`.`.`.`.`.`.l Q.~.I.8.>.~ ( / ( ~ < 3.W.~.Q.l `.`.`.`.`.`.`.`.`.`.`.,.$.N U U c $.1.`.`.`.`.`.`.",
"`.`.`.`.`.`., x S U 1 N a ; `.`.`.`.`.`.`.`.`.`.`.,.Q./.,.% . } ..o.X.| X q 0.~.!.$.`.`.`.`.`.`.`.`.`.`.`.,.$.N T T c $.,.`.`.`.`.`.`.",
"`.`.`.`.`.`.; l g.b n Z a ; `.`.`.`.`.`.`.`.5.y.^.~./.4.m 7 8 } ..o... .( ` j._.(.c./.Z.5.`.`.`.`.`.`.`.`.%.$.Z b b B $.1.`.`.`.`.`.`.",
"`.`.`.`.`.`.; h i.J H z a ; `.`.`.`.`.`.`.`.$.t.~.~.i o $ 0 R X...o.o.o.o.) 7 t c.L E.t.$.`.`.`.`.`.`.`.`.,.$.A G G A $.,.`.`.`.`.`.`.",
"`.`.`.`.`.`.; g i.I G z a ; `.`.`.`.`.`.1.f j r.~.~.%.- @ 0 ! ] {  .o.o.o.' 6 * x.I E.r.j s ; `.`.`.`.`.`.,.$.z J G A $.1.`.`.`.`.`.`.",
"`.`.`.`.`.`.; h i.I F z a ; `.`.`.`.`.`.,.g x t.~.~.y.& @ 0 ! ( / { o.o.o.' 6 * x.I E.r.x g ; `.`.`.`.`.`.,.%.z I J A $.,.`.`.`.`.`.`.",
"`.`.`.`.`.`.; g i.I G z a ; `.`.`.`.`.`.l l l t.~.~.W.& + 9 R R R ) } } } ) 4 * x.I E.t.l j u `.`.`.`.`.`.,.$.A G G A %.,.`.`.`.`.`.`.",
"`.`.`.`.`.`.; h i.I F z a ; `.`.`.f s f l l l t.~.~.W.e X @ # # # 5 8 8 8 5 O * x.I E.t.l l l f u > `.`.`.,.$.z I I A $.1.`.`.`.`.`.`.",
"`.`.`.`.`.`.; g i.I F z a ; `.`.`.%.#.l 2.2.$.r.~.~.W.e       . . . . . . .   = x.I E.t.$.2.2.l i > `.`.`.,.%.z G J A $.,.`.`.`.`.`.`.",
"`.`.`.`.`.`.; h i.I H z j g l l l $.$.%.Y.Y.5.r.~.~.Q.e.7.7.7.7.7.7.7.7.7.7.7.4.D I E.y.9.Y.Y.,.g g l l l #.l z I G A $.,.`.`.`.`.`.`.",
"`.`.`.`.`.`.; g i.G F z l l $.t.t.r.t.y.~.~.D.A.~.~.~.~.~.~.~.~.~.~.~.~.~.~.~.F.F I E.T.T.~.~.y.t.t.t.t.$.l l A G F A $.1.`.`.`.`.`.`.",
"`.`.`.`.`.`.; g i.C V l l l $.T.E.E.E.E.~.~.~.~.Q.R.~.~.~.~.~.~.~.~.~.~.~.~.~.T.D C W.~.~.~.).E.E.E.E.).,.l l z C C Z $.,.`.`.`.`.`.`.",
"`.`.`.`.`.`.; s x l l l l l l v J I I h.~.Q.~.~.R.l Q.~.~.~.~.~.~.~.~.~.~.~.~.~.Q.l R.~.~.Q.H.L I I L J.$.l l l l l l $.1.`.`.`.`.`.`.",
"`.`.`.`.`.`.!.Q.Q.Q.Q.Q.Q.Q.(.H I I I I F V G.~.R.l Q.~.~.~.~.~.~.~.~.~.~.~.~.~.Q.l R.~.~.~.(.P G G K F E.Q._._.Q.~.Q.~.Q.`.`.`.`.`.`.",
"`.`.`.`.: #.p.d.f.f.f.f.f.f.s.J I I I I G G G.~.R.l Q.~.~.~.~.~.~.~.~.~.~.~.~.~.Q.l R.~.~.~._.T.p.H I I s.f.f.f.s.s.s.d.p.l , `.`.`.`.",
"`.`.`.j y l k.z.z.z.z.z.z.z.z.z.z.z.z.z.z.z.E.~.I.#./.~.~.~.~.~.~.~.~.~.~.~.~.~.R.#.R.~.~.~.~.~.G.k.z.z.z.z.z.z.z.k.z.z.q.l y j `.`.`.",
"`.`.1.$.f l C.T.S.S.S.S.S.S.S.S.S.S.S.S.S.Y.Y.Y.D.#.C.Y.Y.Y.Y.Y.Y.Y.Y.W.Y.Y.I.T.y.l C.Y.Y.Y.Y.Y.Y.T.S.S.S.S.S.S.S.S.S.T.C.l f #.1.`.`.",
"`.`.l l l l l l l l l l l l l l l l l l #.l l l #.l l l l l l #.l l l l l l l l l l l l l l l l l l l l l l l #.l l l l l l #.l l `.`.",
"`.`.`.`.`.`.`.`.`.`.`.`.`.`.`.`.`.`.`.`.`.`.l t.E.F F F F F F F F F F F F F F F F F E.t.#.`.`.`.`.`.`.`.`.`.`.`.`.`.`.`.`.`.`.`.`.`.`.",
"`.`.`.`.`.`.`.`.`.`.`.`.`.`.`.`.`.`.`.`.`.`.l r.E.K K K I I G I K K I I G I I G I I E.t.l `.`.`.`.`.`.`.`.`.`.`.`.`.`.`.`.`.`.`.`.`.`.",
"`.`.`.`.`.`.`.`.`.`.`.`.`.`.`.`.`.`.`.`.`.`.`.r.Z.z.:.K I I I I I I I K I I I h.x.z.E.y.`.`.`.`.`.`.`.`.`.`.`.`.`.`.`.`.`.`.`.`.`.`.`.",
"`.`.`.`.`.`.`.`.`.`.`.`.`.`.`.`.`.`.`.`.`.`.`.`.r.D.l.L I I K G I I I K I I I f./.D.W.`.`.`.`.`.`.`.`.`.`.`.`.`.`.`.`.`.`.`.`.`.`.`.`.",
"`.`.`.`.`.`.`.`.`.`.`.`.`.`.`.`.`.`.`.`.`.`.`.`.`.$.J.a.G F G G G F G G F G F d.Q.$.`.`.`.`.`.`.`.`.`.`.`.`.`.`.`.`.`.`.`.`.`.`.`.`.`.",
"`.`.`.`.`.`.`.`.`.`.`.`.`.`.`.`.`.`.`.`.`.`.`.`.`.`.5.%.#.l l l #.#.#.#.l l l l `.`.`.`.`.`.`.`.`.`.`.`.`.`.`.`.`.`.`.`.`.`.`.`.`.`.`.",
"`.`.`.`.`.`.`.`.`.`.`.`.`.`.`.`.`.`.`.`.`.`.`.`.`.`.5.%.l l l +.O.O.+.j l l l l `.`.`.`.`.`.`.`.`.`.`.`.`.`.`.`.`.`.`.`.`.`.`.`.`.`.`.",
"`.`.`.`.`.`.`.`.`.`.`.`.`.`.`.`.`.`.`.`.`.`.`.`.`.`.4.%.l l l w.w.b.w.-.l l l l `.`.`.`.`.`.`.`.`.`.`.`.`.`.`.`.`.`.`.`.`.`.`.`.`.`.`.",
"`.`.`.`.`.`.`.`.`.`.`.`.`.`.`.`.`.`.`.`.`.`.`.`.`.`.5.,.$.%.$.B.M.M.m.w.,.$.,.,.`.`.`.`.`.`.`.`.`.`.`.`.`.`.`.`.`.`.`.`.`.`.`.`.`.`.`.",
"`.`.`.`.`.`.`.`.`.`.`.`.`.`.`.`.`.`.`.`.`.`.`.`.`.`.`.5.5.2.5.*.=.=.=.&.5.5.2.5.`.`.`.`.`.`.`.`.`.`.`.`.`.`.`.`.`.`.`.`.`.`.`.`.`.`.`.",
"`.`.`.`.`.`.`.`.`.`.`.`.`.`.`.`.`.`.`.`.`.`.`.`.`.`.`.`.`.`.`.> > > > > `.`.`.`.`.`.`.`.`.`.`.`.`.`.`.`.`.`.`.`.`.`.`.`.`.`.`.`.`.`.`.",
"`.`.`.`.`.`.`.`.`.`.`.`.`.`.`.`.`.`.`.`.`.`.`.`.`.L.`.`.`.`.`.`.`.`.`.`.`.`.`.`.`.L.`.`.`.`.`.`.`.`.`.`.`.`.`.`.`.`.`.`.`.`.`.`.`.`.`.",
"`.`.`.`.`.`.`.`.`.`.`.`.`.`.`.`.`.`.`.`.`.`.`.`.`.L.N.`.`.`.`.`.`.`.`.`.`.`.`.`.L.L.`.`.`.`.`.`.`.`.`.`.`.`.`.`.`.`.`.`.`.`.`.`.`.`.`.",
"`.`.`.`.`.`.`.`.`.`.`.`.`.`.`.`.`.`.`.`.`.`.`.`.`.P.N.`.`.`.`.`.`.`.`.`.`.`.`.`.L.P.`.`.`.`.`.`.`.`.`.`.`.`.`.`.`.`.`.`.`.`.`.`.`.`.`.",
"`.`.`.`.`.`.`.`.`.`.`.`.`.`.`.`.`.`.`.`.`.`.`.`.`.`.`.P.P.P.P.P.P.P.P.P.P.P.P.P.`.`.`.`.`.`.`.`.`.`.`.`.`.`.`.`.`.`.`.`.`.`.`.`.`.`.`.",
"`.`.`.`.`.`.`.`.`.`.`.`.`.`.`.`.`.`.`.`.`.`.`.`.`.`.`.L.L.L.L.L.L.L.L.L.L.L.L.L.`.`.`.`.`.`.`.`.`.`.`.`.`.`.`.`.`.`.`.`.`.`.`.`.`.`.`.",
"`.`.`.`.`.`.`.`.`.`.`.`.`.`.`.`.`.`.`.`.`.`.`.`.`.`.`.`.`.`.`.`.`.`.`.`.`.`.`.`.`.`.`.`.`.`.`.`.`.`.`.`.`.`.`.`.`.`.`.`.`.`.`.`.`.`.`.",
"`.`.`.`.`.`.`.`.`.`.`.`.`.`.`.`.`.`.`.`.`.`.`.`.`.`.`.`.`.`.`.`.`.`.`.`.`.`.`.`.`.`.`.`.`.`.`.`.`.`.`.`.`.`.`.`.`.`.`.`.`.`.`.`.`.`.`.",
"`.`.`.`.`.`.`.`.`.`.`.`.`.`.`.`.`.`.`.`.`.`.`.`.`.`.`.`.`.`.`.`.`.`.`.`.`.`.`.`.`.`.`.`.`.`.`.`.`.`.`.`.`.`.`.`.`.`.`.`.`.`.`.`.`.`.`.",
"`.`.`.`.`.`.`.`.`.`.`.`.`.`.`.`.`.`.`.`.`.`.`.`.`.`.`.P.P.`.`.`.`.`.`.`.`.`.P.P.`.`.`.`.`.`.`.`.`.`.`.`.`.`.`.`.`.`.`.`.`.`.`.`.`.`.`.",
"`.`.`.`.`.`.`.`.`.`.`.`.`.`.`.`.`.`.`.`.`.`.`.`.`.`.`.L.P.`.`.`.`.`.`.`.`.`.P.L.`.`.`.`.`.`.`.`.`.`.`.`.`.`.`.`.`.`.`.`.`.`.`.`.`.`.`.",
"`.`.`.`.`.`.`.`.`.`.`.`.`.`.`.`.`.`.`.`.`.`.`.`.`.`.`.`.`.P.P.P.P.P.P.P.P.P.`.`.`.`.`.`.`.`.`.`.`.`.`.`.`.`.`.`.`.`.`.`.`.`.`.`.`.`.`.",
"`.`.`.`.`.`.`.`.`.`.`.`.`.`.`.`.`.`.`.`.`.`.`.`.`.`.`.`.`.`.`.`.`.`.`.`.`.`.`.`.`.`.`.`.`.`.`.`.`.`.`.`.`.`.`.`.`.`.`.`.`.`.`.`.`.`.`.",
"`.`.`.`.`.`.`.`.`.`.`.`.`.`.`.`.`.`.`.`.`.`.`.`.`.`.`.`.`.`.`.`.`.`.`.`.`.`.`.`.`.`.`.`.`.`.`.`.`.`.`.`.`.`.`.`.`.`.`.`.`.`.`.`.`.`.`.",
"`.`.`.`.`.`.`.`.`.`.`.`.`.`.`.`.`.`.`.`.`.`.`.`.`.`.`.`.`.`.`.`.`.`.`.`.`.`.`.`.`.`.`.`.`.`.`.`.`.`.`.`.`.`.`.`.`.`.`.`.`.`.`.`.`.`.`.",
"`.`.`.`.`.`.`.`.`.`.`.`.`.`.`.`.`.`.`.`.`.`.`.`.`.`.`.`.`.L.P.`.`.`.`.`.L.`.`.`.`.`.`.`.`.`.`.`.`.`.`.`.`.`.`.`.`.`.`.`.`.`.`.`.`.`.`.",
"`.`.`.`.`.`.`.`.`.`.`.`.`.`.`.`.`.`.`.`.`.`.`.`.`.`.`.`.`.P.P.`.`.`.`.`.P.P.`.`.`.`.`.`.`.`.`.`.`.`.`.`.`.`.`.`.`.`.`.`.`.`.`.`.`.`.`.",
"`.`.`.`.`.`.`.`.`.`.`.`.`.`.`.`.`.`.`.`.`.`.`.`.`.`.`.`.`.`.`.P.L.L.L.L.`.`.`.`.`.`.`.`.`.`.`.`.`.`.`.`.`.`.`.`.`.`.`.`.`.`.`.`.`.`.`.",
"`.`.`.`.`.`.`.`.`.`.`.`.`.`.`.`.`.`.`.`.`.`.`.`.`.`.`.`.`.`.`.P.P.P.P.P.`.`.`.`.`.`.`.`.`.`.`.`.`.`.`.`.`.`.`.`.`.`.`.`.`.`.`.`.`.`.`.",
"`.`.`.`.`.`.`.`.`.`.`.`.`.`.`.`.`.`.`.`.`.`.`.`.`.`.`.`.`.`.`.P.P.P.P.P.`.`.`.`.`.`.`.`.`.`.`.`.`.`.`.`.`.`.`.`.`.`.`.`.`.`.`.`.`.`.`.",
"`.`.`.`.`.`.`.`.`.`.`.`.`.`.`.`.`.`.`.`.`.`.`.`.`.`.`.`.`.`.`.`.`.`.`.`.`.`.`.`.`.`.`.`.`.`.`.`.`.`.`.`.`.`.`.`.`.`.`.`.`.`.`.`.`.`.`."
};
