/* XPM */
static char *nave_small_5[] = {
/* columns rows colors chars-per-pixel */
"67 67 249 2 ",
"   c #000000",
".  c #010000",
"X  c #010100",
"o  c #010101",
"O  c #020101",
"+  c #030300",
"@  c #020202",
"#  c #030303",
"$  c #040303",
"%  c #060606",
"&  c #080700",
"*  c #0B0B03",
"=  c #0E0D01",
"-  c #0A0909",
";  c #0B0B0B",
":  c #0E0D0D",
">  c #0F0E0E",
",  c #161501",
"<  c #191802",
"1  c #141212",
"2  c #181818",
"3  c #1B1919",
"4  c #1D1D1D",
"5  c #222001",
"6  c #252301",
"7  c #2D2A02",
"8  c #2E2B02",
"9  c #353102",
"0  c #373302",
"q  c #322E1C",
"w  c #252323",
"e  c #262626",
"r  c #292525",
"t  c #2A2A2A",
"y  c #2D2B2B",
"u  c #2F2F2F",
"i  c #302B2B",
"p  c #303030",
"a  c #343030",
"s  c #363131",
"d  c #343232",
"f  c #373232",
"g  c #3B3636",
"h  c #3C3535",
"j  c #3D3535",
"k  c #3F3434",
"l  c #3C3737",
"z  c #373A3C",
"x  c #373B3D",
"c  c #363C3F",
"v  c #383838",
"b  c #393838",
"n  c #393939",
"m  c #3A3939",
"M  c #3A3A3A",
"N  c #3B3A3A",
"B  c #3B3B3B",
"V  c #3D3838",
"C  c #3C3B3B",
"Z  c #3D3B3B",
"A  c #3C3C3C",
"S  c #3D3C3C",
"D  c #3D3D3D",
"F  c #3E3C3C",
"G  c #3F3C3C",
"H  c #3E3D3D",
"J  c #3F3D3D",
"K  c #3E3E3E",
"L  c #3F3E3E",
"P  c #3F3F3F",
"I  c #7E0A0A",
"U  c #7B0C0C",
"Y  c #790E0E",
"T  c #7C0C0C",
"R  c #6D1616",
"E  c #761010",
"W  c #443F03",
"Q  c #452F2F",
"!  c #4D2A2A",
"~  c #4C2B2B",
"^  c #4E2A2A",
"/  c #482D2D",
"(  c #532626",
")  c #433131",
"_  c #413232",
"`  c #403333",
"'  c #423232",
"]  c #413B3B",
"[  c #403E3E",
"{  c #413E3E",
"}  c #403F3F",
"|  c #433F3F",
" . c #453F3F",
".. c #762828",
"X. c #7A2E2E",
"o. c #544E13",
"O. c #5B5717",
"+. c #6F680D",
"@. c #736B04",
"#. c #797004",
"$. c #363E43",
"%. c #354046",
"&. c #34434C",
"*. c #314956",
"=. c #304D5C",
"-. c #2F5062",
";. c #404040",
":. c #414040",
">. c #414141",
",. c #434040",
"<. c #424141",
"1. c #434343",
"2. c #454040",
"3. c #454141",
"4. c #444343",
"5. c #474242",
"6. c #444444",
"7. c #454545",
"8. c #464444",
"9. c #474444",
"0. c #474545",
"q. c #464646",
"w. c #474747",
"e. c #484242",
"r. c #494343",
"t. c #4A4444",
"y. c #4B4444",
"u. c #4B4545",
"i. c #494747",
"p. c #4C4545",
"a. c #4C4646",
"s. c #4D4646",
"d. c #4E4747",
"f. c #484848",
"g. c #494949",
"h. c #4B4949",
"j. c #4A4A4A",
"k. c #4C4848",
"l. c #4D4848",
"z. c #4C4949",
"x. c #4F4848",
"c. c #4C4A4A",
"v. c #4D4A4A",
"b. c #4C4C4C",
"n. c #4D4D4D",
"m. c #4F4C4C",
"M. c #4E4E4E",
"N. c #4F4F4F",
"B. c #504A4A",
"V. c #504B4B",
"C. c #514B4B",
"Z. c #514C4C",
"A. c #504D4D",
"S. c #514D4D",
"D. c #514E4E",
"F. c #534F4F",
"G. c #505050",
"H. c #515151",
"J. c #525252",
"K. c #535353",
"L. c #545050",
"P. c #545151",
"I. c #555151",
"U. c #565151",
"Y. c #565252",
"T. c #545454",
"R. c #555555",
"E. c #575757",
"W. c #585555",
"Q. c #595757",
"!. c #5A5757",
"~. c #585858",
"^. c #595959",
"/. c #5B5858",
"(. c #5A5A5A",
"). c #5B5B5B",
"_. c #5C5C5C",
"`. c #5D5C5C",
"'. c #5D5D5D",
"]. c #5F5C5C",
"[. c #5E5E5E",
"{. c #5F5F5F",
"}. c #625F5F",
"|. c #6D5C5C",
" X c #606060",
".X c #616161",
"XX c #626262",
"oX c #636363",
"OX c #646262",
"+X c #646363",
"@X c #646464",
"#X c #656565",
"$X c #666565",
"%X c #666666",
"&X c #676767",
"*X c #6D6262",
"=X c #686868",
"-X c #696969",
";X c #6A6A6A",
":X c #6B6B6B",
">X c #6C6C6C",
",X c #6D6D6D",
"<X c #6E6D6D",
"1X c #6E6E6E",
"2X c #6F6E6E",
"3X c #6F6F6F",
"4X c #707070",
"5X c #717171",
"6X c #737070",
"7X c #727272",
"8X c #830707",
"9X c #860505",
"0X c #850606",
"qX c #8B0202",
"wX c #880404",
"eX c #810808",
"rX c #871313",
"tX c #867C06",
"yX c #8A8105",
"uX c #8A8106",
"iX c #8C8205",
"pX c #8D8306",
"aX c #8F8506",
"sX c #908606",
"dX c #9C9106",
"fX c #A09506",
"gX c #A19606",
"hX c #AB9F07",
"jX c #B2A607",
"kX c #B5A807",
"lX c #C3B507",
"zX c #D1C208",
"xX c #DCCD08",
"cX c #E0D108",
"vX c #EEDD09",
"bX c #EFDE09",
"nX c #F0DF09",
"mX c #1D7EB2",
"MX c #1B84BD",
"NX c #1A87C3",
"BX c #178ECD",
"VX c #1691D4",
"CX c #1692D6",
"ZX c #1497DD",
"AX c #119DE9",
"SX c #119EE9",
"DX c #119EEA",
"FX c #119FEB",
"GX c None",
/* pixels */
"GXGXGXGXGXGXGXGXGXGXGXGXGXGXGXGXGXGXGXGXGXGXGXGXGXGXGXGXGXGXGXGXGXGXGXGXGXGXGXGXGXGXGXGXGXGXGXGXGXGXGXGXGXGXGXGXGXGXGXGXGXGXGXGXGXGXGX",
"GXGXGXGXGXGXGXGXGXGXGXGXGXGXGXGXGXGXGXGXGXGXGXGXGXGXGXGXGXGXGXGXGXGXGXGXGXGXGXGXGXGXGXGXGXGXGXGXGXGXGXGXGXGXGXGXGXGXGXGXGXGXGXGXGXGXGX",
"GXGXGXGXGXGXGXGXGXGXGXGXGXGXGXGXGXGXGXGXGXGXGXGXGXGXGXGXGXGXGXGXGXGXGXGXGXGXGXGXGXGXGXGXGXGXGXGXGXGXGXGXGXGXGXGXGXGXGXGXGXGXGXGXGXGXGX",
"GXGXGXGXGXGXGXGXGXGXGXGXGXGXGXGXGXGXGXGXGXGXGXGXGXGXGXGXGXGXGXGXGXGXGXGXGXGXGXGXGXGXGXGXGXGXGXGXGXGXGXGXGXGXGXGXGXGXGXGXGXGXGXGXGXGXGX",
"GXGXGXGXGXGXGXGXGXGXGXGXGXGXGXGXGXGXGXGXGXGXGXGXGXGXGXGXGXGXGXGXGXGXGXGXGXGXGXGXGXGXGXGXGXGXGXGXGXGXGXGXGXGXGXGXGXGXGXGXGXGXGXGXGXGXGX",
"GXGXGXGXGXGXGXGXGXGXGXGXGXGXGXGXGXGXGXGXGXGXGXGXGXGXGXGXGXGXGXGXGXGXGXGXGXGXGXGXGXGXGXGXGXGXGXGXGXGXGXGXGXGXGXGXGXGXGXGXGXGXGXGXGXGXGX",
"GXGXGXGXGXGXGXGXGXGXGXGXGXGXGXGXGXGXGXGXGXGXGXGXGXGXGXGXGXGXGXGXGXGXGXGXGXGXGXGXGXGXGXGXGXGXGXGXGXGXGXGXGXGXGXGXGXGXGXGXGXGXGXGXGXGXGX",
"GXGXGXGXGXGXGXGXGXGXGXGXGXGXGXGXGXGXGXGXGXGXGXGXGXGXGXGXGXGXGXGXGXGXGXGXGXGXGXGXGXGXGXGXGXGXGXGXGXGXv GXGXGXGXGXGXGXGXGXGXGXGXGXGXGXGX",
"GXGXGXGXGXGXGXGXGXGXGXGXGXGXGXGXGXGXGXGXGXGXGXGXGXGXGXGXGXGXGXGXGXGXGXGXGXGXGXGXGXGXGXGXGXGXGXGXGXv v GXGXGXGXGXGXGXGXGXGXGXGXGXGXGXGX",
"GXGXGXGXGXGXGXGXGXGXGXGXGXGXGXGXGXGXGXGXGXGXGXGXGXGXGXGXGXGXGXGXGXGXGXGXGXGXGXGXGXGXGXGXGXGXGXGXv v v GXGXGXGXGXGXGXGXGXGXGXGXGXGXGXGX",
"GXGXGXGXGXGXGXGXGXGXGXDXDXGXDXDXGXGXGXGXGXGXGXGXGXGXGXGXGXGXGXGXGXGXGXGXGXGXGXGXGXGXGXGXGXGXGXv v v v GXGXGXGXGXGXGXGXGXGXGXGXGXGXGXGX",
"GXGXGXGXGXGXGXGXGXGXDXDXGXGXGXGXGXGXGXGXGXGXGXGXGXGXGXGXGXGXGXGXGXGXGXGXGXGXGXGXGXGXGXGXGXGXv v D ;.v v GXGXGXGXGXGXGXGXGXGXGXGXGXGXGX",
"GXGXGXGXGXGXGXGXGXGXDXGXGXGXGXGXGXDXDXGXDXDXGXGXGXGXGXGXGXGXGXGXGXGXGXGXGXGXGXGXGXGXGXGXGXGXv B #X,Xw.GXGXGXGXGXGXGXGXGXGXGXGXGXGXGXGX",
"GXGXGXGXGXGXGXGXGXGXGXGXGXGXGXGXDXDXDXGXDXDXGXGXGXGXGXGXGXGXGXGXGXGXGXGXGXGXGXGXGXGXGXGXGXv n .X7X1X1.GXGXGXGXGXGXGXGXGXGXGXGXGXGXGXGX",
"GXGXGXGXGXGXGXGXGXGXDXGXGXGXGXGXDXDXGXGXGXGXGXGXGXGXGXGXGXGXGXGXGXGXGXGXGXGXGXGXGXGXGXGXv b _.7X4X7.v v GXGXGXGXGXGXGXGXGXGXGXGXGXGXGX",
"GXGXGXGXGXGXGXGXGXGXDXGXGXGXGXDXDXGXGXGXGXGXGXDXDXGXDXDXGXGXGXGXGXGXGXGXGXGXGXGXGXGXGXv v E.7X5Xj.v n v v GXGXGXGXGXGXGXGXGXGXGXGXGXGX",
"GXGXGXGXGXGXGXGXGXGXGXGXGXGXDXDXGXGXGXGXGXGXFXDXDXGXGXAXGXGXGXGXGXGXGXGXGXGXGXGXGXGXv v H.7X7XN.v M oXJ.v v GXGXGXGXGXGXGXGXGXGXGXGXGX",
"GXGXGXGXGXGXGXGXGXGXGXGXGXDXDXGXGXGXGXGXGXSXDXDXGXGXGXGXGXGXGXGXGXGXGXGXGXGXGXGXGXv v b.5X7XT.v v M.7X7X~.b v v GXGXGXGXGXGXGXGXGXGXGX",
"GXGXGXGXGXGXGXGXGXGXGXGXGXDXGXGXGXGXGXGXDXDXDXGXGXGXGXGXGXGXGXGXGXGXGXGXGXGXGXGXv v w.4X7X(.v v v v K.7X7X'.m v v GXGXGXGXGXGXGXGXGXGX",
"GXGXGXGXGXGXGXGXGXGXGXGXGXGXGXGXGXGXGXSXDXDXGXGXGXGXGXGXv GXGXGXGXGXGXGXGXGXGXv v 1.3X7X7XG.v v v v v M.5X7XXXB v v GXGXGXGXGXGXGXGXGX",
"GXGXGXGXGXGXGXGXGXGXGXGXGXDXDXGXGXGXGXDXDXGXGXGXGXGXGXv v v v GXGXv GXGXv GXv v P >X7X7X7X7Xg.v v GXv v g.3X7X%XD v v GXGXGXGXGXGXGXGX",
"GXGXGXGXGXGXGXGXGXGXGXGXGXDXGXGXGXGXDXDXGXGXGXv v GXx v v v v H.P v ~.1.v v v D -X7X7X7X7X Xn v GXGXGXv v 6.,X7X|.) v v GXGXGXGXGXGXGX",
"GXGXGXGXGXGXGXGXGXGXGXGXGXGXGXGXGXDXDXGXGXGXGXv %.BXMX$.v v g.5X>X^.7X2XD v m `.7X2X$X7X@XM v GXGXGXGXGXv v >.*XrX8X/ v v GXGXGXGXGXGX",
"GXGXGXGXGXGXGXGXGXGXGXGXGXGXGXGXDXDXGXGXGXGXv c NXDXCX&.v 7.4X7X7X7X7XJ.v b v.Y.OX!.Y.].A v v GXGXGXGXGXGXv v ` T qX9X^ v GXGXGXGXGXGX",
"GXGXGXGXGXGXGXGXGXGXGXGXGXGXGXGXGXGXGXGXGXGXGXmXDXZX*.v >.1X7X7X7X7X~.v v b i.Y.Y.Y.Y.Y.z.b v v GXGXGXGXGXGXv v j E qXU GXGXGXGXGXGXGX",
"GXGXGXGXGXGXGXGXGXGXGXGXGXGXGXGXGXGXGXGXGXGXGX=.VX-.v K :X7X7X7X7X'.b v Z v v 8.Y.L.0.U.D.M v v GXGXGXGXGXGXGXv v g R ' v GXGXGXGXGXGX",
"GXGXGXGXGXGXGXGXGXGXGXGXGXGXGXGXFXDXGXGXGXGXv v z v A =X7X7X7X7XXXm v { s.| v v 4.} v } C v v GXGXGXGXGXGXGXGXGXv v GXGXv GXGXGXGXGXGX",
"GXGXGXGXGXGXGXGXGXGXGXGXGXGXGXGXGXGXGXGXGXv v v v M @X7X7X7X7X%XB v J s.s.s.2.n c.v.m v v v v v GXGXGXGXGXGXGXGXGXGXGXGXGXGXGXGXGXGXGX",
"GXGXGXGXGXGXGXGXGXGXGXGXGXGXGXGXGXGXGXGXGXv v v b {.7X7X7X7X;XD v F a.s.s.s.s.V.Y.Y.m.M v v v v GXGXGXGXGXGXGXGXGXGXGXGXGXGXGXGXGXGXGX",
"GXGXGXGXGXGXGXGXGXGXGXGXGXGXGXGXGXGXGXGXGXGXv v (.7X7X7X7X,X;.v C p.s.s.s.s.Z.Y.I.S.Y.D.C v v GXGXGXGXGXGXGXGXGXGXGXGXGXGXGXGXGXGXGXGX",
"GXGXGXGXGXGXGXGXGXGXGXGXGXGXGXGXGXGXGXGXGXGXGXK.7X7X7X7X3X6.v N u.s.s.s.s.C.Y.Y.w > k.Y.F.H v v GXGXGXGXGXGXGXGXGXGXGXGXGXGXGXGXGXGXGX",
"GXGXGXGXGXGXGXGXGXGXGXGXGXGXGXGXGXGXGXGXGXGXGXM {.7X7X4Xf.v m t.s.s.s.s.d.I.Y.y     - 9.U.l.S v GXGXGXGXGXGXGXGXGXGXGXGXGXGXGXGXGXGXGX",
"GXGXGXGXGXGXGXGXGXGXGXGXGXGXGXGXGXGXGXGXGXGXGXv T.7X5Xn.v n r.s.s.s.s.s.s.x.d . . =   % V s.y.GXGXGXGXGXGXGXGXGXGXGXGXGXGXGXGXGXGXGXGX",
"GXGXGXGXGXGXGXGXGXGXGXGXGXGXGXGXGXGXGXGXGXGXGXM.7X7XJ.v b 5.s.s.s.s.s.s.s.s O   W tX5   # a Z v GXGXGXGXGXGXGXGXGXGXGXGXGXGXGXGXGXGXGX",
"GXGXGXGXGXGXGXGXGXGXGXGXGXGXGXGXGXGXGXGXGXGXGXv R.E.v v 3.s.s.s.s.s.s.s.l $   0 aXsXuX7 @ f [ v v GXGXGXGXGXGXGXGXGXGXGXGXGXGXGXGXGXGX",
"GXGXGXGXGXGXGXGXGXGXGXGXGXGXGXGXGXGXGXGXGXGXGXv v v v v G p.s.s.s.s.s.] %   8 pXsXdXsXpXq s.s.| v v v GXGXGXGXGXGXGXGXGXGXGXGXGXGXGXGX",
"GXGXGXGXGXGXGXGXGXGXGXGXGXGXGXGXGXGXGXGXGXGXGXGXv v :.n v Z u.s.s.s. .-   9 cXhXjXvXkXW . r s.s.,.v v GXGXGXGXGXGXGXGXGXGXGXGXGXGXGXGX",
"GXGXGXGXGXGXGXGXGXGXGXGXGXGXGXGXGXGXGXGXGXGXGXv v <.Y.m.M v Z B.s.e.:   6 xXnXvXvXnXbX@.o i s.p.Z v v GXGXGXGXGXGXGXGXGXGXGXGXGXGXGXGX",
"GXGXGXGXGXGXGXGXGXGXGXGXGXGXGXGXGXGXGXGXGXGXv v } I.Y.Y.S.C ).<XC.1   , zXnXnXnXnXnXnXnXo.p.d.Q.M v v GXGXGXGXGXGXGXGXGXGXGXGXGXGXGXGX",
"GXGXGXGXGXGXGXGXGXGXGXGXGXGXGXGXGXGXGXGXGXv v H P.Y.Y.Y.Y.i.=X7X:X4   & fXnXnXnXnXnXnXiXX 3 }.7X@XA v v GXGXGXGXGXGXGXGXGXGXGXGXGXGXGX",
"GXGXGXGXGXGXGXGXGXGXGXGXGXGXGXGXGXGXGXGXv v C F.Y.Y.Y.Y.h.v A #X7X2Xe   + yXnXlX#.bXgX+   M 7X7X7X=XK v v GXGXGXGXGXGXGXGXGXGXGXGXGXGX",
"GXGXGXGXGXGXGXGXGXGXGXGXGXGXGXGXGXGXGXv v D +XW./.>X!.Y.L.L v M  X7X4Xp   X +.<   O.*   u 7X7X7X7X4Xq.v v GXGXGXGXGXGXGXGXGXGXGXGXGXGX",
"GXGXGXGXGXGXGXGXGXGXGXGXGXGXGXGXGXGXGXv B %X7X<X3X7XXXA.Y.i.v v n ).7X7XB ; XXf.2 :XK.t 4X7X7X7X7XJ.v v GXGXGXGXGXGXGXGXGXGXGXGXGXGXGX",
"GXGXGXGXGXGXGXGXGXGXGXGXGXGXGXGXGXGXv m XX7X7X7X7X=XA m 8.b v v v v R.7X3XM.5X7X4X7X7X7X7X7X7X7X7X,X7.v v GXGXGXGXGXGXGXGXGXGXGXGXGXGX",
"GXGXGXGXGXGXGXGXGXGXGXGXGXGXGXGXGXv b '.7X4Xj.&X:XK v v v v v v v v v H.g.v j.4X7X-X<X7X7X7X7X7X7X5Xn.v v GXGXGXGXGXGXGXGXGXGXGXGXGXGX",
"GXGXGXGXGXGXGXGXGXGXGXGXGXGXGXGXv v E.7X5Xg.v B ;.v v v v v GXv GXGXv GXGXv v 7.&XK >.:X7X7X3X7X7XJ.v v GXGXGXGXGXGXGXGXGXGXGXGXGXGXGX",
"GXGXGXGXGXGXGXGXGXGXGXGXGXGXGXv v J.7X7XM.v v v v v GXGXGXGXGXGXGXGXGXGXGXGXv v b v v K &X.XA oX~.v v v v GXGXGXGXGXGXGXGXGXGXGXGXGXGX",
"GXGXGXGXGXGXGXGXGXGXGXGXGXGXv v n.5X7XT.v v v v v GXGXGXGXGXGXGXGXGXGXGXGXGXGXv v v v v B B v n b v v v v GXGXGXGXGXGXGXGXGXGXGXGXGXGX",
"GXGXGXGXGXGXGXGXGXGXGXGXGXv v q.4X7X^.v b 1.v v GXGXGXGXGXGXGXGXGXGXGXGXGXGXGXGXGXGXGXv v v v v v v v v GXGXGXGXGXGXGXGXGXGXGXGXGXGXGX",
"GXGXGXGXGXGXGXGXGXGXGXGXv v v D %X[.b v R.5XN.v v GXGXGXGXGXGXGXGXGXGXGXGXGXGXGXGXGXGXGXGXv GXGXGXGXGXGXGXGXGXGXGXGXGXGXGXGXGXGXGXGXGX",
"GXGXGXGXGXGXGXGXGXGXGXv v v v v GXGXv b _.7X7XT.v v GXGXGXGXGXGXGXGXGXGXGXGXGXGXGXGXGXGXGXGXGXGXGXGXGXGXGXGXGXGXGXGXGXGXGXGXGXGXGXGXGX",
"GXGXGXGXGXGXGXGXGXGXGXGXv GXGXGXGXGXGXv b E.7X7X(.b v GXGXGXGXGXGXGXGXGXGXGXGXGXGXGXGXGXGXGXGXGXGXGXGXGXGXGXGXGXGXGXGXGXGXGXGXGXGXGXGX",
"GXGXGXGXGXGXGXGXGXGXGXGXGXGXGXGXGXGXGXGXv v H.5X7X{.M v v GXGXGXGXGXGXGXGXGXGXGXGXGXGXGXGXGXGXGXGXGXGXGXGXGXGXGXGXGXGXGXGXGXGXGXGXGXGX",
"GXGXGXGXGXGXGXGXGXGXGXGXGXGXGXGXGXGXGXGXGXv v b.4X7X@XA v v GXGXGXGXGXGXGXGXGXGXGXGXGXGXGXGXGXGXGXGXGXGXGXGXGXGXGXGXGXGXGXGXGXGXGXGXGX",
"GXGXGXGXGXGXGXGXGXGXGXGXGXGXGXGXGXGXGXGXGXGXv v w.3X6X.._ v v GXGXGXGXGXGXGXGXGXGXGXGXGXGXGXGXGXGXGXGXGXGXGXGXGXGXGXGXGXGXGXGXGXGXGXGX",
"GXGXGXGXGXGXGXGXGXGXGXGXGXGXGXGXGXGXGXGXGXGXGXv v 1.X.qXeXQ v v GXGXGXGXGXGXGXGXGXGXGXGXGXGXGXGXGXGXGXGXGXGXGXGXGXGXGXGXGXGXGXGXGXGXGX",
"GXGXGXGXGXGXGXGXGXGXGXGXGXGXGXGXGXGXGXGXGXGXGXGXv v ) I qX0X~ GXGXGXGXGXGXGXGXGXGXGXGXGXGXGXGXGXGXGXGXGXGXGXGXGXGXGXGXGXGXGXGXGXGXGXGX",
"GXGXGXGXGXGXGXGXGXGXGXGXGXGXGXGXGXGXGXGXGXGXGXGXGXv v k Y wX! GXGXGXGXGXGXGXGXGXGXGXGXGXGXGXGXGXGXGXGXGXGXGXGXGXGXGXGXGXGXGXGXGXGXGXGX",
"GXGXGXGXGXGXGXGXGXGXGXGXGXGXGXGXGXGXGXGXGXGXGXGXGXGXv v h ( v v GXGXGXGXGXGXGXGXGXGXGXGXGXGXGXGXGXGXGXGXGXGXGXGXGXGXGXGXGXGXGXGXGXGXGX",
"GXGXGXGXGXGXGXGXGXGXGXGXGXGXGXGXGXGXGXGXGXGXGXGXGXGXGXGXGXGXGXGXGXGXGXGXGXGXGXGXGXGXGXGXGXGXGXGXGXGXGXGXGXGXGXGXGXGXGXGXGXGXGXGXGXGXGX",
"GXGXGXGXGXGXGXGXGXGXGXGXGXGXGXGXGXGXGXGXGXGXGXGXGXGXGXGXGXGXGXGXGXGXGXGXGXGXGXGXGXGXGXGXGXGXGXGXGXGXGXGXGXGXGXGXGXGXGXGXGXGXGXGXGXGXGX",
"GXGXGXGXGXGXGXGXGXGXGXGXGXGXGXGXGXGXGXGXGXGXGXGXGXGXGXGXGXGXGXGXGXGXGXGXGXGXGXGXGXGXGXGXGXGXGXGXGXGXGXGXGXGXGXGXGXGXGXGXGXGXGXGXGXGXGX",
"GXGXGXGXGXGXGXGXGXGXGXGXGXGXGXGXGXGXGXGXGXGXGXGXGXGXGXGXGXGXGXGXGXGXGXGXGXGXGXGXGXGXGXGXGXGXGXGXGXGXGXGXGXGXGXGXGXGXGXGXGXGXGXGXGXGXGX",
"GXGXGXGXGXGXGXGXGXGXGXGXGXGXGXGXGXGXGXGXGXGXGXGXGXGXGXGXGXGXGXGXGXGXGXGXGXGXGXGXGXGXGXGXGXGXGXGXGXGXGXGXGXGXGXGXGXGXGXGXGXGXGXGXGXGXGX",
"GXGXGXGXGXGXGXGXGXGXGXGXGXGXGXGXGXGXGXGXGXGXGXGXGXGXGXGXGXGXGXGXGXGXGXGXGXGXGXGXGXGXGXGXGXGXGXGXGXGXGXGXGXGXGXGXGXGXGXGXGXGXGXGXGXGXGX",
"GXGXGXGXGXGXGXGXGXGXGXGXGXGXGXGXGXGXGXGXGXGXGXGXGXGXGXGXGXGXGXGXGXGXGXGXGXGXGXGXGXGXGXGXGXGXGXGXGXGXGXGXGXGXGXGXGXGXGXGXGXGXGXGXGXGXGX",
"GXGXGXGXGXGXGXGXGXGXGXGXGXGXGXGXGXGXGXGXGXGXGXGXGXGXGXGXGXGXGXGXGXGXGXGXGXGXGXGXGXGXGXGXGXGXGXGXGXGXGXGXGXGXGXGXGXGXGXGXGXGXGXGXGXGXGX"
};
