/* XPM */
static char *nave_small_13[] = {
/* columns rows colors chars-per-pixel */
"67 67 229 2 ",
"   c #000000",
".  c #010100",
"X  c #010101",
"o  c #020202",
"O  c #040400",
"+  c #050500",
"@  c #070600",
"#  c #050505",
"$  c #060505",
"%  c #0B0B00",
"&  c #0F0E01",
"*  c #080808",
"=  c #090808",
"-  c #0A0A0A",
";  c #0C0B0B",
":  c #0F0D0D",
">  c #100F0F",
",  c #141301",
"<  c #181601",
"1  c #191701",
"2  c #191818",
"3  c #191919",
"4  c #1B1919",
"5  c #1C1A1A",
"6  c #1D1A1A",
"7  c #1F1E1E",
"8  c #1F1F1F",
"9  c #232001",
"0  c #353102",
"q  c #393502",
"w  c #3E3A03",
"e  c #3C3709",
"r  c #212121",
"t  c #292626",
"y  c #2D2929",
"u  c #2E2E2E",
"i  c #333030",
"p  c #363131",
"a  c #373331",
"s  c #3A3636",
"d  c #3D3535",
"f  c #3C3737",
"g  c #37393A",
"h  c #363C3F",
"j  c #383838",
"k  c #393838",
"l  c #393939",
"z  c #3A3939",
"x  c #3A3A3A",
"c  c #3B3A3A",
"v  c #3B3B3B",
"b  c #3E3939",
"n  c #3C3B3B",
"m  c #3D3B3B",
"M  c #3C3C3C",
"N  c #3D3D3D",
"B  c #3E3C3C",
"V  c #3E3D3D",
"C  c #3F3D3D",
"Z  c #3E3E3E",
"A  c #3F3E3E",
"S  c #3F3F3F",
"D  c #5F1E1E",
"F  c #601E1E",
"G  c #6B1818",
"H  c #711313",
"J  c #741111",
"K  c #7B1818",
"L  c #472E2E",
"P  c #4A2D2D",
"I  c #592323",
"U  c #5A2222",
"Y  c #4D3030",
"T  c #403D3D",
"R  c #423C3C",
"E  c #423E3E",
"W  c #423F3F",
"Q  c #433F3F",
"!  c #7F3939",
"~  c #575104",
"^  c #5D5604",
"/  c #686104",
"(  c #756D04",
")  c #7D7405",
"_  c #4B492F",
"`  c #353F44",
"'  c #314A58",
"]  c #2A5C78",
"[  c #404040",
"{  c #414040",
"}  c #414141",
"|  c #434040",
" . c #424141",
".. c #434141",
"X. c #424242",
"o. c #434343",
"O. c #444040",
"+. c #454141",
"@. c #464040",
"#. c #444242",
"$. c #454242",
"%. c #474242",
"&. c #444444",
"*. c #454545",
"=. c #464444",
"-. c #474545",
";. c #464646",
":. c #474747",
">. c #484242",
",. c #494242",
"<. c #484343",
"1. c #4A4343",
"2. c #494444",
"3. c #484545",
"4. c #4A4444",
"5. c #4B4545",
"6. c #484646",
"7. c #494747",
"8. c #4C4545",
"9. c #4D4646",
"0. c #484848",
"q. c #494949",
"w. c #4A4A4A",
"e. c #4B4A4A",
"r. c #4B4B4B",
"t. c #4C4949",
"y. c #4E4848",
"u. c #4C4A4A",
"i. c #4E4B4B",
"p. c #4C4C4C",
"a. c #4D4D4D",
"s. c #4F4C4C",
"d. c #4E4E4E",
"f. c #4F4F4F",
"g. c #504C4C",
"h. c #504D4D",
"j. c #524D4D",
"k. c #524F4F",
"l. c #534F4F",
"z. c #544E4E",
"x. c #544F4F",
"c. c #505050",
"v. c #515151",
"b. c #525252",
"n. c #545050",
"m. c #545151",
"M. c #555151",
"N. c #565252",
"B. c #575353",
"V. c #545454",
"C. c #555555",
"Z. c #565656",
"A. c #575757",
"S. c #595555",
"D. c #595656",
"F. c #585858",
"G. c #595958",
"H. c #595959",
"J. c #5B5858",
"K. c #5A5A5A",
"L. c #5B5B5B",
"P. c #5C5959",
"I. c #5C5C5C",
"U. c #5D5D5D",
"Y. c #5E5E5E",
"T. c #5F5F5F",
"R. c #605D5D",
"E. c #605E5E",
"W. c #615E5E",
"Q. c #775C5C",
"!. c #606060",
"~. c #626262",
"^. c #636363",
"/. c #646464",
"(. c #656565",
"). c #666666",
"_. c #676767",
"`. c #686666",
"'. c #686868",
"]. c #696868",
"[. c #696969",
"{. c #6A6A6A",
"}. c #6B6B6B",
"|. c #6C6C6C",
" X c #6D6C6C",
".X c #6D6D6D",
"XX c #6E6C6C",
"oX c #6E6D6D",
"OX c #6E6E6E",
"+X c #6F6E6E",
"@X c #6F6F6F",
"#X c #707070",
"$X c #717171",
"%X c #727272",
"&X c #8B0202",
"*X c #8A0303",
"=X c #880404",
"-X c #890404",
";X c #800C0C",
":X c #817805",
">X c #897F06",
",X c #8D8306",
"<X c #908606",
"1X c #978C06",
"2X c #9B9006",
"3X c #9B9106",
"4X c #AEA206",
"5X c #AFA306",
"6X c #AEA207",
"7X c #B0A407",
"8X c #B4A707",
"9X c #C1B307",
"0X c #C2B408",
"qX c #D6C708",
"wX c #DECF08",
"eX c #E7D709",
"rX c #E9D809",
"tX c #EADA09",
"yX c #F0DF09",
"uX c #26688D",
"iX c #246D95",
"pX c #1E7CAE",
"aX c #1C82B9",
"sX c #1399E2",
"dX c #139AE2",
"fX c #119EEA",
"gX c #119EEB",
"hX c #119FEB",
"jX c None",
/* pixels */
"jXjXjXjXjXjXjXjXjXjXjXjXjXjXjXjXjXjXjXjXjXjXjXjXjXjXjXjXjXjXjXjXjXjXjXjXjXjXjXjXjXjXjXjXjXjXjXjXjXjXjXjXjXjXjXjXjXjXjXjXjXjXjXjXjXjXjX",
"jXjXjXjXjXjXjXjXjXjXjXjXjXjXjXjXjXjXjXjXjXjXjXjXjXjXjXjXjXjXjXjXjXjXjXjXjXjXjXjXjXjXjXjXjXjXjXjXjXjXjXjXjXjXjXjXjXjXjXjXjXjXjXjXjXjXjX",
"jXjXjXjXjXjXjXjXjXjXjXjXjXjXjXjXjXjXjXjXjXjXjXjXjXjXjXjXjXjXjXjXjXjXjXjXjXjXjXjXjXjXjXjXjXjXjXjXjXjXjXjXjXjXjXjXjXjXjXjXjXjXjXjXjXjXjX",
"jXjXjXjXjXjXjXjXjXjXjXjXjXjXjXjXjXjXjXjXjXjXjXjXjXjXjXjXjXjXjXjXjXjXjXjXjXjXjXjXjXjXjXjXjXjXjXjXjXjXjXjXjXjXjXjXjXjXjXjXjXjXjXjXjXjXjX",
"jXjXjXjXjXjXjXjXjXjXjXjXjXjXjXjXjXjXjXjXjXjXjXjXjXjXjXjXjXjXjXjXjXjXjXjXj jXjXjXjXjXjXjXjXjXjXjXjXjXjXjXjXjXjXjXjXjXjXjXjXjXjXjXjXjXjX",
"jXjXjXjXjXjXjXjXjXjXjXjXjXjXjXjXjXjXjXjXjXjXjXjXjXjXjXjXjXjXjXjXjXj jXL j j jXjXjXjXjXjXjXjXjXjXjXjXjXjXjXjXjXjXjXjXjXjXjXjXjXjXjXjXjX",
"jXjXjXjXjXjXjXjXjXjXjXjXjXjXjXjXjXjXjXjXjXjXjXjXjXjXjXjXjXjXjXjXjXjX*X=XI j j jXjXjXjXjXjXjXjXjXjXjXjXjXjXjXjXjXjXjXjXjXjXjXjXjXjXjXjX",
"jXjXjXjXjXjXjXjXjXjXjXjXjXjXjXjXjXjXjXjXjXjXjXjXjXjXjXjXjXjXjXjXjXjXH &X&XG z j jXjXjXjXjXjXjXjXjXjXjXjXjXjXjXjXjXjXjXjXjXjXjXjXjXjXjX",
"jXjXjXjXjXjXjXjXjXjXjXjXjXjXjXjXjXjXjXjXjXjXjXjXjXjXjXjXjXjXjXjXjXj k F *X! ).[ j j jXjXjXjXjXjXjXjXjXjXjXjXjXjXjXjXjXjXjXjXjXjXjXjXjX",
"jXjXjXjXjXjXjXjXjXjXjXjXjXjXjXjXjXjXjXjXjXjXjXjXjXjXjXjXjXjXjXjXjXjXj j Y XX%XOX0.j j jXjXjXjXjXjXjXjXjXjXjXjXjXjXjXjXjXjXjXjXjXjXjXjX",
"jXjXjXjXjXjXjXjXjXjXjXjXjXjXjXjXjXjXjXjXjXjXjXjXjXjXjXjXjXjXjXjXjXjXjXj j S ).%X$XV.j j jXjXjXjXjXjXjXjXjXjXjXjXjXjXjXjXjXjXjXjXjXjXjX",
"jXjXjXjXjXjXjXjXjXjXjXjXjXjXjXjXjXjXjXjXjXjXjXjXjXjXjXjXjXjXjXjXjXjXjXjXj j z L.%X%X!.M j j jXjXjXjXjXjXj jXjXjXjXjXjXjXjXjXjXjXjXjXjX",
"jXjXjXjXjXjXjXjXjXjXjXjXjXjXjXjXjXjXjXjXjXjXjXjXjXjXjXjXjXjXjXjXjXjXjXjXjXjXj j d.#X%X{.o.j j jXj j jXj j jXjXjXjXjXjXjXjXjXjXjXjXjXjX",
"jXjXjXjXjXjXjXjXjXjXjXjXjXjXjXjXjXjXjXjXjXjXjXjXjXjXjXjXjXjXjXjXjXjXjXjXjXjXjXj j &.}.$X:.j } @XT.x j j jXjXjXjXjXjXjXjXjXjXjXjXjXjXjX",
"jXjXjXjXjXjXjXjXjXjXjXjXjXjXjXjXjXjXjXjXjXjXjXjXjXjXjXjXjXjXjXjXjXjXjXjXjXjXjXjXjXj M r.j v [.%X^.l j jXjXjXjXjXjXjXjXjXjXjXjXjXjXjXjX",
"jXjXjXjXjXjXjXjXjXjXjXjXjXjXjXjXjXjXjXj jXjXjXjXjXjXjXjXjXjXjXjXjXjXjXjXjXjXjXjXjXj j j j T.%X|.N j jXjXjXjXjXjXjXjXjXjXjXjXjXjXjXjXjX",
"jXjXjXjXjXjXjXjXjXjXjXjXjXj jXjXj j jXj j jXjXjXj jXjXjXjXjXjXjXjXjXjXjXjXjXjXjXj j j j b.%X$X*.j jXjXjXjXjXjXjXjXjXjXjXjXjXjXjXjXjXjX",
"jXjXjXjXjXjXjXjXjXjXjXjXjXj j j l j j } N j j j j j jXjXjXjXjXjXjXjXjXjXjXjXjXj l j j :.$X%Xv.j j jXjXjXjXjXjXjXjXjXjXjXjXjXjXjXjXjXjX",
"jXjXjXjXjXjXjXjXjXjXjXjXj j j j K.T.S {.|.*.j j w.l j jXjXjXj jXjXj jXj j jXj j Y.Z.S .X%XU.j j jXjXjXjXjXjXjXjXjXjXjXjXjXjXjXjXjXjXjX",
"jXjXjXjXjXjXjXjXjXjXjXjXjXj j a.%X%X#X%X%X#Xc.f.%X~.N j jXjXj j j j j j j j j b.%X%X@X%X_.x j jXjXjXjXjXjXjXjXjXjXjXjXjXjXjXjXjXjXjXjX",
"jXjXjXjXjXjXjXjXjXjXjXjXjXj o.#X%X%X%X%X%X%X%X$X%X%X}.;.'.$XV.j j j j z s. .:.$X%X$X%XOX[ j jXjXjXjXjXjXjXjXjXjXjXjXjXjXjXjXjXjXjXjXjX",
"jXjXjXjXjXjXjXjXjXjXjXjXj j 0.OX%X%X%X%X%X|.#X%XC.^.%Xu :.%X%X!.M j j -.N.N.E.$X`.J.oXw.j jXjXjXjXjXjXjXjXjXjXjXjXjXjXjXjXjXjXjXjXjXjX",
"jXjXjXjXjXjXjXjXjXjXjXjXjXj j 0.%X%X%X%X#Xr 8 G.* * _     u OX%X{.X.j l 7.N.N.P.B.N.6.j j jXjXjXjXjXjXjXjXjXjXjXjXjXjXjXjXjXjXjXjXjXjX",
"jXjXjXjXjXjXjXjXjXjXjXjXjXj x ).%X%X%X%Xj   % 6Xq q rX) O   3 (.%X#Xa.j 7.N.N.N.N.i.j j jXjXjXjXjXjXjXjXjXjXjXjXjXjXjXjXjXjXjXjXjXjXjX",
"jXjXjXjXjXjXjXjXjXjXjXjXjXj M ~.%X%X%Xf.X . 2XyXtXwXyXyX4X,   - C.%X%Xv.M.N.N.N.k.x j jXjXjXjXjXjXjXjXjXjXjXjXjXjXjXjXjXjXjXjXjXjXjXjX",
"jXjXjXjXjXjXjXjXjXjXjXjXjXjXj l Z.$X Xb = / yXyXyXyXyXyXyX(   o f R._.x A l.N.M.V j jXjXjXjXjXjXjXjXjXjXjXjXjXjXjXjXjXjXjXjXjXjXjXjXjX",
"jXjXjXjXjXjXjXjXjXjXjXjXjXjXjXj j e.z.9.a 5XyXyXyXyXyXyX8X+   y 9.9.2.l j c i.#.j j jXjXjXjXjXjXjXjXjXjXjXjXjXjXjXjXjXjXjXjXjXjXjXjXjX",
"jXjXjXjXjXjXjXjXjXjXjXjXjXjXjXj j +.9.@.= + 3XyXyX0XeXqX<   6 9.9.9.9.4.n j j j j j jXjXjXjXjXjXjXjXjXjXjXjXjXjXjXjXjXjXjXjXjXjXjXjXjX",
"jXjXjXjXjXjXjXjXjXjXjXjXjXjXjXj z 4.9.1.5 1 >X7X9X<X1X0   : 1.9.9.9.9.9.8.B j j p.v j jXjXjXjXjXjXjXjXjXjXjXjXjXjXjXjXjXjXjXjXjXjXjXjX",
"jXjXjXjXjXjXjXjXjXjXjXjXjXjXjXj j z %.9.,.e ,X<X<X<Xw   $ R 9.9.9.9.9.9.5.c j q.$X'.jXjXjXjXjXjXjXjXjXjXjXjXjXjXjXjXjXjXjXjXjXjXjXjXjX",
"jXjXjXjXjXjXjXjXjXjXjXjXjXjXjXjXjXj j Q 4   9 :X<X^ . X p 9.9.9.9.9.9.9.B j [ OX%XK.j jXjXjXjXjXjXjXjXjXjXjXjXjXjXjXjXjXjXjXjXjXjXjXjX",
"jXjXjXjXjXjXjXjXjXjXjXjXjXjXjXjXjXjXj E p #   & ~ @   t 9.9.9.9.9.9.9.W j x _.%X$X0.j jXjXjXjXjXjXjXjXjXjXjXjXjXjXjXjXjXjXjXjXjXjXjXjX",
"jXjXjXjXjXjXjXjXjXjXjXjXjXjXjXjXjXjXjX9.9.%.>       2 M.x.9.9.9.9.9.%.j j U.%X%X%X$XjXjXjXjXjXjXjXjXjXjXjXjXjXjXjXjXjXjXjXjXjXjXjXjXjX",
"jXjXjXjXjXjXjXjXjXjXjXjXjXjXjXjXjXjXjXn y.N.k.7   ; g.N.j.9.9.9.9.4.l j c.%X%X%X%X[.v jXjXjXjXjXjXjXjXjXjXjXjXjXjXjXjXjXjXjXjXjXjXjXjX",
"jXjXjXjXjXjXjXjXjXjXjXjXjXjXjXjXjXjXj j x i.N.N.i $.N.n.9.9.9.9.8.n j *.#X%X%X%X@X} j j jXjXjXjXjXjXjXjXjXjXjXjXjXjXjXjXjXjXjXjXjXjXjX",
"jXjXjXjXjXjXjXjXjXjXjXjXjXjXjXjXjXjXjXj j j 3.N.N.N.M.y.9.9.9.9.T j N |.%X%X%X%Xr.j j j j jXjXjXjXjXjXjXjXjXjXjXjXjXjXjXjXjXjXjXjXjXjX",
"jXjXjXjXjXjXjXjXjXjXjXjXjXjXjXjXjXjXjXj j j j { m.N. .>.9.9.9.O.j l ^.%X%X%X%XF.j j j j jXjXjXjXfXgXjXjXjXjXjXjXjXjXjXjXjXjXjXjXjXjXjX",
"jXjXjXjXjXjXjXjXjXjXjXjXjXjXjXjXjXjXjXj j j j j M =.j j | 9.<.k j F.%X%X%X%X/.l j uX' j jXjXjXjXjXjXjXjXjXjXjXjXjXjXjXjXjXjXjXjXjXjXjX",
"jXjXjXjXjXjXjXjXjXjXjXjXjXjXjXjXjXjXjXjXj x u.n { m...j j C z j r.%X%X%X%X|.N j ] fXsXjXjXjXjXjXjXjXjXjXjXjXjXjXjXjXjXjXjXjXjXjXjXjXjX",
"jXjXjXjXjXjXjXjXj j jXjXjXjXjXjXjXjXjXj j t.N.n.n.N.N.7.l j j } @X%X%X%X$X*.j ' dXfXiXj jXjXjXjXfXfXjXjXjXjXjXjXjXjXjXjXjXjXjXjXjXjXjX",
"jXjXjXjXjXjXs J D k j jXjXjXjXjXjXjXjXj j n h.N.N.D.N.N...j v [.%X%X%X%Xc.j j pXfXaXg j jXjXjXfXfXjXjXjXjXjXjXjXjXjXjXjXjXjXjXjXjXjXjX",
"jXjXjXjXjXjXjX&X&XH d j jXjXjXjXjXjXjXjXj j I.W.S.+X].i.j j V.%X|.C.$XU.j j j h jX` j jXjXjXjXfXjXjXjXjXfXjXjXjXjXjXjXjXjXjXjXjXjXjXjX",
"jXjXjXjXjXjXj U -X&XK X.j j jXjXjXjXjXj j c.%X%X@X%X[.v j j l Z.;.j jXM j j j j jXjXjXjXjXjXfXfXjXjXjXjXfXjXjXjXjXjXjXjXjXjXjXjXjXjXjX",
"jXjXjXjXjXjXj j P ;XQ.@Xp.j j jXjXjXjXj *.$X%X%X%X@X} j jXjXj jXjXj jXjXjXj j jXjXjXjXjXjXfXfXjXjXjXjXjXjXjXjXjXjXjXjXjXjXjXjXjXjXjXjX",
"jXjXjXjXjXjXjXjXj m ~.%X%XH.z j jXjXj j Z.%X%X%X%Xr.j jXjXjXjXjXjXjXjXjXjXjXjXjXjXjXjXjXfXfXjXjXjXjXjXjXfXfXjXjXjXjXjXjXjXjXjXjXjXjXjX",
"jXjXjXjXjXjXjXjXjXj l A.%X%X/.Z j j j j j V.%X%XF.j j jXjXjXjXjXjXjXjXjXjXjXjXjXjXjXjXjXfXjXjXjXjXjXjXjXfXjXjXjXjXjXjXjXjXjXjXjXjXjXjX",
"jXjXjXjXjXjXjXjXjXjXj j e.+X%X.X;.j j j v [.%X^.l j jXjXjXjXjXjXjXjXjXjXjXjXjXjXjXjXjXfXgXjXjXjXjXjXjXfXfXjXjXjXjXjXjXjXjXjXjXjXjXjXjX",
"jXjXjXjXjXjXjXjXjXjXjXj j } '.%X$Xq.j j T.%X|.N j jXjXjXjXjXjXjXjXjXjXjXjXjXjXgXhXjXfXfXjXjXjXjXjXjXfXfXjXjXjXjXfXjXjXjXjXjXjXjXjXjXjX",
"jXjXjXjXjXjXjXjXjXjXjXjXjXj v Y.[.v j b.%X$X*.j jXjXjXjXjXjXjXjXjXjXjXjXjXjXjXjXjXjXjXjXjXjXjXjXjXfXfXjXjXjXjXjXjXjXjXjXjXjXjXjXjXjXjX",
"jXjXjXjXjXjXjXjXjXjXjXjXjXjXj j M j :.$X%Xc.j j jXjXjXjXjXjXjXjXjXjXjXjXjXjXjXjXjXjXjXjXjXjXgXjXjXfXjXjXjXjXjXjXjXjXjXjXjXjXjXjXjXjXjX",
"jXjXjXjXjXjXjXjXjXjXjXjXjXjXjXj j Z .X%XU.j j jXjXjXjXjXjXjXjXjXjXjXjXjXjXjXjXjXjXjXjXjXjXjXfXjXjXjXjXjXjXjXjXjXfXjXjXjXjXjXjXjXjXjXjX",
"jXjXjXjXjXjXjXjXjXjXjXjXjXjXjXjXx (.%X_.x j jXjXjXjXjXjXjXjXjXjXjXjXjXjXjXjXjXjXjXjXjXjXjXjXjXjXjXjXjXjXgXjXjXfXfXjXjXjXjXjXjXjXjXjXjX",
"jXjXjXjXjXjXjXjXjXjXjXjXjXjXjXjXjX'.OX[ j jXjXjXjXjXjXjXjXjXjXjXjXjXjXjXjXjXjXjXjXjXjXjXjXjXjXjXjXjXjXjXfXjXjXjXjXjXjXjXjXjXjXjXjXjXjX",
"jXjXjXjXjXjXjXjXjXjXjXjXjXjXjXjXj v &.j j jXjXjXjXjXjXjXjXjXjXjXjXjXjXjXjXjXjXjXjXjXjXjXjXjXjXjXjXjXjXjXjXjXjXjXjXjXjXjXjXjXjXjXjXjXjX",
"jXjXjXjXjXjXjXjXjXjXjXjXjXjXjXjXjXj j j jXjXjXjXjXjXjXjXjXjXjXjXjXjXjXjXjXjXjXjXjXjXjXjXjXjXjXjXjXjXjXjXjXjXjXjXjXjXjXjXjXjXjXjXjXjXjX",
"jXjXjXjXjXjXjXjXjXjXjXjXjXjXjXjXjXj j jXjXjXjXjXjXjXjXjXjXjXjXjXjXjXjXjXjXjXjXjXjXjXjXjXjXjXjXjXjXjXjXjXjXjXjXjXjXjXjXjXjXjXjXjXjXjXjX",
"jXjXjXjXjXjXjXjXjXjXjXjXjXjXjXjXjXj jXjXjXjXjXjXjXjXjXjXjXjXjXjXjXjXjXjXjXjXjXjXjXjXjXjXjXjXjXjXjXjXjXjXjXjXjXjXjXjXjXjXjXjXjXjXjXjXjX",
"jXjXjXjXjXjXjXjXjXjXjXjXjXjXjXjXjXjXjXjXjXjXjXjXjXjXjXjXjXjXjXjXjXjXjXjXjXjXjXjXjXjXjXjXjXjXjXjXjXjXjXjXjXjXjXjXjXjXjXjXjXjXjXjXjXjXjX",
"jXjXjXjXjXjXjXjXjXjXjXjXjXjXjXjXjXjXjXjXjXjXjXjXjXjXjXjXjXjXjXjXjXjXjXjXjXjXjXjXjXjXjXjXjXjXjXjXjXjXjXjXjXjXjXjXjXjXjXjXjXjXjXjXjXjXjX",
"jXjXjXjXjXjXjXjXjXjXjXjXjXjXjXjXjXjXjXjXjXjXjXjXjXjXjXjXjXjXjXjXjXjXjXjXjXjXjXjXjXjXjXjXjXjXjXjXjXjXjXjXjXjXjXjXjXjXjXjXjXjXjXjXjXjXjX",
"jXjXjXjXjXjXjXjXjXjXjXjXjXjXjXjXjXjXjXjXjXjXjXjXjXjXjXjXjXjXjXjXjXjXjXjXjXjXjXjXjXjXjXjXjXjXjXjXjXjXjXjXjXjXjXjXjXjXjXjXjXjXjXjXjXjXjX",
"jXjXjXjXjXjXjXjXjXjXjXjXjXjXjXjXjXjXjXjXjXjXjXjXjXjXjXjXjXjXjXjXjXjXjXjXjXjXjXjXjXjXjXjXjXjXjXjXjXjXjXjXjXjXjXjXjXjXjXjXjXjXjXjXjXjXjX",
"jXjXjXjXjXjXjXjXjXjXjXjXjXjXjXjXjXjXjXjXjXjXjXjXjXjXjXjXjXjXjXjXjXjXjXjXjXjXjXjXjXjXjXjXjXjXjXjXjXjXjXjXjXjXjXjXjXjXjXjXjXjXjXjXjXjXjX",
"jXjXjXjXjXjXjXjXjXjXjXjXjXjXjXjXjXjXjXjXjXjXjXjXjXjXjXjXjXjXjXjXjXjXjXjXjXjXjXjXjXjXjXjXjXjXjXjXjXjXjXjXjXjXjXjXjXjXjXjXjXjXjXjXjXjXjX",
"jXjXjXjXjXjXjXjXjXjXjXjXjXjXjXjXjXjXjXjXjXjXjXjXjXjXjXjXjXjXjXjXjXjXjXjXjXjXjXjXjXjXjXjXjXjXjXjXjXjXjXjXjXjXjXjXjXjXjXjXjXjXjXjXjXjXjX",
"jXjXjXjXjXjXjXjXjXjXjXjXjXjXjXjXjXjXjXjXjXjXjXjXjXjXjXjXjXjXjXjXjXjXjXjXjXjXjXjXjXjXjXjXjXjXjXjXjXjXjXjXjXjXjXjXjXjXjXjXjXjXjXjXjXjXjX",
"jXjXjXjXjXjXjXjXjXjXjXjXjXjXjXjXjXjXjXjXjXjXjXjXjXjXjXjXjXjXjXjXjXjXjXjXjXjXjXjXjXjXjXjXjXjXjXjXjXjXjXjXjXjXjXjXjXjXjXjXjXjXjXjXjXjXjX"
};
