/* XPM */
static char *nave_small_0[] = {
/* columns rows colors chars-per-pixel */
"67 65 100 2 ",
"   c #070706",
".  c #0A0A07",
"X  c #0B0A09",
"o  c #131201",
"O  c #12110F",
"+  c #121111",
"@  c #1F1F1E",
"#  c #252301",
"$  c #2D2A04",
"%  c #353102",
"&  c #3B3702",
"*  c #3F3A02",
"=  c #3D3808",
"-  c #302C1D",
";  c #3F3A1C",
":  c #242323",
">  c #282626",
",  c #2D2A2A",
"<  c #322D2D",
"1  c #353131",
"2  c #3A3636",
"3  c #37393A",
"4  c #3A3A3A",
"5  c #5C1F1F",
"6  c #7D0A0A",
"7  c #651A1A",
"8  c #731111",
"9  c #413C02",
"0  c #403C0B",
"q  c #572323",
"w  c #542E2E",
"e  c #443131",
"r  c #423E3E",
"t  c #6F2727",
"y  c #612B2B",
"u  c #7C2222",
"i  c #4C4603",
"p  c #4C470F",
"a  c #524B09",
"s  c #575002",
"d  c #575108",
"f  c #454112",
"g  c #534E14",
"h  c #6C6504",
"j  c #746C04",
"k  c #7A7105",
"l  c #4C4A36",
"z  c #4E4C39",
"x  c #353E43",
"c  c #324651",
"v  c #314956",
"b  c #304B5A",
"n  c #2D5266",
"m  c #285F7C",
"M  c #454444",
"N  c #4B4646",
"B  c #4D4C4C",
"V  c #514D4D",
"C  c #5A4D4D",
"Z  c #555454",
"A  c #585656",
"S  c #595959",
"D  c #655454",
"F  c #6F5B5B",
"G  c #735D5D",
"H  c #646363",
"J  c #686666",
"K  c #6B6B6B",
"L  c #706F6F",
"P  c #727272",
"I  c #840606",
"U  c #800808",
"Y  c #802121",
"T  c #807705",
"R  c #928705",
"E  c #988D06",
"W  c #A19606",
"Q  c #A69B06",
"!  c #A29708",
"~  c #A49909",
"^  c #ACA006",
"/  c #B6A907",
"(  c #BAAD07",
")  c #C1B407",
"_  c #CABB07",
"`  c #D4C507",
"'  c #D1C208",
"]  c #DECF08",
"[  c #E3D308",
"{  c #EEDD09",
"}  c #F0DF09",
"|  c #286180",
" . c #246B91",
".. c #21729E",
"X. c #1D7CAF",
"o. c #1B82B9",
"O. c #1889C6",
"+. c #1690D1",
"@. c #119EEA",
"#. c None",
/* pixels */
"#.#.#.#.#.#.#.#.#.#.#.#.#.#.#.#.#.#.#.#.#.#.#.#.#.#.#.#.#.#.#.#.#.#.#.#.#.#.#.#.#.#.#.#.#.#.#.#.#.#.#.#.#.#.#.#.#.#.#.#.#.#.#.#.#.#.#.",
"#.#.#.#.#.#.#.#.#.#.#.#.#.#.#.#.#.#.#.#.#.#.#.#.#.#.#.#.#.#.2 3 4 #.#.#.#.#.#.#.#.#.#.#.#.#.#.#.#.#.#.#.#.#.#.#.#.#.#.#.#.#.#.#.#.#.#.",
"#.#.#.#.#.#.#.#.#.#.#.#.#.#.#.#.#.#.#.#.#.#.#.#.#.#.#.#.#.#.3 3 3 #.#.#.#.#.#.#.#.#.#.#.#.#.#.#.#.#.#.#.#.#.#.#.#.#.#.#.#.#.#.#.#.#.#.",
"#.#.#.#.#.#.#.#.#.#.#.#.#.#.#.#.#.#.#.#.#.#.#.#.#.#.#.#.3 3 3 3 4 4 2 3 #.#.#.#.#.#.#.#.#.#.#.#.#.#.#.#.#.#.#.#.#.#.#.#.#.#.#.#.#.#.#.",
"#.#.#.#.#.#.#.#.#.#.#.#.#.#.#.#.#.#.#.#.#.#.#.#.#.#.#.#.2 N S H H Z l 3 #.#.#.#.#.#.#.#.#.#.#.#.#.#.#.#.#.#.#.#.#.#.#.#.#.#.#.#.#.#.#.",
"#.#.#.#.#.#.#.#.#.#.#.#.#.#.#.#.#.#.#.#.#.#.#.#.#.#.3 3 4 B J P L H M 3 4 3 #.#.#.#.#.#.#.#.#.#.#.#.#.#.#.#.#.#.#.#.#.#.#.#.#.#.#.#.#.",
"#.#.#.#.#.#.#.#.#.#.#.#.#.#.#.#.#.#.#.#.#.#.#.#.#.#.2 N S J L P P K H Z M 3 #.#.#.#.#.#.#.#.#.#.#.#.#.#.#.#.#.#.#.#.#.#.#.#.#.#.#.#.#.",
"#.#.#.#.#.#.#.#.#.#.#.#.#.#.#.#.#.#.#.#.#.#.#.#.#.#.4 Z K P P P P P P H B 2 #.#.#.#.#.#.#.#.#.#.#.#.#.#.#.#.#.#.#.#.#.#.#.#.#.#.#.#.#.",
"#.#.#.#.#.#.#.#.#.#.#.#.#.#.#.#.#.#.#.#.#.#.#.#.#.#.4 V K P P P P P P J B 3 #.#.#.#.#.#.#.#.#.#.#.#.#.#.#.#.#.#.#.#.#.#.#.#.#.#.#.#.#.",
"#.#.#.#.#.#.#.#.#.2 #.#.#.#.#.#.#.#.#.#.#.#.#.#.2 3 4 Z K P P P P P P H B 4 3 3 #.#.#.#.#.#.#.#.#.#.#.#.#.#.#.#.#.#.#.#.#.#.#.#.#.#.#.",
"#.#.#.#.#.#.#.#.#.q #.#.#.#.#.#.#.#.#.#.#.#.#.#.3 4 r V D Z M x x B H K S B l 4 #.#.#.#.#.#.#.#.#.#.#.#.#.#.7 #.#.#.#.#.#.#.#.#.#.#.#.",
"#.#.#.#.#.#.#.2 7 U 7 e #.#.#.#.#.#.#.#.#.#.#.#.4 r N N N < + X X : S P L H B 4 #.#.#.#.#.#.#.#.#.#.#.#.e 8 6 q 2 #.#.#.#.#.#.#.#.#.#.",
"#.#.#.#.#.#.#.2 7 I 7 e #.#.#.#.#.#.#.#.#.#.#.#.2 r N 4 1 0 g s d g z V H K B 4 #.#.#.#.#.#.#.#.#.#.#.#.e 8 U q 2 #.#.#.#.#.#.#.#.#.#.",
"#.#.#.#.#.#.#.2 7 I 7 2 #.#.#.#.#.#.#.#.#.#.#.#.4 r N < + d / ` ' ! 0 @ V K V 4 #.#.#.#.#.#.#.#.#.#.#.#.e 8 I q 3 #.#.#.#.#.#.#.#.#.#.",
"#.#.#.#.#.#.#.2 y Y y e #.#.#.#.#.#.#.#.#.#.#.#.2 2 1 - $ j ` } } ) j f z Z B N #.#.#.#.#.#.#.#.#.#.#.#.e t u w 3 #.#.#.#.#.#.#.#.#.#.",
"#.#.#.#.#.#.#.2 C J C 4 #.#.#.#.#.#.#.#.#.#.#.#.M > O = h Q ] } } [ ' ~ p @ c H #.#.#.#.#.#.#.#.#.#.#.#.4 D G N 2 #.#.#.#.#.#.#.#.#.#.",
"#.#.#.#.#.#.#.2 Z L S 4 #.#.#.#.#.#.#.#.#.#.#.M N :   9 T Q _ [ { } } ) i + M J A #.#.#.#.#.#.#.#.#.#.#.x H K B 3 #.#.#.#.#.#.#.#.#.#.",
"#.#.#.#.#.#.#.3 S K Z c #.#.#.#.#.#.#.#.#.2 4 N B >   9 T E W ( [ } } ( i + M K Z 4 #.#.#.#.#.#.#.#.#.#.l H K N 2 #.#.#.#.#.#.#.#.#.#.",
"#.#.#.#.#.#.#.2 Z L S 4 #.#.#.#.#.#.#.#.3 3 4 N V >   % h k k R / _ _ W & + M J Z 3 2 #.#.#.#.#.#.#.#.#.r S K B 3 #.#.#.#.#.#.#.#.#.#.",
"#.#.#.#.#.#.#.3 S K S r #.#.#.#.#.#.#.2 3 3 4 N B >   o # # # % & * * % o + M K Z 3 3 4 #.#.#.#.#.#.#.#.c H K B 3 #.#.#.#.#.#.#.#.#.#.",
"#.#.#.#.#.#.#.2 Z L S r #.#.#.#.#.#.#.2 4 3 3 N V , O   X X . . . . . . . + N K V 3 3 2 2 #.#.#.#.#.#.#.M H K B 2 #.#.#.#.#.#.#.#.#.#.",
"#.#.#.#.#.#.#.3 S L Z 4 #.#.#.#.#.#.2 M N r 3 N C M 2 2 e 1 < < < < < < < 2 S K Z 3 c N M 4 #.#.#.#.#.#.4 H K B 3 #.#.#.#.#.#.#.#.#.#.",
"#.#.#.#.#.#.#.4 Z K S 4 2 3 2 l M 4 x V B l 4 B V V V V V V N N N N N M N V S J C x z V N r 4 x c 2 2 3 r S K B 3 #.#.#.#.#.#.#.#.#.#.",
"#.#.#.#.#.#.#.3 M B M 2 3 3 c Z S S S Z Z B M M M N V N V N N N N N N N N N V B B N B C A S S S C r 3 2 4 B B r 2 #.#.#.#.#.#.#.#.#.#.",
"#.#.#.#.#.#.#.4 4 r 4 4 4 4 B J P K K S Z Z V M 2 r N N N N N N N N C N N N r r N Z Z Z D K K L H c 4 3 4 r r 2 4 #.#.#.#.#.#.#.#.#.#.",
"#.#.#.#.#.#.#.S S Z S Z Z Z S L P P P J H A V M 2 M N N N N C N N N N N N N r 2 M V V Z S H J L K S Z Z Z Z Z A S #.#.#.#.#.#.#.#.#.#.",
"#.#.#.#.#.2 S K K K K K K K K P P L P L K S V M 2 r N N N N z N N N N N N N r 2 M Z Z Z Z A S L L K K K K K K K K Z 3 #.#.#.#.#.#.#.#.",
"#.#.#.#.#.3 B S Z S S S S S S S A S A A A B N M 2 r r r r r r c z r r r r r 4 2 l M M N M N V A S A S S S S S S Z N 3 #.#.#.#.#.#.#.#.",
"#.#.#.#.#.#.#.#.#.#.#.#.#.#.#.#.#.#.#.#.#.4 4 4 2 4 4 4 4 4 3 4 2 x 4 3 2 4 4 4 4 4 4 #.#.#.#.#.#.#.#.#.#.#.#.#.#.#.#.#.#.#.#.#.#.#.#.",
"#.#.#.#.#.#.#.#.#.#.#.#.#.#.#.#.#.#.#.#.#.#.4 M B V B B Z V B B V B B B V B B B M 4 #.#.#.#.#.#.#.#.#.#.#.#.#.#.#.#.#.#.#.#.#.#.#.#.#.",
"#.#.#.#.#.#.#.#.#.#.#.#.#.#.#.#.#.#.#.#.#.#.#.S J J K J K J K K K K K K J J K H Z #.#.#.#.#.#.#.#.#.#.#.#.#.#.#.#.#.#.#.#.#.#.#.#.#.#.",
"#.#.#.#.#.#.#.#.#.#.#.#.#.#.#.#.#.#.#.#.#.#.#.#.H K P P P P P P P P P P P L J H #.#.#.#.#.#.#.#.#.#.#.#.#.#.#.#.#.#.#.#.#.#.#.#.#.#.#.",
"#.#.#.#.#.#.#.#.#.#.#.#.#.#.#.#.#.#.#.#.#.#.#.#.B S L P P P P P P P P P P K S c #.#.#.#.#.#.#.#.#.#.#.#.#.#.#.#.#.#.#.#.#.#.#.#.#.#.#.",
"#.#.#.#.#.#.#.#.#.#.#.#.#.#.#.#.#.#.#.#.#.#.#.#.#.A H H H J H H H H H H J H V #.#.#.#.#.#.#.#.#.#.#.#.#.#.#.#.#.#.#.#.#.#.#.#.#.#.#.#.",
"#.#.#.#.#.#.#.#.#.#.#.#.#.#.#.#.#.#.#.#.#.#.#.#.#.#.M N B c N N N N N M N N #.#.#.#.#.#.#.#.#.#.#.#.#.#.#.#.#.#.#.#.#.#.#.#.#.#.#.#.#.",
"#.#.#.#.#.#.#.#.#.#.#.#.#.#.#.#.#.#.#.#.#.#.#.#.#.#.2 2 2 c v b b v x 3 3 2 #.#.#.#.#.#.#.#.#.#.#.#.#.#.#.#.#.#.#.#.#.#.#.#.#.#.#.#.#.",
"#.#.#.#.#.#.#.#.#.#.#.#.#.#.#.#.#.#.#.#.#.#.#.#.#.#.4 3 3 n ..X.X. .b 3 3 3 #.#.#.#.#.#.#.#.#.#.#.#.#.#.#.#.#.#.#.#.#.#.#.#.#.#.#.#.#.",
"#.#.#.#.#.#.#.#.#.#.#.#.#.#.#.#.#.#.#.#.#.#.#.#.#.#.#.4 4 m O.+.+.o.n 2 3 #.#.#.#.#.#.#.#.#.#.#.#.#.#.#.#.#.#.#.#.#.#.#.#.#.#.#.#.#.#.",
"#.#.#.#.#.#.#.#.#.#.#.#.#.#.#.#.#.#.#.#.#.#.#.#.#.#.#.#.#.#.| | m #.#.#.#.#.#.#.#.#.#.#.#.#.#.#.#.#.#.#.#.#.#.#.#.#.#.#.#.#.#.#.#.#.#.",
"#.#.#.#.#.#.#.#.#.#.#.#.#.#.#.#.#.#.#.#.#.#.#.#.#.#.#.#.#.#.#.4 4 #.#.#.#.#.#.#.#.#.#.#.#.#.#.#.#.#.#.#.#.#.#.#.#.#.#.#.#.#.#.#.#.#.#.",
"#.#.#.#.#.#.#.#.#.#.#.#.#.#.#.#.#.#.#.#.#.#.#.#.#.#.#.#.#.#.#.#.#.#.#.#.#.#.#.#.#.#.#.#.#.#.#.#.#.#.#.#.#.#.#.#.#.#.#.#.#.#.#.#.#.#.#.",
"#.#.#.#.#.#.#.#.#.#.#.#.#.#.#.#.#.#.#.#.#.#.#.#.#.#.#.#.#.#.#.#.#.#.#.#.#.#.#.#.#.#.#.#.#.#.#.#.#.#.#.#.#.#.#.#.#.#.#.#.#.#.#.#.#.#.#.",
"#.#.#.#.#.#.#.#.#.#.#.#.#.#.#.#.#.#.#.#.#.#.#.#.#.#.#.#.#.#.#.#.#.#.#.#.#.#.#.#.#.#.#.#.#.#.#.#.#.#.#.#.#.#.#.#.#.#.#.#.#.#.#.#.#.#.#.",
"#.#.#.#.#.#.#.#.#.#.#.#.#.#.#.#.#.#.#.#.#.#.#.#.#.#.#.#.#.#.#.#.#.#.#.#.#.#.#.#.#.#.#.#.#.#.#.#.#.#.#.#.#.#.#.#.#.#.#.#.#.#.#.#.#.#.#.",
"#.#.#.#.#.#.#.#.#.#.#.#.#.#.#.#.#.#.#.#.#.#.#.#.#.#.#.#.#.#.#.#.#.#.#.#.#.#.#.#.#.#.#.#.#.#.#.#.#.#.#.#.#.#.#.#.#.#.#.#.#.#.#.#.#.#.#.",
"#.#.#.#.#.#.#.#.#.#.#.#.#.#.#.#.#.#.#.#.#.#.#.#.#.#.#.#.#.#.#.#.#.#.#.#.#.#.#.#.#.#.#.#.#.#.#.#.#.#.#.#.#.#.#.#.#.#.#.#.#.#.#.#.#.#.#.",
"#.#.#.#.#.#.#.#.#.#.#.#.#.#.#.#.#.#.#.#.#.#.#.#.#.#.#.#.#.#.#.#.#.#.#.#.#.#.#.#.#.#.#.#.#.#.#.#.#.#.#.#.#.#.#.#.#.#.#.#.#.#.#.#.#.#.#.",
"#.#.#.#.#.#.#.#.#.#.#.#.#.#.#.#.#.#.#.#.#.#.#.#.#.#.#.#.#.#.#.#.#.#.#.#.#.#.#.#.#.#.#.#.#.#.#.#.#.#.#.#.#.#.#.#.#.#.#.#.#.#.#.#.#.#.#.",
"#.#.#.#.#.#.#.#.#.#.#.#.#.#.#.#.#.#.#.#.#.#.#.#.#.#.#.#.#.#.#.#.#.#.#.#.#.#.#.#.#.#.#.#.#.#.#.#.#.#.#.#.#.#.#.#.#.#.#.#.#.#.#.#.#.#.#.",
"#.#.#.#.#.#.#.#.#.#.#.#.#.#.#.#.#.#.#.#.#.#.#.#.#.#.#.#.#.#.#.#.#.#.#.#.#.#.#.#.#.#.#.#.#.#.#.#.#.#.#.#.#.#.#.#.#.#.#.#.#.#.#.#.#.#.#.",
"#.#.#.#.#.#.#.#.#.#.#.#.#.#.#.#.#.#.#.#.#.#.#.#.#.#.#.#.#.#.#.#.#.#.#.#.#.#.#.#.#.#.#.#.#.#.#.#.#.#.#.#.#.#.#.#.#.#.#.#.#.#.#.#.#.#.#.",
"#.#.#.#.#.#.#.#.#.#.#.#.#.#.#.#.#.#.#.#.#.#.#.#.#.#.#.#.#.#.#.#.#.#.#.#.#.#.#.#.#.#.#.#.#.#.#.#.#.#.#.#.#.#.#.#.#.#.#.#.#.#.#.#.#.#.#.",
"#.#.#.#.#.#.#.#.#.#.#.#.#.#.#.#.#.#.#.#.#.#.#.#.#.#.#.#.#.#.#.#.#.#.#.#.#.#.#.#.#.#.#.#.#.#.#.#.#.#.#.#.#.#.#.#.#.#.#.#.#.#.#.#.#.#.#.",
"#.#.#.#.#.#.#.#.#.#.#.#.#.#.#.#.#.#.#.#.#.#.#.#.#.#.#.#.#.#.#.#.#.#.#.#.#.#.#.#.#.#.#.#.#.#.#.#.#.#.#.#.#.#.#.#.#.#.#.#.#.#.#.#.#.#.#.",
"#.#.#.#.#.#.#.#.#.#.#.#.#.#.#.#.#.#.#.#.#.#.#.#.#.#.#.#.#.#.#.#.#.#.#.#.#.#.#.#.#.#.#.#.#.#.#.#.#.#.#.#.#.#.#.#.#.#.#.#.#.#.#.#.#.#.#.",
"#.#.#.#.#.#.#.#.#.#.#.#.#.#.#.#.#.#.#.#.#.#.#.#.#.#.#.#.#.#.#.#.#.#.#.#.#.#.#.#.#.#.#.#.#.#.#.#.#.#.#.#.#.#.#.#.#.#.#.#.#.#.#.#.#.#.#.",
"#.#.#.#.#.#.#.#.#.#.#.#.#.#.#.#.#.#.#.#.#.#.#.#.#.#.#.#.#.#.#.@.@.#.#.#.#.#.#.#.#.#.#.#.#.#.#.#.#.#.#.#.#.#.#.#.#.#.#.#.#.#.#.#.#.#.#.",
"#.#.#.#.#.#.#.#.#.#.#.#.#.#.#.#.#.#.#.#.#.#.#.#.#.#.#.#.#.#.#.#.#.#.#.#.#.#.#.#.#.#.#.#.#.#.#.#.#.#.#.#.#.#.#.#.#.#.#.#.#.#.#.#.#.#.#.",
"#.#.#.#.#.#.#.#.#.#.#.#.#.#.#.#.#.#.#.#.#.#.#.#.#.#.#.#.#.#.#.#.#.#.#.#.#.#.#.#.#.#.#.#.#.#.#.#.#.#.#.#.#.#.#.#.#.#.#.#.#.#.#.#.#.#.#.",
"#.#.#.#.#.#.#.#.#.#.#.#.#.#.#.#.#.#.#.#.#.#.#.#.#.#.#.#.#.#.#.#.#.#.#.#.#.#.#.#.#.#.#.#.#.#.#.#.#.#.#.#.#.#.#.#.#.#.#.#.#.#.#.#.#.#.#.",
"#.#.#.#.#.#.#.#.#.#.#.#.#.#.#.#.#.#.#.#.#.#.#.#.#.#.#.#.#.#.#.#.#.#.#.#.#.#.#.#.#.#.#.#.#.#.#.#.#.#.#.#.#.#.#.#.#.#.#.#.#.#.#.#.#.#.#.",
"#.#.#.#.#.#.#.#.#.#.#.#.#.#.#.#.#.#.#.#.#.#.#.#.#.#.#.#.#.#.#.#.#.#.#.#.#.#.#.#.#.#.#.#.#.#.#.#.#.#.#.#.#.#.#.#.#.#.#.#.#.#.#.#.#.#.#.",
"#.#.#.#.#.#.#.#.#.#.#.#.#.#.#.#.#.#.#.#.#.#.#.#.#.#.#.#.#.#.#.#.#.#.#.#.#.#.#.#.#.#.#.#.#.#.#.#.#.#.#.#.#.#.#.#.#.#.#.#.#.#.#.#.#.#.#.",
"#.#.#.#.#.#.#.#.#.#.#.#.#.#.#.#.#.#.#.#.#.#.#.#.#.#.#.#.#.#.#.#.#.#.#.#.#.#.#.#.#.#.#.#.#.#.#.#.#.#.#.#.#.#.#.#.#.#.#.#.#.#.#.#.#.#.#.",
"#.#.#.#.#.#.#.#.#.#.#.#.#.#.#.#.#.#.#.#.#.#.#.#.#.#.#.#.#.#.#.#.#.#.#.#.#.#.#.#.#.#.#.#.#.#.#.#.#.#.#.#.#.#.#.#.#.#.#.#.#.#.#.#.#.#.#."
};
