/* XPM */
static char *nave_small_18[] = {
/* columns rows colors chars-per-pixel */
"67 62 99 2 ",
"   c #070705",
".  c #0B0A04",
"X  c #110F0F",
"o  c #151300",
"O  c #131212",
"+  c #1B1B1B",
"@  c #242100",
"#  c #322E01",
"$  c #373302",
"%  c #3A3502",
"&  c #27231C",
"*  c #232222",
"=  c #292626",
"-  c #363636",
";  c #393636",
":  c #3E3835",
">  c #393939",
",  c #7E0C0C",
"<  c #7B1313",
"1  c #761A1A",
"2  c #7F1B1B",
"3  c #532727",
"4  c #512B2B",
"5  c #443232",
"6  c #413D3D",
"7  c #4D3E3E",
"8  c #503F3F",
"9  c #4F4902",
"0  c #514B03",
"q  c #544E0E",
"w  c #565002",
"e  c #59530A",
"r  c #534D13",
"t  c #5B5415",
"y  c #665F02",
"u  c #716804",
"i  c #7B7205",
"p  c #474027",
"a  c #454438",
"s  c #625D34",
"d  c #335672",
"f  c #325877",
"g  c #315C7E",
"h  c #434242",
"j  c #4C4545",
"k  c #4D4C4C",
"l  c #524D4D",
"z  c #545252",
"x  c #595656",
"c  c #5B5B5B",
"v  c #764B4B",
"b  c #7C4D4D",
"n  c #615E5E",
"m  c #6D6A46",
"M  c #62615D",
"N  c #656565",
"B  c #6B6565",
"V  c #6C6C6C",
"C  c #706C6C",
"Z  c #717171",
"A  c #890404",
"S  c #860C0C",
"D  c #880D0D",
"F  c #821515",
"G  c #847A05",
"H  c #8B8106",
"J  c #908606",
"K  c #9D920E",
"L  c #A59907",
"P  c #AA9E06",
"I  c #A79B0C",
"U  c #B2A606",
"Y  c #938A2B",
"T  c #9B9121",
"R  c #C6B806",
"E  c #C2B509",
"W  c #CCBE08",
"Q  c #CFC008",
"!  c #D3C407",
"~  c #DBCC08",
"^  c #E1D108",
"/  c #E8D708",
"(  c #ECDB09",
")  c #F0DF09",
"_  c #2C6D9B",
"`  c #2B709F",
"'  c #2A72A3",
"]  c #2778AC",
"[  c #247CB4",
"{  c #2082BD",
"}  c #1F84C1",
"|  c #1F89C9",
" . c #1B8FD1",
".. c #1991D5",
"X. c #1096DD",
"o. c #2384C0",
"O. c #119BE5",
"+. c #119EE9",
"@. c None",
/* pixels */
"@.@.@.@.@.@.@.@.@.@.@.@.@.@.@.@.@.@.@.@.@.@.@.@.@.@.@.@.@.@.@.> > - > > @.@.@.@.@.@.@.@.@.@.@.@.@.@.@.@.@.@.@.@.@.@.@.@.@.@.@.@.@.@.@.",
"@.@.@.@.@.@.@.@.@.@.@.@.@.@.@.@.@.@.@.@.@.@.@.@.@.@.@.@.@.@.@.> > > > > @.@.@.@.@.@.@.@.@.@.@.@.@.@.@.@.@.@.@.@.@.@.@.@.@.@.@.@.@.@.@.",
"@.@.@.@.@.@.@.@.@.@.@.@.@.@.@.@.@.@.@.@.@.@.@.@.@.@.@.@.@.> - - > > - - > > @.@.@.@.@.@.@.@.@.@.@.@.@.@.@.@.@.@.@.@.@.@.@.@.@.@.@.@.@.",
"@.@.@.@.@.@.@.@.@.@.@.@.@.@.@.@.@.@.@.@.@.@.@.@.@.@.@.@.- > > h h h h h - - > @.@.@.@.@.@.@.@.@.@.@.@.@.@.@.@.@.@.@.@.@.@.@.@.@.@.@.@.",
"@.@.@.@.@.@.@.@.@.@.@.@.@.@.@.@.@.@.@.@.@.@.@.@.@.@.@.- - > > c c c c x > - - - @.@.@.@.@.@.@.@.@.@.@.@.@.@.@.@.@.@.@.@.@.@.@.@.@.@.@.",
"@.@.@.@.@.@.@.@.@.@.@.@.@.@.@.@.@.@.@.@.@.@.@.@.@.@.@.> > > > V Z Z V V > > > > @.@.@.@.@.@.@.@.@.@.@.@.@.@.@.@.@.@.@.@.@.@.@.@.@.@.@.",
"@.@.@.@.@.@.@.@.@.@.@.@.@.@.@.@.@.@.@.@.@.@.@.@.@.@.@.> j x c V Z Z Z V c z h > @.@.@.@.@.@.@.@.@.@.@.@.@.@.@.@.@.@.@.@.@.@.@.@.@.@.@.",
"@.@.@.@.@.@.@.@.@.@.@.@.@.@.@.@.@.@.@.@.@.@.@.@.@.@.@.> k n V Z Z Z Z Z V c k > @.@.@.@.@.@.@.@.@.@.@.@.@.@.@.@.@.@.@.@.@.@.@.@.@.@.@.",
"@.@.@.@.@.@.@.@.@.@.@.@.@.@.@.@.@.@.@.@.@.@.@.@.@.@.@.> k B Z Z Z Z Z Z Z N k - @.@.@.@.@.@.@.@.@.@.@.@.@.@.@.@.@.@.@.@.@.@.@.@.@.@.@.",
"@.@.@.@.@.@.@.@.@.> - @.@.@.@.@.@.@.@.@.@.@.@.@.@.- > > k B Z Z Z Z Z Z Z M k - > > @.@.@.@.@.@.@.@.@.@.@.@.@.@.> > @.@.@.@.@.@.@.@.@.",
"@.@.@.@.@.@.@.@.@.5 5 @.@.@.@.@.@.@.@.@.@.@.@.@.@.> > > k N C V V V Z V Z N k h 6 > @.@.@.@.@.@.@.@.@.@.@.@.@.@.5 5 @.@.@.@.@.@.@.@.@.",
"@.@.@.@.@.@.- ; 3 , 1 5 - - @.@.@.@.@.@.@.@.@.@.@.> 6 j j k l = O O + h Z Z V N k > @.@.@.@.@.@.@.@.@.@.@.> ; 5 < < 4 > > @.@.@.@.@.@.",
"@.@.@.@.@.@.- ; 3 A < 5 - - @.@.@.@.@.@.@.@.@.@.@.- h j j a 6 r q 9 q s N V Z N z > @.@.@.@.@.@.@.@.@.@.@.> - 5 S S 4 > > @.@.@.@.@.@.",
"@.@.@.@.@.@.- ; 3 A F 5 - - @.@.@.@.@.@.@.@.@.@.@.> 6 j a - = K I P I T 6 x N V z > @.@.@.@.@.@.@.@.@.@.@.; > 5 S S 4 > > @.@.@.@.@.@.",
"@.@.@.@.@.@.; ; 4 D 2 5 - - @.@.@.@.@.@.@.@.@.@.@.> 6 h 5 & . ~ ( ) ( ! o a M N z > @.@.@.@.@.@.@.@.@.@.@.> : 5 F F 4 > > @.@.@.@.@.@.",
"@.@.@.@.@.@.- : j b v h - - @.@.@.@.@.@.@.@.@.@.> h 5 ; 5 t y ^ ( ) ( ~ P Y m z x c k @.@.@.@.@.@.@.@.@.@.; ; 6 b b a > > @.@.@.@.@.@.",
"@.@.@.@.@.@.- > k V N 6 - - @.@.@.@.@.@.@.@.> > 6 j ; O % i G / ( ) ) ( ( U e & c V k 6 > @.@.@.@.@.@.@.@.> > h V C k - - @.@.@.@.@.@.",
"@.@.@.@.@.@.- - k Z N h > - @.@.@.@.@.@.> - - 6 6 l ; O $ i J E Q ^ ) ) ) R w + c Z z 6 - - - @.@.@.@.@.@.> - h Z V k - - @.@.@.@.@.@.",
"@.@.@.@.@.@.- - k V V 6 - - @.@.@.@.@.@.> > > 6 h z : O $ i J L P Q ( ) ) W 0 + c Z z h > - - @.@.@.@.@.@.- - h Z Z j - > @.@.@.@.@.@.",
"@.@.@.@.@.@.- > k Z N h > - @.@.@.@.@.@.- > > > j z > O # u G G G U ~ ~ ~ U 9 + c Z k h > > - @.@.@.@.@.@.> > h V V k - > @.@.@.@.@.@.",
"@.@.@.@.@.@.- - k V V h > - @.@.@.- - - > > > > h z > O o # % % % 0 y y y 0 @ + c Z k h > > > - - - @.@.@.> - h V V k - - @.@.@.@.@.@.",
"@.@.@.@.@.@.- > k Z N h - - @.@.@.> > > > > > 6 j z 6 O     .   . . . . . .   + c Z z > > > > > - - @.@.@.> - h V V k - > @.@.@.@.@.@.",
"@.@.@.@.@.@.- > k V N h > > > > > > - > k k 6 > j z l 6 5 > 6 - - - ; - - - - h N Z k h 6 j j > > - - - > > > h Z V k - > @.@.@.@.@.@.",
"@.@.@.@.@.@.- > k V N h > - > > 6 h 6 h z k h h j l l z z z z j a j j j j j h k n Z k h h z z h h 6 h > > - > h V V k > > @.@.@.@.@.@.",
"@.@.@.@.@.@.- > h n c 6 > - > k k z z k z l j j j j k l l l l l j j j j j j j l x n l h j z z z z k z h > > > 6 c c h > > @.@.@.@.@.@.",
"@.@.@.@.@.@.- - > > > - > > 6 c Z Z Z V x z z l k - > j j j j j j j l j j j j 8 h - k z z x x C Z Z Z z > > > - - > > - > @.@.@.@.@.@.",
"@.@.@.@.@.@.z z z z z z z z z N Z Z Z Z N n x k j > h j j j j j j j l j l j j j 6 > j l z z x B V V Z N z z z z x z z z z @.@.@.@.@.@.",
"@.@.@.@.- > c N V N V V N V V Z Z Z Z Z V V c l j > 6 j l j j j j j j j j j j j 6 > k z z z z c c V Z V V V V V N V V N c - - @.@.@.@.",
"@.@.@.- - > x n N N N N N N N N N N N N N N x k h > > j h j j j j j h j 8 7 6 6 h - h k k k k k z c N N N N N N N N N n z > - - @.@.@.",
"@.@.> - > > k k k k k z z k z k k z z k k k h h h - > h 6 > > h > 6 > 6 7 6 6 6 > - h h h h h h h k z k z k k k k z k l h > - > > @.@.",
"@.@.> > > > - > > > > > > - > > > > > > > - > - - - > > > > > > > > > - > > ; > > > > > ; > > > - > > > > > > > > > > - > > > > > @.@.",
"@.@.@.@.@.@.@.@.@.@.@.@.@.@.@.@.@.@.@.@.@.@.> h k V N N B N N N N B N V N N N B N B k > > @.@.@.@.@.@.@.@.@.@.@.@.@.@.@.@.@.@.@.@.@.@.",
"@.@.@.@.@.@.@.@.@.@.@.@.@.@.@.@.@.@.@.@.@.@.- h x V V V Z Z V Z Z Z Z Z Z Z V Z Z V k h - @.@.@.@.@.@.@.@.@.@.@.@.@.@.@.@.@.@.@.@.@.@.",
"@.@.@.@.@.@.@.@.@.@.@.@.@.@.@.@.@.@.@.@.@.@.@.@.z c N V Z Z Z Z Z Z Z Z Z Z Z V N x k @.@.@.@.@.@.@.@.@.@.@.@.@.@.@.@.@.@.@.@.@.@.@.@.",
"@.@.@.@.@.@.@.@.@.@.@.@.@.@.@.@.@.@.@.@.@.@.@.@.@.> x V Z Z Z Z Z Z Z Z Z Z Z B z > @.@.@.@.@.@.@.@.@.@.@.@.@.@.@.@.@.@.@.@.@.@.@.@.@.",
"@.@.@.@.@.@.@.@.@.@.@.@.@.@.@.@.@.@.@.@.@.@.@.@.@.> x N V N V B V N V N V N V N z > @.@.@.@.@.@.@.@.@.@.@.@.@.@.@.@.@.@.@.@.@.@.@.@.@.",
"@.@.@.@.@.@.@.@.@.@.@.@.@.@.@.@.@.@.@.@.@.@.@.@.@.@.@.> - > > > ; ; - - - > > > @.@.@.@.@.@.@.@.@.@.@.@.@.@.@.@.@.@.@.@.@.@.@.@.@.@.@.",
"@.@.@.@.@.@.@.@.@.@.@.@.@.@.@.@.@.@.@.@.@.@.@.@.@.@.@.> > > - f f d _ d - - > - @.@.@.@.@.@.@.@.@.@.@.@.@.@.@.@.@.@.@.@.@.@.@.@.@.@.@.",
"@.@.@.@.@.@.@.@.@.@.@.@.@.@.@.@.@.@.@.@.@.@.@.@.@.@.@.> > - > [ } } { ] > > > > @.@.@.@.@.@.@.@.@.@.@.@.@.@.@.@.@.@.@.@.@.@.@.@.@.@.@.",
"@.@.@.@.@.@.@.@.@.@.@.@.@.@.@.@.@.@.@.@.@.@.@.@.@.@.@.@.> - > | ......o.> > - @.@.@.@.@.@.@.@.@.@.@.@.@.@.@.@.@.@.@.@.@.@.@.@.@.@.@.@.",
"@.@.@.@.@.@.@.@.@.@.@.@.@.@.@.@.@.@.@.@.@.@.@.@.@.@.@.@.@.@.@.` ' ' ' _ @.@.@.@.@.@.@.@.@.@.@.@.@.@.@.@.@.@.@.@.@.@.@.@.@.@.@.@.@.@.@.",
"@.@.@.@.@.@.@.@.@.@.@.@.@.@.@.@.@.@.@.@.@.@.@.@.@.@.@.@.@.@.@.> > > - > @.@.@.@.@.@.@.@.@.@.@.@.@.@.@.@.@.@.@.@.@.@.@.@.@.@.@.@.@.@.@.",
"@.@.@.@.@.@.@.@.@.@.@.@.@.@.@.@.@.@.@.@.@.@.@.@.@.O.@.@.@.@.@.@.@.@.@.@.@.@.@.@.@.O.@.@.@.@.@.@.@.@.@.@.@.@.@.@.@.@.@.@.@.@.@.@.@.@.@.",
"@.@.@.@.@.@.@.@.@.@.@.@.@.@.@.@.@.@.@.@.@.@.@.@.@.O.X.@.@.@.@.@.@.@.@.@.@.@.@.@.O.O.@.@.@.@.@.@.@.@.@.@.@.@.@.@.@.@.@.@.@.@.@.@.@.@.@.",
"@.@.@.@.@.@.@.@.@.@.@.@.@.@.@.@.@.@.@.@.@.@.@.@.@.+.X.@.@.@.@.@.@.@.@.@.@.@.@.@.O.+.@.@.@.@.@.@.@.@.@.@.@.@.@.@.@.@.@.@.@.@.@.@.@.@.@.",
"@.@.@.@.@.@.@.@.@.@.@.@.@.@.@.@.@.@.@.@.@.@.@.@.@.@.@.+.+.+.+.+.+.+.+.+.+.+.+.+.@.@.@.@.@.@.@.@.@.@.@.@.@.@.@.@.@.@.@.@.@.@.@.@.@.@.@.",
"@.@.@.@.@.@.@.@.@.@.@.@.@.@.@.@.@.@.@.@.@.@.@.@.@.@.@.O.O.O.O.O.O.O.O.O.O.O.O.O.@.@.@.@.@.@.@.@.@.@.@.@.@.@.@.@.@.@.@.@.@.@.@.@.@.@.@.",
"@.@.@.@.@.@.@.@.@.@.@.@.@.@.@.@.@.@.@.@.@.@.@.@.@.@.@.@.@.@.@.@.@.@.@.@.@.@.@.@.@.@.@.@.@.@.@.@.@.@.@.@.@.@.@.@.@.@.@.@.@.@.@.@.@.@.@.",
"@.@.@.@.@.@.@.@.@.@.@.@.@.@.@.@.@.@.@.@.@.@.@.@.@.@.@.@.@.@.@.@.@.@.@.@.@.@.@.@.@.@.@.@.@.@.@.@.@.@.@.@.@.@.@.@.@.@.@.@.@.@.@.@.@.@.@.",
"@.@.@.@.@.@.@.@.@.@.@.@.@.@.@.@.@.@.@.@.@.@.@.@.@.@.@.@.@.@.@.@.@.@.@.@.@.@.@.@.@.@.@.@.@.@.@.@.@.@.@.@.@.@.@.@.@.@.@.@.@.@.@.@.@.@.@.",
"@.@.@.@.@.@.@.@.@.@.@.@.@.@.@.@.@.@.@.@.@.@.@.@.@.@.@.+.+.@.@.@.@.@.@.@.@.@.+.+.@.@.@.@.@.@.@.@.@.@.@.@.@.@.@.@.@.@.@.@.@.@.@.@.@.@.@.",
"@.@.@.@.@.@.@.@.@.@.@.@.@.@.@.@.@.@.@.@.@.@.@.@.@.@.@.O.O.@.@.@.@.@.@.@.@.@.O.+.@.@.@.@.@.@.@.@.@.@.@.@.@.@.@.@.@.@.@.@.@.@.@.@.@.@.@.",
"@.@.@.@.@.@.@.@.@.@.@.@.@.@.@.@.@.@.@.@.@.@.@.@.@.@.@.@.@.+.+.+.+.+.+.+.+.+.@.@.@.@.@.@.@.@.@.@.@.@.@.@.@.@.@.@.@.@.@.@.@.@.@.@.@.@.@.",
"@.@.@.@.@.@.@.@.@.@.@.@.@.@.@.@.@.@.@.@.@.@.@.@.@.@.@.@.@.@.@.@.@.@.@.@.@.@.@.@.@.@.@.@.@.@.@.@.@.@.@.@.@.@.@.@.@.@.@.@.@.@.@.@.@.@.@.",
"@.@.@.@.@.@.@.@.@.@.@.@.@.@.@.@.@.@.@.@.@.@.@.@.@.@.@.@.@.@.@.@.@.@.@.@.@.@.@.@.@.@.@.@.@.@.@.@.@.@.@.@.@.@.@.@.@.@.@.@.@.@.@.@.@.@.@.",
"@.@.@.@.@.@.@.@.@.@.@.@.@.@.@.@.@.@.@.@.@.@.@.@.@.@.@.@.@.@.@.@.@.@.@.@.@.@.@.@.@.@.@.@.@.@.@.@.@.@.@.@.@.@.@.@.@.@.@.@.@.@.@.@.@.@.@.",
"@.@.@.@.@.@.@.@.@.@.@.@.@.@.@.@.@.@.@.@.@.@.@.@.@.@.@.@.@.+.+.@.@.@.@.@.+.@.@.@.@.@.@.@.@.@.@.@.@.@.@.@.@.@.@.@.@.@.@.@.@.@.@.@.@.@.@.",
"@.@.@.@.@.@.@.@.@.@.@.@.@.@.@.@.@.@.@.@.@.@.@.@.@.@.@.@.@.+.+.@.@.@.@.@.+.+.@.@.@.@.@.@.@.@.@.@.@.@.@.@.@.@.@.@.@.@.@.@.@.@.@.@.@.@.@.",
"@.@.@.@.@.@.@.@.@.@.@.@.@.@.@.@.@.@.@.@.@.@.@.@.@.@.@.@.@.@.@.O.+.O.O.O.@.@.@.@.@.@.@.@.@.@.@.@.@.@.@.@.@.@.@.@.@.@.@.@.@.@.@.@.@.@.@.",
"@.@.@.@.@.@.@.@.@.@.@.@.@.@.@.@.@.@.@.@.@.@.@.@.@.@.@.@.@.@.@.+.+.+.+.O.@.@.@.@.@.@.@.@.@.@.@.@.@.@.@.@.@.@.@.@.@.@.@.@.@.@.@.@.@.@.@.",
"@.@.@.@.@.@.@.@.@.@.@.@.@.@.@.@.@.@.@.@.@.@.@.@.@.@.@.@.@.@.@.+.+.+.+.+.@.@.@.@.@.@.@.@.@.@.@.@.@.@.@.@.@.@.@.@.@.@.@.@.@.@.@.@.@.@.@.",
"@.@.@.@.@.@.@.@.@.@.@.@.@.@.@.@.@.@.@.@.@.@.@.@.@.@.@.@.@.@.@.@.@.@.@.@.@.@.@.@.@.@.@.@.@.@.@.@.@.@.@.@.@.@.@.@.@.@.@.@.@.@.@.@.@.@.@."
};
