/* XPM */
static char *nave_small_4[] = {
/* columns rows colors chars-per-pixel */
"67 67 247 2 ",
"   c #000000",
".  c #010100",
"X  c #010101",
"o  c #020200",
"O  c #030200",
"+  c #030300",
"@  c #020202",
"#  c #030303",
"$  c #040400",
"%  c #060600",
"&  c #040404",
"*  c #050505",
"=  c #0B0A00",
"-  c #0A0909",
";  c #0C0C0C",
":  c #1E1C01",
">  c #101010",
",  c #121212",
"<  c #131313",
"1  c #171515",
"2  c #181818",
"3  c #1A1818",
"4  c #1B1B1B",
"5  c #1E1C1C",
"6  c #221F18",
"7  c #201D1D",
"8  c #282602",
"9  c #2A2702",
"0  c #2C2902",
"q  c #333003",
"w  c #28241A",
"e  c #242222",
"r  c #252222",
"t  c #262323",
"y  c #252525",
"u  c #2B2929",
"i  c #2B2B2B",
"p  c #322F2F",
"a  c #332F2F",
"s  c #373737",
"d  c #3A3535",
"f  c #3C3535",
"g  c #3F3434",
"h  c #3C3636",
"j  c #37393A",
"k  c #373B3E",
"l  c #373C3E",
"z  c #383838",
"x  c #393838",
"c  c #393939",
"v  c #3A3939",
"b  c #38393A",
"n  c #3A3A3A",
"m  c #3B3A3A",
"M  c #3B3B3B",
"N  c #3F3939",
"B  c #3C3B3B",
"V  c #3C3C3C",
"C  c #3D3C3C",
"Z  c #3D3D3D",
"A  c #3E3C3C",
"S  c #3E3D3D",
"D  c #3E3E3E",
"F  c #3F3F3F",
"G  c #651B1B",
"H  c #621D1D",
"J  c #711313",
"K  c #741111",
"L  c #7A1111",
"P  c #452F2F",
"I  c #472E2E",
"U  c #4C2B2B",
"Y  c #532626",
"T  c #562525",
"R  c #5D2020",
"E  c #403333",
"W  c #443030",
"Q  c #403D3D",
"!  c #423D3D",
"~  c #413E3E",
"^  c #403F3F",
"/  c #423F3F",
"(  c #433F3F",
")  c #7F3333",
"_  c #4E4803",
"`  c #4D4708",
"'  c #5D5604",
"]  c #5F5904",
"[  c #615B04",
"{  c #675F04",
"}  c #746C05",
"|  c #7C7405",
" . c #4E4D3F",
".. c #314956",
"X. c #2E5265",
"o. c #2B5A73",
"O. c #2B5A74",
"+. c #29607E",
"@. c #404040",
"#. c #414141",
"$. c #424040",
"%. c #434141",
"&. c #424242",
"*. c #434343",
"=. c #444040",
"-. c #454141",
";. c #464141",
":. c #464242",
">. c #474242",
",. c #444444",
"<. c #454545",
"1. c #464444",
"2. c #474545",
"3. c #464646",
"4. c #474747",
"5. c #484242",
"6. c #494242",
"7. c #484343",
"8. c #494343",
"9. c #4A4343",
"0. c #494545",
"q. c #4A4444",
"w. c #4B4545",
"e. c #484646",
"r. c #494747",
"t. c #4C4545",
"y. c #4C4646",
"u. c #4D4646",
"i. c #4E4747",
"p. c #484848",
"a. c #494949",
"s. c #4A4848",
"d. c #4A4949",
"f. c #4B4949",
"g. c #4A4A4A",
"h. c #4B4A4A",
"j. c #4B4B4B",
"k. c #4C4949",
"l. c #4E4848",
"z. c #4C4A4A",
"x. c #4E4B4B",
"c. c #4F4B4B",
"v. c #4C4C4C",
"b. c #4D4D4D",
"n. c #4F4C4C",
"m. c #4E4E4E",
"M. c #4F4F4F",
"N. c #534343",
"B. c #504A4A",
"V. c #504B4B",
"C. c #514B4B",
"Z. c #504D4D",
"A. c #514D4D",
"S. c #514E4E",
"D. c #534E4E",
"F. c #534F4F",
"G. c #544F4F",
"H. c #505050",
"J. c #515151",
"K. c #535050",
"L. c #525151",
"P. c #525252",
"I. c #535353",
"U. c #545050",
"Y. c #555151",
"T. c #545252",
"R. c #555252",
"E. c #565252",
"W. c #545454",
"Q. c #555555",
"!. c #565656",
"~. c #575656",
"^. c #575757",
"/. c #595555",
"(. c #585858",
"). c #595959",
"_. c #5B5858",
"`. c #5A5A5A",
"'. c #5B5B5B",
"]. c #5C5858",
"[. c #5C5C5C",
"{. c #5D5D5D",
"}. c #5E5E5E",
"|. c #5F5F5F",
" X c #605D5D",
".X c #606060",
"XX c #616161",
"oX c #626262",
"OX c #636363",
"+X c #646262",
"@X c #656363",
"#X c #666363",
"$X c #646464",
"%X c #656565",
"&X c #666666",
"*X c #676767",
"=X c #686868",
"-X c #696868",
";X c #696969",
":X c #6A6969",
">X c #6A6A6A",
",X c #6B6B6B",
"<X c #6C6C6C",
"1X c #6D6D6D",
"2X c #6E6E6E",
"3X c #6F6F6F",
"4X c #707070",
"5X c #717171",
"6X c #727171",
"7X c #727272",
"8X c #870505",
"9X c #8B0202",
"0X c #890404",
"qX c #810909",
"wX c #800A0A",
"eX c #880C0C",
"rX c #822A2A",
"tX c #817805",
"yX c #837A05",
"uX c #8A8005",
"iX c #8C8206",
"pX c #908606",
"aX c #958B06",
"sX c #978D06",
"dX c #A19607",
"fX c #B4A807",
"gX c #B8AB07",
"hX c #BBAE07",
"jX c #CABB08",
"kX c #D6C708",
"lX c #DBCC08",
"zX c #DCCD08",
"xX c #E2D208",
"cX c #E6D609",
"vX c #EDDD09",
"bX c #EEDD09",
"nX c #F0DF09",
"mX c #246E96",
"MX c #1E7BAE",
"NX c #2076A4",
"BX c #1A86C0",
"VX c #1692D5",
"CX c #1398DF",
"ZX c #119DE9",
"AX c #119EE9",
"SX c #119EEA",
"DX c None",
/* pixels */
"DXDXDXDXDXDXDXDXDXDXDXDXDXDXDXDXDXDXDXDXDXDXDXDXDXDXDXDXDXDXDXDXDXDXDXDXDXDXDXDXDXDXDXDXDXDXDXDXDXDXDXDXDXDXDXDXDXDXDXDXDXDXDXDXDXDXDX",
"DXDXDXDXDXDXDXDXDXDXDXDXDXDXDXDXDXDXDXDXDXDXDXDXDXDXDXDXDXDXDXDXDXDXDXDXDXDXDXDXDXDXDXDXDXDXDXDXDXDXDXDXDXDXDXDXDXDXDXDXDXDXDXDXDXDXDX",
"DXDXDXDXDXDXDXDXDXDXDXDXDXDXDXDXDXDXDXDXDXDXDXDXDXDXDXDXDXDXDXDXDXDXDXDXDXDXDXDXDXDXDXDXDXDXDXDXDXDXDXDXDXDXDXDXDXDXDXDXDXDXDXDXDXDXDX",
"DXDXDXDXDXDXDXDXDXDXDXDXDXDXDXDXDXDXDXDXDXDXDXDXDXDXDXDXDXDXDXDXDXDXDXDXDXDXDXDXDXDXDXDXDXDXDXDXDXDXDXDXDXDXDXDXDXDXDXDXDXDXDXDXDXDXDX",
"DXDXDXDXDXDXDXDXDXDXDXDXDXDXDXDXDXDXDXDXDXDXDXDXDXDXDXDXDXDXDXDXDXDXDXDXDXDXDXDXDXDXDXDXDXDXDXDXDXDXDXDXDXDXDXDXDXDXDXDXDXDXDXDXDXDXDX",
"DXDXDXDXDXDXDXDXDXDXDXDXDXDXDXDXDXDXDXDXDXDXDXDXDXDXDXDXDXDXDXDXDXDXDXDXDXDXDXDXDXz DXDXDXDXDXDXDXDXDXDXDXDXDXDXDXDXDXDXDXDXDXDXDXDXDX",
"DXDXDXDXDXDXDXDXDXDXDXDXDXDXDXDXDXDXDXDXDXDXDXDXDXDXDXDXDXDXDXDXDXDXDXDXDXDXDXDXDXz DXDXDXDXDXDXDXDXDXDXDXDXDXDXDXDXDXDXDXDXDXDXDXDXDX",
"DXDXDXDXDXDXDXDXDXDXDXDXDXDXDXDXDXDXDXDXDXDXDXDXDXDXDXDXDXDXDXDXDXDXDXDXDXDXDXDXz z DXDXDXDXDXDXDXDXDXDXDXDXDXDXDXDXDXDXDXDXDXDXDXDXDX",
"DXDXDXDXDXDXDXDXDXDXDXDXDXDXDXDXDXDXDXDXDXDXDXDXDXDXDXDXDXDXDXDXDXDXDXDXDXDXDXDXz z z z DXDXDXDXDXDXDXDXDXDXDXDXDXDXDXDXDXDXDXDXDXDXDX",
"DXDXDXDXDXDXDXDXDXDXDXDXDXDXDXDXDXDXDXDXDXDXDXDXDXDXDXDXDXDXDXDXDXDXDXDXDXDXDXz z a.a.n DXDXDXDXDXDXDXDXDXDXDXDXDXDXDXDXDXDXDXDXDXDXDX",
"DXDXDXDXDXDXDXDXDXDXDXDXDXDXDXDXDXDXDXDXDXDXDXDXDXDXDXDXDXDXDXDXDXDXDXDXDXDXDXz z =X7XJ.DXDXDXDXDXDXDXDXDXDXDXDXDXDXDXDXDXDXDXDXDXDXDX",
"DXDXDXDXDXDXDXDXDXDXDXDXDXDXDXDXDXDXDXDXDXDXDXDXDXDXDXDXDXDXDXDXDXDXDXDXDXDXDXz *.7X4XV z z z DXDXDXDXDXDXDXDXDXDXDXDXDXDXDXDXDXDXDXDX",
"DXDXDXDXDXDXDXDXDXDXDXDXDXDXDXDXDXDXDXDXDXDXDXDXDXDXDXDXDXDXDXDXDXDXDXDXDXDXz z (.7X|.z M n z z z z DXDXDXDXDXDXDXDXDXDXDXDXDXDXDXDXDX",
"DXDXDXDXDXDXDXDXDXDXDXDXDXDXDXDXDXDXDXDXDXDXDXDXDXDXDXDXDXDXDXDXDXDXDXDXDXDXz v 1X7Xg.z I.2X'.3.c z z z z DXDXDXDXDXDXDXDXDXDXDXDXDXDX",
"DXDXDXDXDXDXDXDXDXDXDXDXDXDXDXDXDXDXDXDXDXDXDXDXDXDXDXDXDXDXDXDXDXDXDXDXDXDXz a.7X1Xv z oX7X7X7X>X!.#.z z z z DXDXDXDXDXDXDXDXDXDXDXDX",
"DXDXDXDXDXDXDXDXDXDXDXDXDXDXDXDXDXDXDXDXDXDXDXDXDXDXDXDXDXDXDXDXDXDXDXDXDXz z }.7X).z z c 4.[.3X7X7X6X%XN.g z z z DXDXDXDXDXDXDXDXDXDX",
"DXDXDXDXDXDXDXDXDXDXDXDXDXDXDXDXDXDXDXDXDXDXDXDXDXDXDXDXDXDXDXDXDXDXDXDXDXz M 3X7X,.z z z z z M v.oX5X7XrX0XJ Y f DXDXDXDXDXDXDXDXDXDX",
"DXDXDXDXDXDXDXDXDXDXDXDXDXDXDXDXDXDXDXDXDXDXDXDXDXDXDXDXDXDXDXDXDXDXDXDXDXz m.7X;Xz z z z z z z z z D L.L 9X9X9XH DXDXDXDXDXDXDXDXDXDX",
"DXDXDXDXDXDXDXDXDXDXDXDXDXDXDXDXDXDXDXDXDXDXDXDXDXDXDXDXDXDXDXDXDXDXDXDXz z OX7X6XOX4.z z DXDXDXDXz z z z I G qXE z DXDXDXDXDXDXDXDXDX",
"DXDXDXDXDXDXDXDXDXDXDXDXDXDXDXDXDXDXDXDXDXDXDXDXDXDXDXDXDXDXDXDXDXDXDXDXz F 5X7X7X7Xv.z DXDXDXDXDXDXDXz z z z z DXDXDXDXDXDXDXDXDXDXDX",
"DXDXDXDXDXDXDXDXDXSXDXDXDXDXDXSXDXDXDXDXDXDXZXDXDXDXDXDXDXDXDXDXDXDXDXz z I.7X7X7X3Xn z DXDXDXDXDXDXDXDXDXDXz DXDXDXDXDXDXDXDXDXDXDXDX",
"DXDXDXDXDXDXSXDXDXSXDXDXDXDXDXSXSXDXDXDXDXDXSXZXDXDXDXDXDXDXDXDXDXDXDXz z =X7X6X7X[.z z DXDXDXDXDXDXDXDXDXDXDXDXDXDXDXDXDXDXDXDXDXDXDX",
"DXDXDXDXDXDXSXSXDXDXDXDXSXSXDXDXDXDXDXAXSXDXDXDXDXDXDXDXDXDXDXDXDXz z z ,.7X5X/. Xh.z z z z DXDXDXDXDXDXDXDXDXDXDXDXDXDXDXDXDXDXDXDXDX",
"DXDXDXDXDXSXSXDXDXDXDXDXSXSXDXDXDXDXDXSXSXDXDXDXDXDXDXDXDXDXz DXF z z z z.+X@XE.E.E.F.v z DXDXDXDXDXDXDXDXDXDXDXDXDXDXDXDXDXDXDXDXDXDX",
"DXDXDXDXDXSXSXDXDXDXDXDXSXSXDXDXDXDXAXSXDXDXDXDXDXz z DXDXDXz m.5X'.z c K.E.E.E.Z.U.n.z z z DXDXDXDXDXDXDXDXDXDXDXDXDXDXDXDXDXDXDXDXDX",
"DXDXDXDXDXDXDXDXDXDXDXSXSXDXDXDXDXDXSXSXDXDXDXDXDXz z z n ,X'.&X7XW.z c %.x.R.E.C c M z z z z DXDXDXDXDXDXDXDXDXDXDXDXDXDXDXDXDXDXDXDX",
"DXDXDXDXDXDXDXSXDXDXDXSXSXDXDXDXDXDXSXSXDXDXDXDXz z z z v.7X7X7X6XF z z z z M 2.S z z z z z DXDXDXDXDXDXDXDXDXDXDXDXDXDXDXDXDXDXDXDXDX",
"DXDXDXDXDXDXDXSXDXDXDXSXSXDXDXDXDXAXSXDXDXDXz ..o.k z z XX7X7X7X$Xz c 7.~ v z r.E.A.1.M z z z z DXDXDXDXDXDXDXDXDXDXDXDXDXDXDXDXDXDXDX",
"DXDXDXDXDXDXDXDXDXDXSXSXDXDXDXDXDXSXSXDXDXz z mXSXMXz Z 5X7X7X7Xm.z Q u.u.y.>.K.E.E.E.R.x.$.c z DXDXDXDXDXDXDXDXDXDXDXDXDXDXDXDXDXDXDX",
"DXDXDXDXDXDXDXDXDXDXDXDXDXDXDXDXDXSXDXDXDXz b VXSXO.z J.7X7X7X4XM z 5.u.u.u.B.E.c.e / Y.E.V.t.( DXDXDXDXDXDXDXDXDXDXDXDXDXDXDXDXDXDXDX",
"DXDXDXDXDXDXDXDXDXDXDXDXSXDXDXDXZXSXDXDXDXz X.SXCXl z &X7X7X7X}.z m u.u.u.u.D.E.p     ; u ! u.A z z DXDXDXDXDXDXDXDXDXDXDXDXDXDXDXDXDX",
"DXDXDXDXDXDXDXDXDXDXDXDXSXDXDXDXSXSXDXDXDXDX+.BXNXz #.7X7X7X7Xa.z / u.u.u.i.R.E.,   o     X 3 ~ v z z z z DXDXDXDXDXDXDXDXDXDXDXDXDXDX",
"DXDXDXDXDXDXDXDXDXDXDXDXDXDXDXZXSXDXDXDXDXDXz z j z ~.7X7X7X1Xv z q.u.u.u.l.G.0.X + | ' 8 O r u.y.:.A z z DXDXDXDXDXDXDXDXDXDXDXDXDXDX",
"DXDXDXDXDXDXDXDXDXDXDXDXDXDXDXDXDXDXDXDXDXDXz z z c ,X7X7X7X).z B u.u.u.u.u.u.t   9 pXpXpXtXw N u.u.-.z z DXDXDXDXDXDXDXDXDXDXDXDXDXDX",
"DXDXDXDXDXDXDXDXDXDXDXDXDXDXDXDXDXAXDXDXDXz z z z 4.7X7X7X7X,.z =.u.u.u.u.u.t.-   ] pXdXsX}   # 6.u.$.z z z z DXDXDXDXDXDXDXDXDXDXDXDX",
"DXDXDXDXDXDXDXDXDXDXDXDXDXDXDXDXDXSXSXDXDXDXz z z [.7X7X7X=Xz z w.u.u.u.u.u.d   = iXpXzXbXgX_ 6 u.C.5XoXb.M z z DXDXDXDXDXDXDXDXDXDXDX",
"DXDXDXDXDXDXDXDXDXDXDXDXDXDXDXDXDXDXDXDXDXDXDXDXDX>X7X7X7XW.z A u.u.u.u.u.u.5   ' cXjXnXnXnXnX` 7 T.7X7X7X<Xc z DXDXDXDXDXDXDXDXDXDXDX",
"DXDXDXDXDXDXDXDXDXDXDXDXDXDXDXDXDXDXDXDXDXDXDXDXDXv H.7X6XF z ;.u.u.u.u.u.9.*   fXnXnXnXnXnXlX% X |.7X7X7X[.z z z DXDXDXDXDXDXDXDXDXDX",
"DXDXDXDXDXDXDXDXDXDXDXDXDXDXDXDXDXDXDXDXDXDXDXDXDXz W.7XOXz c t.u.u.u.u.u.a   : vXnXnXnXnXnXuX  2 7X7X7X7X=XH.M z z DXDXDXDXDXDXDXDXDX",
"DXDXDXDXDXDXDXDXDXDXDXDXDXDXDXDXDXDXDXDXDXDXDXDXDXDXQ.<Xm.z z m ( q.u.u.u.1   [ nXnXnXxX{ hXq   #.7X7X7X7X7X6XF z DXDXDXDXDXDXDXDXDXDX",
"DXDXDXDXDXDXDXDXDXDXDXDXDXDXDXDXDXDXDXDXDXDXDXDXDXDXz c v z c z z z d.].8.@   . 0 yXkXaX  < oXn =X7X7X7X7X7X$Xz z z z DXDXDXDXDXDXDXDX",
"DXDXDXDXDXDXDXDXDXDXDXDXDXDXDXDXDXDXDXDXDXDXDXDXDXDXz z z B U.f.^ z }.7X3XM.y &     $  .i #.7X7X7X7X7X7X7X7XM.z z z z DXDXDXDXDXDXDXDX",
"DXDXDXDXDXDXDXDXDXDXDXDXDXDXDXDXDXDXDXDXDXDXDXDXDXDXDXz z 1.E.E.E.S.J.*X7X7X7X>X,.4 > 5X7X7X7X=X5X7X7X*Xj.|.V z z z DXDXDXDXDXDXDXDXDX",
"DXDXDXDXDXDXDXDXDXDXDXDXDXDXDXDXDXDXDXDXDXDXDXDXDXDXDXz z S.E.E.E.s.z z &.(.<X7X7X7XQ.Q.>X7X3Xn D P.*XJ.z z z z z z DXDXDXDXDXDXDXDXDX",
"DXDXDXDXDXDXDXDXDXDXDXDXDXDXDXDXDXDXDXDXDXDXDXDXDXDXDXz S E.E.E.E.n.$.c z z c p.{.3X#.z z <.b.z z z z c z z z DXDXDXDXDXDXDXDXDXDXDXDX",
"DXDXDXDXDXDXDXDXDXDXDXDXDXDXDXDXDXDXDXDXDXDXDXDXDXDXz z r.E._._.E.E.R.B z z z z z n DXz z z z z DXz z z z DXDXDXDXDXDXDXDXDXDXDXDXDXDX",
"DXDXDXDXDXDXDXDXDXDXDXDXDXDXDXDXDXDXDXDXDXDXDXDXDXDXz v E.E.:X7X~.e.k.z z z z DXs DXDXDXDXDXz z DXDXDXDXDXDXDXDXDXDXDXDXDXDXDXDXDXDXDX",
"DXDXDXDXDXDXDXDXDXDXDXDXDXDXDXDXDXDXDXDXDXDXDXDXDXDXz a.5X-X6X7X#.z z z z z z DXDXDXDXDXDXDXDXDXDXDXDXDXDXDXDXDXDXDXDXDXDXDXDXDXDXDXDX",
"DXDXDXDXDXDXDXDXDXDXDXDXDXDXDXDXDXDXDXDXDXDXDXDXDXz z }.7X7X7X&Xz z z z DXDXDXDXDXDXDXDXDXDXDXDXDXDXDXDXDXDXDXDXDXDXDXDXDXDXDXDXDXDXDX",
"DXDXDXDXDXDXDXDXDXDXDXDXDXDXDXDXDXDXDXDXDXDXDXDXDXz V 4X7X[.<XJ.z z DXDXDXDXDXDXDXDXDXDXDXDXDXDXDXDXDXDXDXDXDXDXDXDXDXDXDXDXDXDXDXDXDX",
"DXDXDXDXDXDXDXDXDXDXDXDXDXDXDXDXDXDXDXDXDXDXDXDXDXz M.7X=Xz c n z DXDXDXDXDXDXDXDXDXDXDXDXDXDXDXDXDXDXDXDXDXDXDXDXDXDXDXDXDXDXDXDXDXDX",
"DXDXDXDXDXDXDXDXDXDXDXDXDXDXDXDXDXDXDXDXDXDXDXDXz z $X7XI.z z z z DXDXDXDXDXDXDXDXDXDXDXDXDXDXDXDXDXDXDXDXDXDXDXDXDXDXDXDXDXDXDXDXDXDX",
"DXDXDXDXDXDXDXDXDXDXDXDXDXDXDXDXDXDXDXDXDXDXDXDXz @.6X5XF z z z DXDXDXDXDXDXDXDXDXDXDXDXDXDXDXDXDXDXDXDXDXDXDXDXDXDXDXDXDXDXDXDXDXDXDX",
"DXDXDXDXDXDXDXDXDXDXDXDXDXDXDXDXDXDXDXDXDXDXDXz z W.7XOXz z z z z z DXDXDXDXDXDXDXDXDXDXDXDXDXDXDXDXDXDXDXDXDXDXDXDXDXDXDXDXDXDXDXDXDX",
"DXDXDXDXDXDXDXDXDXDXDXDXDXDXDXDXDXDXDXDXDXDXDXz z ;X7Xm.z b.{.p.c z z z z DXDXDXDXDXDXDXDXDXDXDXDXDXDXDXDXDXDXDXDXDXDXDXDXDXDXDXDXDXDX",
"DXDXDXDXDXDXDXDXDXDXDXDXDXDXDXDXDXDXDXDXDXDXDXz ,.7X4XM z $X7X7X<X^.&.z z z z DXDXDXDXDXDXDXDXDXDXDXDXDXDXDXDXDXDXDXDXDXDXDXDXDXDXDXDX",
"DXDXDXDXDXDXDXDXDXDXDXDXDXDXDXDXDXDXDXDXDXDXz z b.3X}.z z <.`.2X7X7X7X*XP.S z z z z DXDXDXDXDXDXDXDXDXDXDXDXDXDXDXDXDXDXDXDXDXDXDXDXDX",
"DXDXDXDXDXDXDXDXDXDXDXDXDXDXDXDXDXDXDXDXDXDXz z z M DXz z z z n j..X4X7X7X) K T h z DXDXDXDXDXDXDXDXDXDXDXDXDXDXDXDXDXDXDXDXDXDXDXDXDX",
"DXDXDXDXDXDXDXDXDXDXDXDXDXDXDXDXDXDXDXDXDXDXz z z z DXDXDXDXz z z z C H.#XeX9X9X8XR DXDXDXDXDXDXDXDXDXDXDXDXDXDXDXDXDXDXDXDXDXDXDXDXDX",
"DXDXDXDXDXDXDXDXDXDXDXDXDXDXDXDXDXDXDXDXDXz z DXDXDXDXDXDXDXDXDXDXz z z z W H wX9XP z DXDXDXDXDXDXDXDXDXDXDXDXDXDXDXDXDXDXDXDXDXDXDXDX",
"DXDXDXDXDXDXDXDXDXDXDXDXDXDXDXDXDXDXDXDXDXDXDXDXDXDXDXDXDXDXDXDXDXDXDXDXz z z x U DXz DXDXDXDXDXDXDXDXDXDXDXDXDXDXDXDXDXDXDXDXDXDXDXDX",
"DXDXDXDXDXDXDXDXDXDXDXDXDXDXDXDXDXDXDXDXDXDXDXDXDXDXDXDXDXDXDXDXDXDXDXDXDXDXz z DXDXDXDXDXDXDXDXDXDXDXDXDXDXDXDXDXDXDXDXDXDXDXDXDXDXDX",
"DXDXDXDXDXDXDXDXDXDXDXDXDXDXDXDXDXDXDXDXDXDXDXDXDXDXDXDXDXDXDXDXDXDXDXDXDXDXDXDXDXDXDXDXDXDXDXDXDXDXDXDXDXDXDXDXDXDXDXDXDXDXDXDXDXDXDX",
"DXDXDXDXDXDXDXDXDXDXDXDXDXDXDXDXDXDXDXDXDXDXDXDXDXDXDXDXDXDXDXDXDXDXDXDXDXDXDXDXDXDXDXDXDXDXDXDXDXDXDXDXDXDXDXDXDXDXDXDXDXDXDXDXDXDXDX",
"DXDXDXDXDXDXDXDXDXDXDXDXDXDXDXDXDXDXDXDXDXDXDXDXDXDXDXDXDXDXDXDXDXDXDXDXDXDXDXDXDXDXDXDXDXDXDXDXDXDXDXDXDXDXDXDXDXDXDXDXDXDXDXDXDXDXDX",
"DXDXDXDXDXDXDXDXDXDXDXDXDXDXDXDXDXDXDXDXDXDXDXDXDXDXDXDXDXDXDXDXDXDXDXDXDXDXDXDXDXDXDXDXDXDXDXDXDXDXDXDXDXDXDXDXDXDXDXDXDXDXDXDXDXDXDX",
"DXDXDXDXDXDXDXDXDXDXDXDXDXDXDXDXDXDXDXDXDXDXDXDXDXDXDXDXDXDXDXDXDXDXDXDXDXDXDXDXDXDXDXDXDXDXDXDXDXDXDXDXDXDXDXDXDXDXDXDXDXDXDXDXDXDXDX"
};
