/* XPM */
static char *nave_small_2[] = {
/* columns rows colors chars-per-pixel */
"67 67 239 2 ",
"   c #000000",
".  c #010100",
"X  c #010101",
"o  c #030300",
"O  c #020202",
"+  c #030202",
"@  c #040400",
"#  c #070606",
"$  c #070707",
"%  c #0A0A00",
"&  c #0C0B00",
"*  c #0A0909",
"=  c #0C0B0B",
"-  c #0C0C0C",
";  c #0D0C0C",
":  c #0D0D0D",
">  c #111001",
",  c #141301",
"<  c #1B1901",
"1  c #1C1A01",
"2  c #1F1D01",
"3  c #131109",
"4  c #111111",
"5  c #121212",
"6  c #151313",
"7  c #151515",
"8  c #201F1F",
"9  c #312E02",
"0  c #343002",
"q  c #242117",
"w  c #262222",
"e  c #272323",
"r  c #262626",
"t  c #292727",
"y  c #2A2626",
"u  c #2A2727",
"i  c #2D2926",
"p  c #2E2A2A",
"a  c #333333",
"s  c #373232",
"d  c #373737",
"f  c #393737",
"g  c #3A3737",
"h  c #3C3535",
"j  c #3D3535",
"k  c #3C3636",
"l  c #37393A",
"z  c #373B3E",
"x  c #383838",
"c  c #393838",
"v  c #393939",
"b  c #3A3939",
"n  c #3A3A3A",
"m  c #3B3A3A",
"M  c #3B3B3B",
"N  c #3E3838",
"B  c #3C3B3B",
"V  c #3D3B3B",
"C  c #3C3C3C",
"Z  c #3D3C3C",
"A  c #3D3D3D",
"S  c #3E3C3C",
"D  c #3E3E3E",
"F  c #3F3F3F",
"G  c #7E0A0A",
"H  c #661A1A",
"J  c #601E1E",
"K  c #751010",
"L  c #403C02",
"P  c #413D03",
"I  c #5A2222",
"U  c #5C2020",
"Y  c #5C2222",
"T  c #502828",
"R  c #512828",
"E  c #512D2D",
"W  c #582B2B",
"Q  c #433131",
"!  c #403D3D",
"~  c #413E3E",
"^  c #423F3F",
"/  c #463F3F",
"(  c #5F3030",
")  c #4A4503",
"_  c #524C03",
"`  c #5C571B",
"'  c #7E7505",
"]  c #524F28",
"[  c #363D41",
"{  c #344249",
"}  c #2F4F60",
"|  c #2E5266",
" . c #2B5A74",
".. c #404040",
"X. c #414040",
"o. c #414141",
"O. c #424242",
"+. c #434242",
"@. c #434343",
"#. c #444040",
"$. c #454141",
"%. c #444242",
"&. c #464242",
"*. c #474242",
"=. c #464343",
"-. c #444444",
";. c #454444",
":. c #454545",
">. c #464444",
",. c #474545",
"<. c #464646",
"1. c #474747",
"2. c #484242",
"3. c #4A4343",
"4. c #494444",
"5. c #4A4444",
"6. c #4B4545",
"7. c #4C4545",
"8. c #4C4646",
"9. c #4D4646",
"0. c #4E4747",
"q. c #484848",
"w. c #494949",
"e. c #4A4848",
"r. c #4B4949",
"t. c #4A4A4A",
"y. c #4B4B4B",
"u. c #4D4848",
"i. c #4C4949",
"p. c #4D4A4A",
"a. c #4F4A4A",
"s. c #4E4B4B",
"d. c #4C4C4C",
"f. c #4D4D4D",
"g. c #4E4E4E",
"h. c #4F4F4F",
"j. c #514C4C",
"k. c #504D4D",
"l. c #514D4D",
"z. c #524C4C",
"x. c #514E4E",
"c. c #524E4E",
"v. c #534F4F",
"b. c #544F4F",
"n. c #505050",
"m. c #515151",
"M. c #535050",
"N. c #525151",
"B. c #525252",
"V. c #535353",
"C. c #545050",
"Z. c #555050",
"A. c #555151",
"S. c #565252",
"D. c #545454",
"F. c #555555",
"G. c #575454",
"H. c #565656",
"J. c #575757",
"K. c #585858",
"L. c #5A5A5A",
"P. c #5B5A5A",
"I. c #5B5B5B",
"U. c #5C5959",
"Y. c #5E5B5B",
"T. c #5C5C5C",
"R. c #5D5D5D",
"E. c #5F5C5C",
"W. c #5E5E5E",
"Q. c #5F5F5F",
"!. c #7C4545",
"~. c #625F5F",
"^. c #775A5A",
"/. c #606060",
"(. c #616161",
"). c #626262",
"_. c #636363",
"`. c #646262",
"'. c #656363",
"]. c #646464",
"[. c #656565",
"{. c #666464",
"}. c #666565",
"|. c #666666",
" X c #676767",
".X c #6B6666",
"XX c #686868",
"oX c #696969",
"OX c #6A6A6A",
"+X c #6B6B6B",
"@X c #6C6C6C",
"#X c #6D6D6D",
"$X c #6E6E6E",
"%X c #6F6E6E",
"&X c #6F6F6F",
"*X c #707070",
"=X c #717171",
"-X c #727272",
";X c #860505",
":X c #850606",
">X c #8B0202",
",X c #800909",
"<X c #817805",
"1X c #867D05",
"2X c #877D05",
"3X c #887F06",
"4X c #8E8406",
"5X c #908606",
"6X c #938905",
"7X c #958A06",
"8X c #9F9406",
"9X c #AB9F06",
"0X c #C2B407",
"qX c #C5B707",
"wX c #C4B608",
"eX c #CABC08",
"rX c #D2C308",
"tX c #DCCC08",
"yX c #E0D008",
"uX c #E3D308",
"iX c #E6D509",
"pX c #EBDA09",
"aX c #ECDB09",
"sX c #EFDE09",
"dX c #F0DF09",
"fX c #276485",
"gX c #246C93",
"hX c #22729D",
"jX c #2077A6",
"kX c #1A87C2",
"lX c #1496DB",
"zX c #129BE5",
"xX c #119CE7",
"cX c #119CE8",
"vX c #119DE8",
"bX c #119DE9",
"nX c #119EE9",
"mX c #119EEA",
"MX c None",
/* pixels */
"MXMXMXMXMXMXMXMXMXMXMXMXMXMXMXMXMXMXMXMXMXMXMXMXMXMXMXMXMXMXMXMXMXMXMXMXMXMXMXMXMXMXMXMXMXMXMXMXMXMXMXMXMXMXMXMXMXMXMXMXMXMXMXMXMXMXMX",
"MXMXMXMXMXMXMXMXMXMXMXMXMXMXMXMXMXMXMXMXMXMXMXMXMXMXMXMXMXMXMXMXMXMXMXMXMXMXMXMXMXMXMXMXMXMXMXMXMXMXMXMXMXMXMXMXMXMXMXMXMXMXMXMXMXMXMX",
"MXMXMXMXMXMXMXMXMXMXMXMXMXMXMXMXMXMXMXMXMXMXMXMXMXMXMXMXMXMXMXMXMXMXMXMXMXMXMXMXMXMXMXMXMXMXMXMXMXMXMXMXMXMXMXMXMXMXMXMXMXMXMXMXMXMXMX",
"MXMXMXMXMXMXMXMXMXMXMXMXMXMXMXMXMXMXMXMXMXMXMXMXMXMXMXMXMXMXMXMXMXMXMXMXMXMXMXMXMXMXMXMXMXMXMXMXMXMXMXMXMXMXMXMXMXMXMXMXMXMXMXMXMXMXMX",
"MXMXMXMXMXMXMXMXMXMXMXMXMXMXMXMXMXMXMXMXMXMXMXMXMXMXMXMXMXMXMXMXMXMXMXx MXMXMXMXMXMXMXMXMXMXMXMXMXMXMXMXMXMXMXMXMXMXMXMXMXMXMXMXMXMXMX",
"MXMXMXMXMXMXMXMXMXMXMXMXMXMXMXMXMXMXMXMXMXMXMXMXMXMXMXMXMXMXMXMXMXx x x f MXx MXMXMXMXMXMXMXMXMXMXMXMXMXMXMXMXMXMXMXMXMXMXMXMXMXMXMXMX",
"MXMXMXMXMXMXMXMXMXMXMXMXMXMXMXMXMXMXMXMXMXMXMXMXMXMXMXMXMXMXMXx x x k I G J x x MXMXMXMXMXMXMXMXMXMXMXMXMXMXMXMXMXMXMXMXMXMXMXMXMXMXMX",
"MXMXMXMXMXMXMXMXMXMXMXMXMXMXMXMXMXMXx MXMXMXMXMXMXMXMXMXd x x x D ( :X>X>XG MXMXMXMXMXMXMXMXMXMXMXMXMXMXMXMXMXMXMXMXMXMXMXMXMXMXMXMXMX",
"MXMXMXMXMXMXMXMXMXMXMXMXMXMXMXMXMXMXx x MXx MXMXMXMXd x x x @.T.*X^.>X,XU h MXMXMXMXMXMXMXMXMXMXMXMXMXMXMXMXMXMXMXMXMXMXMXMXMXMXMXMXMX",
"MXMXMXMXMXMXMXMXMXMXMXMXMXMXMXMXMXMXx x x x v MXx x x v w._.-X-X-X[.E f x x MXMXMXMXMXMXMXMXMXMXMXMXMXMXMXMXMXMXMXMXMXMXMXMXMXMXMXMXMX",
"MXMXMXMXMXMXMXMXMXMXMXMXMXMXMXMXMXMXMXx x B.@X:.x n h.oX-X-X=XW.:.x x x x MXMXMXMXMXMXMXMXMXMXMXMXMXMXMXMXMXMXMXMXMXMXMXMXMXMXMXMXMXMX",
"MXMXMXMXMXMXMXMXMXMXMXMXMXMXMXMXMXMXMXx x T.-XW.x A *X-X%XK.F x x x x MXMXMXMXMXMXMXMXMXMXMXMXMXMXMXMXMXMXMXMXMXMXMXMXMXMXMXMXMXMXMXMX",
"MXMXMXMXMXMXMXMXMXMXMXMXMXMXMXMXMXMXMXMXx @.-X=XF x F.B.M x x x MXMXMXMXMXMXMXMXMXMXMXMXMXMXMXMXMXMXMXMXMXMXMXMXMXMXMXMXMXMXMXMXMXMXMX",
"MXMXMXMXMXMXMXMXMXMXMXMXMXMXMXMXMXMXMXMXx x _.-XK.x x x x x MXMXMXMXMXMXMXMXMXMXMXMXMXMXMXMXMXMXMXMXMXMXMXMXMXMXMXMXMXMXMXMXMXMXMXMXMX",
"MXMXMXMXMXMXMXMXMXMXMXMXMXMXMXMXMXMXMXMXd x w.-X%XM x x x MXMXMXMXMXMXMXMXMXMXMXMXMXMXMXMXMXMXMXMXMXMXMXMXMXMXMXMXMXMXMXMXMXMXMXMXMXMX",
"MXMXMXMXMXMXMXMXMXMXMXMXMXMXMXMXMXMXMXMXMXx c XX-XB.x x x x MXMXMXMXMXMXMXMXMXMXMXMXMXMXMXMXMXMXMXMXMXMXMXMXMXMXMXMXMXMXMXMXMXMXMXMXMX",
"MXMXMXMXMXMXMXMXMXMXMXMXMXMXMXMXMXMXMXMXMXx x h.-X+Xv M A x MXMXMXMXMXMXMXMXMXMXMXMXMXMXMXMXMXMXMXMXMXMXMXMXMXMXMXMXMXMXMXMXMXMXMXMXMX",
"MXMXMXMXMXMXMXMXMXMXMXMXMXMXMXMXMXMXMXMXMXMXx n #X-XQ.$XT.x x MXx MXMXMXMXMXMXMXMXMXMXMXMXMXMXMXMXMXMXMXMXMXMXMXMXMXMXMXMXMXMXMXMXMXMX",
"MXMXMXMXMXMXMXMXMXMXMXMXMXMXMXMXMXMXMXMXMXMXx x H.-X-X-X*XD x x x x MXx MXMXMXMXMXMXMXMXMXMXMXMXMXMXMXMXMXMXMXMXMXMXMXMXMXMXMXMXMXMXMX",
"MXMXMXMXMXMXMXMXMXMXMXMXMXMXMXMXMXMXMXMXMXMXMXx D *X-X-X-XH.x Z x x x x MXMXMXMXMXMXMXx x MXMXMXx x MXMXMXMXMXMXMXMXMXMXMXMXMXMXMXMXMX",
"MXMXMXMXMXMXMXMXMXMXMXMXMXMXMXMXMXMXMXMXMXMXMXx x T.-X-X-X}.s.S.F x x x x x x MXx x x x x x x x x x x x x MXMXMXMXMXMXMXMXMXMXMXMXMXMX",
"MXMXMXMXMXMXMXMXMXMXMXMXMXMXMXMXMXMXMXMXMXMXMXMXx @.-X-XY.S.S.S.>.x x x x S *.#.x x B $.m x x ..m.x x x x MXx x MXMXMXMXMXMXMXMXMXMXMX",
"MXMXMXMXMXMXMXMXMXMXMXMXMXMXMXMXMXMXMXMXMXMXMXMXx x ).-X{.S.A.Z x x v +.k.b.9.6.V 2.9.9.$.<./.=X-X@.O.w.x x x x MXMXMXMXMXMXMXMXMXMXMX",
"MXMXMXMXMXMXMXMXMXMXMXMXMXMXMXMXMXMXMXMXMXMXMXMXd x w.%X~.S.S.X.n >.v.S.S.c.p = y 9.7.9.0.%X-X-X-X#X-X@Xb x x x MXMXMXMXMXMXMXMXMXMXMX",
"MXMXMXMXMXMXMXMXMXMXMXMXMXMXMXMXMXMXMXMXMXMXMXMXMXx c c.S.S.x.;.A.S.S.p.t $     3 i * N 9.E.-X-X-X-X-X-Xf.x x x MXMXMXMXMXMXMXMXMXMXMX",
"MXMXMXMXMXMXMXMXMXMXMXMXMXMXMXMXMXMXMXMXMXMXMXMXx x x %.s.X.c x k.S.g +     , _ 3X0   q e 5 %X-X-X-X-X-X Xx x MXMXMXMXMXMXMXMXMXMXMXMX",
"MXMXMXMXMXMXMXMXMXMXMXMXMXMXMXMXMXMXMXMXMXMXMXMXx v x x x x x S u.S.p.+   ) 4X5X5X2X6XuX1   1.-X-X-X-X$XH.b x MXMXMXMXMXMXMXMXMXMXMXMX",
"MXMXMXMXMXMXMXMXMXMXMXMXMXMXMXMXMXMXMXMXMXMXMXMXV.+X-.x v ~ 5.9.9.A.S.8   9 5X5XrXsXdXdX<X  7 =X-X-X-Xm.x x x MXMXMXMXMXMXMXMXMXMXMXMX",
"MXMXMXMXMXMXMXMXMXMXMXMXMXMXMXMXMXMXMXMXMXMXMXx R.-XR.x b 8.9.9.9.j.S.=.X o ' 5XeXdXdXdXyX& X L.-X-X-XoXv x MXMXMXMXMXMXMXMXMXMXMXMXMX",
"MXMXMXMXMXMXMXMXMXMXMXMXMXMXMXMXMXMXMXMXMXMXMXx f.-X=XF x $.9.9.9.0.Z.z.6   P 7XwXdXdXdXpX` T.-X-X=X(.1.x x MXMXMXMXMXMXMXMXMXMXMXMXMX",
"MXMXMXMXMXMXMXMXMXMXMXMXMXMXMXMXMXMXMXMXMXMXMX(.-X-X-XJ.x B 9.9.9.9.9.9.s   % tXdXdXdX0X< 4 =X-XQ.o.x x x x MXMXMXMXMXMXMXMXMXMXMXMXMX",
"MXMXMXMXMXMXMXMXMXMXMXMXMXMXMXMXMXMXMXMXMXx x I.-X-X-X$XM x *.9.9.9.9.9.7.;   1XdXdXdXiX> - ).-XI.x x MXMXMXMXMXMXMXMXMXMXMXMXMXMXMXMX",
"MXMXMXMXMXMXMXMXMXMXMXMXMXMXMXmXnXMXMXMXx x x o.-X-X-X-Xm.x S 9.9.9.9.9.9.p   2 aXdXdXqX] &X-X-XXXv x MXMXMXMXMXMXMXMXMXMXMXMXMXMXMXMX",
"MXMXMXMXMXMXMXMXMXMXMXMXMXMXMXxXMXMXMXMXx x x x (.-X-X-XOXv x 4.9.9.9.9.9.3.#   8X9XL . : *X[.y.v x x MXMXMXMXMXMXMXMXMXMXMXMXMXMXMXMX",
"MXMXMXMXMXMXMXMXMXMXMXMXMXMXmXMXMXMXMXMXx x x x 1.-X-X-X-Xt.x ! 9.9.9.9.9.9.w   @     O r d.x x x x MXMXMXMXMXMXMXMXMXMXMXMXMXMXMXMXMX",
"MXMXMXMXMXMXMXMXMXMXMXMXMXMXmXmXMXMXMXMXMX| jXl x  X-X-X-X].x v 6.9.9.9.9.9./ +   $ a ].-X Xx MXMXMXMXMXMXMXMXMXMXMXMXMXMXMXMXMXMXMXMX",
"MXMXMXMXMXMXMXMXMXMXmXmXMXMXvXmXMXMXMXMXz lXmX .x g.-X-X-X-X-.x ^ 9.9.9.9.9.9.u F +X-X-X#XH.MXMXMXMXMXMXMXMXMXMXMXMXMXMXMXMXMXMXMXMXMX",
"MXMXMXMXMXMXMXMXMXMXmXvXMXMXMXmXmXMXMXx x gXmXkXx b @X-X-X-XW.x b 8.9.9.9.a.'.=X-X-XoXh.n x x MXMXMXMXMXMXMXMXMXMXMXMXMXMXMXMXMXMXMXMX",
"MXMXMXMXMXMXMXMXMXMXMXMXMXMXMXbXmXMXMXMXx { zXmX} x D.-X-X-X=XF x $.9.&.V C &X-X_.w.v x x x MXMXMXMXMXMXMXMXMXMXMXMXMXMXMXMXMXMXMXMXMX",
"MXMXMXMXMXMXMXMXMXmXmXMXMXMXMXMXmXmXMXMXx x hXfX[ x C *X-X-X-XK.x n m x x v N.@.x x x x x MXMXMXMXMXMXMXMXMXMXMXMXMXMXMXMXMXMXMXMXMXMX",
"MXMXMXMXMXMXMXMXMXmXmXMXMXMXMXMXnXmXMXMXMXMXMXx x x x P.-X-X-X%XM x x n >.v.c.c v n x x x x MXMXMXMXMXMXMXMXMXMXMXMXMXMXMXMXMXMXMXMXMX",
"MXMXMXMXMXmXmXMXMXMXmXmXMXMXMXMXcXmXmXMXMXMXMXx x x x o.|.d.oX-Xm.x Z A.S.S.S.i.C.e.x x MXMXMXMXMXMXMXMXMXMXMXMXMXMXMXMXMXMXMXMXMXMXMX",
"MXMXMXMXMXMXMXMXMXMXmXmXMXMXMXMXMXnXmXMXMXMXMXMXx x x MXx x n._.1.x x l.S.S.S.S.S.l.c x MXMXMXMXMXMXMXMXMXMXMXMXMXMXMXMXMXMXMXMXMXMXMX",
"MXMXMXMXmXbXMXMXMXMXMXmXmXMXMXMXMXbXmXMXMXMXMXMXMXMXMXMXMXMXMXx x x x %.S.S.S.U.r.c x x d MXMXMXMXMXMXMXMXMXMXMXMXMXMXMXMXMXMXMXMXMXMX",
"MXMXMXMXmXmXMXMXMXMXMXmXmXMXMXMXMXMXmXmXMXMXMXMXMXMXMXMXMXMXMXMXd MXx v M.S.`.-XR.x x MXMXMXMXMXMXMXMXMXMXMXMXMXMXMXMXMXMXMXMXMXMXMXMX",
"MXMXMXMXMXmXvXMXMXMXMXmXmXMXMXMXMXMXmXmXMXnXbXMXMXMXMXMXMXMXMXMXMXMXx x ,.S.U.-X=XF x MXMXMXMXMXMXMXMXx x x x MXMXMXMXMXMXMXMXMXMXMXMX",
"MXMXMXMXMXmXmXMXmXMXMXMXMXMXmXmXMXMXMXMXMXmXmXMXMXMXMXMXMXMXMXMXMXMXMXx m G.`.=X-XJ.x x MXMXMXMXMXx x x c R K T x MXMXMXMXMXMXMXMXMXMX",
"MXMXMXMXMXMXMXMXmXmXMXMXMXMXMXMXMXMXMXMXMXMXMXMXMXMXMXMXMXMXMXMXMXMXMXx x P.-X-X+Xn.x x MXMXMXx x x n W G >X>XK x MXMXMXMXMXMXMXMXMXMX",
"MXMXMXMXMXMXMXMXMXMXMXMXMXMXMXMXMXMXMXMXMXMXMXMXMXMXMXMXMXMXMXMXMXMXMXMXx O.=X-XO.x x x x x x x D H.#X!.>X;XH Q MXMXMXMXMXMXMXMXMXMXMX",
"MXMXMXMXMXMXMXMXMXMXMXMXMXMXMXMXMXMXMXMXMXMXMXMXMXMXMXMXMXMXMXMXMXMXMXMXx x (.-XL.x x x x x @.T.*X-X-X.XY j x x MXMXMXMXMXMXMXMXMXMXMX",
"MXMXMXMXMXMXMXMXMXMXMXMXMXMXMXMXMXMXMXMXMXMXMXMXMXMXMXMXMXMXMXMXMXMXMXMXMXx 1.-X&XC x c w._.-X-X-X[.y.v x x x MXMXMXMXMXMXMXMXMXMXMXMX",
"MXMXMXMXMXMXMXMXMXMXMXMXMXMXMXMXMXMXMXMXMXMXMXMXMXMXMXMXMXMXMXMXMXMXMXMXMXx x  X-XV.x :.-X-X=XQ.:.x x x x MXMXMXMXMXMXMXMXMXMXMXMXMXMX",
"MXMXMXMXMXMXMXMXMXMXMXMXMXMXMXMXMXMXMXMXMXMXMXMXMXMXMXMXMXMXMXMXMXMXMXMXMXx x g.-X@Xb x ).K...x x x MXMXMXMXMXMXMXMXMXMXMXMXMXMXMXMXMX",
"MXMXMXMXMXMXMXMXMXMXMXMXMXMXMXMXMXMXMXMXMXMXMXMXMXMXMXMXMXMXMXMXMXMXMXMXMXMXx n @X-Xf.x x x x x MXMXMXMXMXMXMXMXMXMXMXMXMXMXMXMXMXMXMX",
"MXMXMXMXMXMXMXMXMXMXMXMXMXMXMXMXMXMXMXMXMXMXMXMXMXMXMXMXMXMXMXMXMXMXMXMXMXMXx x D.-X Xx x x MXMXMXMXMXMXMXMXMXMXMXMXMXMXMXMXMXMXMXMXMX",
"MXMXMXMXMXMXMXMXMXMXMXMXMXMXMXMXMXMXMXMXMXMXMXMXMXMXMXMXMXMXMXMXMXMXMXMXMXMXMXx A *X-Xq.MXMXMXMXMXMXMXMXMXMXMXMXMXMXMXMXMXMXMXMXMXMXMX",
"MXMXMXMXMXMXMXMXMXMXMXMXMXMXMXMXMXMXMXMXMXMXMXMXMXMXMXMXMXMXMXMXMXMXMXMXMXMXMXx x g.@.x MXMXMXMXMXMXMXMXMXMXMXMXMXMXMXMXMXMXMXMXMXMXMX",
"MXMXMXMXMXMXMXMXMXMXMXMXMXMXMXMXMXMXMXMXMXMXMXMXMXMXMXMXMXMXMXMXMXMXMXMXMXMXMXMXx x x x MXMXMXMXMXMXMXMXMXMXMXMXMXMXMXMXMXMXMXMXMXMXMX",
"MXMXMXMXMXMXMXMXMXMXMXMXMXMXMXMXMXMXMXMXMXMXMXMXMXMXMXMXMXMXMXMXMXMXMXMXMXMXMXMXx x d MXMXMXMXMXMXMXMXMXMXMXMXMXMXMXMXMXMXMXMXMXMXMXMX",
"MXMXMXMXMXMXMXMXMXMXMXMXMXMXMXMXMXMXMXMXMXMXMXMXMXMXMXMXMXMXMXMXMXMXMXMXMXMXMXMXMXx x MXMXMXMXMXMXMXMXMXMXMXMXMXMXMXMXMXMXMXMXMXMXMXMX",
"MXMXMXMXMXMXMXMXMXMXMXMXMXMXMXMXMXMXMXMXMXMXMXMXMXMXMXMXMXMXMXMXMXMXMXMXMXMXMXMXMXx d MXMXMXMXMXMXMXMXMXMXMXMXMXMXMXMXMXMXMXMXMXMXMXMX",
"MXMXMXMXMXMXMXMXMXMXMXMXMXMXMXMXMXMXMXMXMXMXMXMXMXMXMXMXMXMXMXMXMXMXMXMXMXMXMXMXMXMXMXMXMXMXMXMXMXMXMXMXMXMXMXMXMXMXMXMXMXMXMXMXMXMXMX",
"MXMXMXMXMXMXMXMXMXMXMXMXMXMXMXMXMXMXMXMXMXMXMXMXMXMXMXMXMXMXMXMXMXMXMXMXMXMXMXMXMXMXMXMXMXMXMXMXMXMXMXMXMXMXMXMXMXMXMXMXMXMXMXMXMXMXMX",
"MXMXMXMXMXMXMXMXMXMXMXMXMXMXMXMXMXMXMXMXMXMXMXMXMXMXMXMXMXMXMXMXMXMXMXMXMXMXMXMXMXMXMXMXMXMXMXMXMXMXMXMXMXMXMXMXMXMXMXMXMXMXMXMXMXMXMX",
"MXMXMXMXMXMXMXMXMXMXMXMXMXMXMXMXMXMXMXMXMXMXMXMXMXMXMXMXMXMXMXMXMXMXMXMXMXMXMXMXMXMXMXMXMXMXMXMXMXMXMXMXMXMXMXMXMXMXMXMXMXMXMXMXMXMXMX",
"MXMXMXMXMXMXMXMXMXMXMXMXMXMXMXMXMXMXMXMXMXMXMXMXMXMXMXMXMXMXMXMXMXMXMXMXMXMXMXMXMXMXMXMXMXMXMXMXMXMXMXMXMXMXMXMXMXMXMXMXMXMXMXMXMXMXMX",
"MXMXMXMXMXMXMXMXMXMXMXMXMXMXMXMXMXMXMXMXMXMXMXMXMXMXMXMXMXMXMXMXMXMXMXMXMXMXMXMXMXMXMXMXMXMXMXMXMXMXMXMXMXMXMXMXMXMXMXMXMXMXMXMXMXMXMX"
};
