/* XPM */
static char *nave_small_11[] = {
/* columns rows colors chars-per-pixel */
"67 67 236 2 ",
"   c #000000",
".  c #010101",
"X  c #020200",
"o  c #030303",
"O  c #050404",
"+  c #050505",
"@  c #060606",
"#  c #0B0A00",
"$  c #0C0B00",
"%  c #0D0D00",
"&  c #0B0B0B",
"*  c #0C0B0B",
"=  c #0F0E0E",
"-  c #0F0F0F",
";  c #151401",
":  c #1B1901",
">  c #141212",
",  c #171515",
"<  c #1A1A1A",
"1  c #1C1919",
"2  c #211F01",
"3  c #2A2702",
"4  c #393502",
"5  c #24211C",
"6  c #222222",
"7  c #242121",
"8  c #252222",
"9  c #272424",
"0  c #272727",
"q  c #2C2828",
"w  c #342F2F",
"e  c #333030",
"r  c #323232",
"t  c #333333",
"y  c #373535",
"u  c #3A3535",
"i  c #393737",
"p  c #3C3737",
"a  c #383837",
"s  c #373B3E",
"d  c #383838",
"f  c #393939",
"g  c #3A3939",
"h  c #3A3A3A",
"j  c #3B3A3A",
"k  c #3B3B3B",
"l  c #3C3A3A",
"z  c #3C3B3B",
"x  c #3D3B3B",
"c  c #3E3B3B",
"v  c #3C3C3C",
"b  c #3D3C3C",
"n  c #3D3D3D",
"m  c #3E3C3C",
"M  c #3F3C3C",
"N  c #3E3D3D",
"B  c #3E3E3E",
"V  c #3F3E3E",
"C  c #3F3F3F",
"Z  c #770F0F",
"A  c #6F1414",
"S  c #6E1515",
"D  c #6F1515",
"F  c #661A1A",
"G  c #4C2B2B",
"H  c #552525",
"J  c #562525",
"K  c #5D2020",
"L  c #5C2121",
"P  c #5E2020",
"I  c #542828",
"U  c #423131",
"Y  c #403D3D",
"T  c #413E3E",
"R  c #413F3F",
"E  c #423F3F",
"W  c #433F3F",
"Q  c #443E3E",
"!  c #732525",
"~  c #494404",
"^  c #514B03",
"/  c #4C4610",
"(  c #6A6304",
")  c #6E6705",
"_  c #706804",
"`  c #7C7405",
"'  c #6C6510",
"]  c #34444C",
"[  c #314A57",
"{  c #2F5063",
"}  c #295F7C",
"|  c #404040",
" . c #414040",
".. c #414141",
"X. c #434040",
"o. c #424141",
"O. c #424242",
"+. c #434343",
"@. c #444040",
"#. c #454040",
"$. c #464141",
"%. c #444242",
"&. c #454242",
"*. c #474242",
"=. c #474343",
"-. c #454444",
";. c #454545",
":. c #474545",
">. c #454646",
",. c #464646",
"<. c #474747",
"1. c #484343",
"2. c #494343",
"3. c #484545",
"4. c #4A4444",
"5. c #4B4545",
"6. c #4B4646",
"7. c #4A4747",
"8. c #4C4545",
"9. c #4D4646",
"0. c #4D4747",
"q. c #484848",
"w. c #494949",
"e. c #4B4949",
"r. c #4B4B4B",
"t. c #4E4848",
"y. c #4F4848",
"u. c #4F4949",
"i. c #4D4A4A",
"p. c #4F4A4A",
"a. c #4F4B4B",
"s. c #4C4C4C",
"d. c #4D4D4D",
"f. c #4E4C4C",
"g. c #4E4E4E",
"h. c #4F4F4F",
"j. c #5C4444",
"k. c #504A4A",
"l. c #504B4B",
"z. c #504C4C",
"x. c #504D4D",
"c. c #514D4D",
"v. c #534D4D",
"b. c #524F4F",
"n. c #505050",
"m. c #515151",
"M. c #535050",
"N. c #525252",
"B. c #535353",
"V. c #545050",
"C. c #555151",
"Z. c #565151",
"A. c #555252",
"S. c #565252",
"D. c #575353",
"F. c #545454",
"G. c #555555",
"H. c #565656",
"J. c #575757",
"K. c #5A5050",
"L. c #585555",
"P. c #5A5555",
"I. c #5A5656",
"U. c #585858",
"Y. c #595959",
"T. c #5A5A5A",
"R. c #5B5B5B",
"E. c #5C5C5C",
"W. c #5D5D5D",
"Q. c #5F5C5C",
"!. c #5E5E5E",
"~. c #5F5F5F",
"^. c #785959",
"/. c #606060",
"(. c #616161",
"). c #636161",
"_. c #626262",
"`. c #646262",
"'. c #656262",
"]. c #646464",
"[. c #656565",
"{. c #676565",
"}. c #676767",
"|. c #686666",
" X c #686868",
".X c #6A6A6A",
"XX c #6B6B6B",
"oX c #6C6C6C",
"OX c #6D6C6C",
"+X c #6D6D6D",
"@X c #6E6E6E",
"#X c #6F6E6E",
"$X c #6F6F6F",
"%X c #706F6F",
"&X c #707070",
"*X c #717171",
"=X c #727272",
"-X c #727373",
";X c #8B0202",
":X c #880404",
">X c #800909",
",X c #820808",
"<X c #871212",
"1X c #837A05",
"2X c #897F05",
"3X c #897F06",
"4X c #8A8105",
"5X c #908606",
"6X c #918706",
"7X c #928805",
"8X c #958A06",
"9X c #978D06",
"0X c #9A9006",
"qX c #A29706",
"wX c #A79C07",
"eX c #B6A907",
"rX c #BCAF07",
"tX c #B0A409",
"yX c #D3C508",
"uX c #D8C908",
"iX c #DACB08",
"pX c #DDCD08",
"aX c #ECDC09",
"sX c #F0DF09",
"dX c #F1E009",
"fX c #256A8F",
"gX c #246C93",
"hX c #22719A",
"jX c #2077A6",
"kX c #1C82B9",
"lX c #1A86C0",
"zX c #119DE7",
"xX c #119EEA",
"cX c #119EEB",
"vX c #119FEB",
"bX c None",
/* pixels */
"bXbXbXbXbXbXbXbXbXbXbXbXbXbXbXbXbXbXbXbXbXbXbXbXbXbXbXbXbXbXbXbXbXbXbXbXbXbXbXbXbXbXbXbXbXbXbXbXbXbXbXbXbXbXbXbXbXbXbXbXbXbXbXbXbXbXbX",
"bXbXbXbXbXbXbXbXbXbXbXbXbXbXbXbXbXbXbXbXbXbXbXbXbXbXbXbXbXbXbXbXbXbXbXbXbXbXbXbXbXbXbXbXbXbXbXbXbXbXbXbXbXbXbXbXbXbXbXbXbXbXbXbXbXbXbX",
"bXbXbXbXbXbXbXbXbXbXbXbXbXbXbXbXbXbXbXbXbXbXbXbXbXbXbXbXbXbXbXbXbXbXbXbXbXbXbXbXbXbXbXbXbXbXbXbXbXbXbXbXbXbXbXbXbXbXbXbXbXbXbXbXbXbXbX",
"bXbXbXbXbXbXbXbXbXbXbXbXbXbXbXbXbXbXbXbXbXbXbXbXbXbXbXbXbXbXd d bXbXbXbXbXbXbXbXbXbXbXbXbXbXbXbXbXbXbXbXbXbXbXbXbXbXbXbXbXbXbXbXbXbXbX",
"bXbXbXbXbXbXbXbXbXbXbXbXbXbXbXbXbXbXbXbXbXbXbXbXbXbXbXbXbXbXd d bXbXbXbXbXbXbXbXbXbXbXbXbXbXbXbXbXbXbXbXbXbXbXbXbXbXbXbXbXbXbXbXbXbXbX",
"bXbXbXbXbXbXbXbXbXbXbXbXbXbXbXbXbXbXbXbXbXbXbXbXbXbXbXbXbXd d d bXbXbXbXbXbXbXbXbXbXbXbXbXbXbXbXbXbXbXbXbXbXbXbXbXbXbXbXbXbXbXbXbXbXbX",
"bXbXbXbXbXbXbXbXbXbXbXbXbXbXbXbXbXbXbXbXbXbXbXbXbXbXbXbXd d d d bXbXbXbXbXbXbXbXbXbXbXbXbXbXbXbXbXbXbXbXbXbXbXbXbXbXbXbXbXbXbXbXbXbXbX",
"bXbXbXbXbXbXbXbXbXbXbXbXbXbXbXbXbXbXbXbXbXbXbXbXbXbXbXbXbX Xh.d bXbXbXbXbXbXbXbXbXbXbXbXbXbXbXbXbXbXbXbXbXbXbXbXbXbXbXbXbXbXbXbXbXbXbX",
"bXbXbXbXbXbXbXbXbXbXbXbXbXbXbXbXbXbXbXd bXd d d d d d d Y.=XJ.d bXbXbXbXbXbXbXbXbXbXbXbXbXbXbXbXbXbXbXbXbXbXbXbXbXbXbXbXbXbXbXbXbXbXbX",
"bXbXbXbXbXbXbXbXbXbXbXbXbXbXd d d d d d d d f n +.w.O.d B.=XW.d d bXbXbXbXbXbXbXbXbXbXbXbXbXbXbXbXbXbXbXbXbXbXbXbXbXbXbXbXbXbXbXbXbXbX",
"bXbXbXbXbXbXbXbXbXbXbXbXbXbXU G H P K.!.[.XX&X=X=X=XU.d s.=X].d d bXbXbXbXbXbXbXbXbXbXbXbXbXbXbXbXbXbXbXbXbXbXbXbXbXbXbXbXbXbXbXbXbXbX",
"bXbXbXbXbXbXbXbXbXbXbXbXd i :X;X;X;X^.=X=X=X=X*X+X}.B.d ,.=X.Xd d bXbXbXbXbXbXbXbXbXbXbXbXbXbXbXbXbXbXbXbXbXbXbXbXbXbXbXbXbXbXbXbXbXbX",
"bXbXbXbXbXbXbXbXbXbXbXbXd d ,X>XZ S j.N.s.>.C h d d d d | =X$Xf d bXbXbXbXbXbXbXbXbXbXbXbXbXbXbXbXbXbXbXbXbXbXbXbXbXbXbXbXbXbXbXbXbXbX",
"bXbXbXbXbXbXbXbXbXbXbXbXbXbXbXd d d d d d d d d d d d d k *X=Xv d bXbXbXbXbXbXbXbXbXbXbXbXbXbXbXbXbXbXbXbXbXbXbXbXbXbXbXbXbXbXbXbXbXbX",
"bXbXbXbXbXbXbXbXbXbXbXbXbXbXbXd d d bXbXbXbXbXbXbXd d d d @X=XO.d bXbXbXbXbXbXbXbXbXbXbXbXbXbXbXbXbXbXbXbXbXbXbXbXbXbXbXbXbXbXbXbXbXbX",
"bXbXbXbXbXbXbXbXbXbXbXbXbXbXbXbXbXbXbXbXbXbXbXbXbXd d O.w.oX=Xq.d bXbXbXbXbXbXbXbXbXbXbXbXbXbXbXbXbXbXbXbXbXbXbXbXbXbXbXbXbXbXbXbXbXbX",
"bXbXbXbXbXbXbXbXbXbXbXbXbXbXbXbXbXbXbXbXbXbXbXbXbXd d  X=X=X=Xg.d bXbXbXbXbXbXbXbXbXbXbXbXbXbXbXbXbXbXbXbXbXbXbXbXbXbXbXbXbXbXbXbXbXbX",
"bXbXbXbXbXbXbXbXbXbXbXbXbXbXbXbXbXbXbXbXbXbXbXbXbXd d _.=XOX{.f.d bXbXbXbXbXbXbXbXbXbXbXbXbXbXbXbXbXbXbXbXbXbXbXbXbXbXbXbXbXbXbXbXbXbX",
"bXbXbXbXbXbXbXbXbXbXbXbXbXbXbXbXbXbXbXbXbXbXbXbXd d d E.=X`.S.7.d d bXbXbXbXbXbXbXbXbXbXbXbXbXbXbXbXbXbXbXbXbXbXbXbXbXbXbXbXbXbXbXbXbX",
"bXbXbXbXbXbXbXbXbXbXbXbXbXbXbXbXbXbXbXbXbXbXbXbXd d d G.%X`.S.i.d d bXbXbXbXbXbXbXbXbXbXbXbXbXbXbXbXbXbXbXbXbXbXbXbXbXbXbXbXbXbXbXbXbX",
"bXbXbXbXbXbXbXbXbXbXbXbXbXbXbXbXbXbXbXbXbXbXbXd d %.b.A.S.S.S.x.d d bXbXbXbXbXbXbXbXbXbXbXbXbXbXbXbXbXbXbXbXbXbXbXbXbXbXbXbXbXbXbXbXbX",
"bXbXbXbXbXbXbXbXbXbXbXbXbXbXbXbXbXbXbXbXbXbXd d d %.S.S.S.S.S.M.d d bXbXbXbXbXbXbXbXbXbXbXbXbXbXbXbXbXbXbXbXbXbXbXbXbXbXbXbXbXbXbXbXbX",
"bXbXbXbXbXbXbXbXbXbXbXbXbXbXbXbXbXbXbXbXbXbXd d d k V  .S.S.S.A.f d d d bXbXbXbXbXbXbXbXbXbXbXbXbXbXbXbXbXbXbXbXbXbXbXbXbXbXbXbXbXbXbX",
"bXbXbXbXbXbXbXbXbXbXbXbXbXbXbXbXbXbXbXbXd d d d d d d j S.A.V.c.h d g.R.bXd bXbXbXbXbXbXbXxXxXbXbXbXbXbXbXbXbXbXbXbXbXbXbXbXbXbXbXbXbX",
"bXbXbXbXbXbXbXbXbXbXbXbXbXbXbXbXbXbXbXbXk | ,.s.N.U.!.].N g d d d d ~.=Xm.d bXbXbXbXbXbXbXbXbXbXcXbXbXcXxXbXbXbXbXbXbXbXbXbXbXbXbXbXbX",
"bXbXbXbXbXbXbXbXbXbXbXbXbXbXbXbXbXbXd r.*X=X=X=X=X=X=X=XC d d g f d Y.=X}.(.bXd d d d bXbXbXbXxXxXbXbXbXxXbXbXbXbXbXxXbXbXbXbXbXbXbXbX",
"bXbXbXbXbXbXbXbXbXbXbXbXbXbXd d d d d +.=X+X].U.s.| L.P.6.4.8.9.T d B.=X=X=X].d d d d bXbXbXbXxXxXbXbXbXbXbXxXbXbXbXxXxXbXbXbXbXbXbXbX",
"bXbXbXbXbXbXbXbXbXbXbXbXbXbXd C G.R.(./.& o         p 9.9.9.9.9.W d d.=X=X=X.Xd d d d bXbXbXbXbXxXbXbXbXbXbXxXbXbXbXbXbXbXcXbXbXbXbXbX",
"bXbXbXbXbXbXbXbXbXbXd d d d d +.=X=X=X&X+ X $ 2 %   w 9.9.9.9.9.$.d ,.=X=X=X$Xf d d s bXbXbXbXbXxXbXbXbXbXbXxXxXbXbXbXbXxXxXbXbXbXbXbX",
"bXbXbXbXbXbXbXbXbXbXd d f n +.d.=X*Xr 6 tXpXaXdX^   q 9.9.9.9.9.1.d | =X=X=X=Xv a lXzX{ d bXbXbXxXbXbXbXbXbXxXxXbXbXbXbXcXxXbXbXbXbXbX",
"bXbXbXbXbXbXbXbXbXbXd O.&X=X=X=X=X=X-   rXsXsXsX(   7 9.9.9.9.9.4.d k *X=X=X=XO.d kXxX} d bXbXbXxXbXbXbXbXbXxXxXbXbXbXbXbXxXbXbXbXbXbX",
"bXbXbXbXbXbXbXbXd d d n =X=X=X=XH.,.' 8XiXsXsXsX1X  1 9.9.9.9.9.8.d d @X=X=X=Xq.d jXxXfXd bXbXbXxXxXbXbXbXbXxXxXbXbXbXbXbXbXbXbXbXbXbX",
"bXbXbXbXbXbXbXbXd j !.[.=X=X=X=X<   qXsXsXsXsXsX0X  > 9.9.9.9.9.9.g d  X=X=X=Xg.d gXcXhXd bXbXbXxXcXbXbXbXbXxXxXbXbXbXxXbXbXbXbXbXbXbX",
"bXbXbXbXbXbXd d d f &X=X=X=X=X=X0   2XsXsXsXyX9X)   * 9.9.9.9.9.9.l d _.=X=X=XF.d ] [ bXbXbXbXbXxXxXbXbXbXbXbXxXbXbXbXbXbXbXbXbXbXbXbX",
"bXbXbXbXbXbXd d d d XX=X=X=X=X=Xt   _ sXsXsXuX5X`   O t.k.0.9.9.9.m d E.=X=X=XT.d d d bXbXbXbXbXxXxXbXbXbXxXbXbXbXbXbXbXbXbXbXbXbXbXbX",
"bXbXbXbXbXbXd d d d [.=X=X=X=X=XO.= / 7X4XeXwX5X3XX . z.S.y.9.9.9.Y d H.=X=X=X/.d d d d bXbXbXbXbXxXbXbXbXxXbXbXbXbXbXbXbXbXbXbXbXbXbX",
"bXbXbXbXbXbXbXd d d d.N.(.=X=X=X'.9.u   ; 6X5X5X5X#   3.S.u.9.9.9.E d n.=X=X=X}.d d d d bXbXbXbXbXbXbXbXbXbXbXbXbXbXbXbXbXbXbXbXbXbXbX",
"bXbXbXbXbXbXbXbXbXd d d B.=X=X=X|.9.Q , 5 ~ 4 3 : X   M S.l.9.9.9.@.d w.=X*X X(.bXbXbXbXbXbXvXvXbXbXbXbXbXbXbXbXbXbXbXbXbXbXbXbXbXbXbX",
"bXbXbXbXbXbXbXbXbXbXbXd ..s.>.C b 9.9.9.9.@         . y S.p.$.X.T x d +.=X+Xd d bXbXbXbXbXbXbXxXbXbXbXbXbXbXbXbXbXbXbXbXbXbXbXbXbXbXbX",
"bXbXbXbXbXbXbXbXbXbXbXd d d d d f 8.5.2.*.8 9 e c =.a.C.S.7.d d d d d n =X&Xg d bXbXbXbXbXbXbXbXbXbXbXbXbXbXbXbXbXbXbXbXbXbXbXbXbXbXbX",
"bXbXbXbXbXbXbXbXbXbXbXbXbXbXbXd d f d d d *.9.v.S.S.S.S.C.e.V o.-.:.d f C j bXbXbXbXbXbXbXbXbXbXbXbXbXbXbXbXbXbXbXbXbXbXbXbXbXbXbXbXbX",
"bXbXbXbXbXbXbXbXbXbXbXbXbXbXbXd d d d d d bX#.&.%.R n h f N S.S.S.A.f d d d bXbXbXbXbXbXbXbXbXbXbXbXbXbXbXbXbXbXbXbXbXbXbXbXbXbXbXbXbX",
"bXbXbXbXbXbXbXbXbXbXbXbXbXbXbXbXbXbXbXbXbXbXd d d d d d d z S.S.Q.).n d bXbXbXbXbXbXbXbXbXbXbXbXbXbXbXbXbXbXbXbXbXbXbXbXbXbXbXbXbXbXbX",
"bXbXbXbXbXbXbXbXbXbXbXbXbXbXbXbXbXbXbXbXbXbXd bXd d d h M.Z.S.S.#X=X;.d bXbXbXbXbXbXbXbXbXbXbXbXbXbXbXbXbXbXbXbXbXbXbXbXbXbXbXbXbXbXbX",
"bXbXbXbXbXbXbXbXbXbXbXbXbXbXbXbXbXbXbXbXbXbXbXbXd d d f C.S.D.I.+X=Xr.d bXbXbXbXbXbXbXbXbXbXbXbXbXbXbXbXbXbXbXbXbXbXbXbXbXbXbXbXbXbXbX",
"bXbXbXbXbXbXbXbXbXbXbXbXbXbXbXbXbXbXbXbXbXbXbXbXbXbXd d b h [.=X=X=Xm.d bXbXbXbXbXbXbXbXbXbXbXbXbXbXbXbXbXbXbXbXbXbXbXbXbXbXbXbXbXbXbX",
"bXbXbXbXbXbXbXbXbXbXbXbXbXbXbXbXbXbXbXbXbXbXbXbXbXbXd d d d ~.=X=X=XJ.d bXbXbXbXbXbXbXbXbXbXbXbXbXbXbXbXbXbXbXbXbXbXbXbXbXbXbXbXbXbXbX",
"bXbXbXbXbXbXbXbXbXbXbXbXbXbXbXbXbXbXbXbXbXbXbXbXbXbXbXbXbXd Y.=X=X=XW.d d bXbXbXbXbXbXbXbXbXbXbXbXbXbXbXbXbXbXbXbXbXbXbXbXbXbXbXbXbXbX",
"bXbXbXbXbXbXbXbXbXbXbXbXbXbXbXbXbXbXbXbXbXbXbXbXbXbXbXbXbXd B.=X*X=X].d d bXbXbXbXbXbXbXbXbXbXbXbXbXbXbXbXbXbXbXbXbXbXbXbXbXbXbXbXbXbX",
"bXbXbXbXbXbXbXbXbXbXbXbXbXbXbXbXbXbXbXbXbXbXbXbXbXbXbXbXbXd v n <.=X.Xd d bXbXbXbXbXbXbXbXbXbXbXbXbXbXbXbXbXbXbXbXbXbXbXbXbXbXbXbXbXbX",
"bXbXbXbXbXbXbXbXbXbXbXbXbXbXbXbXbXbXbXbXbXbXbXbXbXbXbXbXbXd d d | =X$Xf d bXbXbXbXbXbXbXbXbXbXbXbXbXbXbXbXbXbXbXbXbXbXbXbXbXbXbXbXbXbX",
"bXbXbXbXbXbXbXbXbXbXbXbXbXbXbXbXbXbXbXbXbXbXbXbXbXbXbXbXbXd d d k *X=Xv d bXbXbXbXbXbXbXbXbXbXbXbXbXbXbXbXbXbXbXbXbXbXbXbXbXbXbXbXbXbX",
"bXbXbXbXbXbXbXbXbXbXbXbXbXbXbXbXbXbXbXbXbXd d d d d d d d d d d d @X=XO.d bXbXbXbXbXbXbXbXbXbXbXbXbXbXbXbXbXbXbXbXbXbXbXbXbXbXbXbXbXbX",
"bXbXbXbXbXbXbXbXbXbXbXbXbXbXbXbXbXbXbXd d d d d f n +.w.h.G.R.k d  X=Xq.d bXbXbXbXbXbXbXbXbXbXbXbXbXbXbXbXbXbXbXbXbXbXbXbXbXbXbXbXbXbX",
"bXbXbXbXbXbXbXbXbXbXbXbXbXbXbXbXbXbXbXL F A ! XX&X=X=X=X=X=X=XO.d _.=Xg.d bXbXbXbXbXbXbXbXbXbXbXbXbXbXbXbXbXbXbXbXbXbXbXbXbXbXbXbXbXbX",
"bXbXbXbXbXbXbXbXbXbXbXbXbXbXbXbXbXd J ;X;X;X<X-X=X*X+X X(.R.G.B d E.=XF.d bXbXbXbXbXbXbXbXbXbXbXbXbXbXbXbXbXbXbXbXbXbXbXbXbXbXbXbXbXbX",
"bXbXbXbXbXbXbXbXbXbXbXbXbXbXbXbXbXbXbXD F K I >.C h d d d d d d d H.=XT.d d bXbXbXbXbXbXbXbXbXbXbXbXbXbXbXbXbXbXbXbXbXbXbXbXbXbXbXbXbX",
"bXbXbXbXbXbXbXbXbXbXbXbXbXbXbXbXbXbXbXd d d d d d d d d d d bXbXbXbX+.k d d bXbXbXbXbXbXbXbXbXbXbXbXbXbXbXbXbXbXbXbXbXbXbXbXbXbXbXbXbX",
"bXbXbXbXbXbXbXbXbXbXbXbXbXbXbXbXbXbXbXbXbXbXbXbXbXbXbXbXbXbXbXbXbXbXd d d d bXbXbXbXbXbXbXbXbXbXbXbXbXbXbXbXbXbXbXbXbXbXbXbXbXbXbXbXbX",
"bXbXbXbXbXbXbXbXbXbXbXbXbXbXbXbXbXbXbXbXbXbXbXbXbXbXbXbXbXbXbXbXbXbXbXbXd d bXbXbXbXbXbXbXbXbXbXbXbXbXbXbXbXbXbXbXbXbXbXbXbXbXbXbXbXbX",
"bXbXbXbXbXbXbXbXbXbXbXbXbXbXbXbXbXbXbXbXbXbXbXbXbXbXbXbXbXbXbXbXbXbXbXbXd d bXbXbXbXbXbXbXbXbXbXbXbXbXbXbXbXbXbXbXbXbXbXbXbXbXbXbXbXbX",
"bXbXbXbXbXbXbXbXbXbXbXbXbXbXbXbXbXbXbXbXbXbXbXbXbXbXbXbXbXbXbXbXbXbXbXbXbXbXbXbXbXbXbXbXbXbXbXbXbXbXbXbXbXbXbXbXbXbXbXbXbXbXbXbXbXbXbX",
"bXbXbXbXbXbXbXbXbXbXbXbXbXbXbXbXbXbXbXbXbXbXbXbXbXbXbXbXbXbXbXbXbXbXbXbXbXbXbXbXbXbXbXbXbXbXbXbXbXbXbXbXbXbXbXbXbXbXbXbXbXbXbXbXbXbXbX",
"bXbXbXbXbXbXbXbXbXbXbXbXbXbXbXbXbXbXbXbXbXbXbXbXbXbXbXbXbXbXbXbXbXbXbXbXbXbXbXbXbXbXbXbXbXbXbXbXbXbXbXbXbXbXbXbXbXbXbXbXbXbXbXbXbXbXbX",
"bXbXbXbXbXbXbXbXbXbXbXbXbXbXbXbXbXbXbXbXbXbXbXbXbXbXbXbXbXbXbXbXbXbXbXbXbXbXbXbXbXbXbXbXbXbXbXbXbXbXbXbXbXbXbXbXbXbXbXbXbXbXbXbXbXbXbX",
"bXbXbXbXbXbXbXbXbXbXbXbXbXbXbXbXbXbXbXbXbXbXbXbXbXbXbXbXbXbXbXbXbXbXbXbXbXbXbXbXbXbXbXbXbXbXbXbXbXbXbXbXbXbXbXbXbXbXbXbXbXbXbXbXbXbXbX",
"bXbXbXbXbXbXbXbXbXbXbXbXbXbXbXbXbXbXbXbXbXbXbXbXbXbXbXbXbXbXbXbXbXbXbXbXbXbXbXbXbXbXbXbXbXbXbXbXbXbXbXbXbXbXbXbXbXbXbXbXbXbXbXbXbXbXbX"
};
