/* XPM */
static char *nave_small_7[] = {
/* columns rows colors chars-per-pixel */
"67 67 234 2 ",
"   c #000000",
".  c #010100",
"X  c #010101",
"o  c #020202",
"O  c #030303",
"+  c #050505",
"@  c #060505",
"#  c #080707",
"$  c #0A0909",
"%  c #0A0A0A",
"&  c #0D0D0D",
"*  c #111010",
"=  c #111111",
"-  c #131212",
";  c #171616",
":  c #191717",
">  c #191919",
",  c #1A1A1A",
"<  c #1C1A1A",
"1  c #1F1C1B",
"2  c #1D1C1C",
"3  c #221F1F",
"4  c #242201",
"5  c #3D3907",
"6  c #3E3A06",
"7  c #212121",
"8  c #242121",
"9  c #272323",
"0  c #262424",
"q  c #292929",
"w  c #2D2828",
"e  c #312C2C",
"r  c #322D2D",
"t  c #313131",
"y  c #373232",
"u  c #3F3333",
"i  c #3B3636",
"p  c #3A3737",
"a  c #3E3434",
"s  c #3D3737",
"d  c #383837",
"f  c #383838",
"g  c #393838",
"h  c #393939",
"j  c #3A3939",
"k  c #3A3A3A",
"l  c #3B3A3A",
"z  c #3B3B3B",
"x  c #3C3A3A",
"c  c #3C3B3B",
"v  c #3D3B3B",
"b  c #3C3C3C",
"n  c #3D3C3C",
"m  c #3D3D3D",
"M  c #3E3C3C",
"N  c #3F3C3C",
"B  c #3E3D3D",
"V  c #3F3D3D",
"C  c #3E3E3E",
"Z  c #3F3F3F",
"A  c #5F1E1E",
"S  c #7B0D0D",
"D  c #731A1A",
"F  c #7C1C1C",
"G  c #403C02",
"H  c #4B2C2C",
"J  c #552525",
"K  c #542626",
"L  c #582323",
"P  c #502828",
"I  c #542F2F",
"U  c #443030",
"Y  c #453030",
"T  c #493434",
"R  c #433D3D",
"E  c #413E3E",
"W  c #403F3F",
"Q  c #423F3F",
"!  c #433F3F",
"~  c #464103",
"^  c #4B4603",
"/  c #4D4803",
"(  c #4F4903",
")  c #514C03",
"_  c #595203",
"`  c #595304",
"'  c #625B04",
"]  c #635C04",
"[  c #665F04",
"{  c #706805",
"}  c #726B05",
"|  c #7A7205",
" . c #33444D",
".. c #2F4F5F",
"X. c #2F5061",
"o. c #2D5469",
"O. c #2D566C",
"+. c #2B5972",
"@. c #404040",
"#. c #414040",
"$. c #414141",
"%. c #424141",
"&. c #434141",
"*. c #424242",
"=. c #434343",
"-. c #444040",
";. c #464141",
":. c #444343",
">. c #474242",
",. c #444442",
"<. c #444444",
"1. c #454545",
"2. c #464444",
"3. c #474545",
"4. c #464646",
"5. c #474747",
"6. c #494343",
"7. c #4A4343",
"8. c #494545",
"9. c #4A4444",
"0. c #4B4444",
"q. c #4B4545",
"w. c #494646",
"e. c #4A4747",
"r. c #4C4545",
"t. c #4D4646",
"y. c #4D4747",
"u. c #484848",
"i. c #494949",
"p. c #4B4848",
"a. c #4A4A4A",
"s. c #4B4B4B",
"d. c #4C4949",
"f. c #4E4848",
"g. c #4C4A4A",
"h. c #4D4A4A",
"j. c #4E4B4B",
"k. c #4C4C4C",
"l. c #4D4D4D",
"z. c #4E4C4C",
"x. c #4F4C4C",
"c. c #4E4E4E",
"v. c #4F4F4F",
"b. c #504C4C",
"n. c #504D4D",
"m. c #524D4D",
"M. c #514E4E",
"N. c #534E4E",
"B. c #534F4F",
"V. c #505050",
"C. c #515151",
"Z. c #525252",
"A. c #535353",
"S. c #555151",
"D. c #545353",
"F. c #565252",
"G. c #565353",
"H. c #545454",
"J. c #555555",
"K. c #575454",
"L. c #565656",
"P. c #575757",
"I. c #5A5656",
"U. c #585858",
"Y. c #595959",
"T. c #5A5A5A",
"R. c #5B5B5B",
"E. c #5E5B5B",
"W. c #5C5C5C",
"Q. c #5D5D5D",
"!. c #5F5C5C",
"~. c #5E5E5E",
"^. c #5F5F5E",
"/. c #5E5F5F",
"(. c #5F5F5F",
"). c #615E5E",
"_. c #625F5F",
"`. c #606060",
"'. c #616161",
"]. c #636161",
"[. c #626262",
"{. c #636363",
"}. c #646464",
"|. c #656565",
" X c #666464",
".X c #666666",
"XX c #666767",
"oX c #676767",
"OX c #686666",
"+X c #696767",
"@X c #686868",
"#X c #696969",
"$X c #6A6A6A",
"%X c #6B6B6B",
"&X c #6C6B6B",
"*X c #6C6C6C",
"=X c #6D6D6D",
"-X c #6E6E6E",
";X c #6F6F6F",
":X c #707070",
">X c #717171",
",X c #727272",
"<X c #860505",
"1X c #8B0202",
"2X c #8A0303",
"3X c #810909",
"4X c #861717",
"5X c #842020",
"6X c #857C05",
"7X c #908606",
"8X c #968C06",
"9X c #9C9207",
"0X c #A79B06",
"qX c #B1A507",
"wX c #B6A907",
"eX c #BAAD07",
"rX c #C1B307",
"tX c #C7B907",
"yX c #D4C508",
"uX c #D5C608",
"iX c #D7C708",
"pX c #D7C808",
"aX c #D8C808",
"sX c #DECE08",
"dX c #E0D108",
"fX c #F0DF09",
"gX c #1B83BB",
"hX c #198AC7",
"jX c #198AC8",
"kX c #1692D5",
"lX c #1497DE",
"zX c #119EEA",
"xX c #119EEB",
"cX c None",
/* pixels */
"cXcXcXcXcXcXcXcXcXcXcXcXcXcXcXcXcXcXcXcXcXcXcXcXcXcXcXcXcXcXcXcXcXcXcXcXcXcXcXcXcXcXcXcXcXcXcXcXcXcXcXcXcXcXcXcXcXcXcXcXcXcXcXcXcXcXcX",
"cXcXcXcXcXcXcXcXcXcXcXcXcXcXcXcXcXcXcXcXcXcXcXcXcXcXcXcXcXcXcXcXcXcXcXcXcXcXcXcXcXcXcXcXcXcXcXcXcXcXcXcXcXcXcXcXcXcXcXcXcXcXcXcXcXcXcX",
"cXcXcXcXcXcXcXcXcXcXcXcXcXcXcXcXcXcXcXcXcXcXcXcXcXcXcXcXcXcXcXcXcXcXcXcXcXcXcXcXcXcXcXcXcXcXcXcXcXcXcXcXcXcXcXcXcXcXcXcXcXcXcXcXcXcXcX",
"cXcXcXcXcXcXcXcXcXcXcXcXcXcXcXcXcXcXcXcXcXcXcXcXcXcXcXcXcXcXcXcXcXcXcXcXcXcXcXcXcXcXcXcXcXcXcXcXcXcXcXcXcXcXcXcXcXcXcXcXcXcXcXcXcXcXcX",
"cXcXcXcXcXcXcXcXcXcXcXcXcXcXcXcXcXcXcXcXcXcXcXcXcXcXcXcXcXzXzXzXzXcXcXcXcXcXcXcXcXcXcXcXcXcXcXcXcXcXcXcXcXcXcXcXcXcXcXcXcXcXcXcXcXcXcX",
"cXcXcXcXcXcXcXcXcXcXcXcXcXcXcXcXcXcXcXcXcXcXcXcXcXcXcXcXcXxXzXzXzXcXcXcXcXcXcXcXcXcXcXcXcXcXcXcXcXcXcXcXcXcXcXcXcXcXcXcXcXcXcXcXcXcXcX",
"cXcXcXcXcXcXcXcXcXcXcXcXcXcXcXcXcXcXcXcXcXcXcXcXcXcXcXcXcXcXcXcXcXzXzXcXcXcXcXcXcXcXcXcXcXcXcXcXcXcXcXcXcXcXcXcXcXcXcXcXcXcXcXcXcXcXcX",
"cXcXcXcXcXcXcXcXcXcXcXcXcXcXcXcXcXcXcXcXcXcXcXcXcXcXcXzXzXcXcXcXcXxXzXcXcXcXcXcXcXcXcXcXcXcXcXcXcXcXcXcXcXcXcXcXcXcXcXcXcXcXcXcXcXcXcX",
"cXcXcXcXcXcXcXcXcXcXcXcXcXcXcXcXcXcXcXcXcXcXcXcXcXcXcXcXcXcXcXcXcXcXcXcXcXcXcXcXcXcXcXcXcXcXcXcXcXcXcXcXcXcXcXcXcXcXcXcXcXcXcXcXcXcXcX",
"cXcXcXcXcXcXcXcXcXcXcXcXcXcXcXcXcXcXcXcXcXcXcXcXcXcXcXcXcXcXcXcXcXcXcXcXcXcXcXcXcXcXcXcXcXcXcXcXcXcXcXcXcXcXcXcXcXcXcXcXcXcXcXcXcXcXcX",
"cXcXcXcXcXcXcXcXcXcXcXcXcXcXcXcXcXcXcXcXcXcXcXcXcXcXcXcXcXcXzXzXzXzXzXcXcXcXcXcXcXcXcXcXcXcXcXcXcXcXcXcXcXcXcXcXcXcXcXcXcXcXcXcXcXcXcX",
"cXcXcXcXcXcXcXcXcXcXcXcXcXcXcXcXcXcXcXcXcXcXcXcXcXcXcXzXzXzXzXzXzXzXzXcXcXcXcXcXcXcXcXcXcXcXcXcXcXcXcXcXcXcXcXcXcXcXcXcXcXcXcXcXcXcXcX",
"cXcXcXcXcXcXcXcXcXcXcXcXcXcXcXcXcXcXcXcXcXcXcXcXcXcXcXcXcXcXcXcXcXcXcXcXzXcXcXcXcXcXcXcXcXcXcXcXcXcXcXcXcXcXcXcXcXcXcXcXcXcXcXcXcXcXcX",
"cXcXcXcXcXcXcXcXcXcXcXcXcXcXcXcXcXcXcXcXcXcXcXcXcXzXzXcXcXcXcXcXcXcXcXcXzXcXcXcXcXcXcXcXcXcXcXcXcXcXcXcXcXcXcXcXcXcXcXcXcXcXcXcXcXcXcX",
"cXcXcXcXcXcXcXcXcXcXcXcXcXcXcXcXcXcXcXcXcXcXcXcXcXcXzXcXcXcXcXcXcXcXcXcXcXcXcXcXcXcXcXcXcXcXcXcXcXcXcXcXcXcXcXcXcXcXcXcXcXcXcXcXcXcXcX",
"cXcXcXcXcXcXcXcXcXcXcXcXcXcXcXcXcXcXcXcXcXcXcXcXcXcXcXcXcXcXcXcXcXcXcXcXcXcXcXcXcXcXcXcXcXcXcXcXcXcXcXcXcXcXcXcXcXcXcXcXcXcXcXcXcXcXcX",
"cXcXcXcXcXcXcXcXcXcXcXcXcXcXcXcXcXcXcXcXcXcXcXcXcXcXcXcXcXcXcXcXcXzXxXzXzXzXcXcXcXcXcXcXcXcXcXcXcXcXcXcXcXcXcXcXcXcXcXcXcXcXcXcXcXcXcX",
"cXcXcXcXcXcXcXcXcXcXcXcXcXcXcXcXcXcXcXcXcXcXcXcXcXcXzXzXzXzXzXzXzXzXzXzXzXzXcXcXcXcXcXcXcXcXcXcXcXcXcXcXcXcXcXcXcXcXcXcXcXcXcXcXcXcXcX",
"cXcXcXcXcXcXcXcXcXcXcXcXcXcXcXcXcXcXcXcXcXcXcXcXcXcXzXzXzXzXcXcXcXcXcXcXcXcXxXxXcXcXcXcXcXcXcXcXcXcXcXcXcXcXcXcXcXcXcXcXcXcXcXcXcXcXcX",
"cXcXcXcXcXcXcXcXcXcXcXcXcXcXcXcXcXcXcXcXcXcXcXcXzXcXcXcXcXcXcXcXcXcXcXcXcXcXzXzXcXcXcXcXcXcXcXcXcXcXcXcXcXcXcXcXcXcXcXcXcXcXcXcXcXcXcX",
"cXcXcXcXcXcXcXcXcXcXcXcXcXcXcXcXcXcXcXcXcXcXcXcXxXzXcXcXcXcXcXcXcXcXcXcXcXcXcXcXcXcXcXcXcXcXcXcXcXcXcXcXcXcXcXcXcXcXcXcXcXcXcXcXcXcXcX",
"cXcXcXcXcXcXcXcXcXcXcXcXcXcXcXcXcXcXcXcXcXcXcXcXcXcXcXcXcXcXf f f f cXcXcXcXcXcXcXcXcXcXcXcXcXcXcXcXcXcXcXcXcXcXcXcXcXcXcXcXcXcXcXcXcX",
"cXcXcXcXcXcXcXcXcXcXcXcXcXcXcXcXcXcXcXcXcXcXcXcXcXcXcXcXcXcX ...O.+.cXcXcXcXcXcXcXcXcXcXcXcXcXcXcXcXcXcXcXcXcXcXcXcXcXcXcXcXcXcXcXcXcX",
"cXcXcXcXcXcXcXcXcXcXcXcXcXcXcXcXcXcXcXcXcXcXcXcXcXcXf f f d lXzXzXzXo.f f f cXcXcXcXcXcXcXcXcXcXcXcXcXcXcXcXcXcXcXcXcXcXcXcXcXcXcXcXcX",
"cXcXcXcXcXcXcXcXcXcXcXcXcXcXcXcXcXcXcXcXcXcXcXcXcXcXf f f d hXkXjXgXX.f f f cXcXcXcXcXcXcXcXcXcXcXcXcXcXcXcXcXcXcXcXcXcXcXcXcXcXcXcXcX",
"cXcXcXcXcXcXcXcXcXcXcXcXcXcXcXcXcXcXcXcXcXcXcXcXcXcXf f f f f d f f f f f f cXcXcXcXcXcXcXcXcXcXcXcXcXcXcXcXcXcXcXcXcXcXcXcXcXcXcXcXcX",
"cXcXcXcXcXcXcXcXcXcXcXcXcXcXcXcXcXcXcXcXcXcXcXcXcXcXf f f f g k m $.4.a.c.Z.H.cXcXcXcXcXcXcXcXcXcXcXcXcXcXcXcXcXcXcXcXcXcXcXcXcXcXcXcX",
"cXcXcXcXcXcXcXcXcXcXcXcXcXcXcXcXcXcXcXcXcXcXcXcXcXcXR.{.oX%X;X>X,X,X,X,X,X,X}.f f cXcXcXcXcXcXcXcXcXcXcXcXcXcXcXcXcXcXcXcXcXcXcXcXcXcX",
"cXcXcXcXcXcXcXcXcXcXcXcXcXcXcXcXcXcXcXcXcXcXcXcXf f |.,X,X,X,X,X,X,X,X,X,X,X*XH.T.cXcXcXcXcXcXcXcXcXcXcXcXcXcXcXcXcXcXcXcXcXcXcXcXcXcX",
"cXcXcXcXcXcXcXcXcXcXcXcXcXcXcXcXcXcXcXcXcXcXcXcXC.J.%X,X,X,X,X,X,X,X,X,X,X,X,X,X:Xj f cXcXcXcXcXcXcXcXcXcXcXcXcXcXf f f f f cXcXcXcXcX",
"cXcXcXcXcXcXcXcXcXcXcXcXcXcXcXcXcXcXcXcXcXcXf f [.,X,X,X,X,X,X,X,X>X;X*X@X}.`.W.P.k f cXf f f f f f f f f f f f f f f f f f cXcXcXcXcX",
"cXcXcXcXcXcXcXcXcXcXcXcXcXcXcXcXcXcXcXcXcXcXf f C.T.L.Z.c.a.4.*.C z g f f f f f f f f f f f f f f h b Z =.5.s.V.H.J.f f cXcXcXcXcXcXcX",
"cXcXcXcXcXcXcXcXcXcXcXcXcXcXcXf f f f f f f f f f f f f f f f f f f f g j l c g f %.3.D.Q.'.|.$X=X:X>X,X,X,X,X,X,X:Xj f cXcXcXcXcXcXcX",
"cXcXcXcXf f f f f f f f f f f f f f f f g h z n z f l E ! -.;.>.6.9.r.t.t.t.t.x f j.F.OX,X,X,X,X,X,X>X:X=X#X}.`.W.U.cXcXcXcXcXcXcXcXcX",
"cXcXcXcXf f f h Z =.5.s.v.A.P.R.(.{.K.B.S.F.F.F.w.f V t.t.t.t.t.t.t.t.t.t.t.t.v f d.F.E.].+X,X,X,X}.z g f f f f f f cXcXcXcXcXcXcXcXcX",
"cXcXcXcXcXcXf *.,X,X,X,X,X,X,X,X,X,X!.F.F.F.F.F.p.f M t.t.t.t.t.t.t.t.t.t.t.t.N f e.F.F.F.).,X,X,XoXf f f f @.<.k f cXcXcXcXcXcXcXcXcX",
"cXcXcXcXcXcXf m :X=X#X|.'.Q.U.H.@X,X=X&X_.F.F.F.h.f c t.t.t.t.t.t.t.t.t.t.t.y.Q n 3.h.b.F.G.V.k.u.=.f f f f -X,X*.f cXcXcXcXcXcXcXcXcX",
"cXcXcXcXcXcXcXcXh f f f f f f f Q.,X,X,X XF.F.F.x.C :.t.t.t.t.t.t.t.t.m.S.S.F.F.F.w.f &.F.z.f f f f f f f f $X,X4.f cXcXcXcXcXcXcXcXcX",
"cXcXcXcXcXcXcXcXf f z @.z f f f i.Z.c.a.g.F.x.j *.,X;Xt.t.t.t.t.t.t.t.N.F.F.F.S.F.p.f B d.2.f f cXcXcXcXf f .X,Xa.f cXcXcXcXcXcXcXcXcX",
"cXcXcXcXcXcXcXcXf f .X,Xa.f f f f f f f #.F.n.f C ,X>XR s y r w 9 3 < : - & # 0 F.h.f f f f f f cXcXcXcXf f '.,Xc.f cXcXcXcXcXcXcXcXcX",
"cXcXcXcXcXcXcXcXf f [.,Xc.f f f cXcXcXf k W n f z >X>X%                       2 F.x.f f f f cXcXcXcXcXcXf f Q.,XZ.f cXcXcXcXcXcXcXcXcX",
"cXcXcXcXcXcXcXcXf f ~.,XZ.f cXcXcXcXcXf f f f f g ;X,X=   4 G ) ' _ ( ` ] ~   ; F.M.f f f f cXcXcXcXcXcXf f Y.,XL.f cXcXcXcXcXcXcXcXcX",
"cXcXcXcXcXcXcXcXcXf T.,XL.f cXcXcXcXcXcXcXf f f f *X,X>   0XfXfXfXrX7X7X7X[   * F.B.f f f f cXcXcXcXcXcXcXf J.,XR.f f cXcXcXcXcXcXcXcX",
"cXcXcXcXcXcXcXcXcXf L.,XT.f f cXcXcXcXcXcXf f f f @X,X7   8XfXfXfXiXeXqX7X{   $ f.t.g f cXcXcXcXcXcXcXcXcXf C.,X/.f f cXcXcXcXcXcXcXcX",
"cXcXcXcXcXcXcXcXcXf Z.,X~.f f cXcXcXcXcXcXcXcXf f {.,Xq   6XfXfXfXfXfXaX7X|   @ r.t.g f cXcXcXcXcXcXcXcXcXf I 4XD f f cXcXcXcXcXcXcXcX",
"cXcXcXcXcXcXcXcXcXf l.,X[.f f cXcXcXcXcXcXcXcXf f (.,Xt X } dXsXfXfXfXyX^ 6 e y v x cXcXcXcXcXcXcXcXcXcXcXf P 1XS f f cXcXcXcXcXcXcXcX",
"cXcXcXcXcXcXcXcXcXf a.,XXXf f cXcXcXcXcXcXcXcXcXcXcX<.Z.$X,.. / fXfXfXuX  O q.t.j f cXcXcXcXcXcXcXcXcXcXcXf H 1X3Xf f cXcXcXcXcXcXcXcX",
"cXcXcXcXcXcXcXcXcXf T 5XF f f cXcXcXcXcXcXcXcXcXcXcXf Z.,Xk.o 5 pXtXwX9X1 8 0.t.l f cXcXcXcXcXcXcXcXcXcXcXf U 1X<Xf f cXcXcXcXcXcXcXcX",
"cXcXcXcXcXcXcXcXcXf Y 1X<Xf f cXcXcXcXcXcXcXcXcXcXcXf l.,X;X=X^..     o 7.t.t.t.c f cXcXcXcXcXcXcXcXcXcXcXcXcXJ K cXcXcXcXcXcXcXcXcXcX",
"cXcXcXcXcXcXcXcXcXf u 1X2Xp f cXcXcXcXcXcXcXcXcXcXcXf a.,X,X,XoX+ % = , N.I.8.! l f cXcXcXcXcXcXcXcXcXcXcXcXcXf f cXcXcXcXcXcXcXcXcXcX",
"cXcXcXcXcXcXcXcXcXf i 2X1Xa f cXcXcXcXcXcXcXcXcXcXcXf m u.a.,X,X;X>X,X,X,X,X5.f f f cXcXcXcXcXcXcXcXcXcXcXcXcXcXcXcXcXcXcXcXcXcXcXcXcX",
"cXcXcXcXcXcXcXcXcXcXcXA L cXcXcXcXcXcXcXcXcXcXcXcXcXf f f b ,X,X,X,X,X,X,X,Xs.f cXcXcXcXcXcXcXcXcXcXcXcXcXcXcXcXcXcXcXcXcXcXcXcXcXcXcX",
"cXcXcXcXcXcXcXcXcXcXcXf f cXcXcXcXcXcXcXcXcXcXcXcXcXcXcXf h :X,X,X,X,X,X,X,Xv.f cXcXcXcXcXcXcXcXcXcXcXcXcXcXcXcXcXcXcXcXcXcXcXcXcXcXcX",
"cXcXcXcXcXcXcXcXcXcXcXcXcXcXcXcXcXcXcXcXcXcXcXcXcXcXcXcXf f =X,X,X,X,X,X-X#Xl.f cXcXcXcXcXcXcXcXcXcXcXcXcXcXcXcXcXcXcXcXcXcXcXcXcXcXcX",
"cXcXcXcXcXcXcXcXcXcXcXcXcXcXcXcXcXcXcXcXcXcXcXcXcXcXcXcXf f i.5.XX,X,X,XZ.f f f cXcXcXcXcXcXcXcXcXcXcXcXcXcXcXcXcXcXcXcXcXcXcXcXcXcXcX",
"cXcXcXcXcXcXcXcXcXcXcXcXcXcXcXcXcXcXcXcXcXcXcXcXcXcXcXcXf f f f `.,X,X,XJ.f f f cXcXcXcXcXcXcXcXcXcXcXcXcXcXcXcXcXcXcXcXcXcXcXcXcXcXcX",
"cXcXcXcXcXcXcXcXcXcXcXcXcXcXcXcXcXcXcXcXcXcXcXcXcXcXcXcXcXcXf f *.1.@.m h f cXcXcXcXcXcXcXcXcXcXcXcXcXcXcXcXcXcXcXcXcXcXcXcXcXcXcXcXcX",
"cXcXcXcXcXcXcXcXcXcXcXcXcXcXcXcXcXcXcXcXcXcXcXcXcXcXcXcXcXcXcXf f f f f f f cXcXcXcXcXcXcXcXcXcXcXcXcXcXcXcXcXcXcXcXcXcXcXcXcXcXcXcXcX",
"cXcXcXcXcXcXcXcXcXcXcXcXcXcXcXcXcXcXcXcXcXcXcXcXcXcXcXcXcXcXcXcXcXf f f f cXcXcXcXcXcXcXcXcXcXcXcXcXcXcXcXcXcXcXcXcXcXcXcXcXcXcXcXcXcX",
"cXcXcXcXcXcXcXcXcXcXcXcXcXcXcXcXcXcXcXcXcXcXcXcXcXcXcXcXcXcXcXcXcXf f f f cXcXcXcXcXcXcXcXcXcXcXcXcXcXcXcXcXcXcXcXcXcXcXcXcXcXcXcXcXcX",
"cXcXcXcXcXcXcXcXcXcXcXcXcXcXcXcXcXcXcXcXcXcXcXcXcXcXcXcXcXcXcXcXcXcXcXcXcXcXcXcXcXcXcXcXcXcXcXcXcXcXcXcXcXcXcXcXcXcXcXcXcXcXcXcXcXcXcX",
"cXcXcXcXcXcXcXcXcXcXcXcXcXcXcXcXcXcXcXcXcXcXcXcXcXcXcXcXcXcXcXcXcXcXcXcXcXcXcXcXcXcXcXcXcXcXcXcXcXcXcXcXcXcXcXcXcXcXcXcXcXcXcXcXcXcXcX",
"cXcXcXcXcXcXcXcXcXcXcXcXcXcXcXcXcXcXcXcXcXcXcXcXcXcXcXcXcXcXcXcXcXcXcXcXcXcXcXcXcXcXcXcXcXcXcXcXcXcXcXcXcXcXcXcXcXcXcXcXcXcXcXcXcXcXcX",
"cXcXcXcXcXcXcXcXcXcXcXcXcXcXcXcXcXcXcXcXcXcXcXcXcXcXcXcXcXcXcXcXcXcXcXcXcXcXcXcXcXcXcXcXcXcXcXcXcXcXcXcXcXcXcXcXcXcXcXcXcXcXcXcXcXcXcX",
"cXcXcXcXcXcXcXcXcXcXcXcXcXcXcXcXcXcXcXcXcXcXcXcXcXcXcXcXcXcXcXcXcXcXcXcXcXcXcXcXcXcXcXcXcXcXcXcXcXcXcXcXcXcXcXcXcXcXcXcXcXcXcXcXcXcXcX",
"cXcXcXcXcXcXcXcXcXcXcXcXcXcXcXcXcXcXcXcXcXcXcXcXcXcXcXcXcXcXcXcXcXcXcXcXcXcXcXcXcXcXcXcXcXcXcXcXcXcXcXcXcXcXcXcXcXcXcXcXcXcXcXcXcXcXcX",
"cXcXcXcXcXcXcXcXcXcXcXcXcXcXcXcXcXcXcXcXcXcXcXcXcXcXcXcXcXcXcXcXcXcXcXcXcXcXcXcXcXcXcXcXcXcXcXcXcXcXcXcXcXcXcXcXcXcXcXcXcXcXcXcXcXcXcX"
};
