/* XPM */
static char *nave12_3[] = {
/* columns rows colors chars-per-pixel */
"120 120 85 1 ",
"  c #010100",
". c #080700",
"X c #0A0A00",
"o c #0D0C0B",
"O c #131212",
"+ c #1D1D1D",
"@ c #211E1E",
"# c #2F2C02",
"$ c #312E02",
"% c #343002",
"& c #28281F",
"* c #35311B",
"= c #242222",
"- c #292525",
"; c #2F2E2E",
": c #322F2F",
"> c #353535",
", c #3B3636",
"< c #383838",
"1 c #7B0C0C",
"2 c #6D1616",
"3 c #601D1D",
"4 c #691818",
"5 c #721212",
"6 c #721A1A",
"7 c #413D3D",
"8 c #703535",
"9 c #7E3636",
"0 c #474203",
"q c #4A4503",
"w c #5E5804",
"e c #635C04",
"r c #676004",
"t c #756D05",
"y c #786F05",
"u c #7C7405",
"i c #4E4B29",
"p c #324955",
"a c #2E5266",
"s c #2D556B",
"d c #2A5C76",
"f c #454242",
"g c #4C4646",
"h c #4C4B4B",
"j c #524E4E",
"k c #555252",
"l c #595656",
"z c #5B5B5B",
"x c #615F5F",
"c c #636363",
"v c #6C6C6C",
"b c #727272",
"n c #850606",
"m c #8B0202",
"M c #840B0B",
"N c #880E0E",
"B c #803535",
"V c #847A05",
"C c #8D8306",
"Z c #908606",
"A c #A69B07",
"S c #AA9E07",
"D c #AFA307",
"F c #B1A407",
"G c #B6A907",
"H c #B9AC07",
"J c #C2B407",
"K c #E5D509",
"L c #E8D709",
"P c #ECDC09",
"I c #F0DF09",
"U c #F1E009",
"Y c #266689",
"T c #25698D",
"R c #236F98",
"E c #22709B",
"W c #0F87C7",
"Q c #0F8BCD",
"! c #0F8ED2",
"~ c #108FD4",
"^ c #1091D6",
"/ c #1094DB",
"( c #119BE5",
") c #119EEA",
"_ c None",
/* pixels */
"________________________________________________________________________________________________________________________",
"________________________________________________________________________________________________________________________",
"________________________________________________________________________________________________________________________",
"________________________________________________________________________________________________________________________",
"____________________________________________________________________<<<<________________________________________________",
"____________________________________________________________________<<<<________________________________________________",
"____________________________________________________________________><<<________________________________________________",
"____________________________________________________________________<<<<________________________________________________",
"____________________________________________________________________<<<<<<<_____________________________________________",
"____________________________________________________________________<<<<<<<_____________________________________________",
"____________________________________________________________________<<<<<<<_____________________________________________",
"____________________________________________________________________<<<fzzzh>>>>>:>>:;>>::::>___________________________",
"____________________________________________________________________<<<hbbbk<<<<<<<<<<<<<<<<<<<<<<<<<<__________________",
"____________________________________________________________________><<hbbbh<<<<<<<<<<<<<<<<<<<<<<<<<<__________________",
"____________________________________________________________________<<<jbbbk<<<<<<<<<<<<<<<<<<<<<,<<,<__________________",
"____________________________________________________________________<<<jbbbh<<<ccvccvccccccccx45555223<<<_______________",
"____________________________________________________________________<<<hbbbh<<<vbbbbbbbbbbbbbbNmmmmmm2<<<_______________",
"____________________________________________________________________<<<jbbbh<<<vbbbbbbbbbbbbbbNmmmmmm2<<<_______________",
"____________________________________________________________________<<<kbbbh<<<cvbbvbvvvbbbbvbMmmmmmm2<<<_______________",
"____________________________________________________________________<<<kbbbh<<<<<<<<<<<<<<<<<,,,,,,7,,__________________",
"____________________________________________________________________<<>kbbbh<<<<<<<<<<<<<<<<<<<<<<<<,<__________________",
"____________________________________________________________________<<<jbbbh<<<<<<<<<<<<<<<<<<<<<<<<<<__________________",
"____________________________________________________________________<<<kbbbh<<<<<<<><>><<<<<<>><>><><___________________",
"____________________________________________________________________<<<kbbbh<<<<<<>_____________________________________",
"____________________________________________________________________<<<kbbbh<<<<<<>_____________________________________",
"____________________________________________________________________<<<kbbbh<<<<<<<_____________________________________",
"____________________________________________________________________<<<kbbbczzz<<<>_____________________________________",
"____________________________________________________________________<<<kbbbbbbb<<<>_____________________________________",
"____________________________________________________________________<<<lbbbbbbb<<<<_____________________________________",
"____________________________________________________________________<<<kbbbbbbv<<<<_____________________________________",
"____________________________________________________________________<<<lbbbbbbv<<<<<<<__________________________________",
"____________________________________________________________________<<<lbbbbbbb<<<<<<<__________________________________",
"____________________________________________________________________<<<lbbbbbbb,<<<<<<__________________________________",
"____________________________________________________________________<<<lbbbbvvv7<,<<<<<_________________________________",
"____________________________________________________________________<<<lbbbzkkkklkg<<<<<<<______________________________",
"____________________________________________________________________<><zbbblkkkklkh<<<<<<<______________________________",
"____________________________________________________________________<<<kbbbzlkkkkkg<<<<<<<______________________________",
"________________________________________________________________>>>><<<kccclkklgghf<<<<<<<______________________________",
"________________________________________________________________><<<<<<hlkkkkkk<<<<<><<<<<<<<<__________________________",
"________________________________________________________________<<<<<<<fkkkkkkj,<<<<<<<<,<<<<<__________________________",
"________________________________________________________________<<<<<><hkkkjkkj,<><<,><<<<<<<<__________________________",
"_____________________________________________W~!Q___________>>><xcxk<<<7fffffffgghfhgggfhffff7__________________________",
"_____________________________________________^))^___________<<<<bbbz<<<<<<<<<<,kkkkkkkkkkkgggg<<<<<<<<<<<_______________",
"_____________________________________________^))^___________<<<fbbbx<<<<<<<<<<7kkkkkkkkkkkgggg<<<<<<<<<<<_______________",
"_____________________________________________Q/(Q___________<<<fbbbz<<<,<<<<7,7kkkkkkkkkkkgggg,<<,<<<<<<<_______________",
"__________________________________()))___/)))________<<<<<<<vvbbbbbz<<<fggfgggfkkk,OOOOOOOOOO+fffff7f,<<<<<<<<<<________",
"__________________________________))))___/)))________<<<<<<<vbbbbbbz<<<fgggggggkkk,          ogggggjgf<<<<<<<<<<>_______",
"__________________________________))))___/)))________<><<<><vbbbbbbz<,<fgggggggkkk:          oggggggg<<<<<<<<<<<>_______",
"_______________________)))________QQQ____/)))________<<<<<<<vbbbbbbz><<fgggggggkkk>    .. .  Ogfggggg7<<<<<<><<<>_______",
"_______________________)))____))))_______Q)))________<<<<<<<vbbbbbbz<<<fggggggjlkk:   wCCCCCVt o.=gggxvvvvvvx><<<<<<____",
"_______________________)))____))))_______Q)))________<<<<<<<vbbbbbbz><<fgggggggkkk:   eZZZZZZu   =gggcbbbbbbv<<<<<<<____",
"_______________________)))____))))_______!)))________<<<<<<<vbbbbbbz<<<fgggggggkkk:   eZZZZZZy   =gggcbbbbbbc<<<<<<<____",
"___________________)))/_______))))_______Q)))____<__dERRp<<<bbbbbbbz<<<fgggggggjjj:   eZZZAAAZ$$$*777xbbbbbbv<<p<<<<____",
"___________________)))/_______))))_______!)))____<<<Y)))s<<<vbbbbbbl<<<fgggggggggg-   eZZZPIIIUUIV   jbbbbbbbbbbl<<<<<<<",
"___________________)))/_______))))_______!)))____<<<Y)))s><<bbbbbbbl<<<fgggjgggggg-   eZZZPIIIIIIV   kbbbbbbbbbbl<<<<<<<",
"___________________)))/_______))))_______!)))____<<<Y)))s<<<bbbbbbbl<<<ggggggjgggg-   rZZZPIIIIIIV   kbbbbbbbbbbl<<<<<<<",
"___________________)))/_______))))_______^)))____<<<Y)))s<<<vbbbbbbk<<<fgggggggggg-   CJHJUUUUIIUu   kbbbbbbbbbbl<<<<<<<",
"___________________)))/_______))))_______^)))____<<<T)))s<<<bbbbbbbz<<<fgggggggggg-   FIIIUUIIIIUu   kbbbbbbbbbbk<<<<<<<",
"___________________)))^_______))))_______^)))____<<<T)))a<<<bbbbbbbk<<<igggggggggg-   FIIIIIIIIIUu   kbbbbbbbbbbl<<<<<<<",
"___________________)))/_______))))_______^)))____<<<T(((a<<<bbbbbbbl<<<pgjgggggggg-   FIIIIIIIIIPu   lbbbbbbbbbbk<<<<<<<",
"_______________________)))____))))_______^)))________,<<<<<<bbbbbbbl,,7ggggggggggg=   FUIIIIUJ0qqijjjvbbbbbbvjjjf<<<<<<<",
"_______________________)))____))))_______^)))________<<<<<<<bbbbbbbk,,,7gggggggggg=   HUUUIIUF   <bbbbbbbbbbx7<<<<<<____",
"_______________________)))____))))_______/)))________<<<<<<<bbbbbbbk><77ggggjggggg=   HIUUUUUF   7bbbbbbbbbbx<<<<<<<____",
"______________________________)))(_______^)))________<<<<<<<bbbbbbbk<<7ggggggggggg=   DKKKKKKD . <bbbbbbbbbbx<<<<<<<____",
"__________________________________)))____/)))________<<<<<<<bbbbbbbk><<fgggggggggg-   ....XXX-vvvvbbbh77777f7<<<>_______",
"__________________________________)))____()))________<<<<<<<bbbbbbbk<<<fgggggggggg=          =bbbbbbbf<<<<<<<<<<>_______",
"__________________________________)))____/)))________<<><<<<bbbbbbbk<<<fgggggggggg=          =bbbbbbb7,<<<<<<<<<>_______",
"_____________________________________________!^~____________zllxbbbk<<<fffffffglll,====+@@+++>cccvccvp,<<<<<<<<<________",
"_____________________________________________())~___________<<<hbbbj<<<<<<<<<<hbbbbbbbbbbbbbbx<<<<<<<<<<<_______________",
"_____________________________________________())Q___________<<<hbbbk<<<<<<<<<<hbbbbbbbbbbbbbbx<<<<<<<<<<<_______________",
"_____________________________________________())Q___________<<<hbbbj<<<<>><<<<hbbbbbbbbbbbbbbz<<<<<<<<<<<_______________",
"_______________________________________________________________fhhip><<hhhhggggjkkkkkkkkkzklkk<<<<<<<<<<________________",
"________________________________________________________________><<<<<<jkkkkkkg,<<<<<<<<<<<<<<__________________________",
"________________________________________________________________<<<<<<<kkkkkkkg7<<<<<<<<<<<<<<__________________________",
"________________________________________________________________<<><<>>jkkkkkkg7<<<<<<<<<<<<<<__________________________",
"___________________________________________________________________><<<jkkkkkkjgjj<><<<<<>______________________________",
"___________________________________________________________________>><>kkkkkkkkkkkf,<<<<<<______________________________",
"___________________________________________________________________><<>kkkkklkkkkkf<<<<<<<______________________________",
"___________________________________________________________________><<<kkkklllkgjjp,<<<<<<______________________________",
"___________________________________________________________________><<<kkklbbbx7<,,,<<__________________________________",
"___________________________________________________________________><<>kkkkbbbz<<<<<<<__________________________________",
"___________________________________________________________________><<<kkkzbbbz<<<<<<<__________________________________",
"___________________________________________________________________><<<xxxcbbbz<<<>><>__________________________________",
"___________________________________________________________________><<<vbbbbbbz<<<______________________________________",
"___________________________________________________________________<<><vbbbbbbl<<<______________________________________",
"___________________________________________________________________<<<<bbbbbbbk<<<______________________________________",
"___________________________________________________________________<<<<bbbvhjjf<<<______________________________________",
"___________________________________________________________________><<<bbbc<<<<<<<______________________________________",
"___________________________________________________________________<<<<vbbc<<<<<<<______________________________________",
"___________________________________________________________________<<<<bbbc<<<<<<<______________________________________",
"___________________________________________________________________<<<<bbbc<<<<<<<<<<<,><<<<<<<<<<<<<___________________",
"___________________________________________________________________<<<<bbbc<<<<<<<<<<<,,<<<<<<<<<<<<<___________________",
"___________________________________________________________________><<<bbbc<<<<<<<<<<<<7<<<<<<<<<<<<<___________________",
"___________________________________________________________________><<<bbbc<<<<<<<<f<<<p<<<<<<,,<<<<<___________________",
"___________________________________________________________________<<<<bbbc<<<lbbbbbbbbbbbvbb9nnnnnnM<<<<_______________",
"___________________________________________________________________<<<<bbbc<<<zbbbbbbbbbbbbbbBmmmmmmn,<<>_______________",
"___________________________________________________________________<<<pbbbx<<<lbbbbbbbbbbbbbb9mmmmmmn<<<<_______________",
"___________________________________________________________________><<7vbbx<<<jxczzcccxxccccc81111111,<<________________",
"___________________________________________________________________<<<<bbbx,<<<<<<<<<<<<<<<<<<<<<<,<<___________________",
"___________________________________________________________________><<<bbbx,<<<<<<<<<<<<<<<<<<<<<<<<<___________________",
"___________________________________________________________________<<<<bbbx<<<<<<<<<<<<<<<<<<<<<<<<<<___________________",
"___________________________________________________________________><<<hhhh_________________<<<<<<<<____________________",
"___________________________________________________________________<<<<<<<<_____________________________________________",
"___________________________________________________________________<<<<<<<<_____________________________________________",
"___________________________________________________________________><<<<<<<_____________________________________________",
"___________________________________________________________________<<<<_________________________________________________",
"___________________________________________________________________<<<<_________________________________________________",
"___________________________________________________________________<<<<_________________________________________________",
"___________________________________________________________________<<<>_________________________________________________",
"________________________________________________________________________________________________________________________",
"________________________________________________________________________________________________________________________",
"________________________________________________________________________________________________________________________",
"________________________________________________________________________________________________________________________",
"________________________________________________________________________________________________________________________",
"________________________________________________________________________________________________________________________",
"________________________________________________________________________________________________________________________",
"________________________________________________________________________________________________________________________",
"________________________________________________________________________________________________________________________",
"________________________________________________________________________________________________________________________",
"________________________________________________________________________________________________________________________"
};
