/* XPM */
static char *nave_small_6[] = {
/* columns rows colors chars-per-pixel */
"67 67 231 2 ",
"   c #000000",
".  c #010100",
"X  c #030202",
"o  c #040404",
"O  c #050505",
"+  c #060606",
"@  c #070707",
"#  c #080700",
"$  c #080707",
"%  c #090900",
"&  c #0B0A0A",
"*  c #0B0B0B",
"=  c #0D0B0B",
"-  c #0E0D0D",
";  c #121101",
":  c #131101",
">  c #141301",
",  c #161401",
"<  c #161501",
"1  c #111111",
"2  c #131212",
"3  c #131313",
"4  c #151313",
"5  c #1B1B1B",
"6  c #2C2902",
"7  c #302D02",
"8  c #3A3602",
"9  c #3F3A06",
"0  c #292614",
"q  c #302C19",
"w  c #232020",
"e  c #2C2929",
"r  c #2D2B2B",
"t  c #2F2B2B",
"y  c #2D2D2D",
"u  c #312C2C",
"i  c #332E2E",
"p  c #303030",
"a  c #323232",
"s  c #363131",
"d  c #393737",
"f  c #3D3434",
"g  c #3C3535",
"h  c #363C3F",
"j  c #383838",
"k  c #393838",
"l  c #393939",
"z  c #3B3838",
"x  c #3A3939",
"c  c #3A3A3A",
"v  c #3B3B3B",
"b  c #3D3A3A",
"n  c #3C3B3B",
"m  c #3C3C3C",
"M  c #3D3C3C",
"N  c #3D3D3D",
"B  c #3E3C3C",
"V  c #3E3D3D",
"C  c #3F3D3D",
"Z  c #3E3E3E",
"A  c #3F3E3E",
"S  c #3F3F3F",
"D  c #7E0A0A",
"F  c #7C0F0F",
"G  c #6B1717",
"H  c #6D1616",
"J  c #611D1D",
"K  c #621D1D",
"L  c #6E1818",
"P  c #721212",
"I  c #403C04",
"U  c #452F2F",
"Y  c #462F2F",
"T  c #4A2D2D",
"R  c #482E2E",
"E  c #552525",
"W  c #562525",
"Q  c #433131",
"!  c #403D3D",
"~  c #413E3E",
"^  c #403F3F",
"/  c #413F3F",
"(  c #423E3E",
")  c #423F3F",
"_  c #443E3E",
"`  c #7C3333",
"'  c #474203",
"]  c #5A5404",
"[  c #645E07",
"{  c #676004",
"}  c #787004",
"|  c #7A7204",
" . c #363E43",
".. c #344249",
"X. c #34434C",
"o. c #324753",
"O. c #2D5368",
"+. c #404040",
"@. c #414141",
"#. c #424040",
"$. c #424141",
"%. c #434141",
"&. c #424242",
"*. c #434343",
"=. c #444040",
"-. c #474141",
";. c #454343",
":. c #464242",
">. c #444444",
",. c #454444",
"<. c #454545",
"1. c #474545",
"2. c #464646",
"3. c #474747",
"4. c #484343",
"5. c #494343",
"6. c #4A4343",
"7. c #4A4444",
"8. c #4B4444",
"9. c #4B4545",
"0. c #484646",
"q. c #494747",
"w. c #4C4545",
"e. c #4D4646",
"r. c #484848",
"t. c #494949",
"y. c #4A4848",
"u. c #4B4848",
"i. c #4A4A4A",
"p. c #4B4B4B",
"a. c #4C4949",
"s. c #4E4848",
"d. c #4D4A4A",
"f. c #4C4C4C",
"g. c #4D4D4D",
"h. c #4E4D4D",
"j. c #4E4E4E",
"k. c #4F4F4F",
"l. c #504D4D",
"z. c #514D4D",
"x. c #514E4E",
"c. c #524E4E",
"v. c #534E4E",
"b. c #505050",
"n. c #515151",
"m. c #525252",
"M. c #535353",
"N. c #545050",
"B. c #555151",
"V. c #545252",
"C. c #565252",
"Z. c #575353",
"A. c #545454",
"S. c #555555",
"D. c #575454",
"F. c #565656",
"G. c #575656",
"H. c #575757",
"J. c #585454",
"K. c #595656",
"L. c #585858",
"P. c #595959",
"I. c #5B5858",
"U. c #5A5A5A",
"Y. c #5B5B5B",
"T. c #5C5C5C",
"R. c #5D5D5D",
"E. c #5E5E5E",
"W. c #5F5F5F",
"Q. c #615454",
"!. c #606060",
"~. c #616161",
"^. c #636161",
"/. c #626262",
"(. c #636363",
"). c #656363",
"_. c #646464",
"`. c #656565",
"'. c #676565",
"]. c #666666",
"[. c #676666",
"{. c #676767",
"}. c #686767",
"|. c #686868",
" X c #696969",
".X c #6A6969",
"XX c #6A6A6A",
"oX c #6B6B6B",
"OX c #6C6C6C",
"+X c #6D6D6D",
"@X c #6E6E6E",
"#X c #6F6F6F",
"$X c #756767",
"%X c #707070",
"&X c #717171",
"*X c #717272",
"=X c #727272",
"-X c #870404",
";X c #850606",
":X c #8B0202",
">X c #8A0303",
",X c #803232",
"<X c #807705",
"1X c #817805",
"2X c #857B05",
"3X c #8B8106",
"4X c #8D8306",
"5X c #8E8406",
"6X c #908606",
"7X c #9B9006",
"8X c #A09406",
"9X c #A79C06",
"0X c #A99D07",
"qX c #B4A807",
"wX c #BAAD07",
"eX c #BBAE07",
"rX c #C0B208",
"tX c #D9CA08",
"yX c #E3D308",
"uX c #ECDC09",
"iX c #EFDE09",
"pX c #F0DF09",
"aX c #22729E",
"sX c #1D7EB2",
"dX c #1A85BF",
"fX c #1A88C3",
"gX c #1497DE",
"hX c #129AE4",
"jX c #129BE5",
"kX c #119EEA",
"lX c None",
/* pixels */
"lXlXlXlXlXlXlXlXlXlXlXlXlXlXlXlXlXlXlXlXlXlXlXlXlXlXlXlXlXlXlXlXlXlXlXlXlXlXlXlXlXlXlXlXlXlXlXlXlXlXlXlXlXlXlXlXlXlXlXlXlXlXlXlXlXlXlX",
"lXlXlXlXlXlXlXlXlXlXlXlXlXlXlXlXlXlXlXlXlXlXlXlXlXlXlXlXlXlXlXlXlXlXlXlXlXlXlXlXlXlXlXlXlXlXlXlXlXlXlXlXlXlXlXlXlXlXlXlXlXlXlXlXlXlXlX",
"lXlXlXlXlXlXlXlXlXlXlXlXlXlXlXlXlXlXlXlXlXlXlXlXlXlXlXlXlXlXlXlXlXlXlXlXlXlXlXlXlXlXlXlXlXlXlXlXlXlXlXlXlXlXlXlXlXlXlXlXlXlXlXlXlXlXlX",
"lXlXlXlXlXlXlXlXlXlXlXlXlXlXlXlXlXlXlXlXlXlXlXlXlXlXlXlXlXlXlXlXlXlXlXlXlXlXlXlXlXlXlXlXlXlXlXlXlXlXlXlXlXlXlXlXlXlXlXlXlXlXlXlXlXlXlX",
"lXlXlXlXlXlXlXlXlXlXlXlXlXlXlXlXlXlXlXlXlXlXlXlXlXlXlXlXlXlXlXlXlXlXlXlXlXlXlXlXlXlXlXlXlXlXlXlXlXlXlXlXlXlXlXlXlXlXlXlXlXlXlXlXlXlXlX",
"lXlXlXlXlXlXlXlXlXlXlXlXlXlXlXlXlXlXlXkXlXlXlXlXlXlXlXlXlXlXlXlXlXlXlXlXlXlXlXlXlXlXlXlXlXlXlXlXlXlXlXlXlXlXlXlXlXlXlXlXlXlXlXlXlXlXlX",
"lXlXlXlXlXlXlXlXlXlXlXlXlXlXlXlXlXkXkXkXlXlXkXlXlXlXlXlXlXlXlXlXlXlXlXlXlXlXlXlXlXlXlXlXlXlXlXlXlXlXlXlXlXlXlXlXlXlXlXlXlXlXlXlXlXlXlX",
"lXlXlXlXlXlXlXlXlXlXlXlXlXlXlXlXlXkXkXlXlXlXkXlXlXlXlXlXlXlXlXlXlXlXlXlXlXlXlXlXlXlXlXlXlXlXlXlXlXlXlXlXlXlXlXlXlXlXlXlXlXlXlXlXlXlXlX",
"lXlXlXlXlXlXlXlXlXlXlXlXlXlXlXlXlXlXlXlXlXlXlXlXlXlXlXlXlXlXlXlXlXlXlXlXlXlXlXlXlXlXlXlXlXlXlXlXlXlXlXlXlXlXlXlXlXlXlXlXlXlXlXlXlXlXlX",
"lXlXlXlXlXlXlXlXlXlXlXlXlXlXlXlXkXkXlXlXlXlXlXlXlXlXlXlXlXlXlXlXlXlXlXlXlXlXlXlXlXlXlXlXlXlXlXlXlXlXlXlXlXlXlXlXlXlXlXlXlXlXlXlXlXlXlX",
"lXlXlXlXlXlXlXlXlXlXlXlXlXlXlXlXlXlXlXlXlXlXlXkXkXlXlXlXlXlXlXlXlXlXlXlXlXlXlXlXlXlXlXlXlXlXlXlXlXlXlXlXlXlXlXlXlXlXlXlXlXlXlXlXlXlXlX",
"lXlXlXlXlXlXlXlXlXlXlXlXlXlXlXlXlXlXlXlXlXkXkXkXkXlXkXkXlXlXlXlXlXlXlXlXlXlXlXlXlXlXlXlXlXlXlXlXlXlXlXlXlXlXlXlXlXlXlXlXlXlXlXlXlXlXlX",
"lXlXlXlXlXlXlXlXlXlXlXlXlXlXlXlXlXlXlXkXkXkXkXlXlXlXlXlXlXlXlXlXlXlXlXlXlXlXlXlXlXlXlXlXlXlXlXlXlXlXlXlXlXlXlXlXlXlXlXlXlXlXlXlXlXlXlX",
"lXlXlXlXlXlXlXlXlXlXlXlXlXlXlXlXlXlXkXkXkXlXlXlXlXlXlXlXlXlXlXlXlXlXlXlXlXlXlXlXlXlXlXlXlXlXlXlXlXlXlXlXlXlXlXlXlXlXlXlXlXlXlXlXlXlXlX",
"lXlXlXlXlXlXlXlXlXlXlXlXlXlXlXlXlXlXlXlXlXlXlXlXlXlXlXlXlXlXlXlXlXlXlXlXlXlXlXlXlXlXlXlXlXlXlXlXlXlXlXlXlXlXlXlXlXlXlXlXlXlXlXlXlXlXlX",
"lXlXlXlXlXlXlXlXlXlXlXlXlXlXlXlXlXkXlXlXlXlXlXlXlXlXlXkXkXkXlXkXlXlXlXlXlXlXlXlXlXlXlXlXlXlXlXlXlXlXlXlXlXlXlXlXlXlXlXlXlXlXlXlXlXlXlX",
"lXlXlXlXlXlXlXlXlXlXlXlXlXlXlXlXlXkXkXlXlXlXlXlXlXkXkXkXkXlXlXkXkXlXlXlXlXlXlXlXlXlXlXlXlXlXlXlXlXlXlXlXlXlXlXlXlXlXlXlXlXlXlXlXlXlXlX",
"lXlXlXlXlXlXlXlXlXlXlXlXlXlXlXlXlXlXlXlXlXlXlXkXkXkXkXlXlXlXlXlXlXlXlXlXlXlXlXlXlXlXlXlXlXlXlXlXlXlXlXlXlXlXlXlXlXlXlXlXlXlXlXlXlXlXlX",
"lXlXlXlXlXlXlXlXlXlXlXlXlXlXlXlXlXlXlXlXlXkXkXkXlXlXlXlXlXlXlXlXlXlXlXlXlXlXlXlXlXlXlXlXlXlXlXlXlXlXlXlXlXlXj j j lXlXlXlXlXlXlXlXlXlX",
"lXlXlXlXlXlXlXlXlXlXlXlXlXlXlXlXlXlXlXkXkXkXlXlXlXlXlXlXlXlXlXlXlXlXlXlXlXlXlXlXlXlXlXlXlXlXlXlXlXlXlXlXj j j j lXlXlXlXlXlXlXlXlXlXlX",
"lXlXlXlXlXlXlXlXlXlXlXlXlXlXlXlXlXlXlXkXlXlXlXlXlXlXj j lXlXlXj lXlXlXlXlXlXlXlXlXlXlXlXlXlXlXlXlXlXj j j m j j lXlXlXlXlXlXlXlXlXlXlX",
"lXlXlXlXlXlXlXlXlXlXlXlXlXlXlXlXlXlXlXlXlXlXlXlXj j j ..lXj j j j lXlXlXlXlXlXlXlXlXlXlXlXlXlXlXj j j +.Y.#X@.j lXlXlXlXlXlXlXlXlXlXlX",
"lXlXlXlXlXlXlXlXlXlXlXlXlXlXlXlXlXlXkXkXlXlXlXlXlXX.aXhXgX .j j j lXlXlXlXlXlXlXlXlXlXlXlXlXj j j @.R.&X=X=XY.lXlXlXlXlXlXlXlXlXlXlXlX",
"lXlXlXlXlXlXlXlXlXlXlXlXlXlXlXlXlXlXkXlXlXlXlXlXlXjXkXkXfXo.j j k g.*.j lXlXlXlXlXlXlXlXj j j &.E.&X=X=X/.2.j lXlXlXlXlXlXlXlXlXlXlXlX",
"lXlXlXlXlXlXlXlXlXlXlXlXlXlXlXlXlXlXlXlXlXlXlXj j sXdXO.j j l f.|.=XR.v F.v j lXlXlXj j j *.W.*X=X*X~.<.j j j lXlXlXlXlXlXlXlXlXlXlXlX",
"lXlXlXlXlXlXlXlXlXlXlXlXlXlXlXlXlXlXlXlXlXj j j j h j j l j. X=X=X=X&X@X=Xm.j j j j j <.~.*X=X*XW.*.j j c f.j j lXlXlXlXlXlXlXlXlXlXlX",
"lXlXlXlXlXlXlXlXlXlXlXlXlXlXlXlXlXlXlXlXlXlXj j j j x k.XX=X=X=X=X=X=X=X Xp.j j j 2./.=X=X=X=Xk.j j j c oX=X2.j lXlXlXlXlXlXlXlXlXlXlX",
"lXlXlXlXlXlXlXlXlXlXlXlXlXlXlXlXlXlXlXlXlXlXj j c n.oX=X=X=X=X=X=X=X|.g.l j j ^ V.=X=X=X=X=X=X(.j j j j U.=X(.j j lXlXlXlXlXlXlXlXlXlX",
"lXlXlXlXlXlXlXlXlXlXlXlXlXlXlXlXlXlXlXlXlXlXlXn.+X=X=X=X=X=X=X=X{.p.k j j j v B.C..X'.).=X=X@XA.k j j j +.&X=X<.j lXlXlXlXlXlXlXlXlXlX",
"lXlXlXlXlXlXlXlXlXlXlXlXlXlXlXlXlXlXlXlXlXlXl oX=X=X=X=X=X=X].i.k j j B 4.x j y.C.C.C.Z.XXM.v j j j lXj j T.=X~.j j lXlXlXlXlXlXlXlXlX",
"lXlXlXlXlXlXlXlXlXlXlXlXlXlXlXlXlXlXlXlXlXj j A.=X=X=X=X`.r.k j j C 5.e.e.=.j m B.C.C.C.q.j j j lXlXlXlXj @.&X=X>.j lXlXlXlXlXlXlXlXlX",
"lXlXlXlXlXlXlXlXlXlXlXlXlXlXlXlXlXlXlXlXlXlXT.&X=X=X(.3.j j k ! 7.e.e.e.e.w.x j q.;.$.C.B.c j lXlXlXlXlXj j R.=X!.j j lXlXlXlXlXlXlXlX",
"lXlXlXlXlXlXlXlXlXlXlXlXlXlXlXlXlXlXlXlXlXj `.=X/.2.j j k ! 7.e.e.e.e.e.e.e.:.y.z.k j y./ j j j lXlXlXlXlXj &.*X*X&.j lXlXlXlXlXlXlXlX",
"lXlXlXlXlXlXlXlXlXlXlXlXlXlXlXlXlXlXlXlXlXj >.>.j j k ~ 8.e.e.e.e.e.e.e.s.v.C.C.C.%.j j j j lXlXlXlXlXlXlXj j Q.,XL j j lXlXlXlXlXlXlX",
"lXlXlXlXlXlXlXlXlXlXlXlXlXlXlXlXlXlXlXlXlXj j j j n 8.e.e.e.e.e.e.e.e.v.C.C.C.u.C.x.k j j j lXlXlXlXlXlXlXlXj R :X>XU j lXlXlXlXlXlXlX",
"lXlXlXlXlXlXlXlXlXlXlXlXlXlXlXlXlXlXlXj j j x $.j l 9.e.e.e.e.e.e.e.e.v.B.b 2 + l.C.#.j j j j lXlXlXlXlXlXlXj j P :XH j j lXlXlXlXlXlX",
"lXlXlXlXlXlXlXlXlXlXlXlXlXlXlXlXlXj j j c 1.N.C.V j ) e.e.e.e.e.e.e.w.s 1       r C.l.j j lXlXlXlXlXlXlXlXlXlXj T :X-XlXlXlXlXlXlXlXlX",
"lXlXlXlXlXlXlXlXlXlXlXlXlXlXlXj j j c 1.N.C.C.C.a.j l w.e.e.e.e.w.i -     # 6   @ c.B.A j lXlXlXlXlXlXlXlXlXlXj j K Q lXlXlXlXlXlXlXlX",
"lXlXlXlXlXlXlXlXlXlXlXlXlXj j j N H.K.C.C.C.C.C.C.M 3.D.e.e.9.u =     % ' 2X5X<   e e.4.j j lXlXlXlXlXlXlXlXlXlXlXlXj j lXlXlXlXlXlXlX",
"lXlXlXlXlXlXlXlXlXlXlXj j j Z L.#X=X}.I.[.J.C.C.d.h.=X#Xe.t &     : } 3X6X6X6X]   $ 6.4.lXlXlXlXlXlXlXlXlXlXlXlXlXlXlXlXlXlXlXlXlXlXlX",
"lXlXlXlXlXlXlXlXlXj j j S U.%X=X=X=X=X*X=X^.C.x.j l  X=Xl     , 1XyXpXeX8XrX6X4X> 4 z j j lXlXlXlXlXlXlXlXlXlXlXlXlXlXlXlXlXlXlXlXlXlX",
"lXlXlXlXlXlXlXj j j +.Y.&X=X=X`.r.~.=X&XE.,.B.C./ j j.=X|.O   9XpXpXpXuXiXpX0X{ q e.8.k j lXlXlXlXlXlXlXlXlXlXlXlXlXlXlXlXlXlXlXlXlXlX",
"lXlXlXlXlXj j j Z R.&X=X=X(.3.j j ,.R.@.j j 1.0.c j x oX=Xa   8 pXpXpXpXpXpXwX. X _ e.~ j j lXlXlXlXlXlXlXlXlXlXlXlXlXlXlXlXlXlXlXlXlX",
"lXlXlXlXj j j j N #X=X/.2.j j j j j j j j j j j j j j b.=X].o   qXpXpXpXpXpXpX9 w -.e.8.k j lXlXlXlXlXlXlXlXlXlXlXlXlXlXlXlXlXlXlXlXlX",
"lXlXlXlXlXlXlXj j G.,.j j c m j j j j lXlXj j j j j j c OX=Xp   I 7X7 tXpXyX<X0 e.e.8.~ k j j lXlXlXlXlXlXlXlXlXlXlXlXlXlXlXlXlXlXlXlX",
"lXlXlXlXlXlXlXlXlXlXj j i.OXU.j j lXlXlXlXlXlXlXj j j j n.=X(.y /.5   [ | ;     ( ^.G.j j j lXlXlXlXlXlXlXlXlXlXlXlXlXlXlXlXlXlXlXlXlX",
"lXlXlXlXlXlXlXlXlXlXlXj 3.=X%XZ j lXlXlXlXlXlXlXlXlXlXj v R.S T.=XS.m {.*   3 r.%X=X#XN j lXlXlXlXlXlXlXlXlXlXlXlXlXlXlXlXlXlXlXlXlXlX",
"lXlXlXlXlXlXlXlXlXlXlXj j _.=XP.j j lXlXlXlXlXlXlXlXlXlXlXlXj +.&X=X=X=Xt.p.%X=X=X=X=XF.j j lXlXlXlXlXlXlXlXlXlXlXlXlXlXlXlXlXlXlXlXlX",
"lXlXlXlXlXlXlXlXlXlXlXlXj r.=X%XN j lXlXlXlXlXlXlXlXlXlXlXlXj j R.=XXX=X=X=X=X=X=X=X=X+Xx j lXlXlXlXlXlXlXlXlXlXlXlXlXlXlXlXlXlXlXlXlX",
"lXlXlXlXlXlXlXlXlXlXlXlXj k ].=XH.j j lXlXlXlXlXlXlXlXlXlXlXlXj +.t.k {.=X=X=X=X=X=XE.Z j j lXlXlXlXlXlXlXlXlXlXlXlXlXlXlXlXlXlXlXlXlX",
"lXlXlXlXlXlXlXlXlXlXlXlXlXj t.=X#XM j lXlXlXlXlXlXlXlXlXlXlXlXj j j j p.=X=X=X=X=X=XE.j j lXlXlXlXlXlXlXlXlXlXlXlXlXlXlXlXlXlXlXlXlXlX",
"lXlXlXlXlXlXlXlXlXlXlXlXlXj k {.=XF.j j lXlXlXlXlXlXlXlXlXlXlXlXj lXj k |.@X`.=X=X=XXXc j lXlXlXlXlXlXlXlXlXlXlXlXlXlXlXlXlXlXlXlXlXlX",
"lXlXlXlXlXlXlXlXlXlXlXlXlXlXj p.$X` f j lXlXlXlXlXlXlXlXlXlXlXlXlXlXlXj &.m M #XXXj.x j j lXlXlXlXlXlXlXlXlXlXlXlXlXlXlXlXlXlXlXlXlXlX",
"lXlXlXlXlXlXlXlXlXlXlXlXlXlXj k F :XJ j j lXlXlXlXlXlXlXlXlXlXlXlXlXlXj j j j *.l j j j lXlXlXlXlXlXlXlXlXlXlXlXlXlXlXlXlXlXlXlXlXlXlX",
"lXlXlXlXlXlXlXlXlXlXlXlXlXlXlXj E :X;Xg j lXlXlXlXlXlXlXlXlXlXlXlXlXlXlXj lXj j j j j j lXlXlXlXlXlXlXlXlXlXlXlXlXlXlXlXlXlXlXlXlXlXlX",
"lXlXlXlXlXlXlXlXlXlXlXlXlXlXlXj d D :XJ lXlXlXlXlXlXlXlXlXlXlXlXlXlXlXlXlXlXj j lXj j j lXlXlXlXlXlXlXlXlXlXlXlXlXlXlXlXlXlXlXlXlXlXlX",
"lXlXlXlXlXlXlXlXlXlXlXlXlXlXlXlXj W G Y lXlXlXlXlXlXlXlXlXlXlXlXlXlXlXlXlXlXlXlXlXj lXlXlXlXlXlXlXlXlXlXlXlXlXlXlXlXlXlXlXlXlXlXlXlXlX",
"lXlXlXlXlXlXlXlXlXlXlXlXlXlXlXlXlXlXj j lXlXlXlXlXlXlXlXlXlXlXlXlXlXlXlXlXlXlXlXlXlXlXlXlXlXlXlXlXlXlXlXlXlXlXlXlXlXlXlXlXlXlXlXlXlXlX",
"lXlXlXlXlXlXlXlXlXlXlXlXlXlXlXlXlXlXlXlXlXlXlXlXlXlXlXlXlXlXlXlXlXlXlXlXlXlXlXlXlXlXlXlXlXlXlXlXlXlXlXlXlXlXlXlXlXlXlXlXlXlXlXlXlXlXlX",
"lXlXlXlXlXlXlXlXlXlXlXlXlXlXlXlXlXlXlXlXlXlXlXlXlXlXlXlXlXlXlXlXlXlXlXlXlXlXlXlXlXlXlXlXlXlXlXlXlXlXlXlXlXlXlXlXlXlXlXlXlXlXlXlXlXlXlX",
"lXlXlXlXlXlXlXlXlXlXlXlXlXlXlXlXlXlXlXlXlXlXlXlXlXlXlXlXlXlXlXlXlXlXlXlXlXlXlXlXlXlXlXlXlXlXlXlXlXlXlXlXlXlXlXlXlXlXlXlXlXlXlXlXlXlXlX",
"lXlXlXlXlXlXlXlXlXlXlXlXlXlXlXlXlXlXlXlXlXlXlXlXlXlXlXlXlXlXlXlXlXlXlXlXlXlXlXlXlXlXlXlXlXlXlXlXlXlXlXlXlXlXlXlXlXlXlXlXlXlXlXlXlXlXlX",
"lXlXlXlXlXlXlXlXlXlXlXlXlXlXlXlXlXlXlXlXlXlXlXlXlXlXlXlXlXlXlXlXlXlXlXlXlXlXlXlXlXlXlXlXlXlXlXlXlXlXlXlXlXlXlXlXlXlXlXlXlXlXlXlXlXlXlX",
"lXlXlXlXlXlXlXlXlXlXlXlXlXlXlXlXlXlXlXlXlXlXlXlXlXlXlXlXlXlXlXlXlXlXlXlXlXlXlXlXlXlXlXlXlXlXlXlXlXlXlXlXlXlXlXlXlXlXlXlXlXlXlXlXlXlXlX",
"lXlXlXlXlXlXlXlXlXlXlXlXlXlXlXlXlXlXlXlXlXlXlXlXlXlXlXlXlXlXlXlXlXlXlXlXlXlXlXlXlXlXlXlXlXlXlXlXlXlXlXlXlXlXlXlXlXlXlXlXlXlXlXlXlXlXlX",
"lXlXlXlXlXlXlXlXlXlXlXlXlXlXlXlXlXlXlXlXlXlXlXlXlXlXlXlXlXlXlXlXlXlXlXlXlXlXlXlXlXlXlXlXlXlXlXlXlXlXlXlXlXlXlXlXlXlXlXlXlXlXlXlXlXlXlX",
"lXlXlXlXlXlXlXlXlXlXlXlXlXlXlXlXlXlXlXlXlXlXlXlXlXlXlXlXlXlXlXlXlXlXlXlXlXlXlXlXlXlXlXlXlXlXlXlXlXlXlXlXlXlXlXlXlXlXlXlXlXlXlXlXlXlXlX"
};
