/* XPM */
static char * nave_xpm[] = {
"54 50 152 2",
"  	c None",
". 	c #383838",
"+ 	c #363636",
"@ 	c #595959",
"# 	c #5D5D5D",
"$ 	c #565656",
"% 	c #6C6C6C",
"& 	c #727272",
"* 	c #686868",
"= 	c #5A5A5A",
"- 	c #666666",
"; 	c #707070",
"> 	c #6F6F6F",
", 	c #646464",
"' 	c #5E5E5E",
") 	c #453535",
"! 	c #433333",
"~ 	c #393939",
"{ 	c #3B3A3A",
"] 	c #626161",
"^ 	c #6B6B6B",
"/ 	c #6D6D6D",
"( 	c #606060",
"_ 	c #404040",
": 	c #3B3B3B",
"< 	c #443434",
"[ 	c #3A3737",
"} 	c #8A0303",
"| 	c #801515",
"1 	c #433F3F",
"2 	c #4D4646",
"3 	c #171414",
"4 	c #000000",
"5 	c #545454",
"6 	c #860C0C",
"7 	c #850D0D",
"8 	c #443E3E",
"9 	c #403B3B",
"0 	c #7C7311",
"a 	c #847A03",
"b 	c #7D752F",
"c 	c #292525",
"d 	c #DFCF08",
"e 	c #F0DF09",
"f 	c #D5C607",
"g 	c #4B4B4B",
"h 	c #3A3838",
"i 	c #7F4F4F",
"j 	c #764B4B",
"k 	c #3C3A3A",
"l 	c #3D3939",
"m 	c #383232",
"n 	c #58511A",
"o 	c #655D03",
"p 	c #E2D208",
"q 	c #AA9E04",
"r 	c #8C8436",
"s 	c #535353",
"t 	c #464646",
"u 	c #7C4D4D",
"v 	c #7B4C4C",
"w 	c #717171",
"x 	c #696969",
"y 	c #3F3D3D",
"z 	c #353131",
"A 	c #776E04",
"B 	c #908606",
"C 	c #E6D509",
"D 	c #BAAD05",
"E 	c #484848",
"F 	c #6E6E6E",
"G 	c #373737",
"H 	c #424040",
"I 	c #534E4E",
"J 	c #3A3636",
"K 	c #B4A707",
"L 	c #BCAE07",
"M 	c #434141",
"N 	c #565252",
"O 	c #3C3939",
"P 	c #968C06",
"Q 	c #F1E009",
"R 	c #2F2B01",
"S 	c #3A3501",
"T 	c #3D3801",
"U 	c #665F02",
"V 	c #4D4701",
"W 	c #060606",
"X 	c #050404",
"Y 	c #545151",
"Z 	c #534F4F",
"` 	c #4E4747",
" .	c #656363",
"..	c #393838",
"+.	c #555252",
"@.	c #524E4E",
"#.	c #616161",
"$.	c #424242",
"%.	c #555151",
"&.	c #545050",
"*.	c #3F3E3E",
"=.	c #454343",
"-.	c #514D4D",
";.	c #5F5D5D",
">.	c #494949",
",.	c #403F3F",
"'.	c #656565",
").	c #585555",
"!.	c #4E4B4B",
"~.	c #413E3E",
"{.	c #514E4E",
"].	c #5B5858",
"^.	c #585858",
"/.	c #515151",
"(.	c #636161",
"_.	c #615E5E",
":.	c #595656",
"<.	c #686767",
"[.	c #6C6B6B",
"}.	c #636363",
"|.	c #6A6A6A",
"1.	c #615F5F",
"2.	c #353535",
"3.	c #464444",
"4.	c #424141",
"5.	c #3D3B3B",
"6.	c #423E3E",
"7.	c #3C3B3B",
"8.	c #444242",
"9.	c #4C4B4B",
"0.	c #4E4E4E",
"a.	c #4A4A4A",
"b.	c #676767",
"c.	c #444444",
"d.	c #4F4F4F",
"e.	c #3D3D3D",
"f.	c #5B5B5B",
"g.	c #306188",
"h.	c #2F6691",
"i.	c #315E82",
"j.	c #1994DB",
"k.	c #119EEA",
"l.	c #1F8ED0",
"m.	c #2A75A8",
"n.	c #2978AD",
"o.	c #2B72A4",
"p.	c #1099E2",
"q.	c #1095DC",
"r.	c #1099E3",
"s.	c #119AE4",
"t.	c #119BE6",
"u.	c #119CE7",
"                                                  . . . .                                                   ",
"                                                  . . . .                                                   ",
"                                              . . . . . . . .                                               ",
"                                            + . . @ # # $ . . +                                             ",
"                                            . . . % & & * . . .                                             ",
"                                            . = - ; & & > - $ .                                             ",
"                                            . , & & & & & & ' .                                             ",
"              . +                       . . . , & & & & & & ' . . .                       . .               ",
"              ) !                       . ~ { ] > % ^ ^ / & ( _ : .                       < <               ",
"          + [ } | . +                   . 1 2 2 2 3 4 4 . & & & 5 .                   . . 6 7 . .           ",
"          + [ } | . +                   . 1 2 8 9 0 a a b ( * & 5 .                   . . 6 7 . .           ",
"          + [ } | . +                   . 1 2 c 4 d e e f 4 g & 5 .                   . . 6 7 . .           ",
"          + h i j . +                 k 1 l m n o p e e p q r s $ @ t                 . . u v . .           ",
"          + ~ w x . +               . y 2 z 4 A B C e e e e D 4 @ & E .               . . > F . .           ",
"          + ~ w x . +           . G . H I J 4 A B K L e e e D 4 @ & E . G +           . . > F . .           ",
"          + ~ w x . +           . . . M N O 4 A B B P Q e e D 4 @ & E . . +           . . > F . .           ",
"          + ~ w x . +       G G . . . M N O 4 R S S T U U U V 4 @ & E . . . G +       . . > F . .           ",
"          + ~ w x . +       . . ~ ~ . M N O W W W X X X X X X X @ & E . ~ ~ . +       . . > F . .           ",
"          + ~ w x . . . . . . . Y Z . M N N N N N ` 2 2 2 2 2 2  .& E ..+.@.. . . . . . . > F . .           ",
"          + ~ * #.. . . $.E E E %.&.*.=.-.@.&.&.&.` 2 2 2 2 2 2 ;.x >.,.N &.E E E _ . . . - '.. .           ",
"          + . . . . . . ' & & & ).N N !.. 1 2 2 2 2 2 2 2 2 2 2 ~.. {.N N ].& & & ^.. . . . . . .           ",
"          /.5 5 5 5 5 5 - & & & (._.N !.. 1 2 2 2 2 2 2 2 2 2 2 ~.. {.N N :.<.[.& }.5 5 5 5 5 5 /.          ",
"      + . |.& & & & & & & & & & & > N !.. 1 2 2 2 2 2 2 2 2 2 2 ~.. {.N N N N 1.& & & & & & & & '.. 2.      ",
"    . G . /.$ $ $ $ $ $ $ $ $ $ $ 5 3.4.. 5.6.6.6.6.6.6.6.6.6.6.7.. 8.3.3.3.3.9.$ $ $ $ $ $ $ $ 0.. G .     ",
"    . . . . . . . . . . . . . . . . . . . . . . . . . . . . . . . . . . . . . . . . . . . . . . . . . .     ",
"                                    . a.b.b.b.b.b.b.b.b.b.b.b.b.b.b.c..                                     ",
"                                    . d.& & & & & & & & & & & & & & E .                                     ",
"                                        e.f.& & & & & & & & & & $ e.                                        ",
"                                        . ^.% % % % % % % % % % s .                                         ",
"                                            . . . . . . . . . .                                             ",
"                                            . . . g.h.h.i.. . .                                             ",
"                                            . . . j.k.k.l.. . .                                             ",
"                                                  m.n.n.o.                                                  ",
"                                                  . . . .                                                   ",
"                                        p.                        p.                                        ",
"                                        k.q.                    r.k.                                        ",
"                                            k.k.k.k.k.k.k.k.k.k.                                            ",
"                                            s.s.s.s.s.s.s.s.s.s.                                            ",
"                                                                                                            ",
"                                                                                                            ",
"                                            k.                k.                                            ",
"                                            t.                t.                                            ",
"                                              k.k.k.k.k.k.k.k.                                              ",
"                                                                                                            ",
"                                                                                                            ",
"                                              u.u.        u.                                                ",
"                                              k.k.        k.k.                                              ",
"                                                  t.t.t.t.                                                  ",
"                                                  k.k.k.k.                                                  ",
"                                                                                                            "};
