/* XPM */
static char *nave_small_16[] = {
/* columns rows colors chars-per-pixel */
"67 67 252 2 ",
"   c #000000",
".  c #010100",
"X  c #010101",
"o  c #020100",
"O  c #020101",
"+  c #040400",
"@  c #050505",
"#  c #060505",
"$  c #060606",
"%  c #080705",
"&  c #0A0900",
"*  c #0B0A00",
"=  c #0C0B01",
"-  c #0A0909",
";  c #0D0D0D",
":  c #100F01",
">  c #161401",
",  c #131111",
"<  c #141414",
"1  c #171616",
"2  c #191717",
"3  c #1A1818",
"4  c #1C1A1A",
"5  c #211E1E",
"6  c #232001",
"7  c #2A2702",
"8  c #3C3803",
"9  c #202020",
"0  c #232020",
"q  c #262424",
"w  c #2A2929",
"e  c #2A2A2A",
"r  c #2F2F2F",
"t  c #302C2C",
"y  c #322D2D",
"u  c #363131",
"i  c #353535",
"p  c #363636",
"a  c #373737",
"s  c #3A3532",
"d  c #383737",
"f  c #393737",
"g  c #3A3636",
"h  c #3A3737",
"j  c #3D3535",
"k  c #3C3636",
"l  c #373A3C",
"z  c #383838",
"x  c #393838",
"c  c #383839",
"v  c #383939",
"b  c #393939",
"n  c #3A3939",
"m  c #38393A",
"M  c #3A3A3A",
"N  c #3B3A3A",
"B  c #3B3B3B",
"V  c #3C3B3B",
"C  c #3C3C3C",
"Z  c #3D3C3C",
"A  c #3D3D3D",
"S  c #3E3C3C",
"D  c #3F3C3C",
"F  c #3E3D3D",
"G  c #3F3D3D",
"H  c #3E3E3E",
"J  c #3F3F3F",
"K  c #780F0F",
"L  c #641B1B",
"P  c #611E1E",
"I  c #711313",
"U  c #751010",
"Y  c #741111",
"T  c #403B03",
"R  c #472F2F",
"E  c #4D2A2A",
"W  c #532727",
"Q  c #562424",
"!  c #592222",
"~  c #413232",
"^  c #443030",
"/  c #443131",
"(  c #403A3A",
")  c #403D3D",
"_  c #403E3E",
"`  c #403F3F",
"'  c #423F3F",
"]  c #433F3F",
"[  c #6F2929",
"{  c #603B3B",
"}  c #4B4503",
"|  c #514B03",
" . c #5A5403",
".. c #5B5503",
"X. c #635C04",
"o. c #645D04",
"O. c #655E04",
"+. c #706804",
"@. c #726A05",
"#. c #797105",
"$. c #7C740E",
"%. c #363D41",
"&. c #304E5F",
"*. c #2E5366",
"=. c #2E5367",
"-. c #404040",
";. c #414141",
":. c #434141",
">. c #424242",
",. c #434242",
"<. c #434343",
"1. c #454040",
"2. c #444343",
"3. c #464242",
"4. c #474242",
"5. c #444444",
"6. c #454444",
"7. c #454545",
"8. c #474444",
"9. c #474545",
"0. c #464646",
"q. c #474747",
"w. c #4A4040",
"e. c #4A4343",
"r. c #4B4444",
"t. c #4B4545",
"y. c #484646",
"u. c #494646",
"i. c #494747",
"p. c #4A4747",
"a. c #4C4545",
"s. c #4D4646",
"d. c #4D4747",
"f. c #484848",
"g. c #494949",
"h. c #4B4848",
"j. c #4A4A4A",
"k. c #4B4B4B",
"l. c #4C4848",
"z. c #4E4848",
"x. c #4F4848",
"c. c #4D4A4A",
"v. c #4E4B4B",
"b. c #4C4C4C",
"n. c #4D4D4D",
"m. c #4F4C4C",
"M. c #4E4E4E",
"N. c #4F4E4E",
"B. c #4F4F4F",
"V. c #504A4A",
"C. c #514B4B",
"Z. c #504C4C",
"A. c #524D4D",
"S. c #514E4E",
"D. c #524F4F",
"F. c #505050",
"G. c #515151",
"H. c #535050",
"J. c #525252",
"K. c #535353",
"L. c #545050",
"P. c #555151",
"I. c #555252",
"U. c #565252",
"Y. c #565353",
"T. c #575353",
"R. c #545454",
"E. c #555555",
"W. c #575555",
"Q. c #565656",
"!. c #575757",
"~. c #585454",
"^. c #585858",
"/. c #595959",
"(. c #5B5B5B",
"). c #5C5959",
"_. c #5E5B5B",
"`. c #5C5C5C",
"'. c #5D5D5D",
"]. c #5F5C5C",
"[. c #5E5E5E",
"{. c #5F5F5F",
"}. c #7A4F4F",
"|. c #606060",
" X c #616161",
".X c #626262",
"XX c #636262",
"oX c #636363",
"OX c #646464",
"+X c #656565",
"@X c #666565",
"#X c #666666",
"$X c #676767",
"%X c #686868",
"&X c #696868",
"*X c #696969",
"=X c #6A6969",
"-X c #6A6A6A",
";X c #6B6B6B",
":X c #6C6B6B",
">X c #6C6C6C",
",X c #6D6C6C",
"<X c #6D6D6D",
"1X c #6E6E6E",
"2X c #6F6F6F",
"3X c #707070",
"4X c #717171",
"5X c #727171",
"6X c #727272",
"7X c #830707",
"8X c #890303",
"9X c #8B0202",
"0X c #8A0303",
"qX c #881111",
"wX c #867D05",
"eX c #8E8406",
"rX c #908606",
"tX c #9E9306",
"yX c #A29607",
"uX c #A79C07",
"iX c #AC9F06",
"pX c #BDAF07",
"aX c #B3A608",
"sX c #C1B308",
"dX c #CEBF08",
"fX c #D6C708",
"gX c #E0D008",
"hX c #E8D809",
"jX c #E9D909",
"kX c #EFDE09",
"lX c #F0DF09",
"zX c #286180",
"xX c #266689",
"cX c #22729E",
"vX c #2175A2",
"bX c #178ECE",
"nX c #178FCF",
"mX c #1097DF",
"MX c #1097E0",
"NX c #1098E1",
"BX c #1398E0",
"VX c #119AE4",
"CX c #119AE5",
"ZX c #119BE6",
"AX c #119CE6",
"SX c #119CE7",
"DX c #119CE8",
"FX c #119DE8",
"GX c #119DE9",
"HX c #119EE9",
"JX c #119EEA",
"KX c None",
/* pixels */
"KXKXKXKXKXKXKXKXKXKXKXKXKXKXKXKXKXKXKXKXKXKXKXKXKXKXKXKXKXKXKXKXKXKXKXKXKXKXKXKXKXKXKXKXKXKXKXKXKXKXKXKXKXKXKXKXKXKXKXKXKXKXKXKXKXKXKX",
"KXKXKXKXKXKXKXKXKXKXKXKXKXKXKXKXKXKXKXKXKXKXKXKXKXKXKXKXKXKXKXKXKXKXKXKXKXKXKXKXKXKXKXKXKXKXKXKXKXKXKXKXKXKXKXKXKXKXKXKXKXKXKXKXKXKXKX",
"KXKXKXKXKXKXKXKXKXKXKXKXKXKXKXKXKXKXKXKXKXKXKXKXKXKXKXKXKXKXKXKXKXKXKXKXKXKXKXKXKXKXKXKXKXKXKXKXKXKXKXKXKXKXKXKXKXKXKXKXKXKXKXKXKXKXKX",
"KXKXKXKXKXKXKXKXKXKXKXKXKXKXKXKXKXKXKXKXKXKXKXKXKXKXKXKXKXKXKXKXKXKXKXKXKXKXKXKXKXKXKXKXKXKXKXKXKXKXKXKXKXKXKXKXKXKXKXKXKXKXKXKXKXKXKX",
"KXKXKXKXKXKXKXKXKXKXKXKXKXKXKXKXKXKXKXKXKXKXKXKXKXKXKXKXKXKXKXKXKXKXKXKXKXKXKXKXKXKXKXKXKXKXKXKXKXKXKXKXKXKXKXKXKXKXKXKXKXKXKXKXKXKXKX",
"KXKXKXKXKXKXKXKXKXKXKXKXKXKXKXKXKXKXz KXKXKXKXKXKXKXKXKXKXKXKXKXKXKXKXKXKXKXKXKXKXKXKXKXKXKXKXKXKXKXKXKXKXKXKXKXKXKXKXKXKXKXKXKXKXKXKX",
"KXKXKXKXKXKXKXKXKXKXKXKXKXKXKXKXKXKXz p KXKXKXKXKXKXKXKXKXKXKXKXKXKXKXKXKXKXKXKXz z z z KXKXKXKXKXKXKXKXKXKXKXKXKXKXKXKXKXKXKXKXKXKXKX",
"KXKXKXKXKXKXKXKXKXKXKXKXKXKXKXz h U ! KXKXKXKXKXKXKXKXKXKXKXKXKXKXKXKXKXKXz z z z z z z KXKXKXKXKXKXKXKXKXKXKXKXKXKXKXKXKXKXKXKXKXKXKX",
"KXKXKXKXKXKXKXKXKXKXKXKXKXKXp z W 9X7Xg z KXKXKXKXKXKXKXKXKXKXKXKXKXKXz a z z z z z z z KXKXKXKXKXKXKXKXKXKXKXKXKXKXKXKXKXKXKXKXKXKXKX",
"KXKXKXKXKXKXKXKXKXKXKXKXKXKXa z Y 9XL z a KXKXKXKXKXKXKXKXKXKXKXKXKXz z z z ;.|.f.x z z z KXKXKXKXKXKXKXKXKXKXKXKXKXKXKXKXKXKXKXKXKXKX",
"KXKXKXKXKXKXKXKXKXKXKXKXKXKXz / 0X0X^ z KXKXKXKXKXKXKXKXKXKXKXKXKXKXz z Q.0.^.6X6X-XG.z z KXKXKXKXKXKXKXKXKXKXKXKXKXKXKXKXKXKXKXKXKXKX",
"KXKXKXKXKXKXKXKXKXKXKXKXKXp z W.}.[ z a KXKXKXKXKXKXKXKXKXKXKXp z z z 6.6X6X6X6X6X6X/.z z KXKXKXKXKXKXKXKXKXKXKXKXKXKXKXKXKXKXKXKXKXKX",
"KXKXKXKXKXKXKXKXKXKXKXKXKXz M <X6Xk.z p KXKXKXKXKXKXKXKXKXKXKXz z z z `.6X6X6X6X6X6Xn.z z z a KXKXKXKXKXKXKXKXKXKXKXKXKXKXKXKXKXKXKXKX",
"KXKXKXKXKXKXKXKXKXKXKXKXp z b.6X>Xn z KXKXKXKXKXKXKXKXKXKXKXp z V G C 2X6X6X6X6X6X6X6XOXx z KXKXKXKXKXKXKXKXKXKXKXKXKXKXKXKXKXKXKXKXKX",
"KXKXKXKXKXKXKXKXKXKXKXKXa z oX6XQ.z a KXKXKXKXKXKXKXKXKXKXKXa z 3.s.z._.:X6X6X6X6X6X6X(.z z KXKXKXKXKXKXKXKXKXKXKXKXKXKXKXKXKXKXKXKXKX",
"KXKXKXKXKXKXKXKXKXKXKXKXz ;.6X4XJ z KXKXKXKXKXKXKXKXKXKXKXKXz n s.s.s.s.0 9 M.3X6X6X6X5.z KXKXKXKXKXKXKXKXKXKXKXKXKXKXKXKXKXKXKXKXKXKX",
"KXKXKXKXKXKXKXKXKXKXKXa z ^.6X Xz a KXKXKXKXKXKXKXKXKXz z ) n ' s.k 2 s %     ; K.6X$Xz z z KXKXKXKXKXKXKXKXKXKXKXKXKXKXKXKXKXKXKXKXKX",
"KXKXKXKXKXKXKXKXKXKXKXz M 1X6Xg.z p KXKXKXKXKXKXa z a z N s.t.5 k 4    .dX+.> X .X6X$Xg.b z z KXKXKXKXKXKXKXKXKXKXKXKXKXKXKXKXKXKXKXKX",
"KXKXKXKXKXKXKXKXKXKXp z f.4X;Xb z p KXKXKXKXz KXz z z z 8.x.u   * @.8 pXlXlXjX$.Q.4X6X6X0.z KXKXKXKXKXKXKXKXKXKXKXKXKXKXKXKXKXKXKXKXKX",
"KXKXKXKXKXKXKXKXz KXz z z -.q.z z z z a KXz z z z z z b L.U.3   T rXyXlXlXlXlX|   x 6X*Xx z KXKXKXKXKXKXKXKXKXKXKXKXKXKXKXKXKXKXKXKXKX",
"KXKXKXKXKXKXKXa z G.%XF.C z z z z z z z z z x B z z z :.U.l.O . #.rXsXlXlXlXkXO.= '.6XJ.z z KXKXKXKXKXKXKXKXKXKXKXKXKXKXKXKXKXKXKXKXKX",
"KXKXKXKXKXz z z z #X6X6X2X(.5.z z z [.J.C z ` I.h.z z m.U.w   6 rXrXrXuXhXlXlXlXaXr `.C z KXKXKXKXKXKXKXKXKXKXKXKXKXKXKXKXKXKXKXKXKXKX",
"KXKXKXKXKXa z z z C G.%X6X6X6X$XB.q.6X6X3X'.S.U.i.z A U.L.-   o 7 o.eXtXkXlXlXlX..  e +Xn.KXKXKXKXKXKXKXKXKXKXKXKXKXa z KXKXKXKXKXKXKX",
"KXKXKXKXKXKXKXKXa z z z 0.'.3X6X6X6X6X6X6X2XY.U.y.M i.U.P.f 1 X     : X.fXlXlXgX&   ^.6XR.z KXKXKXKXKXKXKXKXKXKXz j E z KXKXKXKXKXKXKX",
"KXKXKXKXKXKXKXKXKXKXa z z z A J.*X6X6X6X6X&XT.U.U.H.,.m.U.U.U.u.q $     + } iXwX  < 4X4XH z KXKXKXKXKXKXKXKXKXz z Q 9XY KXKXKXKXKXKXKX",
"KXKXKXKXKXKXKXKXKXKXKXKXKXa z z x q.{.3X6X6X3X).U.h.z N x.A.I.U.C.r.y , X     o   >.6X|.z z KXKXKXKXKXKXKXKXKXz z K 9XP z z KXKXKXKXKX",
"KXKXKXKXKXKXKXKXKXKXKXKXKXKXKXa z z z F R.-X3XT.U.H z ] s.s.d.C.d.s.s.s.( 5 #   @ ;X6Xf.z z z a KXKXKXKXKXKXKXz R 9X8X~ z KXKXKXKXKXKX",
"KXKXKXKXKXKXKXKXKXKXKXKXKXKXKXKXKXKXa z z b 6.c.Z.z x t.s.s.s.s.s.s.s.s.s.s.e.t d 6X-Xb z z z KXKXKXKXKXKXKXz z { qXI z z KXKXKXKXKXKX",
"KXKXKXKXKXKXKXKXKXKXKXKXKXKXKXKXKXKXKXKXa z z z b z D s.s.s.s.s.s.s.s.s.s.s.s.s.=X6XK.z z z z a KXKXKXKXKXKXz M 1X5Xw.z KXKXKXKXKXKXKX",
"KXKXKXKXKXKXKXKXKXKXKXKXKXKXKXKXKXKXKXKXKXKXz z z z x S 4.s.s.s.s.s.s.s.s.s.s.V.3X3XF z 2.F z z a KXKXKXKXz z M.6X-Xx z KXKXKXKXKXKXKX",
"KXKXKXKXKXKXKXKXKXKXKXKXKXKXKXKXKXKXKXKXKXa z M.[.0.x z z N ] t.s.s.s.s.s.s.s._ C N.Z B I.U.Z z KXKXKXKXKXz z #X6XK.z z KXKXKXKXKXKXKX",
"KXKXKXKXKXKXKXKXKXKXKXKXKXKXKXKXKXKXKXKXKXKXz $X6X6X%XG.C z z x D 4.s.s.s.s.a.b z v.U.D.U.m.z z a p KXKXKXz <.6X4XA z KXKXKXKXKXKXKXKX",
"KXKXKXKXKXKXKXKXKXKXKXKXKXKXKXKXKXKXKXKXKXKXKX5.'.6X6X6X3X'.7.z z z N ] t.s.1.z Z U.U.U.U.XX!.-.z z z a z z (.6X[.z z KXKXKXKXKXKXKXKX",
"KXKXKXKXKXKXKXKXKXKXKXKXKXKXKXKXKXKXKXKXKXKXp z n.6X6X6X6X6X6X%XF.B z z x G N z y.U.U.U.~.4X6X6X.X;.z z z B 2X6Xq.z KXKXKXKXKXKXKXKXKX",
"KXKXKXKXKXKXKXKXKXKXKXKXKXKXKXKXKXKXKXKXKXKXKXKX|.6X6X6X6X6X6X6X6X2X(.5.z z z z 9.L.U.U.Y.].:X6X4XH z z z B.6X*Xx z KXKXKXKXKXKXKXKXKX",
"KXKXKXKXKXKXKXKXKXKXKXKXKXKXKXKXKXKXKXKXKXKXKXKXx f.{.4X6X6X6X6X6X6X6X6X#XB.B z z b :.m.U.U.@X6X%XA z z z 0.|.G.z z KXKXKXKXKXKXKXKXKX",
"KXKXKXKXKXKXKXKXKXKXKXKXKXKXKXKXKXKXKXKXKXKXKXKXz z z H R.;X6X6X6X6X6X6X6X6X2X-.z z z z A p.,X6X6X3X[.q.x z z z z KXKXKXKXKXKXKXKXKXKX",
"KXKXKXKXKXKXKXKXKXKXKXKXKXKXKXKXKXKXKXKXKXKXKXz z z z z z x g.|.4X6X6X6XOX*X%Xx z KXa z z z B M.#X6X6X6X*XJ.A z z KXKXKXKXKXKXKXKXKXKX",
"KXKXKXKXKXKXKXKXKXKXKXKXKXKXKXKXKXKXKXKXKXKXKXz z z m cX*.v z z H E.>X6X>.x 5.a i KXKXKXKXa z z z <.(.2X6X6X3X'.KXKXKXKXKXKXKXKXKXKXKX",
"KXKXKXKXKXKXKXKXKXKXKXKXKXKXKXKXKXKXKXKXKXKXKXKXKXz =.JXJXnXxXl z z b j.z z KXKXKXKXKXKXKXKXKXa z z z B B.$X6X4XH z KXKXKXKXKXKXKXKXKX",
"KXKXKXKXKXKXKXKXKXKXKXKXKXKXKXKXKXKXKXKXSXKXKXKXKXKX&.vXBXJXbXc z z z KXKXKXKXKXKXKXKXKXKXKXKXKXKXKXa z z z 6.G.z a KXKXKXKXKXKXKXKXKX",
"KXKXKXKXKXKXKXKXKXKXKXKXKXKXKXKXKXKXKXMXJXKXKXKXKXKXz z %.zXzXz z z z KXKXKXKXKXKXKXKXKXKXKXKXKXKXKXKXKXa z z z z a KXKXKXKXKXKXKXKXKX",
"KXKXKXKXKXKXKXKXKXKXKXKXKXKXKXKXKXKXKXKXKXKXKXKXKXKXKXz z z KXKXz z KXKXKXKXKXKXKXKXKXKXKXKXKXKXKXKXKXKXKXKXKXa z z z KXKXKXKXKXKXKXKX",
"KXKXKXKXKXKXKXKXKXKXKXKXKXKXKXKXKXKXKXKXKXJXJXKXKXKXKXKXKXKXKXKXKXKXKXKXKXKXKXKXKXKXKXKXKXKXKXKXKXKXKXKXKXKXKXKXKXa a KXKXKXKXKXKXKXKX",
"KXKXKXKXKXKXKXKXKXKXKXKXKXKXKXKXKXKXKXKXKXZXJXJXJXJXKXKXKXKXKXKXKXKXKXKXKXKXKXKXKXKXKXKXKXKXKXKXKXKXKXKXKXKXKXKXKXKXKXKXKXKXKXKXKXKXKX",
"KXKXKXKXKXKXKXKXKXKXKXKXKXKXKXKXKXKXKXKXKXKXKXVXGXJXJXJXKXKXKXKXKXKXKXKXKXKXKXKXKXKXKXKXKXKXKXKXKXKXKXKXKXKXKXKXKXKXKXKXKXKXKXKXKXKXKX",
"KXKXKXKXKXKXKXKXKXKXKXKXKXKXKXKXKXKXKXKXKXKXKXKXKXNXAXJXJXJXJXKXKXGXJXKXKXKXKXKXKXKXKXKXKXKXKXKXKXKXKXKXKXKXKXKXKXKXKXKXKXKXKXKXKXKXKX",
"KXKXKXKXKXKXKXKXKXKXKXKXKXKXKXKXKXKXKXJXJXKXKXKXKXKXKXKXCXHXJXJXKXmXVXKXKXKXKXKXKXKXKXKXKXKXKXKXKXKXKXKXKXKXKXKXKXKXKXKXKXKXKXKXKXKXKX",
"KXKXKXKXKXKXKXKXKXKXKXKXKXKXKXKXKXKXKXDXVXKXKXKXKXKXKXKXKXKXNXSXKXKXKXKXKXKXKXKXKXKXKXKXKXKXKXKXKXKXKXKXKXKXKXKXKXKXKXKXKXKXKXKXKXKXKX",
"KXKXKXKXKXKXKXKXKXKXKXKXKXKXKXKXKXKXKXKXKXKXKXKXKXKXKXKXKXKXKXKXKXKXKXKXKXKXKXKXKXKXKXKXKXKXKXKXKXKXKXKXKXKXKXKXKXKXKXKXKXKXKXKXKXKXKX",
"KXKXKXKXKXKXKXKXKXKXKXKXKXKXKXKXKXKXKXKXJXJXJXJXKXKXKXKXKXKXKXKXKXKXKXKXKXKXKXKXKXKXKXKXKXKXKXKXKXKXKXKXKXKXKXKXKXKXKXKXKXKXKXKXKXKXKX",
"KXKXKXKXKXKXKXKXKXKXKXKXKXKXKXKXKXKXKXKXKXJXJXJXJXJXKXKXKXJXJXKXKXKXKXKXKXKXKXKXKXKXKXKXKXKXKXKXKXKXKXKXKXKXKXKXKXKXKXKXKXKXKXKXKXKXKX",
"KXKXKXKXKXKXKXKXKXKXKXKXKXKXKXKXKXKXKXKXKXKXKXKXJXJXJXJXKXDXKXKXKXKXKXKXKXKXKXKXKXKXKXKXKXKXKXKXKXKXKXKXKXKXKXKXKXKXKXKXKXKXKXKXKXKXKX",
"KXKXKXKXKXKXKXKXKXKXKXKXKXKXKXKXKXKXKXFXKXKXKXKXKXKXJXJXKXKXKXKXKXKXKXKXKXKXKXKXKXKXKXKXKXKXKXKXKXKXKXKXKXKXKXKXKXKXKXKXKXKXKXKXKXKXKX",
"KXKXKXKXKXKXKXKXKXKXKXKXKXKXKXKXKXKXKXJXZXKXKXKXKXKXKXKXKXKXKXKXKXKXKXKXKXKXKXKXKXKXKXKXKXKXKXKXKXKXKXKXKXKXKXKXKXKXKXKXKXKXKXKXKXKXKX",
"KXKXKXKXKXKXKXKXKXKXKXKXKXKXKXKXKXKXKXKXKXKXKXKXKXKXKXKXKXKXKXKXKXKXKXKXKXKXKXKXKXKXKXKXKXKXKXKXKXKXKXKXKXKXKXKXKXKXKXKXKXKXKXKXKXKXKX",
"KXKXKXKXKXKXKXKXKXKXKXKXKXKXKXKXKXKXKXKXHXZXKXKXJXJXGXKXKXKXKXKXKXKXKXKXKXKXKXKXKXKXKXKXKXKXKXKXKXKXKXKXKXKXKXKXKXKXKXKXKXKXKXKXKXKXKX",
"KXKXKXKXKXKXKXKXKXKXKXKXKXKXKXKXKXKXKXKXJXJXJXDXKXJXKXKXKXKXKXKXKXKXKXKXKXKXKXKXKXKXKXKXKXKXKXKXKXKXKXKXKXKXKXKXKXKXKXKXKXKXKXKXKXKXKX",
"KXKXKXKXKXKXKXKXKXKXKXKXKXKXKXKXKXKXKXKXKXKXJXJXKXKXKXKXKXKXKXKXKXKXKXKXKXKXKXKXKXKXKXKXKXKXKXKXKXKXKXKXKXKXKXKXKXKXKXKXKXKXKXKXKXKXKX",
"KXKXKXKXKXKXKXKXKXKXKXKXKXKXKXKXKXKXKXKXKXKXKXKXKXKXKXKXKXKXKXKXKXKXKXKXKXKXKXKXKXKXKXKXKXKXKXKXKXKXKXKXKXKXKXKXKXKXKXKXKXKXKXKXKXKXKX",
"KXKXKXKXKXKXKXKXKXKXKXKXKXKXKXKXKXKXKXKXKXKXKXKXKXKXKXKXKXKXKXKXKXKXKXKXKXKXKXKXKXKXKXKXKXKXKXKXKXKXKXKXKXKXKXKXKXKXKXKXKXKXKXKXKXKXKX",
"KXKXKXKXKXKXKXKXKXKXKXKXKXKXKXKXKXKXKXKXKXKXKXKXKXKXKXKXKXKXKXKXKXKXKXKXKXKXKXKXKXKXKXKXKXKXKXKXKXKXKXKXKXKXKXKXKXKXKXKXKXKXKXKXKXKXKX",
"KXKXKXKXKXKXKXKXKXKXKXKXKXKXKXKXKXKXKXKXKXKXKXKXKXKXKXKXKXKXKXKXKXKXKXKXKXKXKXKXKXKXKXKXKXKXKXKXKXKXKXKXKXKXKXKXKXKXKXKXKXKXKXKXKXKXKX",
"KXKXKXKXKXKXKXKXKXKXKXKXKXKXKXKXKXKXKXKXKXKXKXKXKXKXKXKXKXKXKXKXKXKXKXKXKXKXKXKXKXKXKXKXKXKXKXKXKXKXKXKXKXKXKXKXKXKXKXKXKXKXKXKXKXKXKX",
"KXKXKXKXKXKXKXKXKXKXKXKXKXKXKXKXKXKXKXKXKXKXKXKXKXKXKXKXKXKXKXKXKXKXKXKXKXKXKXKXKXKXKXKXKXKXKXKXKXKXKXKXKXKXKXKXKXKXKXKXKXKXKXKXKXKXKX",
"KXKXKXKXKXKXKXKXKXKXKXKXKXKXKXKXKXKXKXKXKXKXKXKXKXKXKXKXKXKXKXKXKXKXKXKXKXKXKXKXKXKXKXKXKXKXKXKXKXKXKXKXKXKXKXKXKXKXKXKXKXKXKXKXKXKXKX",
"KXKXKXKXKXKXKXKXKXKXKXKXKXKXKXKXKXKXKXKXKXKXKXKXKXKXKXKXKXKXKXKXKXKXKXKXKXKXKXKXKXKXKXKXKXKXKXKXKXKXKXKXKXKXKXKXKXKXKXKXKXKXKXKXKXKXKX"
};
