/* XPM */
static char *nave_small_8[] = {
/* columns rows colors chars-per-pixel */
"67 67 234 2 ",
"   c #000000",
".  c #010100",
"X  c #010101",
"o  c #020200",
"O  c #020202",
"+  c #030303",
"@  c #040303",
"#  c #060601",
"$  c #050505",
"%  c #060606",
"&  c #070707",
"*  c #090909",
"=  c #0B0A0A",
"-  c #0B0B0B",
";  c #111001",
":  c #141201",
">  c #1C1A01",
",  c #1F1D01",
"<  c #171515",
"1  c #171616",
"2  c #191616",
"3  c #1C1919",
"4  c #1F1D1D",
"5  c #201E01",
"6  c #201F1F",
"7  c #282601",
"8  c #3A3602",
"9  c #3E3A02",
"0  c #383414",
"q  c #282823",
"w  c #292929",
"e  c #2D2D2D",
"r  c #2E2E2E",
"t  c #302B2B",
"y  c #322D2D",
"u  c #332E2E",
"i  c #342F2F",
"p  c #333131",
"a  c #373737",
"s  c #3B3636",
"d  c #383838",
"f  c #393838",
"g  c #383939",
"h  c #393939",
"j  c #3A3939",
"k  c #3A3A3A",
"l  c #3B3A3A",
"z  c #3B3B3B",
"x  c #3C3838",
"c  c #3C3A3A",
"v  c #3D3A3A",
"b  c #3C3B3B",
"n  c #3E3B3B",
"m  c #3C3C3C",
"M  c #3D3C3C",
"N  c #3D3D3D",
"B  c #3E3C3C",
"V  c #3F3D3D",
"C  c #3E3E3E",
"Z  c #3F3E3E",
"A  c #3F3F3F",
"S  c #6F1414",
"D  c #641B1B",
"F  c #651B1B",
"G  c #611D1D",
"H  c #741111",
"J  c #413D02",
"K  c #462F2F",
"L  c #492D2D",
"P  c #4A2C2C",
"I  c #522727",
"U  c #542626",
"Y  c #502929",
"T  c #443030",
"R  c #4F3535",
"E  c #403D3D",
"W  c #433D3D",
"Q  c #413E3E",
"!  c #403F3F",
"~  c #423F3F",
"^  c #433F3F",
"/  c #453F3F",
"(  c #652222",
")  c #4B4503",
"_  c #615B04",
"`  c #625C0B",
"'  c #6C6404",
"]  c #716905",
"[  c #766E04",
"{  c #7C7305",
"}  c #414033",
"|  c #363D41",
" . c #344148",
".. c #314A58",
"X. c #295E7B",
"o. c #404040",
"O. c #414040",
"+. c #414141",
"@. c #424040",
"#. c #424141",
"$. c #424242",
"%. c #434242",
"&. c #434343",
"*. c #444040",
"=. c #454141",
"-. c #464141",
";. c #474242",
":. c #474343",
">. c #444444",
",. c #454545",
"<. c #464444",
"1. c #464545",
"2. c #474545",
"3. c #464646",
"4. c #474747",
"5. c #484141",
"6. c #494242",
"7. c #4A4444",
"8. c #4B4444",
"9. c #4B4545",
"0. c #484646",
"q. c #494646",
"w. c #494747",
"e. c #4B4646",
"r. c #4A4747",
"t. c #4C4545",
"y. c #4C4646",
"u. c #4D4646",
"i. c #4D4747",
"p. c #484848",
"a. c #494949",
"s. c #4B4949",
"d. c #4A4A4A",
"f. c #4B4B4B",
"g. c #4E4848",
"h. c #4D4B4B",
"j. c #4E4A4A",
"k. c #4E4B4B",
"l. c #4D4C4C",
"z. c #4D4D4D",
"x. c #4E4E4E",
"c. c #4F4F4F",
"v. c #504A4A",
"b. c #504D4D",
"n. c #514D4D",
"m. c #534D4D",
"M. c #514E4E",
"N. c #524E4E",
"B. c #534E4E",
"V. c #524F4F",
"C. c #534F4F",
"Z. c #5C4949",
"A. c #505050",
"S. c #515151",
"D. c #525252",
"F. c #535353",
"G. c #545050",
"H. c #555151",
"J. c #565252",
"K. c #575353",
"L. c #545454",
"P. c #555555",
"I. c #565656",
"U. c #575757",
"Y. c #585454",
"T. c #5A5757",
"R. c #5B5757",
"E. c #585858",
"W. c #5A5A5A",
"Q. c #5B5B5B",
"!. c #5C5C5C",
"~. c #5D5D5D",
"^. c #5E5E5E",
"/. c #5F5F5F",
"(. c #614A4A",
"). c #615E5E",
"_. c #606060",
"`. c gray38",
"'. c #626262",
"]. c #636363",
"[. c #646262",
"{. c #656363",
"}. c #646464",
"|. c #656565",
" X c #676565",
".X c #666666",
"XX c #676767",
"oX c #686868",
"OX c #696969",
"+X c #6A6A6A",
"@X c #6C6B6B",
"#X c #6C6C6C",
"$X c #6D6D6D",
"%X c #6E6E6E",
"&X c #6F6F6F",
"*X c #707070",
"=X c #717070",
"-X c #717171",
";X c #727070",
":X c #727272",
">X c #870505",
",X c #8B0202",
"<X c #810909",
"1X c #820808",
"2X c #890C0C",
"3X c #813131",
"4X c #8F8506",
"5X c #908606",
"6X c #918706",
"7X c #AB9F08",
"8X c #AEA107",
"9X c #AFA307",
"0X c #B1A407",
"qX c #B1A507",
"wX c #BFB107",
"eX c #C1B307",
"rX c #C3B507",
"tX c #C3B607",
"yX c #C9BB07",
"uX c #D0C108",
"iX c #E6D509",
"pX c #EBDA09",
"aX c #EEDE09",
"sX c #F0DF09",
"dX c #286180",
"fX c #246B91",
"gX c #1D7EB1",
"hX c #1D80B5",
"jX c #188BC8",
"kX c #188BC9",
"lX c #129BE4",
"zX c #119EEA",
"xX c #119EEB",
"cX c None",
/* pixels */
"cXcXcXcXcXcXcXcXcXcXcXcXcXcXcXcXcXcXcXcXcXcXcXcXcXcXcXcXcXcXcXcXcXcXcXcXcXcXcXcXcXcXcXcXcXcXcXcXcXcXcXcXcXcXcXcXcXcXcXcXcXcXcXcXcXcXcX",
"cXcXcXcXcXcXcXcXcXcXcXcXcXcXcXcXcXcXcXcXcXcXcXcXcXcXcXcXcXcXcXcXcXcXcXcXcXcXcXcXcXcXcXcXcXcXcXcXcXcXcXcXcXcXcXcXcXcXcXcXcXcXcXcXcXcXcX",
"cXcXcXcXcXcXcXcXcXcXcXcXcXcXcXcXcXcXcXcXcXcXcXcXcXcXcXcXcXcXcXcXcXcXcXcXcXcXcXcXcXcXcXcXcXcXcXcXcXcXcXcXcXcXcXcXcXcXcXcXcXcXcXcXcXcXcX",
"cXcXcXcXcXcXcXcXcXcXcXcXcXcXcXcXcXcXcXcXcXcXcXcXcXcXcXcXcXcXcXcXcXcXcXcXcXcXcXcXcXcXcXcXcXcXcXcXcXcXcXcXcXcXcXcXcXcXcXcXcXcXcXcXcXcXcX",
"cXcXcXcXcXcXcXcXcXcXcXcXcXcXcXcXcXcXcXcXcXcXcXcXcXcXcXcXcXcXcXcXcXcXcXcXcXcXcXcXcXcXcXcXcXcXcXcXcXcXcXcXcXcXcXcXcXcXcXcXcXcXcXcXcXcXcX",
"cXcXcXcXcXcXcXcXcXcXcXcXcXcXcXcXcXcXcXcXcXcXcXcXcXcXcXcXcXcXcXcXcXcXcXcXcXcXcXcXcXzXzXcXcXcXcXcXcXcXcXcXcXcXcXcXcXcXcXcXcXcXcXcXcXcXcX",
"cXcXcXcXcXcXcXcXcXcXcXcXcXcXcXcXcXcXcXcXcXcXcXcXcXcXcXcXcXcXcXcXcXcXcXcXcXcXcXcXcXxXzXzXzXcXcXcXcXcXcXcXcXcXcXcXcXcXcXcXcXcXcXcXcXcXcX",
"cXcXcXcXcXcXcXcXcXcXcXcXcXcXcXcXcXcXcXcXcXcXcXcXcXcXcXcXcXcXcXcXcXcXcXcXcXcXcXzXcXcXcXcXcXcXcXcXcXcXcXcXcXcXcXcXcXcXcXcXcXcXcXcXcXcXcX",
"cXcXcXcXcXcXcXcXcXcXcXcXcXcXcXcXcXcXcXcXcXcXcXcXcXcXcXcXcXcXcXcXcXcXcXcXcXcXcXcXcXcXcXcXcXcXcXcXcXcXcXcXcXcXcXcXcXcXcXcXcXcXcXcXcXcXcX",
"cXcXcXcXcXcXcXcXcXcXcXcXcXcXcXcXcXcXcXcXcXcXcXcXcXcXcXcXcXcXcXcXcXcXcXcXcXcXcXcXcXcXcXcXxXzXcXcXcXcXcXcXcXcXcXcXcXcXcXcXcXcXcXcXcXcXcX",
"cXcXcXcXcXcXcXcXcXcXcXcXcXcXcXcXcXcXcXcXcXcXcXcXcXcXcXcXcXcXcXcXcXcXcXcXcXcXcXcXcXcXcXcXcXcXcXcXcXcXcXcXcXcXcXcXcXcXcXcXcXcXcXcXcXcXcX",
"cXcXcXcXcXcXcXcXcXcXcXcXcXcXcXcXcXcXcXcXcXcXcXcXcXcXcXcXcXcXcXcXcXcXcXcXcXzXzXzXzXcXcXcXcXcXcXcXcXcXcXcXcXcXcXcXcXcXcXcXcXcXcXcXcXcXcX",
"cXcXcXcXcXcXcXcXcXcXcXcXcXcXcXcXcXcXcXcXcXcXcXcXcXcXcXcXcXcXcXcXcXcXcXzXcXcXcXzXzXzXzXzXcXcXcXcXcXcXcXcXcXcXcXcXcXcXcXcXcXcXcXcXcXcXcX",
"cXcXcXcXcXcXcXcXcXcXcXcXcXcXcXcXcXcXcXcXcXcXcXcXcXcXcXcXcXcXcXcXcXcXcXzXcXcXcXcXcXcXzXzXzXcXcXcXcXcXcXcXcXcXcXcXcXcXcXcXcXcXcXcXcXcXcX",
"cXcXcXcXcXcXcXcXcXcXcXcXcXcXcXcXcXcXcXcXcXcXcXcXcXcXcXcXcXcXcXcXcXcXcXcXcXcXcXcXcXcXcXcXcXcXcXcXcXcXcXcXcXcXcXcXcXcXcXcXcXcXcXcXcXcXcX",
"cXcXcXcXcXcXcXcXcXcXcXcXcXcXcXcXcXcXcXcXcXcXcXcXcXcXcXcXcXcXcXcXcXcXcXcXcXcXcXcXcXcXcXcXcXzXcXcXcXcXcXcXcXcXcXcXcXcXcXcXcXcXcXcXcXcXcX",
"cXcXcXcXcXcXcXcXcXcXcXcXcXcXcXcXcXcXcXcXcXcXcXcXcXcXcXcXcXcXcXcXcXzXzXzXcXcXcXcXcXcXcXcXcXzXcXcXcXcXcXcXcXcXcXcXcXcXcXcXcXcXcXcXcXcXcX",
"cXcXcXcXcXcXcXcXcXcXcXcXcXcXcXcXcXcXcXcXcXcXcXcXcXcXcXcXcXcXcXzXcXcXzXzXzXzXzXcXcXcXcXcXcXcXcXcXcXcXcXcXcXcXcXcXcXcXcXcXcXcXcXcXcXcXcX",
"cXcXcXcXcXcXcXcXcXcXcXcXcXcXcXcXcXcXcXcXcXcXcXcXcXcXcXcXcXcXcXzXcXcXcXcXcXzXzXzXzXzXxXcXcXcXcXcXcXcXcXcXcXcXcXcXcXcXcXcXcXcXcXcXcXcXcX",
"cXcXcXcXcXcXcXcXcXcXcXcXcXcXcXcXcXcXcXcXcXcXcXcXcXcXcXcXcXcXcXcXcXcXcXcXcXcXcXcXzXzXzXzXzXcXcXcXcXcXcXcXcXcXcXcXcXcXcXcXcXcXcXcXcXcXcX",
"cXcXcXcXcXcXcXcXcXcXcXcXcXcXcXcXcXcXcXcXcXcXcXcXcXcXcXcXcXcXcXcXcXcXcXcXcXcXcXcXcXcXcXzXzXcXcXcXcXcXcXcXcXcXcXcXcXcXcXcXcXcXcXcXcXcXcX",
"cXcXcXcXcXcXcXcXcXcXcXcXcXcXcXcXcXcXcXcXcXcXcXcXcXcXcXcXcXcXcXcXcXcXcXcXd d cXcXcXcXcXcXcXcXcXcXcXcXcXcXcXcXcXcXcXcXcXcXcXcXcXcXcXcXcX",
"cXcXcXcXcXcXcXcXcXcXcXcXcXcXcXcXcXcXcXcXcXcXcXcXcXcXcXcXcXcXcXcXd d cXcX| d d d cXcXcXcXcXzXcXcXcXcXcXcXcXcXcXcXcXcXcXcXcXcXcXcXcXcXcX",
"cXcXcXcXcXcXcXd d d cXcXcXcXcXcXcXcXcXcXcXcXcXcXcXcXcXcXcXcXcXd d d d gXlXhXX.cXcXcXcXcXcXcXcXcXcXcXcXcXcXcXcXcXcXcXcXcXcXcXcXcXcXcXcX",
"cXcXcXcXcXcXcXcXd d d d d d cXcXcXcXcXcXcXcXcXcXcXcXcXcXcXcXcXd d d g jXzXzXzXdXcXcXcXcXcXcXcXcXcXcXcXcXcXcXcXcXcXcXcXcXcXcXcXcXcXcXcX",
"cXcXcXcXcXcXcXcXd d 4.o.d d d d d cXcXcXcXcXcXcXcXcXcXcXd d D.3.h d d d ..fXkX .d d d cXcXcXcXcXcXcXcXcXcXcXcXcXcXcXcXcXcXcXcXcXcXcXcX",
"cXcXcXcXcXcXcXcXd d +X:XXXL.$.d d d d d cXcXcXcXcXcXd cXz N =X:X$XQ.p.h d d d d d d d cXcXcXcXcXcXcXcXcXcXcXcXcXcXcXcXcXcXcXcXcXcXcXcX",
"cXcXcXcXcXcXcXcXcXcX].-X:X:X:XOXI.&.d d d d d cXcXd d W.*XXX:X:X:X:X:X%X!.a.k d d d d cXcXcXcXcXcXcXcXcXcXcXcXcXcXcXcXcXcXcXcXcXcXcXcX",
"cXcXcXcXcXcXcXcXcXcXd N x.`.*X:X:X:X+XU.#.d d d d d d }.:X:X:X:X:X:X:X:X:X:X&X~.f.k cXcXcXcXcXcXcXcXcXcXcXcXcXcXcXcXcXcXcXcXcXcXcXcXcX",
"cXcXcXcXcXcXcXcXcXd d d d d m z._.*X:X:XR.V.w.Z f d d d $.P.oX:X:X:X:X:X:X:X:X:X:X&XcXcXcXcXcXcXcXcXcXcXcXcXcXcXcXcXcXcXcXcXcXcXcXcXcX",
"cXcXcXcXcXcXcXcXcXd k `.A.j d d d x.:X&XY.J.J.J.C.r.b d d d d +.L.XX:X:X:X:X:X:X:XOXd d cXcXcXcXcXcXcXcXcXcXcXcXcXcXcXcXcXcXcXcXcXcXcX",
"cXcXcXcXcXcXcXcXcXd a.:X#Xh d d d _.:X:X=X[.J.J.J.J.b d Q B f d d d o.D.|.:X:X:X:X#XF.$.cXcXcXcXcXcXcXcXcXcXcXcXcXcXcXcXcXcXcXcXcXcXcX",
"cXcXcXcXcXcXcXcXd d !.:XW.d d d d >.U.+X:X).J.J.J.b.d h t.u.t.=.V h d d d A S.}.-X:X:XA.d cXcXcXcXcXcXcXcXcXcXcXcXcXcXcXcXcXcXcXcXcXcX",
"cXcXcXcXcXcXcXcXd h %X:X4.d cXd d d d d &.K.J.J.J.<.d V u.u.u.u.u.t.-.V h d d d N c.'.N d cXcXcXcXcXcXcXcXcXcXcXcXcXcXcXcXcXcXcXcXcXcX",
"cXcXcXcXcXcXcXcXd p.:X$Xh d cXcXcXcXd d ! J.G.N 2.1.d -.u.u.u.u.u.u.u.u.y.;.E j d d d d d cXcXcXcXcXcXcXcXcXcXcXcXcXcXcXcXcXcXcXcXcXcX",
"cXcXcXcXcXcXcXcXd Q.:XQ.d d cXcXcXcXd d Z h.r.d &.:XoXu.u.u.u.u.u.u.u.u.u.u.u.y.l d h d d d d d cXcXcXcXcXcXcXcXcXcXcXcXcXcXcXcXcXcXcX",
"cXcXcXcXcXcXcXd h $X:Xp.d cXcXcXcXcXd d d d d d I.:X Xu.u.u.u.u.u.u.u.u.u.u.u.8.d d N.k.l.C d d d d cXcXcXcXcXcXcXcXcXcXcXcXcXcXcXcXcX",
"cXcXcXcXcXcXcXd 3.:X%Xj d cXcXcXcXcXcXcXd d d d oX:Xc i 6.u.u.u.u.u.u.u.u.u.u.*.d Z J.Y.-X-X|.D.A d d d d cXcXcXcXcXcXcXcXcXcXcXcXcXcX",
"cXcXcXcXcXcXcXd ( 3X(.d d cXcXcXcXcXcXcXd d d +.:X&X*   @ 2 y 5.u.u.g.H.m.v.u.M d 0.J.T.@X:X:X:X:X.XF.+.d d d d d cXcXcXcXcXcXcXcXcXcX",
"cXcXcXcXcXcXd f 1X,XI d cXcXcXcXcXcXcXcXd d d L.:XF.  o .     + < t e.J.J.J.H.s.O.M.J.J.J.{.:X:X:X:X:X:XXXL.$.d d d d d cXcXcXcXcXcXcX",
"cXcXcXcXcXcXd P ,X>Xs d cXcXcXcXcXcXcXcXcXd d XX:Xr   _ tX[ 7 .     O 1 p j.J.J.b.j %.J.J.#X:X:X:X|.].=X:X:X:XOXI.&.d d d d cXcXcXcXcX",
"cXcXcXcXcXcXd F ,XS d d cXcXcXcXcXcXcXcXcXd o.:X*X-   0XsXsXsX9X) > .     O *.J.<.d @.J.V.d.~.%X:Xa.d N x.`.*X:X:X-XN d d d cXcXcXcXcX",
"cXcXcXcXcXcXcXT G Y d cXcXcXcXcXcXcXcXcXcXcXP.&XI.  : pXsXsXsXqX5X5X{ 8   & G.J.M d #.N.q.d d k p.k d d d d m z._.|.d d cXcXcXcXcXcXcX",
"cXcXcXcXcXcXcXd d cXcXcXcXcXcXcXcXcXcXcXcXcXd k z.e ` sXsXsXsXuX8X6X5X9   6 J.n.d d d d h d d d d d d d j C d d d cXcXcXcXcXcXcXcXcXcX",
"cXcXcXcXcXcXcXcXcXcXcXcXcXcXcXcXcXcXcXcXcXcXd h #X:Xq J eXsXsXsXiX6X4X;   v J.2.d d d d d d cXcXcXd d d p.-X/.d d cXcXcXcXcXcXcXcXcXcX",
"cXcXcXcXcXcXcXcXcXcXcXcXcXcXcXcXcXcXcXcXcXcXd ,.:X#X$ . yXsXsXsXrX5X]   $ i.B.N d d d cXcXcXcXcXcXcXd d !.:XW.d d cXcXcXcXcXcXcXcXcXcX",
"cXcXcXcXcXcXcXcXcXcXcXcXcXcXcXcXcXcXcXcXcXd d E.:X:X'.} wXaXsXsX9 5 0 = 3 u.7.d d cXd cXcXcXcXcXcXcXd h $X:X4.d cXcXcXcXcXcXcXcXcXcXcX",
"cXcXcXcXcXcXcXcXcXcXcXcXcXcXcXcXcXcXcXcXcXd d d._.-X:XN   , ' 7X# X W u.n ^ ~ d d cXcXcXcXcXcXcXcXcXd 4.:X$Xh d cXcXcXcXcXcXcXcXcXcXcX",
"cXcXcXcXcXcXcXcXcXcXcXcXcXcXcXcXcXcXcXcXcXd d d z *X:Xa %     4 / u u.t.h d cXcXcXcXcXcXcXcXcXcXcXd d W.:X!.d d cXcXcXcXcXcXcXcXcXcXcX",
"cXcXcXcXcXcXcXcXcXcXcXcXcXcXcXcXcXcXcXcXcXcXcXd f.:X:X:X$Xx.w x u.u.u.-.d d cXcXcXcXcXcXcXcXcXcXcXd h #X:Xa.d cXcXcXcXcXcXcXcXcXcXcXcX",
"cXcXcXcXcXcXcXcXcXcXcXcXcXcXcXcXcXcXcXcXcXcXd d ^.:X:X:X:X:X:X=X X:.9.V d cXcXcXcXcXcXcXcXcXcXcXcXd ,.:X%Xk d cXcXcXcXcXcXcXcXcXcXcXcX",
"cXcXcXcXcXcXcXcXcXcXcXcXcXcXcXcXcXcXcXcXcXcXd j %X:X:X:X:X:X:X:XoXd f f d cXcXcXcXcXcXcXcXcXcXcXd d Z.;X~.d d cXcXcXcXcXcXcXcXcXcXcXcX",
"cXcXcXcXcXcXcXcXcXcXcXcXcXcXcXcXcXcXcXcXcXcXd d C P.:X:X:X:X:X:XP.d d d d cXcXcXcXcXcXcXcXcXcXcXd f <X2XR d cXcXcXcXcXcXcXcXcXcXcXcXcX",
"cXcXcXcXcXcXcXcXcXcXcXcXcXcXcXcXcXcXcXcXcXcXcXd d S.:X:X:X-X=X:X$.d cXcXcXcXcXcXcXcXcXcXcXcXcXcXd L ,X>Xs d cXcXcXcXcXcXcXcXcXcXcXcXcX",
"cXcXcXcXcXcXcXcXcXcXcXcXcXcXcXcXcXcXcXcXcXcXcXd d F.%X:X:X^.m f.d d cXcXcXcXcXcXcXcXcXcXcXcXcXd d D ,XS d d cXcXcXcXcXcXcXcXcXcXcXcXcX",
"cXcXcXcXcXcXcXcXcXcXcXcXcXcXcXcXcXcXcXcXcXcXcXd d d h p.Q.a.d d d cXcXcXcXcXcXcXcXcXcXcXcXcXcXcXcXH ,XU d cXcXcXcXcXcXcXcXcXcXcXcXcXcX",
"cXcXcXcXcXcXcXcXcXcXcXcXcXcXcXcXcXcXcXcXcXcXcXcXcXd d d d d d cXd cXcXcXcXcXcXcXcXcXcXcXcXcXcXcXcXd K cXd cXcXcXcXcXcXcXcXcXcXcXcXcXcX",
"cXcXcXcXcXcXcXcXcXcXcXcXcXcXcXcXcXcXcXcXcXcXcXcXcXd d d d d d cXcXcXcXcXcXcXcXcXcXcXcXcXcXcXcXcXcXd cXcXcXcXcXcXcXcXcXcXcXcXcXcXcXcXcX",
"cXcXcXcXcXcXcXcXcXcXcXcXcXcXcXcXcXcXcXcXcXcXcXcXcXd d d cXcXcXcXcXcXcXcXcXcXcXcXcXcXcXcXcXcXcXcXcXcXcXcXcXcXcXcXcXcXcXcXcXcXcXcXcXcXcX",
"cXcXcXcXcXcXcXcXcXcXcXcXcXcXcXcXcXcXcXcXcXcXcXcXcXcXcXcXcXcXcXcXcXcXcXcXcXcXcXcXcXcXcXcXcXcXcXcXcXcXcXcXcXcXcXcXcXcXcXcXcXcXcXcXcXcXcX",
"cXcXcXcXcXcXcXcXcXcXcXcXcXcXcXcXcXcXcXcXcXcXcXcXcXcXcXcXcXcXcXcXcXcXcXcXcXcXcXcXcXcXcXcXcXcXcXcXcXcXcXcXcXcXcXcXcXcXcXcXcXcXcXcXcXcXcX",
"cXcXcXcXcXcXcXcXcXcXcXcXcXcXcXcXcXcXcXcXcXcXcXcXcXcXcXcXcXcXcXcXcXcXcXcXcXcXcXcXcXcXcXcXcXcXcXcXcXcXcXcXcXcXcXcXcXcXcXcXcXcXcXcXcXcXcX",
"cXcXcXcXcXcXcXcXcXcXcXcXcXcXcXcXcXcXcXcXcXcXcXcXcXcXcXcXcXcXcXcXcXcXcXcXcXcXcXcXcXcXcXcXcXcXcXcXcXcXcXcXcXcXcXcXcXcXcXcXcXcXcXcXcXcXcX",
"cXcXcXcXcXcXcXcXcXcXcXcXcXcXcXcXcXcXcXcXcXcXcXcXcXcXcXcXcXcXcXcXcXcXcXcXcXcXcXcXcXcXcXcXcXcXcXcXcXcXcXcXcXcXcXcXcXcXcXcXcXcXcXcXcXcXcX",
"cXcXcXcXcXcXcXcXcXcXcXcXcXcXcXcXcXcXcXcXcXcXcXcXcXcXcXcXcXcXcXcXcXcXcXcXcXcXcXcXcXcXcXcXcXcXcXcXcXcXcXcXcXcXcXcXcXcXcXcXcXcXcXcXcXcXcX",
"cXcXcXcXcXcXcXcXcXcXcXcXcXcXcXcXcXcXcXcXcXcXcXcXcXcXcXcXcXcXcXcXcXcXcXcXcXcXcXcXcXcXcXcXcXcXcXcXcXcXcXcXcXcXcXcXcXcXcXcXcXcXcXcXcXcXcX",
"cXcXcXcXcXcXcXcXcXcXcXcXcXcXcXcXcXcXcXcXcXcXcXcXcXcXcXcXcXcXcXcXcXcXcXcXcXcXcXcXcXcXcXcXcXcXcXcXcXcXcXcXcXcXcXcXcXcXcXcXcXcXcXcXcXcXcX"
};
