/* XPM */
static char *nave_small_9[] = {
/* columns rows colors chars-per-pixel */
"67 67 238 2 ",
"   c #000000",
".  c #010100",
"X  c #010101",
"o  c #020200",
"O  c #020202",
"+  c #030303",
"@  c #070700",
"#  c #040403",
"$  c #060505",
"%  c #080707",
"&  c #0A0900",
"*  c #0D0C00",
"=  c #0D0C01",
"-  c #090909",
";  c #0C0B0B",
":  c #0D0D0D",
">  c #0E0D0D",
",  c #0E0E0E",
"<  c #141301",
"1  c #1A1801",
"2  c #1E1C01",
"3  c #111111",
"4  c #151313",
"5  c #181616",
"6  c #191919",
"7  c #1A1919",
"8  c #1C1B1B",
"9  c #201D1D",
"0  c #272501",
"q  c #2D2A03",
"w  c #2E2B05",
"e  c #343002",
"r  c #232323",
"t  c #272525",
"y  c #272727",
"u  c #2C2828",
"i  c #2F2B2B",
"p  c #312D2D",
"a  c #312F2F",
"s  c #332E2E",
"d  c #343434",
"f  c #393434",
"g  c #3B3636",
"h  c #3A3737",
"j  c #3E3434",
"k  c #3D3737",
"l  c #37393A",
"z  c #373B3E",
"x  c #383838",
"c  c #393838",
"v  c #393939",
"b  c #3A3939",
"n  c #3A3A3A",
"m  c #3B3A3A",
"M  c #3B3B3B",
"N  c #3C3C3C",
"B  c #3D3D3D",
"V  c #3E3C3C",
"C  c #3E3D3D",
"Z  c #3F3D3D",
"A  c #3E3E3E",
"S  c #3F3E3E",
"D  c #3F3F3F",
"F  c #7F0A0A",
"G  c #790E0E",
"H  c #7A0E0E",
"J  c #6F1515",
"K  c #691818",
"L  c #751010",
"P  c #472E2E",
"I  c #4D2B2B",
"U  c #522727",
"Y  c #542626",
"T  c #512828",
"R  c #403333",
"E  c #443030",
"W  c #443131",
"Q  c #403A3A",
"!  c #403D3D",
"~  c #423C3C",
"^  c #433D3D",
"/  c #413E3E",
"(  c #423F3F",
")  c #762E2E",
"_  c #773939",
"`  c #474203",
"'  c #4A4503",
"]  c #645E04",
"[  c #797004",
"{  c #7E7505",
"}  c #4D4B30",
"|  c #363D41",
" . c #354147",
".. c #34434B",
"X. c #304E5E",
"o. c #2C576F",
"O. c #2A5B76",
"+. c #404040",
"@. c #414141",
"#. c #424040",
"$. c #424141",
"%. c #424242",
"&. c #434343",
"*. c #444040",
"=. c #454141",
"-. c #464141",
";. c #454343",
":. c #474242",
">. c #444444",
",. c #454545",
"<. c #464444",
"1. c #464646",
"2. c #474747",
"3. c #484141",
"4. c #484343",
"5. c #494444",
"6. c #4A4444",
"7. c #4B4545",
"8. c #4A4747",
"9. c #4B4747",
"0. c #4C4545",
"q. c #4D4646",
"w. c #4E4747",
"e. c #484848",
"r. c #494949",
"t. c #4B4848",
"y. c #4A4A4A",
"u. c #4B4B4B",
"i. c #4C4949",
"p. c #4C4A4A",
"a. c #4D4B4B",
"s. c #4E4B4B",
"d. c #4F4B4B",
"f. c #4C4C4C",
"g. c #4D4D4D",
"h. c #4F4C4C",
"j. c #4F4F4C",
"k. c #4E4E4E",
"l. c #4F4F4F",
"z. c #504949",
"x. c #514C4C",
"c. c #514D4D",
"v. c #524D4D",
"b. c #514E4E",
"n. c #524E4E",
"m. c #534F4F",
"M. c #544F4F",
"N. c #505050",
"B. c #515151",
"V. c #525252",
"C. c #535353",
"Z. c #545050",
"A. c #555151",
"S. c #555353",
"D. c #565252",
"F. c #545454",
"G. c #555555",
"H. c #565656",
"J. c #575757",
"K. c #5A5757",
"L. c #5B5757",
"P. c #585858",
"I. c #595959",
"U. c #5A5A5A",
"Y. c #5B5B5B",
"T. c #5D5B5B",
"R. c #5C5C5C",
"E. c #5D5D5D",
"W. c #5E5C5C",
"Q. c #5E5E5E",
"!. c #695353",
"~. c #625F5F",
"^. c #606060",
"/. c #616161",
"(. c #626262",
"). c #636363",
"_. c #646363",
"`. c #656363",
"'. c #646464",
"]. c #656565",
"[. c #666464",
"{. c #676565",
"}. c #666666",
"|. c #676767",
" X c #696767",
".X c #686868",
"XX c #696969",
"oX c #6A6A6A",
"OX c #6B6B6B",
"+X c #6C6C6C",
"@X c #6D6D6D",
"#X c #6E6E6E",
"$X c #6F6F6F",
"%X c #706464",
"&X c #707070",
"*X c #717171",
"=X c #727171",
"-X c #727272",
";X c #870505",
":X c #850606",
">X c #890303",
",X c #8B0202",
"<X c #8A0303",
"1X c #810909",
"2X c #881010",
"3X c #827905",
"4X c #867C05",
"5X c #887F06",
"6X c #8D8305",
"7X c #8E8406",
"8X c #8F8506",
"9X c #908606",
"0X c #958B06",
"qX c #968B06",
"wX c #9D9206",
"eX c #A89C07",
"rX c #B6A907",
"tX c #B8AB07",
"yX c #BDB007",
"uX c #C4B607",
"iX c #DACA08",
"pX c #E0D008",
"aX c #E1D108",
"sX c #E6D609",
"dX c #EEDD09",
"fX c #EFDE09",
"gX c #F0DF09",
"hX c #22719C",
"jX c #1F79AA",
"kX c #1C80B5",
"lX c #188BC9",
"zX c #1594D9",
"xX c #1399E1",
"cX c #129AE4",
"vX c #119EEA",
"bX c #119EEB",
"nX c #119FEB",
"mX c None",
/* pixels */
"mXmXmXmXmXmXmXmXmXmXmXmXmXmXmXmXmXmXmXmXmXmXmXmXmXmXmXmXmXmXmXmXmXmXmXmXmXmXmXmXmXmXmXmXmXmXmXmXmXmXmXmXmXmXmXmXmXmXmXmXmXmXmXmXmXmXmX",
"mXmXmXmXmXmXmXmXmXmXmXmXmXmXmXmXmXmXmXmXmXmXmXmXmXmXmXmXmXmXmXmXmXmXmXmXmXmXmXmXmXmXmXmXmXmXmXmXmXmXmXmXmXmXmXmXmXmXmXmXmXmXmXmXmXmXmX",
"mXmXmXmXmXmXmXmXmXmXmXmXmXmXmXmXmXmXmXmXmXmXmXmXmXmXmXmXmXmXmXmXmXmXmXmXmXmXmXmXmXmXmXmXmXmXmXmXmXmXmXmXmXmXmXmXmXmXmXmXmXmXmXmXmXmXmX",
"mXmXmXmXmXmXmXmXmXmXmXmXmXmXmXmXmXmXmXmXmXmXmXmXmXmXmXmXmXmXmXmXmXmXmXmXmXmXmXmXmXmXmXmXmXmXmXmXmXmXmXmXmXmXmXmXmXmXmXmXmXmXmXmXmXmXmX",
"mXmXmXmXmXmXmXmXmXmXmXmXmXmXmXmXmXmXmXmXmXmXmXmXmXmXmXmXmXmXmXmXmXmXmXmXmXmXmXmXmXmXmXmXmXmXmXmXmXmXmXmXmXmXmXmXmXmXmXmXmXmXmXmXmXmXmX",
"mXmXmXmXmXmXmXmXmXmXmXmXmXmXmXmXmXmXmXmXmXmXmXmXmXmXmXmXmXmXmXmXmXmXmXmXmXmXmXmXmXmXmXmXmXmXmXmXmXmXmXmXmXmXmXmXmXmXmXmXmXmXmXmXmXmXmX",
"mXmXmXmXmXmXmXmXmXmXmXmXmXmXmXmXmXmXmXmXmXmXmXmXmXmXmXmXmXmXmXmXmXmXmXmXmXmXmXmXmXmXmXmXmXmXmXmXmXmXmXmXmXmXmXmXmXmXmXmXmXmXmXmXmXmXmX",
"mXmXmXmXmXmXmXmXmXmXmXmXmXmXmXmXmXmXmXmXmXmXmXmXmXmXmXmXmXmXmXmXmXmXmXmXmXmXmXmXmXmXmXmXmXmXmXmXmXmXmXmXvXmXmXmXmXmXmXmXmXmXmXmXmXmXmX",
"mXmXmXmXmXmXmXmXmXmXmXmXmXmXmXmXmXmXmXmXmXmXmXmXmXmXmXmXmXmXmXmXmXmXmXmXmXmXmXmXmXmXmXmXmXmXmXmXbXvXmXbXvXvXmXmXmXmXmXmXmXmXmXmXmXmXmX",
"mXmXmXmXmXmXmXmXmXmXmXmXmXmXmXmXmXmXmXmXmXmXmXmXmXmXmXmXmXmXmXmXmXmXmXmXmXmXmXmXmXmXmXmXmXmXmXmXmXmXmXmXmXvXvXmXmXmXmXmXmXmXmXmXmXmXmX",
"mXmXmXmXmXmXmXmXmXmXmXmXmXmXmXmXmXmXmXmXmXmXmXmXmXmXmXmXmXmXmXmXmXmXmXmXmXmXmXmXmXmXmXmXmXmXmXmXmXmXmXmXmXmXmXmXmXmXmXmXmXmXmXmXmXmXmX",
"mXmXmXmXmXmXmXmXmXmXmXmXmXx x mXmXmXmXmXmXmXmXmXmXmXmXmXmXmXmXmXmXmXmXmXmXmXmXmXmXmXmXvXbXmXvXvXmXmXmXmXmXmXmXmXmXmXmXmXmXmXmXmXmXmXmX",
"mXmXmXmXmXmXmXmXmXmXmXmXmXmXx x x mXmXmXmXmXmXmXmXmXmXmXmXmXmXmXmXmXmXmXmXmXmXmXmXmXmXvXmXmXvXvXvXmXmXmXmXbXvXmXmXmXmXmXmXmXmXmXmXmXmX",
"mXmXmXmXmXmXmXmXmXmXmXmXmXmXx x x x mXmXmXmXmXmXmXmXmXmXmXmXmXmXmXmXmXmXmXmXmXmXmXmXmXmXmXmXmXmXvXvXmXmXmXmXmXmXmXmXmXmXmXmXmXmXmXmXmX",
"mXmXmXmXmXmXmXmXmXmXmXmXmXx x l.D x x mXmXmXmXmXmXmXmXmXmXmXmXmXmXmXmXmXmXmXmXmXbXvXmXmXmXmXmXmXmXvXvXmXmXmXmXmXmXmXmXmXmXmXmXmXmXmXmX",
"mXmXmXmXmXmXmXmXmXmXmXmXmXmXu.=X+X,.x x mXmXmXmXmXmXmXmXmXmXmXmXmXmXmXmXmXbXvXmXvXvXvXmXmXmXmXmXmXmXvXvXmXmXmXmXmXmXmXmXmXmXmXmXmXmXmX",
"mXmXmXmXmXmXmXmXmXmXmXmXmXmX+.|.-X&Xg.x x mXmXmXmXmXmXmXmXmXmXmXmXmXmXmXmXmXmXmXmXvXvXvXmXmXmXmXmXmXmXbXmXmXmXmXmXmXmXmXmXmXmXmXmXmXmX",
"mXmXmXmXmXmXmXmXmXmXmXmXmXx x M ^.-X=XH.c x mXmXmXmXmXmXmXmXmXmXmXmXmXmXmXmXmXmXmXmXmXvXvXmXmXmXmXmXmXmXmXmXmXmXmXmXmXmXmXmXmXmXmXmXmX",
"mXmXmXmXmXmXmXmXmXmXmXmXx x n x v P.-X-XQ.m x x mXmXmXmXmXmXmXmXmXmXmXmXmXmXmXmXmXmXmXmXvXvXbXmXmXmXmXvXbXmXmXmXmXmXmXmXmXmXmXmXmXmXmX",
"mXmXmXmXmXmXmXmXmXmXmXmXx B XXl.x x l.*X-X}.A x x mXmXmXmXmXmXmXmXmXmXmXx x mXmXmXmXmXmXmXvXvXbXmXmXmXmXmXmXmXmXmXmXmXmXmXmXmXmXmXmXmX",
"mXmXmXmXmXmXmXmXmXmXmXx n '.-XoXm x x 1.#X-X+X&.x x mXmXmXmXmXmXmXmXmXx x x x mXmXx mXmXmXmXvXvXbXmXmXmXmXmXmXmXmXmXmXmXmXmXmXmXmXmXmX",
"mXmXmXmXmXmXmXmXmXmXx x E.-X#X@.x x x x H.-X=XT.#.x x mXmXx x mXx b mXx x x x o.hXl x mXmXmXmXbXvXvXmXmXmXmXmXmXmXmXmXmXmXmXmXmXmXmXmX",
"mXmXmXmXmXmXmXmXmXx x C.-X*Xe.x x x x e.*X-X{.D.D.<.x x x x f..X+.U.$Xr.x x  .xXvXkX| x mXmXmXmXmXmXmXmXmXmXmXmXmXmXmXmXmXmXmXmXmXmXmX",
"mXmXmXmXmXmXmXmXx x u.=X-XB.x x mXx x B '.-X=X~.D.D.t.v x b XX-X&X-X-X=XV.x x O.cXvXlXmXmXmXmXmXmXmXmXmXmXmXmXmXmXmXmXmXmXmXmXmXmXmXmX",
"mXmXmXmXmXmXmXmXx &.$X-XU.x x mXmXmXx x n E.-X_.D.D.D.h.m x A }.-X-X-X-X-XY.b x X.zXjXx mXmXmXmXnXvXmXmXmXmXmXmXmXmXmXmXmXmXmXmXmXmXmX",
"mXmXmXmXmXmXmXx R _ =X(.v x mXmXmXmXmXx x x S.D.D.D.D.A.C x x n Q.-X-X-X-X-X).N x ..z x x mXmXmXmXbXmXmXmXmXmXmXmXmXmXmXmXmXmXmXmXmXmX",
"mXmXmXmXmXmXx g H ,X) N x mXmXmXmXmXmXx x C A.D.D.D.D.#.x b V x c G.=X-X-X-X-XoX@.x x x x x mXmXmXmXmXmXmXmXmXmXmXmXmXmXmXmXmXmXmXmXmX",
"mXmXmXmXmXmXx J ,X:XE x x mXmXmXmXmXmXx x $.A.a.S m.<.x c 4.q./ x x f.&X-X-X-X-X#X2.x x x mXmXmXmXmXmXmXmXmXmXmXmXmXmXmXmXmXmXmXmXmXmX",
"mXmXmXmXmXmXmX<X>XI x x mXmXmXmXmXmXmXmXx x S n x k.>.x =.q.q.q.*.c x ,.+X-X-X-X-X*XN.x mXmXmXmXmXmXmXmXmXmXmXmXmXmXmXmXmXmXmXmXmXmXmX",
"mXmXmXmXmXmXx U Y x x mXmXmXmXmXmXmXmXmXx x x x 1.&X&Xi.q.q.q.q.q.:.b x D |.-X-X-X-X-XU.mXmXmXmXmXmXmXmXmXmXmXmXmXmXmXmXmXmXmXmXmXmXmX",
"mXmXmXmXmXmXx mXmXx mXmXmXmXmXmXmXmXmXx x x x +.@X-X[.w.q.q.q.q.q.q.6.m x M ^.-X-X-X#X@.x mXmXmXmXmXmXmXmXmXmXmXmXmXmXmXmXmXmXmXmXmXmX",
"mXmXmXmXmXmXmXmXmXmXmXmXmXmXmXmXmXmXmXmXx x M .X-XR.i q.q.q.q.q.q.q.q.0.V x v J.-X-X).n x mXmXmXmXmXmXmXmXmXmXmXmXmXmXmXmXmXmXmXmXmXmX",
"mXmXmXmXmXmXmXmXmXmXmXmXmXmXmXmXmXmXmXmXx v /.-X}.:   9 7.q.q.q.q.q.q.q.q./ x x k.*X-X}.mXmXmXmXmXmXmXmXmXmXmXmXmXmXmXmXmXmXmXmXmXmXmX",
"mXmXmXmXmXmXmXmXmXmXmXmXmXmXmXmXmXmXmXx x I.-X#X6       4 3.q.q.q.q.q.q.q.q.*.c x 1.@Xy.x mXmXmXmXmXmXmXmXmXmXmXmXmXmXmXmXmXmXmXmXmXmX",
"mXmXmXmXmXmXmXmXmXmXmXmXmXmXmXmXmXmXmXmXmX-X*Xy   < 6X*   ; ~ q.q.q.q.q.q.q.q.( x x M x x mXmXmXmXmXmXmXmXmXmXmXmXmXmXmXmXmXmXmXmXmXmX",
"mXmXmXmXmXmXmXmXmXmXmXmXmXmXmXmXmXmXmXmXv I.c   @ rXgXuX2   $ f q.v.x.q.q.q.5.v x v x x mXmXmXmXmXmXmXmXmXmXmXmXmXmXmXmXmXmXmXmXmXmXmX",
"mXmXmXmXmXmXmXmXmXmXmXmXmXmXmXmXmXmXmXx x g.,.# 0XgXgXgXiXe   O p D.D.v.q.7.m x S m.S x x mXmXmXmXmXmXmXmXmXmXmXmXmXmXmXmXmXmXmXmXmXmX",
"mXmXmXmXmXmXmXmXmXmXmXmXmXmXmXmXmXmXx x ,.&X-X} pXgXgXgXsXqXe   X t A.D.M.Z x N Z.D.W.k.x x mXmXmXmXmXmXmXmXmXmXmXmXmXmXmXmXmXmXmXmXmX",
"mXmXmXmXmXmXmXmXmXmXmXmXmXmXmXmXmXmXx D @X-XB.O 0 aXgXgXyX9X8X' .   7 c.D.n.S b.D.K.*X-XJ.c x x mXmXmXmXmXmXmXmXmXmXmXmXmXmXmXmXmXmXmX",
"mXmXmXmXmXmXmXmXmXmXmXmXmXmXmXmXmXx x y.&X-XE., ] gXgXgXfXtX9X9X`     a D.A.$.a.D.D.`.-X-X^.M x x mXmXmXmXmXmXmXmXmXmXmXmXmXmXmXmXmXmX",
"mXmXmXmXmXmXmXmXmXmXmXmXmXmXmXmXmXmXx x u.-X-Xj.tXgXgXgXdXeX9X{ =   8 A.D.;.x n Z.D.L.*X-X-X|.D x x mXmXmXmXmXmXmXmXmXmXmXmXmXmXmXmXmX",
"mXmXmXmXmXmXmXmXmXmXmXmXmXmXmXmXmXmXx n ].-X).- & wXgXfX4X7X5X1   3 n.D.8.x x p.D.A.@X-X-X-X-X+X>.x x mXmXmXmXmXmXmXmXmXmXmXmXmXmXmXmX",
"mXmXmXmXmXmXmXmXmXmXmXmXmXmXmXmXmXx c Q.-X-X+Xr   o [ 3X  q w   % 9.D.s.c x x <.A.S e.#X-X-X&X-X&Xf.x x mXmXmXmXmXmXmXmXmXmXmXmXmXmXmX",
"mXmXmXmXmXmXmXmXmXmXmXmXmXmXmXmXx x V.-X-X-X-X*Xd X 5 s + u Q > k w.d.n x x x x M x x @.oX}.A /.-X=XF.c x mXmXmXmXmXmXmXmXmXmXmXmXmXmX",
"mXmXmXmXmXmXmXmXmXmXmXmXmXmXmXmXx x A ].-X-X-X-X-Xy.6.q.^ q.q.! 4.7.m x x x x x x x x x B A x v P.-X-XQ.n x x mXmXmXmXmXmXmXmXmXmXmXmX",
"mXmXmXmXmXmXmXmXmXmXmXmXmXmXmXmXmXx x C.-X-X-X-X-X-X Xz.q.q.( x v mXx x mXx mXmXx mXmXx x x x x x l.*X-X].A x x mXmXmXmXmXmXmXmXmXmXmX",
"mXmXmXmXmXmXmXmXmXmXmXmXmXmXmXmXx x ,.=X-X-X-X-X-X-XXXS 6.-.x x mXmXmXmXmXmXmXmXmXmXmXmXmXx x x x x 2.#X-XoXn x x mXmXmXmXmXmXmXmXmXmX",
"mXmXmXmXmXmXmXmXmXmXmXmXmXmXmXmXx x v P.-X-X=X&X-X#X@.x v c x mXmXmXmXmXmXmXmXmXmXmXmXmXmXx x +.R.M x @.XXN.x x x x mXmXmXmXmXmXmXmXmX",
"mXmXmXmXmXmXmXmXmXmXmXmXmXmXmXmXmXx x x l.*XH.,.OX2.x x x x mXmXmXmXmXmXmXmXmXmXmXmXmXmXmXx M .X-XE.x x mXmXx mXmXx mXmXmXmXmXmXmXmXmX",
"mXmXmXmXmXmXmXmXmXmXmXmXmXmXmXmXmXx x x x %.c x n x x mXmXx mXmXmXmXmXmXmXmXmXmXmXmXmXmXx v /.-X+XS x x mXmXmXmXmXmXmXmXmXmXmXmXmXmXmX",
"mXmXmXmXmXmXmXmXmXmXmXmXmXmXmXmXmXx x x x x x x x x mXmXmXmXmXmXmXmXmXmXmXmXmXmXmXmXmXx x I.-X&X>.x x mXmXmXmXmXmXmXmXmXmXmXmXmXmXmXmX",
"mXmXmXmXmXmXmXmXmXmXmXmXmXmXmXmXmXmXx x mXx mXmXmXmXmXmXmXmXmXmXmXmXmXmXmXmXmXmXmXmXx x N.-X=Xu.x x mXmXmXmXmXmXmXmXmXmXmXmXmXmXmXmXmX",
"mXmXmXmXmXmXmXmXmXmXmXmXmXmXmXmXmXmXmXmXmXmXmXmXmXmXmXmXmXmXmXmXmXmXmXmXmXmXmXmXmXx x 2.*X-XF.x x mXmXmXmXmXmXmXmXmXmXmXmXmXmXmXmXmXmX",
"mXmXmXmXmXmXmXmXmXmXmXmXmXmXmXmXmXmXmXmXmXmXmXmXmXmXmXmXmXmXmXmXmXmXmXmXmXmXmXmXx x W %X-XE.c x mXmXmXmXmXmXmXmXmXmXmXmXmXmXmXmXmXmXmX",
"mXmXmXmXmXmXmXmXmXmXmXmXmXmXmXmXmXmXmXmXmXmXmXmXmXmXmXmXmXmXmXmXmXmXmXmXmXmXmXmXx j F 2X!.n x mXmXmXmXmXmXmXmXmXmXmXmXmXmXmXmXmXmXmXmX",
"mXmXmXmXmXmXmXmXmXmXmXmXmXmXmXmXmXmXmXmXmXmXmXmXmXmXmXmXmXmXmXmXmXmXmXmXmXmXmXx h L ,X1XR x mXmXmXmXmXmXmXmXmXmXmXmXmXmXmXmXmXmXmXmXmX",
"mXmXmXmXmXmXmXmXmXmXmXmXmXmXmXmXmXmXmXmXmXmXmXmXmXmXmXmXmXmXmXmXmXmXmXmXmXmXmXmXK ,X;XP x x mXmXmXmXmXmXmXmXmXmXmXmXmXmXmXmXmXmXmXmXmX",
"mXmXmXmXmXmXmXmXmXmXmXmXmXmXmXmXmXmXmXmXmXmXmXmXmXmXmXmXmXmXmXmXmXmXmXmXmXmXmXmXR G T x x mXmXmXmXmXmXmXmXmXmXmXmXmXmXmXmXmXmXmXmXmXmX",
"mXmXmXmXmXmXmXmXmXmXmXmXmXmXmXmXmXmXmXmXmXmXmXmXmXmXmXmXmXmXmXmXmXmXmXmXmXmXmXmXx mXmXx mXmXmXmXmXmXmXmXmXmXmXmXmXmXmXmXmXmXmXmXmXmXmX",
"mXmXmXmXmXmXmXmXmXmXmXmXmXmXmXmXmXmXmXmXmXmXmXmXmXmXmXmXmXmXmXmXmXmXmXmXmXmXmXmXmXmXmXmXmXmXmXmXmXmXmXmXmXmXmXmXmXmXmXmXmXmXmXmXmXmXmX",
"mXmXmXmXmXmXmXmXmXmXmXmXmXmXmXmXmXmXmXmXmXmXmXmXmXmXmXmXmXmXmXmXmXmXmXmXmXmXmXmXmXmXmXmXmXmXmXmXmXmXmXmXmXmXmXmXmXmXmXmXmXmXmXmXmXmXmX",
"mXmXmXmXmXmXmXmXmXmXmXmXmXmXmXmXmXmXmXmXmXmXmXmXmXmXmXmXmXmXmXmXmXmXmXmXmXmXmXmXmXmXmXmXmXmXmXmXmXmXmXmXmXmXmXmXmXmXmXmXmXmXmXmXmXmXmX",
"mXmXmXmXmXmXmXmXmXmXmXmXmXmXmXmXmXmXmXmXmXmXmXmXmXmXmXmXmXmXmXmXmXmXmXmXmXmXmXmXmXmXmXmXmXmXmXmXmXmXmXmXmXmXmXmXmXmXmXmXmXmXmXmXmXmXmX",
"mXmXmXmXmXmXmXmXmXmXmXmXmXmXmXmXmXmXmXmXmXmXmXmXmXmXmXmXmXmXmXmXmXmXmXmXmXmXmXmXmXmXmXmXmXmXmXmXmXmXmXmXmXmXmXmXmXmXmXmXmXmXmXmXmXmXmX",
"mXmXmXmXmXmXmXmXmXmXmXmXmXmXmXmXmXmXmXmXmXmXmXmXmXmXmXmXmXmXmXmXmXmXmXmXmXmXmXmXmXmXmXmXmXmXmXmXmXmXmXmXmXmXmXmXmXmXmXmXmXmXmXmXmXmXmX",
"mXmXmXmXmXmXmXmXmXmXmXmXmXmXmXmXmXmXmXmXmXmXmXmXmXmXmXmXmXmXmXmXmXmXmXmXmXmXmXmXmXmXmXmXmXmXmXmXmXmXmXmXmXmXmXmXmXmXmXmXmXmXmXmXmXmXmX",
"mXmXmXmXmXmXmXmXmXmXmXmXmXmXmXmXmXmXmXmXmXmXmXmXmXmXmXmXmXmXmXmXmXmXmXmXmXmXmXmXmXmXmXmXmXmXmXmXmXmXmXmXmXmXmXmXmXmXmXmXmXmXmXmXmXmXmX"
};
