/* XPM */
static char *nave_small_1[] = {
/* columns rows colors chars-per-pixel */
"67 67 243 2 ",
"   c #000000",
".  c #010100",
"X  c #020200",
"o  c #030200",
"O  c #030300",
"+  c #040404",
"@  c #050505",
"#  c #070707",
"$  c #090800",
"%  c #0C0B00",
"&  c #0E0D01",
"*  c #0B0A0A",
"=  c #0E0D0D",
"-  c #141301",
";  c #151303",
":  c #171501",
">  c #1B1901",
",  c #111111",
"<  c #121111",
"1  c #131313",
"2  c #141313",
"3  c #161515",
"4  c #161616",
"5  c #191919",
"6  c #1B1B1B",
"7  c #1C1B1B",
"8  c #1E1D1D",
"9  c #1E1E1E",
"0  c #201D1D",
"q  c #211F1F",
"w  c #221F1F",
"e  c #222001",
"r  c #272402",
"t  c #252121",
"y  c #272323",
"u  c #2A2626",
"i  c #342F2B",
"p  c #342F2E",
"a  c #353131",
"s  c #363636",
"d  c #373737",
"f  c #393737",
"g  c #3A3636",
"h  c #3B3636",
"j  c #3A3737",
"k  c #3C3737",
"l  c #373A3B",
"z  c #373A3C",
"x  c #373B3D",
"c  c #383838",
"v  c #393939",
"b  c #3A3939",
"n  c #3A3A3A",
"m  c #3B3A3A",
"M  c #3B3B3B",
"N  c #3C3A3A",
"B  c #3C3B3B",
"V  c #3C3C3C",
"C  c #3D3D3D",
"Z  c #3E3D3D",
"A  c #3F3D3D",
"S  c #3E3E3E",
"D  c #3F3E3E",
"F  c #3F3F3F",
"G  c #5F1E1E",
"H  c #5F1F1F",
"J  c #6D1515",
"K  c #6F1414",
"L  c #621D1D",
"P  c #601E1E",
"I  c #6A1A1A",
"U  c #751010",
"Y  c #701414",
"T  c #433F03",
"R  c #512727",
"E  c #522727",
"W  c #542626",
"Q  c #5D2020",
"!  c #403D3D",
"~  c #423C3C",
"^  c #433D3D",
"/  c #413E3E",
"(  c #403F3F",
")  c #423F3F",
"_  c #433F3F",
"`  c #453F3F",
"'  c #622121",
"]  c #4A4503",
"[  c #5D5704",
"{  c #5F5904",
"}  c #555114",
"|  c #615A04",
" . c #605A11",
".. c #6B6404",
"X. c #6C6504",
"o. c #746C05",
"O. c #776F05",
"+. c #2E5368",
"@. c #2D566C",
"#. c #2C586F",
"$. c #2B5972",
"%. c #2C5971",
"&. c #404040",
"*. c #414040",
"=. c #414141",
"-. c #434040",
";. c #424141",
":. c #424242",
">. c #434242",
",. c #434343",
"<. c #444040",
"1. c #454141",
"2. c #464141",
"3. c #444343",
"4. c #474242",
"5. c #444444",
"6. c #454444",
"7. c #464646",
"8. c #474747",
"9. c #4A4444",
"0. c #4A4545",
"q. c #4B4545",
"w. c #484646",
"e. c #4F4545",
"r. c #4D4646",
"t. c #484848",
"y. c #494949",
"u. c #4A4848",
"i. c #4A4A4A",
"p. c #4B4B4B",
"a. c #4C4949",
"s. c #4E4848",
"d. c #4C4A4A",
"f. c #4D4A4A",
"g. c #4E4B4B",
"h. c #4C4C4C",
"j. c #4F4C4C",
"k. c #4E4D4D",
"l. c #4E4E4E",
"z. c #4F4E4E",
"x. c #4F4F4F",
"c. c #544747",
"v. c #504949",
"b. c #514B4B",
"n. c #504C4C",
"m. c #504D4D",
"M. c #514D4D",
"N. c #524D4D",
"B. c #514E4E",
"V. c #524E4E",
"C. c #534E4E",
"Z. c #534F4F",
"A. c #505050",
"S. c #515151",
"D. c #525252",
"F. c #535353",
"G. c #545050",
"H. c #545151",
"J. c #555151",
"K. c #565151",
"L. c #555252",
"P. c #565252",
"I. c #545454",
"U. c #555555",
"Y. c #565454",
"T. c #575454",
"R. c #565656",
"E. c #575757",
"W. c #595656",
"Q. c #5A5757",
"!. c #585858",
"~. c #595959",
"^. c #5A5A5A",
"/. c #5B5B5B",
"(. c #5C5959",
"). c #5E5B5B",
"_. c #5C5C5C",
"`. c #5D5D5D",
"'. c #5F5F5F",
"]. c #605D5D",
"[. c #615E5E",
"{. c #625F5F",
"}. c #795353",
"|. c #775B5B",
" X c #616161",
".X c #626262",
"XX c #636363",
"oX c #646464",
"OX c #656565",
"+X c #676565",
"@X c #666666",
"#X c #676767",
"$X c #686868",
"%X c #696969",
"&X c #6A6969",
"*X c #6A6A6A",
"=X c #6B6B6B",
"-X c #6C6C6C",
";X c #6D6C6C",
":X c #6D6D6D",
">X c #6E6E6E",
",X c #6F6F6F",
"<X c #707070",
"1X c #717171",
"2X c #727272",
"3X c #890303",
"4X c #8B0202",
"5X c #890404",
"6X c #890707",
"7X c #890909",
"8X c #847B05",
"9X c #8C8205",
"0X c #908606",
"qX c #928806",
"wX c #978D06",
"eX c #998E06",
"rX c #9C9206",
"tX c #C5B807",
"yX c #C6B807",
"uX c #CBBD08",
"iX c #CDBF08",
"pX c #CFC108",
"aX c #D5C608",
"sX c #E2D209",
"dX c #E9D809",
"fX c #EBDA09",
"gX c #EDDC09",
"hX c #EEDD09",
"jX c #F0DF09",
"kX c #276587",
"lX c #25698E",
"zX c #1E7CAF",
"xX c #1D7FB3",
"cX c #119AE5",
"vX c #129AE4",
"bX c #129BE5",
"nX c #119CE7",
"mX c #119CE8",
"MX c #119DE8",
"NX c #119DE9",
"BX c #119EE9",
"VX c #119EEA",
"CX c None",
/* pixels */
"CXCXCXCXCXCXCXCXCXCXCXCXCXCXCXCXCXCXCXCXCXCXCXCXCXCXCXCXCXCXCXCXCXCXCXCXCXCXCXCXCXCXCXCXCXCXCXCXCXCXCXCXCXCXCXCXCXCXCXCXCXCXCXCXCXCXCX",
"CXCXCXCXCXCXCXCXCXCXCXCXCXCXCXCXCXCXCXCXCXCXCXCXCXCXCXCXCXCXCXCXCXCXCXCXCXCXCXCXCXCXCXCXCXCXCXCXCXCXCXCXCXCXCXCXCXCXCXCXCXCXCXCXCXCXCX",
"CXCXCXCXCXCXCXCXCXCXCXCXCXCXCXCXCXCXCXCXCXCXCXCXCXCXCXCXCXCXCXCXCXCXCXCXCXCXCXCXCXCXCXCXCXCXCXCXCXCXCXCXCXCXCXCXCXCXCXCXCXCXCXCXCXCXCX",
"CXCXCXCXCXCXCXCXCXCXCXCXCXCXCXCXCXCXCXCXCXCXCXCXCXCXCXCXCXCXCXCXCXCXCXCXCXCXCXCXCXCXCXCXCXCXCXCXCXCXCXCXCXCXCXCXCXCXCXCXCXCXCXCXCXCXCX",
"CXCXCXCXCXCXCXCXCXCXCXCXCXCXCXCXCXCXCXCXCXCXCXCXCXCXCXCXCXCXCXCXCXCXCXCXCXCXCXCXCXCXCXCXCXCXCXCXCXCXCXCXCXCXCXCXCXCXCXCXCXCXCXCXCXCXCX",
"CXCXCXCXCXCXCXCXCXCXCXCXCXCXCXCXCXCXCXCXCXCXCXCXCXCXCXCXCXCXCXCXCXCXCXCXCXCXCXCXCXCXCXCXCXCXCXCXCXCXCXCXCXCXCXCXCXCXCXCXCXCXCXCXCXCXCX",
"CXCXCXCXCXCXCXCXCXCXCXCXCXCXCXCXCXCXCXCXCXCXCXs c CXg c CXCXCXCXCXCXCXCXCXCXCXCXCXCXCXCXCXCXCXCXCXCXCXCXCXCXCXCXCXCXCXCXCXCXCXCXCXCXCX",
"CXCXCXCXCXCXCXCXCXCXCXCXCXCXCXCXCXCXCXCXCXCXs c j Y K g CXCXCXCXCXCXCXCXCXCXCXCXCXCXCXCXCXCXCXCXCXCXCXCXCXCXCXCXCXCXCXCXCXCXCXCXCXCXCX",
"CXCXCXCXCXCXCXCXCXCXCXCXCXCXCXCXCXCXCXCXCXCXc f J 4X5XR CXCXCXCXCXCXCXCXCXCXCXCXCXCXCXCXCXCXCXCXCXCXCXCXCXCXCXCXCXCXCXCXCXCXCXCXCXCXCX",
"CXCXCXCXCXCXCXCXCXCXCXCXCXCXCXCXCXCXCXCXCXc c I 4X3XE c c CXCXCXCXCXCXCXCXCXCXCXCXCXCXCXCXCXCXCXCXCXCXCXCXCXCXCXCXCXCXCXCXCXCXCXCXCXCX",
"CXCXCXCXCXCXCXCXCXCXCXCXCXCXCXCXCXCXCXCXc c ^.}.6XW c c CXCXCXCXCXCXCXCXCXCXCXCXCXCXCXCXCXCXCXCXCXCXCXCXCXCXCXCXCXCXCXCXCXCXCXCXCXCXCX",
"CXCXCXCXCXCXCXCXCXCXCXCXCXCXCXCXCXCXCXc c !.2X1Xe.c c CXCXCXCXCXCXCXCXCXCXCXCXCXCXCXCXCXCXCXCXCXCXCXCXCXCXCXCXCXCXCXCXCXCXCXCXCXCXCXCX",
"CXCXCXCXCXCXCXCXCXCXCXCXCXCXCXCXCXCXc c R.2X2Xx.c c CXCXCXCXCXCXCXCXCXCXCXCXCXCXCXCXCXCXCXCXCXCXCXCXCXCXCXCXCXCXCXCXCXCXCXCXCXCXCXCXCX",
"CXCXCXCXCXCXCXCXCXCXCXCXCXCXCXCXCXc c I.2X2XS.c c CXCXCXCXCXCXCXCXCXCXCXCXCXCXCXCXCXCXCXCXCXCXCXCXCXCXCXCXCXCXCXCXCXCXCXCXCXCXCXCXCXCX",
"CXCXCXCXCXCXCXCXCXCXCXCXCXCXCXCXc c D.2X2XF.c c CXCXCXCXCXCXCXCXCXCXCXCXCXCXCXCXCXCXc CXCXc CXCXc CXCXCXCXCXCXCXCXCXCXCXCXCXCXCXCXCXCX",
"CXCXCXCXCXCXCXCXCXc c CXc c CXc c x.2X2XU.c c CXCXCXCXCXCXCXCXCXCXCXCXCXCXCXCXCXCXc c c c c c c c c CXCXCXCXCXCXCXCXCXCXCXCXCXCXCXCXCX",
"CXCXCXCXCXCXCXCXCXc c c c i.@XC c :.-XE.c c CXCXCXCXCXCXCXCXCXCXCXCXCXCXCXd c CXc c v c c b c c c c c CXCXCXCXCXCXCXCXCXCXCXCXCXCXCXCX",
"CXCXCXCXCXCXCXCXCXCXc c n =X2X$XS c C c c c CXCXCXCXCXCXCXCXCXCXCXCXCXCXc c c c c 5.%X:.t.=X:.c c c CXCXCXCXCXCXCXCXCXCXCXCXCXCXCXCXCX",
"CXCXCXCXCXCXCXCXCXCXCXc c =.=X2X*XF c c c c c CXCXCXCXCXCXCXCXCXCXCXCXd c m N c ,.>X2X:X<X2X:X,.c c CXCXCXCXCXCXCXCXCXCXCXCXCXCXCXCXCX",
"CXCXCXCXCXCXCXCXCXCXCXCXc c &.=X2X=X&.c c c c c CXc c CXc c CXc c CXd c n 9.q.6.:X2X2X2X2X2X2X>X=.c c CXCXCXCXCXCXCXCXCXCXCXCXCXCXCXCX",
"CXCXCXCXCXCXCXCXCXCXCXCXCXc c F %X2X-X=.c D.:.c c c c c c c c c v 4.B b 9.r.r.v.&X2X2X2X2X2X2X'.v c CXCXCXCXCXCXCXCXCXCXCXCXCXCXCXCXCX",
"CXCXCXCXCXCXCXCXCXCXCXCXCXCXc c S $X2X:X~.2X:X,.c c B c c c c b 0.r.` g r.^ k r.~ E.2X2X2X2X2Xt.c c CXCXCXCXCXCXCXCXCXCXCXCXCXCXCXCXCX",
"CXCXCXCXCXCXCXCXCXCXCXCXCXCXCXc c C #X2X2X2X2X>X5.u.G.S c c v j.K.9.= + p * + i # @ U.2X2X2X2X<X,.c c CXCXCXCXCXCXCXCXCXCXCXCXCXCXCXCX",
"CXCXCXCXCXCXCXCXCXCXCXCXCXCXCXCXc c V @X2X2X2X2X[.P.L.;.c v g.P.M.<   & o.r e iXT   + S.2X2X2X'.v c CXCXCXCXCXCXCXCXCXCXCXCXCXCXCXCXCX",
"CXCXCXCXCXCXCXCXCXCXCXCXCXCXCXCXCXd c M oX2X2X+XP.P.w.c v f.P.V.2   % O.0XwXaXjXdX]   9 2X2X Xb c CXCXCXCXCXCXCXCXCXCXCXCXCXCXCXCXCXCX",
"CXCXCXCXCXCXCXCXCXCXCXCXCXCXCXCXCXCXd c M XX2X1X).P.J.*.d.P.Z.3   $ o.0XeXsXjXjXjXfX} =X2X#Xn c c CXCXCXCXCXCXCXCXCXCXCXCXCXCXCXCXCXCX",
"CXCXCXCXCXCXCXCXCXCXCXCXCXCXCXCXCXCXCXd c n  X2X{.P.L.>.f.P.G.7   O | 0XqXpXjXjXjXtX; y.2X1Xl.c c CXCXCXCXCXCXCXCXCXCXCXCXCXCXCXCXCXCX",
"CXCXCXCXCXCXCXCXCXCXCXCXCXCXCXCXCXCXCXCXd c b Y.P.P.>.c v M.P.H.8   o [ 0XrXgXjXjXX.  6 1X2X Xc c CXCXCXCXCXCXCXCXCXCXCXCXCXCXCXCXCXCX",
"CXCXCXCXCXCXCXCXCXCXCXCXCXCXCXCXCXCXCXCXCXd c v a.3.c c 2.r.C.P.J.q   X { sXjXjXjXhX .=X2XXXn c c CXCXCXCXCXCXCXCXCXCXCXCXCXCXCXCXCXCX",
"CXCXCXCXCXCXCXCXCXCXCXCXCXCXCXCXCXCXCXCXCXCXc c c c c 1.r.r.r.N.K.s.0   X 9XjXjXjXyX- &.OXM c c CXCXCXCXCXCXCXCXCXCXCXCXCXCXCXCXCXCXCX",
"CXCXCXCXCXCXCXCXCXCXCXCXCXCXCXCXCXCXCXCXCXc c 5.c c A r.r.r.r.r.s.r.r.w   . 8XjXuX:   5 F.c c CXCXCXCXCXCXCXCXCXCXCXCXCXCXCXCXCXCXCXCX",
"CXCXCXCXCXCXCXCXCXCXCXCXCXCXCXCXCXCXCXCXCXd U.2XA.c c <.r.r.r.r.r.r.r.r.t   . ..>   4 *X2XI.CXCXCXCXCXCXCXCXCXCXCXCXCXCXCXCXCXCXCXCXCX",
"CXCXCXCXCXCXCXCXCXCXCXCXCXCXCXCXCXCXCXCXCXCX~.2X2XD.c c -.r.r.r.r.r.r.r.r.y       1 $X2XOXM CXCXCXCXCXCXCXCXCXCXCXCXCXCXCXCXCXCXCXCXCX",
"CXCXCXCXCXCXCXCXCXCXCXCXCXCXCXCXCXCXCXCXCXc c OX2X2XI.c c _ r.r.r.r.r.r.r.r.u   , #X2X@XV c d CXCXCXCXCXCXCXCXCXCXCXCXCXCXCXCXCXCXCXCX",
"CXCXCXCXCXCXCXCXCXCXCXCXCXCXCXCXCXCXCXCXCXCXI.2X2X2X2XR.c c ) r.r.r.r.r.r.r.r.a OX2X$XV c c CXCXCXCXCXCXCXCXCXCXCXCXCXCXCXCXCXCXCXCXCX",
"CXCXCXCXCXCXCXCXCXCXCXCXCXCXCXCXCXCXCXCXCXCXI.2X2X2X2X2X!.c c / r.r.r.r.r.r.b.;X2X%XC c c c c CXCXCXCXCXCXCXCXCXCXCXCXCXCXCXCXCXCXCXCX",
"CXCXCXCXCXCXCXCXCXCXCXCXCXCXCXCXCXCXCXCXCXc c D.2X2X2X2X2X^.v c / r.r.r.r.q.z.1X*XS c c c c s CXCXCXCXCXCXCXCXCXc CXCXc CXCXCXCXCXCXCX",
"CXCXCXCXCXCXCXCXCXCXCXCXCXCXCXCXCXCXCXCXc c c c A.2X2X2X2X2X/.v c ! r.r.q.N c k.&.c B v c d CXCXCXCXCXCXCXCXCXc c G h c CXCXCXCXCXCXCX",
"CXCXCXCXCXCXCXCXCXCXCXCXCXCXCXCXCXCXCXCXc c c c c l.1X2X2X2X2X`.v c A q.B c M V.d.C Z.f.v c d CXCXCXCXCXCXCXc c L 4XU CXCXCXCXCXCXCXCX",
"CXCXCXCXCXCXCXCXCXCXCXCXCXCXCXBXVXCXCXCXCXc c #.l c h.1X2X2X2X2X'.b c v c m B.P.P.L.P.m.n c d CXCXCXCXCXCXc c H 4X4XQ c CXCXCXCXCXCXCX",
"CXCXCXCXCXCXCXCXCXCXCXCXCXCXCXCXcXCXCXCXCXCXkXVXzXz c p.1X2X2X2X2X Xn c c n.P.P.P.P.W.C c c CXCXCXCXCXCXc c c.7X4XP c c CXCXCXCXCXCXCX",
"CXCXCXCXCXCXCXCXCXCXCXCXCXCXCXCXCXCXCXCXCXCX%.bXVXxXx c y.<X2X2X2X2X.Xm c ( J.P.P.Q.,XoXM c d CXCXCXCXc c x.2X|.' c c CXCXCXCXCXCXCXCX",
"CXCXCXCXCXCXCXCXCXCXCXCXCXCXCXNXVXVXCXCXCXc c @.vXVX$.c c t.<X<XU.,X,X,.c c D H.P.(.<X2XOXV c d CXCXc c l.1X2X!.c c CXCXCXCXCXCXCXCXCX",
"CXCXCXCXCXCXCXCXCXCXCXCXCXCXCXCXNXVXVXCXCXCXc c +.lXc c c c 7.p.c 8.8.c c c c D G.P.].2X2X_.c c c c c h.1X2X^.c c CXCXCXCXCXCXCXCXCXCX",
"CXCXCXCXCXCXCXCXCXCXCXCXCXCXCXCXCXMXVXVXCXCXCXc CXCXc c c c CXCXc CXCXd CXCXc c Z T.,X2X#XV c c c c i.1X2X/.c c CXCXCXCXCXCXCXCXCXCXCX",
"CXCXCXCXCXCXCXCXCXCXCXCXBXVXCXCXCXCXNXVXVXCXCXCXCXCXCXc c CXCXCXCXCXCXCXCXCXCXc c :.;X2X$XS c c c y.<X2X`.v c CXCXCXCXCXCXCXCXCXCXCXCX",
"CXCXCXCXCXCXCXCXCXCXCXCXCXnXCXCXCXCXCXNXVXVXCXCXCXCXCXCXCXCXCXCXCXCXCXCXCXCXCXCXc c =.-X2X*XF c v %X2X'.v c CXCXCXCXCXCXCXCXCXCXCXCXCX",
"CXCXCXCXCXCXCXCXCXCXCXCXCXVXCXCXCXCXCXCXMXVXVXCXCXCXCXCXCXCXCXCXCXCXCXCXCXCXCXCXCXc c &.=X2X=X&.c F ^.b c CXCXCXCXCXCXCXCXCXCXCXCXCXCX",
"CXCXCXCXCXCXCXCXCXCXCXCXVXVXVXCXCXCXCXCXCXNXVXVXCXCXCXCXCXCXCXCXCXCXCXCXCXCXCXCXCXCXc c F *X2X-X=.c c c c CXCXCXCXCXCXCXCXCXCXCXCXCXCX",
"CXCXCXCXCXCXCXCXCXCXCXCXCXVXVXVXCXCXCXCXCXCXmXVXVXCXVXnXCXCXCXCXCXCXCXCXCXCXCXCXCXCXCXc c S $X2X-X:.c c CXCXCXCXCXCXCXCXCXCXCXCXCXCXCX",
"CXCXCXCXCXCXCXCXCXCXBXCXCXCXVXVXVXCXCXCXCXCXCXnXCXCXMXCXCXCXCXCXCXCXCXCXCXCXCXCXCXCXCXCXc c C #X2X:X7.CXCXCXCXCXCXCXCXCXCXCXCXCXCXCXCX",
"CXCXCXCXCXCXCXCXCXVXVXnXCXCXCXVXVXVXCXCXCXCXCXCXCXCXCXCXCXCXCXCXCXCXCXCXCXCXCXCXCXCXCXCXCXc c V @X.Xm CXCXCXCXCXCXCXCXCXCXCXCXCXCXCXCX",
"CXCXCXCXCXCXCXCXCXCXMXCXCXCXCXCXVXVXVXCXVXVXCXCXCXCXCXCXCXCXCXCXCXCXCXCXCXCXCXCXCXCXCXCXCXCXc c M m c s CXCXCXCXCXCXCXCXCXCXCXCXCXCXCX",
"CXCXCXCXCXCXCXCXCXCXMXCXCXCXCXCXCXVXVXCXBXCXCXCXCXCXCXCXCXCXCXCXCXCXCXCXCXCXCXCXCXCXCXCXCXCXCXd c c c CXCXCXCXCXCXCXCXCXCXCXCXCXCXCXCX",
"CXCXCXCXCXCXCXCXCXVXVXMXCXCXCXCXCXCXCXCXCXCXCXCXCXCXCXCXCXCXCXCXCXCXCXCXCXCXCXCXCXCXCXCXCXCXCXCXc c c CXCXCXCXCXCXCXCXCXCXCXCXCXCXCXCX",
"CXCXCXCXCXCXCXCXCXCXVXVXNXCXVXBXCXCXCXCXCXCXCXCXCXCXCXCXCXCXCXCXCXCXCXCXCXCXCXCXCXCXCXCXCXCXCXCXCXd c d CXCXCXCXCXCXCXCXCXCXCXCXCXCXCX",
"CXCXCXCXCXCXCXCXCXCXCXVXVXCXVXVXCXCXCXCXCXCXCXCXCXCXCXCXCXCXCXCXCXCXCXCXCXCXCXCXCXCXCXCXCXCXCXCXCXCXCXCXCXCXCXCXCXCXCXCXCXCXCXCXCXCXCX",
"CXCXCXCXCXCXCXCXCXCXCXCXCXCXCXCXCXCXCXCXCXCXCXCXCXCXCXCXCXCXCXCXCXCXCXCXCXCXCXCXCXCXCXCXCXCXCXCXCXCXCXCXCXCXCXCXCXCXCXCXCXCXCXCXCXCXCX",
"CXCXCXCXCXCXCXCXCXCXCXCXCXCXCXCXCXCXCXCXCXCXCXCXCXCXCXCXCXCXCXCXCXCXCXCXCXCXCXCXCXCXCXCXCXCXCXCXCXCXCXCXCXCXCXCXCXCXCXCXCXCXCXCXCXCXCX",
"CXCXCXCXCXCXCXCXCXCXCXCXCXCXCXCXCXCXCXCXCXCXCXCXCXCXCXCXCXCXCXCXCXCXCXCXCXCXCXCXCXCXCXCXCXCXCXCXCXCXCXCXCXCXCXCXCXCXCXCXCXCXCXCXCXCXCX",
"CXCXCXCXCXCXCXCXCXCXCXCXCXCXCXCXCXCXCXCXCXCXCXCXCXCXCXCXCXCXCXCXCXCXCXCXCXCXCXCXCXCXCXCXCXCXCXCXCXCXCXCXCXCXCXCXCXCXCXCXCXCXCXCXCXCXCX",
"CXCXCXCXCXCXCXCXCXCXCXCXCXCXCXCXCXCXCXCXCXCXCXCXCXCXCXCXCXCXCXCXCXCXCXCXCXCXCXCXCXCXCXCXCXCXCXCXCXCXCXCXCXCXCXCXCXCXCXCXCXCXCXCXCXCXCX",
"CXCXCXCXCXCXCXCXCXCXCXCXCXCXCXCXCXCXCXCXCXCXCXCXCXCXCXCXCXCXCXCXCXCXCXCXCXCXCXCXCXCXCXCXCXCXCXCXCXCXCXCXCXCXCXCXCXCXCXCXCXCXCXCXCXCXCX",
"CXCXCXCXCXCXCXCXCXCXCXCXCXCXCXCXCXCXCXCXCXCXCXCXCXCXCXCXCXCXCXCXCXCXCXCXCXCXCXCXCXCXCXCXCXCXCXCXCXCXCXCXCXCXCXCXCXCXCXCXCXCXCXCXCXCXCX",
"CXCXCXCXCXCXCXCXCXCXCXCXCXCXCXCXCXCXCXCXCXCXCXCXCXCXCXCXCXCXCXCXCXCXCXCXCXCXCXCXCXCXCXCXCXCXCXCXCXCXCXCXCXCXCXCXCXCXCXCXCXCXCXCXCXCXCX",
"CXCXCXCXCXCXCXCXCXCXCXCXCXCXCXCXCXCXCXCXCXCXCXCXCXCXCXCXCXCXCXCXCXCXCXCXCXCXCXCXCXCXCXCXCXCXCXCXCXCXCXCXCXCXCXCXCXCXCXCXCXCXCXCXCXCXCX",
"CXCXCXCXCXCXCXCXCXCXCXCXCXCXCXCXCXCXCXCXCXCXCXCXCXCXCXCXCXCXCXCXCXCXCXCXCXCXCXCXCXCXCXCXCXCXCXCXCXCXCXCXCXCXCXCXCXCXCXCXCXCXCXCXCXCXCX"
};
