/* XPM */
static char *nave_small_12[] = {
/* columns rows colors chars-per-pixel */
"67 67 234 2 ",
"   c #000000",
".  c #010000",
"X  c #010100",
"o  c #010101",
"O  c #020200",
"+  c #030303",
"@  c #060500",
"#  c #080700",
"$  c #090800",
"%  c #0B0A00",
"&  c #0A0909",
"*  c #0B0B0B",
"=  c #0C0B0B",
"-  c #0E0C0C",
";  c #100F0F",
":  c #151301",
">  c #151401",
",  c #141212",
"<  c #171616",
"1  c #181717",
"2  c #181818",
"3  c #1C1C1C",
"4  c #221F02",
"5  c #201D1D",
"6  c #211E1E",
"7  c #232001",
"8  c #282502",
"9  c #363205",
"0  c #3B3702",
"q  c #3E3902",
"w  c #3E3A03",
"e  c #222121",
"r  c #232323",
"t  c #2A2727",
"y  c #2F2B20",
"u  c #2C2C2C",
"i  c #312D2D",
"p  c #302E2E",
"a  c #312E2E",
"s  c #323232",
"d  c #353030",
"f  c #363131",
"g  c #373232",
"h  c #3B3636",
"j  c #3C3636",
"k  c #3D3737",
"l  c #373B3D",
"z  c #383838",
"x  c #393838",
"c  c #383839",
"v  c #393939",
"b  c #3A3939",
"n  c #3A3A3A",
"m  c #3B3A3A",
"M  c #3B3B3B",
"N  c #3C3C3C",
"B  c #3D3D3D",
"V  c #3E3C3C",
"C  c #3E3D3D",
"Z  c #3F3D3D",
"A  c #3E3E3E",
"S  c #3F3E3E",
"D  c #3F3F3F",
"F  c #5E1F1F",
"G  c #790E0E",
"H  c #780F0F",
"J  c #611D1D",
"K  c #601E1E",
"L  c #731111",
"P  c #721212",
"I  c #7F1414",
"U  c #472E2E",
"Y  c #462F2F",
"T  c #482E2E",
"R  c #552525",
"E  c #5A2222",
"W  c #5C2121",
"Q  c #423131",
"!  c #433131",
"~  c #403A3A",
"^  c #413E3E",
"/  c #403F3F",
"(  c #423E3E",
")  c #443E3E",
"_  c #4B3F3F",
"`  c #7F2B2B",
"'  c #454003",
"]  c #5E5919",
"[  c #655E04",
"{  c #6D6504",
"}  c #746C05",
"|  c #7B7205",
" . c #363D41",
".. c #324956",
"X. c #304E5F",
"o. c #2C576E",
"O. c #404040",
"+. c #414040",
"@. c #414141",
"#. c #424141",
"$. c #434141",
"%. c #424242",
"&. c #434343",
"*. c #444040",
"=. c #464141",
"-. c #454343",
";. c #474242",
":. c #444444",
">. c #454545",
",. c #474545",
"<. c #464646",
"1. c #474747",
"2. c #484242",
"3. c #484343",
"4. c #494545",
"5. c #4A4444",
"6. c #484646",
"7. c #494646",
"8. c #494747",
"9. c #4B4747",
"0. c #4C4545",
"q. c #4C4646",
"w. c #4D4646",
"e. c #4E4747",
"r. c #484848",
"t. c #494949",
"y. c #4B4848",
"u. c #4B4949",
"i. c #4A4A4A",
"p. c #4B4B4B",
"a. c #4C4949",
"s. c #4F4848",
"d. c #4D4A4A",
"f. c #4C4C4C",
"g. c #4D4D4D",
"h. c #4F4C4C",
"j. c #4E4E4E",
"k. c #4F4F4F",
"l. c #504A4A",
"z. c #514B4B",
"x. c #504C4C",
"c. c #504D4D",
"v. c #514D4D",
"b. c #524E4E",
"n. c #534E4E",
"m. c #534F4F",
"M. c #544F4F",
"N. c #505050",
"B. c #515151",
"V. c #525252",
"C. c #535353",
"Z. c #545050",
"A. c #555151",
"S. c #555252",
"D. c #565252",
"F. c #545454",
"G. c #555555",
"H. c #565656",
"J. c #575757",
"K. c #595656",
"L. c #5A5757",
"P. c #585858",
"I. c #595959",
"U. c #5A5858",
"Y. c #5B5858",
"T. c #5A5A5A",
"R. c #5B5B5B",
"E. c #5C5959",
"W. c #5C5A5A",
"Q. c #5C5C5C",
"!. c #5D5D5D",
"~. c #5E5E5E",
"^. c #5F5F5F",
"/. c #605E5E",
"(. c #615F5F",
"). c #606060",
"_. c #616161",
"`. c #626161",
"'. c #626262",
"]. c #636363",
"[. c #646262",
"{. c #646464",
"}. c #656565",
"|. c #666666",
" X c #676767",
".X c #686868",
"XX c #696868",
"oX c #696969",
"OX c #6A6969",
"+X c #6A6A6A",
"@X c #6B6B6B",
"#X c #6C6A6A",
"$X c #6C6C6C",
"%X c #6D6D6D",
"&X c gray43",
"*X c #6F6F6F",
"=X c #707070",
"-X c #717171",
";X c #727272",
":X c #8B0202",
">X c #880404",
",X c #890404",
"<X c #890B0B",
"1X c #822D2D",
"2X c #837A05",
"3X c #897F06",
"4X c #847A08",
"5X c #8A8005",
"6X c #908606",
"7X c #918706",
"8X c #9D9206",
"9X c #A39707",
"0X c #B1A507",
"qX c #B2A607",
"wX c #C1B408",
"eX c #C3B508",
"rX c #DECE08",
"tX c #E2D208",
"yX c #E6D509",
"uX c #E7D609",
"iX c #E9D809",
"pX c #EBDA09",
"aX c #EFDF09",
"sX c #F0DF09",
"dX c #22719C",
"fX c #22729C",
"gX c #1C82B9",
"hX c #188CCA",
"jX c #1691D4",
"kX c #129BE4",
"lX c #119EEA",
"zX c #119EEB",
"xX c #119FEB",
"cX c None",
/* pixels */
"cXcXcXcXcXcXcXcXcXcXcXcXcXcXcXcXcXcXcXcXcXcXcXcXcXcXcXcXcXcXcXcXcXcXcXcXcXcXcXcXcXcXcXcXcXcXcXcXcXcXcXcXcXcXcXcXcXcXcXcXcXcXcXcXcXcXcX",
"cXcXcXcXcXcXcXcXcXcXcXcXcXcXcXcXcXcXcXcXcXcXcXcXcXcXcXcXcXcXcXcXcXcXcXcXcXcXcXcXcXcXcXcXcXcXcXcXcXcXcXcXcXcXcXcXcXcXcXcXcXcXcXcXcXcXcX",
"cXcXcXcXcXcXcXcXcXcXcXcXcXcXcXcXcXcXcXcXcXcXcXcXcXcXcXcXcXcXcXcXcXcXcXcXcXcXcXcXcXcXcXcXcXcXcXcXcXcXcXcXcXcXcXcXcXcXcXcXcXcXcXcXcXcXcX",
"cXcXcXcXcXcXcXcXcXcXcXcXcXcXcXcXcXcXcXcXcXcXcXcXcXcXcXcXcXcXcXcXcXcXcXcXcXcXcXcXcXcXcXcXcXcXcXcXcXcXcXcXcXcXcXcXcXcXcXcXcXcXcXcXcXcXcX",
"cXcXcXcXcXcXcXcXcXcXcXcXcXcXcXcXcXcXcXcXcXcXcXcXcXcXcXcXcXcXcXcXcXcXcXcXcXcXcXcXcXcXcXcXcXcXcXcXcXcXcXcXcXcXcXcXcXcXcXcXcXcXcXcXcXcXcX",
"cXcXcXcXcXcXcXcXcXcXcXcXcXcXcXcXcXcXcXcXcXcXcXcXcXz cXcXcXcXcXcXcXcXcXcXcXcXcXcXcXcXcXcXcXcXcXcXcXcXcXcXcXcXcXcXcXcXcXcXcXcXcXcXcXcXcX",
"cXcXcXcXcXcXcXcXcXcXcXcXcXcXcXcXcXcXcXcXcXcXcXcXh z z z z cXcXcXcXcXcXcXcXcXcXcXcXcXz cXcXcXcXcXcXcXcXcXcXcXcXcXcXcXcXcXcXcXcXcXcXcXcX",
"cXcXcXcXcXcXcXcXcXcXcXcXcXcXcXcXcXcXcXcXcXcXz Q ,XH K T x z z z z cXcXcXcXcXcXcXz cXz cXcXcXcXcXcXcXcXcXcXcXcXcXcXcXcXcXcXcXcXcXcXcXcX",
"cXcXcXcXcXcXcXcXcXcXcXcXcXcXcXcXcXcXcXcXcXcXcXR :X:X:X<X#XQ.p.N z z z z cXcXcXz z z z cXcXcXcXcXcXcXcXcXcXcXcXcXcXcXcXcXcXcXcXcXcXcXcX",
"cXcXcXcXcXcXcXcXcXcXcXcXcXcXcXcXcXcXcXcXcXcXcXcX! E P ` ;X;X;X-X{.C.&.x z z k.%XC.z z cXcXcXcXcXcXcXcXcXcXcXcXcXcXcXcXcXcXcXcXcXcXcXcX",
"cXcXcXcXcXcXcXcXcXcXcXcXcXcXcXcXcXcXcXcXcXcXcXz z z z n r.I.oX;X;X;X;X@XM z ].;XB.z cXcXcXcXcXcXcXcXcXcXcXcXcXcXcXcXcXcXcXcXcXcXcXcXcX",
"cXcXcXcXcXcXcXcXcXcXcXcXcXcXcXcXcXcXcXcXcXcXcXcXcXcXz z z z z O.N.`.=X|.z M =X;X@.z cXcXcXcXcXcXcXcXcXcXcXcXcXcXcXcXcXcXcXcXcXcXcXcXcX",
"cXcXcXcXcXcXcXcXcXcXcXcXcXcXcXcXcXcXcXcXcXcXcXcXcXcXcXcXcXcXz z z z n O.z i.;X+Xz z cXcXcXcXcXcXcXcXcXcXcXcXcXcXcXcXcXcXcXcXcXcXcXcXcX",
"cXcXcXcXcXcXcXcXcXcXcXcXcXcXcXcXcXcXcXcXcXcXcXcXcXcXcXcXcXcXcXcXcXz z z z R.;XT.z cXcXcXcXcXcXcXcXcXcXcXcXcXcXcXcXcXcXcXcXcXcXcXcXcXcX",
"cXcXcXcXcXcXcXcXcXcXcXcXcXcXcXcXcXcXcXcXcXcXcXcXcXcXcXcXcXcXcXcXcXz z z x @X;Xt.z cXcXcXcXcXcXcXcXcXcXcXcXcXcXcXcXcXcXcXcXcXcXcXcXcXcX",
"cXcXcXcXcXcXcXcXcXcXcXcXcXcXcXcXcXcXcXcXcXcXcXcXcXcXcXcXcXcXcXcXcXz z z %.;X=XM z cXcXcXcXcXcXcXcXcXcXcXcXcXcXcXcXcXcXcXcXcXcXcXcXcXcX",
"cXcXcXcXcXcXcXcXcXcXcXcXcXcXcXcXcXcXcXcXcXcXcXcXcXcXcXcXcXcXcXcXz z N.g.H.;X'.z z cXcXcXcXcXcXcXcXcXcXcXcXcXcXcXcXcXcXcXcXcXcXcXcXcXcX",
"cXcXcXcXcXcXcXcXcXcXcXcXcXcXcXcXcXcXcXcXcXcXcXcXcXcXcXcXcXcXcXcXz x %X;X;X;XB.z cXcXcXcXcXcXcXcXcXcXcXcXcXcXcXcXcXcXcXcXcXcXcXcXcXcXcX",
"cXcXcXcXcXcXcXcXcXcXcXcXcXcXcXcXcXcXcXcXcXcXcXcXcXcXcXcXcXcXz z z :.;X;X;X;X@.z cXcXcXcXcXcXcXcXcXcXcXcXcXcXcXcXcXcXcXcXcXcXcXcXcXcXcX",
"cXcXcXcXcXcXcXcXcXcXcXcXcXcXcXcXcXcXcXcXcXcXcXcXcXcXcXz z z z m z G.;XXXK.E.z z cXcXcXcXcXcXcXcXcXcXcXcXcXcXcXcXcXcXcXcXcXcXcXcXcXcXcX",
"cXcXcXcXcXcXcXcXcXcXcXcXcXcXcXcXcXcXcXcXcXcXcXcXcXcXcXz z z v Z.b.W.OX/.D.8.z z cXcXcXcXcXcXcXcXcXcXcXcXcXcXcXcXcXcXcXcXcXcXcXcXcXcXcX",
"cXcXcXcXcXcXcXcXcXcXcXcXcXcXcXcXcXcXz z z cXcXcXcXz z z z z C A.D.D.D.D.D.+.z cXcXcXcXcXcXcXcXcXcXcXcXcXcXcXcXcXcXcXcXcXcXcXcXcXcXcXcX",
"cXcXcXcXcXcXcXcXcXcXcXcXcXz z z z cXz v z z z A  XH.>.v z z z b 7.D.D.D.A.v z cXcXcXcXcXcXcXcXcXcXcXcXcXcXcXcXcXcXcXcXcXcXcXcXcXcXcXcX",
"cXcXcXcXcXcXcXcXcXcXcXz cXz n M z z z ).}.F.&.j.;X;X;X&X~.g.B z u.D.D.D.d.z z cXcXcXcXcXcXcXcXcXcXcXcXcXcXcXcXcXcXcXcXcXcXcXcXcXcXcXcX",
"cXcXcXcXcXcXcXcXcXcXcXz z z f.=X].V.:.=X;X;X;Xs u f.+X;X;X;X-X}.,.x.S.D.-.z z cXcXcXcXcXcXcXcXcXcXcXcXcXcXcXcXcXcXcXcXcXcXcXcXcXcXcXcX",
"cXcXcXcXcXcXcXcXz z z z T.N._.;X;X;X;X;XoXN.@X*     + 3 B `.;X|.z z m $.M z z z cXcXcXcXcXcXcXcXcXcXcXcXcXcXcXcXcXcXcXcXcXcXcXcXcXcXcX",
"cXcXcXcXcXcXcXcXz z z A ;X;X;X;X;X;X-X;X<.  9 qX{ 8 O     d z.x.Z b z z z n ].V.cXcXcXcXcXcXcXcXcXcXcXcXcXcXcXcXcXcXcXcXcXcXcXcXcXcXcX",
"cXcXcXcXcXcXcXcXz z z k.;X;X;X;X;X;X2 r ] 7 | sXsXsX0X  + 2.w.w.w.q.3.V z 1.;X%Xv cXcXcXcXcXcXcXcXcXcXcXcXcXcXcXcXcXcXcXcXcXcXcXcXcXcX",
"cXcXcXcXcXcXcXcXcXz z ^.;X;X;X;X;X'.o # tXaXpXsXsXsX5X  , w.w.w.w.w.w.V z J.;X].N cXcXcXcXcXcXcXcXcXcXcXcXcXcXcXcXcXcXcXcXcXcXcXcXcXcX",
"cXcXcXcXcXcXcXcXcXz z p.!.-X;X;X;X%.  q sXsXsXsXsXsX'   t w.w.w.w.w.0.x z .X;X;X=XcXcXcXcXcXcXcXzXcXcXcXcXcXcXcXcXcXcXcXcXcXcXcXcXcXcX",
"cXcXcXcXcXcXcXcXcXz z z B -X;X;X;Xe   2XsXsXsXiXuXyX% . ~ w.w.w.w.w.;.z D ;X;X;X;X<.z z z cXcXcXzXzXcXcXcXcXcXcXcXcXcXcXcXcXcXcXcXcXcX",
"cXcXcXcXcXcXcXcXcXcXcXz i.;X;X;X=X2.i 4XrXsXsXeX7X}   & q.w.w.w.w.w.^ z k.;X;X;X&Xv z z z cXcXcXcXcXcXcXcXcXcXcXcXcXcXcXcXcXcXcXcXcXcX",
"cXcXcXcXcXcXcXcXcXcXcXz z D k.).[.w.) o $ 8XwX9X6Xw   5 w.w.w.w.w.w.m z ).;X;X;X^.z z z z cXcXcXcXcXlXcXcXcXcXcXcXcXcXcXcXcXcXcXcXcXcX",
"cXcXcXcXcXcXcXcXcXcXcXcXz z z z *.w.k - 4 6X6X6X6X:   f w.w.w.w.w.5.z n *X;X;X;Xj.z l z cXcXcXcXcXlXlXcXcXcXlXcXcXcXcXcXcXcXcXcXcXcXcX",
"cXcXcXcXcXcXcXcXcXcXcXcXcXcXz z 5.w.w.w.y 0 [ 3X| X + v.M.e.w.w.w.*.z 1.;X;X;X;XA z gXhXcXcXcXcXcXlXzXcXcXcXlXcXcXcXcXcXcXcXcXcXcXcXcX",
"cXcXcXcXcXcXcXcXcXcXcXcXcXcXz z m ^ ;.q.;     @ >   < D.A.w.w.w.w.V z P.;X;X;X Xz  .kXlX..z cXcXcXlXcXcXcXcXcXcXcXcXcXcXcXcXcXcXcXcXcX",
"cXcXcXcXcXcXcXcXcXcXcXcXcXcXz z z z z m g 6 = .     p D.n.w.w.w.0.x z oX;X;X;XH.z o.lXjXc z cXcXcXlXcXcXcXcXcXlXlXcXcXcXcXcXcXcXcXcXcX",
"cXcXcXcXcXcXcXcXcXcXcXcXcXcXcXcXcXcXz Z w.s.S.4.a 1 4.D.l.w.w.w.;.z D ;X;X;X;X>.z dXlXfXz cXcXcXlXlXcXcXcXcXcXlXcXcXcXlXcXcXcXcXcXcXcX",
"cXcXcXcXcXcXcXcXcXcXcXcXcXcXcXcXcXcXcXcX( 9.A.D.D.D.D.S.=.5.w.w.^ z N.;X;X;X&Xv z l X.cXz cXcXcXlXcXcXcXcXcXlXlXcXcXcXcXcXcXcXcXcXcXcX",
"cXcXcXcXcXcXcXcXcXcXcXcXcXcXcXcXcXcXcXz z z n #.y.m.D.h.z z m ( b z ).;X;X;X~.z z z z cXcXcXcXcXlXcXcXcXcXcXlXlXcXcXcXcXcXcXcXcXcXcXcX",
"cXcXcXcXcXcXcXcXcXcXcXcXcXcXcXcXcXcXcXcXcXz z z z x C ,.S x z z z n *X;X$X;Xj.z z z cXcXcXcXcXcXlXcXcXcXcXcXlXlXcXcXcXcXlXlXcXcXcXcXcX",
"cXcXcXcXcXcXcXcXcXcXcXcXcXcXcXcXcXcXcXcXcXz z z z x z c.D.Z.a.A z 1.;X$Xv &.cXcXz z cXcXcXcXcXlXlXcXcXcXcXcXlXcXcXcXcXcXlXlXcXcXcXcXcX",
"cXcXcXcXcXcXcXcXcXcXcXcXcXcXcXcXcXcXcXcXcXz z z / m.u.S.D.D.D./ z D F.R.z z cXcXcXcXcXcXcXcXcXlXcXcXcXcXcXlXlXcXcXcXcXcXlXcXcXcXcXcXcX",
"cXcXcXcXcXcXcXcXcXcXcXcXcXcXcXcXcXcXcXcXcXcXz z 6.D.D.D.Y.#X(.v z z z cXcXcXcXcXcXcXcXcXcXcXcXlXcXcXcXzXcXcXcXcXcXlXlXcXcXcXcXcXcXcXcX",
"cXcXcXcXcXcXcXcXcXcXcXcXcXcXcXcXcXcXcXcXcXcXz z v / U.L.[.;X).z cXcXcXcXcXcXcXcXcXcXcXcXlXxXcXcXcXcXcXlXcXcXcXcXcXcXcXcXcXcXcXcXcXcXcX",
"cXcXcXcXcXcXcXcXcXcXcXcXcXcXcXcXcXcXcXcXcXcXcXz z v &X;X;X;Xk.z cXcXcXcXcXcXcXcXcXcXcXcXcXcXcXcXcXcXcXcXcXcXcXcXcXcXcXcXcXcXcXcXcXcXcX",
"cXcXcXcXcXcXcXcXcXcXcXcXcXcXcXcXcXcXcXcXcXcXcXcXz >.;X;X;X;XD z cXcXcXcXcXcXcXcXcXcXcXcXcXcXcXcXcXcXcXcXcXcXcXcXcXcXcXcXcXcXcXcXcXcXcX",
"cXcXcXcXcXcXcXcXcXcXcXcXcXcXcXcXcXcXcXcXcXcXcXcXz H.;X;X;X.Xz z cXcXcXcXcXcXcXcXcXcXcXcXcXcXcXcXcXcXcXcXcXcXcXcXcXcXcXcXcXcXcXcXcXcXcX",
"cXcXcXcXcXcXcXcXcXcXcXcXz z z z z cXcXcXcXcXcXz z G.$X;X;XP.z z cXcXcXcXcXcXcXcXcXcXcXcXcXcXcXcXcXcXcXcXcXcXcXcXcXcXcXcXcXcXcXcXcXcXcX",
"cXcXcXcXcXcXcXcXcXcXz Y G F U z z z z z cXcXcXz z z b %X;X1.z cXcXcXcXcXcXcXcXcXcXcXcXcXcXcXcXcXcXcXcXcXcXcXcXcXcXcXcXcXcXcXcXcXcXcXcX",
"cXcXcXcXcXcXcXcXcXcXcXJ :X:X:XI R.i.M z z z z z z z :.;X&Xn z cXcXcXcXcXcXcXcXcXcXcXcXcXcXcXcXcXcXcXcXcXcXcXcXcXcXcXcXcXcXcXcXcXcXcXcX",
"cXcXcXcXcXcXcXcXcXcXcXcXW L >X1X;X;X=X].V.%.x z z z G.;X).z z cXcXcXcXcXcXcXcXcXcXcXcXcXcXcXcXcXcXcXcXcXcXcXcXcXcXcXcXcXcXcXcXcXcXcXcX",
"cXcXcXcXcXcXcXcXcXcXcXz z z j _ I.+X;X;X;X;X@XI.x z }.;Xk.z cXcXcXcXcXcXcXcXcXcXcXcXcXcXcXcXcXcXcXcXcXcXcXcXcXcXcXcXcXcXcXcXcXcXcXcXcX",
"cXcXcXcXcXcXcXcXcXcXcXcXcXz z z z z @.B.'.=X;X{.z B -X;XD z cXcXcXcXcXcXcXcXcXcXcXcXcXcXcXcXcXcXcXcXcXcXcXcXcXcXcXcXcXcXcXcXcXcXcXcXcX",
"cXcXcXcXcXcXcXcXcXcXcXcXcXcXcXcXz z z z z M t.r.z f.;X.Xz z cXcXcXcXcXcXcXcXcXcXcXcXcXcXcXcXcXcXcXcXcXcXcXcXcXcXcXcXcXcXcXcXcXcXcXcXcX",
"cXcXcXcXcXcXcXcXcXcXcXcXcXcXcXcXcXcXcXcXz z z z z !.;XJ.z z cXcXcXcXcXcXcXcXcXcXcXcXcXcXcXcXcXcXcXcXcXcXcXcXcXcXcXcXcXcXcXcXcXcXcXcXcX",
"cXcXcXcXcXcXcXcXcXcXcXcXcXcXcXcXcXcXcXcXcXcXcXz v %X;X<.z cXcXcXcXcXcXcXcXcXcXcXcXcXcXcXcXcXcXcXcXcXcXcXcXcXcXcXcXcXcXcXcXcXcXcXcXcXcX",
"cXcXcXcXcXcXcXcXcXcXcXcXcXcXcXcXcXcXcXcXcXcXcXcXcXt.T.n z cXcXcXcXcXcXcXcXcXcXcXcXcXcXcXcXcXcXcXcXcXcXcXcXcXcXcXcXcXcXcXcXcXcXcXcXcXcX",
"cXcXcXcXcXcXcXcXcXcXcXcXcXcXcXcXcXcXcXcXcXcXcXcXcXz z z z cXcXcXcXcXcXcXcXcXcXcXcXcXcXcXcXcXcXcXcXcXcXcXcXcXcXcXcXcXcXcXcXcXcXcXcXcXcX",
"cXcXcXcXcXcXcXcXcXcXcXcXcXcXcXcXcXcXcXcXcXcXcXcXcXcXz z cXcXcXcXcXcXcXcXcXcXcXcXcXcXcXcXcXcXcXcXcXcXcXcXcXcXcXcXcXcXcXcXcXcXcXcXcXcXcX",
"cXcXcXcXcXcXcXcXcXcXcXcXcXcXcXcXcXcXcXcXcXcXcXcXcXcXz z cXcXcXcXcXcXcXcXcXcXcXcXcXcXcXcXcXcXcXcXcXcXcXcXcXcXcXcXcXcXcXcXcXcXcXcXcXcXcX",
"cXcXcXcXcXcXcXcXcXcXcXcXcXcXcXcXcXcXcXcXcXcXcXcXcXcXz z cXcXcXcXcXcXcXcXcXcXcXcXcXcXcXcXcXcXcXcXcXcXcXcXcXcXcXcXcXcXcXcXcXcXcXcXcXcXcX",
"cXcXcXcXcXcXcXcXcXcXcXcXcXcXcXcXcXcXcXcXcXcXcXcXcXcXcXcXcXcXcXcXcXcXcXcXcXcXcXcXcXcXcXcXcXcXcXcXcXcXcXcXcXcXcXcXcXcXcXcXcXcXcXcXcXcXcX",
"cXcXcXcXcXcXcXcXcXcXcXcXcXcXcXcXcXcXcXcXcXcXcXcXcXcXcXcXcXcXcXcXcXcXcXcXcXcXcXcXcXcXcXcXcXcXcXcXcXcXcXcXcXcXcXcXcXcXcXcXcXcXcXcXcXcXcX",
"cXcXcXcXcXcXcXcXcXcXcXcXcXcXcXcXcXcXcXcXcXcXcXcXcXcXcXcXcXcXcXcXcXcXcXcXcXcXcXcXcXcXcXcXcXcXcXcXcXcXcXcXcXcXcXcXcXcXcXcXcXcXcXcXcXcXcX",
"cXcXcXcXcXcXcXcXcXcXcXcXcXcXcXcXcXcXcXcXcXcXcXcXcXcXcXcXcXcXcXcXcXcXcXcXcXcXcXcXcXcXcXcXcXcXcXcXcXcXcXcXcXcXcXcXcXcXcXcXcXcXcXcXcXcXcX",
"cXcXcXcXcXcXcXcXcXcXcXcXcXcXcXcXcXcXcXcXcXcXcXcXcXcXcXcXcXcXcXcXcXcXcXcXcXcXcXcXcXcXcXcXcXcXcXcXcXcXcXcXcXcXcXcXcXcXcXcXcXcXcXcXcXcXcX"
};
