/* XPM */
static char *nave_small_14[] = {
/* columns rows colors chars-per-pixel */
"67 67 228 2 ",
"   c #000000",
".  c #010100",
"X  c #010101",
"o  c #020200",
"O  c #030300",
"+  c #040303",
"@  c #050500",
"#  c #040404",
"$  c #050404",
"%  c #050505",
"&  c #0E0D01",
"*  c #080808",
"=  c #090808",
"-  c #0A0A0A",
";  c #131101",
":  c #131201",
">  c #151301",
",  c #1D1B01",
"<  c #14120E",
"1  c #15140D",
"2  c #121010",
"3  c #121111",
"4  c #151515",
"5  c #161616",
"6  c #1D1C16",
"7  c #1D1B1B",
"8  c #1D1C1C",
"9  c #211F1F",
"0  c #272402",
"q  c #363202",
"w  c #3F3A03",
"e  c #212121",
"r  c #282522",
"t  c #292727",
"y  c #2B2828",
"u  c #2E2C2C",
"i  c #322D2D",
"p  c #333333",
"a  c #393434",
"s  c #393737",
"d  c #3E3434",
"f  c #3F3434",
"g  c #3D3737",
"h  c #373B3D",
"j  c #383838",
"k  c #393838",
"l  c #383839",
"z  c #393939",
"x  c #3A3939",
"c  c #3A3A3A",
"v  c #3B3B3B",
"b  c #3C3A3A",
"n  c #3C3B3B",
"m  c #3C3C3C",
"M  c #3D3C3C",
"N  c #3D3D3D",
"B  c #3E3C3C",
"V  c #3F3C3C",
"C  c #3E3D3D",
"Z  c #3F3D3D",
"A  c #3E3E3E",
"S  c #3F3F3F",
"D  c #760F0F",
"F  c #7D0B0B",
"G  c #7A0D0D",
"H  c #7C0C0C",
"J  c #6F1414",
"K  c #661A1A",
"L  c #691818",
"P  c #4D2B2B",
"I  c #4E2A2A",
"U  c #482E2E",
"Y  c #423131",
"T  c #403F3F",
"R  c #413F3F",
"E  c #423E3E",
"W  c #423F3F",
"Q  c #433F3F",
"!  c #453F3F",
"~  c #563C3C",
"^  c #46410D",
"/  c #5A5403",
"(  c #635C04",
")  c #665F04",
"_  c #665F05",
"`  c #686104",
"'  c #716905",
"]  c #42413E",
"[  c #363E43",
"{  c #33454E",
"}  c #314B5A",
"|  c #2B5A73",
" . c #404040",
".. c #414040",
"X. c #414141",
"o. c #434040",
"O. c #424242",
"+. c #434343",
"@. c #444040",
"#. c #454141",
"$. c #464040",
"%. c #444343",
"&. c #464242",
"*. c #474242",
"=. c #444444",
"-. c #454444",
";. c #454545",
":. c #464444",
">. c #474545",
",. c #464646",
"<. c #474747",
"1. c #4A4343",
"2. c #4D4343",
"3. c #494444",
"4. c #4A4444",
"5. c #4B4444",
"6. c #484646",
"7. c #484747",
"8. c #494747",
"9. c #4A4747",
"0. c #4B4747",
"q. c #4C4545",
"w. c #4D4646",
"e. c #4D4747",
"r. c #4E4747",
"t. c #484848",
"y. c #494949",
"u. c #4A4848",
"i. c #4A4949",
"p. c #4A4A4A",
"a. c #4B4B4B",
"s. c #4C4949",
"d. c #4E4848",
"f. c #4D4A4A",
"g. c #4E4B4B",
"h. c #4C4C4C",
"j. c #4D4D4D",
"k. c #4E4E4E",
"l. c #4F4F4F",
"z. c #524242",
"x. c #5A4040",
"c. c #504A4A",
"v. c #514D4D",
"b. c #524C4C",
"n. c #514E4E",
"m. c #524E4E",
"M. c #534F4F",
"N. c #505050",
"B. c #515151",
"V. c #535252",
"C. c #535353",
"Z. c #545050",
"A. c #555050",
"S. c #555151",
"D. c #565252",
"F. c #575252",
"G. c #545454",
"H. c #555555",
"J. c #575757",
"K. c #5A5757",
"L. c #585858",
"P. c #595959",
"I. c #5B5858",
"U. c #5A5A5A",
"Y. c #5B5B5B",
"T. c #5D5B5B",
"R. c #5C5C5C",
"E. c #5D5D5D",
"W. c #5F5C5C",
"Q. c #5E5E5E",
"!. c #5F5F5F",
"~. c #615F5F",
"^. c #616161",
"/. c #626262",
"(. c #636363",
"). c #656363",
"_. c #646464",
"`. c #656565",
"'. c #666666",
"]. c #676767",
"[. c #686868",
"{. c #696969",
"}. c #6A6A6A",
"|. c #6B6B6B",
" X c #6C6B6B",
".X c #6C6C6C",
"XX c #6D6C6C",
"oX c #6D6D6D",
"OX c #6E6E6E",
"+X c #6F6E6E",
"@X c #6F6F6F",
"#X c #707070",
"$X c #717171",
"%X c #737070",
"&X c #727171",
"*X c #727272",
"=X c #860505",
"-X c #8B0202",
";X c #8A0303",
":X c #880404",
">X c #871313",
",X c #861919",
"<X c #817805",
"1X c #8B8205",
"2X c #8B8206",
"3X c #8C8205",
"4X c #908606",
"5X c #938906",
"6X c #9D9206",
"7X c #A59A06",
"8X c #A99D07",
"9X c #B8AB07",
"0X c #B8AC07",
"qX c #CFC108",
"wX c #D8C808",
"eX c #DECE08",
"rX c #DECF08",
"tX c #DFCF08",
"yX c #E7D709",
"uX c #EDDC09",
"iX c #F0DF09",
"pX c #246C93",
"aX c #1D7FB5",
"sX c #1B84BD",
"dX c #1988C4",
"fX c #129AE3",
"gX c #119EEA",
"hX c None",
/* pixels */
"hXhXhXhXhXhXhXhXhXhXhXhXhXhXhXhXhXhXhXhXhXhXhXhXhXhXhXhXhXhXhXhXhXhXhXhXhXhXhXhXhXhXhXhXhXhXhXhXhXhXhXhXhXhXhXhXhXhXhXhXhXhXhXhXhXhXhX",
"hXhXhXhXhXhXhXhXhXhXhXhXhXhXhXhXhXhXhXhXhXhXhXhXhXhXhXhXhXhXhXhXhXhXhXhXhXhXhXhXhXhXhXhXhXhXhXhXhXhXhXhXhXhXhXhXhXhXhXhXhXhXhXhXhXhXhX",
"hXhXhXhXhXhXhXhXhXhXhXhXhXhXhXhXhXhXhXhXhXhXhXhXhXhXhXhXhXhXhXhXhXhXhXhXhXhXhXhXhXhXhXhXhXhXhXhXhXhXhXhXhXhXhXhXhXhXhXhXhXhXhXhXhXhXhX",
"hXhXhXhXhXhXhXhXhXhXhXhXhXhXhXhXhXhXhXhXhXhXhXhXhXhXhXhXhXhXhXhXhXhXhXhXhXhXhXhXhXhXhXhXhXhXhXhXhXhXhXhXhXhXhXhXhXhXhXhXhXhXhXhXhXhXhX",
"hXhXhXhXhXhXhXhXhXhXhXhXhXhXhXhXhXhXhXhXhXhXhXhXhXhXhXhXhXhXhXhXhXhXhXhXhXhXhXhXhXhXhXhXhXhXhXhXhXhXhXhXhXhXhXhXhXhXhXhXhXhXhXhXhXhXhX",
"hXhXhXhXhXhXhXhXhXhXhXhXhXhXhXhXhXhXhXhXhXhXhXhXhXhXhXhXhXhXhXhXhXhXhXhXhXhXhXhXhXhXhXhXhXhXhXhXhXhXhXhXhXhXhXhXhXhXhXhXhXhXhXhXhXhXhX",
"hXhXhXhXhXhXhXhXhXhXhXhXhXhXhXhXhXhXhXhXhXhXhXhXhXhXhXhXhXhXhXhXhXhXhXhXhXhXhXhXhXhXhXhXhXhXhXhXhXhXhXhXhXhXhXhXhXhXhXhXhXhXhXhXhXhXhX",
"hXhXhXhXhXhXhXhXhXhXhXhXhXhXhXhXhXhXhXhXhXhXhXhXhXhXhXhXhXhXhXhXhXhXhXhXhXhXhXhXhXhXhXj j hXhXhXhXhXhXhXhXhXhXhXhXhXhXhXhXhXhXhXhXhXhX",
"hXhXhXhXhXhXhXhXhXhXhXhXhXhXhXhXhXhXhXhXhXhXhXhXhXhXhXhXhXhXhXhXhXhXhXhXhXhXhXhXhXhXhXhXG L j j hXhXhXhXhXhXhXhXhXhXhXhXhXhXhXhXhXhXhX",
"hXhXhXhXhXhXhXhXhXhXhXhXhXhXhXhXhXhXhXhXhXhXhXhXhXhXhXhXhXhXhXhXhXhXhXhXhXhXhXhXhXhXhXf ;X-XP j hXhXhXhXhXhXhXhXhXhXhXhXhXhXhXhXhXhXhX",
"hXhXhXhXhXhXhXhXhXhXhXhXhXhXhXhXhXhXhXhXhXj hXhXhXhXhXhXhXhXhXhXhXhXhXhXhXhXhXhXhXhXj j L -XH s j hXhXhXhXhXhXhXhXhXhXhXhXhXhXhXhXhXhX",
"hXhXhXhXhXhXhXhXhXhXhXhXhXhXhXhXhXhXhXj j j j j j hXhXhXhXhXhXhXhXhXhXhXhXhXhXhXhXhXhXj d =X>Xz.j hXhXhXhXhXhXhXhXhXhXhXhXhXhXhXhXhXhX",
"hXhXhXhXhXhXhXhXhXhXhXhXhXhXhXhXhXhXhXhXj j j c k j j j hXhXhXhXhXhXhXhXhXhXhXhXhXhXhXhXj ~ %XoXm j hXhXhXhXhXhXhXhXhXhXhXhXhXhXhXhXhX",
"hXhXhXhXhXhXhXhXhXhXhXhXhXhXhXhXhXhXhXj j k j..Xk.j ;.k j hXhXhXhXhXhXhXhXhXhXhXhXhXhXhXj z {.*XL.j hXhXhXhXhXhXhXhXhXhXhXhXhXhXhXhXhX",
"hXhXhXhXhXhXhXhXhXhXhXhXhXhXhXhXhXhXj j +.`.*X*X.X!.*Xk.j hXj j hXhXhXhXhXhXhXhXhXhXhXhXhXj t.*X$XO.j hXhXhXhXhXhXhXhXhXhXhXhXhXhXhXhX",
"hXhXhXhXhXhXhXhXhXhXhXhXhXhXhXhXhXhXhXj y.*X*X*X*X*X*X.Xv j j j hXhXhXhXhXhXhXhXhXhXhXhXhXhXj ^.*X^.j j hXhXhXhXhXhXhXhXhXhXhXhXhXhXhX",
"hXhXhXhXhXhXhXhXhXhXhXhXhXhXhXhXhXhXhXj k [.*X*X*X*X*X*XJ.O.E.v j hXhXhXhXhXhXhXhXhXhXhXhXhXj X.$X*Xy.j hXhXhXhXhXhXhXhXhXhXhXhXhXhXhX",
"hXhXhXhXhXhXhXhXhXhXhXhXhXhXhXhXhXhXj  .`.*X*X*X*X*X*X*X$X$X*XJ.j hXhXhXhXhXhXhXhXhXhXhXhXhXhXj L.*X{.x j hXhXhXhXhXhXhXhXhXhXhXhXhXhX",
"hXhXhXhXhXhXhXhXhXhXhXhXhXhXhXhXhXhXj m oX*X*X*X*X#X=.J.*X*X*X#X .j hXhXhXhXhXhXhXhXhXhXhXhXhXj v oX*Xy.j hXhXhXhXhXhXhXhXhXhXhXhXhXhX",
"hXhXhXhXhXhXhXhXhXhXhXhXhXhXhXhXhXhXhXj N.*X*X*XH.5   4 E.e H.*XU.R.#XX.j hXj hXhXhXhXhXhXhXhXj j p.,.j j S hXj hXhXhXhXhXhXhXhXhXhXhX",
"hXhXhXhXhXhXhXhXhXhXhXhXhXhXhXhXhXhXhXj z ].XXo.X   : 3X_   6 ] * H.*X!.j j j j hXj hXhXhXj j j j j j c H.#X@XN j hXj hXhXhXhXhXhXhXhX",
"hXhXhXhXhXhXhXhXhXhXhXhXhXhXhXhXhXhXj j z 0.r.q.< ) eXiXtX/ qX)   5 #X*X<.j j j j j j j j x x j j k h.|.*X*X_. .j j hXhXhXhXhXhXhXhXhX",
"hXhXhXhXhXhXhXhXhXhXhXhXhXhXhXhXhXhXj k 4.w.w.a ^ iXiXiXiXiXiXrX;   =.*X].z j k %.9.j j y.{.H.j =._.*X*X|.a.j j j hXhXhXhXhXhXhXhXhXhX",
"hXhXhXhXhXhXhXhXhXhXhXhXhXhXhXhXhXhXhXj Q w.$.+ . 7XiXiXiXiXiXiX1X  - }.*XN.j M D.D.7./.*X*X#XE.&X*X@XG.c j hXhXhXhXhXhXhXhXhXhXhXhXhX",
"hXhXhXhXhXhXhXhXhXhXhXhXhXhXhXhXhXhXhXj z 5.w.r w 5XuXiXyXiXiXiX0X@   p *XoXm j u.D.I.&X$X+X*X*X&XE.A j j hXhXhXhXhXhXhXhXhXhXhXhXhXhX",
"hXhXhXhXhXhXhXhXhXhXhXhXhXhXhXhXhXhXhXhXj Z a 1 <X4X9X8X6XuXwX/ O   $ y  X*XP.%.Z.D.D.~.K.I.*X'.;.j j hXhXhXhXhXhXhXhXhXhXhXhXhXhXhXhX",
"hXhXhXhXhXhXhXhXhXhXhXhXhXhXhXhXhXhXhXhXb &.3   q 4X4X4X2X` &   X 7 ! w.F.(.+.n.D.D.D.D.D.M.i.k j hXhXhXhXhXhXhXhXhXhXhXhXhXhXhXhXhXhX",
"hXhXhXhXhXhXhXhXhXhXhXhXhXhXhXhXhXhXhXhXhXw.g X o ' 4X( >     2 g w.w.w.w.V j R D.D.D.S.6.x j j hXhXhXhXhXhXhXhXhXhXhXhXhXhXhXhXhXhXhX",
"hXhXhXhXhXhXhXhXhXhXhXhXhXhXhXhXhXhXhXj x d.A.9   , 0 .   = i q.w.w.w.w.w.4.k j f.D.f.m j j hXhXhXhXhXhXhXhXhXhXhXhXhXhXhXhXhXhXhXhXhX",
"hXhXhXhXhXj hXhXj hXhXhXhXhXhXhXhXhXhXhXj :.D.f.%     # t 1.w.w.w.w.w.w.w.w.E j m T j j j hXhXhXhXhXhXhXhXhXhXhXhXhXhXhXhXhXhXhXhXhXhX",
"hXhXhXhXhXhXF K j j hXhXhXhXhXhXhXhXhXj j z m.D.u X 8 0.D.c.w.w.w.w.w.w.w.w.4.k j j j hXhXhXhXhXhXhXhXhXhXhXhXhXhXhXhXhXhXhXhXhXhXhXhX",
"hXhXhXhXhXI -X;XU j hXhXhXhXhXhXhXhXj j j j ..D.M.W D.D.S.c.w.w.w.w.w.w.w.@.x j j p.N j hXhXhXhXhXhXhXhXhXhXhXhXhXhXhXhXhXhXhXhXhXhXhX",
"hXhXhXhXj j J -XD j j hXhXhXhXhXhXhXhXj j j j g.D.D.S.b.e.w.w.w.w.w.w.*.b j j O.(.*XY.j hXhXhXhXhXhXhXhXhXhXhXhXhXhXhXhXhXhXhXhXhXhXhX",
"hXhXhXhXhXj Y :X,X2.j hXhXhXhXhXhXhXj j k C j C S.s.3.w.w.w.w.w.w.4.B j j m U.$X*X#XC.hXhXhXhXhXhXhXhXhXhXhXhXhXhXhXhXhXhXhXhXhXhXhXhX",
"hXhXhXhXhXhXj x.&X|.c j hXhXhXhXhXhXj n n.Z.c C -.j b w.w.w.w.q.E k j z B.OX*X*X*XB.j hXhXhXhXhXhXhXhXhXhXhXhXhXhXhXhXhXhXhXhXhXhXhXhX",
"hXhXhXhXhXhXj c |.*XG.j j hXhXhXhXhXj k v.D.n.D.Z.c j @.w.w.#.x j j t.[.*X*X*X*X*X}.hXhXhXhXhXhXhXhXhXhXhXhXhXhXhXhXhXhXhXhXhXhXhXhXhX",
"hXhXhXhXhXhXhXj h.*X@XA j hXhXhXhXj j x V.D.D.D.D.8.j x &.n j j X.^.*X*X*X*X*X*X#XG.hXhXhXhXhXhXhXhXhXhXhXhXhXhXhXhXhXhXhXhXhXhXhXhXhX",
"hXhXhXhXhXhXhXj k `.*XE.j j hXhXj j y.{.*XW.I.).D.S.M j j j v L.$X*X*X*X*X*X*X!. .j hXhXhXhXhXhXhXhXhXhXhXhXhXhXhXhXhXhXhXhXhXhXhXhXhX",
"hXhXhXhXhXhXhXhXj =.&X&X;.j j j j R.*X*X*X#X*X*XT.>.x j k k..X*X*X*X*X*X*X].<.j j j j hXhXhXhXhXhXhXhXhXhXhXhXhXhXhXhXhXhXhXhXhXhXhXhX",
"hXhXhXhXhXhXhXhXj j R.*X'.k j j j j.*X*X*X*X*XQ.S j j +.'.*X*X*X*X*X*XoXl.z j j j j j j hXhXhXhXhXhXhXhXhXhXhXhXhXhXhXhXhXhXhXhXhXhXhX",
"hXhXhXhXhXhXhXhXhXj A @X$X;.j j j p.$X*X*X'.,.j j hXj X.#X+X[.*X*X$XP.m j l | dX[ j hXhXhXhXhXhXhXhXhXhXhXhXhXhXhXhXhXhXhXhXhXhXhXhXhX",
"hXhXhXhXhXhXhXhXhXhXj h.+.j j O./.*X*XoXl.z j j hXhXhXj hXN X.$X/.X.j j } sXgXgXhXhXhXhXhXhXgXhXhXhXhXhXhXhXhXhXhXhXhXhXhXhXhXhXhXhXhX",
"hXhXhXhXhXhXhXhXhXhXj j j m P.$X*X#XJ.v j j hXhXhXhXhXhXhXj hXhXj j j j aXgXfXpXh hXhXhXhXhXhXhXhXhXhXhXhXhXhXhXhXhXhXhXhXhXhXhXhXhXhX",
"hXhXhXhXhXhXhXhXhXhXhXz N.oX*X*X^.X.j j hXhXhXhXhXhXhXhXhXhXhXhXhXj j j hXhX{ j j hXhXhXhXhXhXhXhXhXhXhXhXhXhXhXhXhXhXhXhXhXhXhXhXhXhX",
"hXhXhXhXhXhXhXhXhXhXhX'.*X*X[.t.j j hXhXhXhXhXhXhXhXhXhXhXhXhXhXhXj j hXhXhXj hXhXhXhXhXhXgXgXhXhXhXhXhXhXhXhXhXhXhXhXhXhXhXhXhXhXhXhX",
"hXhXhXhXhXhXhXhXhXhXj P.OXB.z j j hXhXhXhXhXhXhXhXhXhXhXhXhXhXhXhXhXhXhXhXhXhXhXhXhXhXgXgXgXhXhXhXhXhXhXhXhXhXhXhXhXhXhXhXhXhXhXhXhXhX",
"hXhXhXhXhXhXhXhXhXhXj v N j j hXhXhXhXhXhXhXhXhXhXhXhXhXhXhXhXhXhXhXhXhXhXhXhXhXhXhXgXgXhXhXhXhXhXhXhXhXhXhXhXhXhXhXhXhXhXhXhXhXhXhXhX",
"hXhXhXhXhXhXhXhXhXhXj j j j hXhXhXhXhXhXhXhXhXhXhXhXhXhXhXhXhXhXhXhXhXhXhXhXhXhXgXgXhXhXhXhXhXhXhXhXhXhXhXhXhXhXhXhXhXhXhXhXhXhXhXhXhX",
"hXhXhXhXhXhXhXhXhXj j hXhXhXhXhXhXhXhXhXhXhXhXhXhXhXhXhXhXhXhXhXhXhXhXhXhXhXhXgXgXhXhXhXhXhXhXhXgXhXhXhXhXhXhXhXhXhXhXhXhXhXhXhXhXhXhX",
"hXhXhXhXhXhXhXhXhXj hXhXhXhXhXhXhXhXhXhXhXhXhXhXhXhXhXhXhXhXhXhXhXhXgXhXhXgXgXhXhXhXhXhXhXhXhXhXhXhXhXhXhXhXhXhXhXhXhXhXhXhXhXhXhXhXhX",
"hXhXhXhXhXhXhXhXhXhXhXhXhXhXhXhXhXhXhXhXhXhXhXhXhXhXhXhXhXhXhXhXhXhXhXhXhXhXhXhXhXhXhXhXhXhXhXhXhXhXhXhXhXhXhXhXhXhXhXhXhXhXhXhXhXhXhX",
"hXhXhXhXhXhXhXhXhXhXhXhXhXhXhXhXhXhXhXhXhXhXhXhXhXhXhXhXhXhXhXhXhXhXhXhXhXhXhXhXhXhXhXhXhXhXgXgXhXhXhXhXhXhXhXhXhXhXhXhXhXhXhXhXhXhXhX",
"hXhXhXhXhXhXhXhXhXhXhXhXhXhXhXhXhXhXhXhXhXhXhXhXhXhXhXhXhXhXhXhXhXhXhXhXhXhXhXhXhXhXhXhXgXgXgXhXhXhXhXhXhXhXhXhXhXhXhXhXhXhXhXhXhXhXhX",
"hXhXhXhXhXhXhXhXhXhXhXhXhXhXhXhXhXhXhXhXhXhXhXhXhXhXhXhXhXhXhXhXhXhXhXhXhXhXhXgXhXhXgXgXgXhXhXhXhXhXhXhXhXhXhXhXhXhXhXhXhXhXhXhXhXhXhX",
"hXhXhXhXhXhXhXhXhXhXhXhXhXhXhXhXhXhXhXhXhXhXhXhXhXhXhXhXhXhXhXhXhXhXhXhXhXhXhXhXhXgXgXhXhXhXhXhXhXgXhXhXhXhXhXhXhXhXhXhXhXhXhXhXhXhXhX",
"hXhXhXhXhXhXhXhXhXhXhXhXhXhXhXhXhXhXhXhXhXhXhXhXhXhXhXhXhXhXhXhXhXhXhXhXhXhXhXhXhXhXhXhXhXhXhXhXhXgXhXhXhXhXhXhXhXhXhXhXhXhXhXhXhXhXhX",
"hXhXhXhXhXhXhXhXhXhXhXhXhXhXhXhXhXhXhXhXhXhXhXhXhXhXhXhXhXhXhXhXhXhXhXhXhXhXhXhXhXhXhXhXhXhXhXhXhXhXhXhXhXhXhXhXhXhXhXhXhXhXhXhXhXhXhX",
"hXhXhXhXhXhXhXhXhXhXhXhXhXhXhXhXhXhXhXhXhXhXhXhXhXhXhXhXhXhXhXhXhXhXhXhXhXhXhXhXhXhXhXhXhXhXhXhXgXhXhXhXhXhXhXhXhXhXhXhXhXhXhXhXhXhXhX",
"hXhXhXhXhXhXhXhXhXhXhXhXhXhXhXhXhXhXhXhXhXhXhXhXhXhXhXhXhXhXhXhXhXhXhXhXhXhXhXhXhXhXhXhXhXhXgXgXhXhXhXhXhXhXhXhXhXhXhXhXhXhXhXhXhXhXhX",
"hXhXhXhXhXhXhXhXhXhXhXhXhXhXhXhXhXhXhXhXhXhXhXhXhXhXhXhXhXhXhXhXhXhXhXhXhXhXhXhXhXhXhXhXhXhXhXhXhXhXhXhXhXhXhXhXhXhXhXhXhXhXhXhXhXhXhX",
"hXhXhXhXhXhXhXhXhXhXhXhXhXhXhXhXhXhXhXhXhXhXhXhXhXhXhXhXhXhXhXhXhXhXhXhXhXhXhXhXhXhXhXhXhXhXhXhXhXhXhXhXhXhXhXhXhXhXhXhXhXhXhXhXhXhXhX",
"hXhXhXhXhXhXhXhXhXhXhXhXhXhXhXhXhXhXhXhXhXhXhXhXhXhXhXhXhXhXhXhXhXhXhXhXhXhXhXhXhXhXhXhXhXhXhXhXhXhXhXhXhXhXhXhXhXhXhXhXhXhXhXhXhXhXhX",
"hXhXhXhXhXhXhXhXhXhXhXhXhXhXhXhXhXhXhXhXhXhXhXhXhXhXhXhXhXhXhXhXhXhXhXhXhXhXhXhXhXhXhXhXhXhXhXhXhXhXhXhXhXhXhXhXhXhXhXhXhXhXhXhXhXhXhX",
"hXhXhXhXhXhXhXhXhXhXhXhXhXhXhXhXhXhXhXhXhXhXhXhXhXhXhXhXhXhXhXhXhXhXhXhXhXhXhXhXhXhXhXhXhXhXhXhXhXhXhXhXhXhXhXhXhXhXhXhXhXhXhXhXhXhXhX",
"hXhXhXhXhXhXhXhXhXhXhXhXhXhXhXhXhXhXhXhXhXhXhXhXhXhXhXhXhXhXhXhXhXhXhXhXhXhXhXhXhXhXhXhXhXhXhXhXhXhXhXhXhXhXhXhXhXhXhXhXhXhXhXhXhXhXhX",
"hXhXhXhXhXhXhXhXhXhXhXhXhXhXhXhXhXhXhXhXhXhXhXhXhXhXhXhXhXhXhXhXhXhXhXhXhXhXhXhXhXhXhXhXhXhXhXhXhXhXhXhXhXhXhXhXhXhXhXhXhXhXhXhXhXhXhX",
"hXhXhXhXhXhXhXhXhXhXhXhXhXhXhXhXhXhXhXhXhXhXhXhXhXhXhXhXhXhXhXhXhXhXhXhXhXhXhXhXhXhXhXhXhXhXhXhXhXhXhXhXhXhXhXhXhXhXhXhXhXhXhXhXhXhXhX"
};
