/* XPM */
static char *nave_small_10[] = {
/* columns rows colors chars-per-pixel */
"67 67 244 2 ",
"   c #000000",
".  c #010100",
"X  c #010101",
"o  c #020200",
"O  c #030200",
"+  c #030300",
"@  c #020202",
"#  c #040303",
"$  c #040400",
"%  c #070600",
"&  c #0C0B00",
"*  c #080808",
"=  c #090909",
"-  c #0D0D0D",
";  c #0E0E0E",
":  c #100F0F",
">  c #131101",
",  c #131212",
"<  c #141313",
"1  c #151515",
"2  c #171515",
"3  c #1A1717",
"4  c #1C1919",
"5  c #1D1D1D",
"6  c #201D1D",
"7  c #211E1E",
"8  c #222001",
"9  c #2E2B02",
"0  c #2D2A0E",
"q  c #3C3802",
"w  c #25251E",
"e  c #2F2C18",
"r  c #222222",
"t  c #292929",
"y  c #312D2D",
"u  c #363232",
"i  c #353535",
"p  c #383636",
"a  c #373A3C",
"s  c #373B3D",
"d  c #363C3F",
"f  c #383838",
"g  c #393838",
"h  c #393939",
"j  c #3A3838",
"k  c #3A3939",
"l  c #3A3A3A",
"z  c #3B3A3A",
"x  c #3B3B3B",
"c  c #3C3939",
"v  c #3D3939",
"b  c #3E3939",
"n  c #3C3B3B",
"m  c #3D3B3B",
"M  c #3C3C3C",
"N  c #3D3C3C",
"B  c #3D3D3D",
"V  c #3E3C3C",
"C  c #3E3D3D",
"Z  c #3E3E3E",
"A  c #3F3E3E",
"S  c #3F3F3F",
"D  c #770F0F",
"F  c #7F0A0A",
"G  c #780F0F",
"H  c #6A1717",
"J  c #641E1E",
"K  c #721212",
"L  c #443F03",
"P  c #4C2B2B",
"I  c #572424",
"U  c #512828",
"Y  c #413232",
"T  c #443030",
"R  c #453030",
"E  c #473030",
"W  c #413B3B",
"Q  c #403D3D",
"!  c #423C3C",
"~  c #413E3E",
"^  c #403F3F",
"/  c #433F3F",
"(  c #453F3F",
")  c #6B2626",
"_  c #454003",
"`  c #4F4A03",
"'  c #4D4805",
"]  c #504B03",
"[  c #534D03",
"{  c #5C5604",
"}  c #645D04",
"|  c #6B6404",
" . c #7C7405",
".. c #40403F",
"X. c #353F45",
"o. c #314956",
"O. c #2B5A73",
"+. c #404040",
"@. c #414141",
"#. c #424040",
"$. c #424141",
"%. c #424242",
"&. c #434343",
"*. c #444040",
"=. c #454141",
"-. c #474040",
";. c #464141",
":. c #444242",
">. c #474242",
",. c #444444",
"<. c #454444",
"1. c #454545",
"2. c #474545",
"3. c #464646",
"4. c #474646",
"5. c #474747",
"6. c #484242",
"7. c #484343",
"8. c #494343",
"9. c #4A4343",
"0. c #4A4444",
"q. c #4B4545",
"w. c #494747",
"e. c #4A4747",
"r. c #4C4545",
"t. c #4C4646",
"y. c #4D4646",
"u. c #4D4747",
"i. c #4E4747",
"p. c #484848",
"a. c #494949",
"s. c #4B4949",
"d. c #4A4A4A",
"f. c #4B4B4B",
"g. c #4C4949",
"h. c #4F4848",
"j. c #4C4A4A",
"k. c #4D4A4A",
"l. c #4E4A4A",
"z. c #4E4B4B",
"x. c #4C4C4C",
"c. c #4D4D4D",
"v. c #4F4F4F",
"b. c #504C4C",
"n. c #504D4D",
"m. c #534D4D",
"M. c #514E4E",
"N. c #524E4E",
"B. c #534E4E",
"V. c #534F4F",
"C. c #544F4F",
"Z. c #505050",
"A. c #515151",
"S. c #525252",
"D. c #535353",
"F. c #545050",
"G. c #545151",
"H. c #555151",
"J. c #565252",
"K. c #575353",
"L. c #545454",
"P. c #555555",
"I. c #565656",
"U. c #575756",
"Y. c #575757",
"T. c #5A5656",
"R. c #585858",
"E. c #595959",
"W. c #5B5858",
"Q. c #5A5A5A",
"!. c #5B5B5B",
"~. c #5C5959",
"^. c #5D5B5B",
"/. c #5E5B5B",
"(. c #5C5C5C",
"). c #5D5D5D",
"_. c #5E5E5E",
"`. c #5F5F5F",
"'. c #6A5E5E",
"]. c #795050",
"[. c #606060",
"{. c #616060",
"}. c #616161",
"|. c #626060",
" X c #636161",
".X c #626262",
"XX c #636363",
"oX c #646464",
"OX c #656565",
"+X c #676565",
"@X c #666666",
"#X c #676666",
"$X c #676767",
"%X c #686868",
"&X c #696969",
"*X c #6A6A6A",
"=X c #6B6A6A",
"-X c #6B6B6B",
";X c #6C6B6B",
":X c #6C6C6C",
">X c #6D6C6C",
",X c #6D6D6D",
"<X c #6E6E6E",
"1X c #6F6F6F",
"2X c #707070",
"3X c #717171",
"4X c #727171",
"5X c #727272",
"6X c #890303",
"7X c #8B0202",
"8X c #880404",
"9X c #803333",
"0X c #827905",
"qX c #877E06",
"wX c #8B8106",
"eX c #908606",
"rX c #958B05",
"tX c #988E06",
"yX c #9B9106",
"uX c #A89C07",
"iX c #AA9E06",
"pX c #B1A407",
"aX c #B7AA07",
"sX c #C1B307",
"dX c #C1B407",
"fX c #C2B407",
"gX c #D4C508",
"hX c #D6C708",
"jX c #E7D709",
"kX c #EBDB09",
"lX c #EDDD09",
"zX c #F0DF09",
"xX c #276485",
"cX c #286180",
"vX c #26678A",
"bX c #236F98",
"nX c #22739E",
"mX c #1691D3",
"MX c #1593D8",
"NX c #1594D9",
"BX c #119EEA",
"VX c #119EEB",
"CX c #119FEB",
"ZX c None",
/* pixels */
"ZXZXZXZXZXZXZXZXZXZXZXZXZXZXZXZXZXZXZXZXZXZXZXZXZXZXZXZXZXZXZXZXZXZXZXZXZXZXZXZXZXZXZXZXZXZXZXZXZXZXZXZXZXZXZXZXZXZXZXZXZXZXZXZXZXZXZX",
"ZXZXZXZXZXZXZXZXZXZXZXZXZXZXZXZXZXZXZXZXZXZXZXZXZXZXZXZXZXZXZXZXZXZXZXZXZXZXZXZXZXZXZXZXZXZXZXZXZXZXZXZXZXZXZXZXZXZXZXZXZXZXZXZXZXZXZX",
"ZXZXZXZXZXZXZXZXZXZXZXZXZXZXZXZXZXZXZXZXZXZXZXZXZXZXZXZXZXZXZXZXZXZXZXZXZXZXZXZXZXZXZXZXZXZXZXZXZXZXZXZXZXZXZXZXZXZXZXZXZXZXZXZXZXZXZX",
"ZXZXZXZXZXZXZXZXZXZXZXZXZXZXZXZXZXZXZXZXZXZXZXZXZXZXZXZXZXZXZXZXZXZXZXZXZXZXZXZXZXZXZXZXZXZXZXZXZXZXZXZXZXZXZXZXZXZXZXZXZXZXZXZXZXZXZX",
"ZXZXZXZXZXZXZXZXZXZXZXZXZXZXZXZXZXZXZXZXf f ZXZXZXZXZXZXZXZXZXZXZXZXZXZXZXZXZXZXZXZXZXZXZXZXZXZXZXZXZXZXZXZXZXZXZXZXZXZXZXZXZXZXZXZXZX",
"ZXZXZXZXZXZXZXZXZXZXZXZXZXZXZXZXZXZXZXZXf f ZXZXZXZXZXZXZXZXZXZXZXZXZXZXZXZXZXZXZXZXZXZXZXZXZXZXZXZXZXZXZXZXZXZXZXZXZXZXZXZXZXZXZXZXZX",
"ZXZXZXZXZXZXZXZXZXZXZXZXZXZXZXZXZXZXZXf f f f ZXZXZXZXZXZXZXZXZXZXZXZXZXZXZXZXZXZXZXZXZXZXZXZXZXZXZXZXZXZXZXZXZXZXZXZXZXZXZXZXZXZXZXZX",
"ZXZXZXZXZXZXZXZXZXZXZXZXZXZXZXZXZXZXZXf M x f ZXZXZXZXZXZXZXZXZXZXZXZXZXZXZXZXZXZXZXZXZXZXZXZXZXZXZXZXZXZXZXZXZXZXZXZXZXZXZXZXZXZXZXZX",
"ZXZXZXZXZXZXZXZXZXZXZXZXZXZXZXZXZXZXZXZX<XY.f f ZXZXZXZXZXZXZXZXZXZXZXZXZXZXZXZXZXZXZXZXZXZXZXZXZXZXZXZXZXZXZXZXZXZXZXZXZXZXZXZXZXZXZX",
"ZXZXZXZXZXZXZXZXZXZXZXZXZXZXZXZXZXZXf d.5X2XZ f ZXZXZXZXZXZXZXZXZXZXZXZXZXZXZXZXZXZXZXZXZXZXZXZXZXZXZXZXZXZXZXZXZXZXZXZXZXZXZXZXZXZXZX",
"ZXZXZXZXZXZXZXZXZXZXZXZXZXZXZXZXf f f f oX5X!.f f ZXZXZXZXZXZXZXZXZXZXZXZXZXZXZXZXZXZXZXZXZXZXZXZXZXZXZXZXZXZXZXZXZXZXZXZXZXZXZXZXZXZX",
"ZXZXZXZXZXZXZXZXZXZXZXZXZXZXZXf f B 1.f 3.5X3X@.f ZXZXZXZXZXZXZXZXZXZXZXZXZXZXZXZXZXZXZXZXZXZXZXZXZXZXZXZXZXZXZXZXZXZXZXZXZXZXZXZXZXZX",
"ZXZXZXZXZXZXZXZXZXZXZXZXZXf f x P.1X-Xl f }.5X`.f f ZXZXZXZXZXZXZXZXZXZXZXZXZXZXZXZXZXZXZXZXZXZXZXZXZXZXZXZXZXZXZXZXZXZXZXZXZXZXZXZXZX",
"ZXZXZXZXZXZXZXZXZXZXZXf f k A.,X5X5X$X+.f &.4X4X,.f ZXZXZXZXZXZXZXZXZXZXZXZXZXZXZXZXZXZXZXZXZXZXZXZXZXZXZXZXZXZXZXZXZXZXZXZXZXZXZXZXZX",
"ZXZXZXZXZXZXZXZXZXf f h c.*X5X5X*Xx.g f f f ).5X.Xf f ZXZXZXZXZXZXZXZXZXZXZXZXZXZXZXZXZXZXZXZXZXZXZXZXZXZXZXBXZXZXZXZXZXZXZXZXZXZXZXZX",
"ZXZXZXZXZXZXZXf f f U '.5X5X:XZ.h f f f f f +.3X5X5.f ZXZXZXZXZXZXZXZXZXZXZXZXZXZXZXZXZXZXZXZXBXBXZXZXZXZXZXBXZXZXBXZXZXZXZXZXZXZXZXZX",
"ZXZXZXZXZXZXZXf P G 7X9X<XD.x f f ZXZXf f B E.3X5XOXf f ZXZXZXZXZXZXZXZXZXZXZXZXZXVXZXZXZXZXZXVXBXZXBXBXZXZXZXZXZXBXBXZXZXZXZXZXZXZXZX",
"ZXZXZXZXZXZXZXZX7X7X8XJ M f f ZXZXZXZXf f Z.5X5X=X~.#.f f ZXZXZXZXZXZXZXZXZXZXZXZXBXZXZXBXZXZXZXZXZXBXBXZXZXZXZXZXVXBXZXZXZXZXZXZXZXZX",
"ZXZXZXZXZXZXf T 8XH Y f f f ZXZXZXZXZXZXf k *X5X XJ.M.g f ZXZXZXZXZXZXZXZXZXZXZXZXZXZXZXBXVXZXZXZXZXZXBXBXZXZXZXZXZXZXZXZXZXZXZXZXZXZX",
"ZXZXZXZXZXZXf ZXZXf f f ZXZXZXZXZXZXZXZXf f c.5X1XK.J.:.f f ZXf ZXZXZXZXZXZXZXZXZXZXZXZXBXBXZXZXZXZXZXBXBXZXZXZXZXVXZXZXZXZXZXZXZXZXZX",
"ZXZXZXZXZXZXZXZXZXf ZXZXZXZXZXZXZXZXZXZXf f h {.T.J.J.V.h f f h ZXf f ZXZXZXf f ZXZXZXZXZXBXBXZXZXZXZXZXBXBXZXZXZXBXZXZXZXZXZXZXZXZXZX",
"ZXZXZXZXZXZXZXZXZXZXZXZXZXZXZXZXZXZXZXf f C n.J.J.J.J.J.<.f x &X4X,.S ZXf f f f ZXZXZXZXZXBXBXZXZXZXZXZXBXBXZXZXZXZXZXZXZXZXZXZXZXZXZX",
"ZXZXZXZXZXZXZXZXZXZXZXZXZXZXZXZXZXZXZXZXf M H.F.N.J.J.J.g.f f ).5X*X2X2XS f f f f ZXZXZXZXZXBXBXZXZXZXZXZXBXBXZXZXZXZXZXZXZXZXZXZXZXZX",
"ZXZXZXZXZXZXZXZXZXZXZXZXZXZXZXZXZXZXZXf f f $.l A J.b.^ f f f +.3X5X5X5X(.f f X.bXO.f ZXZXZXBXBXZXZXZXZXZXZXZXZXZXZXZXZXZXZXZXZXZXZXZX",
"ZXZXZXZXZXZXZXZXZXZXZXZXZXZXZXZXZXZXf f f f f f %.j.f f g ~ k f Q.5X5X5X4X%.f vXBXmXs f ZXZXZXBXBXZXZXZXVXVXZXZXZXZXZXZXZXZXZXZXZXZXZX",
"ZXZXZXZXZXZXZXZXZXZXZXZXZXZXZXZXZXZXZXf f f S (.3X%Xh Q 0.y.*.f Z 1X5X5X5X[.f d MXBXxXf ZXZXZXZXBXZXZXZXBXBXZXZXZXZXZXZXZXZXZXZXZXZXZX",
"ZXZXZXZXZXZXZXZXZXZXZXZXZXZXZXZXZXZXf f B R.2X5X5X+Xu.y.y.y.t.z f I.5X5X5X5X1.f cXBXNXZXZXZXZXZXBXBXZXZXZXZXZXZXZXZXZXZXZXZXZXZXZXZXZX",
"ZXZXZXZXZXZXZXZXZXZXZXZXZXZXZXZXZXZXx L.<X5X5XY.p y.y.y.y.y.y.=.f M <X5X5X5XoXf a nXo.ZXZXZXZXZXZXBXZXZXZXZXZXZXZXZXZXZXZXZXZXZXZXZXZX",
"ZXZXZXZXZXZXZXZXZXZXZXZXZXZXZXZXZXZX*X5X5X).r X # ( y.y.y.y.y.y.n f D.5X5X5X5Xa.f f f f ZXZXZXZXZXZXZXZXZXZXZXZXZXZXZXZXZXZXZXZXZXZXZX",
"ZXZXZXZXZXZXZXZXZXZXZXZXZXZXZXZXf f Y..Xt @       6 y.y.y.y.y.y.>.f l -X5X5X5X$Xg f f f ZXZXZXZXCXZXZXZXZXZXZXZXZXZXZXZXZXZXZXZXZXZXZX",
"ZXZXZXZXZXZXZXZXZXZXZXZXZXZXf f f Z E.-   O [ rX. @ ! y.y.y.y.y.y.m f v.5X5X5X5Xx.f f f ZXZXZXZXBXZXZXZXZXZXZXZXZXZXZXZXZXZXZXZXZXZXZX",
"ZXZXZXZXZXZXZXZXZXZXZXZXZXf f M I.1X5X..L sXzXzX_   4 y.y.y.y.y.y.7.f h &X5X5X5X*Xh f ZXZXZXZXZXZXZXZXZXZXZXZXZXZXZXZXZXZXZXZXZXZXZXZX",
"ZXZXZXZXZXZXZXZXZXZXZXZXZXf f (.5X5XQ.w hXzXzXzXfX+ X b y.y.y.y.y.y.V f f.5X5X5X:XZXZXZXZXZXZXZXZXZXZXZXZXZXZXZXZXZXZXZXZXZXZXZXZXZXZX",
"ZXZXZXZXZXZXZXZXZXZXZXZXZXf f @.3X5X5   } zXzXzXzX`   2 y.i.i.y.y.y.8.f g @X5XOXx f ZXZXZXZXZXZXZXZXZXZXZXZXZXZXZXZXZXZXZXZXZXZXZXZXZX",
"ZXZXZXZXZXZXZXZXZXZXZXf f f S (.4X5XU.{ gXzXzXjXpX .$   v H.m.y.y.y.y.Q f p.5X2X+.f ZXZXZXZXZXZXZXZXZXZXZXZXZXZXZXZXZXZXZXZXZXZXZXZXZX",
"ZXZXZXZXZXZXZXZXZXZXf f B R.2X5X5XS.1 iXzXzXzXkXtXeXq   < J.J.h.y.y.t./ f f XX%XZXZXZXZXZXZXZXZXZXZXZXZXZXZXZXZXZXZXZXZXZXZXZXZXZXZXZX",
"ZXZXZXZXZXZXZXZXZXZXZXf a.5X5X5X5Xi   9 lXzXzXzXaXeX0X%   c J.B.y.;.z f f f B h f ZXZXZXZXZXZXZXZXZXZXZXZXZXZXZXZXZXZXZXZXZXZXZXZXZXZX",
"ZXZXZXZXZXZXZXZXZXZXf f f OX5X5X5X&X*   yXzXdXuXeXeXqX8   : G.J.#.f f l 4.k f f ZXZXZXZXZXZXZXZXZXZXZXZXZXZXZXZXZXZXZXZXZXZXZXZXZXZXZX",
"ZXZXZXZXZXZXZXZXZXf f Z _.4X5X5X5X5XM   0 ' o | wX] &     , l.J.z.k 2.G.J.2.f f ZXZXZXZXZXZXZXZXZXZXZXZXZXZXZXZXZXZXZXZXZXZXZXZXZXZXZX",
"ZXZXZXZXZXZXZXZXZXZXf Z 2X5X5X5X5X5X:Xu r.7 @ e >     ; j H.J.H.w.g.J.J.W.#XB f ZXZXZXZXZXZXZXZXZXZXZXZXZXZXZXZXZXZXZXZXZXZXZXZXZXZXZX",
"ZXZXZXZXZXZXZXZXZXf f f Y.5X5X5X5X5X5X|.y.-.W y.3 = y F.J.J.s.n f C J.J.;X5XR.f f ZXZXZXZXZXZXZXZXZXZXZXZXZXZXZXZXZXZXZXZXZXZXZXZXZXZX",
"ZXZXZXZXZXZXZXZXZXf f f M <X1X$X5X5X5X.Xq.y.y.q.v 9.y.C.k.B f f x e.J.J./.5X2XS f ZXZXZXZXZXZXZXZXZXZXZXZXZXZXZXZXZXZXZXZXZXZXZXZXZXZX",
"ZXZXZXZXZXZXZXZXZXf f f f 5.B S 2X@Xp.f Q r./ h f *.6.N f f f f 2.J.J.^.>X5X5X(.f f ZXZXZXZXZXZXZXZXZXZXZXZXZXZXZXZXZXZXZXZXZXZXZXZXZX",
"ZXZXZXZXZXZXZXZXZXZXf ZXf f f f &.g f f f k f f f ZXf f f f f f k k.S !.5X5X5X3X%.f ZXZXZXZXZXZXZXZXZXZXZXZXZXZXZXZXZXZXZXZXZXZXZXZXZX",
"ZXZXZXZXZXZXZXZXZXZXZXZXZXf ZXf f f ZXZXf f f ZXZXZXZXZXZXf f f f f f Z 2X5X5X5X`.f f ZXZXZXZXZXZXZXZXZXZXZXZXZXZXZXZXZXZXZXZXZXZXZXZX",
"ZXZXZXZXZXZXZXZXZXZXZXZXZXZXZXf ZXZXZXZXf ZXZXZXZXZXZXZXZXZXZXZXf f f f Y.5X*X3X4X1.f ZXZXZXZXZXZXZXZXZXZXZXZXZXZXZXZXZXZXZXZXZXZXZXZX",
"ZXZXZXZXZXZXZXZXZXZXZXZXZXZXZXZXZXZXZXZXZXZXZXZXZXZXZXZXZXZXZXZXZXZXZXf M v.h ).5XXXf f ZXZXZXZXZXZXZXZXZXZXZXZXZXZXZXZXZXZXZXZXZXZXZX",
"ZXZXZXZXZXZXZXZXZXZXZXZXZXZXZXZXZXZXZXZXZXZXZXZXZXZXZXZXZXZXZXZXZXZXZXZXf f f S 2X5Xp.f ZXZXZXZXZXZXZXZXZXZXZXZXZXZXZXZXZXZXZXZXZXZXZX",
"ZXZXZXZXZXZXZXZXZXZXZXZXZXZXZXZXZXZXZXZXZXZXZXZXZXZXZXZXZXZXZXZXZXZXZXZXf f f f E.5X@Xg f ZXZXZXZXZXZXZXZXZXZXZXZXZXZXZXZXZXZXZXZXZXZX",
"ZXZXZXZXZXZXZXZXZXZXZXZXZXZXZXZXZXZXZXZXZXZXZXZXZXZXZXZXZXZXZXZXZXZXZXZXf f f f B 1X5Xf.f f ZXZXZXZXZXZXZXZXZXZXZXZXZXZXZXZXZXZXZXZXZX",
"ZXZXZXZXZXZXZXZXZXZXZXZXZXZXZXZXZXZXZXZXZXZXZXZXZXZXZXZXZXZXZXZXZXZXZXf f h v.+.f P.5X&Xh f ZXZXZXZXZXZXZXZXZXZXZXZXZXZXZXZXZXZXZXZXZX",
"ZXZXZXZXZXZXZXZXZXZXZXZXZXZXZXZXZXZXZXZXZXZXZXZXZXZXZXZXZXZXZXZXZXf f g f.&X5X_.f x ,X5Xv.f f ZXZXZXZXZXZXZXZXZXZXZXZXZXZXZXZXZXZXZXZX",
"ZXZXZXZXZXZXZXZXZXZXZXZXZXZXZXZXZXZXZXZXZXZXZXZXZXZXZXZXZXZXZXf f f 5.@X5X5X,XS.f f Z.}.%.f f ZXZXZXZXZXZXZXZXZXZXZXZXZXZXZXZXZXZXZXZX",
"ZXZXZXZXZXZXZXZXZXZXZXZXZXZXZXZXZXZXZXZXZXZXZXZXZXZXZXZXZXf f f ,..X5X5X1XI.M f f f ZXf f f f f ZXZXZXZXZXZXZXZXZXZXZXZXZXZXZXZXZXZXZX",
"ZXZXZXZXZXZXZXZXZXZXZXZXZXZXZXZXZXZXZXZXZXZXZXZXZXZXZXZXf f R ) 4X5X2XE.C f f f ZXZXZXZXZXZXf f ZXZXZXZXZXZXZXZXZXZXZXZXZXZXZXZXZXZXZX",
"ZXZXZXZXZXZXZXZXZXZXZXZXZXZXZXZXZXZXZXZXZXZXZXZXZXZXZXZXY H 6X7X].).+.f f f ZXZXZXZXZXZXZXZXZXZXZXZXZXZXZXZXZXZXZXZXZXZXZXZXZXZXZXZXZX",
"ZXZXZXZXZXZXZXZXZXZXZXZXZXZXZXZXZXZXZXZXZXZXZXZXZXZXZXZXF 7X7XK E f f f ZXZXZXZXZXZXZXZXZXZXZXZXZXZXZXZXZXZXZXZXZXZXZXZXZXZXZXZXZXZXZX",
"ZXZXZXZXZXZXZXZXZXZXZXZXZXZXZXZXZXZXZXZXZXZXZXZXZXZXZXf I D P f f f ZXZXZXZXZXZXZXZXZXZXZXZXZXZXZXZXZXZXZXZXZXZXZXZXZXZXZXZXZXZXZXZXZX",
"ZXZXZXZXZXZXZXZXZXZXZXZXZXZXZXZXZXZXZXZXZXZXZXZXZXZXZXZXZXf f f ZXZXZXZXZXZXZXZXZXZXZXZXZXZXZXZXZXZXZXZXZXZXZXZXZXZXZXZXZXZXZXZXZXZXZX",
"ZXZXZXZXZXZXZXZXZXZXZXZXZXZXZXZXZXZXZXZXZXZXZXZXZXZXZXZXZXZXZXZXZXZXZXZXZXZXZXZXZXZXZXZXZXZXZXZXZXZXZXZXZXZXZXZXZXZXZXZXZXZXZXZXZXZXZX",
"ZXZXZXZXZXZXZXZXZXZXZXZXZXZXZXZXZXZXZXZXZXZXZXZXZXZXZXZXZXZXZXZXZXZXZXZXZXZXZXZXZXZXZXZXZXZXZXZXZXZXZXZXZXZXZXZXZXZXZXZXZXZXZXZXZXZXZX",
"ZXZXZXZXZXZXZXZXZXZXZXZXZXZXZXZXZXZXZXZXZXZXZXZXZXZXZXZXZXZXZXZXZXZXZXZXZXZXZXZXZXZXZXZXZXZXZXZXZXZXZXZXZXZXZXZXZXZXZXZXZXZXZXZXZXZXZX",
"ZXZXZXZXZXZXZXZXZXZXZXZXZXZXZXZXZXZXZXZXZXZXZXZXZXZXZXZXZXZXZXZXZXZXZXZXZXZXZXZXZXZXZXZXZXZXZXZXZXZXZXZXZXZXZXZXZXZXZXZXZXZXZXZXZXZXZX",
"ZXZXZXZXZXZXZXZXZXZXZXZXZXZXZXZXZXZXZXZXZXZXZXZXZXZXZXZXZXZXZXZXZXZXZXZXZXZXZXZXZXZXZXZXZXZXZXZXZXZXZXZXZXZXZXZXZXZXZXZXZXZXZXZXZXZXZX",
"ZXZXZXZXZXZXZXZXZXZXZXZXZXZXZXZXZXZXZXZXZXZXZXZXZXZXZXZXZXZXZXZXZXZXZXZXZXZXZXZXZXZXZXZXZXZXZXZXZXZXZXZXZXZXZXZXZXZXZXZXZXZXZXZXZXZXZX",
"ZXZXZXZXZXZXZXZXZXZXZXZXZXZXZXZXZXZXZXZXZXZXZXZXZXZXZXZXZXZXZXZXZXZXZXZXZXZXZXZXZXZXZXZXZXZXZXZXZXZXZXZXZXZXZXZXZXZXZXZXZXZXZXZXZXZXZX",
"ZXZXZXZXZXZXZXZXZXZXZXZXZXZXZXZXZXZXZXZXZXZXZXZXZXZXZXZXZXZXZXZXZXZXZXZXZXZXZXZXZXZXZXZXZXZXZXZXZXZXZXZXZXZXZXZXZXZXZXZXZXZXZXZXZXZXZX"
};
