/* XPM */
static char * nave2_xpm[] = {
"54 50 129 2",
"  	c None",
". 	c #337B85",
"+ 	c #34757E",
"@ 	c #337F89",
"# 	c #337982",
"$ 	c #32858F",
"% 	c #318A95",
"& 	c #363636",
"* 	c #45A9B6",
"= 	c #1DDFF2",
"- 	c #2AD3E5",
"; 	c #337D87",
"> 	c #30929E",
", 	c #4C98A3",
"' 	c #337A84",
") 	c #347881",
"! 	c #20D8EB",
"~ 	c #2CC4D5",
"{ 	c #34A8B6",
"] 	c #328F9A",
"^ 	c #2CB5C4",
"/ 	c #333232",
"( 	c #23D2E4",
"_ 	c #30B6C6",
": 	c #30B7C7",
"< 	c #2FA3B0",
"[ 	c #8A0303",
"} 	c #801515",
"| 	c #171414",
"1 	c #383838",
"2 	c #33818B",
"3 	c #860C0C",
"4 	c #850D0D",
"5 	c #32838E",
"6 	c #7C7311",
"7 	c #847A03",
"8 	c #7D752F",
"9 	c #3D3D3D",
"0 	c #292525",
"a 	c #000000",
"b 	c #DFCF08",
"c 	c #F0DF09",
"d 	c #D5C607",
"e 	c #4B4B4B",
"f 	c #7F4F4F",
"g 	c #764B4B",
"h 	c #30919D",
"i 	c #25CCDE",
"j 	c #34747D",
"k 	c #58511A",
"l 	c #655D03",
"m 	c #E2D208",
"n 	c #AA9E04",
"o 	c #8C8436",
"p 	c #7C4D4D",
"q 	c #7B4C4C",
"r 	c #717171",
"s 	c #696969",
"t 	c #353131",
"u 	c #776E04",
"v 	c #908606",
"w 	c #E6D509",
"x 	c #BAAD05",
"y 	c #727272",
"z 	c #6F6F6F",
"A 	c #6E6E6E",
"B 	c #328791",
"C 	c #355A60",
"D 	c #B4A707",
"E 	c #BCAE07",
"F 	c #355B61",
"G 	c #347780",
"H 	c #28C4D5",
"I 	c #968C06",
"J 	c #F1E009",
"K 	c #355D63",
"L 	c #35565B",
"M 	c #34767F",
"N 	c #2F2B01",
"O 	c #3A3501",
"P 	c #3D3801",
"Q 	c #665F02",
"R 	c #4D4701",
"S 	c #060606",
"T 	c #050404",
"U 	c #33808A",
"V 	c #656363",
"W 	c #328E9A",
"X 	c #686868",
"Y 	c #616161",
"Z 	c #5F5D5D",
"` 	c #666666",
" .	c #656565",
"..	c #5E5E5E",
"+.	c #3FB8C7",
"@.	c #3DB8C7",
"#.	c #636161",
"$.	c #615E5E",
"%.	c #2BD3E5",
"&.	c #686767",
"*.	c #6C6B6B",
"=.	c #636363",
"-.	c #6A6A6A",
";.	c #615F5F",
">.	c #353535",
",.	c #318C97",
"'.	c #35575C",
").	c #676767",
"!.	c #2F99A5",
"~.	c #53848C",
"{.	c #25CBDD",
"].	c #3CBAC9",
"^.	c #6C6C6C",
"/.	c #306188",
"(.	c #2F6691",
"_.	c #315E82",
":.	c #1994DB",
"<.	c #119EEA",
"[.	c #1F8ED0",
"}.	c #31909B",
"|.	c #2A75A8",
"1.	c #2978AD",
"2.	c #2B72A4",
"3.	c #1099E2",
"4.	c #1095DC",
"5.	c #1099E3",
"6.	c #119AE4",
"7.	c #119BE6",
"8.	c #119CE7",
"                                                  . + + @                                                   ",
"                                                  # + + .                                                   ",
"                                              $ + + + + + + %                                               ",
"                                            & . + * = = - + ; &                                             ",
"                                          > + + + = = = = + + +                                             ",
"                                          > + , = = = = = = - +                                             ",
"                                          > + = = = = = = = = +                                             ",
"              . &                       ' ) + = = = = = = = = + ) '                       ; @               ",
"            ! ~ {                       + ] ^ / = = = = = = ( = ^ +                       _ :               ",
"          & < [ } + &                   + = = = = | = = 1 = = = = +                   2 + 3 4 + 5           ",
"          & < [ } + &                   + = = = = 6 7 7 8 9 = = = +                   2 + 3 4 + 5           ",
"          & < [ } + &                   + = = 0 a b c c d a e = = +                   2 + 3 4 + 5           ",
"          & < f g + &               h i = ( j k l m c c m n o = - * = h               2 + p q + 5           ",
"          & ] r s + &               + = = t a u v w c c c c x a * y = +               2 + z A + 5           ",
"          & ] r s + &           B C + = = < a u v D E c c c x a * y = + F &           2 + z A + 5           ",
"          & ] r s + &           G + + = = H a u v v I J c c x a * y = + + &           2 + z A + 5           ",
"          & ] r s + &       K L M + + = = H a N O O P Q Q Q R a * y = + + M L &       2 + z A + 5           ",
"          & ] r s + &       @ + ] ] + = = H S S S T T T T T T T * y = + ] ] + &       U + z A + 5           ",
"          & ] r s + + + + + + + = = + = = = = = = = = = = = = = V y = W = = + + + + + + + z A + 5           ",
"          & ] X Y + + + = = = = = = = = = = = = = = = = = = = = Z s = = = = = = = = + + + `  .+ 5           ",
"          & + + + + + + ..y y y = = = = + = = = = = = = = = = = = + = = = +.y y y @.+ + + + + + 5           ",
"          = = = = = = = ` y y y #.$.= = + = = = = = = = = = = = = + = = = %.&.*.y =.= = = = = = =           ",
"      & + -.y y y y y y y y y y y z = = + = = = = = = = = = = = = + = = = = = ;.y y y y y y y y  .+ >.      ",
"    ,.L + = - - - - - - - - - - - = = = + ( = = = = = = = = = = H + = = = = = = - - - - - - - - = + '.,.    ",
"    + + + + + + + + + + + + + + + + + + + + + + + + + + + + + + + + + + + + + + + + + + + + + + + + + +     ",
"                                    + = ).).).).).).).).).).).).).).= +                                     ",
"                                    + = y y y y y y y y y y y y y y = +                                     ",
"                                      !.( ~.y y y y y y y y y y - ( {.                                      ",
"                                        ' ].^.^.^.^.^.^.^.^.^.^.= '                                         ",
"                                          > + + + + + + + + + +                                             ",
"                                          > + + + /.(.(._.+ + +                                             ",
"                                          > + + + :.<.<.[.+ + +                                             ",
"                                            }.}.}.|.1.1.2.}.}.}.                                            ",
"                                                  1 1 1 1                                                   ",
"                                        3.                        3.                                        ",
"                                        <.4.                    5.<.                                        ",
"                                            <.<.<.<.<.<.<.<.<.<.                                            ",
"                                            6.6.6.6.6.6.6.6.6.6.                                            ",
"                                                                                                            ",
"                                                                                                            ",
"                                            <.                <.                                            ",
"                                            7.                7.                                            ",
"                                              <.<.<.<.<.<.<.<.                                              ",
"                                                                                                            ",
"                                                                                                            ",
"                                              8.8.        8.                                                ",
"                                              <.<.        <.<.                                              ",
"                                                  7.7.7.7.                                                  ",
"                                                  <.<.<.<.                                                  ",
"                                                                                                            "};
