/* XPM */
static char *nave_small_15[] = {
/* columns rows colors chars-per-pixel */
"67 67 221 2 ",
"   c #000000",
".  c #010000",
"X  c #010100",
"o  c #020202",
"O  c #030303",
"+  c #040404",
"@  c #050505",
"#  c #070707",
"$  c #080707",
"%  c #090800",
"&  c #0D0C00",
"*  c #0E0D00",
"=  c #090808",
"-  c #0B0A0A",
";  c #0D0C0C",
":  c #111001",
">  c #151401",
",  c #1C1A01",
"<  c #101010",
"1  c #131313",
"2  c #151313",
"3  c #1E1C15",
"4  c #201D1D",
"5  c #282601",
"6  c #292602",
"7  c #302D02",
"8  c #3E3902",
"9  c #232323",
"0  c #242121",
"q  c #2B2727",
"w  c #3D3C26",
"e  c #333030",
"r  c #363131",
"t  c #343434",
"y  c #373434",
"u  c #3C3535",
"i  c #3F3434",
"p  c #383838",
"a  c #393838",
"s  c #393939",
"d  c #3A3939",
"f  c #3A3A3A",
"g  c #3B3A3A",
"h  c #3B3B3B",
"j  c #3C3B3B",
"k  c #3D3B3B",
"l  c #3C3C3C",
"z  c #3D3C3C",
"x  c #3D3D3D",
"c  c #3E3C3C",
"v  c #3E3D3D",
"b  c #3F3D3D",
"n  c #3E3E3E",
"m  c #3F3E3E",
"M  c #3F3F3F",
"N  c #7B0D0D",
"B  c #6F1414",
"V  c #631C1C",
"C  c #691818",
"Z  c #751010",
"A  c #751111",
"S  c #452F2F",
"D  c #4A2C2C",
"F  c #572424",
"G  c #5E2020",
"H  c #4F3434",
"J  c #403B3B",
"K  c #403D3D",
"L  c #423C3C",
"P  c #413E3E",
"I  c #423F3F",
"U  c #433F3F",
"Y  c #6C3F3F",
"T  c #7E3D3D",
"R  c #534D03",
"E  c #534D04",
"W  c #575205",
"Q  c #5B5404",
"!  c #615B08",
"~  c #6F6705",
"^  c #716904",
"/  c #7C7305",
"(  c #363D40",
")  c #353F44",
"_  c #354147",
"`  c #2F4F60",
"'  c #2C5971",
"]  c #295F7D",
"[  c #404040",
"{  c #414040",
"}  c #414141",
"|  c #424242",
" . c #434242",
".. c #434343",
"X. c #454141",
"o. c #464141",
"O. c #444242",
"+. c #444444",
"@. c #454545",
"#. c #464444",
"$. c #464646",
"%. c #474747",
"&. c #494343",
"*. c #4A4343",
"=. c #4B4545",
"-. c #484646",
";. c #494646",
":. c #484747",
">. c #4A4747",
",. c #4C4545",
"<. c #4D4646",
"1. c #4F4646",
"2. c #484848",
"3. c #494949",
"4. c #4A4848",
"5. c #4A4A4A",
"6. c #4B4B4B",
"7. c #4C4949",
"8. c #4E4848",
"9. c #4F4949",
"0. c #4D4A4A",
"q. c #4E4A4A",
"w. c #4C4C4C",
"e. c #4D4D4D",
"r. c #4F4C4C",
"t. c #4E4E4E",
"y. c #4F4F4F",
"u. c #514B4B",
"i. c #504D4D",
"p. c #524C4C",
"a. c #524E4E",
"s. c #524F4F",
"d. c #534F4F",
"f. c #505050",
"g. c #515151",
"h. c #525252",
"j. c #535353",
"k. c #545050",
"l. c #545151",
"z. c #555151",
"x. c #565252",
"c. c #545454",
"v. c #555555",
"b. c #575454",
"n. c #575555",
"m. c #565656",
"M. c #575757",
"N. c #585353",
"B. c #585857",
"V. c #585858",
"C. c #595959",
"Z. c #5A5A5A",
"A. c #5B5B5B",
"S. c #5C5C5C",
"D. c #5D5D5D",
"F. c #5E5C5C",
"G. c #5E5E5E",
"H. c #5F5F5F",
"J. c #6D4949",
"K. c #615E5E",
"L. c #615F5F",
"P. c #795151",
"I. c #606060",
"U. c #616161",
"Y. c #626262",
"T. c #636363",
"R. c #646262",
"E. c #646464",
"W. c #656565",
"Q. c #666666",
"!. c #676767",
"~. c #686666",
"^. c #686868",
"/. c #696969",
"(. c #6A6A6A",
"). c #6B6A6A",
"_. c #6B6B6B",
"`. c #6C6B6B",
"'. c #6C6C6C",
"]. c #6D6C6C",
"[. c #6D6D6D",
"{. c #6E6D6D",
"}. c #6E6E6E",
"|. c #6F6F6F",
" X c #707070",
".X c #717171",
"XX c #727272",
"oX c #850606",
"OX c #8B0202",
"+X c #8A0303",
"@X c #820808",
"#X c #827905",
"$X c #8E8405",
"%X c #8E8406",
"&X c #908606",
"*X c #918706",
"=X c #968B06",
"-X c #A29606",
";X c #A79B07",
":X c #AFA306",
">X c #B1A407",
",X c #B8AB07",
"<X c #BBAE07",
"1X c #C9BB08",
"2X c #CEBF08",
"3X c #D0C208",
"4X c #D7C808",
"5X c #E9D909",
"6X c #ECDC09",
"7X c #EFDE09",
"8X c #F0DF09",
"9X c #F1E009",
"0X c #256A90",
"qX c #2175A1",
"wX c #1C82B9",
"eX c #1B84BE",
"rX c #1593D6",
"tX c #129CE7",
"yX c #119EEA",
"uX c #119EEB",
"iX c None",
/* pixels */
"iXiXiXiXiXiXiXiXiXiXiXiXiXiXiXiXiXiXiXiXiXiXiXiXiXiXiXiXiXiXiXiXiXiXiXiXiXiXiXiXiXiXiXiXiXiXiXiXiXiXiXiXiXiXiXiXiXiXiXiXiXiXiXiXiXiXiX",
"iXiXiXiXiXiXiXiXiXiXiXiXiXiXiXiXiXiXiXiXiXiXiXiXiXiXiXiXiXiXiXiXiXiXiXiXiXiXiXiXiXiXiXiXiXiXiXiXiXiXiXiXiXiXiXiXiXiXiXiXiXiXiXiXiXiXiX",
"iXiXiXiXiXiXiXiXiXiXiXiXiXiXiXiXiXiXiXiXiXiXiXiXiXiXiXiXiXiXiXiXiXiXiXiXiXiXiXiXiXiXiXiXiXiXiXiXiXiXiXiXiXiXiXiXiXiXiXiXiXiXiXiXiXiXiX",
"iXiXiXiXiXiXiXiXiXiXiXiXiXiXiXiXiXiXiXiXiXiXiXiXiXiXiXiXiXiXiXiXiXiXiXiXiXiXiXiXiXiXiXiXiXiXiXiXiXiXiXiXiXiXiXiXiXiXiXiXiXiXiXiXiXiXiX",
"iXiXiXiXiXiXiXiXiXiXiXiXiXiXiXiXiXiXiXiXiXiXiXiXiXiXiXiXiXiXiXiXiXiXiXiXiXiXiXiXiXiXiXiXiXiXiXiXiXiXiXiXiXiXiXiXiXiXiXiXiXiXiXiXiXiXiX",
"iXiXiXiXiXiXiXiXiXiXiXiXiXiXiXiXiXiXiXiXiXiXiXiXiXiXiXiXiXiXiXiXiXiXiXiXiXiXiXiXiXiXiXiXiXiXiXiXiXiXiXiXiXiXiXiXiXiXiXiXiXiXiXiXiXiXiX",
"iXiXiXiXiXiXiXiXiXiXiXiXiXiXiXiXiXiXiXiXiXiXiXiXiXiXiXiXiXiXiXiXiXiXiXiXiXiXiXiXiXiXiXiXiXiXiXiXiXiXiXiXiXiXiXiXiXiXiXiXiXiXiXiXiXiXiX",
"iXiXiXiXiXiXiXiXiXiXiXiXiXiXiXiXiXiXiXiXiXiXiXiXiXiXiXiXiXiXp iXiXiXiXiXiXiXiXiXiXiXiXiXiXiXiXiXiXiXiXiXiXiXiXiXiXiXiXiXiXiXiXiXiXiXiX",
"iXiXiXiXiXiXiXiXiXiXiXiXiXiXiXiXiXiXiXiXiXiXiXiXiXiXiXiXp p p iXiXiXiXiXiXiXiXiXiXiXiXiXiXiXiXiXiXiXiXiXiXiXiXiXiXiXiXiXiXiXiXiXiXiXiX",
"iXiXiXiXiXiXiXiXiXiXiXiXiXiXiXiXiXiXiXiXiXiXiXiXiXiXiXiXp p p p p p iXiXiXiXiXiXiXiXiXiXiXiXiXiXiXiXiXiXiXiXiXiXiXiXiXiXiXiXiXiXiXiXiX",
"iXiXiXiXiXiXiXiXiXiXiXiXiXiXiXiXiXiXiXiXiXiXiXiXiXiXp p p p h | f p iXiXiXiXiXiXiXiXiXiXiXiXiXiXiXiXiXiXiXiXiXiXiXiXiXiXiXiXiXiXiXiXiX",
"iXiXiXiXiXiXiXiXiXiXiXiXiXiXiXiXiXiXiXiXiXiXiXiXiXiXp s Y.'..XXX@.p p p iXiXiXiXiXiXiXiXiXiXiXiXiXiXiXiXiXiXiXiXiXiXiXiXiXiXiXiXiXiXiX",
"iXiXiXiXiXiXiXiXiXiXiXiXiXiXiXiXiXiXiXiXiXiXiXiXiXp p p (.XXXXXXm.w.$.p iXiXiXiXiXiXiXiXiXiXiXiXiXiXiXiXiXiXiXiXiXiXiXiXiXiXiXiXiXiXiX",
"iXiXiXiXiXiXiXiXiXiXiXiXiXiXiXiXiXiXiXiXiXiXiXiXiXp 5.v.'.XXXXXXXXXXD.p iXiXiXiXiXiXiXiXiXiXiXiXiXiXiXiXp iXiXiXiXiXiXiXiXiXiXiXiXiXiX",
"iXiXiXiXiXiXiXiXiXiXiXiXiXiXiXiXiXiXiXiXiXiXiXiXiXp I.XXXXXXXXXXXXXXW.p iXiXiXiXiXiXiXiXiXiXiXiXiXiXiXiXN iXp iXiXiXiXiXiXiXiXiXiXiXiX",
"iXiXiXiXiXiXiXiXiXiXiXiXiXiXiXiXiXiXiXiXiXiXiXiXiXp V.XXXXXXXXXXXXXX[.p p p p iXiXiXiXiXiXiXiXiXiXiXp S OXoXp p iXiXiXiXiXiXiXiXiXiXiX",
"iXiXiXiXiXiXiXiXiXiXiXiXiXiXiXiXiXiXiXiXiXiXiXiXiXp y.XXXXXXXXXX|.XX.Xg.V.M p iXiXiXiXiXiXiXiXiXiXiXp u +XOXi p iXiXiXiXiXiXiXiXiXiXiX",
"iXiXiXiXiXiXiXiXiXiXiXiXiXiXiXiXiXiXiXiXiXiXiXp p a :.~.F.t 9 1 # (.XXXXXX5.p iXiXiXiXiXiXiXiXiXiXiXp p @XOXD p iXiXiXiXiXiXiXiXiXiXiX",
"iXiXiXiXiXiXiXiXiXiXiXiXiXiXiXiXiXiXiXiXiXiXiXp j ,.<.<.*.O     . B.Y.^.XXh.p iXiXiXiXiXiXiXiXiXiXiXiXp Y P.1.p iXiXiXiXiXiXiXiXiXiXiX",
"iXiXiXiXiXiXiXiXiXp iXiXiXiXiXiXiXiXiXiXiXiXiXp d <.<.L r ! $X:X3XW . x XXZ.p iXiXiXiXiXiXiXiXiXiXiXiXp A.XXv.p iXiXiXiXiXiXiXiXiXiXiX",
"iXiXiXiXiXiXiXiXiXA iXp iXiXiXiXiXiXiXiXiXiXiXp a ,.<.;   >X8X8X8X/ & w f.+.A.!.iXiXiXiXiXiXiXiXiXiXiXp j.XXD.p iXiXiXiXiXiXiXiXiXiXiX",
"iXiXiXiXiXiXiXp Z OXF p iXiXiXiXiXiXiXiXiXiXiXiXp &.<.3 , -X8X8X8X5X6X,X  < XX|.d p iXiXiXiXiXiXiXiXiXp 6.XXQ.p iXiXiXiXiXiXiXiXiXiXiX",
"iXiXiXiXiXiXiXp C OXV p iXiXiXiXiXiXiXiXiXiXiXiXX.0 $ E *X<X8X8X8X8X8X4XX + }.XXM p p p iXiXiXiXiXiXiXp ..XX{.a p iXiXiXiXiXiXiXiXiXiX",
"iXiXiXiXiXiXiXp G OXB p iXiXiXiXiXiXiXiXiXiXp o.<.0   8 &X;X2X1X8X8X8X6X* . Y.XX%.p p p iXiXiXiXiXiXiXp h .XXXl p iXiXiXiXiXiXiXiXiXiX",
"iXiXiXiXiXiXiXp H T J.p iXiXiXiXiXiXiXiXiXiXp X.p.e   6 &X&X&X=X7X8X9X7X5   h.XXf.p p p p p iXiXiXiXiXiXp [.XX+.p iXiXiXiXiXiXiXiXiXiX",
"iXiXiXiXiXiXiXp | XX}.a p iXiXiXiXiXiXiXiXp p  .x.P   > %X#X~ Q ^ R 7 : X   | XXV.p p a f p iXiXiXiXiXp p W.XXw.p iXiXiXiXiXiXiXiXiXiX",
"iXiXiXiXiXiXiXp h .XXXx p iXiXiXiXiXiXiXp p p m x.7.. X % X             o = z XXI.p z k.d.p p p p p p p p j.S.@.p iXiXiXiXiXiXiXiXiXiX",
"iXiXiXiXiXiXiXp p ].XX@.p iXiXiXiXiXiXiXp p p g x.k.@     O - 2 4 q r J &.<.N.XX^.p f x.x.[ %.y.M...p p p p p p p iXiXiXiXiXiXiXiXiXiX",
"iXiXiXiXiXiXiXp p E.XXe.p iXiXiXiXiXp p p p p a k.x.y k ;.s.u.<.<.<.<.<.<.<.u.Y.V.;.0.x.x.].XXXXXXg.p p f [ 2.f.V.iXiXiXiXiXiXiXiXiXiX",
"iXiXiXiXiXiXiXiXp A.XXv.p iXiXiXiXiXp a 0.a.g p i.x.x.x.x.x.p.<.<.<.<.<.<.<.,.a p d.x.x.x.~.{.}.XX!.U./. XXXXXXXXX.Xg p iXiXiXiXiXiXiX",
"iXiXiXiXiXiXiXiXp j.XXG.p iXiXiXp p p p d.x.m d >.0.q.u.9.8.<.<.<.<.<.<.<.<.<.g p r.x.x.x.x.x.L.XXXXXXXXXX X/.U.V.g.f p iXp iXiXiXiXiX",
"iXiXiXiXiXiXiXiXp 6.XXQ.p p p p h ..6.j.n.x.k.z.#.p P <.<.<.<.<.<.<.<.<.<.<.<.c p 4.x.x.x.x.l.b.I.V.y.%.M d p p p p p p p p iXiXiXiXiX",
"iXiXiXiXiXiXiXiXp | !.A.p p p p /.XXXXXXK.x.x.x.4.p c <.<.<.<.<.<.<.<.<.<.<.<.P p { -.O.m h a p p p p p p p iXiXiXiXiXiXiXiXiXiXiXiXiX",
"iXiXiXiXiXiXiXiXp p p p p p p p U.XXXXXX).~.R.x.r.p g <.<.<.<.<.=.&.o.U K k d a p p p p p p p p iXiXiXiXiXiXiXiXiXiXiXiXiXiXiXiXiXiXiX",
"iXiXiXiXiXiXiXiXp s x @.e.m.G.Q. XXXXXXXXXXX`.x.s.p a X.I b j d p p p p p p p a l | p p iXiXiXiXiXiXiXiXiXiXiXiXiXiXiXiXiXiXiXiXiXiXiX",
"iXiXiXiXiXiXiXiXQ.}.XXXXXXXXXXXXXX.X'.E.S.c.6.v f p p p p p p p s x @.e.m.G.Q.{.XX}.s p iXiXiXiXiXiXiXiXiXiXiXiXiXiXiXiXiXiXiXiXiXiXiX",
"iXiXiXiXiXiXiXp T.XX.X_.T.A.j.6.| h p p p p p p p s n $.t.M.H.!.}.XXXXXXXXXXXXXX.X'.iXiXiXiXiXiXiXiXiXiXiXiXiXiXiXiXiXiXiXiXiXiXiXiXiX",
"iXiXiXiXiXiXiXp ..| h p p p p p p p p p iXiXiXiXp G.XXXXXXXXXXXXXXXXXXXXXXXXXXXX| p iXiXiXiXiXiXiXiXiXiXiXiXiXiXiXiXiXiXiXiXiXiXiXiXiX",
"iXiXiXiXiXp p p p p p p iXiXiXiXiXiXiXiXiXiXiXiXp v. X}.XXXXXXXXXXXXXXXXXXXXXXXX} iXiXiXiXiXiXiXiXiXiXiXiXiXiXiXiXiXiXiXiXiXiXiXiXiXiX",
"iXiXiXiXiXp iXiXiXiXiXiXiXiXiXiXiXiXiXiXiXiXiXiXiXiXd 3.XXXXXXXXXXXX X(.Y.C.g.2.iXiXiXiXiXiXiXiXiXiXiXiXiXiXiXiXiXiXiXiXiXiXiXiXiXiXiX",
"iXiXiXiXiXiXiXiXiXiXiXiXiXiXiXiXiXiXiXiXiXiXiXiXiXiXp | _.U.V.f.2.[ d p p p p p iXiXiXiXiXiXiXiXiXiXiXiXiXiXiXiXiXiXiXiXiXiXiXiXiXiXiX",
"iXiXiXiXiXiXiXiXiXiXiXiXiXiXiXiXiXiXiXiXiXiXiXiXiXiXiXiXp p p p p p p ( ) p p p iXiXiXiXiXiXiXiXiXiXiXiXiXiXiXiXiXiXiXiXiXiXiXiXiXiXiX",
"iXiXiXiXiXiXiXiXiXiXiXiXiXiXiXiXiXiXiXiXiXiXiXiXiXiXiXiXiXp p p ] eXrXtXqXp p p iXiXiXiXiXiXiXiXiXiXiXiXiXiXiXiXiXiXiXiXiXiXiXiXiXiXiX",
"iXiXiXiXiXiXiXiXiXiXiXiXiXiXiXiXiXiXiXiXiXiXiXiXiXiXiXiXiXp p p 0XyXuXyXwXiXiXiXiXiXiXiXiXiXiXiXiXiXiXiXiXiXiXiXiXiXiXiXiXiXiXiXiXiXiX",
"iXiXiXiXiXiXiXiXiXiXiXiXiXiXiXiXiXiXiXiXiXiXiXiXiXiXiXiXiXiXiXiXiX' ` _ iXiXiXiXiXiXiXiXiXiXiXiXiXiXiXiXiXiXiXiXiXiXiXiXiXiXiXiXiXiXiX",
"iXiXiXiXiXiXiXiXiXiXiXiXiXiXiXiXiXiXiXiXiXiXiXiXiXiXiXiXiXiXiXiXiXp p p iXiXiXiXiXiXiXiXiXiXiXiXiXiXiXiXiXiXiXiXiXiXiXiXiXiXiXiXiXiXiX",
"iXiXiXiXiXiXiXiXiXiXiXiXiXiXiXiXiXiXiXiXiXiXiXiXiXiXiXiXiXiXiXiXiXiXiXiXiXiXiXiXiXiXyXiXiXiXiXiXiXiXiXiXiXiXiXiXiXiXiXiXiXiXiXiXiXiXiX",
"iXiXiXiXiXiXiXiXiXiXiXiXiXiXiXiXiXiXiXiXiXiXiXiXiXiXiXiXiXiXiXiXiXiXiXiXiXiXiXiXiXiXiXiXiXiXiXiXiXiXiXiXiXiXiXiXiXiXiXiXiXiXiXiXiXiXiX",
"iXiXiXiXiXiXiXiXiXiXiXiXiXiXiXiXiXiXiXiXiXiXiXiXiXiXiXyXuXiXiXiXiXiXiXiXiXyXyXyXyXiXiXiXiXiXiXiXiXiXiXiXiXiXiXiXiXiXiXiXiXiXiXiXiXiXiX",
"iXiXiXiXiXiXiXiXiXiXiXiXiXiXiXiXiXiXiXiXiXiXiXiXiXiXiXiXiXiXiXyXyXyXyXyXyXyXyXiXiXiXiXiXiXiXiXiXiXiXiXiXiXiXiXiXiXiXiXiXiXiXiXiXiXiXiX",
"iXiXiXiXiXiXiXiXiXiXiXiXiXiXiXiXiXiXiXiXiXiXiXiXiXiXiXiXiXiXyXiXiXiXiXiXiXiXiXiXiXiXiXiXiXiXiXiXiXiXiXiXiXiXiXiXiXiXiXiXiXiXiXiXiXiXiX",
"iXiXiXiXiXiXiXiXiXiXiXiXiXiXiXiXiXiXiXiXiXiXiXiXiXiXiXiXiXiXiXiXiXiXiXiXiXiXiXiXiXiXiXiXiXiXiXiXiXiXiXiXiXiXiXiXiXiXiXiXiXiXiXiXiXiXiX",
"iXiXiXiXiXiXiXiXiXiXiXiXiXiXiXiXiXiXiXiXiXiXiXiXiXiXiXiXiXiXiXiXiXiXiXiXiXiXiXiXiXyXiXiXiXiXiXiXiXiXiXiXiXiXiXiXiXiXiXiXiXiXiXiXiXiXiX",
"iXiXiXiXiXiXiXiXiXiXiXiXiXiXiXiXiXiXiXiXiXiXiXiXiXiXiXiXiXiXiXiXiXiXiXiXiXiXiXiXiXiXiXiXiXiXiXiXiXiXiXiXiXiXiXiXiXiXiXiXiXiXiXiXiXiXiX",
"iXiXiXiXiXiXiXiXiXiXiXiXiXiXiXiXiXiXiXiXiXiXiXiXiXiXiXiXiXiXyXiXiXiXiXiXiXiXiXiXiXiXiXiXiXiXiXiXiXiXiXiXiXiXiXiXiXiXiXiXiXiXiXiXiXiXiX",
"iXiXiXiXiXiXiXiXiXiXiXiXiXiXiXiXiXiXiXiXiXiXiXiXiXiXiXiXiXiXiXiXiXyXyXyXyXyXyXyXiXiXiXiXiXiXiXiXiXiXiXiXiXiXiXiXiXiXiXiXiXiXiXiXiXiXiX",
"iXiXiXiXiXiXiXiXiXiXiXiXiXiXiXiXiXiXiXiXiXiXiXiXiXiXiXiXiXiXiXiXiXyXiXiXiXiXiXiXiXiXiXiXiXiXiXiXiXiXiXiXiXiXiXiXiXiXiXiXiXiXiXiXiXiXiX",
"iXiXiXiXiXiXiXiXiXiXiXiXiXiXiXiXiXiXiXiXiXiXiXiXiXiXiXiXiXiXiXiXiXiXiXiXiXiXiXiXiXiXiXiXiXiXiXiXiXiXiXiXiXiXiXiXiXiXiXiXiXiXiXiXiXiXiX",
"iXiXiXiXiXiXiXiXiXiXiXiXiXiXiXiXiXiXiXiXiXiXiXiXiXiXiXiXiXiXiXiXiXiXiXiXiXiXiXiXiXiXiXiXiXiXiXiXiXiXiXiXiXiXiXiXiXiXiXiXiXiXiXiXiXiXiX",
"iXiXiXiXiXiXiXiXiXiXiXiXiXiXiXiXiXiXiXiXiXiXiXiXiXiXiXiXiXiXiXiXiXiXiXiXiXiXiXiXiXiXiXiXiXiXiXiXiXiXiXiXiXiXiXiXiXiXiXiXiXiXiXiXiXiXiX",
"iXiXiXiXiXiXiXiXiXiXiXiXiXiXiXiXiXiXiXiXiXiXiXiXiXiXiXiXiXiXiXiXiXiXiXiXiXiXiXiXiXiXiXiXiXiXiXiXiXiXiXiXiXiXiXiXiXiXiXiXiXiXiXiXiXiXiX",
"iXiXiXiXiXiXiXiXiXiXiXiXiXiXiXiXiXiXiXiXiXiXiXiXiXiXiXiXiXiXiXiXiXiXiXiXyXyXiXiXiXiXiXiXiXiXiXiXiXiXiXiXiXiXiXiXiXiXiXiXiXiXiXiXiXiXiX",
"iXiXiXiXiXiXiXiXiXiXiXiXiXiXiXiXiXiXiXiXiXiXiXiXiXiXiXiXiXiXiXiXiXiXiXiXyXiXiXiXiXiXiXiXiXiXiXiXiXiXiXiXiXiXiXiXiXiXiXiXiXiXiXiXiXiXiX",
"iXiXiXiXiXiXiXiXiXiXiXiXiXiXiXiXiXiXiXiXiXiXiXiXiXiXiXiXiXiXiXiXiXiXiXiXiXiXiXiXiXiXiXiXiXiXiXiXiXiXiXiXiXiXiXiXiXiXiXiXiXiXiXiXiXiXiX",
"iXiXiXiXiXiXiXiXiXiXiXiXiXiXiXiXiXiXiXiXiXiXiXiXiXiXiXiXiXiXiXiXiXiXiXiXiXiXiXiXiXiXiXiXiXiXiXiXiXiXiXiXiXiXiXiXiXiXiXiXiXiXiXiXiXiXiX",
"iXiXiXiXiXiXiXiXiXiXiXiXiXiXiXiXiXiXiXiXiXiXiXiXiXiXiXiXiXiXiXiXiXiXiXiXiXiXiXiXiXiXiXiXiXiXiXiXiXiXiXiXiXiXiXiXiXiXiXiXiXiXiXiXiXiXiX",
"iXiXiXiXiXiXiXiXiXiXiXiXiXiXiXiXiXiXiXiXiXiXiXiXiXiXiXiXiXiXiXiXiXiXiXiXiXiXiXiXiXiXiXiXiXiXiXiXiXiXiXiXiXiXiXiXiXiXiXiXiXiXiXiXiXiXiX"
};
