/* XPM */
static char * nave2_12_xpm[] = {
"54 50 102 2",
"  	c None",
". 	c #323281",
"+ 	c #35355E",
"@ 	c #010BF9",
"# 	c #1E21EB",
"$ 	c #30318C",
"% 	c #2921CC",
"& 	c #850D0D",
"* 	c #7B4C4C",
"= 	c #31318A",
"- 	c #2921CB",
"; 	c #860C0C",
"> 	c #7C4D4D",
", 	c #30318E",
"' 	c #30318D",
") 	c #3839CC",
"! 	c #4847BC",
"~ 	c #35355D",
"{ 	c #363636",
"] 	c #323282",
"^ 	c #2E2F9E",
"/ 	c #3A39CC",
"( 	c #1F21EB",
"_ 	c #2E2E9E",
": 	c #313287",
"< 	c #4142BB",
"[ 	c #1FB0E6",
"} 	c #1318EA",
"| 	c #119EEA",
"1 	c #313284",
"2 	c #2426C9",
"3 	c #577488",
"4 	c #1D20DB",
"5 	c #000000",
"6 	c #050404",
"7 	c #119AE4",
"8 	c #3D3ECE",
"9 	c #4B4B4B",
"0 	c #8C8436",
"a 	c #BAAD05",
"b 	c #4D4701",
"c 	c #AA9E04",
"d 	c #F0DF09",
"e 	c #665F02",
"f 	c #119CE7",
"g 	c #313288",
"h 	c #383838",
"i 	c #7D752F",
"j 	c #D5C607",
"k 	c #E2D208",
"l 	c #315E82",
"m 	c #1F8ED0",
"n 	c #2B72A4",
"o 	c #847A03",
"p 	c #F1E009",
"q 	c #2F6691",
"r 	c #2978AD",
"s 	c #119BE6",
"t 	c #BCAE07",
"u 	c #968C06",
"v 	c #3D3801",
"w 	c #313285",
"x 	c #171414",
"y 	c #7C7311",
"z 	c #DFCF08",
"A 	c #E6D509",
"B 	c #B4A707",
"C 	c #908606",
"D 	c #3A3501",
"E 	c #306188",
"F 	c #1994DB",
"G 	c #2A75A8",
"H 	c #655D03",
"I 	c #060606",
"J 	c #4A4AA6",
"K 	c #3334DD",
"L 	c #292525",
"M 	c #58511A",
"N 	c #776E04",
"O 	c #2F2B01",
"P 	c #322D80",
"Q 	c #323284",
"R 	c #1317EA",
"S 	c #353131",
"T 	c #2A28B5",
"U 	c #1D1FDB",
"V 	c #52528F",
"W 	c #3738CF",
"X 	c #181BE4",
"Y 	c #504EA8",
"Z 	c #323283",
"` 	c #4D4EA8",
" .	c #2F25BB",
"..	c #801515",
"+.	c #764B4B",
"@.	c #2225EC",
"#.	c #313188",
"$.	c #221CDB",
"%.	c #8A0303",
"&.	c #7F4F4F",
"*.	c #2A29B5",
"=.	c #2A2AB5",
"                                                    .                                                       ",
"                                                  + .                                                       ",
"                                                . . .                                                       ",
"                                              @ @ @ .                                                       ",
"                      . . . . . . . . . . . . @ @ # .                                                       ",
"                  $ % & & & * @ @ @ @ @ @ @ . @ @ # .                                                       ",
"                  = - ; ; ; > @ @ @ @ @ @ @ . @ @ # .                                                       ",
"                      . . . . . . . . . . . . @ @ # .                                                       ",
"                      , , , , , , , , ' . . . @ @ # .                                                       ",
"                                        . . . @ @ # .                                                       ",
"                                        . @ ) @ @ # .                                                       ",
"                                        . @ @ @ @ # .                                                       ",
"                                        . @ @ @ ! @ .                                                       ",
"                                    ~ . . @ @ @ @ @ .                                                       ",
"                                  { ] ^ @ @ / ( @ @ .                                                       ",
"                                  . . ^ @ @ @ @ @ @ .                                                       ",
"                              . . . . . _ @ @ @ @ @ . . .                                                   ",
"                            @ @ @ @ @ @ @ @ @ @ @ @ . @ @                                                   ",
"                  : . . . . < [ [ [ [ [ [ [ . . . . . @ @ } :             |                                 ",
"                  1 2 @ @ @ # < < < < < [ 3 @ @ @ 4 . @ @ # @                                               ",
"            . . . . @ @ @ @ @ 5 5 5 5 6 @ @ @ @ @ @ . @ @ @ @ . . .         | 7     |                       ",
"          = . # [ [ 8 @ @ 9 0 a a a b 6 @ @ @ @ @ @ . @ @ @ @ . . .         | 7                             ",
"        . . . @ @ @ @ @ 8 5 c d d d e 6 @ @ @ @ @ @ . @ @ @ @ . . .         | 7         |     f |           ",
"    $ g . # @ @ @ @ @ h i j k d d d e 6 @ @ @ @ @ @ . @ @ @ @ . l m n       | 7         |                   ",
"    . . . [ @ @ @ @ @ 5 o d d d d p e 6 @ @ @ @ @ @ . @ @ @ @ . q | r h     | 7         |         s |       ",
"    . . . [ @ @ @ @ @ 5 o d d d t u v 6 @ @ @ @ @ @ . @ @ @ @ . q | r h     | 7         |         s |       ",
"    g w . < @ @ @ @ @ x y z k A B C D 6 @ @ @ @ @ @ . @ @ @ @ . E F G h     | 7         |         s         ",
"        . . . @ @ @ @ @ @ 5 H C C C D I @ @ @ @ @ @ . @ @ @ @ . . .         | 7         |     f |           ",
"          g . J @ @ K @ @ L M N N N O I @ @ @ @ @ @ . @ @ @ @ . . .         | 7                             ",
"            . . . . 2 @ @ @ P 5 5 5 5 I @ @ @ @ @ @ . @ @ @ @ . . .         | 7     |                       ",
"                  Q ^ @ @ @ R S T U U U @ @ @ @ @ R . @ @ V W                                               ",
"                  : . . . . @ @ @ @ @ @ @ @ . . . . . @ @ } :             |                                 ",
"                            X @ @ @ @ @ @ @ @ @ @ @ . @ @                                                   ",
"                              . . . . . . @ @ @ @ @ . . .                                                   ",
"                                  . . ^ @ @ @ Y @ @ .                                                       ",
"                                  Z ] ^ @ @ @ K @ # .                                                       ",
"                                    ~ . . @ @ @ @ # .                                                       ",
"                                      $ . @ @ @ @ # .                                                       ",
"                                        . @ @ @ @ # .                                                       ",
"                                        . @ ` @ @ # .                                                       ",
"                                        . . . @ @ # .                                                       ",
"                                        . . . @ @ # .                                                       ",
"                      . . . . . . . . . . . . @ @ # .                                                       ",
"                     .......+.@ @ @ @ @ @ @.. @ @ # .                                                       ",
"                  #.$.%.%.%.&.@ @ @ @ @ @ @ . @ @ # .                                                       ",
"                      *.*.*.=.^ ^ ^ ^ ^ ^ ^ . @ @ # .                                                       ",
"                      { { { { { { { { { { { { @ @ @ .                                                       ",
"                                                . . .                                                       ",
"                                                  ~ .                                                       ",
"                                                    .                                                       "};
