/* XPM */
static char *nave12_0[] = {
/* columns rows colors chars-per-pixel */
"120 120 90 1 ",
"  c #000000",
". c #080700",
"X c #090900",
"o c #0C0C0C",
"O c #100F01",
"+ c #100F0F",
"@ c #131201",
"# c #151414",
"$ c #1A1919",
"% c #211E1E",
"& c #262301",
"* c #292602",
"= c #2D2A02",
"- c #312E02",
"; c #353102",
": c #393504",
"> c #242222",
", c #322E2E",
"< c #373737",
"1 c #393737",
"2 c #383837",
"3 c #383738",
"4 c #37393A",
"5 c #383838",
"6 c #7A0D0D",
"7 c #6C1616",
"8 c #651B1B",
"9 c #751111",
"0 c #7F1E1E",
"q c #433E09",
"w c #472E2E",
"e c #492D2D",
"r c #423F3F",
"t c #762323",
"y c #484303",
"u c #554F04",
"i c #6B6404",
"p c #756D05",
"a c #797105",
"s c #494734",
"d c #43403F",
"f c #4A4939",
"g c #433F40",
"h c #2F4E5E",
"j c #304D5C",
"k c #2F4F60",
"l c #2E5266",
"z c #2D556B",
"x c #444343",
"c c #4D4646",
"v c #4A4847",
"b c #474848",
"n c #4B4A4A",
"m c #5D4545",
"M c #524D4D",
"N c #565252",
"B c #595555",
"V c #575758",
"C c #5C5C5C",
"Z c #7A4F4F",
"A c #625F5F",
"S c #7A5050",
"D c #646464",
"F c #676868",
"G c #6C6C6C",
"H c #706F6F",
"J c #727272",
"K c #860505",
"L c #8B0202",
"P c #851D1D",
"I c #8B8206",
"U c #908606",
"Y c #928806",
"T c #998E06",
"R c #A69B06",
"E c #AA9E07",
"W c #ADA107",
"Q c #B1A507",
"! c #C2B508",
"~ c #EDDC09",
"^ c #F0DF09",
"/ c #F1E009",
"( c #1A87C2",
") c #1989C5",
"_ c #188BC9",
"` c #1195DC",
"' c #1398DF",
"] c #119AE4",
"[ c #119EEA",
"{ c None",
/* pixels */
"{{{{{{{{{{{{{{{{{{{{{{{{{{{{{{{{{{{{{{{{{{{{{{{{{{{{{{{{{{{{{{{{{{{{{{{{{{{{{{{{{{{{{{{{{{{{{{{{{{{{{{{{{{{{{{{{{{{{{{{{",
"{{{{{{{{{{{{{{{{{{{{{{{{{{{{{{{{{{{{{{{{{{{{{{{{{{{{{{{{{{{{{{{{{{{{{{{{{{{{{{{{{{{{{{{{{{{{{{{{{{{{{{{{{{{{{{{{{{{{{{{{",
"{{{{{{{{{{{{{{{{{{{{{{{{{{{{{{{{{{{{{{{{{{{{{{{{{{{{{{{{{{{{{{{{{{{{{{{{{{{{{{{{{{{{{{{{{{{{{{{{{{{{{{{{{{{{{{{{{{{{{{{{",
"{{{{{{{{{{{{{{{{{{{{{{{{{{{{{{{{{{{{{{{{{{{{{{{{{{{{{{{{{{{{{{{{{{{{{{{{{{{{{{{{{{{{{{{{{{{{{{{{{{{{{{{{{{{{{{{{{{{{{{{{",
"{{{{{{{{{{{{{{{{{{{{{{{{{{{{{{{{{{{{{{{{{{{{{{{{{{{{{{{{{{{{{{{{{{{{{{{{{{{{{{{{{{{{{{{{{{{{{{{{{{{{{{{{{{{{{{{{{{{{{{{{",
"{{{{{{{{{{{{{{{{{{{{{{{{{{{{{{{{{{{{{{{{{{{{{{{{{{{{{{{{{{{{{{{{{{{{{{{{{{{{{{{{{{{{{{{{{{{{{{{{{{{{{{{{{{{{{{{{{{{{{{{{",
"{{{{{{{{{{{{{{{{{{{{{{{{{{{{{{{{{{{{{{{{{{{{{{{{{{{{{{{{{{{{{{{{{{{{{{{{{{{{{{{{{{{{{{{{{{{{{{{{{{{{{{{{{{{{{{{{{{{{{{{{",
"{{{{{{{{{{{{{{{{{{{{{{{{{{{{{{{{{{{{{{{{{{{{{{{{{{{{{{{{{{{{{{{{{{{{{{{{{{{{{{{{{{{{{{{{{{{{{{{{{{{{{{{{{{{{{{{{{{{{{{{{",
"{{{{{{{{{{{{{{{{{{{{{{{{{{{{{{{{{{{{{{{{{{{{{{{{{{{{{{334555{{{{{{{{{{{{{{{{{{{{{{{{{{{{{{{{{{{{{{{{{{{{{{{{{{{{{{{{{{{{",
"{{{{{{{{{{{{{{{{{{{{{{{{{{{{{{{{{{{{{{{{{{{{{{{{{{{{{34355555{{{{{{{{{{{{{{{{{{{{{{{{{{{{{{{{{{{{{{{{{{{{{{{{{{{{{{{{{{{",
"{{{{{{{{{{{{{{{{{{{{{{{{{{{{{{{{{{{{{{{{{{{{{{{{{{{{{33355553{{{{{{{{{{{{{{{{{{{{{{{{{{{{{{{{{{{{{{{{{{{{{{{{{{{{{{{{{{{",
"{{{{{{{{{{{{{{{{{{{{{{{{{{{{{{{{{{{{{{{{{{{{{{{{{{{{{3335555{{{{{{{{{{{{{{{{{{{{{{{{{{{{{{{{{{{{{{{{{{{{{{{{{{{{{{{{{{{{",
"{{{{{{{{{{{{{{{{{{{{{{{{{{{{{{{{{{{{{{{{{{{{{{{{{552233355553355{{{{{{{{{{{{{{{{{{{{{{{{{{{{{{{{{{{{{{{{{{{{{{{{{{{{{{{{",
"{{{{{{{{{{{{{{{{{{{{{{{{{{{{{{{{{{{{{{{{{{{{{{{{{455223355553355{{{{{{{{{{{{{{{{{{{{{{{{{{{{{{{{{{{{{{{{{{{{{{{{{{{{{{{{",
"{{{{{{{{{{{{{{{{{{{{{{{{{{{{{{{{{{{{{{{{{{{{{{{{{352225555555555{{{{{{{{{{{{{{{{{{{{{{{{{{{{{{{{{{{{{{{{{{{{{{{{{{{{{{{{",
"{{{{{{{{{{{{{{{{{{{{{{{{{{{{{{{{{{{{{{{{{{{{{{{{{2222xbxxxxb4555{{{{{{{{{{{{{{{{{{{{{{{{{{{{{{{{{{{{{{{{{{{{{{{{{{{{{{{{",
"{{{{{{{{{{{{{{{{{{{{{{{{{{{{{{{{{{{{{{{{{{{{{{3333344HJJJJJJV22<5555{{{{{{{{{{{{{{{{{{{{{{{{{{{{{{{{{{{{{{{{{{{{{{{{{{{{",
"{{{{{{{{{{{{{{{{{{{{{{{{{{{{{{{{{{{{{{{{{{{{{{3333334HJJJJJJV2225555{{{{{{{{{{{{{{{{{{{{{{{{{{{{{{{{{{{{{{{{{{{{{{{{{{{{",
"{{{{{{{{{{{{{{{{{{{{{{{{{{{{{{{{{{{{{{{{{{{{{{3322343HJJJJJJV4423425{{{{{{{{{{{{{{{{{{{{{{{{{{{{{{{{{{{{{{{{{{{{{{{{{{{{",
"{{{{{{{{{{{{{{{{{{{{{{{{{{{{{{{{{{{{{{{{{{{{{{332MNVVHJJJJJJDNMM4225{{{{{{{{{{{{{{{{{{{{{{{{{{{{{{{{{{{{{{{{{{{{{{{{{{{{",
"{{{{{{{{{{{{{{{{{{{{{{{{{{{{{{{{{{{{{{{{{{{{{{333DJJJJJJJJJJJJJJb555{{{{{{{{{{{{{{{{{{{{{{{{{{{{{{{{{{{{{{{{{{{{{{{{{{{{",
"{{{{{{{{{{{{{{{{{{{{{{{{{{{{{{{{{{{{{{{{{{{{{{33<DJJJJJJJJJJJJJJb555{{{{{{{{{{{{{{{{{{{{{{{{{{{{{{{{{{{{{{{{{{{{{{{{{{{{",
"{{{{{{{{{{{{{{{{{{{{{{{{{{{{{{{{{{{{{{{{{{{{{{332DJJJJJJJJJJJJJJb533{{{{{{{{{{{{{{{{{{{{{{{{{{{{{{{{{{{{{{{{{{{{{{{{{{{{",
"{{{{{{{{{{{{{{{{333{{{{{{{{{{{{{{{{{{{{{{{3333332DJJJJJJJJJJJJJJb433{{{{{{{{{{{{{{{{{{{{{{{{{{{{{{{{{{{{{{{{{{{{{{{{{{{{",
"{{{{{{{{{{{{{{{{333{{{{{{{{{{{{{{{{{{{{{{{3413333DJJJJJJJJJJJJJJx2233355{{{{{{{{{{{{{{{{{{{{{{5533{{{{{{{{{{{{{{{{{{{{{{",
"{{{{{{{{{{{{{{{{434{{{{{{{{{{{{{{{{{{{{{{{3343333DJJJJJJJJJJJJJJb2233354{{{{{{{{{{{{{{{{{{{{{{5533{{{{{{{{{{{{{{{{{{{{{{",
"{{{{{{{{{{{{{{{{www{{{{{{{{{{{{{{{{{{{{{{{4313313DJJHHHHGGGGJJJJb2553343{{{{{{{{{{{{{{{{{{{{{{5543{{{{{{{{{{{{{{{{{{{{{{",
"{{{{{{{{{{{{4338LLLw333{{{{{{{{{{{{{{{{{{{131xMcccccxo.ooooojJJJHGGG4333{{{{{{{{{{{{{{{{{{{3347999134{{{{{{{{{{{{{{{{{{{",
"{{{{{{{{{{{{3338LLLe133{{{{{{{{{{{{{{{{{{{131rccccccx.      1JJJJJJH4333{{{{{{{{{{{{{{{{{{{3336LLK1413{{{{{{{{{{{{{{{{{{",
"{{{{{{{{{{{{3338LLLe133{{{{{{{{{{{{{{{{{{{331rccccccx       sGJJJJJJ4333{{{{{{{{{{{{{{{{{{{3446LLK1314{{{{{{{{{{{{{{{{{{",
"{{{{{{{{{{{{3338LLLe333{{{{{{{{{{{{{{{{{{{331gcccr111:;;;-=-sACAHJJH4133{{{{{{{{{{{{{{{{{{{5556LLK1343{{{{{{{{{{{{{{{{{{",
"{{{{{{{{{{{{3338LLLe433{{{{{{{{{{{{{{{{{{{331gccc+  @~/////~p   CJJH4333{{{{{{{{{{{{{{{{{{{5556LLK1133{{{{{{{{{{{{{{{{{{",
"{{{{{{{{{{{{3228LLLw332{{{{{{{{{{{{{{{{{{{333xccM+  @~^^^~^^i   CJJG3333{{{{{{{{{{{{{{{{{{{3336LLK1433{{{{{{{{{{{{{{{{{{",
"{{{{{{{{{{{{3228LLLw322{{{{{{{{{{{{{{{{{{{313xccc+  @~^^^^^^i   CJJG4334{{{{{{{{{{{{{{{{{{{3346LLK1133{{{{{{{{{{{{{{{{{{",
"{{{{{{{{{{{{332mSZSr332{{{{{{{{{{{{{{{{{{1rxg,>>>qyyu~^^^^^^RiiifbxbNnNn{{{{{{{{{{{{{{{{{{{334tPPP3333{{{{{{{{{{{{{{{{{{",
"{{{{{{{{{{{{432VJJJx332{{{{{{{{{{{{{{{341rccc%   pYYT^^^^^^^^^^^*  oJJJA334{{{{{{{{{{{{{{{{333FJJJ433{{{{{{{{{{{{{{{{{{{",
"{{{{{{{{{{{{223CJJJx333{{{{{{{{{{{{{{{333rccc%   aYYT~^^^^^^^^^^*  oJJJA345{{{{{{{{{{{{{{{{355FJJG3333{{{{{{{{{{{{{{{{{{",
"{{{{{{{{{{{{433CJJJd332{{{{{{{{{{{{{{{3314ccc%   aIYT~^^^^^^^^^/*  oJJJA335{{{{{{{{{{{{{{{{355FJJH4333{{{{{{{{{{{{{{{{{{",
"{{{{{{{{{{{{332VJJJx332{{{{{{{{{{{3334343gMNM>   aYYYREE!^^^^^^/&  oJJJA45553{{{{{{{{{{{{{{555FJJG3333{{{{{{{{{{{{{{{{{{",
"{{{{{{{{{{{{222CJJJr322{{{{{{{{{{{3431331xNNN>   aYIYYYIQ^^^^^^^&  oJJJA5555333{{{{{{{{{{{{555FJJH3433{{{{{{{{{{{{{{{{{{",
"{{{{{{{{{{{{452CJJHs11<{{{{{{{{{{{3355522xNMN>   aYIIYYYQ^^^^^^^&  oJJJC1331433{{{{{{{{{{{{355FJJG3343{{{{{{{{{{{{{{{{{{",
"{{{{{{{{{{{{552CJJHj11<{{{{{{{{{{{3143223xNNN%   pIIIIIIW~~~~~~~&  oJJJA3343313{{{{{{{{{{{{355GJJG3423{{{{{{{{{{{{{{{{{{",
"{{{{{{{{{{{{552CJJJr33<{{{{{{{{3554322435dNNN>   ...XXXXXOO@@@@@   oJJJC34341313225{{{{{{{{355GJJG335{{{{{{{{{{{{{{{{{{{",
"{{{{{{{{{{{{525CJJJr33<{{{{{{{{3543322525dBNN>                     #JJJC31314341322{{{{{{{3355FJJG3354{{{{{{{{{{{{{{{{{{",
"{{{{{{{{{{{{221CJJHr332{{{{{{{42552222425xMBB%                     oJJJC33341134332{{{{{{{3455FJJG435{{{{{{{{{{{{{{{{{{{",
"{{{{{{{{{{{{211AJHHr332{{{{{{{<255ddrr332dNNM,$$#####+#++++++++o++o$JJJC41144141333{{{{{{{3355GJJG535{{{{{{{{{{{{{{{{{{{",
"{{{{{{{{{{{{521BJJHr33332255345555MBNM322xNNNBNMNNBNNcMccccccccccccMJJJC331nNNNr33332223333455GJJG343{{{{{{{{{{{{{{{{{{{",
"{{{{{{{{{{{{55rAJJHj33335555555255MBNM343xNNBMNBNNNNMccccccccccccccMJJJC333MNNN133333333333355GJJF333{{{{{{{{{{{{{{{{{{{",
"{{{{{{{{{{{{345AJJJd55555222425<55MNNM11<xNNNNNNNNNNNccccccccccccccMJJJC333cNNNr5555112<244333GJJG225{{{{{{{{{{{{{{{{{{{",
"{{{{{{{{{{{{332xnnn4555555bCCCCCCCNNNMccccxbxvMMMMMMMcccccccmccccccMBACNgxxMNNNcnnnccfj2232334ADDA224{{{{{{{{{{{{{{{{{{{",
"{{{{{{{{{{{{33221433555542MJJJJJJJBNNNNNNb333xcccccccccccccccccccccg113xNNNNmBNHJJJJJJC<2233343333223{{{{{{{{{{{{{{{{{{{",
"{{{{{{{{{{{{43223433555524MJJJJJJJBNNNNNNc111xcccccccccccccccccccccc333xNNNNNNNHJJJJJJC22443334333223{{{{{{{{{{{{{{{{{{{",
"{{{{{{{{{{{{44443441414345MJJJJJJJBNNNNNNc<<1xcmccccmccccccccccccccf551xNNNNNNNHJJJJJJC22222343334444{{{{{{{{{{{{{{{{{{{",
"{{{{{{{{554MHHHHHGHGHGGGGGHJJJJJJJGHHFNNNb331xcccccccccccccccccccccc555xNNNNNNNAADDJJJFVVVVVNNVNVNMNMN{{{{{{{{{{{{{{{{{{",
"{{{{{{{{555NJJJJJJJJJJJJJJJJJJJJJJJJJGNNNb333xcccccccccccccccccccccx555xNNNNNNNNNNBJJJJJJJJJJJJJJJJJJC<43{{{{{{{{{{{{{{{",
"{{{{{{{{555MJJJJJJJJJJJJJJJJJJJJJJJJJGNNNv333xcccccccccccccccccccccc555xNNNNNNNNNBBJJHJJJJJJJJJJJJJJJC4<3{{{{{{{{{{{{{{{",
"{{{{{{{{252nFFDFFFFFFFGFFGGGFGGGGGGGJFNNNc333bcccccMcccvccMccccMcccc555xNNBBNBNBNNAJJJJJJJJJJJJJJJJJJC334{{{{{{{{{{{{{{{",
"{{{{333355422222333333333333333311333331333331335553333311141131114455514r4411r4r44xdxxxbbxbxbbbbbbvbx3355552{{{{{{{{{{{",
"{{{{3333552242423333343433333333133333333113333315343333114433335555555511413333555555553333<3333333333355552{{{{{{{{{{{",
"{{{{333325552522333<33333343333<33333333333333332233333314113333555555553133333355555555333322333333333355552{{{{{{{{{{{",
"{{{{{{{{{{<<222<<<<<<<2<3322<<<<<<<<<<333jfcbbbbbbbbxxxbbxxxbxxxfdddjrd44413<<<<<<<<222<2<<<<2223333<<<<<<<<<{{{{{{{{{{{",
"{{{{{{{{{{{{{{{{{{{{{{{{{{{{{{{{{{{{{{333NHHJJJJJJJHJJJJJJJJJJJGJJJJHJJC133{{{{{{{{{{{{{{{{{{{{{{{{{{{{{{{{{{{{{{{{{{{{{",
"{{{{{{{{{{{{{{{{{{{{{{{{{{{{{{{{{{{{{{333NJJJJJJJJJJJJJJJJJJJJJJJJJJHHJB333{{{{{{{{{{{{{{{{{{{{{{{{{{{{{{{{{{{{{{{{{{{{{",
"{{{{{{{{{{{{{{{{{{{{{{{{{{{{{{{{{{{{{{333NJJJJJJJJJJJJJJJJJJJJJJJJJJJJJB443{{{{{{{{{{{{{{{{{{{{{{{{{{{{{{{{{{{{{{{{{{{{{",
"{{{{{{{{{{{{{{{{{{{{{{{{{{{{{{{{{{{{{{{{{vNNNFJJJJJJJJJJJJJJJJJJJJJGCCCN5<<{{{{{{{{{{{{{{{{{{{{{{{{{{{{{{{{{{{{{{{{{{{{{",
"{{{{{{{{{{{{{{{{{{{{{{{{{{{{{{{{{{{{{{{{{{332DJJJJJJJJJJJJJJJJJJJJJD552{{{{{{{{{{{{{{{{{{{{{{{{{{{{{{{{{{{{{{{{{{{{{{{{{",
"{{{{{{{{{{{{{{{{{{{{{{{{{{{{{{{{{{{{{{{{{{332DJJJJJJJJJJJJJJJJJJJJJD332{{{{{{{{{{{{{{{{{{{{{{{{{{{{{{{{{{{{{{{{{{{{{{{{{",
"{{{{{{{{{{{{{{{{{{{{{{{{{{{{{{{{{{{{{{{{{{432DJJJJJJJJJJJJJJJJJJJJJD333{{{{{{{{{{{{{{{{{{{{{{{{{{{{{{{{{{{{{{{{{{{{{{{{{",
"{{{{{{{{{{{{{{{{{{{{{{{{{{{{{{{{{{{{{{{{{{{{{bbbxbbbbbbbbnbnnnnnnnnn{{{{{{{{{{{{{{{{{{{{{{{{{{{{{{{{{{{{{{{{{{{{{{{{{{{{",
"{{{{{{{{{{{{{{{{{{{{{{{{{{{{{{{{{{{{{{{{{{{{{33333343333545555554443{{{{{{{{{{{{{{{{{{{{{{{{{{{{{{{{{{{{{{{{{{{{{{{{{{{{",
"{{{{{{{{{{{{{{{{{{{{{{{{{{{{{{{{{{{{{{{{{{{{{33433334433435555554533{{{{{{{{{{{{{{{{{{{{{{{{{{{{{{{{{{{{{{{{{{{{{{{{{{{{",
"{{{{{{{{{{{{{{{{{{{{{{{{{{{{{{{{{{{{{{{{{{{{{33343344444444355555533{{{{{{{{{{{{{{{{{{{{{{{{{{{{{{{{{{{{{{{{{{{{{{{{{{{{",
"{{{{{{{{{{{{{{{{{{{{{{{{{{{{{{{{{{{{{{{{{{{{{3333433l]''''''j5555555{{{{{{{{{{{{{{{{{{{{{{{{{{{{{{{{{{{{{{{{{{{{{{{{{{{{",
"{{{{{{{{{{{{{{{{{{{{{{{{{{{{{{{{{{{{{{{{{{{{{3333343z[[[[[[[k5555555{{{{{{{{{{{{{{{{{{{{{{{{{{{{{{{{{{{{{{{{{{{{{{{{{{{{",
"{{{{{{{{{{{{{{{{{{{{{{{{{{{{{{{{{{{{{{{{{{{{{3333333z[[[[[[[j1415555{{{{{{{{{{{{{{{{{{{{{{{{{{{{{{{{{{{{{{{{{{{{{{{{{{{{",
"{{{{{{{{{{{{{{{{{{{{{{{{{{{{{{{{{{{{{{{{{{{{{{334343z((()))_k433555{{{{{{{{{{{{{{{{{{{{{{{{{{{{{{{{{{{{{{{{{{{{{{{{{{{{{",
"{{{{{{{{{{{{{{{{{{{{{{{{{{{{{{{{{{{{{{{{{{{{{{{{{{{{{5551355{{{{{{{{{{{{{{{{{{{{{{{{{{{{{{{{{{{{{{{{{{{{{{{{{{{{{{{{{{{{",
"{{{{{{{{{{{{{{{{{{{{{{{{{{{{{{{{{{{{{{{{{{{{{{{{{{{{{3545434{{{{{{{{{{{{{{{{{{{{{{{{{{{{{{{{{{{{{{{{{{{{{{{{{{{{{{{{{{{{",
"{{{{{{{{{{{{{{{{{{{{{{{{{{{{{{{{{{{{{{{{{{{{{{{{{{{{{3335331{{{{{{{{{{{{{{{{{{{{{{{{{{{{{{{{{{{{{{{{{{{{{{{{{{{{{{{{{{{{",
"{{{{{{{{{{{{{{{{{{{{{{{{{{{{{{{{{{{{{{{{{{`'`{{{{{{{{{{{{{{{{{{{{{{{{{{{{{{{{{{{{{{{{{{{{{{{{{{{{{{{{{{{{{{{{{{{{{{{{{{{",
"{{{{{{{{{{{{{{{{{{{{{{{{{{{{{{{{{{{{{{{{{`[[[{{{{{{{{{{{{{{{{{{{{{{{[[[{{{{{{{{{{{{{{{{{{{{{{{{{{{{{{{{{{{{{{{{{{{{{{{{{",
"{{{{{{{{{{{{{{{{{{{{{{{{{{{{{{{{{{{{{{{{{`[[[{{{{{{{{{{{{{{{{{{{{{{{[[[{{{{{{{{{{{{{{{{{{{{{{{{{{{{{{{{{{{{{{{{{{{{{{{{{",
"{{{{{{{{{{{{{{{{{{{{{{{{{{{{{{{{{{{{{{{{{`[[[{{{{{{{{{{{{{{{{{{{{{{{[[[{{{{{{{{{{{{{{{{{{{{{{{{{{{{{{{{{{{{{{{{{{{{{{{{{",
"{{{{{{{{{{{{{{{{{{{{{{{{{{{{{{{{{{{{{{{{{{{{{{[[[[[[[[[[[[[[[[[[{{{{{{{{{{{{{{{{{{{{{{{{{{{{{{{{{{{{{{{{{{{{{{{{{{{{{{{{",
"{{{{{{{{{{{{{{{{{{{{{{{{{{{{{{{{{{{{{{{{{{{{{[[[[[[[[[[[[[[[[[[[[[[[{{{{{{{{{{{{{{{{{{{{{{{{{{{{{{{{{{{{{{{{{{{{{{{{{{{{",
"{{{{{{{{{{{{{{{{{{{{{{{{{{{{{{{{{{{{{{{{{{{{{[[[[[[[[[[[[[[[[[[[[[[[{{{{{{{{{{{{{{{{{{{{{{{{{{{{{{{{{{{{{{{{{{{{{{{{{{{{",
"{{{{{{{{{{{{{{{{{{{{{{{{{{{{{{{{{{{{{{{{{{{{{]]]]]]]]]]][][][]][][[[{{{{{{{{{{{{{{{{{{{{{{{{{{{{{{{{{{{{{{{{{{{{{{{{{{{{",
"{{{{{{{{{{{{{{{{{{{{{{{{{{{{{{{{{{{{{{{{{{{{{{{{{{{{{{{{{{{{{{{{{{{{{{{{{{{{{{{{{{{{{{{{{{{{{{{{{{{{{{{{{{{{{{{{{{{{{{{{",
"{{{{{{{{{{{{{{{{{{{{{{{{{{{{{{{{{{{{{{{{{{{{{{{{{{{{{{{{{{{{{{{{{{{{{{{{{{{{{{{{{{{{{{{{{{{{{{{{{{{{{{{{{{{{{{{{{{{{{{{{",
"{{{{{{{{{{{{{{{{{{{{{{{{{{{{{{{{{{{{{{{{{{{{{{{{{{{{{{{{{{{{{{{{{{{{{{{{{{{{{{{{{{{{{{{{{{{{{{{{{{{{{{{{{{{{{{{{{{{{{{{{",
"{{{{{{{{{{{{{{{{{{{{{{{{{{{{{{{{{{{{{{{{{{{{{{{{{{{{{{{{{{{{{{{{{{{{{{{{{{{{{{{{{{{{{{{{{{{{{{{{{{{{{{{{{{{{{{{{{{{{{{{{",
"{{{{{{{{{{{{{{{{{{{{{{{{{{{{{{{{{{{{{{{{{{{{{[[[]{{{{{{{{{{{{{{{[[[{{{{{{{{{{{{{{{{{{{{{{{{{{{{{{{{{{{{{{{{{{{{{{{{{{{{{",
"{{{{{{{{{{{{{{{{{{{{{{{{{{{{{{{{{{{{{{{{{{{{{[[[]{{{{{{{{{{{{{{{[[[{{{{{{{{{{{{{{{{{{{{{{{{{{{{{{{{{{{{{{{{{{{{{{{{{{{{{",
"{{{{{{{{{{{{{{{{{{{{{{{{{{{{{{{{{{{{{{{{{{{{{[[[]{{{{{{{{{{{{{{{[[[{{{{{{{{{{{{{{{{{{{{{{{{{{{{{{{{{{{{{{{{{{{{{{{{{{{{{",
"{{{{{{{{{{{{{{{{{{{{{{{{{{{{{{{{{{{{{{{{{{{{{{{{{{{{{{{{{{{{{{{{]]]{{{{{{{{{{{{{{{{{{{{{{{{{{{{{{{{{{{{{{{{{{{{{{{{{{{{{",
"{{{{{{{{{{{{{{{{{{{{{{{{{{{{{{{{{{{{{{{{{{{{{{{{{[[[[[[[[[[[[[[[{{{{{{{{{{{{{{{{{{{{{{{{{{{{{{{{{{{{{{{{{{{{{{{{{{{{{{{{",
"{{{{{{{{{{{{{{{{{{{{{{{{{{{{{{{{{{{{{{{{{{{{{{{{{[[[[[[[[[[[[[[[{{{{{{{{{{{{{{{{{{{{{{{{{{{{{{{{{{{{{{{{{{{{{{{{{{{{{{{{",
"{{{{{{{{{{{{{{{{{{{{{{{{{{{{{{{{{{{{{{{{{{{{{{{{{[[[[[[[[[[[[[[[{{{{{{{{{{{{{{{{{{{{{{{{{{{{{{{{{{{{{{{{{{{{{{{{{{{{{{{{",
"{{{{{{{{{{{{{{{{{{{{{{{{{{{{{{{{{{{{{{{{{{{{{{{{{{{{{{{{{{{{{{{{{{{{{{{{{{{{{{{{{{{{{{{{{{{{{{{{{{{{{{{{{{{{{{{{{{{{{{{{",
"{{{{{{{{{{{{{{{{{{{{{{{{{{{{{{{{{{{{{{{{{{{{{{{{{{{{{{{{{{{{{{{{{{{{{{{{{{{{{{{{{{{{{{{{{{{{{{{{{{{{{{{{{{{{{{{{{{{{{{{{",
"{{{{{{{{{{{{{{{{{{{{{{{{{{{{{{{{{{{{{{{{{{{{{{{{{{{{{{{{{{{{{{{{{{{{{{{{{{{{{{{{{{{{{{{{{{{{{{{{{{{{{{{{{{{{{{{{{{{{{{{{",
"{{{{{{{{{{{{{{{{{{{{{{{{{{{{{{{{{{{{{{{{{{{{{{{{{{{{{{{{{{{{{{{{{{{{{{{{{{{{{{{{{{{{{{{{{{{{{{{{{{{{{{{{{{{{{{{{{{{{{{{{",
"{{{{{{{{{{{{{{{{{{{{{{{{{{{{{{{{{{{{{{{{{{{{{{{{{[[[`{{{{{{{[][]{{{{{{{{{{{{{{{{{{{{{{{{{{{{{{{{{{{{{{{{{{{{{{{{{{{{{{{{",
"{{{{{{{{{{{{{{{{{{{{{{{{{{{{{{{{{{{{{{{{{{{{{{{{{[[[]{{{{{{{[[[[{{{{{{{{{{{{{{{{{{{{{{{{{{{{{{{{{{{{{{{{{{{{{{{{{{{{{{{{",
"{{{{{{{{{{{{{{{{{{{{{{{{{{{{{{{{{{{{{{{{{{{{{{{{{[[[]{{{{{{{[[[[{{{{{{{{{{{{{{{{{{{{{{{{{{{{{{{{{{{{{{{{{{{{{{{{{{{{{{{{",
"{{{{{{{{{{{{{{{{{{{{{{{{{{{{{{{{{{{{{{{{{{{{{{{{{[[[{{{{{{{{[[[{{{{{{{{{{{{{{{{{{{{{{{{{{{{{{{{{{{{{{{{{{{{{{{{{{{{{{{{{",
"{{{{{{{{{{{{{{{{{{{{{{{{{{{{{{{{{{{{{{{{{{{{{{{{{{{{{[[[[[[[{{{{{{{{{{{{{{{{{{{{{{{{{{{{{{{{{{{{{{{{{{{{{{{{{{{{{{{{{{{{",
"{{{{{{{{{{{{{{{{{{{{{{{{{{{{{{{{{{{{{{{{{{{{{{{{{{{{{[[[[[[[{{{{{{{{{{{{{{{{{{{{{{{{{{{{{{{{{{{{{{{{{{{{{{{{{{{{{{{{{{{{",
"{{{{{{{{{{{{{{{{{{{{{{{{{{{{{{{{{{{{{{{{{{{{{{{{{{{{{[[[[[[[{{{{{{{{{{{{{{{{{{{{{{{{{{{{{{{{{{{{{{{{{{{{{{{{{{{{{{{{{{{{",
"{{{{{{{{{{{{{{{{{{{{{{{{{{{{{{{{{{{{{{{{{{{{{{{{{{{{{{{{{{{{{{{{{{{{{{{{{{{{{{{{{{{{{{{{{{{{{{{{{{{{{{{{{{{{{{{{{{{{{{{{",
"{{{{{{{{{{{{{{{{{{{{{{{{{{{{{{{{{{{{{{{{{{{{{{{{{{{{{{{{{{{{{{{{{{{{{{{{{{{{{{{{{{{{{{{{{{{{{{{{{{{{{{{{{{{{{{{{{{{{{{{{",
"{{{{{{{{{{{{{{{{{{{{{{{{{{{{{{{{{{{{{{{{{{{{{{{{{{{{{{{{{{{{{{{{{{{{{{{{{{{{{{{{{{{{{{{{{{{{{{{{{{{{{{{{{{{{{{{{{{{{{{{{",
"{{{{{{{{{{{{{{{{{{{{{{{{{{{{{{{{{{{{{{{{{{{{{{{{{{{{{{{{{{{{{{{{{{{{{{{{{{{{{{{{{{{{{{{{{{{{{{{{{{{{{{{{{{{{{{{{{{{{{{{{",
"{{{{{{{{{{{{{{{{{{{{{{{{{{{{{{{{{{{{{{{{{{{{{{{{{{{{{{{{{{{{{{{{{{{{{{{{{{{{{{{{{{{{{{{{{{{{{{{{{{{{{{{{{{{{{{{{{{{{{{{{",
"{{{{{{{{{{{{{{{{{{{{{{{{{{{{{{{{{{{{{{{{{{{{{{{{{{{{{{{{{{{{{{{{{{{{{{{{{{{{{{{{{{{{{{{{{{{{{{{{{{{{{{{{{{{{{{{{{{{{{{{{",
"{{{{{{{{{{{{{{{{{{{{{{{{{{{{{{{{{{{{{{{{{{{{{{{{{{{{{{{{{{{{{{{{{{{{{{{{{{{{{{{{{{{{{{{{{{{{{{{{{{{{{{{{{{{{{{{{{{{{{{{{",
"{{{{{{{{{{{{{{{{{{{{{{{{{{{{{{{{{{{{{{{{{{{{{{{{{{{{{{{{{{{{{{{{{{{{{{{{{{{{{{{{{{{{{{{{{{{{{{{{{{{{{{{{{{{{{{{{{{{{{{{{",
"{{{{{{{{{{{{{{{{{{{{{{{{{{{{{{{{{{{{{{{{{{{{{{{{{{{{{{{{{{{{{{{{{{{{{{{{{{{{{{{{{{{{{{{{{{{{{{{{{{{{{{{{{{{{{{{{{{{{{{{{",
"{{{{{{{{{{{{{{{{{{{{{{{{{{{{{{{{{{{{{{{{{{{{{{{{{{{{{{{{{{{{{{{{{{{{{{{{{{{{{{{{{{{{{{{{{{{{{{{{{{{{{{{{{{{{{{{{{{{{{{{{",
"{{{{{{{{{{{{{{{{{{{{{{{{{{{{{{{{{{{{{{{{{{{{{{{{{{{{{{{{{{{{{{{{{{{{{{{{{{{{{{{{{{{{{{{{{{{{{{{{{{{{{{{{{{{{{{{{{{{{{{{{"
};
