/* XPM */
static char *nave_small_3[] = {
/* columns rows colors chars-per-pixel */
"67 67 225 2 ",
"   c #000000",
".  c #010101",
"X  c #020200",
"o  c #020202",
"O  c #030303",
"+  c #050400",
"@  c #050500",
"#  c #040404",
"$  c #080707",
"%  c #0A0900",
"&  c #0D0C01",
"*  c #0E0D01",
"=  c #090808",
"-  c #0A0909",
";  c #0C0B0A",
":  c #0C0B0B",
">  c #0C0C0C",
",  c #0F0F0F",
"<  c #131201",
"1  c #141301",
"2  c #181601",
"3  c #131212",
"4  c #161515",
"5  c #191919",
"6  c #1D1D1D",
"7  c #2E2A02",
"8  c #2A270B",
"9  c #363202",
"0  c #393502",
"q  c #3F3A02",
"w  c #212121",
"e  c #252525",
"r  c #292929",
"t  c #373737",
"y  c #3A3737",
"u  c #3D3535",
"i  c #3F3434",
"p  c #373A3C",
"a  c #383838",
"s  c #393838",
"d  c #383839",
"f  c #393939",
"g  c #38393A",
"h  c #3A3A3A",
"j  c #3B3A3A",
"k  c #3B3B3B",
"l  c #3F3939",
"z  c #3D3A3A",
"x  c #3C3B3B",
"c  c #3D3B3B",
"v  c #3F3B3B",
"b  c #3C3C3C",
"n  c #3D3C3C",
"m  c #3D3D3D",
"M  c #3E3C3C",
"N  c #3F3D3D",
"B  c #3E3E3E",
"V  c #3F3E3E",
"C  c #3F3F3F",
"Z  c #770F0F",
"A  c #7D0B0B",
"S  c #7A0D0D",
"D  c #661A1A",
"F  c #631C1C",
"G  c #741111",
"H  c #4C2B2B",
"J  c #4E2A2A",
"K  c #572424",
"L  c #542626",
"P  c #512828",
"I  c #413B3B",
"U  c #403D3D",
"Y  c #413E3E",
"T  c #403F3F",
"R  c #413F3F",
"E  c #423F3F",
"W  c #433F3F",
"Q  c #443E3E",
"!  c #563434",
"~  c #6B2C2C",
"^  c #5E5704",
"/  c #696204",
"(  c #6E6705",
")  c #736B05",
"_  c #766E05",
"`  c #4A482B",
"'  c #4F4D37",
"]  c #363C40",
"[  c #334651",
"{  c #314A58",
"}  c #314B59",
"|  c #304E5E",
" . c #2F4F61",
".. c #2E5164",
"X. c #404040",
"o. c #414040",
"O. c #414141",
"+. c #434040",
"@. c #424141",
"#. c #434141",
"$. c #424242",
"%. c #434343",
"&. c #444040",
"*. c #454141",
"=. c #474040",
"-. c #474141",
";. c #444343",
":. c #454343",
">. c #444444",
",. c #454545",
"<. c #464444",
"1. c #474545",
"2. c #464646",
"3. c #474646",
"4. c #474747",
"5. c #494242",
"6. c #4A4444",
"7. c #4B4444",
"8. c #4C4545",
"9. c #4C4646",
"0. c #4D4646",
"q. c #484848",
"w. c #494949",
"e. c #4A4A4A",
"r. c #4B4B4B",
"t. c #4D4949",
"y. c #4F4848",
"u. c #4E4A4A",
"i. c #4C4C4C",
"p. c #4D4D4D",
"a. c #4F4C4C",
"s. c #4E4E4E",
"d. c #4F4F4F",
"f. c #504A4A",
"g. c #504B4B",
"h. c #514B4B",
"j. c #504D4D",
"k. c #524C4C",
"l. c #514E4E",
"z. c #524E4E",
"x. c #534F4F",
"c. c #505050",
"v. c #515151",
"b. c #535050",
"n. c #525252",
"m. c #535353",
"M. c #545050",
"N. c #555151",
"B. c #555252",
"V. c #565252",
"C. c #545454",
"Z. c #555555",
"A. c #565454",
"S. c #565656",
"D. c #575757",
"F. c #585454",
"G. c #595555",
"H. c #585858",
"J. c #595959",
"K. c #5A5A5A",
"L. c #5B5B5B",
"P. c #5E5B5B",
"I. c #5C5C5C",
"U. c #5D5D5D",
"Y. c #5F5D5D",
"T. c #5E5E5E",
"R. c #5F5F5F",
"E. c #655757",
"W. c #606060",
"Q. c #616161",
"!. c #636161",
"~. c #626262",
"^. c #636363",
"/. c #646464",
"(. c #656565",
"). c #666666",
"_. c #676767",
"`. c #686666",
"'. c #686868",
"]. c #696868",
"[. c #696969",
"{. c #6A6969",
"}. c #6A6A6A",
"|. c #6B6B6B",
" X c #6C6B6B",
".X c #6C6C6C",
"XX c #6D6D6D",
"oX c #6E6D6D",
"OX c #6E6E6E",
"+X c #6F6F6F",
"@X c #756767",
"#X c #707070",
"$X c #717171",
"%X c #727272",
"&X c #8B0202",
"*X c #810909",
"=X c #822A2A",
"-X c #827905",
";X c #847B05",
":X c #8C8305",
">X c #8F8506",
",X c #918705",
"<X c #908606",
"1X c #918706",
"2X c #928806",
"3X c #958A06",
"4X c #BBAE07",
"5X c #C2B507",
"6X c #C3B508",
"7X c #C7B908",
"8X c #D3C408",
"9X c #D7C808",
"0X c #E4D409",
"qX c #EAD909",
"wX c #EDDD09",
"eX c #EFDE09",
"rX c #F0DF09",
"tX c #178FCF",
"yX c #1592D5",
"uX c #1496DC",
"iX c #129CE7",
"pX c #119DE8",
"aX c #119DE9",
"sX c #119EEA",
"dX c None",
/* pixels */
"dXdXdXdXdXdXdXdXdXdXdXdXdXdXdXdXdXdXdXdXdXdXdXdXdXdXdXdXdXdXdXdXdXdXdXdXdXdXdXdXdXdXdXdXdXdXdXdXdXdXdXdXdXdXdXdXdXdXdXdXdXdXdXdXdXdXdX",
"dXdXdXdXdXdXdXdXdXdXdXdXdXdXdXdXdXdXdXdXdXdXdXdXdXdXdXdXdXdXdXdXdXdXdXdXdXdXdXdXdXdXdXdXdXdXdXdXdXdXdXdXdXdXdXdXdXdXdXdXdXdXdXdXdXdXdX",
"dXdXdXdXdXdXdXdXdXdXdXdXdXdXdXdXdXdXdXdXdXdXdXdXdXdXdXdXdXdXdXdXdXdXdXdXdXdXdXdXdXdXdXdXdXdXdXdXdXdXdXdXdXdXdXdXdXdXdXdXdXdXdXdXdXdXdX",
"dXdXdXdXdXdXdXdXdXdXdXdXdXdXdXdXdXdXdXdXdXdXdXdXdXdXdXdXdXdXdXdXdXdXdXdXdXdXdXdXdXdXdXdXdXdXdXdXdXdXdXdXdXdXdXdXdXdXdXdXdXdXdXdXdXdXdX",
"dXdXdXdXdXdXdXdXdXdXdXdXdXdXdXdXdXdXdXdXdXdXdXdXdXdXdXdXdXdXa dXdXdXdXdXdXdXdXdXdXdXdXdXdXdXdXdXdXdXdXdXdXdXdXdXdXdXdXdXdXdXdXdXdXdXdX",
"dXdXdXdXdXdXdXdXdXdXdXdXdXdXdXdXdXdXdXdXdXdXdXdXdXdXdXdXdXdXa a dXdXdXdXdXdXdXdXdXdXdXdXdXdXdXdXdXdXdXdXdXdXdXdXdXdXdXdXdXdXdXdXdXdXdX",
"dXdXdXdXdXdXdXdXdXdXdXdXdXdXdXdXdXdXdXdXdXdXdXdXdXdXdXdXdXdXa a a a dXdXdXdXdXdXdXdXdXdXdXdXdXdXdXdXdXdXdXdXdXdXdXdXdXdXdXdXdXdXdXdXdX",
"dXdXdXdXdXdXdXdXdXdXdXdXdXdXdXdXdXdXdXdXdXdXdXdXdXdXdXdXdXdXa B p.c.dXdXdXdXdXt a a a a a a a a dXdXdXdXdXdXdXdXdXdXdXdXdXdXdXdXdXdXdX",
"dXdXdXdXdXdXdXdXdXdXdXdXdXdXdXdXdXdXdXdXdXdXdXdXdXdXdXdXdXdXa q.%X_.a a a a a a a a a a a a a a dXdXdXdXdXdXdXdXdXdXdXdXdXdXdXdXdXdXdX",
"dXdXdXdXdXdXdXdXdXdXdXdXdXdXdXdXdXdXdXdXdXdXdXdXdXdXdXdXdXdXa 2.%X[.a f c.n.C.S.H.K.I.T.~ G Z S F a dXdXdXdXdXdXdXdXdXdXdXdXdXdXdXdXdX",
"dXdXdXdXdXdXdXdXdXdXdXdXdXdXdXdXdXdXdXdXdXdXdXdXdXdXdXdXdXdXa >.%X|.a h $X%X%X%X%X%X%X%X=X&X&X&XD a dXdXdXdXdXdXdXdXdXdXdXdXdXdXdXdXdX",
"dXdXdXdXdXdXdXdXdXdXdXdXdXdXdXdXdXdXdXdXdXdXdXdXdXdXdXdXdXdXa $.%XXXa f R.T.I.K.H.S.C.n.! K L P H dXdXdXdXdXdXdXdXdXdXdXdXdXdXdXdXdXdX",
"dXdXdXdXdXdXdXdXdXdXdXdXdXdXdXdXdXdXdXdXdXdXdXdXdXdXdXdXdXdXa X.%X+Xa a a a a a a a a a a a a a dXdXdXdXdXdXdXdXdXdXdXdXdXdXdXdXdXdXdX",
"dXdXdXdXdXdXdXdXdXdXdXdXdXdXdXdXdXdXdXdXdXdXdXdXdXdXdXdXdXdXa B %X#Xf a a a a a a dXdXdXdXdXdXdXdXdXdXdXdXdXdXdXdXdXdXdXdXdXdXdXdXdXdX",
"dXdXdXdXdXdXdXdXdXdXdXdXdXdXdXdXdXdXdXdXdXdXdXdXdXdXdXdXdXdXa b %X$Xh a a a dXdXdXdXdXdXdXdXdXdXdXdXdXdXdXdXdXdXdXdXdXdXdXdXdXdXdXdXdX",
"dXdXdXdXdXdXdXdXdXdXdXdXdXdXdXdXdXdXdXdXdXdXdXdXdXdXdXdXdXdXa j $X%XC m f a dXdXdXdXdXdXdXdXdXdXdXdXdXdXdXdXdXdXdXdXdXdXdXdXdXdXdXdXdX",
"dXdXdXdXdXdXdXdXdXdXdXdXdXdXdXdXdXdXdXdXdXdXdXdXdXdXdXdXdXdXa f $X%X%X%X%.a dXdXdXdXdXdXdXdXdXdXdXdXdXdXdXdXdXdXdXdXdXdXdXdXdXdXdXdXdX",
"dXdXdXdXdXdXdXdXdXdXdXdXdXdXdXdXdXdXdXdXdXdXdXdXdXdXdXdXdXdXa s #X%X%X%X,.a dXdXdXdXdXdXdXdXdXdXdXdXdXdXdXdXdXdXdXdXdXdXdXdXdXdXdXdXdX",
"dXdXdXdXdXdXdXdXdXdXdXdXdXdXdXdXdXdXdXdXdXdXdXdXdXdXdXdXdXdXa a OX%X%X%X4.a a a dXdXdXdXdXdXdXdXdXdXdXdXdXdXdXdXdXdXdXdXdXdXdXdXdXdXdX",
"dXdXdXdXdXdXdXdXdXdXdXdXdXdXdXdXdXdXdXdXdXdXdXdXdXdXdXdXdXdXa a .X%X%X%Xw.a a a dXdXdXdXdXdXdXdXdXdXdXdXdXdXdXdXdXdXdXdXdXdXdXdXdXdXdX",
"dXdXdXdXdXdXdXdXdXdXdXdXdXdXdXdXdXdXdXdXdXdXdXdXdXdXdXdXdXdXa a }.%XY.G.B.N.;.a a a dXdXdXdXdXdXdXdXdXdXdXdXdXdXdXdXdXdXdXdXdXdXdXdXdX",
"dXdXdXdXdXdXdXdXdXdXdXdXdXdXdXdXdXdXdXdXdXdXdXdXdXdXdXdXdXdXa a '.%XP.V.V.V.<.a a a dXdXdXdXdXdXdXdXdXdXdXdXdXdXdXdXdXdXdXdXdXdXdXdXdX",
"dXdXdXdXdXdXdXdXdXdXdXdXdXdXdXdXdXdXdXdXdXdXdXdXdXdXdXdXdXa a a A.P.F.V.1.x f a a a a a a dXdXdXdXdXdXdXdXdXdXdXdXdXdXdXdXdXdXdXdXdXdX",
"dXdXdXdXdXdXdXdXdXdXdXdXdXdXdXdXdXdXdXdXdXdXdXdXdXdXdXdXa a a a a.V.V.V.:.a a a a a a s s dXdXdXdXdXdXdXdXdXdXdXdXdXdXdXdXdXdXdXdXdXdX",
"dXdXdXdXdXdXdXdXdXdXdXdXdXdXdXdXdXdXdXdXdXdXdXdXdXdXdXdXm.Z.B a R #.@.o.1.a.j.l.x.M.z.9.6.a a a a a a dXdXdXdXdXdXdXdXdXdXdXdXdXdXdXdX",
"dXdXdXdXdXdXdXdXdXdXdXdXdXdXdXdXdXdXsXaXdXdXdXdXdXdXa a |.%X,.a a a a a 1.V.V.V.V.V.M.0.7.a s s f a a dXdXdXdXdXdXdXdXdXdXdXdXdXdXdXdX",
"dXdXdXdXdXdXdXdXdXdXdXdXdXdXdXdXdXdXpXaXdXdXdXdXdXdXe.r..X%X4.a N +.&.*.t.V.U 4 3 , > = : 9.9.0.0.h a a a a a dXdXdXdXdXdXdXdXdXdXdXdX",
"dXdXdXdXdXdXdXdXdXdXdXdXsXdXdXdXsXdXdXdXdXdXa a a a .X%X%X%Xw.a *.0.0.0.h.V.y           # 0.0.0.0.n k m C k a dXdXdXdXdXdXdXdXdXdXdXdX",
"dXdXdXdXdXdXdXdXdXdXdXdXsXdXdXdXsXsXdXdXdXdXa a a a }.%X%X%Xr.a &.0.0.0.g.V.z   1 / ( ) _ ; $ -.0.{.$X%X%Xp.a a a dXdXdXdXdXdXdXdXdXdX",
"dXdXdXdXdXdXdXdXdXdXdXdXdXdXdXdXsXsXdXdXdXdXa a a a '.%X%X%Xp.a +.0.0.0.f.V.U   2 <X<X<X>X+   Q 0.{.%X%X%Xv.m k a dXdXdXdXdXdXdXdXdXdX",
"dXdXdXdXdXsXsXdXdXdXsXdXdXdXdXdXsXsXdXdXdXdXg p d a ).%X%X%Xd.a W 0.0.0.y.k.v   < <X2X8X9X4X5X8 - H.%X%X%X%X%XD.a a a a dXdXdXdXdXdXdX",
"dXdXdXdXdXdXaXdXdXdXsXdXdXdXdXdXsXsXdXdXa a uXiX[ a /.%X%X%Xv.a E 0.0.0.0.0.l   * <X1XeXrXrXrX7   n.%X%X%X%X%XJ.a a a a dXdXdXdXdXdXdX",
"dXdXdXsXsXdXdXdXdXdXsXdXdXdXdXdXsXsXdXdXa a uXsX{ a ~.%X%X%Xm.a Y 0.0.0.0.0.I   & 6X7XeXrXrXrX9   s.%X%X%X%X%XL.a a a a dXdXdXdXdXdXdX",
"dXdXdXsXsXdXdXdXdXdXsXdXdXdXdXdXsXsXdXdXa a yXsX| a W.%X%X%XZ.a Y 0.0.0.0.0.Q   % wXrXrXrXrXrXq   e.%X%X%X%X%XU.a a a a dXdXdXdXdXdXdX",
"dXdXdXsXsXdXdXdXdXdXsXsXdXdXdXdXsXsXdXdXa a tXsX..a T.%X%X%XD.a U 0.0.0.0.0.=.  @ qXrXrXrX-X^ ' d.).%X%X%XU.B k a a dXdXdXdXdXdXdXdXdX",
"dXdXdXdXsXdXdXdXdXdXsXsXdXdXdXdXsXsXdXdXdXdX .} ] a I.%X%X%XJ.a N 0.0.0.0.0.5.. X 0XrXrXrX0   p.%X%X%X%X%XI.a a a a dXdXdXdXdXdXdXdXdX",
"dXdXdXdXdXdXsXdXdXdXsXsXdXdXdXdXsXsXdXdXdXdXa a a a K.%X%X%XL.a M 0.0.0.0.0.6.o   ,X3X:X;X` b W.%XT.i.e.q.O.a a dXdXdXdXdXdXdXdXdXdXdX",
"dXdXdXdXdXdXsXdXdXdXsXdXdXdXdXdXsXsXdXdXdXdXa a a a H.%X%X%XU.a M 0.0.0.0.0.8.O           c.%X%X%XZ.a a a a a a dXdXdXdXdXdXdXdXdXdXdX",
"dXdXdXdXdXdXdXdXdXdXdXdXsXsXdXdXaXsXdXdXdXdXa a a a S.%X%X%XR.a c 0.9.8.8.h.k.5 5 6 w e r i.J.D.Z.2.a a dXdXdXdXdXdXdXdXdXdXdXdXdXdXdX",
"dXdXdXdXdXdXdXdXdXdXdXdXsXdXdXdXdXdXdXdXdXdXdXdXdXdXdX2.S.%XQ.a a s s a h $X%X%X%X%X%X%X%Xs.a a a a a a dXdXdXdXdXdXdXdXdXdXdXdXdXdXdX",
"dXdXdXdXdXdXdXdXdXdXdXdXdXdXdXdXdXdXaXsXdXdXdXdXdXdXdXa i.%X^.a a a a a f OX+XXX|.[._.(.^.c.a dXdXdXdXdXdXdXdXdXdXdXdXdXdXdXdXdXdXdXdX",
"dXdXdXdXdXdXdXdXdXdXdXdXdXdXdXdXdXdXdXdXdXdXdXdXdXdXdXdXdX4.$.a k x.b.M.N.k s a a a a a a dXdXdXdXdXdXdXdXdXdXdXdXdXdXdXdXdXdXdXdXdXdX",
"dXdXdXdXdXdXdXdXdXdXdXdXdXdXdXdXdXdXdXdXdXdXdXdXdXdXdXdXdXa a a j V.V.V.V.k a a a a a a a dXdXdXdXdXdXdXdXdXdXdXdXdXdXdXdXdXdXdXdXdXdX",
"dXdXdXdXdXdXdXdXdXdXdXdXdXdXdXdXdXdXdXdXdXdXdXdXdXdXdXdXdXdXdXa h V.V.V.V.M.N.V a a a dXdXdXdXdXdXdXdXdXdXdXdXdXdXdXdXdXdXdXdXdXdXdXdX",
"dXdXdXdXdXdXdXdXdXdXdXdXdXdXdXdXdXdXdXdXdXdXdXdXdXdXdXdXdXdXdXa f B.V.V.V.V.V.T a a a dXdXdXdXdXdXdXdXdXdXdXdXdXdXdXdXdXdXdXdXdXdXdXdX",
"dXdXdXdXdXdXdXdXdXdXdXdXdXdXdXdXdXdXdXdXdXdXdXdXdXdXdXdXdXdXdXa s B.V.]. X3.x f a dXdXdXdXdXdXdXdXdXdXdXdXdXdXdXdXdXdXdXdXdXdXdXdXdXdX",
"dXdXdXdXdXdXdXdXdXdXdXdXdXdXdXdXdXdXdXdXdXdXdXdXdXdXdXdXdXdXdXa a N.V.oX%X2.a a a dXdXdXdXdXdXdXdXdXdXdXdXdXdXdXdXdXdXdXdXdXdXdXdXdXdX",
"dXdXdXdXdXdXdXdXdXdXdXdXdXdXdXdXdXdXdXdXdXdXdXdXdXdXdXdXdXdXdXa a !.`.#X%Xq.a dXdXdXdXdXdXdXdXdXdXdXdXdXdXdXdXdXdXdXdXdXdXdXdXdXdXdXdX",
"dXdXdXdXdXdXdXdXdXdXdXdXdXdXdXdXdXdXdXdXdXdXdXdXdXdXdXdXdXdXdXa a |.%X%X%Xe.a dXdXdXdXdXdXdXdXdXdXdXdXdXdXdXdXdXdXdXdXdXdXdXdXdXdXdXdX",
"dXdXdXdXdXdXdXdXdXdXdXdXdXdXdXdXdXdXdXdXdXdXdXdXdXdXdXdXdXdXdXa a [.%XJ.d.C a dXdXdXdXdXdXdXdXdXdXdXdXdXdXdXdXdXdXdXdXdXdXdXdXdXdXdXdX",
"dXdXdXdXdXdXdXdXdXdXdXdXdXdXdXdXdXdXdXdXdXdXdXdXdXdXdXdXdXdXdXa a _.%Xq.a a a dXdXdXdXdXdXdXdXdXdXdXdXdXdXdXdXdXdXdXdXdXdXdXdXdXdXdXdX",
"dXdXdXdXdXdXdXdXdXdXdXdXdXdXdXdXdXdXdXdXdXdXdXdXdXdXdXdXdXdXdXa a (.%Xe.a a a a a a a a a a a a a a dXdXdXdXdXdXdXdXdXdXdXdXdXdXdXdXdX",
"dXdXdXdXdXdXdXdXdXdXdXdXdXdXdXdXdXdXdXdXdXdXdXdXdXdXdXdXdXdXdXa a ^.%Xi.a a a a a a a a a a a a a a dXdXdXdXdXdXdXdXdXdXdXdXdXdXdXdXdX",
"dXdXdXdXdXdXdXdXdXdXdXdXdXdXdXdXdXdXdXdXdXdXdXdXdXdXdXdXdXdXdXa a Q.%Xs.a ,.C.S.H.K.I.T.W.E.Z S A *Xu a dXdXdXdXdXdXdXdXdXdXdXdXdXdXdX",
"dXdXdXdXdXdXdXdXdXdXdXdXdXdXdXdXdXdXdXdXdXdXdXdXdXdXdXdXdXdXdXa a R.%Xc.a C.%X%X%X%X%X%X%X@X&X&X&X&Xi a dXdXdXdXdXdXdXdXdXdXdXdXdXdXdX",
"dXdXdXdXdXdXdXdXdXdXdXdXdXdXdXdXdXdXdXdXdXdXdXdXdXdXdXdXdXdXdXa a U.%Xn.a w.L.K.H.S.m.v.d.u.L P J H dXdXdXdXdXdXdXdXdXdXdXdXdXdXdXdXdX",
"dXdXdXdXdXdXdXdXdXdXdXdXdXdXdXdXdXdXdXdXdXdXdXdXdXdXdXdXdXdXdXa a L.%XZ.a a a a a a a a a a a a a a dXdXdXdXdXdXdXdXdXdXdXdXdXdXdXdXdX",
"dXdXdXdXdXdXdXdXdXdXdXdXdXdXdXdXdXdXdXdXdXdXdXdXdXdXdXdXdXdXdXa a Z.[.S.a a a a dXdXdXdXdXdXdXdXdXdXdXdXdXdXdXdXdXdXdXdXdXdXdXdXdXdXdX",
"dXdXdXdXdXdXdXdXdXdXdXdXdXdXdXdXdXdXdXdXdXdXdXdXdXdXdXdXdXdXdXt a a a dXdXdXdXdXdXdXdXdXdXdXdXdXdXdXdXdXdXdXdXdXdXdXdXdXdXdXdXdXdXdXdX",
"dXdXdXdXdXdXdXdXdXdXdXdXdXdXdXdXdXdXdXdXdXdXdXdXdXdXdXdXdXdXdXdXa a a dXdXdXdXdXdXdXdXdXdXdXdXdXdXdXdXdXdXdXdXdXdXdXdXdXdXdXdXdXdXdXdX",
"dXdXdXdXdXdXdXdXdXdXdXdXdXdXdXdXdXdXdXdXdXdXdXdXdXdXdXdXdXdXdXdXa dXdXdXdXdXdXdXdXdXdXdXdXdXdXdXdXdXdXdXdXdXdXdXdXdXdXdXdXdXdXdXdXdXdX",
"dXdXdXdXdXdXdXdXdXdXdXdXdXdXdXdXdXdXdXdXdXdXdXdXdXdXdXdXdXdXdXdXa dXdXdXdXdXdXdXdXdXdXdXdXdXdXdXdXdXdXdXdXdXdXdXdXdXdXdXdXdXdXdXdXdXdX",
"dXdXdXdXdXdXdXdXdXdXdXdXdXdXdXdXdXdXdXdXdXdXdXdXdXdXdXdXdXdXdXdXdXdXdXdXdXdXdXdXdXdXdXdXdXdXdXdXdXdXdXdXdXdXdXdXdXdXdXdXdXdXdXdXdXdXdX",
"dXdXdXdXdXdXdXdXdXdXdXdXdXdXdXdXdXdXdXdXdXdXdXdXdXdXdXdXdXdXdXdXdXdXdXdXdXdXdXdXdXdXdXdXdXdXdXdXdXdXdXdXdXdXdXdXdXdXdXdXdXdXdXdXdXdXdX",
"dXdXdXdXdXdXdXdXdXdXdXdXdXdXdXdXdXdXdXdXdXdXdXdXdXdXdXdXdXdXdXdXdXdXdXdXdXdXdXdXdXdXdXdXdXdXdXdXdXdXdXdXdXdXdXdXdXdXdXdXdXdXdXdXdXdXdX",
"dXdXdXdXdXdXdXdXdXdXdXdXdXdXdXdXdXdXdXdXdXdXdXdXdXdXdXdXdXdXdXdXdXdXdXdXdXdXdXdXdXdXdXdXdXdXdXdXdXdXdXdXdXdXdXdXdXdXdXdXdXdXdXdXdXdXdX",
"dXdXdXdXdXdXdXdXdXdXdXdXdXdXdXdXdXdXdXdXdXdXdXdXdXdXdXdXdXdXdXdXdXdXdXdXdXdXdXdXdXdXdXdXdXdXdXdXdXdXdXdXdXdXdXdXdXdXdXdXdXdXdXdXdXdXdX"
};
