/* XPM */
static char * samp_xpm[] = {
"32 32 5 1",
" 	c white",
".	c blue",
"X	c purple",
"o	c firebrick",
"O	c red",
"           ..XXX..              ",
"        ..XXXoXXXXX..           ",
"       .XooOOOooooXXX.          ",
"      XooOOOOOOOooooXXX         ",
"     XoOOOOOOOOOOOoooXXX        ",
"    .ooOOOOOOOOOOOooooXX.       ",
"   .XoOOOOOOOOOOOOOoooXXX.      ",
"  ..ooOOOOOOOOOOOOOooooXX..     ",
"  .XoOOOOOOOOOOOOOOOoooXXX.     ",
"  .XoOOOOOOOOOOOOOOOoooXXX.     ",
" ..XoOOOOOOOOOOOOOOOoooXXX..    ",
" .XoooOOOOOOOOOOOOOoooooXXX.    ",
" .XXooOOOOOOOOOOOOOooooXXXX.    ",
" .XXoooOOOOOOOOOOOoooooXXXX.    ",
" ..XoooOOOOOOOOOOOoooooXXX..    ",
" ..XoooooOOOOOOOoooooooXXX..    ",
" ..XXooooooOOOooooooooXXXX..    ",
"  ..XoooooooooooooooooXXX..     ",
"  ..XXoooooooooooooooXXXX..     ",
"  ...XXoooooooooooooXXXX...     ",
"   ..XXXXoooooooooXXXXXX..      ",
"    ..XXXXXXXoXXXXXXXXX..       ",
"     ...XXXXXXXXXXXXX...        ",
"      ....XXXXXXXXX....         ",
"       ......XXX......          ",
"        .............           ",
"           .......              ",
"                                ",
"                                ",
"                                ",
"                                ",
"                                "};
