/* XPM */
static char *_573775749392[] = {
/* columns rows colors chars-per-pixel */
"100 100 13 1 ",
"  c #D42A41",
". c #FC5842",
"X c #FCD64B",
"o c #D1B6E3",
"O c #D4BAE5",
"+ c #D7BFE7",
"@ c #DAC4E8",
"# c #DDC8EA",
"$ c #DFCDEC",
"% c #E2D1EE",
"& c #E7F3F3",
"* c white",
"= c None",
/* pixels */
"====================================================================================================",
"====================================================================================================",
"====================================================================================================",
"====================================================================================================",
"====================================================================================================",
"====================================================================================================",
"====================================================================================================",
"====================================================================================================",
"====================================================================================================",
"============================================*=======================================================",
"===========================================***======================================================",
"===========================================***======================================================",
"===========================================***======================================================",
"===========================================***======================================================",
"============================================***=====================================================",
"============================================***=====================================================",
"============================================***=====================================================",
"====================================================================================================",
"====================================================================================================",
"====================================================================================================",
"====================================================================================================",
"========================================...=======OO================================================",
"========================================.XX. =====OO================================================",
"========================================.XXX. ======================================================",
"======================================oo=.XXX . =.====...===========================================",
"======================================o== OO XX....= .XX.===========================================",
"==========================================O .%%%... %XXX.===========================================",
"========================================XXX= %%%%X.%%%X@==OO=$====...===============================",
"==================================...===XXXX.%%%@XX%%%X%%%%X$$$...XX.===============================",
"==================================.XX. =XX&&X.%@XXX%%%$%%%%XX$$XX.X+..==============================",
"=============================...=...XX. =X&&&X..X&X.X$.X%%%XX&$XX.++X.=======**=====================",
"=============================.XX.XXX. X =.XXX&.XXX&.X&.X&%XX&&&X..X+X.======***=====================",
"=============================.XXXX$$X.XX =X&&X.X&X.X.XX.XX.X&&X....++=====****======================",
"============================oo.XXX$XXX.&X.X&&&X.&&X.X..X..=.XX..XX..+===*****=======================",
"============================o= .X X&&X.&&X.X&&&.&&X..XX.====.XXXXX..=oo****=========================",
"===============================  =X&&&X.&&..X&.XXX.==..====.X&&XX.X.##OO***=========================",
"===========================++====XXX&&&.&.==..============.X&&&X.XXXX#=O=*==========================",
"==========================.+.O...XXXX&...=================.X&&X.XXXXX.==============================",
"==========================.XX.XXX%%%%X.====================.XX..X&XXX=XXX===========================",
"==========================.XXXX&&%%%XXX.====================...X.X&&XX&&X.==========================",
"========================++@@X$%%X&%X&&X.======================..X&&&XXX&X...========================",
"========================O+@ .$%%%X.X&&&X.======================.X&&X&&XX+.X.========================",
"========================.X...$%%&&X.X&&&.=======================.XX.&&X.+XX.========================",
"========******=========..X.XX$%X&&&..X&.=========================..&&X..+...========================",
"=======**********====++.X.$$#X..X&.==..===========================.XX.. .XX.========================",
"========*********====+=.@@$$$%%...===============================.X..XX$$XX.========================",
"==============***======O@##$.%%%X.==============================.X&&&X$$$X.. =======================",
"=======================OO##  %%&..==============================.X&&X&X$$. X..======================",
"=========================  =X%&.XX.==============================.XX.X.X..XXX..=====================",
"=======================oo===+XXX&..===============================....X...XX..======================",
"=======================oo%%%+XX&.XX.================================ ..   .. =======================",
"=========================%%%$$XXX&&X================================.XX. .  ========================",
"===========================$$$XX&&&X===============================.X&&X...=========================",
"=======================oo= $$#.XX&&X===============================.X&&&X.=$#=======================",
"=======================oo=.XX.XX.XX.==============================.X.X&&X.$$#=======================",
"=========================.XXXX&&X..=============================..X&&XXXX..=========================",
"=========================#XXX&&&X.X...=========================.XX.&%&XXX...========================",
"=========================##.X&&X.&&X.X.=======================.X&&X%%&%XX#.o========================",
"=========================#.#XXXX&&&X.&X.======================.X&&%%%%%.##.o========================",
"==========================###X&X&&X...X.=======================.X&&%%%%#=#==========================",
"==========================##.XXXXXX.XX.======================..= XXX=%%#@===========================",
"=============================X#&X.%X&&X.=================....XX... ====@@===========================",
"=============================X##&&%%&&X.================.XX.X.&XXX.#===O@===========================",
"==============================#XXX%%%X.================.X&&X%X&&X$##=+==============================",
"================================.XXXX.. ===============.X&&%%%X&X$X@++==============================",
"================================.X@..XX.  ==  ========= .X%%%%XXX$@@O#==============================",
"==============================o=.@@@XXX. .  .. ======.. .X%%%%X&X$..###=============================",
"==============================oO.@@.@X. XX..%X. ====.X%. %%X.$&&X.XX.===============================",
"==============================oOOO..@@.XXX.%%%. ===.X%%%%%%.$$$XXX.Xo.==============================",
"==============================oo=OO..@.XX..%%%%.. =.%%%%X%%.=$$@@X.oo.==============================",
"==================================.X@@@..=.@..XXX. O%%%&X$$X.= ..@....==============================",
"==================================.XX.*====@@. ..$ O%%%XX.$X.===@@.==================*==============",
"==================================...***====  .X$$$$.XX.+....=======================***=============",
"=====================================****==== .X$$$$$XX+@.=========================*****============",
"=====================================***====== .X.$$$.X@@===========================*****===========",
"=====================================**========...++==..@==============================***==========",
"====================================***==+O===oo.====oo=================================***=========",
"===================================***===++O==oo=========================================**=========",
"===================================**====+==============o===========================================",
"========================================================oo==========================================",
"====================================================================================================",
"====================================================================================================",
"====================================================================================================",
"====================================================================================================",
"====================================================================================================",
"====================================================================================================",
"====================================================================================================",
"====================================================================================================",
"====================================================================================================",
"====================================================================================================",
"====================================================================================================",
"====================================================================================================",
"====================================================================================================",
"====================================================================================================",
"====================================================================================================",
"====================================================================================================",
"====================================================================================================",
"====================================================================================================",
"====================================================================================================",
"===================================================================================================="
};
