/* XPM */
static char *_573775755326[] = {
/* columns rows colors chars-per-pixel */
"100 100 13 1 ",
"  c #D42A41",
". c #FC5842",
"X c #FCD64B",
"o c #CBADE0",
"O c #CEB1E2",
"+ c #D1B6E3",
"@ c #D4BAE5",
"# c #D7BFE7",
"$ c #DAC4E8",
"% c #DDC8EA",
"& c #E7F3F3",
"* c white",
"= c None",
/* pixels */
"====================================================================================================",
"====================================================================================================",
"====================================================================================================",
"====================================================================================================",
"====================================================================================================",
"====================================================================================================",
"====================================================================================================",
"====================================================================================================",
"====================================================================================================",
"============================================*=======================================================",
"===========================================***======================================================",
"===========================================***======================================================",
"============================================*=======================================================",
"====================================================================================================",
"====================================================================================================",
"====================================================================================================",
"====================================================================================================",
"====================================================================================================",
"====================================================================================================",
"==================================================OO================================================",
"========================================...=======OO================================================",
"========================================.XX ========================================================",
"========================================.XX. ..=======...===========================================",
"=====================================oo== . .XX =.== .XX.===========================================",
"======================================o==OO=.%%.... .XXX.===========================================",
"=======================================...===%. .X. %%X.======$=====================================",
"=================================...===.... == .X.X.%%...%%%X$$.====================================",
"=================================.XX. =..XX. =@@.... .$X.%%&XX$$....================================",
"================================...XX. =.XXX. @ .X. .$$.X&%&X.X$.X.++..=============================",
"================================.... X = XXXX  ...X .X$.X&&X.XXX.X..+X.=============================",
"=============================....$$. ..==X&&X. .X. . .. .XX..XX.X...XX.=============================",
"=============================.XX.$XX. X. X&&&X.XXX. .  X...= .. .XX.++======**======================",
"=============================.XX....X XX. X&&&.XXX. .XX.=====  XXXX..+=====***======================",
"===========================oo= ..XX.  XXX .X&. ... = .. =====.X&&X...==o====*=======================",
"===========================o=== .XXX.  X ==..========  =====.X&&&X X.###OO==========================",
"==========================++===...XXX   ====================.X&&X X...#=O===========================",
"=========================.+.....XXXX  =======================.XX. .....=============================",
"=========================.XX....%%&X.=========================..  .XXXX=...=========================",
"=========================.XXX.XX%XXXX.========================== ..X&&X.XX.=========================",
"========================@@.X%XXX X&&X.========================== .X&&&XXXX...=======================",
"======================O+@. X%%X.XX&&&X.==========================.X&&X&&X..X.=======================",
"=======================+...X%&&X. X&&&.===========================.XX.&&X +X.=======================",
"=======================..XX$X&&&.=.X&.============================ ..&&X  +.========================",
"==========**=======++==..#X$.X&.===..============================== .XX. .....======================",
"=========****=======+==.$$#XX..====================================.X..X. .XX.======================",
"==========**==========@@$#.%%  ===================================.X&&&XX$$XX.======================",
"======================O##o % .. ==================================.X&&XXX$$..=======================",
"======================O## =..X..===================================.XX.XX... .======================",
"==========================..X.XX.===================================.. .. ..XX.=====================",
"======================oo===.XX&&X====================================    ...X.======================",
"======================%%===XX&&..===================================== .. X .=======================",
"======================%%==$$XX.XX.====================================.  . .========================",
"=========================$$$XXX&&X==================================== .. ..========================",
"======================oo $$#XX&&&X=================================== .XX.X.=$#=====================",
"======================oo.XX .XX&&X=================================== .XXX..$$#=====================",
"=======================.XXX.XX.XX.================================== . .XX...$======================",
"=======================.XX.XXX... ===============================   .XX......=======================",
"=======================#...XX. ..   ============================ .. .XXX.X.X.=======================",
"=======================##=.....XX. . ========================== .XX. .%X...#.o======================",
"=========================#.X..XXX. X. ========================= .XXX.%%.%=##.=======================",
"=========================##...XX. ... ========================== .XX.##%%#==========================",
"===========================.......XX.=========================..= ...===%#==========================",
"===========================.#X. .X&&X.======================..XX... ====@@@=========================",
"===========================.##.XX%&&X.=====================..X.&XXX.#=====O=========================",
"============================#=..%%%X. ====================.XX.X&&X$##=+=============================",
"===============================.%%X.  ===================.X&&X&X&X$$@++=============================",
"===============================.... .. ====  ============.X&&&%XXX$@@OO#============================",
"==============================o..@X.XX.  = .. ========== ..X&%%XX$$. =##============================",
"=============================oOO@@@@XX. . .XX. ======..= .XXXXXXX..XX.==============================",
"=============================oO.O..@@. XX.XXX. =====.XX.  .%X.$...X.oo==============================",
"=============================oo=OO..@.XXX.@%. =====.X&&%. %%.$$$@@X.oo==============================",
"================================....@@XX..@%% ... =.X&%%X.X%.=$$+...================================",
"==================================..@...==@@ .XXX. O.%%&X#$$X.====@=================================",
"==========================================@  . ...  .%%XX .$X.===@@=================================",
"============================================  .X$$. .XXX++....======================================",
"=====================================*======= .X$$.$$.XX@================================*==========",
"====================================***======= .X. $$=.@@===============================***=========",
"====================================**====O===o...++=oo==================================**=========",
"=========================================+OO==oo.===================================================",
"=========================================++=========================================================",
"========================================================oo==========================================",
"=========================================================o==========================================",
"====================================================================================================",
"====================================================================================================",
"====================================================================================================",
"====================================================================================================",
"====================================================================================================",
"====================================================================================================",
"====================================================================================================",
"====================================================================================================",
"====================================================================================================",
"====================================================================================================",
"====================================================================================================",
"====================================================================================================",
"====================================================================================================",
"====================================================================================================",
"====================================================================================================",
"====================================================================================================",
"====================================================================================================",
"===================================================================================================="
};
