/* XPM */
static char *_573775735221[] = {
/* columns rows colors chars-per-pixel */
"100 100 12 1 ",
"  c #FC5842",
". c #FCD64B",
"X c #DDC8EA",
"o c #DFCDEC",
"O c #E2D1EE",
"+ c #E5D6EF",
"@ c #E8DAF1",
"# c #EBDFF3",
"$ c #EEE3F4",
"% c #E7F3F3",
"& c white",
"* c None",
/* pixels */
"****************************************************************************************************",
"****************************************************************************************************",
"****************************************************************************************************",
"****************************************************************************************************",
"****************************************************************************************************",
"****************************************************************************************************",
"****************************************************************************************************",
"****************************************************************************************************",
"****************************************************************************************************",
"********************************************&*******************************************************",
"*******************************************&&&******************************************************",
"*******************************************&&&******************************************************",
"*******************************************&&&******************************************************",
"*******************************************&&&******************************************************",
"********************************************&&&*****************************************************",
"********************************************&&&*****************************************************",
"********************************************&&&*****************************************************",
"********************************************&&&*****************************************************",
"********************************************&&&*****************************************************",
"********************************************&&&*****************************************************",
"********************************************&&&*****************************************************",
"********************************************&&&&****************************************************",
"********************************************&&&&&***************************************************",
"********************************************&&&&&***************************************************",
"*********************************************&&&****************************************************",
"*****************************************...*&&&**oo************************************************",
"*****************************************.%%&&&&&*oo************************************************",
"***************************************XX.%%&&&&&.**************************************************",
"***************************************XXX.o%&&&...**...********************************************",
"****************************************X* oo % .%. .%%.********************************************",
"*******************************************o . .%. .%%%.ooo****...**********************************",
"*************************************...*****  .....+++**o......%.**********&&**********************",
"********************************...**.%%. ***$$$+%@$@@@* .###%%OOO.*******&&&&**********************",
"********************************.%%....%%....$$$$$$$$##$$$###.OOOO.*****&&&&&***********************",
"********************************.%%%.%%. %..%%$$$$$$$$$$$$###..OOO.***&&&&&*************************",
"******************************XX*.%%.##%. ..%%%$.$$$$$$$$$##....OOO&&&&&&&&*************************",
"******************************XXX .%.### . .... .%$$$.$$$.#..%%.OO&&&&&&&&**************************",
"*******************************X**  .#### . .%%. %%  .%$...  %%..&&&&&&&****************************",
"******************************OOOO***.##%. ..%%%. %.  ..  ...%.@&&&&&&******************************",
"******************************OOO...*.#%%%.  .%%% .      .%%...&&&&&********************************",
"******************************.O%....$$$.%% * .% ****** .%%%....&&&...X*****************************",
"***************************oOO++%###%$$$$. ***  ******* .%%......&%.%...****************************",
"***************************oOO+++#$$$$$$$$. ************ .. .%%..%%.%.%.****************************",
"**********&&&&*************.OO++.#$$$$$$$%. *************  .%%%..%.OOO%.****************************",
"*********&&&&&&&&&&&&&&&*O&&.O+###$$$$$$ %%. ************* .%%.%.. OOO..****************************",
"**********&&&&&&&&&&&&&&&&&&&..##$$$$$%% %%% ************** .. ..## O%%.****************************",
"**************&&&&&&&&&&&&&&&+@##$$$$.%  .% ****************  . .###%%%. ***************************",
"*********************&&&&&&&&+@@#$$$$$  *  **************** .  %.####%.%..**************************",
"**********************&&**&&*+@@$$$$$    ****************** .%%.####.. %%..*************************",
"***************************XX**$$$$$. .. ******************* ..  ##.. %%..**************************",
"***************************XX*$$$$$...%%.********************  .. ..#.@. ***************************",
"*******************************$$$$..%%%.******************** .%%. ###@@****************************",
"**************************XX***#$$##..%%.******************** .%%%#####@****************************",
"**************************XX**O####%% .. *******************  $.%%.####@****************************",
"*****************************O.@%.%%%.    ***************** .$$$$..%###.****************************",
"*****************************O@@@.%%. %.   *************** .$$$$$%@@@.%..***************************",
"*****************************O@@@...%%% ..  ************    %$$$$$@@@o%.X***************************",
"*****************************.%@@@@.%%.$%%. ***********  .   %$$$$@@@o..X***************************",
"*****************************.%@@@@...$$$%. ********** ..$...#..$$@@+*******************************",
"*****************************...*.@@@$$$$$ ********** .%$$$..##@@*+++o******************************",
"**********************************@@.$$$$ **********  .$$$$$.###@@O++oo*****************************",
"***********************************.%$$$. *** $**** .$ $$$$$.###@@@*********************************",
"**********************************O.++++%.   $$$** $$$$$$$$$####@@@*********************************",
"**********************************O.+++++.&.$$$$$*$$$$$$$$##.###@@@o*****&**************************",
"*********************************oOO+++++&&&$$$$ *$$$$$$$$###++.%.******&&&*************************",
"********************************Xoo.o.++&&&&$$$ ###$$$$$$$###++%.X.****&&&&&*&**********************",
"********************************XXXooo.+&&&&++ #####$@@###.O+++%.XX*****&&&&&&&*********************",
"********************************XX*....&&&&&+++####### .##.*+++....******&&&&&&&********************",
"************************************.%%&&&&*  .%%#####+O...**++..***********&&&&&*******************",
"************************************...&&&&**  .%.###+++.********************&&&&*&*****************",
"**************************************&&&&****....O#++++**********************&&&&&&****************",
"**************************************&&&&*O***..OOO*...************************&&&&*&**************",
"*************************************&&&&*OOO*XX****XX***************************&&&&&&*************",
"*************************************&&&&*OOOOXX*****X*****************************&&&&&************",
"*************************************&&&***************X****************************&&&&&***********",
"*************************************&&***************XXX******************************&&&**********",
"************************************&&&****************XX*******************************&&&*********",
"************************************&&***************************************************&&*********",
"****************************************************************************************************",
"****************************************************************************************************",
"****************************************************************************************************",
"****************************************************************************************************",
"****************************************************************************************************",
"****************************************************************************************************",
"****************************************************************************************************",
"****************************************************************************************************",
"****************************************************************************************************",
"****************************************************************************************************",
"****************************************************************************************************",
"****************************************************************************************************",
"****************************************************************************************************",
"****************************************************************************************************",
"****************************************************************************************************",
"****************************************************************************************************",
"****************************************************************************************************",
"****************************************************************************************************",
"****************************************************************************************************",
"****************************************************************************************************",
"****************************************************************************************************",
"****************************************************************************************************"
};
