/* XPM */
static char *_573774548664[] = {
/* columns rows colors chars-per-pixel */
"100 100 12 1 ",
"  c #FC5842",
". c #FCD64B",
"X c #E2D1EE",
"o c #E5D6EF",
"O c #E8DAF1",
"+ c #EBDFF3",
"@ c #EEE3F4",
"# c #F0E8F6",
"$ c #F3ECF8",
"% c #E7F3F3",
"& c white",
"* c None",
/* pixels */
"****************************************************************************************************",
"****************************************************************************************************",
"****************************************************************************************************",
"****************************************************************************************************",
"****************************************************************************************************",
"****************************************************************************************************",
"****************************************************************************************************",
"****************************************************************************************************",
"****************************************************************************************************",
"****************************************************************************************************",
"****************************************************************************************************",
"****************************************************************************************************",
"****************************************************************************************************",
"*********************************************&******************************************************",
"********************************************&&&*****************************************************",
"********************************************&&&*****************************************************",
"********************************************&&&*****************************************************",
"********************************************&&&*****************************************************",
"********************************************&&&*****************************************************",
"********************************************&&&*****************************************************",
"********************************************&&&*****************************************************",
"********************************************&&&&****************************************************",
"********************************************&&&&&***************************************************",
"********************************************&&&&&***************************************************",
"*********************************************&&&****************************************************",
"*********************************************&&&****************************************************",
"********************************************&&&&&***************************************************",
"******************************************..&&&&&***************************************************",
"******************************************.%%&&&&*oo************************************************",
"****************************************XXX%%&&&&&oo************************************************",
"****************************************XXXX%&&&&&oo************************************************",
"****************************************XXXooo&&&..**...********************************************",
"*****************************************X*oo&&&&&. .%%.oo****...***********************************",
"********************************************&&&&&&&.%+++oo**...%.*******&&&*************************",
"**********************************...*....**&&&&&&&@@@@+o...%OOO.*****&&&&&*************************",
"**********************************.%%...%....$$$&&@$@...###.OOOO.**&&&&&&&&*************************",
"********************************XXX%%.%%. ...$$$$$$$$#$$$##.oOOO.*&&&&&&&&**************************",
"********************************XXXX%.%.....%$$$$$$$$$$$$##...OOO&&&&&&&****************************",
"********************************XXX .%.###....$$$$$$$$$$$##.%.O&&&&&&&******************************",
"*********************************OOO   #### .%$$$$$$$$$$.#.%%&&&&&&&********************************",
"*********************************OOOO..#####.%%$$$$$$$$$...&&&&&&&&o********************************",
"********************************++OO. .$$$.%..%%%. .%$$ %%&&&&&&&&.XX*******************************",
"*****************************ooO+++%%$$$$$$$  .%%.  .. %%%&&&&&&.%...*******************************",
"*****************************ooO++++#$$$$$$$$  .. **  %% .%&&&&%.OOO.*******************************",
"**************&&&&&&&&&&**&&*ooOO&&.#$$$$$$$$.   *** .% .%%%&&%.OOOO.*******************************",
"*************&&&&&&&&&&&&&&&&&&+&&&&$$$$$$$$.  ******  .%%%.%.#..OOO.*******************************",
"**************&&&&&&&&&&&&&&&&&&&&&&$$$$$$$. . *&&&&** .%%. ..## .O%.*******************************",
"*********************&&&&&&&&&&&&&&&$$$$$$%. . &&&&&&** .. . .###%%%. ******************************",
"**********************&&**&&&&&&&&&&$$$$$$. . &&&&&&&&*   . .###..%.%..*****************************",
"*****************************&&X&&&$$$$$$  . *&&&&&&&&* .  . ##.%.. %%..****************************",
"*****************************XXX*&$$$$$$.%%%.*&&&&&&&&** .. ..  #.@%%..*****************************",
"**********************************@$$$$$%%%%.*&&&&&&&&***  $$%.###@@. ******************************",
"*****************************XXX**@#$$$$.%%%.**&&&&&&*** .$$$$#####@@*******************************",
"*****************************XXXO@@##$$% ..  ***&&&&**   $$$$$%%###@@*******************************",
"********************************@@@@.%%%.$$.. *******  . $$$$$$%.@@@@.X*****************************",
"********************************@@@@.%%.$$$$%. ***** ..$$ $$$$$..@@o.XX*****************************",
"*******************************.@@@@...%$$$$$. ****  %$$$$.$$$$@@@@o.XX*****************************",
"*******************************.%@@@@..$$$$$$ $$** .$$$$$$..#$$@@@@o.*******************************",
"*******************************...*@@@@$$$$$&$$$$$$$$$$$$$$.#@@@@@&&********************************",
"***********************************@@@.$$$.&&$$$$$$$$$$$$$$.#@@@O&&&&*******************************",
"************************************O.+++%%&$$$$$$$$$$$$$$$##@@@&&&&&*******************************",
"**********************************XoO+++++&&$$$$$$$$$$$$$##..+@@&&&&&&&*****************************",
"**********************************XoO+++++&&$$$###$$$$$$$##.+. oo&&&&&&&****************************",
"**********************************Xoo++++&&&&&+####$#@###@@@++.XX.*&&&&&&&**************************",
"**********************************Xoooo++&&&&+++#####@@@%.++++.XX.***&&&&&&*************************",
"**********************************XXX..+&&&&&++%%#. +++...*+++.XX.****&&&&&&*&**********************",
"*************************************.%%&&&&++ .%. +++++.***++..********&&&&&&&*********************",
"*************************************..&&&&&**....OO++++.****************&&&&&&&********************",
"***************************************&&&&*O**..OOO.+++********************&&&&&*******************",
"***************************************&&&&OOOXX.*OXX...*********************&&&&*&*****************",
"**************************************&&&&*OOOOXX*XXXX************************&&&&&&****************",
"**************************************&&&&**ooXXX**XXX*X************************&&&&*&**************",
"*************************************&&&&*************XX*************************&&&&&&*************",
"*************************************&&&&************XXX***************************&&&&*************",
"*************************************&&&********************************************&&&*************",
"****************************************************************************************************",
"****************************************************************************************************",
"****************************************************************************************************",
"****************************************************************************************************",
"****************************************************************************************************",
"****************************************************************************************************",
"****************************************************************************************************",
"****************************************************************************************************",
"****************************************************************************************************",
"****************************************************************************************************",
"****************************************************************************************************",
"****************************************************************************************************",
"****************************************************************************************************",
"****************************************************************************************************",
"****************************************************************************************************",
"****************************************************************************************************",
"****************************************************************************************************",
"****************************************************************************************************",
"****************************************************************************************************",
"****************************************************************************************************",
"****************************************************************************************************",
"****************************************************************************************************",
"****************************************************************************************************",
"****************************************************************************************************",
"****************************************************************************************************"
};
