/* XPM */
static char *_573775744067[] = {
/* columns rows colors chars-per-pixel */
"100 100 13 1 ",
"  c #D42A41",
". c #FC5842",
"X c #FCD64B",
"o c #D7BFE7",
"O c #DAC4E8",
"+ c #DDC8EA",
"@ c #DFCDEC",
"# c #E2D1EE",
"$ c #E5D6EF",
"% c #E8DAF1",
"& c #E7F3F3",
"* c white",
"= c None",
/* pixels */
"====================================================================================================",
"====================================================================================================",
"====================================================================================================",
"====================================================================================================",
"====================================================================================================",
"====================================================================================================",
"====================================================================================================",
"============================================*=======================================================",
"===========================================***======================================================",
"===========================================***======================================================",
"===========================================***======================================================",
"===========================================***======================================================",
"===========================================***======================================================",
"===========================================***======================================================",
"============================================***=====================================================",
"============================================***=====================================================",
"============================================***=====================================================",
"============================================***=====================================================",
"============================================***=====================================================",
"============================================***=====================================================",
"============================================***=====================================================",
"============================================***=====================================================",
"============================================***=====================================================",
"========================================...=======OO================================================",
"========================================.XX. =====OO================================================",
"========================================.XXX. .=====================================================",
"=======================================oo.XXX X. .====XXX===========================================",
"=======================================o= OO XXX.X.=.X&&X===========================================",
"==========================================O =.X XXX.X&&&X=OO========================================",
"===================================XXX======= %%X&X#%#@@=OOO====...=================================",
"===================================X&&X.=XXX==%%%X#%%%XX=$$$$X...X...========**=====================",
"===============================...XXX&&X.XXXX.%%XXX%%%%%%%X$$$XX.++X.=======***=====================",
"===============================.XXX&&X.&.XX&&X%.X&.%%%%%%%X$$$XX.X+X.=====****======================",
"===============================.XXXX$$X.. XXXX.XXX.X$.X%%%X&$&XXXXX+====*****=======================",
"=============================oo=.XX&$$$XX..X&&X.&X..X.X&%XX&&X&&XO++==*****=========================",
"=============================o== .X&$$X.&X.X&&&X.&X....XX..XX.&&XXX+*******=========================",
"=================================  X$&&X.&X.X&&&.&X.XX...==.XXXX&&#*******==========================",
"=============================++XXX=.X&&&X.&..X&.XX.=..====.X&&X.X###****============================",
"============================X+XX&&XXXXX&&..==..==========.X&&&XXXX###*==============================",
"============================X&&XXXX%%%&X..===============.X&&XXXXXX#XXXX============================",
"===========================@@&&&X&&%%%%&X.================.XX.X&&XX&&X&X..==========================",
"=========================O+@@@&$%%%%%%XX&.=================..X&&&XXX&X&XX.==========================",
"=========================O+X@XX$%%%%%X&&X.==================.X&&X&&XX+++X.==========================",
"========******===========..XX&&$%%%&X.&&&X.==================.XX.&&X.X+X.===========================",
"=======****************++...X##$$%&&&.X&&&.===================..&&XXX.XXXX==========================",
"========***************+=o@@.$$$&.X&.=.X&.=====================.XX.X$$X&&X==========================",
"==============*********==O@##$$%%%..===..=====================.X..&X$$$&&X =========================",
"=========================OO##$.%%%%..=========================.X&&X$$$X&XX..========================",
"===========================###X%%%.XX.=========================.XX.&XXXX.XX..=======================",
"=========================oo===+X%XX&..==========================..XX.XX.XX..========================",
"=========================oo=%%%$XX&.XX.===========================..X.. .. =========================",
"============================%%%$$XXX&&X==========================.XX.X.X$#==========================",
"=========================oo=.$$$$XX&&&X=========================.X&&X.X$$##=========================",
"========================ooooX$$$.XXX&&X=========================.X&&&X$$$##=========================",
"=========================ooX&&&XX&&.XX.=======================....X&&XX$$##=========================",
"===========================X#&XX&&&X....=====================.XX.%&XXX#X.X.=========================",
"===========================###.X&&X.&X.X.===================.X&&%%%%X###X.o=========================",
"===========================####XXX&&&X..X.==================.X&%%%%%%###X.o=========================",
"===========================.X###&X&&X.XX..=================...X&&%%%%###..==========================",
"===========================.X##X#XXXX%&&X.==============...XX.XXXX####@=============================",
"===========================...=###X.%%%&X.=============.XX..&X&$X#===@@O============================",
"===============================####X%%%%.=============.X&&X%&&X$$#X===@O============================",
"===============================###XX%%%.==============.X&&%%%&X$$#X#+===============================",
"==================================XXXXXX.===..======..=.X%%%%XX$$@###===============================",
"=================================+X@&X&&X...X%.====.XX%.X%%%%&$$$####===============================",
"===============================oO+X@@@&&X.XX%%%.==.X&%%.%%.$$$XX..###===============================",
"===============================oOOOXX@@X.&X&%%%%==.X%%%%%%$$$$X@X.Xo================================",
"===============================oO.OOX@@X*&X@%%%XXX..%%%X%%X$$$@@X.oo.==========*====================",
"===============================oo=O..@@***X@@.X&$$$.%%XX$$&X=++@..Xo.=========***===================",
"===================================.X@@****@@@.X$$$$$.##$$&X==@@@....========****=*=================",
"===================================...****=@@.X&$$$$$X.+XXXX===@@=============******================",
"======================================****===.X&&$$$$X+@+.======================****=*==============",
"=====================================****=====.X&X.$.X@@@========================******=============",
"=====================================****======XXX++=..@@==========================*****============",
"=====================================***==+O==ooX=+=oo==============================*****===========",
"=====================================**===++O=oo=======================================***==========",
"====================================***===+=============o===============================****========",
"===================================***=================oo================================****=======",
"===================================**===================o==================================**=======",
"====================================================================================================",
"====================================================================================================",
"====================================================================================================",
"====================================================================================================",
"====================================================================================================",
"====================================================================================================",
"====================================================================================================",
"====================================================================================================",
"====================================================================================================",
"====================================================================================================",
"====================================================================================================",
"====================================================================================================",
"====================================================================================================",
"====================================================================================================",
"====================================================================================================",
"====================================================================================================",
"====================================================================================================",
"====================================================================================================",
"====================================================================================================",
"====================================================================================================",
"===================================================================================================="
};
