/* XPM */
static char *tiro_8[] = {
/* columns rows colors chars-per-pixel */
"67 42 2 1 ",
"  c #FFF600",
". c None",
/* pixels */
"...................................................................",
"...................................................................",
"...................................................................",
".............................     .................................",
".............................     .................................",
".............................     .................................",
".............................     .................................",
".............................     .................................",
".............................     .................................",
".............................     .................................",
".............................     .................................",
".............................     .................................",
".............................     .................................",
".............................     .................................",
".............................     .................................",
".............................     .................................",
".............................     .................................",
".............................     .................................",
".............................     .................................",
".............................     .................................",
".............................     .................................",
".............................     .................................",
".............................     .................................",
".............................     .................................",
".............................     .................................",
"..............................    .................................",
"..............................    .................................",
"..............................    .................................",
"..............................    .................................",
"..............................    .................................",
"..............................    .................................",
"..............................    .................................",
"..............................     ................................",
"..............................     ................................",
"..............................     ................................",
"..............................     ................................",
"..............................     ................................",
"..............................     ................................",
"...................................................................",
"...................................................................",
"...................................................................",
"..................................................................."
};
