/* XPM */
static char * tiro10_xpm[] = {
"35 37 237 2",
"  	c None",
". 	c #FB5E62",
"+ 	c #F95F59",
"@ 	c #F7887C",
"# 	c #FA6646",
"$ 	c #F88283",
"% 	c #5E5E5E",
"& 	c #0D0D0D",
"* 	c #F9807D",
"= 	c #F85951",
"- 	c #F2767F",
"; 	c #F74343",
"> 	c #F76E0E",
", 	c #FDE012",
"' 	c #FA9459",
") 	c #F6AEAC",
"! 	c #6F6F6F",
"~ 	c #323333",
"{ 	c #1E1E1E",
"] 	c #F87F7D",
"^ 	c #F98D38",
"/ 	c #F7982D",
"( 	c #F66D0E",
"_ 	c #FDEC02",
": 	c #FDC708",
"< 	c #FA753C",
"[ 	c #5A5B5B",
"} 	c #2B2B2B",
"| 	c #371312",
"1 	c #0C1B1A",
"2 	c #F7635A",
"3 	c #F68831",
"4 	c #F7BA0B",
"5 	c #FCF404",
"6 	c #FCC008",
"7 	c #FB6C25",
"8 	c #FA4644",
"9 	c #545252",
"0 	c #8B0104",
"a 	c #A40002",
"b 	c #6E4E4D",
"c 	c #F76866",
"d 	c #F88612",
"e 	c #FDF401",
"f 	c #FBDF02",
"g 	c #F9AD15",
"h 	c #F82A4B",
"i 	c #7F5556",
"j 	c #CD0209",
"k 	c #BC2424",
"l 	c #8B7170",
"m 	c #DA9B8A",
"n 	c #D2CD1C",
"o 	c #FBC30D",
"p 	c #F8A219",
"q 	c #F6A919",
"r 	c #F7835C",
"s 	c #291616",
"t 	c #5C070A",
"u 	c #630308",
"v 	c #2F3B4B",
"w 	c #4A5F7B",
"x 	c #35404F",
"y 	c #4A4949",
"z 	c #393924",
"A 	c #B69B70",
"B 	c #F27D5E",
"C 	c #FA5747",
"D 	c #F8876F",
"E 	c #F8645D",
"F 	c #F66765",
"G 	c #424242",
"H 	c #140F14",
"I 	c #012642",
"J 	c #015B94",
"K 	c #1268A6",
"L 	c #063F63",
"M 	c #02060D",
"N 	c #4D4D4E",
"O 	c #F99193",
"P 	c #4A4A4A",
"Q 	c #353537",
"R 	c #022745",
"S 	c #055B96",
"T 	c #056DAE",
"U 	c #0466A5",
"V 	c #02162A",
"W 	c #012F51",
"X 	c #293546",
"Y 	c #4F4E4C",
"Z 	c #303032",
"` 	c #012A49",
" .	c #035F97",
"..	c #046DAE",
"+.	c #0569A0",
"@.	c #011725",
"#.	c #015388",
"$.	c #0C629D",
"%.	c #3A5575",
"&.	c #494949",
"*.	c #2E2E30",
"=.	c #012B4C",
"-.	c #03609B",
";.	c #026BB1",
">.	c #0489CD",
",.	c #058FC1",
"'.	c #01578C",
").	c #0168A8",
"!.	c #016CAD",
"~.	c #364B6B",
"{.	c #8E8789",
"].	c #7B6F6D",
"^.	c #222929",
"/.	c #2D2D2F",
"(.	c #012D50",
"_.	c #055F9C",
":.	c #026CB2",
"<.	c #018DD2",
"[.	c #03BEFF",
"}.	c #0395D7",
"|.	c #0273B5",
"1.	c #0269A8",
"2.	c #043C62",
"3.	c #471024",
"4.	c #9B4040",
"5.	c #912A2A",
"6.	c #391314",
"7.	c #222323",
"8.	c #013053",
"9.	c #05609D",
"0.	c #036CB2",
"a.	c #0290D4",
"b.	c #03BDFE",
"c.	c #0298DA",
"d.	c #017BBE",
"e.	c #0266A5",
"f.	c #02385E",
"g.	c #131929",
"h.	c #510405",
"i.	c #D20209",
"j.	c #9F0105",
"k.	c #2A1818",
"l.	c #1F2020",
"m.	c #1D1D1D",
"n.	c #2C2C2E",
"o.	c #013256",
"p.	c #04629F",
"q.	c #026CB3",
"r.	c #0191D5",
"s.	c #03BCFD",
"t.	c #0197DA",
"u.	c #027ABD",
"v.	c #0165A2",
"w.	c #003459",
"x.	c #2F343D",
"y.	c #343434",
"z.	c #3C0101",
"A.	c #9A7C7D",
"B.	c #6A5B5B",
"C.	c #434646",
"D.	c #626262",
"E.	c #3C3C3C",
"F.	c #2A2A2C",
"G.	c #013357",
"H.	c #0462A0",
"I.	c #026DB3",
"J.	c #0192D6",
"K.	c #03BBFC",
"L.	c #0296D9",
"M.	c #027ABE",
"N.	c #0364A1",
"O.	c #003356",
"P.	c #444545",
"Q.	c #757575",
"R.	c #2A2929",
"S.	c #011E37",
"T.	c #065890",
"U.	c #0294D7",
"V.	c #0295D7",
"W.	c #037ABD",
"X.	c #003154",
"Y.	c #30353E",
"Z.	c #434444",
"`.	c #252525",
" +	c #480203",
".+	c #3F0B14",
"++	c #024573",
"@+	c #0287C5",
"#+	c #03B8F9",
"$+	c #0293D6",
"%+	c #0279BC",
"&+	c #01629E",
"*+	c #002F51",
"=+	c #30363E",
"-+	c #8B4D4D",
";+	c #C60303",
">+	c #8E060B",
",+	c #48191F",
"'+	c #0179A6",
")+	c #0285C2",
"!+	c #0279BB",
"~+	c #02619D",
"{+	c #002C4D",
"]+	c #31363E",
"^+	c #5A6A6B",
"/+	c #D12122",
"(+	c #DF3A0B",
"_+	c #94350C",
":+	c #45161E",
"<+	c #01507D",
"[+	c #02588E",
"}+	c #00294A",
"|+	c #32373F",
"1+	c #67676A",
"2+	c #B2440C",
"3+	c #FA5D03",
"4+	c #DE2F0A",
"5+	c #8D0D09",
"6+	c #360813",
"7+	c #00162C",
"8+	c #33373D",
"9+	c #98645E",
"0+	c #D35124",
"a+	c #943405",
"b+	c #DA261B",
"c+	c #BB0002",
"d+	c #320000",
"e+	c #353535",
"f+	c #6A6A6A",
"g+	c #444444",
"h+	c #9F8682",
"i+	c #756664",
"j+	c #5B6464",
"k+	c #6A4E4F",
"l+	c #392C2C",
"m+	c #474747",
"n+	c #AFAFAF",
"                                                                      ",
"                                                                      ",
"                                                                      ",
"                                                                      ",
"                                                                      ",
"                                                                      ",
"                                                                      ",
"                                                  . + @ # $           ",
"                              % &           * = - ; > , ' )           ",
"                              ! ~ {         ] ^ / ( _ : <             ",
"                              [ } | 1       2 3 4 5 6 7 8             ",
"                              9 0 a b       c d e f g h               ",
"                              i j k l       m n o p q r               ",
"                              s t u v w x y z A B C D E F             ",
"                              G H I J K L M N         O               ",
"                            P Q R S T U V W X Y                       ",
"                          P Z `  ...+.@.#.$.%.                        ",
"                        &.*.=.-.;.>.,.'.).!.~.{.].^.                  ",
"                      &./.(._.:.<.[.}.|.1.2.3.4.5.6.7.                ",
"                    P /.8.9.0.a.b.c.d.e.f.g.h.i.j.k.l.m.              ",
"                  P n.o.p.q.r.s.t.u.v.w.x.y.z.A.B.C.D.E.              ",
"                P F.G.H.I.J.K.L.M.N.O.x.P.            Q.              ",
"              &.R.S.T.:.U.K.V.W.N.X.Y.Z.                              ",
"              `. +.+++@+#+$+%+&+*+=+Z.                                ",
"              -+;+>+,+'+)+!+~+{+]+Z.                                  ",
"              ^+/+(+_+:+<+[+}+|+Z.                                    ",
"              1+2+3+4+5+6+7+8+Z.                                      ",
"              9+0+a+b+c+d+e+Z.                                        ",
"            f+g+h+i+j+k+l+g+                                          ",
"            m+n+                                                      ",
"                                                                      ",
"                                                                      ",
"                                                                      ",
"                                                                      ",
"                                                                      ",
"                                                                      ",
"                                                                      "};
