/* XPM */
static char *tiro_11[] = {
/* columns rows colors chars-per-pixel */
"67 42 2 1 ",
"  c #FFF600",
". c None",
/* pixels */
"...................................................................",
"...................................................................",
"...................................................................",
"...................................................................",
"...................................................................",
"...................................................................",
"...................................................................",
"...................................................................",
"...................................................................",
"...................................................................",
"...................................................................",
".............................................  ....................",
"...........................................     ...................",
".........................................       ...................",
".......................................          ..................",
".....................................          ....................",
"..................................           ......................",
"................................           ........................",
"..............................           ..........................",
"............................           ............................",
"..........................           ..............................",
"........................           ................................",
"......................           ..................................",
"....................           ....................................",
"..................           ......................................",
"................           ........................................",
"...............          ..........................................",
"...............        ............................................",
"................     ..............................................",
"................   ................................................",
"...................................................................",
"...................................................................",
"...................................................................",
"...................................................................",
"...................................................................",
"...................................................................",
"...................................................................",
"...................................................................",
"...................................................................",
"...................................................................",
"...................................................................",
"..................................................................."
};
