/* XPM */
static char * tiro0_xpm[] = {
"35 37 195 2",
"  	c None",
". 	c #BABABA",
"+ 	c #000000",
"@ 	c #BDBDBD",
"# 	c #BFC0C0",
"$ 	c #747777",
"% 	c #8E706C",
"& 	c #CF4400",
"* 	c #747377",
"= 	c #777677",
"- 	c #2E4444",
"; 	c #772500",
"> 	c #FF6206",
", 	c #000400",
"' 	c #5A6B6C",
") 	c #2E2D2D",
"! 	c #440000",
"~ 	c #F60001",
"{ 	c #FF2A0F",
"] 	c #FE6300",
"^ 	c #FF0F14",
"/ 	c #E20000",
"( 	c #404040",
"_ 	c #444444",
": 	c #2C0000",
"< 	c #920006",
"[ 	c #9A1705",
"} 	c #9C3A06",
"| 	c #9A0509",
"1 	c #830708",
"2 	c #070000",
"3 	c #494949",
"4 	c #434444",
"5 	c #000C19",
"6 	c #00111F",
"7 	c #001A29",
"8 	c #00111E",
"9 	c #000C16",
"0 	c #4A4A4A",
"a 	c #00162D",
"b 	c #035F98",
"c 	c #0276B1",
"d 	c #03A6E1",
"e 	c #0263A3",
"f 	c #06568D",
"g 	c #000007",
"h 	c #001C37",
"i 	c #026CAD",
"j 	c #0185CB",
"k 	c #03BEFF",
"l 	c #0171BB",
"m 	c #0565A3",
"n 	c #00000D",
"o 	c #001D36",
"p 	c #026BAC",
"q 	c #0285C9",
"r 	c #0171BA",
"s 	c #0464A3",
"t 	c #00000F",
"u 	c #001C36",
"v 	c #016BAC",
"w 	c #0185C9",
"x 	c #0070BA",
"y 	c #0465A3",
"z 	c #046DAD",
"A 	c #0285CA",
"B 	c #0071BB",
"C 	c #0564A3",
"D 	c #036BAD",
"E 	c #0185CA",
"F 	c #036BAC",
"G 	c #0085CA",
"H 	c #0172BB",
"I 	c #001D35",
"J 	c #0284C9",
"K 	c #001C35",
"L 	c #026EBA",
"M 	c #0366A3",
"N 	c #036CAD",
"O 	c #0282C5",
"P 	c #07B5F5",
"Q 	c #046FB7",
"R 	c #0365A0",
"S 	c #505050",
"T 	c #0D0E0E",
"U 	c #052239",
"V 	c #026DAF",
"W 	c #0167A7",
"X 	c #021F0F",
"Y 	c #0678B8",
"Z 	c #0562A1",
"` 	c #030916",
" .	c #121313",
"..	c #151717",
"+.	c #AAA7A8",
"@.	c #8A0000",
"#.	c #3F0405",
"$.	c #042138",
"%.	c #026FB0",
"&.	c #0163A2",
"*.	c #0674B9",
"=.	c #03639F",
"-.	c #000A15",
";.	c #530308",
">.	c #8C0000",
",.	c #4B4F4F",
"'.	c #4E0000",
").	c #FF0410",
"!.	c #770000",
"~.	c #001130",
"{.	c #0070B5",
"].	c #0167A5",
"^.	c #020000",
"/.	c #0376BE",
"(.	c #0063A2",
"_.	c #A00000",
":.	c #FF0411",
"<.	c #130000",
"[.	c #5E5F5F",
"}.	c #797979",
"|.	c #747474",
"1.	c #2D2F2F",
"2.	c #2A0202",
"3.	c #920000",
"4.	c #948B8A",
"5.	c #878489",
"6.	c #355272",
"7.	c #013960",
"8.	c #084469",
"9.	c #415875",
"0.	c #888A8C",
"a.	c #8F6F6D",
"b.	c #940000",
"c.	c #050300",
"d.	c #3E3F3F",
"e.	c #777777",
"f.	c #878787",
"g.	c #252525",
"h.	c #0B0B0B",
"i.	c #191919",
"j.	c #191B1B",
"k.	c #001314",
"l.	c #4F4E4C",
"m.	c #000103",
"n.	c #0F0500",
"o.	c #514F4C",
"p.	c #001514",
"q.	c #1C1C1C",
"r.	c #171717",
"s.	c #555555",
"t.	c #BBBBBB",
"u.	c #DCA18E",
"v.	c #949D00",
"w.	c #F69799",
"x.	c #FB3A4C",
"y.	c #FB7617",
"z.	c #FAFF00",
"A.	c #F73617",
"B.	c #F74F58",
"C.	c #F99193",
"D.	c #F88280",
"E.	c #F7912D",
"F.	c #F8AE04",
"G.	c #FFFF00",
"H.	c #F68D08",
"I.	c #F68F3F",
"J.	c #F87E7F",
"K.	c #F9A9A7",
"L.	c #F66664",
"M.	c #F93501",
"N.	c #F6B400",
"O.	c #F9CD01",
"P.	c #FDFF02",
"Q.	c #F5B90F",
"R.	c #FBA100",
"S.	c #F82F26",
"T.	c #FA7E79",
"U.	c #F8234C",
"V.	c #FB6A0E",
"W.	c #FCFF00",
"X.	c #F52010",
"Y.	c #F2606E",
"Z.	c #FB4046",
"`.	c #FC7B0A",
" +	c #F63809",
".+	c #FB434D",
"++	c #F84346",
"@+	c #FB790F",
"#+	c #FFFF04",
"$+	c #F63B15",
"%+	c #FB6B6A",
"&+	c #F89E93",
"*+	c #FA7200",
"=+	c #F4BEC1",
"-+	c #FB403B",
"                                                                      ",
"                                                                      ",
"                                . +                                   ",
"                                @ +                                   ",
"                                # +                                   ",
"                              $ % & * =                               ",
"                              - ; > , '                               ",
"                          ) ! ~ { ] ^ / + (                           ",
"                          _ : < [ } | 1 2 3                           ",
"                          4 + 5 6 7 8 9 + 0                           ",
"                          4 a b c d e f g 0                           ",
"                          4 h i j k l m n 0                           ",
"                          4 o p q k r s t 0                           ",
"                          4 u v w k x y n 0                           ",
"                          4 o z A k B C n 3                           ",
"                          4 o D E k l C n 3                           ",
"                          4 o F G k H C n 3                           ",
"                          4 I p J k x y n 0                           ",
"                          4 K v w k L M n 0                           ",
"                          _ o N O P Q R t S                           ",
"                        + T U V W X Y Z `  ...                        ",
"                      +.@.#.$.%.&.+ *.=.-.;.>.                        ",
"                    ,.'.).!.~.{.].^./.(.+ _.:.<.[.                    ",
"                }.|.1.2.3.4.5.6.7.^.8.9.0.a.b.c.d.e.f.                ",
"                g.h.i.j.k.    l.+ m.n.o.    p.q.r.+ s.                ",
"                                t.+                                   ",
"                                u.v.w.                                ",
"                              x.y.z.A.B.                              ",
"                          C.D.E.F.G.H.I.J.K.                          ",
"                          L.M.N.O.P.Q.R.S.T.                          ",
"                              U.V.W.X.Y.                              ",
"                              Z.`.G. +.+                              ",
"                              ++@+#+$+%+                              ",
"                                &+*+                                  ",
"                                =+-+                                  ",
"                                                                      ",
"                                                                      "};
