/* XPM */
static char * nave2_14_xpm[] = {
"54 50 599 2",
"  	c None",
". 	c #3A21BE",
"+ 	c #7F0A62",
"@ 	c #83131A",
"# 	c #562A6D",
"$ 	c #25308A",
"% 	c #65265F",
"& 	c #8A000F",
"* 	c #882500",
"= 	c #5F3A6C",
"- 	c #2E3189",
"; 	c #2A328A",
"> 	c #3A3082",
", 	c #6C1C57",
"' 	c #874900",
") 	c #5A36BF",
"! 	c #2D2AC2",
"~ 	c #2D2F8F",
"{ 	c #323186",
"] 	c #1F3488",
"^ 	c #493886",
"/ 	c #1515EF",
"( 	c #0000FF",
"_ 	c #1C1ED9",
": 	c #31308D",
"< 	c #343474",
"[ 	c #2F318A",
"} 	c #2327BB",
"| 	c #0910F3",
"1 	c #171BE1",
"2 	c #2C2DA2",
"3 	c #323286",
"4 	c #34346B",
"5 	c #2F2F97",
"6 	c #1819E3",
"7 	c #1618E6",
"8 	c #2D2E9F",
"9 	c #353565",
"0 	c #313287",
"a 	c #2C2DA3",
"b 	c #171AE2",
"c 	c #030CF8",
"d 	c #313187",
"e 	c #2426C2",
"f 	c #0B11F1",
"g 	c #2123CA",
"h 	c #343470",
"i 	c #313184",
"j 	c #34356F",
"k 	c #313188",
"l 	c #1E21D3",
"m 	c #1A1DDD",
"n 	c #30308F",
"o 	c #0911F4",
"p 	c #0005FD",
"q 	c #0D13F3",
"r 	c #2A2AAE",
"s 	c #323282",
"t 	c #323281",
"u 	c #313288",
"v 	c #33347A",
"w 	c #312489",
"x 	c #312F8A",
"y 	c #333378",
"z 	c #312E86",
"A 	c #30318E",
"B 	c #32327E",
"C 	c #2B2CA7",
"D 	c #191AE1",
"E 	c #0001FF",
"F 	c #0C13FA",
"G 	c #1D20E4",
"H 	c #33297B",
"I 	c #322E84",
"J 	c #2A4CBF",
"K 	c #2E2B9E",
"L 	c #302E92",
"M 	c #221DD8",
"N 	c #2D64AD",
"O 	c #343574",
"P 	c #2E2F99",
"Q 	c #2E2F9E",
"R 	c #323287",
"S 	c #343467",
"T 	c #313185",
"U 	c #1519E5",
"V 	c #0003FE",
"W 	c #0911FA",
"X 	c #2023E4",
"Y 	c #30309A",
"Z 	c #312E80",
"` 	c #34217B",
" .	c #2899C2",
"..	c #1279F5",
"+.	c #000CFD",
"@.	c #1216E9",
"#.	c #0057FF",
"$.	c #1EA9E4",
"%.	c #2F79AE",
"&.	c #0F0CE9",
"*.	c #1519E6",
"=.	c #2929B5",
"-.	c #323372",
";.	c #363554",
">.	c #35355D",
",.	c #2022CA",
"'.	c #2225E0",
").	c #3132AE",
"!.	c #1D1FD7",
"~.	c #070EFC",
"{.	c #1E21E5",
"].	c #2C2DB2",
"^.	c #32347D",
"/.	c #36529E",
"(.	c #249CEA",
"_.	c #043CF8",
":.	c #0100F9",
"<.	c #0003FA",
"[.	c #0000FB",
"}.	c #095CF7",
"|.	c #2972E8",
"1.	c #2A00E7",
"2.	c #0002FF",
"3.	c #1C1BD7",
"4.	c #332AB4",
"5.	c #1A36F2",
"6.	c #1F00D0",
"7.	c #322F82",
"8.	c #353664",
"9.	c #343469",
"0.	c #333379",
"a.	c #323284",
"b.	c #333278",
"c.	c #0810F5",
"d.	c #0F16F8",
"e.	c #2426E3",
"f.	c #0103FE",
"g.	c #030CFA",
"h.	c #1A1EF0",
"i.	c #2D2EAD",
"j.	c #332F85",
"k.	c #3524A7",
"l.	c #2042EB",
"m.	c #0000FC",
"n.	c #010BF9",
"o.	c #010CF9",
"p.	c #1201EF",
"q.	c #0410F4",
"r.	c #070AFB",
"s.	c #2F56D4",
"t.	c #2A9CE2",
"u.	c #007EF9",
"v.	c #1714E0",
"w.	c #2C05A0",
"x.	c #32317E",
"y.	c #2022D0",
"z.	c #0A0FF2",
"A.	c #0008FA",
"B.	c #040CFA",
"C.	c #0407FC",
"D.	c #181CED",
"E.	c #292AC7",
"F.	c #33336D",
"G.	c #30327F",
"H.	c #353560",
"I.	c #0B05EC",
"J.	c #0008FB",
"K.	c #010CF8",
"L.	c #010BFB",
"M.	c #0008FE",
"N.	c #0009DD",
"O.	c #3133AA",
"P.	c #3133CD",
"Q.	c #0000B3",
"R.	c #56557C",
"S.	c #3F3DDD",
"T.	c #3000AC",
"U.	c #3E68C7",
"V.	c #2A9FE7",
"W.	c #0782F8",
"X.	c #172EE1",
"Y.	c #302B93",
"Z.	c #2F3098",
"`.	c #070FF5",
" +	c #0E0DFA",
".+	c #2727E9",
"++	c #090AF9",
"@+	c #1318F4",
"#+	c #2C2EE4",
"$+	c #181DF5",
"%+	c #2A2BBF",
"&+	c #313289",
"*+	c #333376",
"=+	c #3B3B8E",
"-+	c #2F30E3",
";+	c #0006FC",
">+	c #020BF9",
",+	c #010BFF",
"'+	c #0000E0",
")+	c #080A63",
"!+	c #676100",
"~+	c #9C914F",
"{+	c #797033",
"]+	c #93890B",
"^+	c #9A9066",
"/+	c #474000",
"(+	c #000078",
"_+	c #3270BF",
":+	c #2BA2E1",
"<+	c #0A88F8",
"[+	c #0B24F0",
"}+	c #2000CE",
"|+	c #0E0CEF",
"1+	c #070FF9",
"2+	c #2728E4",
"3+	c #1E1FED",
"4+	c #1316F7",
"5+	c #3838D7",
"6+	c #0B12E8",
"7+	c #32327D",
"8+	c #2F3087",
"9+	c #373685",
"0+	c #2D2DD1",
"a+	c #0006FF",
"b+	c #0000E8",
"c+	c #15116F",
"d+	c #5E5600",
"e+	c #AFA300",
"f+	c #EBDA00",
"g+	c #D8C900",
"h+	c #E5D500",
"i+	c #DECF00",
"j+	c #B9AC03",
"k+	c #6A6128",
"l+	c #2C007D",
"m+	c #4050B9",
"n+	c #2DA4DD",
"o+	c #1598F0",
"p+	c #0457F2",
"q+	c #0005FF",
"r+	c #000AF9",
"s+	c #0912F7",
"t+	c #070FF7",
"u+	c #191ADE",
"v+	c #2B2CA2",
"w+	c #2A2BA5",
"x+	c #2123E0",
"y+	c #2224ED",
"z+	c #0000EC",
"A+	c #3330A7",
"B+	c #AB9F31",
"C+	c #E5D506",
"D+	c #F9E80A",
"E+	c #EFDE09",
"F+	c #F2E109",
"G+	c #F5E409",
"H+	c #EAD908",
"I+	c #877D00",
"J+	c #191900",
"K+	c #200084",
"L+	c #2599DF",
"M+	c #33B6D8",
"N+	c #2872CF",
"O+	c #0C09F1",
"P+	c #0005FE",
"Q+	c #000AFA",
"R+	c #0B10F2",
"S+	c #2F2E99",
"T+	c #2729C1",
"U+	c #2425EB",
"V+	c #3632DC",
"W+	c #B9AD28",
"X+	c #EDDC06",
"Y+	c #F7E509",
"Z+	c #EDDC09",
"`+	c #F6E509",
" @	c #C6B808",
".@	c #595300",
"+@	c #000068",
"@@	c #0010C7",
"#@	c #1F54F6",
"$@	c #4960B6",
"%@	c #283DC1",
"&@	c #312D8D",
"*@	c #1F1FD4",
"=@	c #0003FF",
"-@	c #0F14EE",
";@	c #292AB1",
">@	c #313282",
",@	c #1419E5",
"'@	c #0004FF",
")@	c #0005ED",
"!@	c #0000A6",
"~@	c #363000",
"{@	c #B3A505",
"]@	c #E2D108",
"^@	c #C6B707",
"/@	c #CFC008",
"(@	c #D3C507",
"_@	c #676000",
":@	c #111000",
"<@	c #0000D1",
"[@	c #0000F9",
"}@	c #170BF5",
"|@	c #1C1FD7",
"1@	c #292AB4",
"2@	c #292BAF",
"3@	c #33327C",
"4@	c #2627BE",
"5@	c #0D10F4",
"6@	c #383283",
"7@	c #605800",
"8@	c #908508",
"9@	c #AFA208",
"0@	c #A49807",
"a@	c #817706",
"b@	c #635C00",
"c@	c #00004C",
"d@	c #0000A7",
"e@	c #0008FC",
"f@	c #010AFA",
"g@	c #292AB6",
"h@	c #34346E",
"i@	c #2829B6",
"j@	c #2123CE",
"k@	c #2E2F9A",
"l@	c #2225C7",
"m@	c #1115EE",
"n@	c #2926A8",
"o@	c #413C00",
"p@	c #6D6600",
"q@	c #8A8004",
"r@	c #8A8106",
"s@	c #433E00",
"t@	c #151200",
"u@	c #0000B9",
"v@	c #0006EF",
"w@	c #010CFF",
"x@	c #010BF8",
"y@	c #0009FA",
"z@	c #0205FD",
"A@	c #2627C0",
"B@	c #2D2EA1",
"C@	c #0A0FF5",
"D@	c #2C2CA4",
"E@	c #0C11F3",
"F@	c #201EA5",
"G@	c #1E1A18",
"H@	c #494208",
"I@	c #6B6200",
"J@	c #5A5300",
"K@	c #00002A",
"L@	c #00007E",
"M@	c #000BFB",
"N@	c #0009FB",
"O@	c #2122CE",
"P@	c #2A2BAE",
"Q@	c #191CDF",
"R@	c #1C1EDB",
"S@	c #1C1CE0",
"T@	c #1F1FCB",
"U@	c #000096",
"V@	c #0F0E13",
"W@	c #1A1700",
"X@	c #000098",
"Y@	c #0006E2",
"Z@	c #0107FD",
"`@	c #161AE4",
" #	c #31318D",
".#	c #1418E6",
"+#	c #0910F9",
"@#	c #161AF0",
"##	c #2022D5",
"$#	c #1C1EDA",
"%#	c #0C11F8",
"&#	c #181BE8",
"*#	c #181AB0",
"=#	c #0C0D7A",
"-#	c #000AEC",
";#	c #010BFC",
">#	c #010BFA",
",#	c #1B1DDD",
"'#	c #292AB2",
")#	c #2526C4",
"!#	c #2022D1",
"~#	c #2D2E9D",
"{#	c #161AE3",
"]#	c #050DFC",
"^#	c #1317EB",
"/#	c #0B11E5",
"(#	c #000AFF",
"_#	c #1D20D7",
":#	c #090FF5",
"<#	c #0006FD",
"[#	c #191CDE",
"}#	c #2F3093",
"|#	c #353563",
"1#	c #33327E",
"2#	c #2223CB",
"3#	c #0609F9",
"4#	c #0209FE",
"5#	c #1417EA",
"6#	c #2426C1",
"7#	c #2B2BA9",
"8#	c #181AE0",
"9#	c #2F2E92",
"0#	c #333274",
"a#	c #32327F",
"b#	c #303091",
"c#	c #2124CB",
"d#	c #0F12F0",
"e#	c #2526C1",
"f#	c #1216EB",
"g#	c #2D2DA3",
"h#	c #2425C4",
"i#	c #1214EE",
"j#	c #0007FD",
"k#	c #1311EA",
"l#	c #2D2C9F",
"m#	c #34366C",
"n#	c #322D7E",
"o#	c #313384",
"p#	c #33327A",
"q#	c #313191",
"r#	c #2627BF",
"s#	c #090FF6",
"t#	c #0E13EE",
"u#	c #2728BB",
"v#	c #2427C1",
"w#	c #060EF7",
"x#	c #2F2F94",
"y#	c #060EF5",
"z#	c #0007FE",
"A#	c #0B0BF1",
"B#	c #2C27A3",
"C#	c #334C71",
"D#	c #2D699B",
"E#	c #304491",
"F#	c #1428C0",
"G#	c #571EA4",
"H#	c #5F2672",
"I#	c #363375",
"J#	c #34346F",
"K#	c #040DF8",
"L#	c #0506FF",
"M#	c #0608FD",
"N#	c #1010EF",
"O#	c #2B2CA8",
"P#	c #2F2F92",
"Q#	c #2C2CA8",
"R#	c #191BE2",
"S#	c #0E09F2",
"T#	c #2624BA",
"U#	c #344B6F",
"V#	c #2B73A4",
"W#	c #1898DF",
"X#	c #2878B3",
"Y#	c #7F0C64",
"Z#	c #890B00",
"`#	c #6E1D51",
" $	c #3B3378",
".$	c #283364",
"+$	c #2D2D9F",
"@$	c #0B12F2",
"#$	c #3131DF",
"$$	c #2C2DE2",
"%$	c #080EFD",
"&$	c #30308E",
"*$	c #1418E7",
"=$	c #1317F5",
"-$	c #2826B7",
";$	c #333979",
">$	c #2B73A3",
",$	c #1C93D7",
"'$	c #1C92D8",
")$	c #2F648C",
"!$	c #119DE9",
"~$	c #119BE5",
"{$	c #2F2E9A",
"]$	c #612085",
"^$	c #87032C",
"/$	c #8B1A00",
"($	c #6A4355",
"_$	c #36318F",
":$	c #353555",
"<$	c #2F2F93",
"[$	c #2324C9",
"}$	c #070FF8",
"|$	c #3C3CD1",
"1$	c #2427EA",
"2$	c #2426EA",
"3$	c #3739D3",
"4$	c #191CF0",
"5$	c #1E21D2",
"6$	c #35336F",
"7$	c #32397F",
"8$	c #247DC0",
"9$	c #208BCA",
"0$	c #2F6893",
"a$	c #373F48",
"b$	c #119BE6",
"c$	c #0230A3",
"d$	c #4327AD",
"e$	c #733B7A",
"f$	c #6141B8",
"g$	c #000DEE",
"h$	c #2D2EA0",
"i$	c #36364F",
"j$	c #191CDC",
"k$	c #0002FA",
"l$	c #040CF9",
"m$	c #0D13F7",
"n$	c #191AEA",
"o$	c #2B2DD6",
"p$	c #3C3CBC",
"q$	c #2E2FC2",
"r$	c #2E2F96",
"s$	c #32247D",
"t$	c #322282",
"u$	c #36434D",
"v$	c #303279",
"w$	c #3E34A2",
"x$	c #1B16EC",
"y$	c #0C12F1",
"z$	c #2729B7",
"A$	c #343468",
"B$	c #1F23EA",
"C$	c #2E31E2",
"D$	c #0007FA",
"E$	c #0004FB",
"F$	c #2022E3",
"G$	c #2F2FA3",
"H$	c #31328B",
"I$	c #119CE7",
"J$	c #30336B",
"K$	c #2E2F9D",
"L$	c #1B1EDE",
"M$	c #0203FE",
"N$	c #0E0FF2",
"O$	c #2929B4",
"P$	c #35356A",
"Q$	c #343461",
"R$	c #35369F",
"S$	c #3839D0",
"T$	c #0000FE",
"U$	c #060FFA",
"V$	c #1C1FEB",
"W$	c #2D2EB1",
"X$	c #119BE7",
"Y$	c #353551",
"Z$	c #2E2F98",
"`$	c #1D1FD9",
" %	c #2124D0",
".%	c #32328B",
"+%	c #1D20D0",
"@%	c #0405FB",
"#%	c #010AFC",
"$%	c #191DEF",
"%%	c #2B2CB4",
"&%	c #119CE8",
"*%	c #119AE4",
"=%	c #119EEA",
"-%	c #36364E",
";%	c #2123CF",
">%	c #1D1FE6",
",%	c #30319D",
"'%	c #2627BC",
")%	c #0208FE",
"!%	c #171BF0",
"~%	c #292AC8",
"{%	c #333371",
"]%	c #36363D",
"^%	c #2326C6",
"/%	c #2B2BB2",
"(%	c #282AB2",
"_%	c #0A0DF5",
":%	c #0007FC",
"<%	c #1418F7",
"[%	c #292AC5",
"}%	c #35355F",
"|%	c #292AAE",
"1%	c #1116EB",
"2%	c #1017F4",
"3%	c #2426DB",
"4%	c #0C10F2",
"5%	c #0004FD",
"6%	c #0F15FA",
"7%	c #2426D4",
"8%	c #2F309F",
"9%	c #1516EA",
"0%	c #0206FE",
"a%	c #1B1FED",
"b%	c #303095",
"c%	c #2E2F94",
"d%	c #2324C7",
"e%	c #119DE8",
"f%	c #363650",
"g%	c #313186",
"h%	c #32327B",
"                                                    . + @ # $                                               ",
"                                                      % & * = -                                             ",
"                                                    ; > , ' ) ! ~ {                                         ",
"                                                        ] ^ / ( _ : <                                       ",
"                                                          [ } | ( 1 2 3                                     ",
"                                                            4 5 6 ( 7 8 9                                   ",
"                                                              0 a b ( c d e f g 4 h i                       ",
"                                                                j k l m n o p q r s                         ",
"                t u v w x y x z     A                           s B h C D E F G 2                           ",
"                s H I J K L M N O P Q                           R S T U V W X Y                             ",
"                Z `  ...+.@.#.$.%.&.*.=.-.              ;.  >.,.'.).!.V ~.{.].                              ",
"                ^./.(._.:.<.[.}.|.1.E 2.3.4.5.6.7.8.9.0.a.b.C c.d.e.f.g.h.i.                                ",
"                j.k.l.m.n.o.n.( p.( q.r.( s.t.u.v.w.x.A y.g z.( A.B.C.D.E.F.                                ",
"                G.H.I.J.K.L.M.N.O.P.Q.R.S.T.U.V.W.X.Y.Z.`. +.+++@+#+$+%+&+                                  ",
"                *+=+-+;+>+,+'+)+!+~+{+]+^+/+(+_+:+<+[+}+|+1+2+3+4+5+6+7+                                    ",
"                8+9+0+( a+b+c+d+e+f+g+h+i+j+k+l+m+n+o+p+q+r+s+t+( u+v+                                      ",
"                    w+x+y+z+A+B+C+D+E+F+G+H+I+J+K+L+M+N+O+( P+Q+R+S+                                        ",
"                    0.T+U+( V+W+X+Y+Z+`+G+ @.@+@@@#@$@%@&@*@=@-@;@                                          ",
"                  >@a.,@'@)@!@~@{@]@^@/@(@_@:@<@[@( }@( |@1@U 2@d                                           ",
"                    3@4@5@( 6@7@8@9@0@a@b@c@d@,+o.n.r+e@f@g@h@i@j@k@                                        ",
"                        l@m@n@o@p@q@r@s@t@u@v@w@x@n.n.y@z@A@B@C@(                                           ",
"                        D@E@F@G@H@I@J@K@L@M@L.n.n.n.N@q+O@P@m 2.c.Q@                                        ",
"                        R@E S@T@U@V@W@X@Y@w@n.n.n.Q+Z@`@ #.#f@+#@###                                        ",
"                        k@$#2.%#&#*#=#-#;#>#n.n.n.2.,#'#)#( n.A.q+!#                                        ",
"                          ~#{#=@]#^#/#(#>#n.n.n.N@`.n _#:#<#N@N@[#}#                                        ",
"                          |#1#2#3#4#<#e@'@f@o.=@5#6#7#'@Q+n.=@8#9#0#a#                                      ",
"                          t a#b#c#`.d#e#f#Q+Q+P+g#h#i#'@n.j#k#l#m#n#o#                                      ",
"                          p#q#r#=.s#t#u#v#N@w#l x#y#J.n.z#A#B#C#D#E#                                        ",
"  F#G#H#I#                J#'#K#E L#M#N#O#P#Q#;@R#( o.z#S#T#U#V#W#X#                                        ",
"    Y#Z#`# $.$            B +$@$( #$$$%$J.h#&$*$E =$( <#-$;$>$,$'$)$        !$~$                            ",
"  {$]$^$/$($_$:$          <$[$E }$|$1$2.1 a |@( 2$3$4$5$6$7$8$9$0$a$      !$b$                              ",
"    c$d$e$f$g$h$i$      h@j$k$<#l$m$1+n$8 y {#J.o$p$q$r$h@s$t$  u$        ~$                                ",
"      v$w$x$( y$z$A$    ~#B$C$D$E$W F$G$                T H$            I$                                  ",
"        J$K$L$M$N$O$P$h Q$R$S$T$U$V$W$                                X$                                    ",
"          Y$Z$`$p P+ %.%< +%@%#%$%%%                                &%*%          =%                        ",
"            -%H$;%P+>%,%'%A.)%!%~%{%                              I$~$          =%=%                        ",
"              ]%s ^%/%(%_%:%<%[%H$                          *%    *%          =%=%      I$                  ",
"                  }%|%1%=@2%3%t                                               =%                            ",
"                    4%5%6%7%8%                                              =%                              ",
"                    9%0%a%b%                                                            I$                  ",
"                    c%d%g@                                                        e%  I$!$                  ",
"                    f%g%                                                                                    ",
"                    s h%                                                                                    ",
"                                                                                                            ",
"                                                                                                            ",
"                                                                                                            ",
"                                                                                                            ",
"                                                                                                            ",
"                                                                                                            ",
"                                                                                                            "};
