/* XPM */
static char * nave2_8_xpm[] = {
"54 50 164 2",
"  	c None",
". 	c #119EEA",
"+ 	c #119BE6",
"@ 	c #119CE7",
"# 	c #119AE4",
"$ 	c #383838",
"% 	c #2B72A4",
"& 	c #2978AD",
"* 	c #2A75A8",
"= 	c #323281",
"- 	c #1F8ED0",
"; 	c #1994DB",
"> 	c #315E82",
", 	c #2F6691",
"' 	c #306188",
") 	c #313287",
"! 	c #010BF9",
"~ 	c #3738CF",
"{ 	c #1318EA",
"] 	c #1E21EB",
"^ 	c #52528F",
"/ 	c #323280",
"( 	c #323282",
"_ 	c #35355F",
": 	c #020CF8",
"< 	c #1E21EA",
"[ 	c #1D20DB",
"} 	c #1317EA",
"| 	c #1E21EC",
"1 	c #000AFA",
"2 	c #35355C",
"3 	c #4847BC",
"4 	c #020CF9",
"5 	c #000AF9",
"6 	c #000BF9",
"7 	c #1F21EB",
"8 	c #504EA8",
"9 	c #3334DD",
"0 	c #020BF9",
"a 	c #3839CC",
"b 	c #3A39CC",
"c 	c #323181",
"d 	c #010AF9",
"e 	c #4D4EA8",
"f 	c #363631",
"g 	c #0109F9",
"h 	c #1FB0E6",
"i 	c #577488",
"j 	c #2225EC",
"k 	c #2E2F9E",
"l 	c #363636",
"m 	c #2E2E9E",
"n 	c #0108F9",
"o 	c #010DF9",
"p 	c #363637",
"q 	c #30318D",
"r 	c #4143BB",
"s 	c #05040C",
"t 	c #050407",
"u 	c #050406",
"v 	c #050405",
"w 	c #050404",
"x 	c #050403",
"y 	c #060604",
"z 	c #060603",
"A 	c #060600",
"B 	c #1D1FDB",
"C 	c #30318C",
"D 	c #30318E",
"E 	c #35355D",
"F 	c #000004",
"G 	c #4D4701",
"H 	c #665F02",
"I 	c #3D3801",
"J 	c #3A3501",
"K 	c #2F2B01",
"L 	c #000000",
"M 	c #0107F9",
"N 	c #000005",
"O 	c #BAAD05",
"P 	c #F0DF09",
"Q 	c #F1E009",
"R 	c #968C06",
"S 	c #908606",
"T 	c #776E04",
"U 	c #020100",
"V 	c #323283",
"W 	c #2E2F9F",
"X 	c #BCAE07",
"Y 	c #B4A707",
"Z 	c #2A28B4",
"` 	c #0009FA",
" .	c #000002",
"..	c #E6D509",
"+.	c #020201",
"@.	c #35312F",
"#.	c #050CF8",
"$.	c #050CF9",
"%.	c #313281",
"&.	c #7A4C4F",
"*.	c #7C4D4F",
"=.	c #333281",
"-.	c #4142BB",
";.	c #0008F9",
">.	c #8C8439",
",.	c #AA9E04",
"'.	c #E2D208",
").	c #665E03",
"!.	c #585119",
"~.	c #322D80",
"{.	c #181BE4",
"].	c #764B49",
"^.	c #804F4C",
"/.	c #2B2AB5",
"(.	c #850E10",
"_.	c #860D0A",
":.	c #4B4B4D",
"<.	c #D5C607",
"[.	c #DFCF08",
"}.	c #090802",
"|.	c #292522",
"1.	c #801516",
"2.	c #8A0100",
"3.	c #2B29B5",
"4.	c #363638",
"5.	c #850D0F",
"6.	c #860C09",
"7.	c #3C3ECE",
"8.	c #7D7531",
"9.	c #847A03",
"0.	c #7C7305",
"a.	c #040DF9",
"b.	c #801517",
"c.	c #8A0300",
"d.	c #850D06",
"e.	c #870B00",
"f.	c #333280",
"g.	c #38383B",
"h.	c #010100",
"i.	c #17140A",
"j.	c #010BF8",
"k.	c #7F151B",
"l.	c #8A030A",
"m.	c #2A21CC",
"n.	c #2A21CB",
"o.	c #2426C9",
"p.	c #3D3ECE",
"q.	c #2E25BB",
"r.	c #201CDB",
"s.	c #31318B",
"t.	c #313284",
"u.	c #323080",
"v.	c #1FB0E5",
"w.	c #0111F9",
"x.	c #323284",
"y.	c #313187",
"z.	c #1E22EB",
"A.	c #4A4AA7",
"B.	c #31318A",
"C.	c #1E1EEB",
"D.	c #1FAFE6",
"E.	c #4144BC",
"F.	c #313288",
"G.	c #313285",
"                                                                                                            ",
"                                                    . .                                                     ",
"                                                    + + +                                                   ",
"                                                .         .                                                 ",
"                                                @         @                                                 ",
"                                                                                                            ",
"                                                                                                            ",
"                                                . . . . . .                                                 ",
"                                                                                                            ",
"                                            .                 .                                             ",
"                                                                                                            ",
"                                                                                                            ",
"                                            # # # # # # # # # #                                             ",
"                                            . . . . . . . . . .                                             ",
"                                        .                         .                                         ",
"                                                                                                            ",
"                                                    $ $ $                                                   ",
"                                                  % & & *                                                   ",
"                                            = = = - . . ; = = =                                             ",
"                                            = = = > , , ' = = =                                             ",
"                                            = = = = = = = = = =                                             ",
"                                        ) ! ! ! ! ! ! ! ! ! ! ! ~ )                                         ",
"                                        { ] ! ! ! ! ! ! ! ! ! ! ^ {                                         ",
"                                    = ! ! ! ! ! ! ! ! ! ! ! ! ! ! ! ! =                                     ",
"                                    = ! ! ! ! ! ! ! ! ! ! ! ! ! ! ! ! =                                     ",
"    = = = / / / / / / / / / / / / / = = = = = = = = = = = = = = = = = ( ( ( ( ( ( ( ( ( ( ( ( ( ( = = =     ",
"      _ = : < < < ] ] ] ] ] ! ! ! ! ! ! = [ ! ! ! ! ! ! ! ! ! ! } = ! ! ! ] ] ] ] ] ] ] ] ] | | 1 = 2       ",
"        = ! ! ! ! ! ! ! ! ! 3 ! ! ! ! ! = ! ! ! ! ! ! ! ! ! ! ! ! = ! ! 4 ! ! ! ! ! ! ! ! ! ! ! ! =         ",
"          ! 1 5 6 6 6 ! 5 ! 4 ! 7 ! ! ! = ! ! ! ! ! ! ! ! ! ! ! ! = ! ! 8 9 ! ! ! 4 ! 0 0 4 : : :           ",
"            ( = = ( ( ( a ! ! ! b ! ! ! c d ! ! ! ! ! ! ! ! ! ! ! = ! ! 5 ! ! ! ! e / / / = = / f           ",
"            = : ! = = = ! ! ! ! ! ! ! g h i 4 ! ! ! ! ! ! ! ! ! ! ! ! ! ! ! ! ! ! 5 = = = j 1 k l           ",
"            = ! ! = = = ( ( ( = ! ! m n h h o ! ! ! ! ! ! ! ! ! ! ! ! = ! ! = / / / = = = ! ! k p           ",
"            = ! ! = q         = k k = n h r s t u v w w x y z A B ! ! = k k = C         / ! ! k p           ",
"            = ! ! = D         E ( = = n h r F G H H H I J J K L B ! ! ( = ( E           / ! ! k p           ",
"            / ! ! ( D           l = / M h r N O P P Q R S S T U B ! ! ( = V             / ! ! W p           ",
"            / ! ! ( D               / M h r N O P P P X Y S T U Z ! ! (                 / ! ! W p           ",
"            / 5 ` ( D               / M h r  .O P P P P ..S T +.@.! ! (                 / #.$.W p           ",
"            %.&.*.=.D                 ! -.] ;.>.,.'.P P '.).!.~.} ! {.                  = ].^./.p           ",
"            %.(._.=.D                   = ! 5 :.L <.P P [.}.|.! ! =                     %.1.2.3.4.          ",
"            %.5.6.=.D                   / ! ! ! 7.8.9.9.0.a.! ! ! (                     %.b.c.3.4.          ",
"            %.d.e.f.D                   / ! ! ! ! g.h.L i.j.! ! ! (                     %.k.l.3.4.          ",
"              m.n.                      = o.5 p.4 ! ! ! ! 6 9 o.k =                       q.r.              ",
"              q s.                      ) t.u.v.w.! ! ! ! ! 5 ( x.)                         y.              ",
"                                            u.v.w.! ! ! ! ! ! (                                             ",
"                                            / z.! ! ! ! ! 5 A.=                                             ",
"                                            = = / : ! ! 6 ( = =                                             ",
"                                              B./ C.D.h E.= F.                                              ",
"                                                = = = = = =                                                 ",
"                                                  F.= = G.                                                  ",
"                                                  C = = F.                                                  "};
