/* XPM */
static char * nave1_14_xpm[] = {
"54 50 465 2",
"  	c None",
". 	c #533030",
"+ 	c #752020",
"@ 	c #7F1212",
"# 	c #632828",
"$ 	c #423636",
"% 	c #2A3939",
"& 	c #4B3333",
"* 	c #712222",
"= 	c #850707",
"- 	c #7F2626",
"; 	c #613B3B",
"> 	c #3E3B3B",
", 	c #2E3131",
"' 	c #303939",
") 	c #463535",
"! 	c #682929",
"~ 	c #7A4040",
"{ 	c #765C5C",
"] 	c #5C5959",
"^ 	c #434444",
"/ 	c #313030",
"( 	c #2D3838",
"_ 	c #413737",
": 	c #5B4B4B",
"< 	c #6B6565",
"[ 	c #6D6D6D",
"} 	c #606161",
"| 	c #484848",
"1 	c #353535",
"2 	c #2A3636",
"3 	c #383D3D",
"4 	c #525353",
"5 	c #676868",
"6 	c #6E6E6E",
"7 	c #606060",
"8 	c #494949",
"9 	c #333333",
"0 	c #313131",
"a 	c #363636",
"b 	c #4D4D4D",
"c 	c #656565",
"d 	c #707070",
"e 	c #666666",
"f 	c #4E4E4E",
"g 	c #393939",
"h 	c #383838",
"i 	c #323232",
"j 	c #353434",
"k 	c #4A4A4A",
"l 	c #616161",
"m 	c #5B5B5B",
"n 	c #3E3E3E",
"o 	c #464646",
"p 	c #545454",
"q 	c #3B3B3B",
"r 	c #5A5A5A",
"s 	c #575757",
"t 	c #404040",
"u 	c #585858",
"v 	c #414141",
"w 	c #373737",
"x 	c #3A3A3A",
"y 	c #434343",
"z 	c #515151",
"A 	c #6B6B6B",
"B 	c #535353",
"C 	c #3D3D3D",
"D 	c #474747",
"E 	c #454545",
"F 	c #444444",
"G 	c #525252",
"H 	c #676767",
"I 	c #343434",
"J 	c #505050",
"K 	c #5E5E5E",
"L 	c #4E4E4D",
"M 	c #464747",
"N 	c #646464",
"O 	c #595959",
"P 	c #626262",
"Q 	c #727272",
"R 	c #717171",
"S 	c #737373",
"T 	c #6F6F6E",
"U 	c #646465",
"V 	c #6A6A69",
"W 	c #5F5F5F",
"X 	c #4E4E50",
"Y 	c #525251",
"Z 	c #393838",
"` 	c #3C3C3C",
" .	c #605F5F",
"..	c #636262",
"+.	c #6A6A6A",
"@.	c #747574",
"#.	c #6F7071",
"$.	c #6B6B6F",
"%.	c #6D6D71",
"&.	c #6B6C71",
"*.	c #666769",
"=.	c #58595B",
"-.	c #57585A",
";.	c #666665",
">.	c #343535",
",.	c #464343",
"'.	c #464444",
").	c #4F5050",
"!.	c #686868",
"~.	c #717070",
"{.	c #727171",
"].	c #6C6C6C",
"^.	c #424242",
"/.	c #737474",
"(.	c #6C6C6E",
"_.	c #585A5D",
":.	c #535355",
"<.	c #69665C",
"[.	c #4D4F55",
"}.	c #555550",
"|.	c #5C5B4A",
"1.	c #44454A",
"2.	c #555860",
"3.	c #68696B",
"4.	c #353636",
"5.	c #3C3B3B",
"6.	c #4F4C4C",
"7.	c #565353",
"8.	c #5C5B5B",
"9.	c #6C6B6B",
"0.	c #6F6D6D",
"a.	c #6B6969",
"b.	c #5F6060",
"c.	c #4C4C4C",
"d.	c #757575",
"e.	c #6F6F71",
"f.	c #53545B",
"g.	c #31312D",
"h.	c #6F6722",
"i.	c #978C31",
"j.	c #898021",
"k.	c #9E9326",
"l.	c #9D9325",
"m.	c #665F21",
"n.	c #363741",
"o.	c #57585E",
"p.	c #676869",
"q.	c #636363",
"r.	c #4A4747",
"s.	c #555050",
"t.	c #5A5757",
"u.	c #5F5D5D",
"v.	c #5D5A5A",
"w.	c #545252",
"x.	c #484949",
"y.	c #3A3B3B",
"z.	c #605F64",
"A.	c #42413F",
"B.	c #685F0D",
"C.	c #B9AB00",
"D.	c #D9C803",
"E.	c #DACA00",
"F.	c #DDCC03",
"G.	c #D9C900",
"H.	c #B2A500",
"I.	c #6D6414",
"J.	c #46443E",
"K.	c #5A5B5D",
"L.	c #6B6B6A",
"M.	c #4D4B4B",
"N.	c #565252",
"O.	c #585353",
"P.	c #575252",
"Q.	c #424141",
"R.	c #333434",
"S.	c #5C5C5C",
"T.	c #656464",
"U.	c #4F4D51",
"V.	c #544E2E",
"W.	c #A49703",
"X.	c #E8D603",
"Y.	c #F7E506",
"Z.	c #F2E106",
"`.	c #F6E407",
" +	c #D9C905",
".+	c #8F8400",
"++	c #363214",
"@+	c #33343B",
"#+	c #5D5C5C",
"$+	c #565757",
"%+	c #535050",
"&+	c #514E4E",
"*+	c #454343",
"=+	c #444242",
"-+	c #514C4D",
";+	c #453F44",
">+	c #59522D",
",+	c #ACA00A",
"'+	c #E5D407",
")+	c #F6E40A",
"!+	c #EFDD0A",
"~+	c #F4E309",
"{+	c #F2E009",
"]+	c #C5B703",
"^+	c #635C01",
"/+	c #1F1B15",
"(+	c #3B3437",
"_+	c #544E4E",
":+	c #595656",
"<+	c #3F3E3E",
"[+	c #4F4B4B",
"}+	c #484545",
"|+	c #403C3C",
"1+	c #4B4445",
"2+	c #413A42",
"3+	c #140F2B",
"4+	c #6C640A",
"5+	c #BBAE03",
"6+	c #D7C807",
"7+	c #D0C009",
"8+	c #CFC107",
"9+	c #C3B603",
"0+	c #7E7601",
"a+	c #1B1818",
"b+	c #2A2634",
"c+	c #4A4244",
"d+	c #4E4747",
"e+	c #4C4545",
"f+	c #423D3D",
"g+	c #3D3B3B",
"h+	c #403F3F",
"i+	c #3F3D3D",
"j+	c #3C3A3A",
"k+	c #383737",
"l+	c #3E3C3C",
"m+	c #464242",
"n+	c #443E41",
"o+	c #3D3831",
"p+	c #5B5413",
"q+	c #908604",
"r+	c #B1A506",
"s+	c #A39807",
"t+	c #8C8302",
"u+	c #716A01",
"v+	c #302D14",
"w+	c #242032",
"x+	c #464043",
"y+	c #4F4848",
"z+	c #443F3F",
"A+	c #3D3B3C",
"B+	c #423D3F",
"C+	c #393433",
"D+	c #433D10",
"E+	c #6D6500",
"F+	c #8A7F05",
"G+	c #7F7603",
"H+	c #443F00",
"I+	c #17150F",
"J+	c #262030",
"K+	c #443F41",
"L+	c #4D4646",
"M+	c #403B3B",
"N+	c #3B3A3A",
"O+	c #3F3B3D",
"P+	c #322F34",
"Q+	c #25221E",
"R+	c #484205",
"S+	c #625900",
"T+	c #554E00",
"U+	c #252210",
"V+	c #24202A",
"W+	c #4A4345",
"X+	c #4D4545",
"Y+	c #453F3F",
"Z+	c #3B3737",
"`+	c #484747",
" @	c #4B4B4B",
".@	c #3D3B3A",
"+@	c #444040",
"@@	c #474344",
"#@	c #403C3F",
"$@	c #302C29",
"%@	c #26220A",
"&@	c #1C1800",
"*@	c #2D2B2F",
"=@	c #454144",
"-@	c #524C4C",
";@	c #514949",
">@	c #4E4646",
",@	c #4E4647",
"'@	c #4C4646",
")@	c #484242",
"!@	c #3E3A3A",
"~@	c #414040",
"{@	c #5D5D5D",
"]@	c #413F3E",
"^@	c #4D4949",
"/@	c #504C4C",
"(@	c #3E3C40",
"_@	c #1F1F25",
":@	c #2F2D2D",
"<@	c #4A4849",
"[@	c #555151",
"}@	c #4E4848",
"|@	c #4D4747",
"1@	c #474141",
"2@	c #747474",
"3@	c #3A3839",
"4@	c #413F3F",
"5@	c #4C4949",
"6@	c #4F4C4B",
"7@	c #4B4747",
"8@	c #4E4A4A",
"9@	c #544F4F",
"0@	c #403A3A",
"a@	c #323334",
"b@	c #373636",
"c@	c #393837",
"d@	c #4C4848",
"e@	c #524D4D",
"f@	c #545050",
"g@	c #4F4646",
"h@	c #4A4545",
"i@	c #3F3C3C",
"j@	c #4C4B4B",
"k@	c #706F6F",
"l@	c #616160",
"m@	c #434241",
"n@	c #363632",
"o@	c #363736",
"p@	c #3A3939",
"q@	c #474444",
"r@	c #434242",
"s@	c #4B4444",
"t@	c #4A4343",
"u@	c #4F4F4F",
"v@	c #71706F",
"w@	c #62605D",
"x@	c #31353C",
"y@	c #352C1B",
"z@	c #392F1D",
"A@	c #109BE5",
"B@	c #119CE7",
"C@	c #333737",
"D@	c #273939",
"E@	c #444343",
"F@	c #424040",
"G@	c #444141",
"H@	c #413E3E",
"I@	c #413C3C",
"J@	c #3A3636",
"K@	c #747575",
"L@	c #737372",
"M@	c #65625D",
"N@	c #4D4D4E",
"O@	c #335370",
"P@	c #2C5F88",
"Q@	c #325574",
"R@	c #383D46",
"S@	c #1099E3",
"T@	c #109AE4",
"U@	c #433535",
"V@	c #602B2B",
"W@	c #652A2A",
"X@	c #463333",
"Y@	c #2F3636",
"Z@	c #504D4D",
"`@	c #524E4E",
" #	c #4D4A4A",
".#	c #717172",
"+#	c #696A68",
"@#	c #4D4A43",
"##	c #345675",
"$#	c #227AB3",
"%#	c #1C90D4",
"&#	c #2A78AC",
"*#	c #513232",
"=#	c #742121",
"-#	c #831010",
";#	c #702323",
">#	c #4A3434",
",#	c #2E3737",
"'#	c #323333",
")#	c #585454",
"!#	c #595555",
"~#	c #5F5C5C",
"{#	c #6B6D6D",
"]#	c #6A6969",
"^#	c #555451",
"/#	c #394656",
"(#	c #246A9B",
"_#	c #1B8FD3",
":#	c #218BCC",
"<#	c #2D6D9B",
"[#	c #383942",
"}#	c #119DE8",
"|#	c #119BE5",
"1#	c #3D3636",
"2#	c #672727",
"3#	c #820707",
"4#	c #822828",
"5#	c #694444",
"6#	c #4A4444",
"7#	c #353838",
"8#	c #666565",
"9#	c #676565",
"0#	c #696767",
"a#	c #5E5D5D",
"b#	c #696969",
"c#	c #555555",
"d#	c #3F3A32",
"e#	c #33404F",
"f#	c #296E9F",
"g#	c #2584C1",
"h#	c #2E6C99",
"i#	c #354B62",
"j#	c #119EE8",
"k#	c #2A3838",
"l#	c #5A3232",
"m#	c #764040",
"n#	c #765F5F",
"o#	c #484A4A",
"p#	c #676666",
"q#	c #363737",
"r#	c #333232",
"s#	c #373431",
"t#	c #345574",
"u#	c #30658E",
"v#	c #37475B",
"w#	c #3B1F18",
"x#	c #0F9EEB",
"y#	c #119AE4",
"z#	c #119EEA",
"A#	c #2D3737",
"B#	c #504444",
"C#	c #666363",
"D#	c #6F7171",
"E#	c #666767",
"F#	c #4F4E4E",
"G#	c #2E2E2E",
"H#	c #565656",
"I#	c #2F2F2F",
"J#	c #3F3F3F",
"K#	c #353536",
"L#	c #343332",
"M#	c #39342C",
"N#	c #109EEB",
"O#	c #119AE5",
"P#	c #2C3333",
"Q#	c #323636",
"R#	c #5E5F5F",
"S#	c #6F6F6F",
"T#	c #0EA0EC",
"U#	c #109DE7",
"V#	c #303030",
"W#	c #119CE8",
"X#	c #2C2C2C",
"Y#	c #109AE3",
"Z#	c #1098E0",
"`#	c #119AE6",
" $	c #2D2D2D",
".$	c #109BE7",
"+$	c #119BE6",
"@$	c #119DE9",
"#$	c #119CE9",
"                                                    . + @ # $ %                                             ",
"                                                    & * = - ; > ,                                           ",
"                                                    ' ) ! ~ { ] ^ /                                         ",
"                                                      ( _ : < [ } | 1                                       ",
"                                                        2 3 4 5 6 7 8 9                                     ",
"                                                          0 a b c d e f g 1       a h                       ",
"                                                            i j k l [ m n o p k q a h                       ",
"                          a 1                                   1 o r s t u e s v w                         ",
"                h a a h 1 w q h     1                           0 9 x y z e A B n 9                         ",
"              h w 1 C D E F f D a 9 h g                       a h 9 w G c H r y 1                           ",
"              h I q J 7 c H H K k D L E i         a w w a 9 I C F M f N [ O y 1                             ",
"                1 | P d Q R S T U c V W X f Y o a a 1 w Z I ` G  ...c +.7 | 9                               ",
"                g k c S S S @.#.$.%.&.*.=.-.;.K | w >.x ,.'.).!.~.{.].7 k x                                 ",
"                I ^.l S S /.(._.:.<.[.}.|.1.2.3.7 8 4.5.6.7.8.9.0.a.b.c.h                                   ",
"                1 E P R d.e.f.g.h.i.j.k.l.m.n.o.p.q.J t r.s.t.u.v.w.x.y.                                    ",
"                h v m ].S z.A.B.C.D.E.F.G.H.I.J.K.L.q.b M.N.O.P.6.Q.x R.                                    ",
"                  h | S.T.U.V.W.X.Y.Z.`.Y. +.+++@+#+H $+M.%+7.&+*+g 1                                       ",
"                  9 1 =+-+;+>+,+'+)+!+~+{+]+^+/+(+_+:+| <+r.[+}+5.j                                         ",
"                  a 1 |+1+2+3+4+5+6+7+8+9+0+a+b+c+d+e+f+g+h+i+j+k+9                                         ",
"                    h l+m+n+o+p+q+r+s+t+u+v+w+x+y+d+e+e+z+Z h y F q                                         ",
"                      w A+B+C+D+E+F+G+H+I+J+K+d+L+L+d+e+M+N+b K S.|                                         ",
"                        j+O+P+Q+R+S+T+U+V+W+d+d+L+d+X+Y+Z+`+q.6 P  @                                        ",
"                        .@+@@@#@$@%@&@*@=@-@;@>@,@'@)@!@~@r 6 d {@E                                         ",
"                        Z ]@^@/@(@_@:@<@[@-@}@L+|@1@!@=+s A 2@Q P z                                         ",
"                        a 3@4@5@6@7@8@N.9@}@X+|@)@0@g+r +.R d.6 {@D a@                                      ",
"                        a b@c@4@d@e@f@&+y+g@>@h@|+i@j@!.Q d.k@l@m@n@o@                                      ",
"                        h h a p@l+q@^@r@Y+s@t@f+> u@N R d.v@w@ @x@y@z@      A@B@                            ",
"  C@    D@                a 5.E@F@G@r.4@x H@I@J@j@N d K@L@M@N@O@P@Q@R@      S@T@                            ",
"  U@V@W@X@Y@              k+4@8@Z@Z@`@ #F@Z N+D W d d..#+#@###$#%#&#                                        ",
"  *#=#-#;#>#,#            '#N+&+)#!#~#7.q@b@E b.{#/.d.]#^#/#(#_#:#<#[#      }#|#                            ",
"  1#2#3#4#5#6#7#          w E 8.8#9#0#a#r@x f 6 5 b#+.c#d#e#f#g#h#i#      j#B@                              ",
"  k#a l#m#n#7 o#w       9 ^.O 6 d.~.p#$+C q#o O B b B t r#s#t#u#v#w#    x#B@y#    z#                        ",
"    A#a B#C#D#E#F#w G#1 h 8 c d.d.].H#^ I I#w J#      K#L#M#          N#B@O#      B@                        ",
"      P#Q#o#R#].e G C i I o q.R S#m y 9                             T#U#|#        }#                        ",
"        G#V#F 7 d A c#g i  @N +.K | h                             z#B@|#          z#z#                      ",
"            V#v u !.W v o {@A W 8 g                             }#W#|#          z#z#                        ",
"              X#C b J D u +.c J h                           Y#Z#y#`#          z#z#      }#                  ",
"                i a E u H e G J# $                                          z#z#z#      }#                  ",
"                  x z b#H c#n 9                                       W#y#.$z#z#        +$B@                ",
"                    H#N O v 0                                                           B@W#                ",
"                    E  @F 1                                                     }#@$+$B@@$                  ",
"                    1 1 w                                                         @$  #$                    ",
"                    a w                                                                                     ",
"                    h                                                                                       ",
"                                                                                                            ",
"                                                                                                            ",
"                                                                                                            ",
"                                                                                                            ",
"                                                                                                            ",
"                                                                                                            "};
