/* XPM */
static char * nave2_3_xpm[] = {
"54 50 730 2",
"  	c None",
". 	c #2C3460",
"+ 	c #292E90",
"@ 	c #4A2596",
"# 	c #6A138C",
"$ 	c #860931",
"% 	c #71157A",
"& 	c #2D2AA9",
"* 	c #373725",
"= 	c #35355B",
"- 	c #242C9D",
"; 	c #573E97",
"> 	c #7E3D53",
", 	c #881736",
"' 	c #83121C",
") 	c #62246F",
"! 	c #37370B",
"~ 	c #363649",
"{ 	c #33327A",
"] 	c #2A2CAF",
"^ 	c #0E18E4",
"/ 	c #2516F7",
"( 	c #70418A",
"_ 	c #6C2C5A",
": 	c #522B67",
"< 	c #2D3473",
"[ 	c #30318A",
"} 	c #31327D",
"| 	c #373631",
"1 	c #343462",
"2 	c #2D2F9C",
"3 	c #1F21D2",
"4 	c #1114EF",
"5 	c #0001FF",
"6 	c #0A11F4",
"7 	c #40359D",
"8 	c #3D356C",
"9 	c #24356B",
"0 	c #303740",
"a 	c #313281",
"b 	c #353569",
"c 	c #35355A",
"d 	c #2728B8",
"e 	c #1C1ED8",
"f 	c #32327D",
"g 	c #32327B",
"h 	c #2728BB",
"i 	c #1318E9",
"j 	c #0003FF",
"k 	c #0C0EF4",
"l 	c #2B2CA5",
"m 	c #32345E",
"n 	c #333540",
"o 	c #323277",
"p 	c #323283",
"q 	c #2B2BAC",
"r 	c #0A0FF4",
"s 	c #070CF6",
"t 	c #2728B9",
"u 	c #2C2DA3",
"v 	c #0F14F4",
"w 	c #0000FF",
"x 	c #1719E4",
"y 	c #2829B4",
"z 	c #333279",
"A 	c #363648",
"B 	c #31317D",
"C 	c #2728BD",
"D 	c #0A0DFA",
"E 	c #0006FF",
"F 	c #1213ED",
"G 	c #292AB2",
"H 	c #2225DA",
"I 	c #2526D6",
"J 	c #313189",
"K 	c #343560",
"L 	c #383701",
"M 	c #313190",
"N 	c #2527D2",
"O 	c #0C13F5",
"P 	c #0105FC",
"Q 	c #2122CD",
"R 	c #333379",
"S 	c #333479",
"T 	c #343469",
"U 	c #343466",
"V 	c #2D2DB4",
"W 	c #1B1FEE",
"X 	c #0209FF",
"Y 	c #0208FA",
"Z 	c #2526BE",
"` 	c #32326F",
" .	c #303084",
"..	c #313182",
"+.	c #33336B",
"@.	c #2A2BBE",
"#.	c #1418F6",
"$.	c #0006FE",
"%.	c #1114E2",
"&.	c #3B3C94",
"*.	c #2F2FBB",
"=.	c #2C2CA8",
"-.	c #2D2E90",
";.	c #33336A",
">.	c #303196",
",.	c #2325D7",
"'.	c #0A0FFC",
").	c #0909FC",
"!.	c #2D2EDC",
"~.	c #2C2EE2",
"{.	c #0408F8",
"].	c #2E2F98",
"^.	c #353568",
"/.	c #34346A",
"(.	c #313188",
"_.	c #343362",
":.	c #333274",
"<.	c #2F2E87",
"[.	c #313289",
"}.	c #35367E",
"|.	c #343474",
"1.	c #313084",
"2.	c #313185",
"3.	c #32316C",
"4.	c #313283",
"5.	c #343465",
"6.	c #2C2DB3",
"7.	c #1A1DEA",
"8.	c #0206FC",
"9.	c #0F12F7",
"0.	c #191DF3",
"a.	c #080BF7",
"b.	c #1F21CF",
"c.	c #2F2F95",
"d.	c #323280",
"e.	c #323380",
"f.	c #32327F",
"g.	c #333475",
"h.	c #33346A",
"i.	c #2F3095",
"j.	c #2225C8",
"k.	c #35355F",
"l.	c #2A2BAC",
"m.	c #2622BE",
"n.	c #30419A",
"o.	c #34336A",
"p.	c #3125B2",
"q.	c #3737B7",
"r.	c #343493",
"s.	c #322E84",
"t.	c #3A3989",
"u.	c #352D7D",
"v.	c #322D80",
"w.	c #323483",
"x.	c #323287",
"y.	c #2627D4",
"z.	c #1015F7",
"A.	c #0006FB",
"B.	c #0001FC",
"C.	c #0002FF",
"D.	c #0D12F1",
"E.	c #1718E5",
"F.	c #2627BF",
"G.	c #30318F",
"H.	c #35346B",
"I.	c #2829B7",
"J.	c #1A1CDF",
"K.	c #070DF7",
"L.	c #2022D2",
"M.	c #2426C3",
"N.	c #1113EC",
"O.	c #0D28F4",
"P.	c #2162D3",
"Q.	c #1F64D7",
"R.	c #0D25FA",
"S.	c #2225ED",
"T.	c #2020DD",
"U.	c #2123D3",
"V.	c #335BCF",
"W.	c #2F6A9E",
"X.	c #331C77",
"Y.	c #322C80",
"Z.	c #353547",
"`.	c #303094",
" +	c #2022E2",
".+	c #070FFD",
"++	c #0409F9",
"@+	c #1418F4",
"#+	c #0002FD",
"$+	c #161AE3",
"%+	c #31318D",
"&+	c #2D2DA3",
"*+	c #1B1EDA",
"=+	c #050BF8",
"-+	c #0D0EFA",
";+	c #1818DE",
">+	c #1215E5",
",+	c #0A0FF8",
"'+	c #0000FD",
")+	c #0024FF",
"!+	c #0C71F7",
"~+	c #127AF3",
"{+	c #0015FD",
"]+	c #0000FB",
"^+	c #032CFA",
"/+	c #1678F5",
"(+	c #2397D0",
"_+	c #314C8C",
":+	c #313187",
"<+	c #313381",
"[+	c #323375",
"}+	c #2C2DB5",
"|+	c #181CED",
"1+	c #161AF4",
"2+	c #3536DB",
"3+	c #2B2CE6",
"4+	c #0009F9",
"5+	c #2E2EA0",
"6+	c #0B10F3",
"7+	c #0005FE",
"8+	c #090EFC",
"9+	c #1D1EE1",
"0+	c #161585",
"a+	c #262488",
"b+	c #332E9D",
"c+	c #2321AA",
"d+	c #0000F4",
"e+	c #0036EC",
"f+	c #002EF4",
"g+	c #0100FF",
"h+	c #0107FB",
"i+	c #0109F9",
"j+	c #0003FB",
"k+	c #0258FE",
"l+	c #1A73EA",
"m+	c #2D45A9",
"n+	c #332578",
"o+	c #31328C",
"p+	c #1F22DA",
"q+	c #0E12F8",
"r+	c #3232DD",
"s+	c #2D2CE5",
"t+	c #050DF8",
"u+	c #080DF7",
"v+	c #0F14F1",
"w+	c #1618E0",
"x+	c #100EA2",
"y+	c #332F30",
"z+	c #4B4400",
"A+	c #595203",
"B+	c #0A0940",
"C+	c #5F57B3",
"D+	c #554B9B",
"E+	c #00006E",
"F+	c #0000E0",
"G+	c #010CFD",
"H+	c #010BFA",
"I+	c #0107FA",
"J+	c #010CFB",
"K+	c #1D05DE",
"L+	c #2E26A0",
"M+	c #323081",
"N+	c #353551",
"O+	c #2C2CAB",
"P+	c #0D0DF3",
"Q+	c #0002FE",
"R+	c #0005FF",
"S+	c #1819E2",
"T+	c #1619E4",
"U+	c #080FF4",
"V+	c #050DFA",
"W+	c #1518D0",
"X+	c #01047E",
"Y+	c #3B3600",
"Z+	c #665E05",
"`+	c #7D7400",
" @	c #8B8107",
".@	c #A29500",
"+@	c #C8B900",
"@@	c #A89B26",
"#@	c #3C372F",
"$@	c #0000AE",
"%@	c #0005F7",
"&@	c #0004FD",
"*@	c #0000F9",
"=@	c #0200F8",
"-@	c #2821BA",
";@	c #363756",
">@	c #313285",
",@	c #333378",
"'@	c #2122CE",
")@	c #191DDF",
"!@	c #31318A",
"~@	c #2123CC",
"{@	c #040EF6",
"]@	c #010BFB",
"^@	c #050BC2",
"/@	c #020144",
"(@	c #4C4500",
"_@	c #807602",
":@	c #9B9106",
"<@	c #CABB09",
"[@	c #E9D902",
"}@	c #F7E500",
"|@	c #DFCF00",
"1@	c #938900",
"2@	c #36327B",
"3@	c #0806DC",
"4@	c #0050FC",
"5@	c #0F70F5",
"6@	c #233AD9",
"7@	c #322A83",
"8@	c #33346E",
"9@	c #2C2CA3",
"0@	c #2B2CA8",
"a@	c #2E2E9B",
"b@	c #2729B9",
"c@	c #2424C7",
"d@	c #000AFA",
"e@	c #000AFB",
"f@	c #0009EE",
"g@	c #00009B",
"h@	c #26221D",
"i@	c #6F6703",
"j@	c #978C06",
"k@	c #BEAF07",
"l@	c #EDDC09",
"m@	c #F5E30A",
"n@	c #ECDC00",
"o@	c #B5A800",
"p@	c #5C5896",
"q@	c #1718E2",
"r@	c #212AEE",
"s@	c #2393E6",
"t@	c #298DC1",
"u@	c #2F5AA0",
"v@	c #311D8D",
"w@	c #1114EA",
"x@	c #080CF6",
"y@	c #2224C9",
"z@	c #2B2DA6",
"A@	c #191BE2",
"B@	c #0104FE",
"C@	c #010BF9",
"D@	c #010BFC",
"E@	c #010AFD",
"F@	c #0003CC",
"G@	c #00003C",
"H@	c #393400",
"I@	c #877E05",
"J@	c #D7C908",
"K@	c #F0DE09",
"L@	c #F1E009",
"M@	c #E4D409",
"N@	c #908517",
"O@	c #2E2DB5",
"P@	c #050BFA",
"Q@	c #1E26F2",
"R@	c #2963D4",
"S@	c #313485",
"T@	c #301E91",
"U@	c #26289B",
"V@	c #2124DE",
"W@	c #080DFC",
"X@	c #1111EE",
"Y@	c #2F2F94",
"Z@	c #2324CA",
"`@	c #0209FB",
" #	c #010AFA",
".#	c #010BF8",
"+#	c #010CFF",
"@#	c #0000BB",
"##	c #000031",
"$#	c #908600",
"%#	c #E1D208",
"&#	c #F8E60A",
"*#	c #F2E106",
"=#	c #CEC000",
"-#	c #7C741C",
";#	c #2426A6",
">#	c #0101FF",
",#	c #0404FA",
"'#	c #160BE7",
")#	c #2D1899",
"!#	c #373899",
"~#	c #3A3CBF",
"{#	c #292BE6",
"]#	c #0007FF",
"^#	c #1318E7",
"/#	c #2A2BAE",
"(#	c #1416EA",
"_#	c #0005E9",
":#	c #000083",
"<#	c #625B00",
"[#	c #CBBD02",
"}#	c #F5E40B",
"|#	c #EFDE04",
"1#	c #C8BB00",
"2#	c #80787F",
"3#	c #3535D0",
"4#	c #0000FE",
"5#	c #0E0FF2",
"6#	c #2225CA",
"7#	c #303291",
"8#	c #303191",
"9#	c #2B2CC3",
"0#	c #3031DA",
"a#	c #292AE9",
"b#	c #0003FC",
"c#	c #070FF4",
"d#	c #2426C2",
"e#	c #0D12F0",
"f#	c #0009FB",
"g#	c #0000D0",
"h#	c #000059",
"i#	c #797001",
"j#	c #CDBF05",
"k#	c #B8AC00",
"l#	c #797100",
"m#	c #4134A7",
"n#	c #1914EF",
"o#	c #0B0AF0",
"p#	c #2A2BA9",
"q#	c #2E2E9E",
"r#	c #2F2F98",
"s#	c #2D2E94",
"t#	c #33337C",
"u#	c #2122D4",
"v#	c #0304FE",
"w#	c #0008FA",
"x#	c #0006FD",
"y#	c #1819E4",
"z#	c #2829B5",
"A#	c #010BFE",
"B#	c #0108EF",
"C#	c #000090",
"D#	c #2C2800",
"E#	c #736900",
"F#	c #5B5132",
"G#	c #1A1174",
"H#	c #2250B6",
"I#	c #2E5FD9",
"J#	c #3131AF",
"K#	c #353172",
"L#	c #1097E0",
"M#	c #1099E3",
"N#	c #32337B",
"O#	c #2C2CA2",
"P#	c #1012F0",
"Q#	c #0008FB",
"R#	c #0207FD",
"S#	c #2727BE",
"T#	c #303092",
"U#	c #1517EA",
"V#	c #0006FC",
"W#	c #0109FF",
"X#	c #0002E9",
"Y#	c #000080",
"Z#	c #00004C",
"`#	c #292195",
" $	c #3A79C6",
".$	c #279BE1",
"+$	c #2B7AEA",
"@$	c #2931E1",
"#$	c #119AE4",
"$$	c #1099E2",
"%$	c #2F2A97",
"&$	c #332E78",
"*$	c #33337B",
"=$	c #2625BC",
"-$	c #0904F5",
";$	c #2225C6",
">$	c #2527C1",
",$	c #080AF7",
"'$	c #0008FC",
")$	c #1B3BF3",
"!$	c #1D6FCB",
"~$	c #376AB4",
"{$	c #3689D5",
"]$	c #22A1EC",
"^$	c #0379FB",
"/$	c #164BDF",
"($	c #1E1FCC",
"_$	c #2E3F9C",
":$	c #2C5CA0",
"<$	c #305C87",
"[$	c #2E3A96",
"}$	c #1514E4",
"|$	c #181CE1",
"1$	c #292BAF",
"2$	c #1B1ED9",
"3$	c #0109FA",
"4$	c #141EF4",
"5$	c #436FC5",
"6$	c #31ADDB",
"7$	c #299DE8",
"8$	c #0F99F2",
"9$	c #0656F4",
"0$	c #2000CF",
"a$	c #302192",
"b$	c #119CE7",
"c$	c #2E5F94",
"d$	c #1E8BCF",
"e$	c #2388C2",
"f$	c #335774",
"g$	c #2D289F",
"h$	c #0F0AF0",
"i$	c #0007FD",
"j$	c #0408FC",
"k$	c #2324C9",
"l$	c #2325C4",
"m$	c #040AF9",
"n$	c #0301F8",
"o$	c #1F25E2",
"p$	c #2F7ACC",
"q$	c #229BE2",
"r$	c #0A71F3",
"s$	c #1845DD",
"t$	c #2700B8",
"u$	c #332E76",
"v$	c #119BE6",
"w$	c #119EE9",
"x$	c #34516B",
"y$	c #2582BC",
"z$	c #1996DD",
"A$	c #2C71A1",
"B$	c #334279",
"C$	c #2320C8",
"D$	c #0608FA",
"E$	c #2F3094",
"F$	c #2627C1",
"G$	c #1C1DDD",
"H$	c #1E21D1",
"I$	c #2B02A1",
"J$	c #233ECA",
"K$	c #0740F6",
"L$	c #1D00D7",
"M$	c #2D23A4",
"N$	c #322D87",
"O$	c #35366A",
"P$	c #343367",
"Q$	c #119CE8",
"R$	c #1199E3",
"S$	c #119BE5",
"T$	c #109EEA",
"U$	c #392F2E",
"V$	c #306388",
"W$	c #1E8ED0",
"X$	c #2287C8",
"Y$	c #32507C",
"Z$	c #2F2B96",
"`$	c #191CE0",
" %	c #0007FC",
".%	c #1016EA",
"+%	c #2E2E9C",
"@%	c #30318D",
"#%	c #2628BE",
"$%	c #1F22D2",
"%%	c #0704F9",
"&%	c #0000FC",
"*%	c #080CF4",
"=%	c #1217EB",
"-%	c #2528C1",
";%	c #35355C",
">%	c #119BE4",
",%	c #119DE8",
"'%	c #364854",
")%	c #2D639C",
"!%	c #2D579E",
"~%	c #32357D",
"{%	c #332D76",
"]%	c #2426C1",
"^%	c #030CF9",
"/%	c #0B12F9",
"(%	c #0810F9",
"_%	c #040BF8",
":%	c #2324C7",
"<%	c #2C2DA5",
"[%	c #1015EC",
"}%	c #0A12F6",
"|%	c #0B12F8",
"1%	c #0203FC",
"2%	c #2426C4",
"3%	c #32337D",
"4%	c #353554",
"5%	c #31318E",
"6%	c #119DE9",
"7%	c #302A90",
"8%	c #322C7F",
"9%	c #343373",
"0%	c #1519E7",
"a%	c #2022D7",
"b%	c #1217F0",
"c%	c #191BE0",
"d%	c #2A2CAB",
"e%	c #040CF9",
"f%	c #1B1FED",
"g%	c #2526E8",
"h%	c #2021E7",
"i%	c #353560",
"j%	c #373627",
"k%	c #24338F",
"l%	c #2B328A",
"m%	c #3D2F86",
"n%	c #4622B0",
"o%	c #1E2EAB",
"p%	c #119EEA",
"q%	c #109FEC",
"r%	c #1D20D6",
"s%	c #2728BA",
"t%	c #2D2E9C",
"u%	c #1113EF",
"v%	c #181BF1",
"w%	c #1617F3",
"x%	c #0706FC",
"y%	c #191BDF",
"z%	c #30308F",
"A%	c #2B318B",
"B%	c #2C3285",
"C%	c #363184",
"D%	c #5B256B",
"E%	c #781750",
"F%	c #6F138C",
"G%	c #3427B6",
"H%	c #119CE6",
"I%	c #323272",
"J%	c #0D0DF5",
"K%	c #2628EA",
"L%	c #0B11F7",
"M%	c #0005FB",
"N%	c #0A12F8",
"O%	c #2324C6",
"P%	c #34336F",
"Q%	c #313286",
"R%	c #2E327B",
"S%	c #3C3493",
"T%	c #6B395D",
"U%	c #862600",
"V%	c #8C0300",
"W%	c #771859",
"X%	c #4323B3",
"Y%	c #2E2E94",
"Z%	c #1F21DC",
"`%	c #3536DE",
" &	c #1E21F0",
".&	c #0710F8",
"+&	c #1E22EA",
"@&	c #2224D4",
"#&	c #2F2F93",
"$&	c #323382",
"%&	c #30318C",
"&&	c #2526BF",
"*&	c #3125E3",
"=&	c #703F9E",
"-&	c #783151",
";&	c #67255D",
">&	c #3D3079",
",&	c #243195",
"'&	c #119AE5",
")&	c #109AE3",
"!&	c #353557",
"~&	c #2728B1",
"{&	c #171BEB",
"]&	c #0F12F9",
"^&	c #090CF8",
"/&	c #2628D4",
"(&	c #343491",
"_&	c #343365",
":&	c #333376",
"<&	c #32337E",
"[&	c #2B2BAB",
"}&	c #1D1FD7",
"|&	c #0002FC",
"1&	c #0004FC",
"2&	c #4231C2",
"3&	c #483575",
"4&	c #303188",
"5&	c #183391",
"6&	c #33336F",
"7&	c #282AC3",
"8&	c #1419F6",
"9&	c #0307FE",
"0&	c #181AE2",
"a&	c #2E2E96",
"b&	c #343374",
"c&	c #2123CB",
"d&	c #0708F9",
"e&	c #1214EB",
"f&	c #2124C4",
"g&	c #303186",
"h&	c #303283",
"i&	c #233093",
"j&	c #2326D5",
"k&	c #0A11F9",
"l&	c #333373",
"m&	c #2020D2",
"n&	c #050AF9",
"o&	c #2324C8",
"p&	c #119DEA",
"q&	c #1A1EEE",
"r&	c #0108FF",
"s&	c #0309FA",
"t&	c #2325C5",
"u&	c #2323C8",
"v&	c #1115EC",
"w&	c #2B2CAB",
"x&	c #303187",
"y&	c #292AC5",
"z&	c #1217F5",
"A&	c #0107FC",
"B&	c #1A1CDD",
"C&	c #2C2CA5",
"D&	c #30308E",
"E&	c #343470",
"F&	c #30309B",
"G&	c #2123E1",
"H&	c #070EFE",
"I&	c #30308D",
"J&	c #34336E",
"K&	c #2C2CB3",
"L&	c #171BEE",
"M&	c #1A1BE1",
"N&	c #2021D5",
"O&	c #1D1FD4",
"P&	c #363552",
"Q&	c #323185",
"R&	c #32327E",
"S&	c #37372A",
"T&	c #323275",
"U&	c #333377",
"                                                  . + @ # $ % &                                             ",
"                                              * = - ; > , ' )                                               ",
"                                          ! ~ { ] ^ / ( _ : <                                               ",
"                            [ }         | 1 2 3 4 5 6 7 8 9 0                                               ",
"                            a b c d e f g h i j k e l m n                                                   ",
"                            o p q r s t u v w x y z A                                                       ",
"                              B C D E F G H I J K L                                                         ",
"                                M N O P Q R S T U                                                           ",
"                                1 V W X Y Z `  ...                                                          ",
"                                  +.@.#.$.%.&.*.=.                                -.;.                      ",
"                                    >.,.'.).!.~.{.].^./.  (.            _.:.p <.[.}.|.1.2.3.4.              ",
"                                    5.6.7.8.9.0.a.b.c.d.e.f.g.h.i.j.  k.l.m.n.o.p.q.r.s.t.u.v.w.            ",
"                                      x.y.z.A.B.C.D.E.F.G.H.J I.J.K.L.M.N.O.P.Q.R.S.T.U.V.W.X.Y.[.          ",
"                                      Z.`. +.+++@+#+5 $+%+&+*+=+-+;+>+,+'+)+!+~+{+]+w ^+/+(+_+:+<+          ",
"                                        [+}+|+1+2+3+4+$+5+6+7+8+9+0+a+b+c+d+e+f+g+h+i+j+k+l+m+n+            ",
"                                          o+p+q+r+s+w t+u+j v+w+x+y+z+A+B+C+D+E+F+G+H+I+J+K+L+M+            ",
"                                          N+O+P+Q+R+S+T+U+V+W+X+Y+Z+`+ @.@+@@@#@$@%@&@*@=@-@;@>@            ",
"                                            ,@'@k )@!@~@{@]@^@/@(@_@:@<@[@}@|@1@2@3@'+4@5@6@7@8@            ",
"                                          9@h 0@a@b@c@j d@e@f@g@h@i@j@k@l@m@n@o@p@q@r@s@t@u@v@              ",
"                                          w@x@y@z@A@B@7+C@D@E@F@G@H@I@J@K@L@M@N@O@P@Q@R@S@T@                ",
"                                        U@V@W@X@Y@Z@`@ #C@.#G++#@###$#%#&#*#=#-#;#>#,#'#)#                  ",
"                                        !#~#{#]#^#/#(#C.d@C@.#]@_#:#<#[#}#|#1#2#3#4#5#6#7#8#                ",
"                                        9#0#a#b#c#d#d e#f#C@C@]@E@g#h#i#j#k#l#m#n#o#p#q#r#                  ",
"                                      s#t#u#v#w#x#y#z#$+j f#C@C@A#B#C#D#E#F#G#H#I#J#K#                      ",
"                            L#M#    a@2.N#O#P#j Q#R#S#T#U#V#C@C@H+W#X#Y#Z#`# $.$+$@$                        ",
"                            #$$$    %$Y.&$*$=$-$e@x#7+;$>$,$'$C@.#w )$!$~${$]$^$/$($                        ",
"                            $$        _$:$<$[$}$R+d@d@|$1$2$3$C@j+4$5$6$7$8$9$0$a$                          ",
"                            b$        c$d$e$f$g$h$V#i$j$k$l$m$w n$o$p$q$r$s$t$u$b                           ",
"                            v$w$      x$y$z$A$B$C$D$f#'$(#E$F$G$H$I$J$K$L$M$N$O$P$                          ",
"                    Q$Q$    R$S$T$    U$V$W$X$Y$Z$`$ %Q#C..%+%@%#%$%%%&%*%=%-%p ;%                          ",
"                      #$      >%,%      '%)%!%~%{%]%^%/%(%_%:%<%[%i$7+}%|%1%2%3%4%              5%          ",
"                    6%          v$T$        7%8%9%|.0%a%b%w c%d%c%C.e%f%g%h%d i%j%            k%l%m%n%o%    ",
"                    p%p%        #$b$q%        `.`.    0@`$r%s%;%t%u%j v%w%x%y%z%          A%B%C%D%E%F%G%    ",
"              w$H%    p%p%        #$b$                          I%Z J%K%L%M%N%O%P%      Q%R%S%T%U%V%W%X%    ",
"              ,%      p%p%          v$6%                          Y%Z%`% &.&+&@&#&2.$&t#%&&&*&=&-&;&>&,&    ",
"              '&        p%p%        #$v$  v$)&                    !&~&{&]&^&/&(&_&:&<&[&}&|&1&2&3&4&5&      ",
"            p%b$        p%p%,%b$                                    6&7&8&9&0&a&b&a@c&x@d&e&f&g&h&i&        ",
"              ,%H%            b$p%                                    8#j&k&5 ~@l&m&w n&o&u g d.            ",
"              p&b$6%p%                                                5.6.q&r&s&t&u&v&w&x&f.                ",
"                                                                        :&y&z&A&B&C&D&E&%&                  ",
"                                                                          F&G&H&d&c@I&                      ",
"                                                                          J&K&L&w M&                        ",
"                                                                            c.N&O&a@                        ",
"                                                                            P&Q&R&S&                        ",
"                                                                              T&U&                          ",
"                                                                                g                           ",
"                                                                                                            ",
"                                                                                                            ",
"                                                                                                            ",
"                                                                                                            "};
