/* XPM */
static char * nave1_1_xpm[] = {
"54 50 339 2",
"  	c None",
". 	c #383838",
"+ 	c #353737",
"@ 	c #363636",
"# 	c #323737",
"$ 	c #473434",
"% 	c #373535",
"& 	c #373737",
"* 	c #404040",
"= 	c #444444",
"- 	c #393939",
"; 	c #343434",
"> 	c #353636",
", 	c #2C3939",
"' 	c #6F2424",
") 	c #8B0000",
"! 	c #632A2A",
"~ 	c #3D3D3D",
"{ 	c #2E2E2E",
"] 	c #595959",
"^ 	c #646464",
"/ 	c #5E5E5E",
"( 	c #515151",
"_ 	c #3E3E3E",
": 	c #313838",
"< 	c #840D0D",
"[ 	c #860B0B",
"} 	c #4F3333",
"| 	c #3B3B3B",
"1 	c #5D5D5D",
"2 	c #616161",
"3 	c #6E6E6E",
"4 	c #737373",
"5 	c #727272",
"6 	c #676767",
"7 	c #3F3F3F",
"8 	c #343636",
"9 	c #493737",
"0 	c #8B1A1A",
"a 	c #7E1414",
"b 	c #363838",
"c 	c #4A4A4A",
"d 	c #6B6B6B",
"e 	c #454545",
"f 	c #313232",
"g 	c #5D4F4F",
"h 	c #7F5656",
"i 	c #664141",
"j 	c #2D3838",
"k 	c #6F6F6F",
"l 	c #717171",
"m 	c #666666",
"n 	c #4D4D4D",
"o 	c #333333",
"p 	c #696C6C",
"q 	c #6E7070",
"r 	c #4A4848",
"s 	c #323434",
"t 	c #433F3F",
"u 	c #484242",
"v 	c #5D5A5A",
"w 	c #6F6E6E",
"x 	c #747474",
"y 	c #464646",
"z 	c #353535",
"A 	c #696969",
"B 	c #3C3A3A",
"C 	c #4D4646",
"D 	c #4A4242",
"E 	c #474141",
"F 	c #31323C",
"G 	c #535457",
"H 	c #5F5F5F",
"I 	c #3A3A3A",
"J 	c #323232",
"K 	c #555555",
"L 	c #313131",
"M 	c #3B3A3A",
"N 	c #403D3D",
"O 	c #4E4747",
"P 	c #3F393B",
"Q 	c #2A2638",
"R 	c #60592B",
"S 	c #564F00",
"T 	c #302A00",
"U 	c #191815",
"V 	c #57585B",
"W 	c #5B5B5B",
"X 	c #707070",
"Y 	c #3C3838",
"Z 	c #3E3838",
"` 	c #3F3A21",
" .	c #000000",
"..	c #CCBD09",
"+.	c #CEBF07",
"@.	c #A99D00",
"#.	c #7E7521",
"$.	c #66655C",
"%.	c #757575",
"&.	c #3C3C3C",
"*.	c #6A6A6A",
"=.	c #494646",
"-.	c #4A4444",
";.	c #222026",
">.	c #39340D",
",.	c #6A620E",
"'.	c #857B02",
").	c #E8D808",
"!.	c #F5E409",
"~.	c #F5E309",
"{.	c #D2C30B",
"].	c #272935",
"^.	c #5B5B5F",
"/.	c #4E4E4E",
"(.	c #606060",
"_.	c #3F3E3E",
":.	c #534F4F",
"<.	c #464242",
"[.	c #00001B",
"}.	c #5A5300",
"|.	c #847A05",
"1.	c #BFB108",
"2.	c #F2E009",
"3.	c #F3E209",
"4.	c #EEDD09",
"5.	c #D2C301",
"6.	c #6F670C",
"7.	c #5F5D4F",
"8.	c #505050",
"9.	c #565656",
"0.	c #363737",
"a.	c #444242",
"b.	c #565252",
"c.	c #3D3A3A",
"d.	c #000006",
"e.	c #746B03",
"f.	c #8E8406",
"g.	c #ADA107",
"h.	c #C7B907",
"i.	c #EBDB09",
"j.	c #F0DF09",
"k.	c #EFDE08",
"l.	c #C2B417",
"m.	c #746E3D",
"n.	c #515257",
"o.	c #383737",
"p.	c #535353",
"q.	c #494949",
"r.	c #434343",
"s.	c #494747",
"t.	c #4F4D4D",
"u.	c #3E3D3D",
"v.	c #4C4949",
"w.	c #524E4E",
"x.	c #312E2F",
"y.	c #0C0A00",
"z.	c #5A5302",
"A.	c #827905",
"B.	c #918706",
"C.	c #A59A07",
"D.	c #F4E309",
"E.	c #C7B900",
"F.	c #433D00",
"G.	c #494A4E",
"H.	c #353939",
"I.	c #473535",
"J.	c #7B1A1A",
"K.	c #632929",
"L.	c #6D6D6D",
"M.	c #6C6C6C",
"N.	c #4C4C4C",
"O.	c #626262",
"P.	c #535050",
"Q.	c #504C4C",
"R.	c #2C2929",
"S.	c #231F00",
"T.	c #3E3901",
"U.	c #7D7403",
"V.	c #D8C907",
"W.	c #EFDE09",
"X.	c #B0A401",
"Y.	c #000013",
"Z.	c #2C3A3A",
"`.	c #642A2A",
" +	c #8E0000",
".+	c #732222",
"++	c #2B3A3A",
"@+	c #4F4F4F",
"#+	c #5A5A5A",
"$+	c #656565",
"%+	c #747575",
"&+	c #545050",
"*+	c #464444",
"=+	c #454343",
"-+	c #575353",
";+	c #4F4B4C",
">+	c #3C393B",
",+	c #1A181B",
"'+	c #141300",
")+	c #3B3800",
"!+	c #686102",
"~+	c #8F8503",
"{+	c #716900",
"]+	c #061334",
"^+	c #2E3939",
"/+	c #7C1717",
"(+	c #572F2F",
"_+	c #303939",
":+	c #585858",
"<+	c #636363",
"[+	c #5F5C5C",
"}+	c #5A5656",
"|+	c #555151",
"1+	c #484646",
"2+	c #413F3F",
"3+	c #4E4A4A",
"4+	c #585454",
"5+	c #504949",
"6+	c #494242",
"7+	c #352F35",
"8+	c #14111F",
"9+	c #090800",
"0+	c #0C0B00",
"a+	c #4A4A4B",
"b+	c #5C5C5C",
"c+	c #3F3A3A",
"d+	c #7F4747",
"e+	c #803636",
"f+	c #3A3838",
"g+	c #373838",
"h+	c #514E4E",
"i+	c #403F3F",
"j+	c #3B3939",
"k+	c #4E4646",
"l+	c #4F4949",
"m+	c #504A4A",
"n+	c #4F4848",
"o+	c #3B3537",
"p+	c #2A2726",
"q+	c #525353",
"r+	c #756F6F",
"s+	c #675757",
"t+	c #2F3535",
"u+	c #414141",
"v+	c #4B4B4B",
"w+	c #545454",
"x+	c #504D4D",
"y+	c #4D4B4B",
"z+	c #423E3E",
"A+	c #4C4545",
"B+	c #575151",
"C+	c #6B6A6A",
"D+	c #727373",
"E+	c #4F5151",
"F+	c #333232",
"G+	c #4D4545",
"H+	c #6A6969",
"I+	c #5C5D5D",
"J+	c #474545",
"K+	c #504E4E",
"L+	c #403E3E",
"M+	c #383636",
"N+	c #403C3C",
"O+	c #443F3F",
"P+	c #474242",
"Q+	c #4B4444",
"R+	c #3F3C3C",
"S+	c #4E4D4D",
"T+	c #454444",
"U+	c #524F4F",
"V+	c #434141",
"W+	c #4D4E4E",
"X+	c #353434",
"Y+	c #3E3B3B",
"Z+	c #4B4545",
"`+	c #3E3C3C",
" @	c #595656",
".@	c #3F4040",
"+@	c #444040",
"@@	c #393838",
"#@	c #555252",
"$@	c #565353",
"%@	c #615F5F",
"&@	c #474747",
"*@	c #303030",
"=@	c #424343",
"-@	c #363434",
";@	c #5C5959",
">@	c #686666",
",@	c #717070",
"'@	c #575757",
")@	c #4A4747",
"!@	c #5C5A5A",
"~@	c #514E49",
"{@	c #62615F",
"]@	c #686868",
"^@	c #393328",
"/@	c #344A60",
"(@	c #2F4B65",
"_@	c #313C4A",
":@	c #3B3936",
"<@	c #4D4B48",
"[@	c #392C0A",
"}@	c #2286C6",
"|@	c #2189C9",
"1@	c #2B74A8",
"2@	c #315D81",
"3@	c #333C47",
"4@	c #323130",
"5@	c #36485B",
"6@	c #2482BD",
"7@	c #1A94DB",
"8@	c #129DE9",
"9@	c #208CCD",
"0@	c #373D44",
"a@	c #119BE6",
"b@	c #1096DE",
"c@	c #354B61",
"d@	c #316086",
"e@	c #2B72A4",
"f@	c #2B72A3",
"g@	c #392A00",
"h@	c #119BE5",
"i@	c #392F1C",
"j@	c #392C0C",
"k@	c #383530",
"l@	c #109AE5",
"m@	c #119FEB",
"n@	c #119AE4",
"o@	c #119CE7",
"p@	c #119DE9",
"q@	c #119EEB",
"r@	c #119AE3",
"s@	c #119AE5",
"t@	c #119EEA",
"u@	c #109AE4",
"v@	c #1098E1",
"w@	c #119EE9",
"x@	c #119DE8",
"                                                                                                            ",
"                                                                . . .                                       ",
"                          . +                               . . @ . . .                                     ",
"                      #   $ %                           . & @ * = - ; @                                     ",
"                    > , ' ) !                           & ~ { ] ^ / ( _ .                                   ",
"                    @ : < [ } :                       & | 1 2 3 4 5 6 7 & &                                 ",
"                    8 9 0 a b @                   & . ; c d 5 5 5 5 d e . .                                 ",
"                    f g h i j                     . - ; ] k 4 5 5 5 l m n @                                 ",
"                  @ o p q r s                     - t u v w l 5 5 5 x 6 y ;                                 ",
"                  z 7 5 A - @                   > B u C D E F G A l 5 H I &                                 ",
"                  J K 4 1 L @                   M N O P Q R S T U V 5 W & . .                               ",
"                @ J 6 X n J                 - N E Y Z `  ...+.@.#.$.l %.H 7 &                               ",
"                @ &.5 *.&.z           . . & | =.-.;.>.,.'.).!.~.{.].^.5 W ~                                 ",
"                o /.l (.o &       & & . . & _.:.<.[.}.|.1.2.3.4.5.6.7.l 8.z                                 ",
"              ~ . * 9.c ; . . . @ & . 0.& - a.b.c.d.e.f.g.h.i.j.k.l.m.n.( *                       o.b       ",
"          z ~ W p.q.~ - z o r.r._ . s.t.u.M v.w.x.y.z.A.B.C.D.j.3.E.F.G.A p.|                 H.I.J.K.      ",
"      . . z q.L.5 M.2 K N.e 2 3 O.p.P.b._.u.w.Q.R. . .S.T.U.V.W.j.X.Y.W 4 q.-                 Z.`. +.+++    ",
"      & . . * @+#+$+3 5 L.m d x %+l b.&+*+=+:.-+-+;+>+,+ .'+)+!+~+{+]+m d * &               . ^+/+) (+_+    ",
"            ; @ &.= /.:+<+M.l x x M.[+}+|+1+2+3+&+b.4+5+6+7+8+9+0+ .a+k b+&.& &             & c+d+e+f+g+    ",
"                  o z I r.N.9.(.A l l v h+i+j+u k+l+m+C C n+n+-.o+p+] 5 N.- . &             J q+r+s+t+.     ",
"                        o ; - u+v+w+b+x+y+- z+A+C C C C C C C C k+B+C+L.u+& 0.& & @       . L ^ D+E+F+      ",
"                              o ; . _ u._.. z+A+C O C C C C C C G+b.H+I+| J+K+L+&         & | k k &.&       ",
"                                    z I I o M+N+O+P+Q+C O C C C C R+_ S+T+U+b.V+& @       o /.4 $+J .       ",
"                                    & c $+/ W+~ X+M+Y+t E -.C O Z+`+| P.-+b. @:+q.* I . . L O.4 p.J         ",
"                                    | w+x l L.A (.( .@z % c.z+E +@@@*+#@b.$@%@x 5 m &@& . . L.X * @         ",
"                                      *@N.d 4 5 X 3 *.O.w+=@@ -@. . *+x+|+-+;@>@,@d @+z z * $+O.o .         ",
"                                      ; ( M.5 5 4 4 5 l 3 d ^ '@y & I i+=+)@3+!@l X 2 p.v+7 & | o           ",
"                                        u+w+^ L.l 5 5 4 4 4 l X 3 ] I @ . M _.c b+m X 5 M.2 K N.r.          ",
"                                        @ o F+u.~@{@M.X 5 5 4 ]@k w+I       > & ~ y 8.] $+3 5 L.W           ",
"                                        . . ^@/@(@_@:@<@H d L./.@                 o @ | = /.:+(.w+J         ",
"                                        . . [@}@|@1@2@3@4@. q.= ;                       o z I u+~ @ &       ",
"                                            5@6@7@8@9@0@o..                                   ; . . .       ",
"                                  a@b@        c@d@e@f@g@. .                                         &       ",
"                                  h@b@        i@j@k@                                                        ",
"                                    l@m@                                                                    ",
"                                    n@h@o@p@q@                                                              ",
"                                        r@n@s@o@p@t@q@    l@o@                                              ",
"                                              r@n@n@a@p@u@                                                  ",
"                                  t@o@                n@                                                    ",
"                                    v@                                                                      ",
"                                    w@t@t@          w@                                                      ",
"                                      t@t@t@t@t@    p@                                                      ",
"                                            t@t@t@                                                          ",
"                                  o@o@                                                                      ",
"                                  t@x@                                                                      ",
"                                    a@        o@                                                            ",
"                                    x@o@a@a@t@t@                                                            ",
"                                      t@t@x@                                                                ",
"                                                                                                            ",
"                                                                                                            "};
