/* XPM */
static char * nave2_2_xpm[] = {
"54 50 687 2",
"  	c None",
". 	c #26337C",
"+ 	c #3E28A6",
"@ 	c #7E0F58",
"# 	c #77126D",
"$ 	c #3A26AE",
"% 	c #1C2F86",
"& 	c #442B97",
"* 	c #720F81",
"= 	c #8E0000",
"- 	c #771B42",
"; 	c #362E95",
"> 	c #353647",
", 	c #2B2DA0",
"' 	c #6C4683",
") 	c #893A00",
"! 	c #771947",
"~ 	c #4E2D69",
"{ 	c #1C3671",
"] 	c #363646",
"^ 	c #30318E",
"/ 	c #121CDC",
"( 	c #2B19F5",
"_ 	c #66428D",
": 	c #4B3471",
"< 	c #28356D",
"[ 	c #363641",
"} 	c #313188",
"| 	c #2224CE",
"1 	c #0004FE",
"2 	c #000AFA",
"3 	c #2B2DA7",
"4 	c #35345E",
"5 	c #36362A",
"6 	c #32337D",
"7 	c #1F22D1",
"8 	c #070AF9",
"9 	c #0C0FF3",
"0 	c #2225C4",
"a 	c #363655",
"b 	c #363627",
"c 	c #313287",
"d 	c #393800",
"e 	c #323278",
"f 	c #2526C4",
"g 	c #0306FC",
"h 	c #2627BE",
"i 	c #34336E",
"j 	c #373724",
"k 	c #2C2D96",
"l 	c #333375",
"m 	c #31317C",
"n 	c #31308B",
"o 	c #32337B",
"p 	c #312F7D",
"q 	c #323384",
"r 	c #323380",
"s 	c #2F3091",
"t 	c #34345E",
"u 	c #37363A",
"v 	c #2929B2",
"w 	c #1F21D1",
"x 	c #333372",
"y 	c #2B2CA9",
"z 	c #0A10F7",
"A 	c #0000FF",
"B 	c #2325C6",
"C 	c #323375",
"D 	c #38371C",
"E 	c #31327F",
"F 	c #303290",
"G 	c #2E2E8A",
"H 	c #343589",
"I 	c #393985",
"J 	c #34347A",
"K 	c #332F89",
"L 	c #3D4297",
"M 	c #323881",
"N 	c #330075",
"O 	c #323083",
"P 	c #31318A",
"Q 	c #33336F",
"R 	c #313282",
"S 	c #353567",
"T 	c #32327D",
"U 	c #1418E7",
"V 	c #080DF5",
"W 	c #2324C7",
"X 	c #2C2DA6",
"Y 	c #1C20E7",
"Z 	c #2426D9",
"` 	c #343473",
" .	c #353561",
"..	c #333271",
"+.	c #323085",
"@.	c #333784",
"#.	c #352C66",
"$.	c #2E25C8",
"%.	c #3234D8",
"&.	c #2626CE",
"*.	c #2125D5",
"=.	c #2C66E1",
"-.	c #2793C0",
";.	c #31508A",
">.	c #323280",
",.	c #2929B4",
"'.	c #0002FF",
").	c #0208FF",
"!.	c #0003FF",
"~.	c #2122CC",
"{.	c #323281",
"].	c #343477",
"^.	c #333371",
"/.	c #32327F",
"(.	c #363648",
"_.	c #292AB2",
":.	c #1D1BD8",
"<.	c #2755C0",
"[.	c #2263CF",
"}.	c #002AFF",
"|.	c #060FF9",
"1.	c #0107FB",
"2.	c #0367FC",
"3.	c #1595F3",
"4.	c #295CC0",
"5.	c #322A81",
"6.	c #292AC3",
"7.	c #191DEB",
"8.	c #020BFA",
"9.	c #2C2DA0",
"0.	c #33336B",
"a.	c #2E2E9E",
"b.	c #323284",
"c.	c #33346F",
"d.	c #313187",
"e.	c #313283",
"f.	c #30318D",
"g.	c #2D2D9F",
"h.	c #2B2CA7",
"i.	c #1418E8",
"j.	c #0011FF",
"k.	c #0F62F4",
"l.	c #178DEF",
"m.	c #0234FA",
"n.	c #0000F9",
"o.	c #010CF9",
"p.	c #0000FC",
"q.	c #083BFA",
"r.	c #2104DA",
"s.	c #30318C",
"t.	c #323285",
"u.	c #292AC9",
"v.	c #191DF1",
"w.	c #060DFB",
"x.	c #0106FB",
"y.	c #1417DD",
"z.	c #3B3CA0",
"A.	c #2E2FD5",
"B.	c #070BF6",
"C.	c #2C2DA2",
"D.	c #343470",
"E.	c #34346E",
"F.	c #33337C",
"G.	c #34346F",
"H.	c #30318B",
"I.	c #2324C9",
"J.	c #0207FC",
"K.	c #0007FC",
"L.	c #0C13F4",
"M.	c #0105FF",
"N.	c #0000F3",
"O.	c #0250EF",
"P.	c #0000F7",
"Q.	c #010CFF",
"R.	c #010BFA",
"S.	c #010BF9",
"T.	c #020CF9",
"U.	c #070DF4",
"V.	c #2B2AAA",
"W.	c #363752",
"X.	c #313285",
"Y.	c #2C2DB3",
"Z.	c #1C1FEC",
"`.	c #080FFE",
" +	c #2424EA",
".+	c #2E31E1",
"++	c #0D0FF9",
"@+	c #1619E3",
"#+	c #2729B6",
"$+	c #2B2CAA",
"%+	c #2E2F9D",
"&+	c #343372",
"*+	c #1E21D3",
"=+	c #0508FA",
"-+	c #1414F1",
";+	c #2322A8",
">+	c #2423AD",
",+	c #312CA3",
"'+	c #21209A",
")+	c #0000EB",
"!+	c #3934AB",
"~+	c #000067",
"{+	c #0000D2",
"]+	c #0005FD",
"^+	c #001AFC",
"/+	c #1C17EA",
"(+	c #312791",
"_+	c #333379",
":+	c #2D2EAF",
"<+	c #1F21E1",
"[+	c #0911F7",
"}+	c #0000FD",
"|+	c #000BF9",
"1+	c #0002FD",
"2+	c #0004FF",
"3+	c #0D12F0",
"4+	c #1E21D4",
"5+	c #323283",
"6+	c #2425C4",
"7+	c #0009FA",
"8+	c #060BFC",
"9+	c #1D1EDA",
"0+	c #141360",
"a+	c #373200",
"b+	c #585116",
"c+	c #282400",
"d+	c #93884F",
"e+	c #A19545",
"f+	c #564F00",
"g+	c #16137D",
"h+	c #0000D4",
"i+	c #0000FA",
"j+	c #001EFB",
"k+	c #1196F4",
"l+	c #2880C5",
"m+	c #312B8F",
"n+	c #2E319A",
"o+	c #33336E",
"p+	c #2D2DB3",
"q+	c #1F21E9",
"r+	c #0D13F8",
"s+	c #0008FA",
"t+	c #0003FA",
"u+	c #0E14F6",
"v+	c #020CF8",
"w+	c #161AE2",
"x+	c #2E2E9D",
"y+	c #0107FC",
"z+	c #0008FB",
"A+	c #191CF0",
"B+	c #0000AA",
"C+	c #3D3840",
"D+	c #655D00",
"E+	c #867C08",
"F+	c #9C9004",
"G+	c #E6D500",
"H+	c #EBDA04",
"I+	c #BEB100",
"J+	c #6D6500",
"K+	c #2F2FA1",
"L+	c #1419F0",
"M+	c #2748E7",
"N+	c #27A5D6",
"O+	c #34326E",
"P+	c #2E289C",
"Q+	c #35345C",
"R+	c #303099",
"S+	c #2224DD",
"T+	c #0F15FA",
"U+	c #0B12F8",
"V+	c #3233DE",
"W+	c #3434DC",
"X+	c #0007FB",
"Y+	c #070EF6",
"Z+	c #0A10F4",
"`+	c #1116EC",
" @	c #1B1CBE",
".@	c #0B0900",
"+@	c #5F5805",
"@@	c #877D00",
"#@	c #A69B08",
"$@	c #DCCC09",
"%@	c #F6E509",
"&@	c #F5E30A",
"*@	c #E5D500",
"=@	c #A79B25",
"-@	c #4746BF",
";@	c #050DF9",
">@	c #1F27F0",
",@	c #2835D2",
"'@	c #2D0097",
")@	c #333369",
"!@	c #2F309C",
"~@	c #2528D2",
"{@	c #070EF7",
"]@	c #2123ED",
"^@	c #3B3AD2",
"/@	c #060CF8",
"(@	c #1317E8",
"_@	c #010AF9",
":@	c #050EF5",
"<@	c #0B0E9E",
"[@	c #131000",
"}@	c #554E00",
"|@	c #867C05",
"1@	c #9E9307",
"2@	c #C1B207",
"3@	c #ECDB09",
"4@	c #F1E009",
"5@	c #E7D70C",
"6@	c #8E8300",
"7@	c #0000A5",
"8@	c #0000FE",
"9@	c #0300FB",
"0@	c #0413F5",
"a@	c #2D2DA1",
"b@	c #30328E",
"c@	c #343459",
"d@	c #1C1EE2",
"e@	c #0004FD",
"f@	c #2E2E9C",
"g@	c #2123CC",
"h@	c #0109E6",
"i@	c #00009E",
"j@	c #000035",
"k@	c #494300",
"l@	c #766E04",
"m@	c #D0C208",
"n@	c #F0DE09",
"o@	c #F3E109",
"p@	c #E1D100",
"q@	c #968C02",
"r@	c #575560",
"s@	c #161BEC",
"t@	c #2021D2",
"u@	c #2F2F9A",
"v@	c #2F2F96",
"w@	c #363540",
"x@	c #323181",
"y@	c #1E1FD6",
"z@	c #0D0FF3",
"A@	c #030BF9",
"B@	c #010BFB",
"C@	c #010BFF",
"D@	c #0006E5",
"E@	c #000083",
"F@	c #090600",
"G@	c #524C00",
"H@	c #C5B806",
"I@	c #F1E109",
"J@	c #FAE80A",
"K@	c #EADA06",
"L@	c #ACA125",
"M@	c #5752BD",
"N@	c #100FEC",
"O@	c #303186",
"P@	c #2B2BAB",
"Q@	c #2F2F95",
"R@	c #1718E7",
"S@	c #010BFD",
"T@	c #0001B1",
"U@	c #151412",
"V@	c #7E7500",
"W@	c #D1C206",
"X@	c #EADA09",
"Y@	c #C1B400",
"Z@	c #6B6315",
"`@	c #1D0EAE",
" #	c #2639DC",
".#	c #302FB0",
"+#	c #34307C",
"@#	c #32327C",
"##	c #1D1ED9",
"$#	c #171AE3",
"%#	c #2A2CAB",
"&#	c #2829B6",
"*#	c #0006FE",
"=#	c #0007FD",
"-#	c #010BF8",
";#	c #0006F4",
">#	c #0000BD",
",#	c #000058",
"'#	c #565000",
")#	c #A49800",
"!#	c #766D00",
"~#	c #22006D",
"{#	c #2A66B6",
"]#	c #3387E0",
"^#	c #2F42DE",
"/#	c #0917EC",
"(#	c #050BF8",
"_#	c #1616E6",
":#	c #303090",
"<#	c #2A2BAE",
"[#	c #0A0DF6",
"}#	c #0008F5",
"|#	c #0000AE",
"1#	c #000300",
"2#	c #1F1400",
"3#	c #000150",
"4#	c #4040BA",
"5#	c #2AABDD",
"6#	c #0480FE",
"7#	c #1C3FD8",
"8#	c #1F02C6",
"9#	c #262899",
"0#	c #2A2DCF",
"a#	c #1D21EE",
"b#	c #030BFE",
"c#	c #020DF8",
"d#	c #2627BD",
"e#	c #292AB0",
"f#	c #010AFA",
"g#	c #010BFE",
"h#	c #0000D3",
"i#	c #1F186E",
"j#	c #394AA5",
"k#	c #3590DD",
"l#	c #0F9AF3",
"m#	c #0E00EE",
"n#	c #2F2597",
"o#	c #3D3EB4",
"p#	c #3E3FC8",
"q#	c #0C11F8",
"r#	c #1216EB",
"s#	c #2728BA",
"t#	c #2527BE",
"u#	c #070FF5",
"v#	c #2048F0",
"w#	c #238FDD",
"x#	c #3199DB",
"y#	c #129BF2",
"z#	c #0A3CF0",
"A#	c #2C1CA4",
"B#	c #343370",
"C#	c #2628D1",
"D#	c #181AF6",
"E#	c #0D10F4",
"F#	c #2B2BAC",
"G#	c #181AE4",
"H#	c #0001FF",
"I#	c #0008FC",
"J#	c #0007FA",
"K#	c #4364C4",
"L#	c #36B3D2",
"M#	c #1394F6",
"N#	c #125BE8",
"O#	c #2600BC",
"P#	c #333279",
"Q#	c #363632",
"R#	c #1E3198",
"S#	c #2C26BC",
"T#	c #1A2FA8",
"U#	c #2D2E93",
"V#	c #343471",
"W#	c #2627BF",
"X#	c #060AFA",
"Y#	c #0006FD",
"Z#	c #1D20D4",
"`#	c #2B2DA6",
" $	c #1D20D6",
".$	c #040CF8",
"+$	c #0008FD",
"@$	c #0904F5",
"#$	c #2E4ED0",
"$$	c #2294D4",
"%$	c #0235F9",
"&$	c #2B22AD",
"*$	c #2D28A3",
"=$	c #33347D",
"-$	c #343373",
";$	c #253390",
">$	c #2E3288",
",$	c #502B7B",
"'$	c #65179B",
")$	c #3726B6",
"!$	c #2D2D9E",
"~$	c #2828B6",
"{$	c #110AED",
"]$	c #0009FB",
"^$	c #0810F5",
"/$	c #2224CB",
"($	c #1318E7",
"_$	c #0206FD",
":$	c #1B1AD5",
"<$	c #2E0098",
"[$	c #182AE3",
"}$	c #1011EC",
"|$	c #1218EB",
"1$	c #2225C9",
"2$	c #353554",
"3$	c #2C3090",
"4$	c #26328B",
"5$	c #532970",
"6$	c #86081A",
"7$	c #8B0300",
"8$	c #55229C",
"9$	c #1098E2",
"0$	c #2C2DA5",
"a$	c #312F86",
"b$	c #332B7B",
"c$	c #323E7E",
"d$	c #333E75",
"e$	c #2625BC",
"f$	c #050BF5",
"g$	c #0205FE",
"h$	c #2627C0",
"i$	c #292BB3",
"j$	c #2022D0",
"k$	c #0008FF",
"l$	c #050FF9",
"m$	c #333377",
"n$	c #36363C",
"o$	c #303191",
"p$	c #2B327B",
"q$	c #4D377D",
"r$	c #7D370C",
"s$	c #8B1500",
"t$	c #731C47",
"u$	c #2A3382",
"v$	c #2C2F9C",
"w$	c #119CE7",
"x$	c #2D4C9E",
"y$	c #2871B0",
"z$	c #2B77A5",
"A$	c #344A6F",
"B$	c #2D279F",
"C$	c #130FEB",
"D$	c #1016EA",
"E$	c #2C2DA4",
"F$	c #1A1DDC",
"G$	c #040BFA",
"H$	c #0E14F5",
"I$	c #2224E9",
"J$	c #2425E9",
"K$	c #1B1DDB",
"L$	c #31318B",
"M$	c #37364E",
"N$	c #313286",
"O$	c #31318D",
"P$	c #422FD2",
"Q$	c #76418B",
"R$	c #6B305A",
"S$	c #412F7E",
"T$	c #173390",
"U$	c #1097E0",
"V$	c #2E6094",
"W$	c #1C91D5",
"X$	c #1996DC",
"Y$	c #2C72A2",
"Z$	c #334A75",
"`$	c #2D2C9F",
" %	c #1A1DDE",
".%	c #030AFA",
"+%	c #060FF7",
"@%	c #1518E5",
"#%	c #2A2BAD",
"$%	c #0005FE",
"%%	c #0C13F5",
"&%	c #2325E8",
"*%	c #1010F7",
"=%	c #0D13EF",
"-%	c #2A2AAC",
";%	c #36355B",
">%	c #33337B",
",%	c #2E2F96",
"'%	c #1518E3",
")%	c #4130C8",
"!%	c #3D357D",
"~%	c #25318E",
"{%	c #364657",
"]%	c #2E6994",
"^%	c #1D90D3",
"/%	c #1996DD",
"(%	c #2F6393",
"_%	c #343573",
":%	c #2C2CA4",
"<%	c #1217E8",
"[%	c #191DEE",
"}%	c #040BFC",
"|%	c #0B0EF5",
"1%	c #0F15F6",
"2%	c #080FF8",
"3%	c #0108FA",
"4%	c #151AF3",
"5%	c #1C1FDE",
"6%	c #2E2E97",
"7%	c #313185",
"8%	c #343474",
"9%	c #2F2F97",
"0%	c #1E20D4",
"a%	c #0E13ED",
"b%	c #2D2F93",
"c%	c #313186",
"d%	c #119BE5",
"e%	c #119DE8",
"f%	c #119FEB",
"g%	c #3B1100",
"h%	c #383A3D",
"i%	c #30658A",
"j%	c #296CAD",
"k%	c #2F4B94",
"l%	c #332176",
"m%	c #35356A",
"n%	c #323287",
"o%	c #0F14EF",
"p%	c #2628BE",
"q%	c #161AE5",
"r%	c #2A2BAC",
"s%	c #363637",
"t%	c #323275",
"u%	c #2829B4",
"v%	c #1314EB",
"w%	c #3E3ED0",
"x%	c #2527EB",
"y%	c #050EF9",
"z%	c #2023E8",
"A%	c #3233B3",
"B%	c #353461",
"C%	c #191DDD",
"D%	c #0102FE",
"E%	c #1618E5",
"F%	c #292AAE",
"G%	c #34346C",
"H%	c #303094",
"I%	c #119AE4",
"J%	c #119CE6",
"K%	c #0F9FEC",
"L%	c #383536",
"M%	c #30298F",
"N%	c #323082",
"O%	c #2F2F99",
"P%	c #343468",
"Q%	c #2325BD",
"R%	c #0C13F2",
"S%	c #191DF4",
"T%	c #0001FC",
"U%	c #1517EF",
"V%	c #2829B7",
"W%	c #32327A",
"X%	c #2122CD",
"Y%	c #0C10F3",
"Z%	c #119DE9",
"`%	c #119CE8",
" &	c #119BE4",
".&	c #0F9FEB",
"+&	c #363650",
"@&	c #2326D9",
"#&	c #1016FA",
"$&	c #2526C1",
"%&	c #32327B",
"&&	c #1C1CDC",
"*&	c #119EEB",
"=&	c #333367",
"-&	c #2F3099",
";&	c #2527D0",
">&	c #1218F2",
",&	c #1C1FD7",
"'&	c #2A2AAF",
")&	c #35346A",
"!&	c #303092",
"~&	c #119AE3",
"{&	c #303097",
"]&	c #2527D8",
"^&	c #1519F6",
"/&	c #020AFC",
"(&	c #090CF5",
"_&	c #2324C8",
":&	c #119EEA",
"<&	c #119BE6",
"[&	c #109AE3",
"}&	c #35354A",
"|&	c #292AC4",
"1&	c #171BF4",
"2&	c #030AFF",
"3&	c #1A1BE1",
"4&	c #119EE9",
"5&	c #323286",
"6&	c #2A2BBD",
"7&	c #181CEC",
"8&	c #2425C6",
"9&	c #2425CB",
"0&	c #1F21CE",
"a&	c #353560",
"b&	c #35346C",
"c&	c #35355D",
"d&	c #323282",
"                                        . + @ # $                                                           ",
"                                      % & * = - ;                                                           ",
"                                    > , ' ) ! ~ {                                                           ",
"                                  ] ^ / ( _ : <                                                             ",
"                                [ } | 1 2 3 4                                                               ",
"                              5 6 7 8 9 0 a b                                       c                       ",
"                            d e f 2 g h i j                             k l m n o p q r                     ",
"                  s t u v w x y z A B C D                         E F G H I J K L M N O P                   ",
"                Q R S T U V W X Y Z `  .                        ..+.@.#.$.%.&.*.=.-.;.c                     ",
"                  e >.,.'.).!.~.{.].^./.                      (._.:.<.[.}.|.A 1.2.3.4.5.^.                  ",
"                      s 6.7.8.'.U 9.0.a.b.    c.  d.e.  f.7 g.h.i.j.k.l.m.n.o.n.p.q.r.O s.                  ",
"                        t.u.v.w.x.y.z.A.B.C.D.E.F.{.G.H.I.J.K.L.M.N.A O.P.Q.R.S.T.U.V.W.X.                  ",
"                          Q Y.Z.`.A  +.+++@+#+$+%+>.&+*+=+-+;+>+,+'+)+!+~+{+Q.]+n.^+/+(+Q                   ",
"                            _+:+<+[+}+|+1+2+3+A 4+5+6+7+8+9+0+a+b+c+d+e+f+g+h+i+j+k+l+m+n+                  ",
"                              o+p+q+r+s+t+u+K.v+w+x+y+z+A+B+C+D+E+F+G+H+I+J+K+L+M+N+O+P+                    ",
"                                Q+R+S+T+U+V+W+X+Y+Z+'.`+ @.@+@@@#@$@%@&@*@=@-@;@>@,@'@                      ",
"                                  )@!@~@{@]@^@A /@(@_@:@<@[@}@|@1@2@3@4@5@6@7@8@9@0@a@b@                    ",
"                                    c@!@d@A e@s+f@g@S.2 h@i@j@k@l@m@n@o@p@q@r@s@A t@u@v@                    ",
"                                      w@x@y@z@7 v@A@2 B@C@D@E@F@G@H@I@J@K@L@M@A N@O@$+                      ",
"                                        R P@Q@y R@!.S.S.S.Q.S@T@U@V@W@X@Y@Z@`@ #.#+#                        ",
"                                      @###$#%#&#*#=#S.S.S.-#R.;#>#,#'#)#!#~#{#]#^#/#                        ",
"                                        (#!._#:#<#[#'.2 S.S.R.Q.}#|#1#2#3#4#5#6#7#8#                        ",
"                                      9#0#a#b#c#d#e#U f#S.S.S.S.g#Q.h#i#j#k#l#m#n#                          ",
"                                        o#p#q#7+r#s#t#u#2+S.S.S.-#A v#w#x#y#z#A#B#                          ",
"                                        C#D#A |+!.E#F#:#G#H#I#S.S.J#K#L#M#N#O#S P#Q#              ^ R#S#T#  ",
"                                      U#V#W#X#!.S.Y#2+Z#`# $.$S.+$@$#$$$%$&$*$=$-$              ;$>$,$'$)$  ",
"                                    !$d./.{.~${$]$S.2 ^$/$e#($'._$:$<$[$8@}$|$1$5+2$          3$4$5$6$7$8$  ",
"                              9$    0$a$b$c$d$e$f$*#S.*#g$/$5+f h$i$j$k$7+l$A B m$n$        o$p$q$r$s$t$u$v$",
"                              w$        x$y$z$A$B$C$H#]$2 H#D$E$G.F$G$]+H$I$J$K$L$M$        N$O$P$Q$R$S$T$  ",
"                              U$        V$W$X$Y$Z$`$ %.%z++%z+@%#%Z#$%=#%%&%*%A =%-%;%    >%,%'%A )%!%~%    ",
"                              w$        {%]%^%/%(%_%:%<%S@[%}%H#g@V#&#|%A 1%2%3%4%5%6%7%8%9%0%A a%b%c%      ",
"                              d%e%f%    g%h%i%j%k%l%m%n%o%p%q% $r%s%t%u%v%w%x%y%z%A%B%/.l C%D%E%F%G%H%      ",
"                                I%J%K%      L%  M%N%P O%              P%Q%R%S%T%U%V%W%t.X%H#Y%0${.P         ",
"                        Z%`%       &w$.&          %+a.                  +&Q@@&#&!.=+$&%&&&]+<#R }           ",
"                          I%        I%w$*&                                =&-&;&>&K.]+,&'&#%)&!&            ",
"                          e%          ~&d%Z%                                2${&]&^&/&(&_&Q@5+              ",
"                          :&:&            <&e%  <&[&                          }&T |&1&2&A 3&                ",
"                          :&:&:&          ~&d%    4&                              5&6&7&*#8&                ",
"                    4&J%    :&:&:&                                                  /.9&0&a&                ",
"                    :&          :&:&J%`%:&                                            b&>.c&                ",
"                      I%          :&                                                    e d&                ",
"                    :&w$                                                                  )@                ",
"                      Z%J%  :&e%                                                                            ",
"                        Z%                                                                                  ",
"                                                                                                            ",
"                                                                                                            ",
"                                                                                                            ",
"                                                                                                            ",
"                                                                                                            ",
"                                                                                                            "};
