/* XPM */
static char * nave2_11_xpm[] = {
"54 50 649 2",
"  	c None",
". 	c #32327D",
"+ 	c #333372",
"@ 	c #32327C",
"# 	c #36364E",
"$ 	c #2E2F95",
"% 	c #2F3092",
"& 	c #2424C6",
"* 	c #1417E8",
"= 	c #2425CB",
"- 	c #323278",
"; 	c #0B0FF2",
"> 	c #0004FF",
", 	c #191EEE",
"' 	c #2D2EAA",
") 	c #343472",
"! 	c #343476",
"~ 	c #1F21D2",
"{ 	c #0005FB",
"] 	c #0E15F5",
"^ 	c #2729C9",
"/ 	c #323279",
"( 	c #333281",
"_ 	c #313184",
": 	c #2B2BAA",
"< 	c #2526C1",
"[ 	c #2829B6",
"} 	c #0609F8",
"| 	c #0206FE",
"1 	c #1D20E7",
"2 	c #2E2FA6",
"3 	c #33327B",
"4 	c #323280",
"5 	c #2B2BAC",
"6 	c #2021D1",
"7 	c #080BF8",
"8 	c #0109FB",
"9 	c #2C2CA7",
"0 	c #2324C9",
"a 	c #0307FC",
"b 	c #1016F8",
"c 	c #2829C7",
"d 	c #2F3288",
"e 	c #2E3287",
"f 	c #292CA9",
"g 	c #1D20D5",
"h 	c #0D10F1",
"i 	c #0003FF",
"j 	c #060CF7",
"k 	c #1D1FD6",
"l 	c #303090",
"m 	c #2929B5",
"n 	c #040DF7",
"o 	c #0209FF",
"p 	c #1C1FEE",
"q 	c #2E2EA8",
"r 	c #27338B",
"s 	c #293087",
"t 	c #53376C",
"u 	c #3D2FBB",
"v 	c #030AF7",
"w 	c #0000FF",
"x 	c #1516EA",
"y 	c #1E20D4",
"z 	c #2B2CA7",
"A 	c #353560",
"B 	c #34336F",
"C 	c #2121D0",
"D 	c #0204FC",
"E 	c #0E15F4",
"F 	c #2728CC",
"G 	c #522B73",
"H 	c #6F224F",
"I 	c #843300",
"J 	c #78487F",
"K 	c #261BEB",
"L 	c #171ED9",
"M 	c #2F3097",
"N 	c #30318B",
"O 	c #333377",
"P 	c #34346E",
"Q 	c #2E2FA8",
"R 	c #2A2BCF",
"S 	c #0D0FF8",
"T 	c #080CFB",
"U 	c #1D20E5",
"V 	c #2E2EA2",
"W 	c #7E104F",
"X 	c #8C0000",
"Y 	c #80153A",
"Z 	c #66396A",
"` 	c #3C3595",
" .	c #2E3188",
"..	c #30308C",
"+.	c #2223D3",
"@.	c #2023EA",
"#.	c #1114F6",
"$.	c #2324ED",
"%.	c #2527EF",
"&.	c #2223D0",
"*.	c #333375",
"=.	c #119DE8",
"-.	c #1627C4",
";.	c #681790",
">.	c #731F49",
",.	c #3F307C",
"'.	c #3A3380",
").	c #283085",
"!.	c #2425C4",
"~.	c #0108FA",
"{.	c #0000FE",
"].	c #1818F5",
"^.	c #3434DF",
"/.	c #0105FA",
"(.	c #292AAF",
"_.	c #119CE8",
":.	c #119EEA",
"<.	c #119CE7",
"[.	c #3A3084",
"}.	c #17348C",
"|.	c #30308E",
"1.	c #1316E7",
"2.	c #090CFA",
"3.	c #1B1CF0",
"4.	c #1113F7",
"5.	c #0001FD",
"6.	c #119CE6",
"7.	c #333376",
"8.	c #1D1FD7",
"9.	c #181AF0",
"0.	c #2829E3",
"a.	c #161AF1",
"b.	c #0207FD",
"c.	c #1314EC",
"d.	c #2E2E9B",
"e.	c #2C2DA2",
"f.	c #1F20D3",
"g.	c #191BE1",
"h.	c #2F2F98",
"i.	c #1E1FD7",
"j.	c #0001FF",
"k.	c #1519F2",
"l.	c #070EF8",
"m.	c #0004FE",
"n.	c #1C1ED9",
"o.	c #2B2CA9",
"p.	c #0C0DF4",
"q.	c #1B1EE5",
"r.	c #1419EB",
"s.	c #282AB7",
"t.	c #333478",
"u.	c #323182",
"v.	c #313087",
"w.	c #119BE6",
"x.	c #2F309A",
"y.	c #2226C9",
"z.	c #0F0CED",
"A.	c #0000FA",
"B.	c #0E12F2",
"C.	c #161BE5",
"D.	c #2325C6",
"E.	c #33337C",
"F.	c #0106FD",
"G.	c #0F15F6",
"H.	c #0009FE",
"I.	c #1318E7",
"J.	c #31318A",
"K.	c #332875",
"L.	c #313389",
"M.	c #109DE8",
"N.	c #353553",
"O.	c #343473",
"P.	c #343374",
"Q.	c #2E2A96",
"R.	c #2300C8",
"S.	c #031DF6",
"T.	c #1523E8",
"U.	c #2900A8",
"V.	c #2828B4",
"W.	c #2729B9",
"X.	c #2B2CAA",
"Y.	c #2325C3",
"Z.	c #040AF9",
"`.	c #0006FE",
" +	c #0007FB",
".+	c #0A11F2",
"++	c #2929B3",
"@+	c #343A6F",
"#+	c #2F5B95",
"$+	c #257CBD",
"%+	c #30668C",
"&+	c #39352F",
"*+	c #119CE5",
"=+	c #322B7F",
"-+	c #2900B2",
";+	c #193EDB",
">+	c #1365EA",
",+	c #1283F2",
"'+	c #2893D6",
")+	c #3036B6",
"!+	c #0F14EA",
"~+	c #080CF8",
"{+	c #1719E5",
"]+	c #30308D",
"^+	c #2122CF",
"/+	c #0007FD",
"(+	c #000AFA",
"_+	c #0107FC",
":+	c #1E1BD7",
"<+	c #313885",
"[+	c #2E6B99",
"}+	c #1997DC",
"|+	c #2484C1",
"1+	c #354A61",
"2+	c #119AE4",
"3+	c #2700B6",
"4+	c #1C36D6",
"5+	c #034BF9",
"6+	c #0D9EF2",
"7+	c #2898E9",
"8+	c #2AAEDF",
"9+	c #3D8ECA",
"0+	c #2937E6",
"a+	c #191CDF",
"b+	c #292AB2",
"c+	c #0D0FF4",
"d+	c #0005FE",
"e+	c #0007FC",
"f+	c #0A09F6",
"g+	c #2C26A4",
"h+	c #335575",
"i+	c #208CCB",
"j+	c #1B94D8",
"k+	c #2E6792",
"l+	c #1928E0",
"m+	c #0868F1",
"n+	c #128DF6",
"o+	c #249CEB",
"p+	c #3595D4",
"q+	c #3B62BC",
"r+	c #256EC9",
"s+	c #2852E7",
"t+	c #0915F9",
"u+	c #0006F9",
"v+	c #010CF9",
"w+	c #0009FB",
"x+	c #1317E9",
"y+	c #2A2AB1",
"z+	c #010AFA",
"A+	c #000BFA",
"B+	c #0005FF",
"C+	c #1616E3",
"D+	c #30408D",
"E+	c #2B74A4",
"F+	c #2381C1",
"G+	c #2C629F",
"H+	c #363BC8",
"I+	c #3778DE",
"J+	c #2A8CCF",
"K+	c #3265BA",
"L+	c #221E90",
"M+	c #130055",
"N+	c #000787",
"O+	c #0316EF",
"P+	c #010BF9",
"Q+	c #0008FB",
"R+	c #0103FE",
"S+	c #2123CE",
"T+	c #2426C2",
"U+	c #0107FD",
"V+	c #0009FC",
"W+	c #0D08F2",
"X+	c #2A26AD",
"Y+	c #334176",
"Z+	c #304B8E",
"`+	c #2F3692",
" @	c #2D2CA1",
".@	c #2D24B8",
"+@	c #2437E4",
"@@	c #0034A5",
"#@	c #3D2456",
"$@	c #695E28",
"%@	c #655C00",
"&@	c #1D1A00",
"*@	c #0000B8",
"=@	c #010BFB",
"-@	c #010BFA",
";@	c #010BF8",
">@	c #010CF8",
",@	c #0108FC",
"'@	c #1416EB",
")@	c #2F3093",
"!@	c #2525C5",
"~@	c #0303FD",
"{@	c #1F1DD3",
"]@	c #32317F",
"^@	c #332D78",
"/@	c #322D80",
"(@	c #2324C8",
"_@	c #1316E8",
":@	c #0000FD",
"<@	c #231BEB",
"[@	c #635B98",
"}@	c #A09400",
"|@	c #C4B700",
"1@	c #BFB204",
"2@	c #444007",
"3@	c #00007A",
"4@	c #0006EC",
"5@	c #010CFF",
"6@	c #1C1FD9",
"7@	c #2727BC",
"8@	c #0E11F2",
"9@	c #0007FE",
"0@	c #0005FD",
"a@	c #050AF9",
"b@	c #292BAF",
"c@	c #34346C",
"d@	c #30318A",
"e@	c #302987",
"f@	c #292AB3",
"g@	c #0205FA",
"h@	c #0D15ED",
"i@	c #484697",
"j@	c #A1964C",
"k@	c #E0D100",
"l@	c #F3E205",
"m@	c #F2E00A",
"n@	c #AEA100",
"o@	c #322E48",
"p@	c #0000C3",
"q@	c #1B1EDA",
"r@	c #0008FA",
"s@	c #0004FC",
"t@	c #1619F7",
"u@	c #2022DB",
"v@	c #313982",
"w@	c #2C3AAB",
"x@	c #1F21E7",
"y@	c #100FFB",
"z@	c #000CEC",
"A@	c #484668",
"B@	c #9F9300",
"C@	c #E4D406",
"D@	c #F5E409",
"E@	c #F6E60A",
"F@	c #C3B503",
"G@	c #564F00",
"H@	c #00008A",
"I@	c #0109F2",
"J@	c #0102FE",
"K@	c #2021D2",
"L@	c #2828B7",
"M@	c #0F13FA",
"N@	c #3638D7",
"O@	c #3C3CB8",
"P@	c #303692",
"Q@	c #2D70A9",
"R@	c #2A94CA",
"S@	c #2962E3",
"T@	c #0C1AFB",
"U@	c #3333D2",
"V@	c #787168",
"W@	c #C7B900",
"X@	c #F3E20E",
"Y@	c #F0E009",
"Z@	c #E4D409",
"`@	c #BDAF07",
" #	c #575000",
".#	c #000000",
"+#	c #0003B7",
"@#	c #0008FC",
"##	c #1115ED",
"$#	c #2E2E9D",
"%#	c #2223C9",
"&#	c #1214F7",
"*#	c #282AE1",
"=#	c #3334B7",
"-#	c #342B77",
";#	c #2B30B3",
">#	c #1A6CE9",
",#	c #0688FB",
"'#	c #1238F6",
")#	c #0902F0",
"!#	c #353477",
"~#	c #887E2C",
"{#	c #DDCE02",
"]#	c #F6E406",
"^#	c #F1E00A",
"/#	c #D4C408",
"(#	c #AA9D06",
"_#	c #6E6600",
":#	c #302C02",
"<#	c #000081",
"[#	c #0006E9",
"}#	c #010BFF",
"|#	c #0209FA",
"1#	c #2828B8",
"2#	c #2627BC",
"3#	c #0207F9",
"4#	c #34336C",
"5#	c #2A1CAD",
"6#	c #0E18EE",
"7#	c #0030FB",
"8#	c #0000FC",
"9#	c #0004F6",
"0#	c #1311B4",
"a#	c #615930",
"b#	c #C5B700",
"c#	c #F3E200",
"d#	c #EEDD00",
"e#	c #DCCC09",
"f#	c #A39707",
"g#	c #8C8207",
"h#	c #5B5402",
"i#	c #1A1750",
"j#	c #0106CE",
"k#	c #181BE2",
"l#	c #1B1DDC",
"m#	c #1A1CE0",
"n#	c #313084",
"o#	c #2F1D97",
"p#	c #2433C8",
"q#	c #0503F7",
"r#	c #0007FA",
"s#	c #010DFF",
"t#	c #0000D8",
"u#	c #1E1A56",
"v#	c #81784E",
"w#	c #BBAE42",
"x#	c #B1A400",
"y#	c #8D8304",
"z#	c #857B00",
"A#	c #7C7303",
"B#	c #4C4500",
"C#	c #100F14",
"D#	c #0C0D90",
"E#	c #040DF5",
"F#	c #1C20D6",
"G#	c #2E2E9A",
"H#	c #1015ED",
"I#	c #2122CE",
"J#	c #31318C",
"K#	c #32327F",
"L#	c #342E73",
"M#	c #2E3FA3",
"N#	c #1863EE",
"O#	c #0031FF",
"P#	c #0000F9",
"Q#	c #010AF9",
"R#	c #0006F3",
"S#	c #00008F",
"T#	c #2E2CD3",
"U#	c #5952B3",
"V#	c #2B284F",
"W#	c #554F00",
"X#	c #585100",
"Y#	c #423C37",
"Z#	c #1E1A80",
"`#	c #0609AD",
" $	c #1619D8",
".$	c #0C12FA",
"+$	c #0309FA",
"@$	c #161AE4",
"#$	c #1B1CDD",
"$$	c #0609F5",
"%$	c #2D2E9E",
"&$	c #322F83",
"*$	c #304B92",
"=$	c #2499D5",
"-$	c #0F85F7",
";$	c #0028FC",
">$	c #0001FA",
",$	c #000CF8",
"'$	c #000AFF",
")$	c #0510FC",
"!$	c #0000F0",
"~$	c #0F10BC",
"{$	c #3C3794",
"]$	c #07076E",
"^$	c #28266D",
"/$	c #1617CC",
"($	c #1014F3",
"_$	c #090FFC",
":$	c #0D11F2",
"<$	c #1F20F1",
"[$	c #3332DE",
"}$	c #1516F8",
"|$	c #2426CC",
"1$	c #322D7F",
"2$	c #33327A",
"3$	c #326EA9",
"4$	c #2962DB",
"5$	c #1919E6",
"6$	c #0803F8",
"7$	c #2427E7",
"8$	c #1D20F0",
"9$	c #1313EB",
"0$	c #1C1CCA",
"a$	c #2726BB",
"b$	c #0209FE",
"c$	c #0105FF",
"d$	c #0D11F1",
"e$	c #191CDE",
"f$	c #323282",
"g$	c #161AE3",
"h$	c #0006FA",
"i$	c #2D2DE3",
"j$	c #3132DF",
"k$	c #181CF6",
"l$	c #1C1FE3",
"m$	c #303098",
"n$	c #313284",
"o$	c #32287C",
"p$	c #363581",
"q$	c #383495",
"r$	c #2D1EA5",
"s$	c #3032B8",
"t$	c #3D3DCD",
"u$	c #2021CE",
"v$	c #2B2CBC",
"w$	c #2325C9",
"x$	c #070BF8",
"y$	c #1A1BE0",
"z$	c #2325C8",
"A$	c #1115EE",
"B$	c #0B10F3",
"C$	c #2B2CA8",
"D$	c #31318D",
"E$	c #303093",
"F$	c #0E13F0",
"G$	c #1015F6",
"H$	c #1E20EF",
"I$	c #070DFA",
"J$	c #1217F9",
"K$	c #292AC7",
"L$	c #31327A",
"M$	c #313187",
"N$	c #34346F",
"O$	c #373778",
"P$	c #363792",
"Q$	c #2F2F8A",
"R$	c #33337B",
"S$	c #2E2F96",
"T$	c #2527C0",
"U$	c #2C2CA4",
"V$	c #2D2F9F",
"W$	c #2425C7",
"X$	c #1315E8",
"Y$	c #040DF6",
"Z$	c #050BF9",
"`$	c #040EF9",
" %	c #1E20E5",
".%	c #2F2F9D",
"+%	c #333474",
"@%	c #323285",
"#%	c #33327F",
"$%	c #333477",
"%%	c #313285",
"&%	c #2C2DA4",
"*%	c #070EF3",
"=%	c #0E12F7",
"-%	c #1317F3",
";%	c #2A2BC0",
">%	c #353568",
",%	c #2828BA",
"'%	c #3134DD",
")%	c #191BF4",
"!%	c #060CFE",
"~%	c #2022E4",
"{%	c #303097",
"]%	c #292ACA",
"^%	c #3435BC",
"/%	c #2224DD",
"(%	c #1217F6",
"_%	c #282AC8",
":%	c #313186",
"<%	c #353565",
"[%	c #292BAE",
"}%	c #0509F6",
"|%	c #040CFD",
"1%	c #1E22E2",
"2%	c #2E2FA1",
"3%	c #33337A",
"4%	c #333379",
"5%	c #323284",
"6%	c #1A1CDE",
"7%	c #0002FF",
"8%	c #1418F4",
"9%	c #2B2BBA",
"0%	c #2F2FA3",
"a%	c #2E2FAC",
"b%	c #2629BA",
"c%	c #0D12EF",
"d%	c #050DFD",
"e%	c #1F21E9",
"f%	c #302F9B",
"g%	c #36354C",
"h%	c #353562",
"i%	c #292AB1",
"j%	c #0F12F3",
"k%	c #1A1DE7",
"l%	c #2A2BAE",
"m%	c #1519E5",
"n%	c #0810FA",
"o%	c #2224CF",
"p%	c #293082",
"q%	c #2A2BA8",
"r%	c #1E20D5",
"s%	c #0103FD",
"t%	c #090FF6",
"u%	c #2C2CA2",
"v%	c #0B0DF4",
"w%	c #0E12F0",
"x%	c #2B2BAD",
"y%	c #313185",
"z%	c #303558",
"A%	c #23337E",
"B%	c #523A69",
"C%	c #4537AE",
"D%	c #100CF7",
"E%	c #0C10F5",
"F%	c #1C1FDA",
"G%	c #292BB1",
"H%	c #35364F",
"I%	c #36364F",
"J%	c #552C60",
"K%	c #67245E",
"L%	c #812C28",
"M%	c #6F4197",
"N%	c #2C21EA",
"O%	c #0F1BE0",
"P%	c #2B2CAE",
"Q%	c #313180",
"R%	c #35355A",
"S%	c #3D24B4",
"T%	c #7B145E",
"U%	c #8D0000",
"V%	c #832151",
"W%	c #633494",
"X%	c #3431A9",
"Y%	c #2D308C",
"Z%	c #363651",
"`%	c #3528AE",
" &	c #6C119D",
".&	c #75166B",
"+&	c #4527A4",
"@&	c #2F2F94",
"#&	c #2F3468",
"                                                                                                            ",
"                                                                                                            ",
"                                                                                                            ",
"                              .                                                                             ",
"                              + @                                                                           ",
"                            # $ %                                                                           ",
"                            & * = -                                                                         ",
"                            ; > , '                                                                         ",
"                        ) ! ~ { ] ^ /                                                                       ",
"                    ( _ : < [ } | 1 2                                                                       ",
"                3 4 5 6 7 8 9 0 a b c +                                                                     ",
"            d e f g h i j k l m n o p q                                                                     ",
"        r s t u v w x y z 4 A B C D E F                                                                     ",
"        G H I J K L M N O 4 P Q R S T U V                                                                   ",
"        W X Y Z `  .!       ..+.@.#.$.%.&.*.                                                  =.            ",
"      -.;.>.,.'.).            !.~.{.].^./.(.                          _.          :.          <.            ",
"          [.}.                |.1.2.3.4.5.k                             6.          :.                      ",
"                              7.8.9.0.a.b.c.d.e.f.g.                    6.          :.                      ",
"                            P h.i.j.k.l.m.w n.o.p.> q.r.s.t.u.v.          w.          :.                    ",
"                            + x.y.z.A.w B.C.D.E.8.F.G.H.I.J.K.L.          M.          :.                    ",
"                          N.O.P.Q.R.S.T.U.V.W.X.Y.Z.`. +.+++@+#+$+%+&+      *+                              ",
"                            =+-+;+>+,+'+)+!+~+{+]+^+/+(+_+:+<+[+}+|+1+      6.2+                            ",
"                          3+4+5+6+7+8+9+0+{./+i a+b+c+d+e+f+g+h+i+j+k+        6.                            ",
"                        l+m+n+o+p+q+r+s+t+u+v+w+x+y+y z+A+B+C+D+E+F+G+        <.                            ",
"                        H+I+J+K+L+M+N+O+w v+P+Q+R+S+T+U+`.V+W+X+Y+Z+`+                                      ",
"                       @.@+@@@#@$@%@&@*@=@-@;@>@,@'@)@!@b.P+~@{@]@^@/@                                      ",
"                  h.(@_@:@<@[@}@|@1@2@3@4@5@-@P+(+i 6@7@8@9@0@a@b@c@d@                                      ",
"                e@f@g@w h@i@j@k@l@m@n@o@p@V+P+P+P+w+* 9 q@r@s@t@u@                                          ",
"                v@w@x@y@z@A@B@C@D@E@F@G@H@I@5@;@P+e+J@K@L@d+M@N@O@                                          ",
"              P@Q@R@S@T@U@V@W@X@Y@Z@`@ #.#+#-@-@P+>@@###$#%#&#*#=#                                          ",
"            -#;#>#,#'#)#!#~#{#]#^#/#(#_#:#<#[#}#P+z+> |#1#2#3#,@                                            ",
"            4#5#6#7#8#9#0#a#b#c#d#e#f#g#h#i#j#V+(+A+k#< $ % l#m#                                            ",
"          n#o#p#q#r#A+s#t#u#v#w#x#y#z#A#B#C#D#E#n F#G#D.H#I#J#K#                                            ",
"          L#M#N#O#P#Q#-@R#S#T#U#V#W#X#Y#Z#`# $.$+$@$#$j.{ $$%$                                              ",
"          &$*$=$-$;$>$,$'$)$@#!$~${$]$^$/$($_$j.:$8 j.<$[$}$|$                                              ",
"          1$2$3$4$5$6$w { 7$8$j.:@9$0$a$b$c$d$e$f$g$h$i$j$k$l$m$                                            ",
"          n$o$p$q$r$s$t$u$v$w$x$y$z$A$i B$8.C$D$E$F$w G$H$I$J$K$                                            ",
"              L$M$N$O$P$Q$R$S$T$4     8.U$@ *.R$V$W$X$Y$Z$8#`$ %.%                                          ",
"                    -       +%              @%#%$%%%&%*%w =%5.-%;%                                          ",
"                                                    >%,%t@'%)%!%~%{%                                        ",
"                                                        ]%^%/%w (%_%                                        ",
"                                                        :%<%[%}%|%1%2%                                      ",
"                                                        3%4%5%6%7%8%9%                                      ",
"                                                        @ 0%a%b%c%d%e%f%                                    ",
"                                                  g%h%i%^+j%k%l%m%i n%o%                                    ",
"                                                p%q%r%~+s%t%* M$u%v%w%x%y%                                  ",
"                                          z%A%B%C%D%w E%F%G%N H%    e.I%4%-                                 ",
"                                          J%K%L%M%N%O%P%Q%R%                                                ",
"                                        S%T%U%V%W%X%Y%Z%                                                    ",
"                                        `% &.&+&@&#&                                                        "};
