/* XPM */
static char * nave1_2_xpm[] = {
"54 50 401 2",
"  	c None",
". 	c #2C3838",
"+ 	c #3E3636",
"@ 	c #6B2727",
"# 	c #582F2F",
"$ 	c #333636",
"% 	c #343636",
"& 	c #273939",
"* 	c #6A2525",
"= 	c #890303",
"- 	c #7E1717",
"; 	c #533030",
"> 	c #333535",
", 	c #4B3939",
"' 	c #891010",
") 	c #860202",
"! 	c #583030",
"~ 	c #373737",
"{ 	c #2F2F2F",
"] 	c #454343",
"^ 	c #6B5555",
"/ 	c #824848",
"( 	c #6D2C2C",
"_ 	c #2D3939",
": 	c #343737",
"< 	c #343434",
"[ 	c #333232",
"} 	c #626565",
"| 	c #707373",
"1 	c #635858",
"2 	c #453C3C",
"3 	c #273636",
"4 	c #383838",
"5 	c #333333",
"6 	c #363636",
"7 	c #515151",
"8 	c #737373",
"9 	c #6A6A6A",
"0 	c #414343",
"a 	c #353535",
"b 	c #393939",
"c 	c #2E2E2E",
"d 	c #4F4F4F",
"e 	c #6B6B6B",
"f 	c #6D6D6D",
"g 	c #535353",
"h 	c #3C3C3C",
"i 	c #474747",
"j 	c #414141",
"k 	c #3B3B3B",
"l 	c #6C6C6C",
"m 	c #707070",
"n 	c #565656",
"o 	c #575757",
"p 	c #5A5A5A",
"q 	c #646464",
"r 	c #5E5E5E",
"s 	c #484848",
"t 	c #636363",
"u 	c #393838",
"v 	c #545454",
"w 	c #717171",
"x 	c #616161",
"y 	c #454545",
"z 	c #3D3D3D",
"A 	c #3F3F3F",
"B 	c #4D4D4D",
"C 	c #5B5B5B",
"D 	c #4A4A4A",
"E 	c #343535",
"F 	c #403D3D",
"G 	c #453F3F",
"H 	c #4F4C4C",
"I 	c #666565",
"J 	c #727272",
"K 	c #686868",
"L 	c #4B4B4B",
"M 	c #6E6E6E",
"N 	c #3E3E3E",
"O 	c #3C3A3A",
"P 	c #3B3A3A",
"Q 	c #3F3C3C",
"R 	c #4A4444",
"S 	c #4D4646",
"T 	c #514B4A",
"U 	c #636061",
"V 	c #747474",
"W 	c #737372",
"X 	c #555555",
"Y 	c #5D5D5D",
"Z 	c #3F3E3E",
"` 	c #464141",
" .	c #443F3E",
"..	c #413C3D",
"+.	c #4A4343",
"@.	c #3C363B",
"#.	c #39323B",
"$.	c #423B37",
"%.	c #343540",
"&.	c #616264",
"*.	c #505050",
"=.	c #676767",
"-.	c #666666",
";.	c #4C4C4C",
">.	c #595959",
",.	c #3A3A3A",
"'.	c #353636",
").	c #3D3C3C",
"!.	c #4D4A4A",
"~.	c #4C4747",
"{.	c #312E32",
"].	c #302C28",
"^.	c #443F27",
"/.	c #000017",
"(.	c #70681F",
"_.	c #7E7519",
":.	c #3D3806",
"<.	c #30323B",
"[.	c #636364",
"}.	c #494949",
"|.	c #5C5C5C",
"1.	c #696969",
"2.	c #484747",
"3.	c #4F4D4D",
"4.	c #484646",
"5.	c #3C3B3B",
"6.	c #474545",
"7.	c #555151",
"8.	c #423F3F",
"9.	c #07061C",
"0.	c #474100",
"a.	c #6B630B",
"b.	c #6C6301",
"c.	c #CFC001",
"d.	c #DACB08",
"e.	c #A89C00",
"f.	c #585000",
"g.	c #444443",
"h.	c #6A6B6C",
"i.	c #424242",
"j.	c #585858",
"k.	c #757575",
"l.	c #757676",
"m.	c #6E6F6F",
"n.	c #565353",
"o.	c #575353",
"p.	c #454444",
"q.	c #3A3939",
"r.	c #464444",
"s.	c #514E4E",
"t.	c #4B4748",
"u.	c #212029",
"v.	c #3C3700",
"w.	c #736B00",
"x.	c #948906",
"y.	c #C4B607",
"z.	c #F4E209",
"A.	c #F7E609",
"B.	c #EBD907",
"C.	c #ADA018",
"D.	c #666457",
"E.	c #434343",
"F.	c #626262",
"G.	c #6B6A6A",
"H.	c #534F4F",
"I.	c #434141",
"J.	c #403F3F",
"K.	c #514D4D",
"L.	c #524D4D",
"M.	c #343132",
"N.	c #04030E",
"O.	c #534C00",
"P.	c #847A05",
"Q.	c #A09507",
"R.	c #C7B808",
"S.	c #EDDC09",
"T.	c #F2E109",
"U.	c #EBDA06",
"V.	c #BAAD0A",
"W.	c #00003F",
"X.	c #656569",
"Y.	c #303030",
"Z.	c #6F6F6F",
"`.	c #615E5E",
" +	c #585454",
".+	c #4E4B4B",
"++	c #545151",
"@+	c #393636",
"#+	c #000000",
"$+	c #2D2900",
"%+	c #6F6702",
"&+	c #908606",
"*+	c #AA9F07",
"=+	c #E7D709",
"-+	c #F0DF09",
";+	c #ECDB05",
">+	c #AFA200",
",+	c #5A5639",
"'+	c #6B6A69",
")+	c #444444",
"!+	c #676868",
"~+	c #5F5C5C",
"{+	c #494646",
"]+	c #555252",
"^+	c #464344",
"/+	c #1A1822",
"(+	c #514B02",
"_+	c #A19605",
":+	c #F4E309",
"<+	c #F3E209",
"[+	c #CABC13",
"}+	c #7C753C",
"|+	c #555656",
"1+	c #323232",
"2+	c #4C4949",
"3+	c #4D4B4B",
"4+	c #3C3939",
"5+	c #474242",
"6+	c #504A4A",
"7+	c #443F40",
"8+	c #1B181C",
"9+	c #131200",
"0+	c #7D7400",
"a+	c #D7C807",
"b+	c #F7E60A",
"c+	c #E9D906",
"d+	c #AA9E00",
"e+	c #333022",
"f+	c #4B4C53",
"g+	c #555554",
"h+	c #4C4545",
"i+	c #4F4848",
"j+	c #524C4C",
"k+	c #514949",
"l+	c #4C4544",
"m+	c #2F2A31",
"n+	c #00000F",
"o+	c #484300",
"p+	c #A29604",
"q+	c #ADA100",
"r+	c #5E5700",
"s+	c #303342",
"t+	c #656667",
"u+	c #656565",
"v+	c #393737",
"w+	c #494242",
"x+	c #4E4646",
"y+	c #4E4747",
"z+	c #4B4445",
"A+	c #312C33",
"B+	c #020208",
"C+	c #393500",
"D+	c #4F4900",
"E+	c #131A34",
"F+	c #5F6061",
"G+	c #404040",
"H+	c #676666",
"I+	c #525252",
"J+	c #403C3C",
"K+	c #474141",
"L+	c #4C4646",
"M+	c #4F4847",
"N+	c #504949",
"O+	c #453F40",
"P+	c #1A1621",
"Q+	c #23242B",
"R+	c #6E6E6D",
"S+	c #535454",
"T+	c #363333",
"U+	c #433E3E",
"V+	c #4C4444",
"W+	c #4D4545",
"X+	c #494343",
"Y+	c #555454",
"Z+	c #363939",
"`+	c #363737",
" @	c #2E3939",
".@	c #2D2D2D",
"+@	c #464646",
"@@	c #4A4949",
"#@	c #413E3E",
"$@	c #5B5656",
"%@	c #6D6C6C",
"&@	c #303939",
"*@	c #373838",
"=@	c #563131",
"-@	c #781C1C",
";@	c #513131",
">@	c #494A4A",
",@	c #3B3737",
"'@	c #484242",
")@	c #565757",
"!@	c #223B3B",
"~@	c #582C2C",
"{@	c #811414",
"]@	c #870D0D",
"^@	c #612B2B",
"/@	c #444040",
"(@	c #4B4545",
"_@	c #494848",
":@	c #474646",
"<@	c #7B2F2F",
"[@	c #8C0707",
"}@	c #6B2626",
"|@	c #3F3636",
"1@	c #2A3A3A",
"2@	c #3E3E3F",
"3@	c #5B5B5A",
"4@	c #6F6F6E",
"5@	c #404141",
"6@	c #343232",
"7@	c #3F3A3A",
"8@	c #414040",
"9@	c #535050",
"0@	c #545050",
"a@	c #383737",
"b@	c #3C3D3D",
"c@	c #5A5656",
"d@	c #7E5959",
"e@	c #793838",
"f@	c #323939",
"g@	c #383839",
"h@	c #383735",
"i@	c #35322C",
"j@	c #37393C",
"k@	c #514E49",
"l@	c #696865",
"m@	c #525151",
"n@	c #3E3D3D",
"o@	c #575454",
"p@	c #595757",
"q@	c #6F7070",
"r@	c #6B6868",
"s@	c #504747",
"t@	c #293434",
"u@	c #119AE4",
"v@	c #3A2200",
"w@	c #32597B",
"x@	c #2B628D",
"y@	c #30455B",
"z@	c #484643",
"A@	c #646361",
"B@	c #4A4848",
"C@	c #5B5858",
"D@	c #6C6B6B",
"E@	c #717272",
"F@	c #4E5151",
"G@	c #119BE5",
"H@	c #1095DD",
"I@	c #383B40",
"J@	c #2482BF",
"K@	c #1D90D4",
"L@	c #2977AD",
"M@	c #2F4E6B",
"N@	c #3E3F40",
"O@	c #5A5958",
"P@	c #474444",
"Q@	c #504D4D",
"R@	c #595555",
"S@	c #686666",
"T@	c #606060",
"U@	c #374350",
"V@	c #2D6B99",
"W@	c #1D90D5",
"X@	c #149BE6",
"Y@	c #277CB4",
"Z@	c #313F4D",
"`@	c #5F5F5F",
" #	c #434040",
".#	c #4E4A4A",
"+#	c #626060",
"@#	c #737272",
"##	c #109AE4",
"$#	c #119EEA",
"%#	c #37414E",
"&#	c #30628A",
"*#	c #267FB8",
"=#	c #2A76A9",
"-#	c #392F1B",
";#	c #363534",
">#	c #363535",
",#	c #119CE8",
"'#	c #392F1C",
")#	c #34526D",
"!#	c #364657",
"~#	c #392E17",
"{#	c #119EEC",
"]#	c #119DE8",
"^#	c #119BE6",
"/#	c #109EEA",
"(#	c #313131",
"_#	c #1099E3",
":#	c #119AE3",
"<#	c #119DE9",
"[#	c #119EEB",
"}#	c #119CE7",
"|#	c #119BE7",
"1#	c #109AE5",
"2#	c #1097E1",
"3#	c #119EE9",
"4#	c #119DEA",
"                                    . + @ # $                                                               ",
"                                  % & * = - ;                                                               ",
"                                  > , ' ) ! ~                                                               ",
"                                { ] ^ / ( _ :                                                               ",
"                              < [ } | 1 2 3                                     4                           ",
"                            5 6 7 8 9 0 a                             4 ~ ~ b 6 ~ 4 4                       ",
"                          6 c d e f g c 6                           6 h 6 5 i j a ~ 4                       ",
"                          5 k l m n k {                       ~ 4 5 h o p p q r s ~ 6                       ",
"                        6 ~ n 8 t b <                       6 b u 6 v l m w 8 m x y b                       ",
"              4 4 < z o d A B C D { ~                     E 4 F G H I J 8 J J J K A ~                       ",
"              ~ 4 4 L M l o N h 6 6 ~           4 ~   b O P Q R S T U w V W J J q z a 4                     ",
"                  4 j X K l Y i b 5 h b 6 ~ ~ 4 4 ~ 4 Z `  ...+.@.#.$.%.&.w J V l X h ~                     ",
"                    5 z *.=.w -.d ;.>.;.,.6 k '.~ ~ ).!.~.{.].^./.(._.:.<.[.8 J q i 6                       ",
"                      a ,.}.|.e 1.=.m l v 2.3.4.b 5.6.7.8.9.0.a.b.c.d.e.f.g.h.e *.6 <                       ",
"                          < i.j.e J k.l.m.n.o.p.q.r.s.t.u.v.w.x.y.z.A.B.C.D.w e E.< 4                       ",
"                            6 N d F.m J G.o.H.I.J.K.L.M.N.O.P.Q.R.S.T.U.V.W.X.k.r z 4                       ",
"                              Y.4 s Y Z.m `. +.+4.7.++@+#+$+%+&+*+=+-+;+>+,+'+9 d b                         ",
"                                  4 )+n !+~+++4.Z {+]+o.^+/+#+(+_+:+-+<+[+}+x |+k                           ",
"                                    1+h L 2+3+k 4+5+6+7.o.7+8+9+0+a+b+c+d+e+f+g+z                           ",
"                                      a b ).z q.` h+S i+j+k+l+m+n+o+p+q+r+s+t+u+D                           ",
"                                      6 A z Y.v+w+x+x+S S S y+z+A+B+C+D+E+F+J g h                           ",
"                                      G+n H+I+).J+K+L+S S S S M+N+O+P+Q+>.R+F.h ~                           ",
"                                      ,.x V 1.S+u T+U+V+y+S S S S W+X+Y+M t s ~ 6                 Z+  `+ @  ",
"                                      .@+@=.J M F.@@P #@X+S S S S x+$@%@M }.b 4 ~ 6             &@*@=@-@;@  ",
"                                        n Z.V 8 Z.t >@< ,@K+S y+y+'@3.t )@b b '.`+              !@~@{@]@^@  ",
"                                        }.x m J 8 J e p i.O /@h+(@#@6 _@:@p.3.4.u ~           6 4 <@[@}@|@1@",
"                                      ~ 1+2@3@4@V 8 J l |.5@6@7@#@q.8@9@0@0@o.] a@a         Y.b@c@d@e@,@f@  ",
"                                      g@h@i@j@k@l@w 8 8 w =.m@h ~ n@3+n.o.o@p@d ,.6       4 .@o q@r@s@t@    ",
"                              u@      g@v@w@x@y@z@A@w V 8 w 9 X 4 h B@0@o.C@D@l g z 4     6 i.Z.E@F@~ <     ",
"                              G@H@      I@J@K@L@M@N@O@f 8 m m M g 4 ).P@Q@R@S@8 f *.,.4 { )+F.8 T@1+6       ",
"                                        U@V@W@X@Y@Z@~ I+9 C j.`@+@a a ,. #.#+#@#e B < ~ 1+F.8 F.E.{         ",
"                              ##$#        %#&#*#=#-#;#5 y y .@  b     >#u i.j.f l o N ~ +@M M )+a           ",
"                              u@G@,#        '#)#!#~#g@6                   6 E.j.f Z.r i N o g { ~           ",
"                                  G@,#{#            4                       6 A *.q f t L k a 5             ",
"                          $#]#      u@^#/#                                    (#4 }.x m e n i.              ",
"                          G@_#        :#^#<#[#                                    4 )+o 1.=.I+              ",
"                            }#            u@|#$#  1#G@                              1+z *.X z               ",
"                            $#$#            u@}#  2#,#                                a ,.k a               ",
"                            $#$#$#                                                        4 4 4             ",
"                      ]#}#      $#$#$#    3#                                                ~ 6             ",
"                      $#]#        $#$#]#}#4#                                                                ",
"                                                                                                            ",
"                      ]#}#G@                                                                                ",
"                        3#,#^#3#]#                                                                          ",
"                          $#]#                                                                              ",
"                                                                                                            ",
"                                                                                                            ",
"                                                                                                            ",
"                                                                                                            ",
"                                                                                                            "};
