/* XPM */
static char * nave1_3_xpm[] = {
"54 50 422 2",
"  	c None",
". 	c #323232",
"+ 	c #313535",
"@ 	c #313838",
"# 	c #612A2A",
"$ 	c #7A1A1A",
"% 	c #712323",
"& 	c #483333",
"* 	c #2F3737",
"= 	c #343434",
"- 	c #2D2C2C",
"; 	c #393A3A",
"> 	c #4D4646",
", 	c #674343",
"' 	c #8B0E0E",
") 	c #890000",
"! 	c #7C1A1A",
"~ 	c #592E2E",
"{ 	c #383838",
"] 	c #303030",
"^ 	c #363636",
"/ 	c #414141",
"( 	c #606262",
"_ 	c #6D6E6E",
": 	c #785A5A",
"< 	c #7C3838",
"[ 	c #652929",
"} 	c #453535",
"| 	c #363737",
"1 	c #373737",
"2 	c #2F2F2F",
"3 	c #454545",
"4 	c #5A5A5A",
"5 	c #686868",
"6 	c #747474",
"7 	c #6B6C6C",
"8 	c #595454",
"9 	c #4B3C3C",
"0 	c #2D3838",
"a 	c #2F3838",
"b 	c #3C3C3C",
"c 	c #4D4D4D",
"d 	c #555555",
"e 	c #404040",
"f 	c #393939",
"g 	c #4F4F4F",
"h 	c #6D6D6D",
"i 	c #717171",
"j 	c #6A6A6A",
"k 	c #5E5E5E",
"l 	c #484949",
"m 	c #343636",
"n 	c #333434",
"o 	c #424242",
"p 	c #666666",
"q 	c #515151",
"r 	c #444444",
"s 	c #5D5D5D",
"t 	c #707070",
"u 	c #616161",
"v 	c #494949",
"w 	c #2E2D2D",
"x 	c #6B6B6B",
"y 	c #5F5F5F",
"z 	c #3F3F3F",
"A 	c #4B4B4B",
"B 	c #3D3D3D",
"C 	c #333333",
"D 	c #353535",
"E 	c #464646",
"F 	c #636363",
"G 	c #3B3B3B",
"H 	c #565656",
"I 	c #6F6F6F",
"J 	c #656565",
"K 	c #3A3A3A",
"L 	c #696969",
"M 	c #646464",
"N 	c #606060",
"O 	c #727272",
"P 	c #3E3E3E",
"Q 	c #4C4C4C",
"R 	c #676767",
"S 	c #757676",
"T 	c #696A6A",
"U 	c #4E4C4C",
"V 	c #4D4B4B",
"W 	c #414040",
"X 	c #3A3939",
"Y 	c #3C3B3B",
"Z 	c #3C3A3A",
"` 	c #393839",
" .	c #3E3C3C",
"..	c #3D3A3A",
"+.	c #525252",
"@.	c #595959",
"#.	c #706F6F",
"$.	c #646363",
"%.	c #555151",
"&.	c #545151",
"*.	c #464545",
"=.	c #3D3C3C",
"-.	c #484646",
";.	c #484444",
">.	c #45403F",
",.	c #413D3D",
"'.	c #444040",
").	c #4A4444",
"!.	c #514F4F",
"~.	c #605F5F",
"{.	c #605D5D",
"].	c #494646",
"^.	c #454343",
"/.	c #4D4A4A",
"(.	c #53504F",
"_.	c #494444",
":.	c #343134",
"<.	c #393536",
"[.	c #4A4343",
"}.	c #474042",
"|.	c #4B4445",
"1.	c #5D5A5A",
"2.	c #6F6E6E",
"3.	c #737373",
"4.	c #474747",
"5.	c #575858",
"6.	c #5F5C5C",
"7.	c #575353",
"8.	c #4A4848",
"9.	c #424141",
"0.	c #4E4B4B",
"a.	c #524E4E",
"b.	c #4F4B4C",
"c.	c #3F3D40",
"d.	c #25242C",
"e.	c #211D16",
"f.	c #403B1D",
"g.	c #3A3526",
"h.	c #201C2B",
"i.	c #3D3638",
"j.	c #464046",
"k.	c #656567",
"l.	c #757575",
"m.	c #555252",
"n.	c #474545",
"o.	c #4C4949",
"p.	c #565252",
"q.	c #4F4A4B",
"r.	c #312F30",
"s.	c #12121C",
"t.	c #3B3601",
"u.	c #605A00",
"v.	c #706804",
"w.	c #534C07",
"x.	c #80770D",
"y.	c #7F761D",
"z.	c #4E471D",
"A.	c #373943",
"B.	c #6B6B6C",
"C.	c #737372",
"D.	c #413F3F",
"E.	c #494747",
"F.	c #464343",
"G.	c #4A4747",
"H.	c #19171B",
"I.	c #221E00",
"J.	c #665E00",
"K.	c #887E04",
"L.	c #9F9406",
"M.	c #BCAE05",
"N.	c #E0D000",
"O.	c #D8C909",
"P.	c #897F00",
"Q.	c #2E2D29",
"R.	c #5C5D60",
"S.	c #5C5C5C",
"T.	c #3D3B3B",
"U.	c #423D3D",
"V.	c #534F4F",
"W.	c #585454",
"X.	c #3D3B3C",
"Y.	c #1A170E",
"Z.	c #675F01",
"`.	c #928806",
" +	c #B5A808",
".+	c #E0CF09",
"++	c #F9E70A",
"@+	c #F3E207",
"#+	c #BFB100",
"$+	c #514A0D",
"%+	c #4E4F50",
"&+	c #717172",
"*+	c #6E6E6E",
"=+	c #5F5E5E",
"-+	c #656464",
";+	c #383636",
">+	c #464040",
",+	c #4C4545",
"'+	c #504B4B",
")+	c #4D494A",
"!+	c #121021",
"~+	c #302C00",
"{+	c #7F7605",
"]+	c #AA9F07",
"^+	c #E5D509",
"/+	c #F2E109",
"(+	c #F1E006",
"_+	c #CFBF01",
":+	c #837C41",
"<+	c #606061",
"[+	c #6D6E6F",
"}+	c #292929",
"|+	c #4E4646",
"1+	c #524C4C",
"2+	c #50494A",
"3+	c #312C2E",
"4+	c #000000",
"5+	c #6B6400",
"6+	c #CABC07",
"7+	c #F3E209",
"8+	c #F1E008",
"9+	c #E7D603",
"0+	c #B4A809",
"a+	c #242241",
"b+	c #69696C",
"c+	c #6E6E6F",
"d+	c #505050",
"e+	c #616262",
"f+	c #3A3636",
"g+	c #494343",
"h+	c #4D4747",
"i+	c #504848",
"j+	c #4C4544",
"k+	c #211D25",
"l+	c #655E01",
"m+	c #D5C606",
"n+	c #F6E50A",
"o+	c #F5E308",
"p+	c #DCCC02",
"q+	c #8F851E",
"r+	c #4B4B4F",
"s+	c #6D6D6E",
"t+	c #434343",
"u+	c #5B5B5B",
"v+	c #4E4747",
"w+	c #332D36",
"x+	c #00000B",
"y+	c #8D8302",
"z+	c #E7D708",
"A+	c #EADA06",
"B+	c #C2B50A",
"C+	c #857D36",
"D+	c #676660",
"E+	c #686869",
"F+	c #343535",
"G+	c #525253",
"H+	c #4F4847",
"I+	c #463F42",
"J+	c #0F0D1B",
"K+	c #4E4800",
"L+	c #9C9100",
"M+	c #A09500",
"N+	c #70670C",
"O+	c #202333",
"P+	c #525358",
"Q+	c #515252",
"R+	c #119BE5",
"S+	c #1096DF",
"T+	c #38393A",
"U+	c #383736",
"V+	c #35332F",
"W+	c #3F3C39",
"X+	c #626261",
"Y+	c #3F3B3B",
"Z+	c #4E4746",
"`+	c #504949",
" @	c #413B3D",
".@	c #060610",
"+@	c #423D03",
"@@	c #2B2A22",
"#@	c #3A3B44",
"$@	c #57585E",
"%@	c #5E5E5F",
"&@	c #4D4C4B",
"*@	c #1097E1",
"=@	c #3A1D00",
"-@	c #354557",
";@	c #303B49",
">@	c #4E4A45",
",@	c #6D6C6A",
"'@	c #3B3838",
")@	c #474141",
"!@	c #4D4545",
"~@	c #484041",
"{@	c #2F2D34",
"]@	c #3C3C40",
"^@	c #696A69",
"/@	c #109AE4",
"(@	c #119DE9",
"_@	c #325A7D",
":@	c #2878AF",
"<@	c #296795",
"[@	c #39404A",
"}@	c #605E59",
"|@	c #403F3F",
"1@	c #403D3D",
"2@	c #595353",
"3@	c #5F5D5D",
"4@	c #6C6C6B",
"5@	c #686867",
"6@	c #575757",
"7@	c #119BE6",
"8@	c #119DEA",
"9@	c #2F658F",
"0@	c #1F8DD0",
"a@	c #2288C7",
"b@	c #2F5678",
"c@	c #4C4A48",
"d@	c #6B6B6A",
"e@	c #343232",
"f@	c #5D5B5B",
"g@	c #119DE8",
"h@	c #119CE8",
"i@	c #354E67",
"j@	c #2484C2",
"k@	c #149BE6",
"l@	c #2772A6",
"m@	c #353E49",
"n@	c #5A5958",
"o@	c #444242",
"p@	c #3D3939",
"q@	c #433F3F",
"r@	c #504F4F",
"s@	c #585858",
"t@	c #119BE7",
"u@	c #119EEB",
"v@	c #383335",
"w@	c #2F648D",
"x@	c #2484BF",
"y@	c #2B71A2",
"z@	c #32373D",
"A@	c #454544",
"B@	c #535353",
"C@	c #3E3D3D",
"D@	c #454444",
"E@	c #474646",
"F@	c #3F3E3E",
"G@	c #119AE4",
"H@	c #119CE7",
"I@	c #364657",
"J@	c #325B7D",
"K@	c #374553",
"L@	c #382C12",
"M@	c #383837",
"N@	c #6C6C6C",
"O@	c #4A4949",
"P@	c #545050",
"Q@	c #524F4F",
"R@	c #504E4E",
"S@	c #434141",
"T@	c #119EEA",
"U@	c #0F9EEB",
"V@	c #39301F",
"W@	c #313131",
"X@	c #484848",
"Y@	c #4B4848",
"Z@	c #575454",
"`@	c #373636",
" #	c #119FEC",
".#	c #383839",
"+#	c #282828",
"@#	c #424040",
"##	c #504C4C",
"$#	c #605E5E",
"%#	c #626161",
"&#	c #313939",
"*#	c #353939",
"=#	c #119AE5",
"-#	c #484545",
";#	c #666464",
">#	c #717070",
",#	c #1E3A3A",
"'#	c #443232",
")#	c #5A2E2E",
"!#	c #6C2626",
"~#	c #5C2D2D",
"{#	c #323838",
"]#	c #119AE3",
"^#	c #403E3E",
"/#	c #676565",
"(#	c #323333",
"_#	c #3A3C3C",
":#	c #493B3B",
"<#	c #782727",
"[#	c #870808",
"}#	c #880B0B",
"|#	c #632A2A",
"1#	c #119EE9",
"2#	c #1098E2",
"3#	c #626262",
"4#	c #2E2E2E",
"5#	c #5D5E5E",
"6#	c #735C5C",
"7#	c #863F3F",
"8#	c #7E1C1C",
"9#	c #642A2A",
"0#	c #4D3232",
"a#	c #555454",
"b#	c #717373",
"c#	c #6C6868",
"d#	c #664646",
"e#	c #423737",
"f#	c #363838",
"g#	c #2F3939",
"h#	c #5C5E5E",
"i#	c #464848",
"j#	c #3A3B3B",
"k#	c #263232",
"l#	c #545454",
"m#	c #4E4E4E",
"n#	c #2D2D2D",
"o#	c #4A4A4A",
"                                                    . + @ # $ % & *                                         ",
"                                                = - ; > , ' ) ! ~                                           ",
"                              {             = ] ^ / ( _ : < [ } |                                           ",
"                              { { = 1     . 2 3 4 5 6 7 8 9 0 a                                             ",
"                              1 1 b c d e f g h i j k l m n                                                 ",
"                                1 o p h q r s t u v b w =                                                   ",
"                                  b d x y z A g B 2 C                                                       ",
"                                  D E F x q f ^ C 1                                                         ",
"                                    G H I J 3 C D 1                                                         ",
"                                    . o y x d E E K                                                         ",
"                                      { q L j M N E D 1 1                   1       {                       ",
"                                      = o N i 6 O 4 P { 1 { { 1   {     D { { ^ C { f = 1 1                 ",
"                                        ^ Q R 6 S T U V W | 1 1 X Y Z ` f  ...C / q +.z { P ^ 1 {           ",
"                                        C z @.I #.$.%.&.*.f f =.-.;.>.,.'.).).!.~.h j N k q K D {           ",
"                                          1 A 5 i {.%.].=.=.^./.(._.:.<.[.}.|.1.2.3.3.3.t M 4.^ {           ",
"                                          2 b 5.5 6.7.8.9.0.a.b.c.d.e.f.g.h.i.j.k.l.3.O 3.h d K ^           ",
"                                            ^ 3 !.m.0.n.o.p.q.r.s.t.u.v.w.x.y.z.A.B.C.O O j v G 1           ",
"                                            ^ f D.E.B Y F.&.G.H.I.J.K.L.M.N.O.P.Q.R.O 3.t S.^ ^             ",
"                                          b 3 z C f T.U._.V.W.X.Y.Z.`. +.+++@+#+$+%+&+3.*+s z ^             ",
"                                          4.=+-+o ;+>+,+> '+7.)+!+~+{+]+^+/+(+_+:+<+[+5 4 4.K 1             ",
"                                        }+r x t d Z >+|+|+|+1+2+3+4+5+6+7+8+9+0+a+b+c+q b =                 ",
"                                          d+p t e+P f+g+h+> > i+j+k+l+m+n+o+p+q+r+s+3.d+D 1                 ",
"                                        t+y O 6 I u+Z U.,+> > > v+w+x+y+z+A+B+C+D+E+k A { {                 ",
"                                      1 F+G+*+3.O p v Z g+v+> > H+I+J+K+L+M+N+O+P+Q+P { D                   ",
"                            R+S+    T+U+V+W+X+C.3.I H D Y+,+> > Z+`+ @.@+@@@#@$@%@&@^                       ",
"                            *@        =@-@;@>@,@6 3.j g '@)@> > > !@~@{@]@P+^@i N Q                         ",
"                          /@(@        _@:@<@[@}@i 3.I s |@1@,+v+> |+2@3@j 4@5@6@o f                         ",
"                            7@8@      9@0@a@b@c@d@6 3.j l e@>+> g+;.f@*+x H 4.f ^                           ",
"                    g@g@    R+h@      i@j@k@l@m@n@i 6 O F o@p@q@ .^ r@s@l { 1 1 ^                           ",
"                    R+        t@u@    v@w@x@y@z@A@L 3.3.h B@{ X C@D@0.E@e F@F+| ^                           ",
"                    g@        G@H@      I@J@K@L@M@4 N@x t F G G O@&.p.P@Q@R@S@1                             ",
"                    T@T@        7@U@        V@{ W@/ q q u u X@K Y@p.7.Z@W.8.Z `@1                           ",
"            T@g@    T@T@        G@h@ #        .#      +#  3 { ^ @###Z@$#%#c ^ D               &#*#          ",
"              H@      T@T@        =#h@                        n K -#p.;#>#k P ^           `@,#'#)#!#~#{#    ",
"            t@        T@T@        ]#H@                          ;+^#a./#6 x v {       2 (#_#:#<#[#}#|#      ",
"            g@R+        T@1#        7@  2#7@                      K d+j i 3#X@{ 1   D 4#Q 5#6#7#8#9#0#      ",
"            (@t@            H@(@                                  ^ E M h s@G D ] ^ 3 a#I b#c#d#e#f#g#      ",
"              g@  g@H@                                              B 6@I M / ^ { S.j i I h#i#j#k#          ",
"                                                                    C r u x l#b l#O i y m#. F+              ",
"                                                                      { d+x M 3 g k d+K = 4#                ",
"                                                                      = r F t s@f B n#^                     ",
"                                                                        ^ m#L M o#^                         ",
"                                                                        . e @.F +.                          ",
"                                                                          { r 4.f                           ",
"                                                                          D 1 D                             ",
"                                                                            1 {                             ",
"                                                                              ^                             ",
"                                                                                                            ",
"                                                                                                            ",
"                                                                                                            "};
