/* XPM */
static char * nave1_8_xpm[] = {
"54 50 477 2",
"  	c None",
". 	c #119DE9",
"+ 	c #119CE8",
"@ 	c #119BE7",
"# 	c #119CE7",
"$ 	c #119DE8",
"% 	c #119EE9",
"& 	c #119EEA",
"* 	c #119EE8",
"= 	c #119BE6",
"- 	c #119AE5",
"; 	c #119CE6",
"> 	c #119AE4",
", 	c #0D9FED",
"' 	c #0E9FEC",
") 	c #109FEB",
"! 	c #109EEB",
"~ 	c #1098E2",
"{ 	c #1098E3",
"] 	c #1098E1",
"^ 	c #1198E1",
"/ 	c #0F9BE6",
"( 	c #364962",
"_ 	c #364861",
": 	c #364E69",
"< 	c #355875",
"[ 	c #2C70A0",
"} 	c #287EB7",
"| 	c #2A7AB1",
"1 	c #2E6B99",
"2 	c #364A64",
"3 	c #3A2B1D",
"4 	c #37332D",
"5 	c #373735",
"6 	c #315877",
"7 	c #247FB9",
"8 	c #1699E0",
"9 	c #1E88C7",
"0 	c #2874AA",
"a 	c #334F6C",
"b 	c #36302B",
"c 	c #36332E",
"d 	c #32322F",
"e 	c #362E25",
"f 	c #2E455C",
"g 	c #296490",
"h 	c #2671A3",
"i 	c #266C9D",
"j 	c #2A5C83",
"k 	c #324558",
"l 	c #353025",
"m 	c #343434",
"n 	c #3E3E3E",
"o 	c #444443",
"p 	c #45423D",
"q 	c #434241",
"r 	c #42464C",
"s 	c #47505D",
"t 	c #454C56",
"u 	c #47494D",
"v 	c #484746",
"w 	c #4A4845",
"x 	c #4B4A4A",
"y 	c #474747",
"z 	c #3B3B3B",
"A 	c #505050",
"B 	c #606161",
"C 	c #656565",
"D 	c #63615F",
"E 	c #646260",
"F 	c #66635F",
"G 	c #67625D",
"H 	c #666461",
"I 	c #676664",
"J 	c #696969",
"K 	c #626262",
"L 	c #535353",
"M 	c #3F3F3F",
"N 	c #4F4F4F",
"O 	c #616161",
"P 	c #6E6E6E",
"Q 	c #737373",
"R 	c #747474",
"S 	c #737474",
"T 	c #757473",
"U 	c #747473",
"V 	c #757574",
"W 	c #6F6F6F",
"X 	c #656464",
"Y 	c #545353",
"Z 	c #454444",
"` 	c #3C3C3C",
" .	c #606060",
"..	c #6C6C6C",
"+.	c #757575",
"@.	c #727373",
"#.	c #727273",
"$.	c #727272",
"%.	c #727271",
"&.	c #727372",
"*.	c #707070",
"=.	c #6E6D6D",
"-.	c #636262",
";.	c #4F4E4E",
">.	c #3E3D3D",
",.	c #393A3A",
"'.	c #5E5E5E",
").	c #686868",
"!.	c #666666",
"~.	c #636363",
"{.	c #626363",
"].	c #646464",
"^.	c #5D5E5E",
"/.	c #5F6060",
"(.	c #616060",
"_.	c #464646",
":.	c #383838",
"<.	c #313232",
"[.	c #303030",
"}.	c #323232",
"|.	c #313131",
"1.	c #333333",
"2.	c #353535",
"3.	c #2F2F2F",
"4.	c #363636",
"5.	c #373737",
"6.	c #363737",
"7.	c #373636",
"8.	c #343535",
"9.	c #434343",
"0.	c #404040",
"a.	c #474646",
"b.	c #444343",
"c.	c #4A4848",
"d.	c #494949",
"e.	c #3F4040",
"f.	c #464545",
"g.	c #474545",
"h.	c #403F3F",
"i.	c #424040",
"j.	c #454343",
"k.	c #3F3E3E",
"l.	c #393939",
"m.	c #3C3B3B",
"n.	c #454545",
"o.	c #484848",
"p.	c #4A4A4A",
"q.	c #4B4B4B",
"r.	c #4C4C4C",
"s.	c #4D4D4D",
"t.	c #3D3D3D",
"u.	c #424242",
"v.	c #4E4E4E",
"w.	c #434040",
"x.	c #434141",
"y.	c #444242",
"z.	c #3A3838",
"A.	c #3F3A3A",
"B.	c #3C3838",
"C.	c #3E3B3B",
"D.	c #403B3B",
"E.	c #3F3B3B",
"F.	c #403C3C",
"G.	c #423C3C",
"H.	c #3B3737",
"I.	c #4D4A4A",
"J.	c #595858",
"K.	c #5A5A5A",
"L.	c #545454",
"M.	c #5D5B5B",
"N.	c #545050",
"O.	c #514D4D",
"P.	c #504D4D",
"Q.	c #514E4E",
"R.	c #4A4949",
"S.	c #3F3C3C",
"T.	c #474141",
"U.	c #4A4444",
"V.	c #4A4343",
"W.	c #4B4444",
"X.	c #4C4545",
"Y.	c #4B4343",
"Z.	c #413C3C",
"`.	c #3D3B3B",
" +	c #585555",
".+	c #646262",
"++	c #716F6F",
"@+	c #444444",
"#+	c #5C5C5C",
"$+	c #6E6C6C",
"%+	c #666363",
"&+	c #5C5959",
"*+	c #565353",
"=+	c #4D4B4B",
"-+	c #3F3D3D",
";+	c #494444",
">+	c #4E4747",
",+	c #4D4646",
"'+	c #4D4747",
")+	c #4C4444",
"!+	c #423E3E",
"~+	c #494747",
"{+	c #565252",
"]+	c #5F5C5C",
"^+	c #676666",
"/+	c #706E6E",
"(+	c #747575",
"_+	c #515151",
":+	c #5D5D5D",
"<+	c #6B6C6C",
"[+	c #717070",
"}+	c #696767",
"|+	c #5F5D5D",
"1+	c #575454",
"2+	c #555050",
"3+	c #4C4B4B",
"4+	c #4C4646",
"5+	c #4E4646",
"6+	c #4E4746",
"7+	c #4F4746",
"8+	c #504949",
"9+	c #514A4A",
"0+	c #4F4949",
"a+	c #484545",
"b+	c #4F4B4B",
"c+	c #5A5858",
"d+	c #555555",
"e+	c #585858",
"f+	c #5C5B5B",
"g+	c #595656",
"h+	c #555151",
"i+	c #4F4C4C",
"j+	c #4E4D4D",
"k+	c #585757",
"l+	c #524B4B",
"m+	c #4E4645",
"n+	c #504848",
"o+	c #4F4747",
"p+	c #504847",
"q+	c #534C4D",
"r+	c #534F4F",
"s+	c #4F4D4D",
"t+	c #474444",
"u+	c #4C4949",
"v+	c #414141",
"w+	c #5F5F5F",
"x+	c #656666",
"y+	c #434242",
"z+	c #4A4747",
"A+	c #656566",
"B+	c #646363",
"C+	c #4F4B4D",
"D+	c #443D3F",
"E+	c #433D41",
"F+	c #34303E",
"G+	c #3C363E",
"H+	c #4A4243",
"I+	c #3D373E",
"J+	c #464245",
"K+	c #4A4749",
"L+	c #4A4748",
"M+	c #4E4A4A",
"N+	c #53504F",
"O+	c #3D3C3C",
"P+	c #353434",
"Q+	c #6B6B6B",
"R+	c #2D2D2D",
"S+	c #393838",
"T+	c #403E3E",
"U+	c #414040",
"V+	c #696869",
"W+	c #626264",
"X+	c #3A3840",
"Y+	c #282428",
"Z+	c #2A2721",
"`+	c #17141C",
" @	c #322D24",
".@	c #241F22",
"+@	c #00001D",
"@@	c #252226",
"#@	c #2E2A28",
"$@	c #252326",
"%@	c #3A373A",
"&@	c #4E4B4B",
"*@	c #3B3C3C",
"=@	c #3A3A3A",
"-@	c #6A6A6A",
";@	c #303131",
">@	c #424141",
",@	c #6A6969",
"'@	c #353636",
")@	c #656465",
"!@	c #5C5D60",
"~@	c #353432",
"{@	c #4B4500",
"]@	c #766D00",
"^@	c #887D02",
"/@	c #8C8102",
"(@	c #625C02",
"_@	c #4F4900",
":@	c #534C00",
"<@	c #474101",
"[@	c #26220F",
"}@	c #312E33",
"|@	c #4C484A",
"1@	c #4A4646",
"2@	c #3A3B3B",
"3@	c #6A6B6B",
"4@	c #636464",
"5@	c #6C6B6B",
"6@	c #363536",
"7@	c #676767",
"8@	c #585A5F",
"9@	c #474637",
"0@	c #8E8304",
"a@	c #CCBD03",
"b@	c #E1D006",
"c@	c #D5C605",
"d@	c #AFA302",
"e@	c #908604",
"f@	c #877D03",
"g@	c #6D6500",
"h@	c #3D3804",
"i@	c #312F33",
"j@	c #4B484A",
"k@	c #373838",
"l@	c #5E5F5F",
"m@	c #6B6D6D",
"n@	c #545656",
"o@	c #292929",
"p@	c #5F6161",
"q@	c #6C6D6D",
"r@	c #5A5C61",
"s@	c #4E4B37",
"t@	c #A89C04",
"u@	c #EAD903",
"v@	c #F9E707",
"w@	c #F1E009",
"x@	c #D9CA09",
"y@	c #BDB009",
"z@	c #A29806",
"A@	c #7F7600",
"B@	c #4F4909",
"C@	c #2C2B2D",
"D@	c #454143",
"E@	c #3D3F3F",
"F@	c #5F5E5E",
"G@	c #6B6A6A",
"H@	c #535454",
"I@	c #343636",
"J@	c #3F4242",
"K@	c #373A3A",
"L@	c #353536",
"M@	c #4C4C4B",
"N@	c #54565E",
"O@	c #43423D",
"P@	c #998F19",
"Q@	c #D5C601",
"R@	c #F0DF00",
"S@	c #F4E308",
"T@	c #F0DE0B",
"U@	c #DBCC08",
"V@	c #B0A404",
"W@	c #716901",
"X@	c #423D17",
"Y@	c #302C2D",
"Z@	c #3F3A3C",
"`@	c #454140",
" #	c #3C3939",
".#	c #605050",
"+#	c #735E5E",
"@#	c #594C4C",
"##	c #333838",
"$#	c #685454",
"%#	c #725B5B",
"&#	c #584A4A",
"*#	c #575757",
"=#	c #57575B",
"-#	c #4F4F52",
";#	c #7B763E",
">#	c #AB9E1E",
",#	c #D9CA00",
"'#	c #F2E002",
")#	c #FAE807",
"!#	c #E9D902",
"~#	c #AFA202",
"{#	c #5B5515",
"]#	c #38332B",
"^#	c #403C3D",
"/#	c #3C3737",
"(#	c #693A3A",
"_#	c #7D3737",
":#	c #653636",
"<#	c #383333",
"[#	c #6E3B3B",
"}#	c #803939",
"|#	c #5E3636",
"1#	c #2F3737",
"2#	c #464645",
"3#	c #525253",
"4#	c #5D5D5F",
"5#	c #595958",
"6#	c #70693D",
"7#	c #B0A318",
"8#	c #E4D402",
"9#	c #D3C504",
"0#	c #8F8511",
"a#	c #413B27",
"b#	c #36303B",
"c#	c #474242",
"d#	c #3F3C3D",
"e#	c #383738",
"f#	c #3F3434",
"g#	c #6E2727",
"h#	c #860A0A",
"i#	c #662727",
"j#	c #393535",
"k#	c #3D3434",
"l#	c #6A2929",
"m#	c #821C1C",
"n#	c #692828",
"o#	c #383836",
"p#	c #646566",
"q#	c #66676E",
"r#	c #57575E",
"s#	c #746E42",
"t#	c #93881F",
"u#	c #9B9001",
"v#	c #8C8109",
"w#	c #5E5627",
"x#	c #3A343B",
"y#	c #453E43",
"z#	c #474342",
"A#	c #3E3C3C",
"B#	c #3D3535",
"C#	c #6D2323",
"D#	c #7D1515",
"E#	c #672626",
"F#	c #383636",
"G#	c #453434",
"H#	c #6F2424",
"I#	c #7C1717",
"J#	c #642929",
"K#	c #3E3636",
"L#	c #636362",
"M#	c #706F71",
"N#	c #61616A",
"O#	c #555659",
"P#	c #545243",
"Q#	c #414035",
"R#	c #433F39",
"S#	c #4B4748",
"T#	c #4C474E",
"U#	c #4D4749",
"V#	c #443F3F",
"W#	c #3B393A",
"X#	c #622A2A",
"Y#	c #672828",
"Z#	c #5D2D2D",
"`#	c #632B2B",
" $	c #682727",
".$	c #5C2D2D",
"+$	c #5E5D5D",
"@$	c #6A6A6C",
"#$	c #6B6C6E",
"$$	c #616265",
"%$	c #595B61",
"&$	c #5B5C62",
"*$	c #68696A",
"=$	c #646263",
"-$	c #514F4E",
";$	c #3F3636",
">$	c #473434",
",$	c #483434",
"'$	c #383737",
")$	c #525150",
"!$	c #333434",
"                                                                                                            ",
"                                                  . . +                                                     ",
"                                                  + @ #                                                     ",
"                                              $ $       @ %                                                 ",
"                                              #           $                                                 ",
"                                                                                                            ",
"                                                      &                                                     ",
"                                              % & & & & & .                                                 ",
"                                            + $ *   & &     =                                               ",
"                                          . +               = .                                             ",
"                                                                                                            ",
"                                                                                                            ",
"                                            - = = ; = = = = # ;                                             ",
"                                          > @ + . , ' ) ! . . # ~                                           ",
"                                        {                       ] ^                                         ",
"                                        /                                                                   ",
"                                                  ( _ :                                                     ",
"                                                < [ } | 1 2 3                                               ",
"                                            4 5 6 7 8 9 0 a b c                                             ",
"                                            d e f g h i j k l m                                             ",
"                                          n o p q r s t u v w x y                                           ",
"                                        z A B C D E F G H I J K L M                                         ",
"                                        N O P Q R S Q T U V V W X Y Z                                       ",
"                                    ` A  ...Q +.S @.#.$.%.%.&.*.=.-.;.>.                                    ",
"                                    ,.N '.C ).!.~.{.].^. .K /.^.O (._.:.m <.[.}.}.|.}.1.2.3.4.4.5.4.4.5.    ",
"    5.4.2.2.1.2.2.}.2.2.5.6.4.7.7.8.:.9.0.x x a.b.c.d.e.f.g.h.i.j.k.l.m.9.n.Z _._.d.o.p.p.q.r.s.o.t.2.5.    ",
"    4.4.l.u.d.r.p.q.q.v.v.q.a.w.i.x.y.h.l.z.A.B.C.D.E.E.D.F.A.G.H.5.i.I.J. .O  .O ~.K K !.C ].].K.o.m       ",
"      2.0.L.O ~.C C C !.!.].M.N.O.P.Q.R.t.S.T.U.U.V.U.U.W.V.X.Y.Z.`.c. +.+W ++Q S P C C !.~.~.K K.d.        ",
"        @+#+K ].C ].K C ..W $+%+&+ +*+=+>.-+;+>+,+,+,+'+,+,+>+)+!+-+~+{+]+^+/+(+$.]._+r.d.q.q.q._.          ",
"          o.r.r.s.o.9.s.:+<+[+}+|+1+2+3+_.g.4+5+6+7+7+6+>+8+9+0+a+Z a+b+N.c+K C  .d+0.1.l.o.v.0.|.          ",
"          [.t.q.A t.|.5.d.e+f+J.g+h+i+j+k+c+l+m+n+6+o+p+8+q+{+h+r+s+t+j.u+Q.3+o._.M 5.[.v+w+C v.1.          ",
"          [.v+ .x+o.[.}.l.t.M y+z+=+y+v.A+B+C+D+E+F+G+H+I+J+K+L+M+N+u+M Z g.O+5.P+m m 3.v+~.Q+A 2.          ",
"          R+0. .P e+2.1.  }.1.S+T+U+:.q.V+W+X+Y+Z+`+ @.@+@@@#@$@%@&@~+*@=@O+l.2.        M '.-@A ;@          ",
"            >@K ,@A 4.        5.S+5.'@q.)@!@~@{@]@^@/@(@_@:@<@[@}@|@1@2@6.5.5.          n /.3@L m           ",
"            n.4@5@N [.          4.m 6@d.7@8@9@0@a@b@c@d@e@f@g@h@i@j@u+` 6.k@            0.l@m@n@8.          ",
"          o@6.p@q@d+;@            m 2.r.C r@s@t@u@v@w@x@y@z@A@B@C@D@a+`.7.              E@F@G@H@I@          ",
"            J@:+q@H@K@              L@M@K N@O@P@Q@R@S@T@U@V@W@X@Y@Z@`@m.                 #.#+#@###          ",
"            i.$#%#&###                9.*#=#-#;#>#,#'#)#!#~#{#]#B.^#C.                  /#(#_#:#<#          ",
"            H.[#}#|#1#                  2#3#4#5#6#7#c@8#9#0#a#b#c#d#e#                  f#g#h#i#j#          ",
"            k#l#m#n#j#                  o#r.p#q#r#s#t#u#v#w#x#y#z#A#6.                  B#C#D#E#F#          ",
"            G#H#I#J#K#                  m o.L#M#N#O#P#Q#R#S#T#U#V#W#5.                    X#Y#Z#            ",
"              `# $.$                    5.n p.+$@$#$$$%$&$*$=$-$ #7.7.                    ;$>$              ",
"                ,$                        1.'$)$Q+@.Q *.S +.Q+L.S+!$                                        ",
"                                            4.N 7@$.R $.+.R J _+=@                                          ",
"                                            4._.#+).$.R $.J K.y 5.                                          ",
"                                            5.l.9.*#Q+W ..K.u.:.2.                                          ",
"                                              m 5.y *#:+e+o.2.m                                             ",
"                                                4.l.n v+0.` 5.                                              ",
"                                                  4.4.2.2.4.                                                ",
"                                                    5.:.5.                                                  "};
