/* XPM */
static char * nave2_10_xpm[] = {
"54 50 603 2",
"  	c None",
". 	c #119EEA",
"+ 	c #119CE7",
"@ 	c #119DE9",
"# 	c #32327F",
"$ 	c #323280",
"% 	c #353554",
"& 	c #32337A",
"* 	c #2F2F94",
"= 	c #34346C",
"- 	c #1D20D3",
"; 	c #2224D0",
"> 	c #30308F",
", 	c #0002FF",
"' 	c #0C13FC",
") 	c #2225DF",
"! 	c #2F2F9D",
"~ 	c #1F21D2",
"{ 	c #060DF5",
"] 	c #0006FB",
"^ 	c #0E15F4",
"/ 	c #2225DA",
"( 	c #2E2FA5",
"_ 	c #343473",
": 	c #2829B6",
"< 	c #050AF8",
"[ 	c #0001FF",
"} 	c #0E14FA",
"| 	c #2124DE",
"1 	c #2F2F9B",
"2 	c #119BE5",
"3 	c #34346E",
"4 	c #2022CE",
"5 	c #2E2E9C",
"6 	c #1517E8",
"7 	c #0005FD",
"8 	c #0B12FB",
"9 	c #1E21EB",
"0 	c #2C2DB4",
"a 	c #31318A",
"b 	c #2829B3",
"c 	c #0004FF",
"d 	c #0009FB",
"e 	c #2829B7",
"f 	c #0A12F2",
"g 	c #0002FD",
"h 	c #0811F7",
"i 	c #1F22E2",
"j 	c #2D2DAD",
"k 	c #333377",
"l 	c #2728BA",
"m 	c #0B0DF6",
"n 	c #0006FD",
"o 	c #2425C4",
"p 	c #333374",
"q 	c #35355C",
"r 	c #2F2E9B",
"s 	c #191BED",
"t 	c #0000FD",
"u 	c #1418F8",
"v 	c #1419F2",
"w 	c #2728BB",
"x 	c #353567",
"y 	c #30318D",
"z 	c #323180",
"A 	c #119CE6",
"B 	c #119AE4",
"C 	c #2729B7",
"D 	c #0C11F1",
"E 	c #0607FA",
"F 	c #1F22D0",
"G 	c #343373",
"H 	c #323281",
"I 	c #34346D",
"J 	c #2A2CC5",
"K 	c #2A2CDD",
"L 	c #1013F7",
"M 	c #292AE7",
"N 	c #3A3AD6",
"O 	c #0004FC",
"P 	c #1F21D0",
"Q 	c #2B2CA6",
"R 	c #1E20D5",
"S 	c #1519E7",
"T 	c #2325CA",
"U 	c #1217EC",
"V 	c #30318F",
"W 	c #34356D",
"X 	c #33277A",
"Y 	c #303F8E",
"Z 	c #2A69A9",
"` 	c #30668C",
" .	c #383B40",
"..	c #119DE8",
"+.	c #2F318B",
"@.	c #2E309A",
"#.	c #0009F9",
"$.	c #2526C4",
"%.	c #2F3092",
"&.	c #313187",
"*.	c #2122D1",
"=.	c #020CFC",
"-.	c #0001FE",
";.	c #0000FE",
">.	c #1618F4",
",.	c #0000FF",
"'.	c #0B0FF4",
").	c #2526C2",
"!.	c #2123CC",
"~.	c #0008FE",
"{.	c #181CEE",
"].	c #000AFE",
"^.	c #0D14EE",
"/.	c #2C2CA6",
"(.	c #343670",
"_.	c #30598C",
":.	c #1A95DB",
"<.	c #1D90D4",
"[.	c #2E6894",
"}.	c #364553",
"|.	c #12308F",
"1.	c #4F3875",
"2.	c #452EC8",
"3.	c #161DDC",
"4.	c #33337E",
"5.	c #313286",
"6.	c #2D2E9B",
"7.	c #1D1FD6",
"8.	c #0006FA",
"9.	c #1516F4",
"0.	c #2A2BE2",
"a.	c #0F14F5",
"b.	c #0005FE",
"c.	c #1D1FD7",
"d.	c #2F2F96",
"e.	c #1C1ED9",
"f.	c #0308FB",
"g.	c #070FF9",
"h.	c #0008FA",
"i.	c #010AFA",
"j.	c #171BE3",
"k.	c #2C2BA5",
"l.	c #334876",
"m.	c #2C72A1",
"n.	c #1996DC",
"o.	c #1D90D3",
"p.	c #2E6493",
"q.	c #27338A",
"r.	c #462E77",
"s.	c #7D2A24",
"t.	c #874D00",
"u.	c #4E37AD",
"v.	c #33337F",
"w.	c #32327E",
"x.	c #191CDE",
"y.	c #181AF1",
"z.	c #2324E8",
"A.	c #0C12F6",
"B.	c #060DF8",
"C.	c #171BE1",
"D.	c #333378",
"E.	c #2B2CA8",
"F.	c #1519E3",
"G.	c #000AFA",
"H.	c #1310EC",
"I.	c #2D27A0",
"J.	c #344B6F",
"K.	c #2A78A9",
"L.	c #267AB9",
"M.	c #2C52A1",
"N.	c #3A2F88",
"O.	c #7D1736",
"P.	c #8D0000",
"Q.	c #722151",
"R.	c #45377A",
"S.	c #252E87",
"T.	c #333373",
"U.	c #2727BD",
"V.	c #0009FA",
"W.	c #0009FC",
"X.	c #292BB2",
"Y.	c #2426C4",
"Z.	c #2426C6",
"`.	c #313186",
" +	c #2223CB",
".+	c #010BF9",
"++	c #0007FE",
"@+	c #070BF5",
"#+	c #2726BB",
"$+	c #333E76",
"%+	c #324685",
"&+	c #332277",
"*+	c #313087",
"=+	c #56209D",
"-+	c #840744",
";+	c #7E172B",
">+	c #38317F",
",+	c #2E318C",
"'+	c #292BB5",
")+	c #1D21D6",
"!+	c #1201E9",
"~+	c #0202F7",
"{+	c #1829E3",
"]+	c #2F008C",
"^+	c #1719DE",
"/+	c #0207FD",
"(+	c #1116EB",
"_+	c #2B2BAB",
":+	c #0910F4",
"<+	c #0008FC",
"[+	c #120AEC",
"}+	c #2A29AE",
"|+	c #333278",
"1+	c #32317E",
"2+	c #313288",
"3+	c #0428C5",
"4+	c #501DB0",
"5+	c #4F2C7A",
"6+	c #19348A",
"7+	c #333372",
"8+	c #2F2C93",
"9+	c #2604BF",
"0+	c #0850F6",
"a+	c #239EDD",
"b+	c #3558CA",
"c+	c #0104FA",
"d+	c #010CF9",
"e+	c #020BF9",
"f+	c #1B1DDC",
"g+	c #2B2CAB",
"h+	c #1D20D4",
"i+	c #0005FF",
"j+	c #0006FE",
"k+	c #0309FA",
"l+	c #2527BF",
"m+	c #34346F",
"n+	c #35356C",
"o+	c #2200C6",
"p+	c #0D6BEE",
"q+	c #1999F1",
"r+	c #2FB4D8",
"s+	c #4064CB",
"t+	c #0008F9",
"u+	c #000BF9",
"v+	c #0008FB",
"w+	c #181AE3",
"x+	c #303090",
"y+	c #2B2BAD",
"z+	c #0E10F3",
"A+	c #171BF1",
"B+	c #2628CD",
"C+	c #322C7C",
"D+	c #2B26AA",
"E+	c #0032FA",
"F+	c #17AAED",
"G+	c #3789D7",
"H+	c #2878D0",
"I+	c #1E47EC",
"J+	c #0810F4",
"K+	c #2627BE",
"L+	c #2526C1",
"M+	c #0C12F1",
"N+	c #0C12F7",
"O+	c #3739D5",
"P+	c #3E3EB1",
"Q+	c #2700B7",
"R+	c #0E51ED",
"S+	c #1695F4",
"T+	c #3595D5",
"U+	c #3B249E",
"V+	c #0B1A5F",
"W+	c #0000D1",
"X+	c #010BFF",
"Y+	c #010BFD",
"Z+	c #0109FA",
"`+	c #1619E5",
" @	c #2C2CA5",
".@	c #2728B9",
"+@	c #040BF9",
"@@	c #0F12FB",
"#@	c #282AE6",
"$@	c #2D2FCA",
"%@	c #0E4BEB",
"&@	c #1095F7",
"*@	c #329AD7",
"=@	c #3131AD",
"-@	c #1B0248",
";@	c #2F2900",
">@	c #131200",
",@	c #0000AB",
"'@	c #0008F6",
")@	c #010CFF",
"!@	c #010BFA",
"~@	c #080CF8",
"{@	c #2A2AB0",
"]@	c #2E2E9A",
"^@	c #1314E8",
"/@	c #060DF7",
"(@	c #3847CD",
"_@	c #377ADB",
":@	c #1856A0",
"<@	c #3D2056",
"[@	c #877D00",
"}@	c #AA9E03",
"|@	c #575100",
"1@	c #00004D",
"2@	c #0000B7",
"3@	c #0007F3",
"4@	c #010BF8",
"5@	c #050DF7",
"6@	c #0A10F3",
"7@	c #1A1CDF",
"8@	c #312AAB",
"9@	c #1F19E9",
"0@	c #0000B6",
"a@	c #897F2E",
"b@	c #CDBF00",
"c@	c #F0DF09",
"d@	c #D9C905",
"e@	c #7D7400",
"f@	c #110E23",
"g@	c #0002B3",
"h@	c #2D2E9D",
"i@	c #2F2F98",
"j@	c #292AB3",
"k@	c #0F11ED",
"l@	c #5E59B8",
"m@	c #BAAD00",
"n@	c #EFDF02",
"o@	c #F6E509",
"p@	c #F3E30A",
"q@	c #BDAF06",
"r@	c #544D00",
"s@	c #000000",
"t@	c #000089",
"u@	c #0006E8",
"v@	c #0811F3",
"w@	c #2F2F95",
"x@	c #1E21D2",
"y@	c #050CF8",
"z@	c #2D2DA3",
"A@	c #1317E8",
"B@	c #0003FF",
"C@	c #181DE5",
"D@	c #514F4B",
"E@	c #9C9100",
"F@	c #E3D307",
"G@	c #F3E209",
"H@	c #EADA09",
"I@	c #C8B908",
"J@	c #746C04",
"K@	c #484200",
"L@	c #00003B",
"M@	c #0001A8",
"N@	c #010AF0",
"O@	c #0810F3",
"P@	c #2023CD",
"Q@	c #2D2DA0",
"R@	c #0004FE",
"S@	c #2325CE",
"T@	c #31318E",
"U@	c #313284",
"V@	c #2A2BB1",
"W@	c #020BFB",
"X@	c #0700FE",
"Y@	c #000AF9",
"Z@	c #2C2F96",
"`@	c #9A8F00",
" #	c #EFDE0E",
".#	c #E8D809",
"+#	c #C2B307",
"@#	c #9B9006",
"##	c #827905",
"$#	c #4F4900",
"%#	c #110F00",
"&#	c #0A0C95",
"*#	c #060FF8",
"=#	c #030AF9",
"-#	c #161AE4",
";#	c #3736D8",
">#	c #2626EE",
",#	c #0F15F5",
"'#	c #292AC5",
")#	c #2F3491",
"!#	c #263DD1",
"~#	c #2A34E5",
"{#	c #080AFF",
"]#	c #585597",
"^#	c #A79B35",
"/#	c #E9D900",
"(#	c #F7E50A",
"_#	c #F3E20A",
":#	c #D9C909",
"<#	c #998E06",
"[#	c #867C04",
"}#	c #504900",
"|#	c #12115C",
"1#	c #1719C3",
"2#	c #1116F3",
"3#	c #060EF8",
"4#	c #3535DA",
"5#	c #292BE7",
"6#	c #0810F9",
"7#	c #1419F7",
"8#	c #2526D9",
"9#	c #303096",
"0#	c #2F759D",
"a#	c #2897D7",
"b#	c #2055EF",
"c#	c #0A00EF",
"d#	c #31306D",
"e#	c #6A6200",
"f#	c #BFB100",
"g#	c #EAD902",
"h#	c #D6C700",
"i#	c #908605",
"j#	c #5E5600",
"k#	c #2D2860",
"l#	c #0000BC",
"m#	c #171AF3",
"n#	c #0007FD",
"o#	c #020BF8",
"p#	c #31318C",
"q#	c #1217E9",
"r#	c #1216F6",
"s#	c #0001FC",
"t#	c #1217F3",
"u#	c #2628CF",
"v#	c #303097",
"w#	c #31328C",
"x#	c #2F409D",
"y#	c #2170DD",
"z#	c #0387FC",
"A#	c #0000FA",
"B#	c #0005FB",
"C#	c #0000DC",
"D#	c #130E82",
"E#	c #5A5300",
"F#	c #948977",
"G#	c #877D51",
"H#	c #0D0B00",
"I#	c #5C552C",
"J#	c #2A2778",
"K#	c #1417E3",
"L#	c #0307FF",
"M#	c #0E12F0",
"N#	c #2526C0",
"O#	c #33337B",
"P#	c #060DF4",
"Q#	c #0000FC",
"R#	c #030BF9",
"S#	c #1116F9",
"T#	c #2426D8",
"U#	c #303193",
"V#	c #353464",
"W#	c #2F08A1",
"X#	c #1A25E0",
"Y#	c #022AF9",
"Z#	c #000CFC",
"`#	c #010CFE",
" $	c #0000D2",
".$	c #000055",
"+$	c #1D1FE3",
"@$	c #1312DB",
"#$	c #0C0EB4",
"$$	c #312DAB",
"%$	c #1B1AB4",
"&$	c #2B29A8",
"*$	c #0006FF",
"=$	c #0408FB",
"-$	c #2729B8",
";$	c #33337D",
">$	c #323283",
",$	c #2A2CAF",
"'$	c #2A2BAE",
")$	c #2426C0",
"!$	c #0407FF",
"~$	c #2F32E1",
"{$	c #1C1EF0",
"]$	c #0005FC",
"^$	c #0F15F8",
"/$	c #2124E2",
"($	c #2D2EAA",
"_$	c #34336F",
":$	c #2826B2",
"<$	c #0000FB",
"[$	c #000AFF",
"}$	c #000BF7",
"|$	c #0002F8",
"1$	c #0202FE",
"2$	c #161AE5",
"3$	c #0106FE",
"4$	c #020AFA",
"5$	c #33327F",
"6$	c #333477",
"7$	c #333475",
"8$	c #353568",
"9$	c #3334C9",
"0$	c #2D2FC1",
"a$	c #0007F8",
"b$	c #0C14F7",
"c$	c #2224DA",
"d$	c #2F2FA0",
"e$	c #2F199A",
"f$	c #1C44E7",
"g$	c #0032FE",
"h$	c #0004F9",
"i$	c #010CF8",
"j$	c #040FFA",
"k$	c #2A2CE2",
"l$	c #1419F0",
"m$	c #1F20D5",
"n$	c #2D2E9C",
"o$	c #343371",
"p$	c #313289",
"q$	c #2525B4",
"r$	c #333386",
"s$	c #343466",
"t$	c #1114ED",
"u$	c #0C12FC",
"v$	c #1F21E9",
"w$	c #35355F",
"x$	c #33327D",
"y$	c #2765C9",
"z$	c #17A9EF",
"A$	c #0C5EF9",
"B$	c #0209FA",
"C$	c #0609FF",
"D$	c #1113EA",
"E$	c #2B2CBE",
"F$	c #2728B7",
"G$	c #1A1DDC",
"H$	c #313185",
"I$	c #33337A",
"J$	c #333382",
"K$	c #292BB0",
"L$	c #161AE2",
"M$	c #0007FA",
"N$	c #070FFA",
"O$	c #1116F2",
"P$	c #2929B3",
"Q$	c #323182",
"R$	c #314E87",
"S$	c #307CB7",
"T$	c #2B5FD7",
"U$	c #250ECC",
"V$	c #292AC2",
"W$	c #4343BE",
"X$	c #2E2EA1",
"Y$	c #323381",
"Z$	c #32337D",
"`$	c #343469",
" %	c #323184",
".%	c #2729CD",
"+%	c #2A2CBA",
"@%	c #2829B4",
"#%	c #1418E7",
"$%	c #32327B",
"%%	c #323080",
"&%	c #331578",
"*%	c #323E85",
"=%	c #3B338C",
"-%	c #322C82",
";%	c #37376E",
">%	c #363686",
",%	c #2F308C",
"'%	c #2223CC",
")%	c #0409FA",
"!%	c #323276",
"~%	c #313380",
"{%	c #32327A",
"]%	c #1D20D7",
"^%	c #0405FB",
"/%	c #0D12F2",
"(%	c #2527C1",
"_%	c #33346E",
":%	c #2324C7",
"<%	c #090DF7",
"[%	c #323371",
"}%	c #2025C1",
"|%	c #2627C3",
"1%	c #1C347D",
"2%	c #5B3A67",
"3%	c #6143A3",
"4%	c #3022EB",
"5%	c #1620D4",
"6%	c #36362E",
"7%	c #333467",
"8%	c #4F2C75",
"9%	c #821E00",
"0%	c #853C4E",
"a%	c #4432B7",
"b%	c #323287",
"c%	c #522B6F",
"d%	c #83130A",
"e%	c #8C0000",
"f%	c #6C2484",
"g%	c #2C2FA1",
"h%	c #313555",
"i%	c #4021BA",
"j%	c #7A0B82",
"k%	c #76156A",
"l%	c #222CAD",
"                                                                                                            ",
"                                                                                                            ",
"                                                                                                            ",
"                                                                                                            ",
"                                                                                                            ",
"                                                                                                            ",
"                                                                                                            ",
"                                                                              .   + @                       ",
"                                                                                    + .                     ",
"                # $                                                                                         ",
"                % & *                                               @   . .                                 ",
"                = - ; >                                                     .         @                     ",
"                  , ' ) !                                                   . .                             ",
"                ~ { ] ^ / (                               +   @ +               .                           ",
"                _ : < [ } | 1                                     2                                         ",
"              3 4 : 5 6 7 8 9 0                                     +                                       ",
"            a b c d 5 e f g h i j                                     +                                     ",
"          k l m n o p q r s t u v w x                 y z               A B                                 ",
"        p C D E F G H I J K L M N O P     Q R S T U V W X Y Z `  .        ..2                               ",
"      +.@.#.[ $.%.    &.*.=.-.;.>.,.'.).H !.,.~.{.].^./.(._.:.<.[.}.        A                               ",
"    |.1.2.,.3.4.5.      6.7.8.9.0.a.b.,.c.d.e.f.g.h.i.j.k.l.m.n.o.p.                                        ",
"  q.r.s.t.u.y v.          w.x.y.z.A.7 B.C.D.E.F.c G.d , H.I.J.K.L.M.        +                               ",
"  N.O.P.Q.R.S.            T.U.,.V.W.,.T X.Y.Z.`. +c b..+++@+#+$+%+&+*+                                      ",
"  =+-+;+>+,+              &.'+)+!+~+{+]+^+/+,.(+_+o :+G..+<+[+}+|+1+2+                                      ",
"  3+4+5+6+                7+v.8+9+0+a+b+c+<+d+e+f+g+h+i+j+.+c k+l+m+                                        ",
"                          k n+o+p+q+r+s+t+u+.+v+, w+x+y+z+i+.+,.A+B+                                        ",
"                          C+D+E+F+G+H+I+,..+.+.+.+c J+K+L+M+v+N+O+P+                                        ",
"                          Q+R+S+T+U+V+W+X+Y+.+.+.+.+Z+`+ @.@+@@@#@$@                                        ",
"                          %@&@*@=@-@;@>@,@'@)@!@.+.+G.[ ~@{@]@^@b./@                                        ",
"                          (@_@:@<@[@}@|@1@2@3@!@4@.+.+.+<+5@{@.@6@7@                                        ",
"                          8@9@0@a@b@c@d@e@f@g@Y+)@.+.+.+c 6 h@> i@H                                         ",
"                        j@k@,.l@m@n@o@p@q@r@s@t@u@X+!@d v@w@x@y@R w.                                        ",
"                      z@A@B@C@D@E@F@G@H@I@J@K@L@M@N@d O@P@Q@R@#.;.S@T@                                      ",
"                    U@V@W@X@Y@Z@`@ #c@.#+#@###$#%#&#*#=#-#'.i+;#>#,#'#$                                     ",
"                      )#!#~#{#]#^#/#(#_#:#<#[#}#|#1#2#, y@<+3#4#5#6#7#8#9#                                  ",
"                      0#a#b#c#d#e#f#g#h#i#e@j#k#l#m#n#o#p#q#O r#m#s#G.t#u#v#                                ",
"                  w#x#y#z#A#B#C#D#E#F#G#H#I#%#J#K#L#M#N#O#j.[ P#G.Q#R#;.S#T#U#                              ",
"                  V#W#X#Y#A#Z#`# $.$+$@$#$$$%$&$*$=$-$;$>$,$'$)$h.!$~${$]$^$/$($                            ",
"                    _$:$<$d+.+!@[$}$8 ,.|$1$2$3$4$N#k k 5$6$7$8$/.9 9$0$a$B@b$c$d$                          ",
"                    e$f$g$A#h$i$Y@j$k$l$[ m$n$    o$  p$          q$r$s$Q t$, u$v$j w$                      ",
"                    x$y$z$A$B$,.C$D$E$F$G$H$                        H I$J$K$L$M$N$O$P$                      ",
"                    Q$R$S$T$U$V$W$X$x$Y$Z$                          `$ %.%+%@%M+[ #%D.I$$%                  ",
"                    %%&%*%=%-%;%>%,%                                &.'%i+)%a !%  E.    x+                  ",
"                      5.  ~%+.  {%                                I ]%^%/%(%_%                              ",
"                                                                T.:%B@<%(%T.                                ",
"                                                              [%}%,.v+|%{%                                  ",
"                                                            1%2%3%4%5%v.6%                                  ",
"                                                          7%8%9%0%a%b%                                      ",
"                                                          c%d%e%f%g%h%                                      ",
"                                                          i%j%k%l%h%                                        "};
