/* XPM */
static char * nave1_9_xpm[] = {
"54 50 325 2",
"  	c None",
". 	c #119EEA",
"+ 	c #119EE9",
"@ 	c #119BE6",
"# 	c #119CE8",
"$ 	c #119CE7",
"% 	c #119DE8",
"& 	c #119AE5",
"* 	c #119DE9",
"= 	c #119AE4",
"- 	c #109AE4",
"; 	c #1099E3",
"> 	c #119BE5",
", 	c #1098E2",
"' 	c #109AE3",
") 	c #1098E1",
"! 	c #383838",
"~ 	c #363636",
"{ 	c #343434",
"] 	c #404040",
"^ 	c #454545",
"/ 	c #3B3B3B",
"( 	c #392F19",
"_ 	c #392F1D",
": 	c #353535",
"< 	c #5E5E5E",
"[ 	c #656565",
"} 	c #575757",
"| 	c #494949",
"1 	c #392800",
"2 	c #30638C",
"3 	c #2F648D",
"4 	c #364657",
"5 	c #392F1B",
"6 	c #585858",
"7 	c #6C6C6C",
"8 	c #727272",
"9 	c #686868",
"0 	c #323232",
"a 	c #383736",
"b 	c #383B40",
"c 	c #208CCC",
"d 	c #1A94DA",
"e 	c #267EB7",
"f 	c #2F658E",
"g 	c #1095DB",
"h 	c #3F3F3F",
"i 	c #4B4B4B",
"j 	c #5A5A5A",
"k 	c #6B6B6B",
"l 	c #393939",
"m 	c #515151",
"n 	c #5F5F5F",
"o 	c #464646",
"p 	c #333231",
"q 	c #334150",
"r 	c #2E6894",
"s 	c #1F8DD0",
"t 	c #1F8BCC",
"u 	c #383B3F",
"v 	c #1098E0",
"w 	c #3A3A3A",
"x 	c #3D3D3D",
"y 	c #4C4C4C",
"z 	c #676767",
"A 	c #555555",
"B 	c #424141",
"C 	c #636363",
"D 	c #606060",
"E 	c #626262",
"F 	c #737373",
"G 	c #6F6F6F",
"H 	c #616161",
"I 	c #46433F",
"J 	c #313A45",
"K 	c #305270",
"L 	c #2D6A98",
"M 	c #3A2800",
"N 	c #313131",
"O 	c #5B5B5B",
"P 	c #4D4D4D",
"Q 	c #3E3E3E",
"R 	c #747474",
"S 	c #646363",
"T 	c #504D4D",
"U 	c #464444",
"V 	c #403E3E",
"W 	c #3A3939",
"X 	c #373737",
"Y 	c #444444",
"Z 	c #717171",
"` 	c #61605E",
" .	c #47433C",
"..	c #323942",
"+.	c #343536",
"@.	c #383737",
"#.	c #707070",
"$.	c #424242",
"%.	c #6A6868",
"&.	c #5D5A5A",
"*.	c #555151",
"=.	c #4F4C4C",
"-.	c #474545",
";.	c #3F3E3E",
">.	c #474747",
",.	c #616160",
"'.	c #333333",
").	c #5D5D5D",
"!.	c #595959",
"~.	c #636161",
"{.	c #575353",
"].	c #4A4747",
"^.	c #373636",
"/.	c #353434",
"(.	c #6A6A6A",
"_.	c #3C3C3C",
":.	c #5A5757",
"<.	c #565252",
"[.	c #545151",
"}.	c #434242",
"|.	c #393838",
"1.	c #423F3F",
"2.	c #433F3F",
"3.	c #3B3838",
"4.	c #454646",
"5.	c #6E6E6E",
"6.	c #565656",
"7.	c #313030",
"8.	c #575252",
"9.	c #524F4F",
"0.	c #534F4F",
"a.	c #403D3D",
"b.	c #4C4545",
"c.	c #4D4646",
"d.	c #484343",
"e.	c #433E3E",
"f.	c #2E2E2E",
"g.	c #353737",
"h.	c #6E7070",
"i.	c #707272",
"j.	c #434343",
"k.	c #494646",
"l.	c #565353",
"m.	c #403F3F",
"n.	c #414141",
"o.	c #565555",
"p.	c #443F3F",
"q.	c #4E4747",
"r.	c #2C3939",
"s.	c #683E3E",
"t.	c #7E5959",
"u.	c #635B5B",
"v.	c #373838",
"w.	c #363737",
"x.	c #3B3A3A",
"y.	c #626060",
"z.	c #4E4848",
"A.	c #343939",
"B.	c #433535",
"C.	c #860202",
"D.	c #852828",
"E.	c #473A3A",
"F.	c #343737",
"G.	c #4E4646",
"H.	c #494343",
"I.	c #423E3E",
"J.	c #383636",
"K.	c #2B3A3A",
"L.	c #6E2525",
"M.	c #8C0000",
"N.	c #731F1F",
"O.	c #2C3A3A",
"P.	c #5C5C5C",
"Q.	c #292827",
"R.	c #383234",
"S.	c #4F4848",
"T.	c #474242",
"U.	c #3E3D3D",
"V.	c #771D1D",
"W.	c #8A0303",
"X.	c #493434",
"Y.	c #323939",
"Z.	c #444548",
"`.	c #000000",
" +	c #090800",
".+	c #040313",
"++	c #363136",
"@+	c #504A4A",
"#+	c #4D4545",
"$+	c #4C4949",
"%+	c #4D4A4A",
"&+	c #525252",
"*+	c #4A4A4A",
"=+	c #393737",
"-+	c #523030",
";+	c #000021",
">+	c #877D00",
",+	c #837A03",
"'+	c #454000",
")+	c #151400",
"!+	c #070512",
"~+	c #3A3436",
"{+	c #585454",
"]+	c #524D4D",
"^+	c #494444",
"/+	c #514E4E",
"(+	c #5B5858",
"_+	c #6D6D6D",
":+	c #3B3D47",
"<+	c #4E4800",
"[+	c #C7BA06",
"}+	c #F4E309",
"|+	c #D4C507",
"1+	c #908603",
"2+	c #302C00",
"3+	c #131114",
"4+	c #423F40",
"5+	c #4B4848",
"6+	c #5B5757",
"7+	c #646262",
"8+	c #161D35",
"9+	c #9B9000",
"0+	c #E3D306",
"a+	c #F3E209",
"b+	c #F7E609",
"c+	c #E6D609",
"d+	c #787004",
"e+	c #514B02",
"f+	c #242000",
"g+	c #111011",
"h+	c #484545",
"i+	c #4F4B4B",
"j+	c #413F3F",
"k+	c #696969",
"l+	c #5E5E5F",
"m+	c #636258",
"n+	c #9D932C",
"o+	c #E0D007",
"p+	c #F1E009",
"q+	c #CCBD08",
"r+	c #A39707",
"s+	c #958B06",
"t+	c #7A7104",
"u+	c #393400",
"v+	c #0B0A0C",
"w+	c #3C3939",
"x+	c #454343",
"y+	c #575555",
"z+	c #757575",
"A+	c #717170",
"B+	c #5B5C5E",
"C+	c #3E3B1E",
"D+	c #BBAD00",
"E+	c #EBDB09",
"F+	c #EDDC09",
"G+	c #CDBE08",
"H+	c #928806",
"I+	c #807605",
"J+	c #363100",
"K+	c #27252B",
"L+	c #4E4A4A",
"M+	c #3F3D3D",
"N+	c #484848",
"O+	c #676768",
"P+	c #3F4049",
"Q+	c #C8BA0F",
"R+	c #EEDD09",
"S+	c #C0B207",
"T+	c #827905",
"U+	c #675F00",
"V+	c #00000E",
"W+	c #3E3A3A",
"X+	c #626157",
"Y+	c #7E751E",
"Z+	c #BDAF02",
"`+	c #E8D708",
" @	c #E2D207",
".@	c #605800",
"+@	c #615913",
"@@	c #393413",
"#@	c #1C1A24",
"$@	c #4C4D52",
"%@	c #151300",
"&@	c #4B4400",
"*@	c #7E7503",
"=@	c #827820",
"-@	c #000017",
";@	c #3C362C",
">@	c #3E383A",
",@	c #3C3838",
"'@	c #4A4343",
")@	c #535353",
"!@	c #626263",
"~@	c #34363F",
"{@	c #1D190D",
"]@	c #463F3D",
"^@	c #433D3E",
"/@	c #4A4444",
"(@	c #3E3B3B",
"_@	c #3F3C3C",
":@	c #3B3939",
"<@	c #696869",
"[@	c #5C5857",
"}@	c #727373",
"|@	c #686767",
"1@	c #3D3B3B",
"2@	c #646464",
"3@	c #333636",
"4@	c #696B6B",
"5@	c #717474",
"6@	c #653D3D",
"7@	c #7E5656",
"8@	c #665B5B",
"9@	c #323737",
"0@	c #433636",
"a@	c #820A0A",
"b@	c #892222",
"c@	c #493939",
"d@	c #333535",
"e@	c #6A2727",
"f@	c #8B0000",
"g@	c #771C1C",
"h@	c #702222",
"i@	c #4B3333",
"j@	c #4F3333",
"                                                                                                            ",
"                                                                                                            ",
"                                                                                                            ",
"                                                                        .                                   ",
"                                                                  + . @ @ # .                               ",
"                                                                  $ %     & @                               ",
"                                                                            $                               ",
"                                                                .           % +                             ",
"                                                          * @ $ . . .                                       ",
"                                                          . $     . . . .                                   ",
"                                                                      . . .                                 ",
"                                                        =                 -                                 ",
"                                                  . ; & % > =             , $                               ",
"                                                  ' )     . % > =         * .                               ",
"        ! !                                                   . % > =                                       ",
"        ! ! ! ~                                                   . % > =                                   ",
"          { ] ^ / {                                 !     ( _         . #                                   ",
"          : < [ } | / {                           ! ! 1 2 3 4 5                                             ",
"            6 7 8 9 } | / {                     0 : a b c d e f         g .                                 ",
"          ~ h i j k 8 9 } | / :         l   : m n o p q r s * t u         v                                 ",
"          ~ w x w y j k 8 z A B l ~   ~ h C D E F G H I J K L 2 M ! !                                       ",
"        ! N O k P : Q y [ R S T U V W X Y k 8 8 F 8 Z G `  ...+.@.! !                                       ",
"        : ] G #.$.~ : ^ z F %.&.*.=.-.;.~ >.< k #.8 F 8 Z G ,.>.'.{                                         ",
"      ! N ).F D N ! ! h !.G R ~.{.{.*.].! ^./.o < (.#.8 F 8 Z G E o                                         ",
"      ~ h G #.$.:   X ! _.^ j :.<.{.[.}.|.1.2.3./.4.< (.#.8 F F 5.6.!                                       ",
"    ! 7.).F D N !       ~ ~ ].8.9.0.=.~ a.b.c.d.e.3./.^ ).(.#.8 7 y f.                                      ",
"    g.V h.i.j.:         ~ ! k.l.m.n.o.B p.q.c.q.c.d.e.3./.^ ).(.Z Z P                                       ",
"  ! r.s.t.u.N !         X v.w.x.! P #.y.z.c.c.c.c.q.c.d.2.3./.^ n D ^ :                                     ",
"  A.B.C.D.E.F.            X ! X h [ G &.G.c.c.c.c.c.c.q.c.H.I.J.'.x w {                                     ",
"  K.L.M.N.O.!             X X w P 8 P.Q.R.c.S.c.c.c.c.c.c.q.T.W _.U.w {                                     ",
"    V.W.X.Y.                ~ h [ 7 Z.`. +.+++c.S.c.@+z.#+b.I.! $+%+&+*+_.{                                 ",
"    =+-+K.!                 w P 8 ).;+>+,+'+)+!+~+S.{+*.]+^+|.m./+(+#.9 !.*+x {                             ",
"    v.                      Q H _+:+<+[+}+|+1+2+`.3+4+<.{+0.].5+<.6+7+Z 8 z !.*+x {                         ",
"                              &+6 8+9+0+a+b+c+d+e+f+`.g+h+{.i+j+].*.:.8 8 R 8 k+!.i x {                     ",
"                            N n.l+m+n+o+p+p+q+r+s+t+u+v+w+<.x+X %+8.y+5.z+8 z (.8 (.!.i x :                 ",
"                            ! m A+B+C+D+E+p+F+G+H+I+J+K+L+/+M+! ].[.Q Y !.C m N+6 (.8 (.!.| l ! ~           ",
"                          X h H z+O+P+Q+a+a+R+S+T+U+V+W+<.U W X ~ w : ! / ] ! : x | 6 (.Z ).X X ! X         ",
"                          ! ! o k R X+Y+Z+`+ @.@+@@@#@d.i+U.X ! ! X !   ~ ! ! ~ / h ! *+6.y N ~             ",
"                            : ] H 8 $@%@&@*@=@-@;@>@,@'@j+l X ! !           X 0 6 k m { /                   ",
"                            { )@7 F #.!@~@{@]@^@/@^+(@_@:@X                 { h k 8 $.:                     ",
"                          X Q < 8 F 8 8 #.<@[@#+c.1.!                     ~ N !.8 E N ~                     ",
"                          ! / m 7 Z 8 8 8 }@|@-.I.1@~                     { h (.8 j.{                       ",
"                          ~ ~ '.z 8 8 8 F #.O { ! !                     ~ N !.8 E N ~                       ",
"                            X Y D G F G 9 2@Y { ! X                     3@V 4@5@j.{                         ",
"                            X X ^ 6 C )@l | :                         ~ r.6@7@8@N ~                         ",
"                              ! : ~ j.w ~ X !                         9@0@a@b@c@d@                          ",
"                            ! ! ! ! ~ ! !                             r.e@f@g@r.~                           ",
"                                ! !                                     h@M.i@9@                            ",
"                                                                        X j@r.~                             ",
"                                                                        v.                                  "};
