/* XPM */
static char * nave2_7_xpm[] = {
"54 50 510 2",
"  	c None",
". 	c #119EEA",
"+ 	c #119DE8",
"@ 	c #119CE7",
"# 	c #119BE6",
"$ 	c #119CE8",
"% 	c #119DE9",
"& 	c #119AE4",
"* 	c #119BE5",
"= 	c #119AE5",
"- 	c #119EEB",
"; 	c #392C0D",
"> 	c #383634",
", 	c #36495D",
"' 	c #316086",
") 	c #2B74A4",
"! 	c #296AAE",
"~ 	c #321B84",
"{ 	c #323282",
"] 	c #313186",
"^ 	c #32327E",
"/ 	c #323280",
"( 	c #2680B7",
"_ 	c #1A95DB",
": 	c #129DE8",
"< 	c #1F8ACE",
"[ 	c #332D7D",
"} 	c #323281",
"| 	c #32327F",
"1 	c #343469",
"2 	c #323284",
"3 	c #34346E",
"4 	c #30308E",
"5 	c #313485",
"6 	c #218AC9",
"7 	c #228AC9",
"8 	c #2B73A4",
"9 	c #315D81",
"0 	c #333974",
"a 	c #343373",
"b 	c #30308C",
"c 	c #2B2CC1",
"d 	c #3435A7",
"e 	c #32327D",
"f 	c #2F2FA1",
"g 	c #292AC9",
"h 	c #0A12F8",
"i 	c #2628BB",
"j 	c #363652",
"k 	c #322A7F",
"l 	c #324E7C",
"m 	c #334E72",
"n 	c #343F73",
"o 	c #312E8A",
"p 	c #2724BB",
"q 	c #1519E5",
"r 	c #0004FC",
"s 	c #1D21F2",
"t 	c #4C4C9E",
"u 	c #0911EC",
"v 	c #32327B",
"w 	c #2F2F9E",
"x 	c #292AC7",
"y 	c #2023E6",
"z 	c #181CF3",
"A 	c #1016F7",
"B 	c #0009FC",
"C 	c #333375",
"D 	c #343372",
"E 	c #313187",
"F 	c #2821B7",
"G 	c #1715E2",
"H 	c #000AFA",
"I 	c #0004FF",
"J 	c #0008FC",
"K 	c #010BF9",
"L 	c #0006FA",
"M 	c #2F31DD",
"N 	c #020CF9",
"O 	c #0000FF",
"P 	c #2B2CA8",
"Q 	c #333379",
"R 	c #2F309B",
"S 	c #292AC4",
"T 	c #2123E4",
"U 	c #191DF2",
"V 	c #050EF8",
"W 	c #0008FB",
"X 	c #0003FF",
"Y 	c #0005FE",
"Z 	c #0B12F0",
"` 	c #292AB2",
" .	c #181CDF",
"..	c #0007FC",
"+.	c #000AFB",
"@.	c #1015EC",
"#.	c #2D2DA1",
"$.	c #333376",
"%.	c #2E2F9C",
"&.	c #2A2BC0",
"*.	c #2224E2",
"=.	c #1A1DF1",
"-.	c #1116F7",
";.	c #050FF8",
">.	c #0A11F2",
",.	c #2223CA",
"'.	c #2D2E9E",
").	c #363646",
"!.	c #0C13EF",
"~.	c #0006FF",
"{.	c #0006FD",
"].	c #0009FB",
"^.	c #0007FD",
"/.	c #1217E9",
"(.	c #2628BC",
"_.	c #30318C",
":.	c #2325C5",
"<.	c #0D14EE",
"[.	c #0003FE",
"}.	c #0B12F9",
"|.	c #060FF8",
"1.	c #0009FA",
"2.	c #0000FC",
"3.	c #0B12F4",
"4.	c #1D1FD3",
"5.	c #2C2DA5",
"6.	c #33337E",
"7.	c #2C2DB0",
"8.	c #2123CC",
"9.	c #32337F",
"0.	c #2224CB",
"a.	c #1B1FE8",
"b.	c #1419F2",
"c.	c #000AF9",
"d.	c #0005FF",
"e.	c #1016EB",
"f.	c #2527C0",
"g.	c #2527BF",
"h.	c #191CE1",
"i.	c #31318C",
"j.	c #0E14F6",
"k.	c #2D2EE4",
"l.	c #1A1EF1",
"m.	c #0005FB",
"n.	c #2B2DE5",
"o.	c #494A95",
"p.	c #333267",
"q.	c #333378",
"r.	c #313193",
"s.	c #161BFA",
"t.	c #2E2F9E",
"u.	c #36363C",
"v.	c #040DF7",
"w.	c #030CF8",
"x.	c #0007FB",
"y.	c #0006FE",
"z.	c #0E14EE",
"A.	c #2425C4",
"B.	c #303090",
"C.	c #313189",
"D.	c #2728BB",
"E.	c #1217E8",
"F.	c #2829B7",
"G.	c #2C2DE4",
"H.	c #4342C6",
"I.	c #151AF3",
"J.	c #0006FC",
"K.	c #0007FF",
"L.	c #313185",
"M.	c #323283",
"N.	c #0E14EC",
"O.	c #0002FF",
"P.	c #2628C0",
"Q.	c #343560",
"R.	c #2224C8",
"S.	c #2F3093",
"T.	c #1419E6",
"U.	c #0000FE",
"V.	c #0007FA",
"W.	c #171AE2",
"X.	c #2829B6",
"Y.	c #33337B",
"Z.	c #353558",
"`.	c #2426C4",
" +	c #181CE2",
".+	c #343465",
"++	c #292AB0",
"@+	c #2D2E9F",
"#+	c #33337C",
"$+	c #2B2CAA",
"%+	c #2829B4",
"&+	c #0B12F1",
"*+	c #0810F3",
"=+	c #2123CB",
"-+	c #353565",
";+	c #2F2F94",
">+	c #2E2FA0",
",+	c #363640",
"'+	c #313188",
")+	c #1F21D2",
"!+	c #323285",
"~+	c #1016EF",
"{+	c #1B1EDA",
"]+	c #1E21D6",
"^+	c #2C2DA6",
"/+	c #1317E8",
"(+	c #2527C3",
"_+	c #353561",
":+	c #34346B",
"<+	c #292AB3",
"[+	c #191CDF",
"}+	c #010BFB",
"|+	c #010BFF",
"1+	c #000BFE",
"2+	c #060FF6",
"3+	c #030DF7",
"4+	c #323287",
"5+	c #363554",
"6+	c #2125C3",
"7+	c #1C1CE2",
"8+	c #2C2F91",
"9+	c #34336A",
"0+	c #2E2EA8",
"a+	c #2729CE",
"b+	c #050EF7",
"c+	c #040EFD",
"d+	c #0001FE",
"e+	c #251EBC",
"f+	c #020DF9",
"g+	c #0009EC",
"h+	c #0004BA",
"i+	c #04055D",
"j+	c #1D1EC8",
"k+	c #0A11F5",
"l+	c #33318B",
"m+	c #64439E",
"n+	c #7E4F53",
"o+	c #2F2AB6",
"p+	c #34354B",
"q+	c #2E2FA5",
"r+	c #2729CD",
"s+	c #1F22E9",
"t+	c #171BF4",
"u+	c #040EF9",
"v+	c #3737D9",
"w+	c #3435DB",
"x+	c #181BF0",
"y+	c #000BFB",
"z+	c #110FEA",
"A+	c #305499",
"B+	c #4149C7",
"C+	c #0004FA",
"D+	c #010BFA",
"E+	c #0007EF",
"F+	c #0000BF",
"G+	c #000070",
"H+	c #0B0A00",
"I+	c #110F00",
"J+	c #0E0C00",
"K+	c #0E109C",
"L+	c #151AEF",
"M+	c #191CDE",
"N+	c #34346F",
"O+	c #333473",
"P+	c #28317F",
"Q+	c #72333B",
"R+	c #8D0C00",
"S+	c #5A1D9C",
"T+	c #253286",
"U+	c #2D2EA5",
"V+	c #282AC9",
"W+	c #2022E7",
"X+	c #0E14F7",
"Y+	c #030DF8",
"Z+	c #0006FB",
"`+	c #040EF8",
" @	c #0710F7",
".@	c #3938CD",
"+@	c #030CF9",
"@@	c #0000FB",
"#@	c #12ABF0",
"$@	c #44A7BB",
"%@	c #145CF7",
"&@	c #0000F1",
"*@	c #0000C4",
"=@	c #000077",
"-@	c #121000",
";@	c #1C1900",
">@	c #211D00",
",@	c #403A01",
"'@	c #615A02",
")@	c #5F5800",
"!@	c #000052",
"~@	c #2021DA",
"{@	c #28356C",
"]@	c #5A286A",
"^@	c #890700",
"/@	c #7B1164",
"(@	c #192EA9",
"_@	c #343470",
":@	c #040DF8",
"<@	c #292CDF",
"[@	c #0C13F6",
"}@	c #1116F5",
"|@	c #1A00DC",
"1@	c #107FF5",
"2@	c #26AEE1",
"3@	c #304CAF",
"4@	c #000000",
"5@	c #1A1700",
"6@	c #3D3900",
"7@	c #6B6402",
"8@	c #A29704",
"9@	c #7D7504",
"0@	c #908606",
"a@	c #958A06",
"b@	c #7D7304",
"c@	c #242100",
"d@	c #292681",
"e@	c #1719E3",
"f@	c #3A317C",
"g@	c #841200",
"h@	c #84064D",
"i@	c #2A22CB",
"j@	c #0D13EF",
"k@	c #2E2E9C",
"l@	c #33336D",
"m@	c #3031C0",
"n@	c #010CFF",
"o@	c #0710F4",
"p@	c #2D269E",
"q@	c #0044FC",
"r@	c #24AEE2",
"s@	c #4130B5",
"t@	c #797000",
"u@	c #CFC107",
"v@	c #EFDE09",
"w@	c #FBEA0A",
"x@	c #C0B207",
"y@	c #B4A607",
"z@	c #A59907",
"A@	c #827907",
"B@	c #504900",
"C@	c #181636",
"D@	c #1B1CDA",
"E@	c #4423AE",
"F@	c #1C21D1",
"G@	c #1116EB",
"H@	c #1E20D5",
"I@	c #2E2F99",
"J@	c #2E2E9D",
"K@	c #33337A",
"L@	c #2E2E9B",
"M@	c #2A2BAB",
"N@	c #35355F",
"O@	c #2E2F9D",
"P@	c #333377",
"Q@	c #0A00F0",
"R@	c #17A7ED",
"S@	c #3E6DCA",
"T@	c #000064",
"U@	c #978D00",
"V@	c #E4D408",
"W@	c #F3E209",
"X@	c #F2E109",
"Y@	c #E9D909",
"Z@	c #ECDB09",
"`@	c #D4C408",
" #	c #6D6502",
".#	c #57502A",
"+#	c #2B27AA",
"@#	c #060FF7",
"##	c #353559",
"$#	c #2F3092",
"%#	c #020BF9",
"&#	c #33327C",
"*#	c #343474",
"=#	c #2000CD",
"-#	c #0781F8",
";#	c #3399D8",
">#	c #250098",
",#	c #CFC00E",
"'#	c #F5E40A",
")#	c #F0DF09",
"!#	c #E3D308",
"~#	c #544D00",
"{#	c #2E2A00",
"]#	c #040DF0",
"^#	c #2C2CA6",
"/#	c #35354C",
"(#	c #333374",
"_#	c #2E289C",
":#	c #003EFC",
"<#	c #20B3E6",
"[#	c #423EB5",
"}#	c #000060",
"|#	c #A39835",
"1#	c #B5A900",
"2#	c #D8C903",
"3#	c #F2E10B",
"4#	c #F7E60A",
"5#	c #E6D600",
"6#	c #776E88",
"7#	c #0000E6",
"8#	c #353465",
"9#	c #2224CA",
"0#	c #1E20D4",
"a#	c #333475",
"b#	c #0C00EF",
"c#	c #2C83E0",
"d#	c #3040DA",
"e#	c #5B58A7",
"f#	c #3C3B00",
"g#	c #94891C",
"h#	c #C9BB00",
"i#	c #A99D00",
"j#	c #7E7400",
"k#	c #4C4780",
"l#	c #1015ED",
"m#	c #2728BD",
"n#	c #2E2E9A",
"o#	c #070FF4",
"p#	c #30318E",
"q#	c #2D1DCD",
"r#	c #2D27B9",
"s#	c #181DE9",
"t#	c #181FD5",
"u#	c #4A49C1",
"v#	c #625D00",
"w#	c #3A3500",
"x#	c #00008C",
"y#	c #0007F8",
"z#	c #3132E1",
"A#	c #2A2BBF",
"B#	c #313288",
"C#	c #313287",
"D#	c #0F15ED",
"E#	c #303185",
"F#	c #000BF9",
"G#	c #2226A7",
"H#	c #0000CD",
"I#	c #000AF6",
"J#	c #000BFF",
"K#	c #0008FD",
"L#	c #1F21CD",
"M#	c #343471",
"N#	c #2224C7",
"O#	c #0A1BDC",
"P#	c #2607EB",
"Q#	c #2B25E5",
"R#	c #1E21E6",
"S#	c #2F2F96",
"T#	c #4930D7",
"U#	c #694597",
"V#	c #313281",
"W#	c #2F2F9A",
"X#	c #2120CD",
"Y#	c #274EC9",
"Z#	c #1FA2EB",
"`#	c #0000FA",
" $	c #4747AC",
".$	c #363681",
"+$	c #293085",
"@$	c #79422C",
"#$	c #8A3000",
"$$	c #542C6F",
"%$	c #27338C",
"&$	c #313286",
"*$	c #34276E",
"=$	c #21B3DF",
"-$	c #0544F8",
";$	c #0103F9",
">$	c #1D21D1",
",$	c #33336F",
"'$	c #31317A",
")$	c #23338C",
"!$	c #632360",
"~$	c #8C0000",
"{$	c #721E4D",
"]$	c #223488",
"^$	c #321A80",
"/$	c #294CC6",
"($	c #1404F2",
"_$	c #131DE7",
":$	c #0225F9",
"<$	c #1567F4",
"[$	c #3A27C1",
"}$	c #31317E",
"|$	c #30328B",
"1$	c #2D318F",
"2$	c #413079",
"3$	c #8B0700",
"4$	c #880C00",
"5$	c #333186",
"6$	c #312F88",
"7$	c #323183",
"8$	c #142BF7",
"9$	c #1FB1E6",
"0$	c #26A1CF",
"a$	c #393F94",
"b$	c #25338A",
"c$	c #621B95",
"d$	c #441DBF",
"e$	c #32327C",
"f$	c #2E23A6",
"g$	c #323986",
"h$	c #330075",
"i$	c #312A7E",
"j$	c #2A2E9F",
"k$	c #30318B",
"                                                                                                            ",
"                                                                                                            ",
"                                        .                                                                   ",
"                                    + @ #                                                                   ",
"                                            $                                                               ",
"                                  .                                                                         ",
"                                                                                                            ",
"                                              .                                                             ",
"                                        . . .       .                                                       ",
"                                    . .                                                                     ",
"                                                                                                            ",
"                                  %                                                                         ",
"                                                & * @ %                                                     ",
"                                          & = @ %         *                                                 ",
"                                    & = @ %                                                                 ",
"                                      -                                                                     ",
"                                                ; >                                                         ",
"                                  %           , ' ) ! ~ { ]                                       ^ /       ",
"                                              ( _ : < [ } |                                 1 | 2 3         ",
"                                          4 5 6 7 8 9 0 a b c d                         e f g h i j         ",
"                                        2 | k l m n o p q r s t u                 v w x y z A B q           ",
"                                          C D E F G H I J K L M N O P       Q R S T U A V W X Y Z           ",
"                                          `  .K I ..K K K K +.O ..@.#.$.%.&.*.=.-.;.W X I >.,.'.).          ",
"                                        !.~.{.K K K K ].I ^./.(._.$.:.<.[.}.|.1.1.2.3.4.5.6.7.8.9.          ",
"                                      0.a.b.c.K ].d.{.e.f._._.g.h.i.e.^.j.k.l.m.L n.o.p.q.r.s.H t.u.        ",
"                                      v.w.x.Y y.z.A.B.C.D.E.^.I d.A.F.O G.H.I.K J.K.N L.M.C N.O.P.Q.        ",
"                                    ^ H I Z R.S.] F.T.J I W K K ].z.| W K U.V.H W.X.C.Y.  Z.`.O  +}         ",
"                                    .+++@+#+$+q ].I J K K K K K K y.%+&+].*+O =+-+          ;+..w.>+,+      ",
"                                  1 '+F.)+!+~+..K K K K K K K K K K ..Y {+S.]+^+e           3 /+O.(+_+      ",
"                            :+L.<+[+K I X _.e.W K K K K K K K }+|+1+2+H 3+M.4+!+_+          5+6+O 7+8+      ",
"                      9+{ 0+a+b+c+d+K K I g.e+O f+K K K }+|+|+g+h+i+j+k+X ` $.{               l+m+n+o+p+    ",
"                1 / q+r+s+t+u+v+w+w.x+V.y+z+A+B+C+D+|+|+E+F+G+H+I+J+K+L+I M+N+O+              P+Q+R+S+T+    ",
"            ^ U+V+W+z X+Y+Z+2.`+2. @.@+@{.@@#@$@%@&@*@=@-@;@>@,@'@)@!@~@H K ]                 {@]@^@/@(@    ",
"        M._@` ~.A :@x.X y.z.<@[@1.O }@W q |@1@2@3@4@5@6@7@8@9@0@a@b@c@d@e@O X.                  f@g@h@i@    ",
"            M.K X Y j@=+k@l@m@n@o@)+=+I 8.p@q@r@s@4@t@u@v@w@x@y@z@A@B@C@D@N                       E@F@      ",
"              G@H@I@E J@N+K@L@M@e N@/ O@i.P@Q@R@S@T@U@V@W@X@Y@Z@`@ #.#+#@#;+                        ##      ",
"                K@$#X %##+}         _+#+&#*#=#-#;#>#)@,#'#v@)#)#!#~#{#]#O.^#                                ",
"                  Q j@X 5.{             /#(#_#:#<#[#}#|#1#2#3#4#5#6#7#+.X {+8#                              ",
"                  q.9#O 0#a#                (#b#c#d#O e#f#g#h#i#j#k#O.N l#m#}                               ",
"                  '+n#Y o#^ p#                  q#r#O s#t#u#v#w#4@x#y#z#A#B#C#                              ",
"                    q.D#X P {                     E#F#K O y.G#H#I#J#J K#L#M#                                ",
"                    Q N#O O#$.                    Q  .B P#Q#O K.D+K %#x.R#^                                 ",
"                    C.S#T#U#V#p#                    W#X#Y#Z#`#K K K K O  $.$                                ",
"                      +$@$#$$$%$                    &$V#*$=$-$`#K ;$U.>$,$'$                                ",
"                      )$!$~${$]$                        ^$/$($_$O :$<$[$}$|$                                ",
"                      1$2$3$4$5$                          6$#+7$8$9$0$a$}                                   ",
"                        b$c$d$                              ] e$f$g$h$i$                                    ",
"                            j$                                  O+] / M.                                    ",
"                                                                  k$}                                       ",
"                                                                                                            "};
