/* XPM */
static char * nave2_4_xpm[] = {
"54 50 752 2",
"  	c None",
". 	c #303186",
"+ 	c #303184",
"@ 	c #333379",
"# 	c #36365D",
"$ 	c #373737",
"% 	c #323283",
"& 	c #30308D",
"* 	c #2B2CA7",
"= 	c #2526C1",
"- 	c #2D2DA0",
"; 	c #2021D4",
"> 	c #050BF8",
", 	c #1618E4",
"' 	c #32327F",
") 	c #36364C",
"! 	c #363640",
"~ 	c #363648",
"{ 	c #363645",
"] 	c #363646",
"^ 	c #363643",
"/ 	c #2B3464",
"( 	c #253177",
"_ 	c #2A346B",
": 	c #233571",
"< 	c #2F3469",
"[ 	c #30309A",
"} 	c #1719EC",
"| 	c #0003FF",
"1 	c #191BDF",
"2 	c #2E2F98",
"3 	c #2E2F96",
"4 	c #2B2CA8",
"5 	c #2B2DA6",
"6 	c #2A2BAC",
"7 	c #2D2EA3",
"8 	c #2229AF",
"9 	c #3632A2",
"0 	c #4E388B",
"a 	c #4A2496",
"b 	c #482696",
"c 	c #4622AE",
"d 	c #1B21D6",
"e 	c #2F2FA3",
"f 	c #1F22DF",
"g 	c #0209FC",
"h 	c #1314EC",
"i 	c #2A2BAB",
"j 	c #161AEA",
"k 	c #0A0EF5",
"l 	c #070DF7",
"m 	c #0C10F3",
"n 	c #0F12F2",
"o 	c #030CF5",
"p 	c #2519F3",
"q 	c #76407D",
"r 	c #83274F",
"s 	c #81085B",
"t 	c #7B0D6C",
"u 	c #2E1ED2",
"v 	c #223290",
"w 	c #303096",
"x 	c #1C20EC",
"y 	c #0007FF",
"z 	c #181AE1",
"A 	c #2A2BB3",
"B 	c #2022E3",
"C 	c #1313F1",
"D 	c #1315EA",
"E 	c #1415EA",
"F 	c #1215EB",
"G 	c #060EF4",
"H 	c #3426DC",
"I 	c #6D3E79",
"J 	c #782449",
"K 	c #801526",
"L 	c #731A5E",
"M 	c #4C249C",
"N 	c #303194",
"O 	c #2022E1",
"P 	c #1013ED",
"Q 	c #323280",
"R 	c #313292",
"S 	c #313192",
"T 	c #2F308D",
"U 	c #2F2F91",
"V 	c #2F2E95",
"W 	c #2D2E97",
"X 	c #333384",
"Y 	c #3E3572",
"Z 	c #463068",
"` 	c #412F6E",
" .	c #422F7B",
"..	c #303196",
"+.	c #1F22E1",
"@.	c #0209FF",
"#.	c #0E11E6",
"$.	c #2E2E95",
"%.	c #323367",
"&.	c #343468",
"*.	c #353652",
"=.	c #38370F",
"-.	c #373726",
";.	c #36372D",
">.	c #323531",
",.	c #323542",
"'.	c #1B3662",
").	c #2D374E",
"!.	c #2F309D",
"~.	c #1F21E0",
"{.	c #0307FF",
"].	c #1A1BE7",
"^.	c #3B3C91",
"/.	c #30309C",
"(.	c #31317F",
"_.	c #1E20E5",
":.	c #0206FC",
"<.	c #2122ED",
"[.	c #3132D6",
"}.	c #292AC8",
"|.	c #302F91",
"1.	c #303092",
"2.	c #040AFC",
"3.	c #0D11F8",
"4.	c #1F22F0",
"5.	c #0004FB",
"6.	c #2E2F97",
"7.	c #1F21E4",
"8.	c #020AFD",
"9.	c #0001FC",
"0.	c #0406FD",
"a.	c #1417E6",
"b.	c #2E2E9A",
"c.	c #353561",
"d.	c #0910FA",
"e.	c #080DF8",
"f.	c #0307FC",
"g.	c #1115EC",
"h.	c #2929B3",
"i.	c #333378",
"j.	c #34346D",
"k.	c #2E2F9D",
"l.	c #191DE7",
"m.	c #171AF4",
"n.	c #2F31E1",
"o.	c #1214F7",
"p.	c #0001FD",
"q.	c #1B1CDE",
"r.	c #2D2EA0",
"s.	c #323381",
"t.	c #313283",
"u.	c #303189",
"v.	c #2F2F98",
"w.	c #1314ED",
"x.	c #2526EB",
"y.	c #3636D8",
"z.	c #0004FC",
"A.	c #1519E5",
"B.	c #2E2F9A",
"C.	c #343472",
"D.	c #33356D",
"E.	c #2F2F92",
"F.	c #2E2E9D",
"G.	c #1011EE",
"H.	c #0103FE",
"I.	c #2121F2",
"J.	c #0C0BFC",
"K.	c #050DF4",
"L.	c #2728BA",
"M.	c #303095",
"N.	c #2D2E9F",
"O.	c #2B2CAA",
"P.	c #1E20C9",
"Q.	c #0F12ED",
"R.	c #1E1FD6",
"S.	c #1D1ED9",
"T.	c #0B11F3",
"U.	c #1618E5",
"V.	c #1214EA",
"W.	c #070EF7",
"X.	c #1819E5",
"Y.	c #0C11F2",
"Z.	c #0D11F1",
"`.	c #0B11F2",
" +	c #1416EB",
".+	c #1417E9",
"++	c #1519E6",
"@+	c #1199E3",
"#+	c #1099E3",
"$+	c #36389A",
"%+	c #2C2ED1",
"&+	c #070CFB",
"*+	c #1618E6",
"=+	c #2A2CAA",
"-+	c #2628BE",
";+	c #31318A",
">+	c #2223CA",
",+	c #0D12EF",
"'+	c #0107FE",
")+	c #050AFB",
"!+	c #080DFB",
"~+	c #0B0FFB",
"{+	c #1415F6",
"]+	c #1616E7",
"^+	c #1619E6",
"/+	c #2728BB",
"(+	c #2E2E98",
"_+	c #2C2BA4",
":+	c #312F86",
"<+	c #32317D",
"[+	c #1099E2",
"}+	c #2C2D97",
"|+	c #2C2DB1",
"1+	c #3335CC",
"2+	c #3537D1",
"3+	c #191CF5",
"4+	c #1515E8",
"5+	c #2F2F95",
"6+	c #1C1EDB",
"7+	c #1A1BE1",
"8+	c #1616E9",
"9+	c #0F13EF",
"0+	c #000BFA",
"a+	c #050DF8",
"b+	c #1518D7",
"c+	c #1114D1",
"d+	c #0D0ECA",
"e+	c #1919AA",
"f+	c #15159A",
"g+	c #1315DF",
"h+	c #0E14F1",
"i+	c #1010ED",
"j+	c #181CE4",
"k+	c #2B39B2",
"l+	c #33347B",
"m+	c #2F2E88",
"n+	c #2F318E",
"o+	c #2D2E92",
"p+	c #119BE7",
"q+	c #119CE8",
"r+	c #119BE6",
"s+	c #119CE7",
"t+	c #2E299B",
"u+	c #30308C",
"v+	c #32337D",
"w+	c #303094",
"x+	c #2526E0",
"y+	c #292AE9",
"z+	c #070CFD",
"A+	c #0B12F0",
"B+	c #292AB2",
"C+	c #181BE3",
"D+	c #0000FF",
"E+	c #0004FF",
"F+	c #0009FA",
"G+	c #000AFC",
"H+	c #020AE2",
"I+	c #000093",
"J+	c #19174C",
"K+	c #36324D",
"L+	c #393523",
"M+	c #373149",
"N+	c #332F92",
"O+	c #1D1AD7",
"P+	c #093EF9",
"Q+	c #2362CE",
"R+	c #2E4999",
"S+	c #3226A0",
"T+	c #353592",
"U+	c #343574",
"V+	c #343369",
"W+	c #119EEA",
"X+	c #119DE9",
"Y+	c #119BE5",
"Z+	c #2F2697",
"`+	c #322C7E",
" @	c #332D77",
".@	c #2D2D9B",
"+@	c #0F10F0",
"@@	c #0206FD",
"#@	c #1116EA",
"$@	c #2A2BAF",
"%@	c #1214ED",
"&@	c #0008FC",
"*@	c #010BF9",
"=@	c #010BFA",
"-@	c #010BFD",
";@	c #0008E9",
">@	c #010077",
",@	c #433D06",
"'@	c #6B6200",
")@	c #726A01",
"!@	c #686000",
"~@	c #4B4528",
"{@	c #00008F",
"]@	c #0000F7",
"^@	c #005DFA",
"/@	c #157DEF",
"(@	c #1154F1",
"_@	c #1F20EC",
":@	c #3536BE",
"<@	c #353582",
"[@	c #313082",
"}@	c #303084",
"|@	c #119DE8",
"1@	c #119CE6",
"2@	c #119AE4",
"3@	c #109EE9",
"4@	c #2E489B",
"5@	c #2E4E9A",
"6@	c #333E78",
"7@	c #2E2B9A",
"8@	c #1112EF",
"9@	c #0005FE",
"0@	c #181AE2",
"a@	c #2829B4",
"b@	c #0002FF",
"c@	c #010BF8",
"d@	c #010BFF",
"e@	c #0005DE",
"f@	c #000074",
"g@	c #4B4500",
"h@	c #857C03",
"i@	c #9B9105",
"j@	c #9D9208",
"k@	c #847900",
"l@	c #6A6186",
"m@	c #413CCA",
"n@	c #0E2FE5",
"o@	c #0751FC",
"p@	c #0013FD",
"q@	c #0F11F9",
"r@	c #2020E3",
"s@	c #2B26B2",
"t@	c #353284",
"u@	c #36307F",
"v@	c #32316A",
"w@	c #119BE4",
"x@	c #109DE9",
"y@	c #364657",
"z@	c #2A71A8",
"A@	c #2283C5",
"B@	c #2F628E",
"C@	c #2D349C",
"D@	c #130FE9",
"E@	c #0005FC",
"F@	c #2729B7",
"G@	c #1015EC",
"H@	c #010AFA",
"I@	c #010DFF",
"J@	c #0008EE",
"K@	c #00005E",
"L@	c #453F00",
"M@	c #8A8004",
"N@	c #B2A407",
"O@	c #DCCC06",
"P@	c #DCCC00",
"Q@	c #CBBC00",
"R@	c #867966",
"S@	c #1A1669",
"T@	c #0000E8",
"U@	c #0100FE",
"V@	c #0000FD",
"W@	c #1A2CE4",
"X@	c #3553C6",
"Y@	c #354189",
"Z@	c #332A7D",
"`@	c #313285",
" #	c #119EE9",
".#	c #109EEA",
"+#	c #37404D",
"@#	c #277DB3",
"##	c #1B94D8",
"$#	c #2E7096",
"%#	c #2D359D",
"&#	c #0C09F0",
"*#	c #0008FE",
"=#	c #0006FD",
"-#	c #1B1CDF",
";#	c #2F2F9A",
">#	c #010BFB",
",#	c #0105E9",
"'#	c #00007F",
")#	c #575100",
"!#	c #A19706",
"~#	c #D0C108",
"{#	c #ECDB09",
"]#	c #F9E705",
"^#	c #E8D700",
"/#	c #988D00",
"(#	c #000070",
"_#	c #0000DF",
":#	c #010CFD",
"<#	c #0000FC",
"[#	c #095FFC",
"}#	c #2486DC",
"|#	c #2F6595",
"1#	c #331A78",
"2#	c #323483",
"3#	c #364551",
"4#	c #287AAF",
"5#	c #1B93D8",
"6#	c #2E6994",
"7#	c #30338B",
"8#	c #120AEC",
"9#	c #0007FD",
"0#	c #0B10F3",
"a#	c #292AB1",
"b#	c #1618E7",
"c#	c #0007FC",
"d#	c #010BFE",
"e#	c #0001E8",
"f#	c #151371",
"g#	c #807700",
"h#	c #D8C906",
"i#	c #EFDE09",
"j#	c #F3E109",
"k#	c #F4E208",
"l#	c #E3D400",
"m#	c #9A8F0B",
"n#	c #332F7C",
"o#	c #0001E7",
"p#	c #0109FE",
"q#	c #0109FA",
"r#	c #0017FC",
"s#	c #045CFD",
"t#	c #1D8BE2",
"u#	c #305B95",
"v#	c #322A80",
"w#	c #323084",
"x#	c #37434D",
"y#	c #2A6FA8",
"z#	c #2186CA",
"A#	c #2F6693",
"B#	c #2F3298",
"C#	c #1510E8",
"D#	c #0009FC",
"E#	c #272AB6",
"F#	c #181AE3",
"G#	c #0004FD",
"H#	c #0205E7",
"I#	c #908600",
"J#	c #E6D608",
"K#	c #FAE80A",
"L#	c #F1E007",
"M#	c #B8AA00",
"N#	c #857C6F",
"O#	c #2F2EB1",
"P#	c #0000E9",
"Q#	c #0000F9",
"R#	c #141CEC",
"S#	c #254FCB",
"T#	c #303893",
"U#	c #322C82",
"V#	c #313384",
"W#	c #2E4698",
"X#	c #2F4B94",
"Y#	c #2F2B97",
"Z#	c #1618E8",
"`#	c #2829B5",
" $	c #171AE2",
".$	c #0004DF",
"+$	c #020161",
"@$	c #736A00",
"#$	c #DFD007",
"$$	c #F3E206",
"%$	c #E1D200",
"&$	c #B1A600",
"*$	c #6C644F",
"=$	c #2425BE",
"-$	c #1517EA",
";$	c #1C06EE",
">$	c #0E5BF9",
",$	c #005AFC",
"'$	c #1430EA",
")$	c #2A1CB1",
"!$	c #302894",
"~$	c #322D81",
"{$	c #2F2395",
"]$	c #322C80",
"^$	c #342F6E",
"/$	c #2B28A5",
"($	c #1318E9",
"_$	c #0005FD",
":$	c #0008FB",
"<$	c #1719E5",
"[$	c #2728B9",
"}$	c #0E13EE",
"|$	c #000AF9",
"1$	c #0007F9",
"2$	c #0004EF",
"3$	c #000078",
"4$	c #645B00",
"5$	c #AB9F00",
"6$	c #B4A800",
"7$	c #AEA319",
"8$	c #867D70",
"9$	c #3C3B9D",
"0$	c #0000EA",
"a$	c #0C0BFE",
"b$	c #244EEA",
"c$	c #2694DC",
"d$	c #228AD6",
"e$	c #2245DC",
"f$	c #322F8A",
"g$	c #343669",
"h$	c #313286",
"i$	c #119AE5",
"j$	c #2E2D9D",
"k$	c #31308E",
"l$	c #343474",
"m$	c #0810F5",
"n$	c #030CFC",
"o$	c #1518E6",
"p$	c #2E2F99",
"q$	c #0400FA",
"r$	c #2537F0",
"s$	c #164CE4",
"t$	c #01348C",
"u$	c #24123A",
"v$	c #46374F",
"w$	c #46364B",
"x$	c #463E88",
"y$	c #3E31C9",
"z$	c #1C1DE7",
"A$	c #0302FA",
"B$	c #1D3BE5",
"C$	c #30439A",
"D$	c #305D96",
"E$	c #304297",
"F$	c #32227F",
"G$	c #2E2EA1",
"H$	c #2E2E9C",
"I$	c #2829B9",
"J$	c #191CE3",
"K$	c #161AEC",
"L$	c #070FFA",
"M$	c #060FF4",
"N$	c #2C2CA7",
"O$	c #2728BD",
"P$	c #181CE2",
"Q$	c #1703E4",
"R$	c #2440E2",
"S$	c #427AC2",
"T$	c #2FA1D8",
"U$	c #3476C0",
"V$	c #2F63B1",
"W$	c #335DB6",
"X$	c #276BB8",
"Y$	c #2359C0",
"Z$	c #2444E4",
"`$	c #0807F3",
" %	c #1718E1",
".%	c #191BE1",
"+%	c #2311C5",
"@%	c #2F1B8E",
"#%	c #2F1592",
"$%	c #109AE3",
"%%	c #171BE7",
"&%	c #1416E8",
"*%	c #2B2CA9",
"=%	c #2F3094",
"-%	c #2527BF",
";%	c #2A03A3",
">%	c #2951C0",
",%	c #2791D9",
"'%	c #23A1EA",
")%	c #239CEC",
"!%	c #2697EB",
"~%	c #23A1EB",
"{%	c #1F96EF",
"]%	c #2A87E8",
"^%	c #3153CF",
"/%	c #312AA0",
"(%	c #2F2F8F",
"_%	c #2D2DA5",
":%	c #303393",
"<%	c #30328F",
"[%	c #1A1DDD",
"}%	c #181BE1",
"|%	c #1B1DDC",
"1%	c #2A2CAD",
"2%	c #191CDF",
"3%	c #151BE6",
"4%	c #1718E5",
"5%	c #1222EB",
"6%	c #0944F5",
"7%	c #1155E8",
"8%	c #1359E5",
"9%	c #0C59EB",
"0%	c #1148EB",
"a%	c #0F56E9",
"b%	c #1B4FE2",
"c%	c #2628E1",
"d%	c #303188",
"e%	c #2C2DA3",
"f%	c #1113EE",
"g%	c #0003FE",
"h%	c #0100FC",
"i%	c #0800F4",
"j%	c #2400C6",
"k%	c #2E249F",
"l%	c #2D03A0",
"m%	c #2F1C93",
"n%	c #311D8E",
"o%	c #2828A7",
"p%	c #210AC2",
"q%	c #30308B",
"r%	c #0F15F4",
"s%	c #0F16F4",
"t%	c #040DFA",
"u%	c #1016ED",
"v%	c #2B2AAD",
"w%	c #353570",
"x%	c #353663",
"y%	c #353560",
"z%	c #2D2D9A",
"A%	c #1718E4",
"B%	c #0407FE",
"C%	c #191DEF",
"D%	c #2526E8",
"E%	c #1516F5",
"F%	c #191BE0",
"G%	c #2B2DAA",
"H%	c #343376",
"I%	c #343362",
"J%	c #2E2E97",
"K%	c #1718E8",
"L%	c #2123EE",
"M%	c #181AF2",
"N%	c #1414F7",
"O%	c #1D1EE5",
"P%	c #292AB0",
"Q%	c #323379",
"R%	c #35355E",
"S%	c #2C2C9C",
"T%	c #2829DA",
"U%	c #3233E3",
"V%	c #0D13F7",
"W%	c #0003FC",
"X%	c #1214EC",
"Y%	c #2D2D9D",
"Z%	c #37363F",
"`%	c #181CE6",
" &	c #1A1CF4",
".&	c #0D14F7",
"+&	c #0B13F8",
"@&	c #1419EC",
"#&	c #2C2CA6",
"$&	c #303192",
"%&	c #2023DE",
"&&	c #090EFD",
"*&	c #0E11F4",
"=&	c #2326E0",
"-&	c #2022DA",
";&	c #31318C",
">&	c #2124DB",
",&	c #050BFD",
"'&	c #1517EB",
")&	c #2F2FAF",
"!&	c #32328F",
"~&	c #313086",
"{&	c #303195",
"]&	c #0208FF",
"^&	c #1112ED",
"/&	c #34336C",
"(&	c #333372",
"_&	c #333474",
":&	c #33337D",
"<&	c #33337B",
"[&	c #303284",
"}&	c #2D327F",
"|&	c #2A3285",
"1&	c #25328D",
"2&	c #23338E",
"3&	c #2A328F",
"4&	c #323285",
"5&	c #2224DD",
"6&	c #030AFE",
"7&	c #31308B",
"8&	c #2D2D9F",
"9&	c #2E2F9B",
"0&	c #2A2CA1",
"a&	c #2F319C",
"b&	c #48367D",
"c&	c #47307B",
"d&	c #4C2978",
"e&	c #432E81",
"f&	c #3527B2",
"g&	c #31318F",
"h&	c #2224DB",
"i&	c #040CFE",
"j&	c #090FF4",
"k&	c #2020D3",
"l&	c #0E0EF2",
"m&	c #0A0FF3",
"n&	c #1012EF",
"o&	c #1114EC",
"p&	c #0D0FF1",
"q&	c #3425E5",
"r&	c #6F3D87",
"s&	c #822C23",
"t&	c #82142D",
"u&	c #77136D",
"v&	c #5020AA",
"w&	c #1A2FA8",
"x&	c #2224DE",
"y&	c #040BFF",
"z&	c #1416E9",
"A&	c #1B1DDB",
"B&	c #0D10F3",
"C&	c #0E12F0",
"D&	c #1012EE",
"E&	c #020CF1",
"F&	c #3627DE",
"G&	c #693A8E",
"H&	c #7A2B42",
"I&	c #831030",
"J&	c #791460",
"K&	c #4323B2",
"L&	c #282EA3",
"M&	c #2023DB",
"N&	c #1313EC",
"O&	c #2C2BA8",
"P&	c #303091",
"Q&	c #2E2F94",
"R&	c #2D2E9C",
"S&	c #2D2E9D",
"T&	c #2A2CA2",
"U&	c #33328F",
"V&	c #3F357A",
"W&	c #462F7B",
"X&	c #442E76",
"Y&	c #432D87",
"Z&	c #1D1FDB",
"`&	c #0C0DF3",
" *	c #333377",
".*	c #32327D",
"+*	c #2E3184",
"@*	c #29318B",
"#*	c #1D3193",
"$*	c #183392",
"%*	c #263194",
"&*	c #333277",
"**	c #2F2F96",
"=*	c #2B2CA6",
"-*	c #2B2BAA",
";*	c #333375",
">*	c #343470",
",*	c #37370F",
"'*	c #32327A",
")*	c #313284",
"                                                      . +                                                   ",
"                                                      @ # $                                                 ",
"                                                      % & * =                                               ",
"                                                      - ; > , ' ) ! ~ { ] ^ / ( _ : <                       ",
"                                                      [ } | 1 2 3 4 5 6 7 8 9 0 a b c d                     ",
"                                                      e f g h i j k l m n o p q r s t u v                   ",
"                                                      w x y z A B C D E F G H I J K L M                     ",
"                                                      N O y P Q R S T U V W X Y Z `  .                      ",
"                                                      ..+.@.#.$.%.&.*.=.-.;.>.,.'.).                        ",
"                                                      !.~.{.].^./.(.                                        ",
"                                                      /._.:.<.[.}.|.                                        ",
"                                                      1._.2.3.4.5.6.                                        ",
"                                                      w 7.8.9.0.a.b.c.                                      ",
"                                                      ..f d.e.f.g.h.i.j.                                    ",
"                                                      k.l.m.n.o.p.q.r.s.t.u.                                ",
"                                                      v.w.x.y.x.z.A.B.C.C.D.                                ",
"                                                  - E.F.G.H.I.J.K.L.M.F.N.r.B.O.                            ",
"                                                P.Q.R.O.S.T.U.V.W.X.Y.Z.`. +.+++                            ",
"                                @+#+          $+%+&+*+=+N.-+;+>+,+'+)+!+~+{+]+^+/+(+_+:+<+                  ",
"                              [+[+        }+|+1+2+3+4+5+6+7+8+9+0+a+b+c+d+e+f+g+h+i+j+k+l+m+n+o+            ",
"                    p+q+    r+s+      t+u+v+w+x+y+z+A+B+C+D+E+F+G+H+I+J+K+L+M+N+O+D+P+Q+R+S+T+U+V+          ",
"          W+      X+Y+      r+W+      Z+`+ @.@+@@@9.#@$@%@&@*@=@-@;@>@,@'@)@!@~@{@]@^@/@(@_@:@<@[@}@        ",
"          |@1@    W+        2@3@      4@5@6@7@8@E+9@0@a@z b@*@c@d@e@f@g@h@i@j@k@l@m@n@o@p@q@r@s@t@u@v@      ",
"      W+r+        W+W+      w@x@    y@z@A@B@C@D@E@9@X.F@G@H@*@c@I@J@K@L@M@N@O@P@Q@R@S@T@U@V@f.W@X@Y@Z@`@    ",
"       #s+        W+        r+.#    +#@###$#%#&#*#=#-#;#.+| *@*@>#,#'#)#!#~#{#]#^#/#(#_#:#*@<#[#}#|#1#2#    ",
"      X+s+        W+        Y+.#    3#4#5#6#7#8#9#=#0#a#b#c#*@*@d#e#f#g#h#i#j#k#l#m#n#o#p#q#r#s#t#u#v#w#    ",
"      X+s+        W+        Y+.#    x#y#z#A#B#C#=#D#++E#F#G#*@*@d@H#'#I#J#K#L#J#M#N#O#P#| Q#<#R#S#T#U#V#    ",
"          W+|@    W+        2@|@      W#X#6@Y#E c#E+Z#`# $&@*@*@d#.$+$@$#$$$%$&$*$=$-$;$>$,$'$)$!$~$        ",
"                  X+s+      Y+|@      {$]$^$/$($_$:$<$[$}$c#|$1$b@2$3$4$5$6$7$8$9$0$a$b$c$d$e$f$g$h$        ",
"                    s+X+    i$q+      j$k$l$1.m$n$| o$p$<$D+V@q$r$s$t$u$v$w$x$y$z$D+A$B$C$D$E$F$D.          ",
"                                2@      G$H$I$J$K$L$M$N$O$P$Q$R$S$T$U$V$W$X$Y$Z$`$ %.%+%@%#%                ",
"                                i$$%          $@%%| &%*%=%-%;%>%,%'%)%!%~%{%]%^%/%(%_%:%<%                  ",
"                                                [%}%|%1%2%3%4%5%6%7%8%9%0%a%b%c%                            ",
"                                                  a#d%e%f%D+g%h%i%j%k%l%m%n%o%p%                            ",
"                                                      q%w._$r%s%t%u%v%w%x%y%                                ",
"                                                      z%A%B%C%D%E%F%G%H%I%                                  ",
"                                                      J%K%L%M%N%O%P%Q%R%                                    ",
"                                                      S%T%U%V%W%X%Y%Z%                                      ",
"                                                      (%`% &.&+&@&#&                                        ",
"                                                      $&%&&&*&=&-&H$                                        ",
"                                                      ;&>&,&'&)&!&~&                                        ",
"                                                      {&%&]&^&$./&(&_&:&<&[&}&|&1&2&3&                      ",
"                                                      4&5&6&9+& 7&e%N.8&9&0&a&b&c&d&e&f&                    ",
"                                                      g&h&i&j&F@k&l&m&n&o&p&q&r&s&t&u&v&w&                  ",
"                                                      g&x&y&z&[$A&B&C&4%D&E&F&G&H&I&J&K&L&                  ",
"                                                      M.M&{.N&O&P&=%Q&R&S&T&U&V&W&X&Y&                      ",
"                                                      5+Z&`&X.N$'  *d%.*Q .*+*@*#*$*%*                      ",
"                                                      &***=*-*                                              ",
"                                                      ;*>*,*                                                ",
"                                                      '*)*                                                  "};
