/* XPM */
static char * nave1_7_xpm[] = {
"54 50 496 2",
"  	c None",
". 	c #119DE9",
"+ 	c #119CE8",
"@ 	c #119CE7",
"# 	c #119BE7",
"$ 	c #119EE9",
"% 	c #119BE6",
"& 	c #119DE8",
"* 	c #119EEA",
"= 	c #119DE7",
"- 	c #119BE5",
"; 	c #1099E3",
"> 	c #1198E1",
", 	c #119AE5",
"' 	c #0F98E0",
") 	c #373737",
"! 	c #383838",
"~ 	c #109DE9",
"{ 	c #109FEB",
"] 	c #353535",
"^ 	c #363636",
"/ 	c #0C9FEE",
"( 	c #333333",
"_ 	c #3A3A3A",
": 	c #3F3F3F",
"< 	c #3D3D3D",
"[ 	c #119EEB",
"} 	c #392D1A",
"| 	c #343434",
"1 	c #434343",
"2 	c #505050",
"3 	c #575757",
"4 	c #4F4F4F",
"5 	c #3C3C3C",
"6 	c #383A4A",
"7 	c #345779",
"8 	c #306793",
"9 	c #30618A",
"0 	c #393740",
"a 	c #362F27",
"b 	c #353534",
"c 	c #414141",
"d 	c #4E4E4E",
"e 	c #5C5C5C",
"f 	c #656565",
"g 	c #676767",
"h 	c #595959",
"i 	c #1098E3",
"j 	c #354F67",
"k 	c #2E6996",
"l 	c #2683BF",
"m 	c #2287C5",
"n 	c #2873A8",
"o 	c #30516F",
"p 	c #34322C",
"q 	c #454545",
"r 	c #4C4C4C",
"s 	c #5A5A5A",
"t 	c #696969",
"u 	c #646464",
"v 	c #109BE6",
"w 	c #345A79",
"x 	c #287BB2",
"y 	c #1699E0",
"z 	c #1E83C1",
"A 	c #266896",
"B 	c #34475B",
"C 	c #423F3C",
"D 	c #525150",
"E 	c #5B5B5B",
"F 	c #535353",
"G 	c #4A4949",
"H 	c #474646",
"I 	c #404040",
"J 	c #353434",
"K 	c #3E3E3E",
"L 	c #4A4A4A",
"M 	c #626262",
"N 	c #686868",
"O 	c #484848",
"P 	c #2F2F2F",
"Q 	c #393226",
"R 	c #354656",
"S 	c #2B6590",
"T 	c #2670A2",
"U 	c #306087",
"V 	c #3D4C5D",
"W 	c #4F4D4A",
"X 	c #5F5E5B",
"Y 	c #6C6C6C",
"Z 	c #6E6E6E",
"` 	c #656464",
" .	c #5B5A5A",
"..	c #484747",
"+.	c #555555",
"@.	c #616161",
"#.	c #6D6D6D",
"$.	c #6A6A6A",
"%.	c #5D5D5D",
"&.	c #515151",
"*.	c #424242",
"=.	c #373535",
"-.	c #35332E",
";.	c #352F28",
">.	c #323D4A",
",.	c #3B4552",
"'.	c #4F4F51",
").	c #5F5A54",
"!.	c #6A6764",
"~.	c #717170",
"{.	c #757674",
"].	c #757574",
"^.	c #707070",
"/.	c #6D6C6C",
"(.	c #444444",
"_.	c #393939",
":.	c #444343",
"<.	c #535454",
"[.	c #636262",
"}.	c #6B6B6B",
"|.	c #727272",
"1.	c #747575",
"2.	c #666666",
"3.	c #636363",
"4.	c #464646",
"5.	c #303030",
"6.	c #333332",
"7.	c #403D38",
"8.	c #4C4946",
"9.	c #5A5855",
"0.	c #696765",
"a.	c #70706E",
"b.	c #757473",
"c.	c #737372",
"d.	c #6E6F6E",
"e.	c #616262",
"f.	c #4B4A4A",
"g.	c #3F3D3D",
"h.	c #514E4E",
"i.	c #6F6F6F",
"j.	c #727070",
"k.	c #757676",
"l.	c #717171",
"m.	c #323232",
"n.	c #545454",
"o.	c #353636",
"p.	c #5C5D5D",
"q.	c #706F6F",
"r.	c #737474",
"s.	c #747475",
"t.	c #737373",
"u.	c #5B5C5C",
"v.	c #403E3E",
"w.	c #3A3737",
"x.	c #474545",
"y.	c #555252",
"z.	c #605D5D",
"A.	c #686666",
"B.	c #6A6B6B",
"C.	c #606060",
"D.	c #535252",
"E.	c #2F3030",
"F.	c #767676",
"G.	c #6E6F6F",
"H.	c #545555",
"I.	c #434141",
"J.	c #3B3838",
"K.	c #433D3D",
"L.	c #3C3939",
"M.	c #414040",
"N.	c #4E4B4B",
"O.	c #575252",
"P.	c #585454",
"Q.	c #585656",
"R.	c #3B3A3A",
"S.	c #6C6D6D",
"T.	c #585A5A",
"U.	c #3A3B3B",
"V.	c #2E2E2E",
"W.	c #585858",
"X.	c #747474",
"Y.	c #525252",
"Z.	c #3E3B3B",
"`.	c #413C3C",
" +	c #453F3F",
".+	c #4D4545",
"++	c #4B4343",
"@+	c #413D3D",
"#+	c #4C4848",
"$+	c #4C4949",
"%+	c #504D4D",
"&+	c #4A4848",
"*+	c #6A6C6C",
"=+	c #464444",
"-+	c #2C3636",
";+	c #616060",
">+	c #444242",
",+	c #3F3C3C",
"'+	c #3F3B3B",
")+	c #464040",
"!+	c #4B4444",
"~+	c #4C4545",
"{+	c #4E4747",
"]+	c #4D4646",
"^+	c #484444",
"/+	c #484646",
"(+	c #494747",
"_+	c #454242",
":+	c #424141",
"<+	c #464545",
"[+	c #434242",
"}+	c #434444",
"|+	c #615C5C",
"1+	c #726161",
"2+	c #624B4B",
"3+	c #3E3636",
"4+	c #263636",
"5+	c #494949",
"6+	c #393737",
"7+	c #463F3F",
"8+	c #4A4343",
"9+	c #4D4747",
"0+	c #4F4848",
"a+	c #524C4C",
"b+	c #534E4E",
"c+	c #534F4F",
"d+	c #535050",
"e+	c #4D4A4A",
"f+	c #3A3939",
"g+	c #383737",
"h+	c #333434",
"i+	c #544444",
"j+	c #774343",
"k+	c #7C2B2B",
"l+	c #562F2F",
"m+	c #2F3737",
"n+	c #3B3C3C",
"o+	c #474747",
"p+	c #3B3B3B",
"q+	c #3E3939",
"r+	c #4A4444",
"s+	c #534C4C",
"t+	c #565252",
"u+	c #545151",
"v+	c #4B4848",
"w+	c #504C4C",
"x+	c #4F4C4C",
"y+	c #383939",
"z+	c #363737",
"A+	c #373838",
"B+	c #283535",
"C+	c #443636",
"D+	c #702B2B",
"E+	c #860707",
"F+	c #6C2222",
"G+	c #403434",
"H+	c #313232",
"I+	c #3F3E3E",
"J+	c #423E3E",
"K+	c #4B4545",
"L+	c #4E4746",
"M+	c #4F4746",
"N+	c #504847",
"O+	c #504848",
"P+	c #4D4648",
"Q+	c #4A4749",
"R+	c #3E3B3E",
"S+	c #2A282B",
"T+	c #383538",
"U+	c #4C494A",
"V+	c #4B4747",
"W+	c #3E3D3D",
"X+	c #323636",
"Y+	c #602B2B",
"Z+	c #7D1616",
"`+	c #732020",
" @	c #553030",
".@	c #494848",
"+@	c #3E3C3C",
"@@	c #484343",
"#@	c #4B4345",
"$@	c #272332",
"%@	c #25222A",
"&@	c #2F2A19",
"*@	c #231F09",
"=@	c #272528",
"-@	c #434044",
";@	c #243939",
">@	c #3F3535",
",@	c #662828",
"'@	c #5E2D2D",
")@	c #443535",
"!@	c #323333",
"~@	c #393A3A",
"{@	c #444141",
"]@	c #4A4747",
"^@	c #514F4F",
"/@	c #4D4949",
"(@	c #4F4747",
"_@	c #4E4645",
":@	c #4D4647",
"<@	c #35303E",
"[@	c #2F2A35",
"}@	c #2B2628",
"|@	c #0C0C0B",
"1@	c #3E3902",
"2@	c #5E5600",
"3@	c #564F00",
"4@	c #35300D",
"5@	c #2F2E34",
"6@	c #454143",
"7@	c #474343",
"8@	c #3C3636",
"9@	c #313838",
"0@	c #313131",
"a@	c #555454",
"b@	c #565353",
"c@	c #595454",
"d@	c #595656",
"e@	c #545050",
"f@	c #4C4B4B",
"g@	c #5C5A5A",
"h@	c #555051",
"i@	c #453E41",
"j@	c #3B3538",
"k@	c #100E1F",
"l@	c #3E3814",
"m@	c #6E6507",
"n@	c #6C6600",
"o@	c #7C7303",
"p@	c #8B8104",
"q@	c #807700",
"r@	c #595302",
"s@	c #2E2B21",
"t@	c #383437",
"u@	c #443F3F",
"v@	c #3D3B3A",
"w@	c #6B6969",
"x@	c #686565",
"y@	c #5F5D5D",
"z@	c #575454",
"A@	c #6A696A",
"B@	c #5B5A5B",
"C@	c #322F38",
"D@	c #2C281A",
"E@	c #625B00",
"F@	c #9D9100",
"G@	c #C8B904",
"H@	c #BEB103",
"I@	c #B3A707",
"J@	c #B0A408",
"K@	c #998F04",
"L@	c #5F5803",
"M@	c #383421",
"N@	c #393536",
"O@	c #403C3D",
"P@	c #3A3839",
"Q@	c #4D4D4D",
"R@	c #737272",
"S@	c #6A6969",
"T@	c #5E5C5C",
"U@	c #575353",
"V@	c #4F4D4D",
"W@	c #636365",
"X@	c #39393C",
"Y@	c #474100",
"Z@	c #A29600",
"`@	c #E5D407",
" #	c #F4E20A",
".#	c #EBDB09",
"+#	c #E1D00A",
"@#	c #D6C708",
"##	c #B2A503",
"$#	c #67600D",
"%#	c #38332C",
"&#	c #474141",
"*#	c #433F3F",
"=#	c #606161",
"-#	c #585757",
";#	c #393838",
">#	c #676768",
",#	c #4B4E52",
"'#	c #585329",
")#	c #B0A302",
"!#	c #ECDB03",
"~#	c #F7E604",
"{#	c #F4E307",
"]#	c #F6E40B",
"^#	c #F5E406",
"/#	c #CBBD00",
"(#	c #756D13",
"_#	c #29232F",
":#	c #433C42",
"<#	c #474342",
"[#	c #3D3B3C",
"}#	c #4B4B4B",
"|#	c #5F5F5F",
"1#	c #5E5E5E",
"2#	c #5D5E62",
"3#	c #43423F",
"4#	c #8E8414",
"5#	c #C7B909",
"6#	c #DCCD00",
"7#	c #E9D901",
"8#	c #F3E103",
"9#	c #F1E005",
"0#	c #CABC06",
"a#	c #736B1E",
"b#	c #3E383A",
"c#	c #494346",
"d#	c #474242",
"e#	c #3B3939",
"f#	c #5E5E5D",
"g#	c #666769",
"h#	c #474A55",
"i#	c #444335",
"j#	c #8B8434",
"k#	c #A29622",
"l#	c #BEB004",
"m#	c #CCBD0D",
"n#	c #BDAF00",
"o#	c #908503",
"p#	c #574F29",
"q#	c #484349",
"r#	c #565254",
"s#	c #4C4948",
"t#	c #383636",
"u#	c #565656",
"v#	c #50504F",
"w#	c #57575C",
"x#	c #565659",
"y#	c #605F57",
"z#	c #56534C",
"A#	c #666141",
"B#	c #867D38",
"C#	c #69621D",
"D#	c #434131",
"E#	c #3F3F4A",
"F#	c #646466",
"G#	c #686768",
"H#	c #6D6E6E",
"I#	c #4E4E4D",
"J#	c #4E4E4F",
"K#	c #575758",
"L#	c #646568",
"M#	c #65666D",
"N#	c #5C5C66",
"O#	c #565758",
"P#	c #555554",
"Q#	c #54565C",
"R#	c #636468",
"S#	c #747574",
"T#	c #3D3D3B",
"U#	c #646463",
"V#	c #717071",
"W#	c #68676C",
"X#	c #6B6C6E",
"Y#	c #6C6E6F",
"Z#	c #6C6B6B",
"`#	c #323131",
" $	c #545353",
".$	c #5E5D5D",
"+$	c #676868",
"@$	c #4B4C4C",
"#$	c #333636",
"$$	c #484847",
"%$	c #292A2A",
"&$	c #3C3D3D",
"*$	c #5F6161",
"=$	c #585555",
"-$	c #393C3C",
";$	c #283838",
">$	c #383B3B",
",$	c #545252",
"'$	c #706060",
")$	c #6F4F4F",
"!$	c #4B3838",
"~$	c #273838",
"{$	c #2F3434",
"]$	c #494040",
"^$	c #734141",
"/$	c #823333",
"($	c #6C2A2A",
"_$	c #433333",
":$	c #2D3434",
"<$	c #523333",
"[$	c #7F1D1D",
"}$	c #572F2F",
"|$	c #353939",
"1$	c #2D3838",
"2$	c #4A3333",
"3$	c #712323",
"4$	c #771D1D",
"5$	c #612C2C",
"6$	c #5E2C2C",
"7$	c #4D3333",
"                                                                                                            ",
"                                                                                                            ",
"                                                                                                            ",
"                                .                                                                           ",
"                              . + @ # $                                                                     ",
"                              + %     @                                                                     ",
"                              &                                                                             ",
"                            &                                                                               ",
"                                      * * . % =                                                             ",
"                                  * * * *     @                                                             ",
"                                * * *                                                                       ",
"                                &                                                                           ",
"                              +               - @ & ; >                                                     ",
"                              .           , # + .     '                                         ) !         ",
"                                      - @ ~ {                                               ] ^ ) )         ",
"                                  , % + /                                               ( _ : < (           ",
"                                  % + [               }                               | 1 2 3 4 5           ",
"                                            6 7 8 9 0 a b                         ) c d e f g h             ",
"                                i         j k l m n o p ) q                   ] : r s g t u e r             ",
"                                v         w x y z A B C D E F G H I       J K L h M N N E d O _ P           ",
"                                        Q R S T U V W X Y Z t `  .H ) ^ < ..+.@.#.$.%.&.*.q &.r )           ",
"                                      =.-.;.>.,.'.).!.~.{.].^./.` (._.:.<.[.}.|.1.2.r _.| d t 3.4.5.        ",
"                                        6.7.8.9.0.a.b.].c.d.e.h f.! g.h.[.i.j.k.l.@.O ] m.O f Y n.o.        ",
"                                        4.p.N q.r.s.t.#.f u.(.v.w.) x.y.z.` A.B.C.4 K ^ P ^ D.$.u O E.      ",
"                                        &.N t.F.r.G.g H.r I.J.K.K.L.M.N.O.P.Q.F 4.R.|     5.1 e.S.T.U.V.    ",
"                                      ! W.Y X.l.g e Y.5 Z.`. +.+++@+v.x.#+$+%+&+_.]         ) <.*+2.=+-+    ",
"                                      4 C.Y }.;+L >+,+'+)+!+~+{+]+^+/+(+_+:+<+[+_ ]         E.}+|+1+2+3+4+  ",
"                                      5+E %.D.=+6+'+7+8+9+]+]+0+a+b+c+d+e+K _ f+g+            h+i+j+k+l+m+  ",
"                                      n+o+p+R.q+ +r+]+]+]+]+0+s+t+u+v+w+x+:.y+z+A+            B+C+D+E+F+G+  ",
"                                    H+! I+5 f+J+K+{+]+L+M+N+O+P+Q+R+S+T+U+V+W+) )               X+Y+Z+`+ @  ",
"                                J 6+W+>+$+.@< +@@@]+L+N+L+#@8+$@%@&@*@=@-@%+=+f+^               ;@>@,@'@)@  ",
"                            !@~@W+{@]@%+y.^@[+: /@(@_@:@<@[@}@|@1@2@3@4@5@6@7@+@                      8@9@  ",
"                        0@_.(.d a@b@c@d@P.e@f@D.g@h@i@j@k@l@m@n@o@p@q@r@s@t@u@v@                            ",
"                      ^ c 4 %.2.$.w@x@y@z@c+f.h A@B@C@D@E@F@G@H@I@J@K@L@M@N@O@P@                            ",
"                  ! *.Q@E f $.Y i.R@S@T@U@V@[+2 A@W@X@Y@Z@`@ #.#+#@###$#%#&#*#_.                            ",
"              ^ < r E f }.u e h =#u -#f@]@.@;#c %.>#,#'#)#!#~#{#]#^#/#(#_#:#<#[#)                           ",
"          ) ^ _.}#|#N 2.1#r 5 < 4.q K ;#+@I+z+! d g 2#3#4#5#6#7#8#9#0#a#b#c#d#e#g+                          ",
"          ^ ] ! L C.%.2 5+K m.0@^ ) ( ( ! g+] | c f#g#h#i#j#k#l#m#n#o#p#q#r#s#t#]                           ",
"                c r (.c n.u#K 5.(           ] | ! v#C.w#x#y#z#A#B#C#D#E#F#G#h : 5.                          ",
"                    ( q @.H#e 5                   K I#J#K#L#M#N#O#P#Q#R#S#|.2.L )                           ",
"                      ) F #.[.q 5.                    T#L U#V#W#X#Y#^.l.F.X.f }#!                           ",
"                      0@4.3.Z#n.`#                      5 d  $.$Y t.X.|.t.i.E : ]                           ",
"                        p+s H#+$@$#$                    ) _.g+$$M i.l.X.t.#.+.! |                           ",
"                        %$&$*$S.=$-$;$                    ] 0@p+2 1#M }.Y M r p+^                           ",
"                          >$,$'$)$!$~$                        ] < c 4.F u#L K !                             ",
"                          {$]$^$/$($_$                          ) ] ^ < 5 ! ] ]                             ",
"                            :$<$[$Z+}$|$                            ^ ^ ) ^ !                               ",
"                            1$2$3$4$Y+                                    !                                 ",
"                              w.5$6$7$                                                                      ",
"                                    9@                                                                      "};
