/* XPM */
static char * nave2_5_xpm[] = {
"54 50 568 2",
"  	c None",
". 	c #333374",
"+ 	c #31318C",
"@ 	c #323280",
"# 	c #34346F",
"$ 	c #323281",
"% 	c #34346C",
"& 	c #363555",
"* 	c #2B2CA8",
"= 	c #0F14EC",
"- 	c #2224CA",
"; 	c #343466",
"> 	c #292AC4",
", 	c #0811FB",
"' 	c #0000FF",
") 	c #2023CA",
"! 	c #393800",
"~ 	c #373700",
"{ 	c #333376",
"] 	c #2225DF",
"^ 	c #0710F8",
"/ 	c #0003FF",
"( 	c #2C2CA7",
"_ 	c #323286",
": 	c #333378",
"< 	c #35355C",
"[ 	c #36363F",
"} 	c #373719",
"| 	c #31318E",
"1 	c #1C1FEF",
"2 	c #000AF9",
"3 	c #020CF8",
"4 	c #0C13EF",
"5 	c #1B1FDB",
"6 	c #2728BE",
"7 	c #2D2FA1",
"8 	c #313288",
"9 	c #34346D",
"0 	c #353550",
"a 	c #36362F",
"b 	c #34345D",
"c 	c #2D2DB0",
"d 	c #151AF5",
"e 	c #0005FD",
"f 	c #161AE2",
"g 	c #323292",
"h 	c #171CFB",
"i 	c #010BF9",
"j 	c #1318E9",
"k 	c #2023D0",
"l 	c #2A2BB2",
"m 	c #2429B4",
"n 	c #192EA4",
"o 	c #273281",
"p 	c #34354F",
"q 	c #34336B",
"r 	c #2728D0",
"s 	c #0D13F7",
"t 	c #0002FF",
"u 	c #2526C2",
"v 	c #343373",
"w 	c #2E2FA1",
"x 	c #2123CB",
"y 	c #1217E9",
"z 	c #0009FB",
"A 	c #0001FF",
"B 	c #3C28E6",
"C 	c #814939",
"D 	c #750D74",
"E 	c #58209D",
"F 	c #3427B6",
"G 	c #32327E",
"H 	c #2022E7",
"I 	c #040DF8",
"J 	c #0006FE",
"K 	c #2D2E98",
"L 	c #32327D",
"M 	c #353560",
"N 	c #31318B",
"O 	c #292AB3",
"P 	c #0D1BDD",
"Q 	c #543AB5",
"R 	c #823C00",
"S 	c #8B0000",
"T 	c #900000",
"U 	c #730D8D",
"V 	c #0623D3",
"W 	c #2F309B",
"X 	c #191DF2",
"Y 	c #0006FB",
"Z 	c #1016F2",
"` 	c #393981",
" .	c #33337D",
"..	c #363625",
"+.	c #36364E",
"@.	c #36355D",
"#.	c #2E317F",
"$.	c #42317B",
"%.	c #5D2867",
"&.	c #741F38",
"*.	c #541FA2",
"=.	c #283091",
"-.	c #343462",
";.	c #2A2BBD",
">.	c #1217F6",
",.	c #0005FB",
"'.	c #2528EA",
").	c #3E40D1",
"!.	c #1116DF",
"~.	c #363631",
"{.	c #313652",
"].	c #28356E",
"^.	c #26347D",
"/.	c #333372",
"(.	c #2426DA",
"_.	c #0911F8",
":.	c #0000FC",
"<.	c #2728BA",
"[.	c #313188",
"}.	c #1D21EC",
"|.	c #0003FB",
"1.	c #0007FD",
"2.	c #2F3093",
"3.	c #313186",
"4.	c #119CE7",
"5.	c #1096DE",
"6.	c #34344F",
"7.	c #2C2DAB",
"8.	c #1218F5",
"9.	c #2225EC",
"0.	c #0008FA",
"a.	c #0C13F0",
"b.	c #353469",
"c.	c #323283",
"d.	c #343460",
"e.	c #119DE9",
"f.	c #119BE6",
"g.	c #119EEA",
"h.	c #119AE4",
"i.	c #1098E0",
"j.	c #2F2F96",
"k.	c #333377",
"l.	c #353567",
"m.	c #1C1FD7",
"n.	c #3E3DCE",
"o.	c #3838D7",
"p.	c #0001FB",
"q.	c #0006FD",
"r.	c #2022D0",
"s.	c #353564",
"t.	c #119DE8",
"u.	c #119EE9",
"v.	c #30317B",
"w.	c #181CD5",
"x.	c #0810F3",
"y.	c #070FF4",
"z.	c #000AFA",
"A.	c #1C1FF0",
"B.	c #171BF2",
"C.	c #0004FC",
"D.	c #0005FE",
"E.	c #2326C7",
"F.	c #313287",
"G.	c #30318D",
"H.	c #303090",
"I.	c #2D2D97",
"J.	c #2F31BA",
"K.	c #3E3EB2",
"L.	c #2E2FDD",
"M.	c #0006FC",
"N.	c #1015EC",
"O.	c #161AE3",
"P.	c #030DF7",
"Q.	c #32327F",
"R.	c #34346B",
"S.	c #343470",
"T.	c #1E20D8",
"U.	c #3031E0",
"V.	c #3133DA",
"W.	c #2324C8",
"X.	c #303091",
"Y.	c #2F2F98",
"Z.	c #1D20D5",
"`.	c #060FF5",
" +	c #191DDD",
".+	c #343464",
"++	c #119BE5",
"@+	c #119FEB",
"#+	c #2D249E",
"$+	c #331D77",
"%+	c #322F81",
"&+	c #33337A",
"*+	c #0710F3",
"=+	c #0000FE",
"-+	c #0005FF",
";+	c #2E2F9A",
">+	c #1A1DDD",
",+	c #1A1DDC",
"'+	c #181CE0",
")+	c #0004FF",
"!+	c #0007FC",
"~+	c #0E14EE",
"{+	c #2123CF",
"]+	c #2829B9",
"^+	c #119CE8",
"/+	c #119AE3",
"(+	c #392E1A",
"_+	c #354E65",
":+	c #257EBB",
"<+	c #2774B5",
"[+	c #323F7C",
"}+	c #2E2E9A",
"|+	c #040DF7",
"1+	c #181CE8",
"2+	c #171BED",
"3+	c #0D13F5",
"4+	c #030DF8",
"5+	c #0007FF",
"6+	c #2526BF",
"7+	c #392C0C",
"8+	c #306187",
"9+	c #1A95DB",
"0+	c #2487C2",
"a+	c #344B70",
"b+	c #241EC3",
"c+	c #2E2E9D",
"d+	c #010BF5",
"e+	c #0B0B51",
"f+	c #0D0F93",
"g+	c #0F13BF",
"h+	c #2927B8",
"i+	c #322E7F",
"j+	c #0810F4",
"k+	c #2A2BAF",
"l+	c #353464",
"m+	c #343364",
"n+	c #38332C",
"o+	c #2B71A2",
"p+	c #2B75A7",
"q+	c #343E73",
"r+	c #1514E4",
"s+	c #0008FC",
"t+	c #2829B4",
"u+	c #2224C9",
"v+	c #010BFE",
"w+	c #0007D6",
"x+	c #0A0900",
"y+	c #302C00",
"z+	c #363100",
"A+	c #000001",
"B+	c #000017",
"C+	c #1E1ECF",
"D+	c #1B1EDB",
"E+	c #312C8B",
"F+	c #119EEB",
"G+	c #364254",
"H+	c #2977AD",
"I+	c #1C94D7",
"J+	c #316186",
"K+	c #323084",
"L+	c #1016EB",
"M+	c #010BFF",
"N+	c #0000A3",
"O+	c #171400",
"P+	c #6B6303",
"Q+	c #827805",
"R+	c #766D00",
"S+	c #5D5516",
"T+	c #39348A",
"U+	c #0008F7",
"V+	c #0000FA",
"W+	c #0B2AF2",
"X+	c #2E43A1",
"Y+	c #323284",
"Z+	c #2F3292",
"`+	c #304E90",
" @	c #334474",
".@	c #2B26AB",
"+@	c #0D13EF",
"@@	c #313187",
"#@	c #010BFD",
"$@	c #000055",
"%@	c #2A2600",
"&@	c #877D05",
"*@	c #968C06",
"=@	c #8E8406",
"-@	c #635B00",
";@	c #1B1700",
">@	c #070CCA",
",@	c #1781EC",
"'@	c #276EC3",
")@	c #32297E",
"!@	c #31317C",
"~@	c #2E2E8F",
"{@	c #30308C",
"]@	c #343272",
"^@	c #1F21D2",
"/@	c #2022CE",
"(@	c #2A2BAE",
"_@	c #010BFB",
":@	c #0008EC",
"<@	c #0C0900",
"[@	c #413B01",
"}@	c #8E8506",
"|@	c #B7AA07",
"1@	c #E0CF09",
"2@	c #C0B205",
"3@	c #847A00",
"4@	c #1B1CEB",
"5@	c #127AF3",
"6@	c #024DFB",
"7@	c #4141B1",
"8@	c #383881",
"9@	c #333468",
"0@	c #1099E3",
"a@	c #2C2DA4",
"b@	c #0D14EE",
"c@	c #0009FA",
"d@	c #2C2DA3",
"e@	c #1C1FD8",
"f@	c #0000C4",
"g@	c #201E00",
"h@	c #958B04",
"i@	c #C6B808",
"j@	c #CFC008",
"k@	c #F3E209",
"l@	c #F0DF0C",
"m@	c #E1D100",
"n@	c #6F6700",
"o@	c #020184",
"p@	c #010CF9",
"q@	c #2527EA",
"r@	c #34347B",
"s@	c #2F3095",
"t@	c #2E2E9C",
"u@	c #000BF9",
"v@	c #323282",
"w@	c #000088",
"x@	c #373400",
"y@	c #D2C307",
"z@	c #F9E70A",
"A@	c #F1DF09",
"B@	c #F1E009",
"C@	c #F7E50A",
"D@	c #CEBF05",
"E@	c #575000",
"F@	c #000097",
"G@	c #000BFF",
"H@	c #2C29B0",
"I@	c #343185",
"J@	c #1E21D2",
"K@	c #0E15F5",
"L@	c #181CF0",
"M@	c #1519E4",
"N@	c #2F2F94",
"O@	c #000026",
"P@	c #5C5600",
"Q@	c #EDDC09",
"R@	c #F2E109",
"S@	c #EAD909",
"T@	c #EEDD0E",
"U@	c #A99D00",
"V@	c #3A3500",
"W@	c #0000D1",
"X@	c #010CFE",
"Y@	c #0000FD",
"Z@	c #2455EE",
"`@	c #3D48A4",
" #	c #30327C",
".#	c #32337C",
"+#	c #353665",
"@#	c #2124CE",
"##	c #0911F6",
"$#	c #2426C2",
"%#	c #2B2CAB",
"&#	c #050FF8",
"*#	c #0004FA",
"=#	c #0000DF",
"-#	c #120F00",
";#	c #726902",
">#	c #DECF07",
",#	c #E8D709",
"'#	c #B6A900",
")#	c #9E9300",
"!#	c #78705D",
"~#	c #3C3B00",
"{#	c #040EF2",
"]#	c #010BFA",
"^#	c #14AAF2",
"/#	c #2E6FA4",
"(#	c #32257C",
"_#	c #313284",
":#	c #181CE1",
"<#	c #33337C",
"[#	c #0000F9",
"}#	c #464BBE",
"|#	c #317DDE",
"1#	c #1844B9",
"2#	c #050200",
"3#	c #857B00",
"4#	c #A79B00",
"5#	c #B1A512",
"6#	c #7E7700",
"7#	c #000073",
"8#	c #3033E7",
"9#	c #0007F6",
"0#	c #0106F9",
"a#	c #010AF9",
"b#	c #000EFF",
"c#	c #1E9BEA",
"d#	c #323A85",
"e#	c #323180",
"f#	c #1F22D1",
"g#	c #0B12F1",
"h#	c #1F22D0",
"i#	c #2C2DA5",
"j#	c #32237D",
"k#	c #30A7D2",
"l#	c #26B9E0",
"m#	c #3A7CCF",
"n#	c #413CB9",
"o#	c #3310A2",
"p#	c #00007D",
"q#	c #000000",
"r#	c #2121C9",
"s#	c #3B3AD9",
"t#	c #1F24DD",
"u#	c #2904E6",
"v#	c #2B6BE4",
"w#	c #096EF7",
"x#	c #001CFC",
"y#	c #151DE4",
"z#	c #261FC1",
"A#	c #2800CA",
"B#	c #313286",
"C#	c #353463",
"D#	c #0006FF",
"E#	c #0358F8",
"F#	c #1182F4",
"G#	c #16A7EE",
"H#	c #21B0E5",
"I#	c #2EA3DC",
"J#	c #3985D2",
"K#	c #415CC3",
"L#	c #1D1EEA",
"M#	c #0A06FC",
"N#	c #2C75C3",
"O#	c #25AAD0",
"P#	c #1D6DEE",
"Q#	c #2B15B5",
"R#	c #34346A",
"S#	c #353461",
"T#	c #1E21D3",
"U#	c #1700E2",
"V#	c #2000CF",
"W#	c #0D00EE",
"X#	c #002CFB",
"Y#	c #026CFB",
"Z#	c #0D97F4",
"`#	c #23A3E5",
" $	c #4031B6",
".$	c #2627B8",
"+$	c #191CDE",
"@$	c #1E21D6",
"#$	c #32147B",
"$$	c #32007A",
"%$	c #323184",
"&$	c #2E2F98",
"*$	c #0008FB",
"=$	c #1016F4",
"-$	c #1519F2",
";$	c #0F15ED",
">$	c #2F2F97",
",$	c #343374",
"'$	c #302E90",
")$	c #2708B9",
"!$	c #1A00DB",
"~$	c #0100F7",
"{$	c #1B16E6",
"]$	c #313180",
"^$	c #2B2CA9",
"/$	c #191CEF",
"($	c #3837D0",
"_$	c #030CF9",
":$	c #2C2DAA",
"<$	c #343469",
"[$	c #343468",
"}$	c #2425BF",
"|$	c #2B2CEA",
"1$	c #3737D7",
"2$	c #0003FD",
"3$	c #1117E9",
"4$	c #2A2BAD",
"5$	c #33337B",
"6$	c #363643",
"7$	c #353549",
"8$	c #33336D",
"9$	c #2728D2",
"0$	c #1217F5",
"a$	c #181CF2",
"b$	c #2325C7",
"c$	c #36355A",
"d$	c #353555",
"e$	c #1F22E9",
"f$	c #0007FA",
"g$	c #1D20EF",
"h$	c #2F2F9F",
"i$	c #181CF3",
"j$	c #0007FB",
"k$	c #0F15F1",
"l$	c #3839B8",
"m$	c #040DF4",
"n$	c #2A2BC1",
"o$	c #1116F7",
"p$	c #1E20D2",
"q$	c #343463",
"r$	c #32327B",
"s$	c #2325DD",
"t$	c #0810F8",
"u$	c #1C20EE",
"v$	c #2E2F99",
"w$	c #343474",
"x$	c #32337F",
"y$	c #30318B",
"z$	c #30318F",
"A$	c #34345C",
"B$	c #2D2EAC",
"C$	c #161AF4",
"D$	c #2C308B",
"E$	c #30318E",
"F$	c #353465",
"G$	c #2123D6",
"H$	c #0911F9",
"I$	c #0413ED",
"J$	c #352CBD",
"K$	c #4B3874",
"L$	c #313281",
"M$	c #223488",
"N$	c #24338D",
"O$	c #1E21D1",
"P$	c #2526C0",
"Q$	c #5C3CC3",
"R$	c #883E00",
"S$	c #850010",
"T$	c #771C3B",
"U$	c #562688",
"V$	c #35355F",
"W$	c #303093",
"X$	c #31318A",
"Y$	c #343375",
"Z$	c #282BAA",
"`$	c #5A3F83",
" %	c #7D292D",
".%	c #870200",
"+%	c #5918AC",
"@%	c #222CAD",
"#%	c #333375",
"$%	c #34345E",
"%%	c #313285",
"&%	c #252F8A",
"*%	c #283385",
"=%	c #3E307C",
"-%	c #5B2966",
";%	c #3420C8",
">%	c #2D3096",
",%	c #303092",
"'%	c #2E318F",
")%	c #253193",
"                                                                                                            ",
"                                                                  . +                                       ",
"                                                                  @ #                                       ",
"                                                                  $ % &                                     ",
"                                                                  * = -                                     ",
"                                                                ; > , ' ) ! ~                               ",
"                                                                { ] ^ / ( _ : < [ }                         ",
"                                                                | 1 2 3 $ 4 5 6 7 8 9 0 a ~                 ",
"                                                              b c d e f g h ' / i j k l m n o p             ",
"                                                              q r s t u v w x y z A ' B C D E F             ",
"                                                              G H I J K L L M 9 N O P Q R S T U V           ",
"                                                              W X Y Z `  .$   ..[ +.@.#.$.%.&.*.=.          ",
"                                                            -.;.>.,.'.).!.v           ~.{.].^.              ",
"                                                            /.(._.2 :.' <.                                  ",
"                                                            [.}.i |.i 1.2.3.                                ",
"                                    4.5.                  6.7.>.8.9.0.a.b.c.d.                              ",
"              e.        f.g.    h.  h.i.              j.k.l.m.' n.o.p.q.r.$ s.                              ",
"        g.4.  h.    g.t.        f.u.              v.w.1.x.@ y.z.A.B.C.D.E.F.$ G.                            ",
"        g.f.        g.g.      h.t.        j.H.I.J.K.L.M.N.G O.P.' D.i 3. .k.Q.R.                            ",
"        e.f.        g.        h.g.        3.Q.S.T.U.V.' W.X.Y.$ j.Z.z `. +<.X.v .+                          ",
"        4.        g.g.        ++@+      #+$+%+&+*+=+0.-+;+>+J 3 ,+'+J z.)+/ !+~+{+]+                        ",
"          g.^+    g.g.      /+4.    (+_+:+<+[+}+J i i |+$ i i i !+z.z 1+2+3+4+/ 5+6+                        ",
"          g.4.    g.        h.e.    7+8+9+0+a+b+)+i !+>+c+)+i i i i d+e+f+g+h+i+j+k+: l+m+                  ",
"                  u.        h.g.    n+o+g.p+q+r+s+i )+t+u+D.i i i v+w+x+y+z+A+B+C+)+y.D+E+F.                ",
"                    4.      f.F+    G+H+I+J+K+i i i 1.N L+z i i i M+N+O+P+Q+R+S+T+U+V+W+X+Y+                ",
"                    g.    /+^+        Z+`+ @.@)+i z.+@@@s+i i i i #@$@%@&@*@=@-@;@>@' ,@'@)@!@~@{@          ",
"                          h.t.        [.i+]@^@D.i J /@(@)+i i i _@:@<@[@}@|@1@2@3@4@' 5@6@=+7@8@9@          ",
"                              0@    a@$ Q.{ b@c@i )+d@e@1.i i i M+f@g@h@i@j@k@l@m@n@o@:.p@i q@r@F.2.        ",
"                              t.      a@s@t@!+c@i u@v@y.z.i i i M+w@x@y@z@A@B@C@D@E@F@G@i i U+H@I@$         ",
"                                          J@K@L@!+M@N@/ i i i i i O@P@Q@R@B@S@T@U@V@W@X@i i Y@Z@`@ #.#      ",
"                                          +#@###/ $#%#&#D.0.*#' =#-#;#>#,#Q@'#)#!#~#{#]#i i V+^#/#(#_#      ",
"                                            :#J ' c+<#* m.[#}#|#1#2#V@3#4#5#6#7#8#9#=+V+0#a#b#c#d#e#@       ",
"                                              (@f#c.g#h#i#j#k#l#m#n#o#p#q#r#s#t#' u#v#w#x#y#z#A#{ 8 B#      ",
"                                                C#k+/ J D#0.E#F#G#H#I#J#K#L#' e i M#N#O#P#Q#R#@ /.          ",
"                                                S#T#J 2 c@1.U#V#W#X#Y#Z#`# $.$+$`.@$#$$$v@%$. &$            ",
"                                                k.a.*$=$-$2 ;$>$,$'$)$!$~${$]$&+@ N _#  ^$&$                ",
"                                                j.q.:./$($_$' :$c.v@<$[$2.        (@                        ",
"                                              b }$|$1$:.2$3$4$| 5$6$7$                                      ",
"                                              8$9$0$a$:.)+b$c$; d$                                          ",
"                                              $ e$i f$g$J c+                                                ",
"                                              h$i$j$k$l$m$<#                                                ",
"                                            .+n$o$/ p$q$$ r$                                                ",
"                                            . s$t$/ 4${ @ @@                                                ",
"                                            + u$2 i Y+v$5$w$x$y$z$                                          ",
"                                          A$B$C$e O.&$' x.e@O N { : D$E$z$                                  ",
"                                          F$G$H$t $#^$P.D.' A z I$J$K$L$M$N$                                ",
"                                          Q.O$a.D.( ,$&+&$P$O.3 ' Q$R$S$T$U$                                ",
"                                          G V$k.$#  W$X.X$<#Y$c.Z$`$ %.%T +%@%                              ",
"                                        #%B#$%              W$H.%%&%*%=%-%;%>%                              ",
"                                                                    ,%'%)%                                  "};
