/* XPM */
static char * nave1_5_xpm[] = {
"54 50 461 2",
"  	c None",
". 	c #383838",
"+ 	c #373737",
"@ 	c #343434",
"# 	c #393939",
"$ 	c #3B3B3B",
"% 	c #515151",
"& 	c #505050",
"* 	c #444444",
"= 	c #5F5F5F",
"- 	c #656565",
"; 	c #4E4E4E",
"> 	c #333333",
", 	c #363636",
"' 	c #666666",
") 	c #4A4A4A",
"! 	c #303030",
"~ 	c #2D2D2D",
"{ 	c #595959",
"] 	c #6A6A6A",
"^ 	c #454545",
"/ 	c #464646",
"( 	c #343535",
"_ 	c #323232",
": 	c #2E3232",
"< 	c #273535",
"[ 	c #404040",
"} 	c #6D6D6D",
"| 	c #434343",
"1 	c #5C5C5C",
"2 	c #707070",
"3 	c #6F6F6F",
"4 	c #676767",
"5 	c #606060",
"6 	c #565959",
"7 	c #4A4848",
"8 	c #3F3C3C",
"9 	c #363737",
"0 	c #323737",
"a 	c #2D3838",
"b 	c #494949",
"c 	c #646464",
"d 	c #686868",
"e 	c #4C4C4C",
"f 	c #5D5D5D",
"g 	c #626262",
"h 	c #6D6E6E",
"i 	c #6F7171",
"j 	c #6E6969",
"k 	c #6D4848",
"l 	c #6F2626",
"m 	c #602A2A",
"n 	c #493333",
"o 	c #535353",
"p 	c #5E5E5E",
"q 	c #313131",
"r 	c #353535",
"s 	c #3C3C3C",
"t 	c #484848",
"u 	c #555656",
"v 	c #6A5A5A",
"w 	c #7B4141",
"x 	c #8A0909",
"y 	c #840B0B",
"z 	c #6F2424",
"A 	c #4B3333",
"B 	c #2E2E2E",
"C 	c #313030",
"D 	c #383A3A",
"E 	c #443E3E",
"F 	c #583838",
"G 	c #6C2727",
"H 	c #7A1A1A",
"I 	c #6A2626",
"J 	c #403535",
"K 	c #303838",
"L 	c #727272",
"M 	c #6C6C6C",
"N 	c #585858",
"O 	c #414141",
"P 	c #2F3434",
"Q 	c #2D3737",
"R 	c #343737",
"S 	c #433535",
"T 	c #4F3232",
"U 	c #4D4D4D",
"V 	c #757676",
"W 	c #737474",
"X 	c #3A3A3A",
"Y 	c #565656",
"Z 	c #6E6D6D",
"` 	c #747373",
" .	c #707171",
"..	c #119EEA",
"+.	c #1199E3",
"@.	c #1198E1",
"#.	c #717171",
"$.	c #6D6B6B",
"%.	c #666767",
"&.	c #4F4E4E",
"*.	c #119DE8",
"=.	c #119CE6",
"-.	c #109AE4",
";.	c #1098E2",
">.	c #1097E0",
",.	c #0F99E2",
"'.	c #3E3E3E",
").	c #464545",
"!.	c #696868",
"~.	c #605D5D",
"{.	c #575454",
"].	c #504D4D",
"^.	c #474646",
"/.	c #119DE9",
"(.	c #119CE7",
"_.	c #119AE6",
":.	c #545353",
"<.	c #474747",
"[.	c #373838",
"}.	c #434141",
"|.	c #545151",
"1.	c #5C5858",
"2.	c #585353",
"3.	c #514D4D",
"4.	c #4E4C4C",
"5.	c #3A3939",
"6.	c #119BE5",
"7.	c #383939",
"8.	c #363739",
"9.	c #4F4F4F",
"0.	c #6B6A6A",
"a.	c #616060",
"b.	c #3D3C3C",
"c.	c #4C4A4A",
"d.	c #4F4C4C",
"e.	c #504C4C",
"f.	c #464343",
"g.	c #119CE8",
"h.	c #119BE7",
"i.	c #119BE6",
"j.	c #392710",
"k.	c #343029",
"l.	c #6E6E6E",
"m.	c #5B5A5A",
"n.	c #373636",
"o.	c #3F3E3E",
"p.	c #464444",
"q.	c #454343",
"r.	c #403F3F",
"s.	c #3B3C3C",
"t.	c #119EEB",
"u.	c #354C65",
"v.	c #36455B",
"w.	c #333639",
"x.	c #413D3B",
"y.	c #737373",
"z.	c #676868",
"A.	c #4B4B4B",
"B.	c #3D3A3A",
"C.	c #403C3C",
"D.	c #423D3D",
"E.	c #494646",
"F.	c #524F4F",
"G.	c #534F4F",
"H.	c #4E4B4B",
"I.	c #4A4747",
"J.	c #424141",
"K.	c #3C3B3B",
"L.	c #119AE4",
"M.	c #0FA1EF",
"N.	c #335879",
"O.	c #2A74A9",
"P.	c #2972A6",
"Q.	c #314961",
"R.	c #494744",
"S.	c #6A6B6A",
"T.	c #757574",
"U.	c #636464",
"V.	c #413C3C",
"W.	c #4B4444",
"X.	c #494444",
"Y.	c #4C4848",
"Z.	c #4A4647",
"`.	c #4E4B4C",
" +	c #4A4646",
".+	c #423F3E",
"++	c #3A3839",
"@+	c #119EE9",
"#+	c #109DEA",
"$+	c #392F2B",
"%+	c #2F6A97",
"&+	c #218CCE",
"*+	c #217FBA",
"=+	c #325371",
"-+	c #54504B",
";+	c #6F6E6C",
">+	c #3E3C3C",
",+	c #4E4747",
"'+	c #4E4646",
")+	c #4F4949",
"!+	c #565252",
"~+	c #292628",
"{+	c #262429",
"]+	c #333235",
"^+	c #343139",
"/+	c #3A3639",
"(+	c #413C3D",
"_+	c #3E3B3C",
":+	c #373D4A",
"<+	c #2A74A8",
"[+	c #159BE4",
"}+	c #2379B1",
"|+	c #3B4C5E",
"1+	c #605D58",
"2+	c #727170",
"3+	c #757575",
"4+	c #525151",
"5+	c #453F3F",
"6+	c #4C4646",
"7+	c #524B4B",
"8+	c #484546",
"9+	c #1D1C1C",
"0+	c #292400",
"a+	c #383303",
"b+	c #322F15",
"c+	c #2A2623",
"d+	c #3A3637",
"e+	c #444040",
"f+	c #423F3F",
"g+	c #3D3B3B",
"h+	c #2C72A2",
"i+	c #2384C0",
"j+	c #2A6591",
"k+	c #454549",
"l+	c #686664",
"m+	c #404141",
"n+	c #3E3A3A",
"o+	c #4A4343",
"p+	c #4D4646",
"q+	c #524D4D",
"r+	c #322F39",
"s+	c #322D11",
"t+	c #615900",
"u+	c #756C00",
"v+	c #6A6301",
"w+	c #484314",
"x+	c #3B3532",
"y+	c #4B4445",
"z+	c #433F3F",
"A+	c #383636",
"B+	c #119AE5",
"C+	c #364D62",
"D+	c #31526E",
"E+	c #324559",
"F+	c #4D4943",
"G+	c #6C6C6B",
"H+	c #747475",
"I+	c #3F3B3B",
"J+	c #504848",
"K+	c #484142",
"L+	c #110E21",
"M+	c #3B3603",
"N+	c #7E7503",
"O+	c #978D06",
"P+	c #968C04",
"Q+	c #6C6407",
"R+	c #37321D",
"S+	c #292335",
"T+	c #484146",
"U+	c #504C4B",
"V+	c #3D3D3D",
"W+	c #393328",
"X+	c #362F25",
"Y+	c #3A3733",
"Z+	c #5A5958",
"`+	c #70706F",
" @	c #6C6D6D",
".@	c #403D3D",
"+@	c #433D3D",
"@@	c #4F4747",
"#@	c #474041",
"$@	c #030216",
"%@	c #4B4700",
"&@	c #928806",
"*@	c #B5A808",
"=@	c #C8B907",
"-@	c #B7AA00",
";@	c #877E0F",
">@	c #4E482E",
",@	c #474146",
"'@	c #615E5F",
")@	c #646363",
"!@	c #1099E3",
"~@	c #38393A",
"{@	c #322F2C",
"]@	c #696969",
"^@	c #3E3B3B",
"/@	c #484242",
"(@	c #4F4847",
"_@	c #2E2935",
":@	c #484213",
"<@	c #908600",
"[@	c #BCB006",
"}@	c #D4C509",
"|@	c #EEDC09",
"1@	c #F1E005",
"2@	c #CBBD09",
"3@	c #70671A",
"4@	c #423D41",
"5@	c #6A6A6B",
"6@	c #3F3F3F",
"7@	c #343435",
"8@	c #3D3939",
"9@	c #4C4545",
"0@	c #504948",
"a@	c #484144",
"b@	c #000026",
"c@	c #655D05",
"d@	c #C9BB03",
"e@	c #EFDE09",
"f@	c #F1E009",
"g@	c #F7E50A",
"h@	c #F7E507",
"i@	c #CABC00",
"j@	c #69610F",
"k@	c #3C3D46",
"l@	c #6A6B6D",
"m@	c #777777",
"n@	c #555555",
"o@	c #413B3B",
"p@	c #453F40",
"q@	c #1A1815",
"r@	c #766D00",
"s@	c #E4D407",
"t@	c #F9E70A",
"u@	c #F2E107",
"v@	c #EEDD04",
"w@	c #E2D200",
"x@	c #AC9F00",
"y@	c #4F491B",
"z@	c #4B4D55",
"A@	c #6D6D6E",
"B@	c #616161",
"C@	c #636363",
"D@	c #3B3939",
"E@	c #484343",
"F@	c #3B353A",
"G@	c #2A2714",
"H@	c #7F7600",
"I@	c #D6C702",
"J@	c #EEDE05",
"K@	c #E1D100",
"L@	c #C7B900",
"M@	c #B1A417",
"N@	c #867F3C",
"O@	c #4D4C45",
"P@	c #636466",
"Q@	c #545454",
"R@	c #5A5A5A",
"S@	c #434040",
"T@	c #585454",
"U@	c #403D41",
"V@	c #262523",
"W@	c #524C08",
"X@	c #928801",
"Y@	c #B4A808",
"Z@	c #ACA11F",
"`@	c #82792F",
" #	c #4E4B45",
".#	c #4A4B5C",
"+#	c #636467",
"@#	c #6E6F70",
"##	c #747474",
"$#	c #424343",
"%#	c #3C3D3D",
"&#	c #414040",
"*#	c #5E5D5D",
"=#	c #6A6969",
"-#	c #646364",
";#	c #515255",
">#	c #414349",
",#	c #413F39",
"'#	c #3A3624",
")#	c #605D41",
"!#	c #5E5D58",
"~#	c #606167",
"{#	c #6E6E71",
"]#	c #6B6B6C",
"^#	c #6B6C6C",
"/#	c #323333",
"(#	c #4D4A4A",
"_#	c #535050",
":#	c #6B6B6B",
"<#	c #666768",
"[#	c #5B5C63",
"}#	c #52545B",
"|#	c #555659",
"1#	c #606061",
"2#	c #5A5959",
"3#	c #545453",
"4#	c #424040",
"5#	c #575353",
"6#	c #575252",
"7#	c #4D4B4B",
"8#	c #434444",
"9#	c #626261",
"0#	c #6B6B6A",
"a#	c #626263",
"b#	c #535254",
"c#	c #393838",
"d#	c #595656",
"e#	c #4A4949",
"f#	c #383737",
"g#	c #424242",
"h#	c #484847",
"i#	c #373736",
"j#	c #5A5656",
"k#	c #626060",
"l#	c #5E5B5B",
"m#	c #545050",
"n#	c #3E3D3D",
"o#	c #585656",
"p#	c #676565",
"q#	c #6E6C6C",
"r#	c #494848",
"s#	c #727171",
"t#	c #5C5B5B",
"u#	c #353434",
"v#	c #5B5B5B",
"w#	c #2A2A2A",
"x#	c #2B2C2C",
"y#	c #4D4C4C",
"z#	c #383B3B",
"A#	c #2C3838",
"B#	c #1B3A3A",
"C#	c #626363",
"D#	c #554D4D",
"E#	c #4C3636",
"F#	c #4A3232",
"G#	c #3E3636",
"H#	c #363939",
"I#	c #696B6B",
"J#	c #6D6C6C",
"K#	c #775858",
"L#	c #813434",
"M#	c #7D1A1A",
"N#	c #513232",
"O#	c #474949",
"P#	c #555454",
"Q#	c #7E2A2A",
"R#	c #811212",
"S#	c #7B1B1B",
"T#	c #612B2B",
"U#	c #3C3737",
"V#	c #353636",
"W#	c #3C3838",
"X#	c #5C2D2D",
"Y#	c #692727",
"Z#	c #553030",
"`#	c #293939",
" $	c #283434",
"                                                                                                            ",
"                                                                    .                                       ",
"                                                                  + + @                                     ",
"                                                                  + # .                                     ",
"                                                                  $ % & *                                   ",
"                                                                @ * = - ; >                                 ",
"                                                                , ; ' - ) # + > ! ~                         ",
"                                                                # { ] { ^ % { & / # ( _ : <                 ",
"                                                                [ = } % | 1 2 3 4 5 6 7 8 9 0 a             ",
"                                                              @ b c d e . e f g 4 h i j k l m n             ",
"                                                              . o d p | q r , s t u 5 v w x y z A           ",
"                                                              s 1 } = ^ + @ B _ C r D E F G H I J K         ",
"                                                            @ * 5 L M N O ,           P Q R S T             ",
"                                                            , U 4 V W p [ >                                 ",
"                                                            X Y Z `  .N s @                                 ",
"              ..                    +.@.                  > O p #.$.%.&.$ , +                               ",
"              *.        =.*.    -.;.>.,.              '.# + ).p !.~.{.].^.. +                               ",
"        /.(._.      ..*.        (./.              > | :.<.[.}.|.1.2.3.4.).5.[..                             ",
"        /.=.        ....      6.(.        7.8.+ t 9.N 0.a.# b.c.d.e.f.'.$ + + +                             ",
"        g.h.        ..        i./.        j.k.X N 4 } l.m.# n.b.o.p.p.q.r.s.. + n.                          ",
"          *.      ....        i.t.      u.v.w.x.c L y.z.A.B.C.D.8 E.F.G.H.I.p.J.K.                          ",
"          *.(.    ....      L.(.M.    N.O.P.Q.R.S.T.y.U.'.V.W.W.X.3.G.Y.Z.`.3. +.+++                        ",
"          @+      ..@+      6.#+    $+%+&+*+=+-+;+T.3 f >+V.,+'+)+!+d.~+{+]+^+/+(+_+[.+ ,                   ",
"                  /.        6.#+    :+<+[+}+|+1+2+3+] 4+8 5+6+,+7+!+8+9+0+a+b+c+d+e+f+g+. +                 ",
"                    g.      i...      h+i+j+k+l+y.y.c m+n+o+p+p+7+q+r+s+t+u+v+w+x+y+W.z+A+>                 ",
"                    /.    B+h.        C+D+E+F+G+H+2 g [ I+6+p+p+J+K+L+M+N+O+P+Q+R+S+T+U+^.V+X +             ",
"                          i.6.        W+X+Y+Z+`+3+ @Y .@+@p+p+'+@@#@$@%@&@*@=@-@;@>@,@'@)@= ; X r           ",
"                              !@      ~@{@O - y.3+]@b ^@/@p+p+(@y+_@:@<@[@}@|@1@2@3@4@5@L 3 p 6@, ,         ",
"                              B+        7@b ' L y.- 6@8@9@p+p+0@a@b@c@d@e@f@g@h@i@j@k@l@m@y.d U , #         ",
"                                          O n@]@2 f .@o@,+,+p+'+p@q@r@s@t@u@v@w@x@y@z@A@y.y.2 B@t X ,       ",
"                                            ^ C@]@% D@C.E@W.'+'+F@G@H@I@J@K@L@M@N@O@P@L L y.y.c <., +       ",
"                                              Q@R@V+. K.g+S@!+T@U@V@W@X@Y@Z@`@ #.#+#@###y.#.l.f 6@r .       ",
"                                              6@$#%#&#^ o.^ *#=#-#;#>#,#'#)#!#~#{#]#^#2 l.B@N t # , .       ",
"                                                /#>+(#_#].4.n@- :#] <#[#}#|#1#:#2 2#3#R@R@<.. # + +         ",
"                                                , 4#3.5#6#7#8#| A.n@9#0#a#b#e & Q@[ @ V+O # , +             ",
"                                                c#f.G.d#5#|.e#f#+ $ g#t U h#i#r s + _   r +                 ",
"                                              @ g+I.j#k#l#m#7#n#( , @ r .         .                         ",
"                                              ( * o#p#q#B@r#r.>+, , ,                                       ",
"                                              # % d #.s#t#'.u#,                                             ",
"                                              [ v#M M z.; . @                                               ",
"                                            q <.c M R@e 6@,                                                 ",
"                                            r ; d g ^ , + +                                                 ",
"                                            $ Y M { $ > ! B                                                 ",
"                                          q | B@:#o V+6@| s + w#x#                                          ",
"                                          @ A.4 ' e ; ' :#1 y#O m+z#A#B#                                    ",
"                                          # & ' p g#& - l.} Z  @C#D#E#F#G#H#                                ",
"                                          # b p Q@+ $ g#A.v#4 I#J#K#L#M#I N#                                ",
"                                        + + # 6@      ! , X 7.O#P#k Q#R#S#T#U#                              ",
"                                        + , >               B V#[.W#J X#Y#Z#`#                              ",
"                                                                   $K [.                                    "};
