/* XPM */
static char * nave1_10_xpm[] = {
"54 50 378 2",
"  	c None",
". 	c #383838",
"+ 	c #119CE7",
"@ 	c #119EE9",
"# 	c #119BE6",
"$ 	c #119DE9",
"% 	c #353535",
"& 	c #393939",
"* 	c #363636",
"= 	c #119BE7",
"- 	c #119EEA",
"; 	c #3A3A3A",
"> 	c #4A4A4A",
", 	c #434343",
"' 	c #119AE5",
") 	c #525252",
"! 	c #656565",
"~ 	c #5E5E5E",
"{ 	c #454545",
"] 	c #4B4B4B",
"^ 	c #666666",
"/ 	c #717171",
"( 	c #5F5F5F",
"_ 	c #444444",
": 	c #343434",
"< 	c #119EEB",
"[ 	c #119AE4",
"} 	c #119DE8",
"| 	c #626262",
"1 	c #6C6C6C",
"2 	c #5B5B5B",
"3 	c #109AE4",
"4 	c #1099E3",
"5 	c #119BE5",
"6 	c #2D2D2D",
"7 	c #4C4C4C",
"8 	c #3B3B3B",
"9 	c #676767",
"0 	c #424242",
"a 	c #333333",
"b 	c #3E3E3E",
"c 	c #707070",
"d 	c #545454",
"e 	c #3C3C3C",
"f 	c #6E6E6E",
"g 	c #109FEB",
"h 	c #109BE6",
"i 	c #323232",
"j 	c #646464",
"k 	c #737373",
"l 	c #696969",
"m 	c #3F3F3F",
"n 	c #4D4D4D",
"o 	c #6A6A6A",
"p 	c #585858",
"q 	c #404040",
"r 	c #119BE4",
"s 	c #2C2C2C",
"t 	c #474646",
"u 	c #676666",
"v 	c #747474",
"w 	c #636363",
"x 	c #474747",
"y 	c #303030",
"z 	c #505050",
"A 	c #6B6B6B",
"B 	c #616060",
"C 	c #494747",
"D 	c #383939",
"E 	c #38332B",
"F 	c #0E9FEC",
"G 	c #119CE6",
"H 	c #353737",
"I 	c #3F4242",
"J 	c #676A6A",
"K 	c #3D3D3D",
"L 	c #6D6D6D",
"M 	c #717070",
"N 	c #636060",
"O 	c #535050",
"P 	c #464444",
"Q 	c #3D3B3B",
"R 	c #363535",
"S 	c #373737",
"T 	c #4E4E4E",
"U 	c #515151",
"V 	c #383736",
"W 	c #3A2900",
"X 	c #315E84",
"Y 	c #30628A",
"Z 	c #364452",
"` 	c #393022",
" .	c #353939",
"..	c #293939",
"+.	c #513939",
"@.	c #6F5151",
"#.	c #766F6F",
"$.	c #646666",
"%.	c #424141",
"&.	c #2E2E2E",
"*.	c #676565",
"=.	c #595555",
"-.	c #524F4F",
";.	c #474545",
">.	c #3C3B3B",
",.	c #494948",
"'.	c #2F2E2E",
").	c #344150",
"!.	c #218AC9",
"~.	c #1D90D4",
"{.	c #2F6791",
"].	c #383B40",
"^.	c #2A3A3A",
"/.	c #4E3232",
"(.	c #800B0B",
"_.	c #873535",
":.	c #685151",
"<.	c #5A5A5A",
"[.	c #5C5959",
"}.	c #575353",
"|.	c #534F4F",
"1.	c #464343",
"2.	c #727272",
"3.	c #4E4D4C",
"4.	c #334355",
"5.	c #2B71A3",
"6.	c #1897DF",
"7.	c #1E8ED0",
"8.	c #2F6690",
"9.	c #119AE3",
"0.	c #523131",
"a.	c #7C1A1A",
"b.	c #8B0000",
"c.	c #781F1F",
"d.	c #3C3737",
"e.	c #343737",
"f.	c #403E3E",
"g.	c #524E4E",
"h.	c #565252",
"i.	c #3A3939",
"j.	c #696867",
"k.	c #4A4846",
"l.	c #31475D",
"m.	c #2876AC",
"n.	c #1F8DCF",
"o.	c #2B74A7",
"p.	c #1097DF",
"q.	c #7E1717",
"r.	c #742121",
"s.	c #473434",
"t.	c #233B3B",
"u.	c #373838",
"v.	c #444141",
"w.	c #565353",
"x.	c #4B4949",
"y.	c #4E4B4B",
"z.	c #434141",
"A.	c #3B3A3A",
"B.	c #3D3A3A",
"C.	c #373535",
"D.	c #4F4F4F",
"E.	c #686664",
"F.	c #47433C",
"G.	c #2C455D",
"H.	c #305677",
"I.	c #393434",
"J.	c #393125",
"K.	c #313939",
"L.	c #483333",
"M.	c #343939",
"N.	c #353636",
"O.	c #3D3C3C",
"P.	c #545353",
"Q.	c #3F3C3C",
"R.	c #4A4444",
"S.	c #403C3C",
"T.	c #4F5050",
"U.	c #4C4B49",
"V.	c #36322B",
"W.	c #514F4F",
"X.	c #474141",
"Y.	c #4E4747",
"Z.	c #4D4646",
"`.	c #494444",
" +	c #413C3C",
".+	c #555555",
"++	c #686666",
"@+	c #575252",
"#+	c #4C4545",
"$+	c #3E3A3A",
"%+	c #353333",
"&+	c #484848",
"*+	c #3C3A39",
"=+	c #484041",
"-+	c #4D4747",
";+	c #403B3B",
">+	c #58585B",
",+	c #323336",
"'+	c #000000",
")+	c #2C262E",
"!+	c #504948",
"~+	c #3E3B3B",
"{+	c #6F6F6E",
"]+	c #535459",
"^+	c #00062C",
"/+	c #706705",
"(+	c #615A00",
"_+	c #141300",
":+	c #26222A",
"<+	c #494344",
"[+	c #3D3939",
"}+	c #525353",
"|+	c #525356",
"1+	c #292A33",
"2+	c #6B6300",
"3+	c #C3B606",
"4+	c #CFC107",
"5+	c #766D00",
"6+	c #000006",
"7+	c #2B262D",
"8+	c #4B4445",
"9+	c #4E4646",
"0+	c #494343",
"a+	c #464646",
"b+	c #555557",
"c+	c #57585B",
"d+	c #746E37",
"e+	c #C0B300",
"f+	c #EBDB08",
"g+	c #F9E709",
"h+	c #D3C407",
"i+	c #726A00",
"j+	c #000003",
"k+	c #353032",
"l+	c #514A4A",
"m+	c #565151",
"n+	c #4F4A4A",
"o+	c #4D4545",
"p+	c #595959",
"q+	c #717170",
"r+	c #5F6061",
"s+	c #746E33",
"t+	c #D0C110",
"u+	c #EFDE06",
"v+	c #F7E609",
"w+	c #F3E309",
"x+	c #AEA206",
"y+	c #322E00",
"z+	c #322F31",
"A+	c #545151",
"B+	c #555151",
"C+	c #504A4A",
"D+	c #403D3D",
"E+	c #444242",
"F+	c #5A5B60",
"G+	c #45412A",
"H+	c #BFB100",
"I+	c #ECDC09",
"J+	c #F1E009",
"K+	c #D1C108",
"L+	c #A09407",
"M+	c #766E04",
"N+	c #383300",
"O+	c #090913",
"P+	c #3E3B3C",
"Q+	c #514D4D",
"R+	c #504D4D",
"S+	c #737374",
"T+	c #606165",
"U+	c #847C3B",
"V+	c #DFCF00",
"W+	c #F3E109",
"X+	c #E8D709",
"Y+	c #BDAF08",
"Z+	c #958B06",
"`+	c #786F04",
" @	c #2E2A00",
".@	c #454242",
"+@	c #4F4B4B",
"@@	c #4A4747",
"#@	c #585454",
"$@	c #696868",
"%@	c #686868",
"&@	c #616161",
"*@	c #5F5928",
"=@	c #B3A504",
"-@	c #ECDB07",
";@	c #F3E208",
">@	c #D9C908",
",@	c #ACA006",
"'@	c #837A04",
")@	c #6B6200",
"!@	c #252109",
"~@	c #1E1D23",
"{@	c #434040",
"]@	c #4C4848",
"^@	c #413F3F",
"/@	c #636161",
"(@	c #6F6F6F",
"_@	c #5C5D60",
":@	c #191A20",
"<@	c #5E5600",
"[@	c #B8AB04",
"}@	c #D7C80C",
"|@	c #7B7200",
"1@	c #766D09",
"2@	c #655E01",
"3@	c #302C00",
"4@	c #262428",
"5@	c #464344",
"6@	c #524F4E",
"7@	c #4D4A4A",
"8@	c #3E3D3D",
"9@	c #504C4C",
"0@	c #5F5D5D",
"a@	c #737474",
"b@	c #57585C",
"c@	c #232220",
"d@	c #524B07",
"e@	c #665E25",
"f@	c #000014",
"g@	c #4C4522",
"h@	c #322D1C",
"i@	c #171522",
"j@	c #44403F",
"k@	c #3F3D3D",
"l@	c #545050",
"m@	c #666565",
"n@	c #757575",
"o@	c #606062",
"p@	c #464248",
"q@	c #453F40",
"r@	c #403B3D",
"s@	c #433D3E",
"t@	c #3E393B",
"u@	c #3F3A3B",
"v@	c #4C4646",
"w@	c #4B4848",
"x@	c #383737",
"y@	c #717272",
"z@	c #62605F",
"A@	c #4E4647",
"B@	c #413D3D",
"C@	c #423E3E",
"D@	c #606060",
"E@	c #565656",
"F@	c #6D6E6E",
"G@	c #5C5C5C",
"H@	c #454040",
"I@	c #414141",
"J@	c #575757",
"K@	c #393838",
"L@	c #343535",
"M@	c #5D5D5D",
"N@	c #313131",
"O@	c #2F2F2F",
"P@	c #313535",
"Q@	c #323333",
"R@	c #4C4F4F",
"S@	c #2A3939",
"T@	c #553E3E",
"U@	c #6D6464",
"V@	c #737676",
"W@	c #5A5B5B",
"X@	c #2B3838",
"Y@	c #553030",
"Z@	c #7F2A2A",
"`@	c #804F4F",
" #	c #635B5B",
".#	c #5E2D2D",
"+#	c #821212",
"@#	c #8A0101",
"##	c #6C2B2B",
"$#	c #2D3131",
"%#	c #6D2424",
"&#	c #8E0000",
"*#	c #692525",
"=#	c #323737",
"                                                                                                            ",
"                                                                                                            ",
"                                                                                                            ",
"                                                                                                            ",
"                                                                                                            ",
"                                                                                                            ",
"                                                                                                            ",
"                  .                                                                                         ",
"                  . .                                                         + @ + # $                     ",
"                  % & *                                                               = -                   ",
"                  ; > , *                                           - =   -           ' #                   ",
"                  ) ! ~ { *                                           +   - - -                             ",
"                  ] ^ / ( _ :                             <     [           - -       } @                   ",
"                * & > | 1 2 _ *                           3 4 ' } 5           - -                           ",
"              6 { 7 8 > 9 / ~ 0 :                               - + [           - -                         ",
"            a b 9 c d e 7 ! f 2 0 %                               g + [           h                         ",
"          i _ j k l m a & n o f p q *                   .           < + r         4                         ",
"      . s t u v w x y * . z A v B C 8 *               % D E           F G [       $                         ",
"      H I J k ! K * * . ; ) L M N O P Q R S 0 2 K T U S V W X Y Z `     - + [                               ",
"   ...+.@.#.$.%.&.&     . 0 ~ k *.=.-.;.>.; p 1 w w l ,.'.).!.~.{.].      - + [                             ",
"  ^./.(._.:.%.i           * q <.[.}.}.|.1.* 7 A 2.2.v A 3.4.5.6.7.8.        + 9.                            ",
"  0.a.b.c.d.e.          * % f.g.}.h.}.-.P S i.) o 2.k / j.k.l.m.n.o.        p.                              ",
"  0.q.r.s.t.            S u.v.w.x.y.g.z.A.>.B.C.D.l / k 2.E.F.G.H.I.J.      r +                             ",
"  K.L.. M.                S N.O.; 0 P.; Q.R.R.S.C.T.l 2.k k o U.V.V D .                                     ",
"                        S S S S x ( 1 W.X.Y.Z.`. +A..+A 2.k / ! { y *                                       ",
"                          * & , ^ f ++@+#+Z.Z.Y.R.$+%+D.o 2.k k 9 &+                                        ",
"                          & x | / <.*+=+Z.Z.Z.Z.-+R.;+A.d A k k A )                                         ",
"                        * &+! f >+,+'+)+Y.!+Z.Z.Z.Y.`.~+i..+A / ~ b                                         ",
"                          ~ {+]+^+/+(+_+:+<+Y.Z.Z.Z.Y.R.[+R }+L 2.T                                         ",
"                        e U |+1+2+3+4+5+6+7+8+9+Y.Z.Z.Y.0+~+K p ( a+                                        ",
"                      : b b+c+d+e+f+g+h+i+j+k+l+m+n+o+9+`.~+: N.b ; i                                       ",
"                    S m p+q+r+s+t+u+v+w+x+y+'+z+A+B+C+0+D+. E+f.& a                                         ",
"                    S q w v F+G+H+I+J+K+L+M+N+O+P+}.B+1.; E+Q+R+] 8                                         ",
"                    : . 2 S+T+U+V+v+W+X+Y+Z+`+ @'+.@h.+@@@g.#@$@%@D.& y                                     ",
"                    % ] &@2.p+*@=@-@;@>@,@'@)@!@~@{@}.]@^@y.=./@(@! T 8                                     ",
"                  . > w c k _@:@<@[@}@|@1@2@3@4@5@6@7@A.8@9@h.0@a@k ! n &                                   ",
"                S . n A k k / b@c@d@e@f@g@h@i@j@m+C k@S P B+l@m@n@v k ^ n & y                               ",
"                * % 8 o / 2.k 2.o@p@q@r@s@t@u@v@w@O.x@S & C e > l 2.1 f w 7 ;                               ",
"                * 8 T A k 2.2.2.y@z@9+A@`.D+B@C@8 . S . S * % ; n D@E@~ / 9 7 .                             ",
"                S * > ! k k 2.k F@G@{@H@k@u.x@  S   . .   .   * . K 8 I@G@f j ] .                           ",
"                S . ; z ! | &@%@J@b : i.K@L@                    S . % * _ M@f j > &                         ",
"                . . % S a+I@: 7 ; % . S                           S a 0 b q &@/ ( q .                       ",
"                  . . * . S * & :                               N@: &+! ! _ a+p+.+S S .                     ",
"                    .                                         % &.7 %@v G@e i q b O@S .                     ",
"                                                            a % a+l k &@. %                                 ",
"                                                          P@Q@R@%@/ &@& y                                   ",
"                                                        N.S@T@U@V@W@K y                                     ",
"                                                      X@S Y@Z@`@ #: %                                       ",
"                                                        .#+#@###A.$#                                        ",
"                                                        %#&#*#x@=#                                          "};
