/* XPM */
static char * nave1_4_xpm[] = {
"54 50 437 2",
"  	c None",
". 	c #383838",
"+ 	c #373737",
"@ 	c #363636",
"# 	c #323232",
"$ 	c #3D3D3D",
"% 	c #434343",
"& 	c #3A3A3A",
"* 	c #565656",
"= 	c #5F5F5F",
"- 	c #515151",
"; 	c #2D2D2D",
"> 	c #303030",
", 	c #2F2E2E",
"' 	c #2D2E2E",
") 	c #323333",
"! 	c #2C3434",
"~ 	c #283838",
"{ 	c #293838",
"] 	c #323737",
"^ 	c #3C3C3C",
"/ 	c #595959",
"( 	c #6E6E6E",
"_ 	c #404040",
": 	c #464646",
"< 	c #484848",
"[ 	c #474747",
"} 	c #4A4C4C",
"| 	c #484444",
"1 	c #473D3D",
"2 	c #4E3232",
"3 	c #582E2E",
"4 	c #4C3333",
"5 	c #6A6A6A",
"6 	c #555555",
"7 	c #444444",
"8 	c #5C5C5C",
"9 	c #696969",
"0 	c #6D6D6D",
"a 	c #6D7070",
"b 	c #6E6969",
"c 	c #754A4A",
"d 	c #8A0D0D",
"e 	c #840B0B",
"f 	c #752020",
"g 	c #353838",
"h 	c #6C6C6C",
"i 	c #525252",
"j 	c #5A5A5A",
"k 	c #6B6B6B",
"l 	c #656565",
"m 	c #676767",
"n 	c #686969",
"o 	c #665F5F",
"p 	c #744848",
"q 	c #7B2828",
"r 	c #7D1616",
"s 	c #771E1E",
"t 	c #4B3232",
"u 	c #303737",
"v 	c #3B3B3B",
"w 	c #5B5B5B",
"x 	c #6F6F6F",
"y 	c #414141",
"z 	c #3F3F3F",
"A 	c #424242",
"B 	c #3E3F3F",
"C 	c #433A3A",
"D 	c #423535",
"E 	c #413535",
"F 	c #473434",
"G 	c #313131",
"H 	c #343434",
"I 	c #2E2E2E",
"J 	c #333333",
"K 	c #2B2A2A",
"L 	c #333232",
"M 	c #2F3232",
"N 	c #2D3434",
"O 	c #243737",
"P 	c #2F3838",
"Q 	c #575757",
"R 	c #686868",
"S 	c #454545",
"T 	c #717171",
"U 	c #747474",
"V 	c #4A4A4A",
"W 	c #585858",
"X 	c #706F6F",
"Y 	c #767777",
"Z 	c #6D6E6E",
"` 	c #4F4F4F",
" .	c #717070",
"..	c #6A6B6B",
"+.	c #4F4E4E",
"@.	c #3E3D3D",
"#.	c #707070",
"$.	c #6A6868",
"%.	c #5D5B5B",
"&.	c #524E4E",
"*.	c #4E4C4C",
"=.	c #545454",
"-.	c #696868",
";.	c #605C5C",
">.	c #565252",
",.	c #504D4D",
"'.	c #4B4A4A",
").	c #393939",
"!.	c #494747",
"~.	c #575454",
"{.	c #595555",
"].	c #534F4F",
"^.	c #454343",
"/.	c #3A3939",
"(.	c #383939",
"_.	c #393838",
":.	c #515050",
"<.	c #403E3E",
"[.	c #4C4A4A",
"}.	c #4B4848",
"|.	c #474545",
"1.	c #464444",
"2.	c #413F3F",
"3.	c #3C3A3A",
"4.	c #119AE4",
"5.	c #1099E2",
"6.	c #4C4C4C",
"7.	c #686767",
"8.	c #666565",
"9.	c #3E3E3E",
"0.	c #3D3C3C",
"a.	c #414040",
"b.	c #4E4B4B",
"c.	c #555151",
"d.	c #514D4E",
"e.	c #514E4E",
"f.	c #4F4B4A",
"g.	c #464141",
"h.	c #433F3E",
"i.	c #3C3A3B",
"j.	c #1098E2",
"k.	c #1096DE",
"l.	c #535353",
"m.	c #666666",
"n.	c #434242",
"o.	c #393737",
"p.	c #423E3E",
"q.	c #423D3D",
"r.	c #454141",
"s.	c #433F40",
"t.	c #383538",
"u.	c #37363A",
"v.	c #312E35",
"w.	c #302E31",
"x.	c #3A3639",
"y.	c #444040",
"z.	c #413E3E",
"A.	c #383636",
"B.	c #119CE7",
"C.	c #119DE8",
"D.	c #119BE6",
"E.	c #119DE9",
"F.	c #38393A",
"G.	c #333332",
"H.	c #444445",
"I.	c #646464",
"J.	c #616262",
"K.	c #4B4444",
"L.	c #4C4545",
"M.	c #4D4747",
"N.	c #4F4C4C",
"O.	c #1C1A1E",
"P.	c #0B0A0F",
"Q.	c #2E290A",
"R.	c #39350E",
"S.	c #332E15",
"T.	c #3C372E",
"U.	c #4A4343",
"V.	c #4A4444",
"W.	c #353535",
"X.	c #119EEA",
"Y.	c #119BE5",
"Z.	c #119CE9",
"`.	c #392E28",
" +	c #392819",
".+	c #353430",
"++	c #44413F",
"@+	c #737373",
"#+	c #636464",
"$+	c #3F3A3A",
"%+	c #4D4646",
"&+	c #4E4646",
"*+	c #4F4848",
"=+	c #575252",
"-+	c #262529",
";+	c #3A3400",
">+	c #6A6100",
",+	c #746C00",
"'+	c #6C6505",
")+	c #3B3617",
"!+	c #24202A",
"~+	c #352E3C",
"{+	c #524D4D",
"]+	c #5F5D5D",
"^+	c #646363",
"/+	c #636363",
"(+	c #354C66",
"_+	c #345373",
":+	c #313F4F",
"<+	c #43413F",
"[+	c #676867",
"}+	c #747473",
"|+	c #727272",
"1+	c #444343",
"2+	c #3F3B3B",
"3+	c #4B4545",
"4+	c #4F4747",
"5+	c #544F4F",
"6+	c #4E4A4B",
"7+	c #151322",
"8+	c #524B01",
"9+	c #857C04",
"0+	c #9A9006",
"a+	c #9F9405",
"b+	c #857B02",
"c+	c #726A15",
"d+	c #4F4830",
"e+	c #464047",
"f+	c #6A696A",
"g+	c #4D4D4D",
"h+	c #119BE7",
"i+	c #119DEA",
"j+	c #36495C",
"k+	c #2C6E9F",
"l+	c #2481BD",
"m+	c #2A618C",
"n+	c #414244",
"o+	c #686664",
"p+	c #626262",
"q+	c #403C3C",
"r+	c #51494A",
"s+	c #453E40",
"t+	c #070519",
"u+	c #423D00",
"v+	c #8C8306",
"w+	c #B5A808",
"x+	c #D4C408",
"y+	c #E3D301",
"z+	c #CEBF0A",
"A+	c #7E7411",
"B+	c #3E3A36",
"C+	c #636466",
"D+	c #767676",
"E+	c #119CE6",
"F+	c #119AE5",
"G+	c #374352",
"H+	c #287DB6",
"I+	c #1D91D6",
"J+	c #286D9E",
"K+	c #424548",
"L+	c #686662",
"M+	c #616161",
"N+	c #3B3C3C",
"O+	c #4C4646",
"P+	c #4C4544",
"Q+	c #04021C",
"R+	c #504B00",
"S+	c #A09605",
"T+	c #CABC08",
"U+	c #EDDC0A",
"V+	c #FBE90A",
"W+	c #E8D806",
"X+	c #918600",
"Y+	c #302F2B",
"Z+	c #5F5F63",
"`+	c #737372",
" @	c #5D5D5D",
".@	c #0F9EEB",
"+@	c #364152",
"@@	c #287AB1",
"#@	c #149BE5",
"$@	c #44474D",
"%@	c #3E3A3A",
"&@	c #4F4847",
"*@	c #433D40",
"=@	c #262221",
"-@	c #827900",
";@	c #D7C807",
">@	c #F1E009",
",@	c #F4E307",
"'@	c #E0D000",
")@	c #948800",
"!@	c #303032",
"~@	c #626365",
"{@	c #119CE8",
"]@	c #109DEA",
"^@	c #364351",
"/@	c #2C70A0",
"(@	c #2680B9",
"_@	c #2A608A",
":@	c #403F3F",
"<@	c #676665",
"[@	c #626363",
"}@	c #454444",
"|@	c #403B3B",
"1@	c #433C40",
"2@	c #000019",
"3@	c #857B00",
"4@	c #E7D708",
"5@	c #F9E70A",
"6@	c #F0DF06",
"7@	c #C6B709",
"8@	c #867F3C",
"9@	c #53524E",
"0@	c #696A6B",
"a@	c #4E4E4E",
"b@	c #119EE9",
"c@	c #354E65",
"d@	c #354F66",
"e@	c #333941",
"f@	c #413F3D",
"g@	c #666665",
"h@	c #403D3D",
"i@	c #504948",
"j@	c #453F41",
"k@	c #1A1815",
"l@	c #766D00",
"m@	c #E2D207",
"n@	c #F3E207",
"o@	c #E1D100",
"p@	c #B4A706",
"q@	c #6F682E",
"r@	c #454556",
"s@	c #64656A",
"t@	c #6E6F70",
"u@	c #392B02",
"v@	c #39342C",
"w@	c #362D1D",
"x@	c #3D3838",
"y@	c #4E4747",
"z@	c #4D4545",
"A@	c #474041",
"B@	c #15131E",
"C@	c #615A00",
"D@	c #A29700",
"E@	c #BCAF00",
"F@	c #B0A517",
"G@	c #827A36",
"H@	c #4E4E52",
"I@	c #69696C",
"J@	c #707071",
"K@	c #313132",
"L@	c #4C4444",
"M@	c #524B4B",
"N@	c #4A4445",
"O@	c #27262E",
"P@	c #2D2C23",
"Q@	c #39361C",
"R@	c #565024",
"S@	c #3A3727",
"T@	c #5D5C52",
"U@	c #666667",
"V@	c #4B4B4B",
"W@	c #1099E3",
"X@	c #474444",
"Y@	c #5D5A5A",
"Z@	c #636161",
"`@	c #5F5E5F",
" #	c #535458",
".#	c #55565A",
"+#	c #51525A",
"@#	c #52545B",
"##	c #545555",
"$#	c #1099E4",
"%#	c #606060",
"&#	c #3B3A3A",
"*#	c #5E5D5D",
"=#	c #6B6B6A",
"-#	c #6C6C6B",
";#	c #565555",
">#	c #444443",
",#	c #3D3E3E",
"'#	c #4C4B4B",
")#	c #4D4B4B",
"!#	c #484545",
"~#	c #575353",
"{#	c #545050",
"]#	c #474646",
"^#	c #363535",
"/#	c #545151",
"(#	c #3C3B3B",
"_#	c #343535",
":#	c #464343",
"<#	c #5E5B5B",
"[#	c #4A4848",
"}#	c #424040",
"|#	c #585454",
"1#	c #676565",
"2#	c #505050",
"3#	c #383737",
"4#	c #626060",
"5#	c #6F6E6E",
"6#	c #2A2A2A",
"7#	c #2F3030",
"8#	c #333434",
"9#	c #2C3838",
"0#	c #223939",
"a#	c #323939",
"b#	c #303A3A",
"c#	c #494949",
"d#	c #464848",
"e#	c #523030",
"f#	c #4E3131",
"g#	c #503232",
"h#	c #6D6F6F",
"i#	c #6B6565",
"j#	c #764F4F",
"k#	c #832626",
"l#	c #831010",
"m#	c #762020",
"n#	c #5C2D2D",
"o#	c #343838",
"p#	c #676969",
"q#	c #764C4C",
"r#	c #7E2929",
"s#	c #7C1818",
"t#	c #5A2E2E",
"u#	c #2D3939",
"v#	c #414343",
"w#	c #414242",
"x#	c #493C3C",
"y#	c #3C3636",
"z#	c #4A3333",
"A#	c #4D3232",
"B#	c #263333",
"C#	c #2F3636",
"D#	c #2E3A3A",
"                                                      .                                                     ",
"                                                      + @ #                                                 ",
"                                                      . $ %                                                 ",
"                                                      & * = - + # ; > > , ' ) ! ~ { ]                       ",
"                                                      ^ / ( * $ _ : < [ _ } | 1 2 3 4                       ",
"                                                      ^ / 5 6 7 8 ( ( 9 0 a b c d e f 2 g                   ",
"                                                      ^ 8 h i % j k l l m n o p q r s t u                   ",
"                                                      v w x * . y _ z z A B B C D E F                       ",
"                                                      & / k 6 + G H I J K L M N O P                         ",
"                                                      $ / k Q z . @                                         ",
"                                                      v 8 ( R / S +                                         ",
"                                                      v Q T U k V @                                         ",
"                                                      v W X Y Z ` @ +                                       ",
"                                                      $ W X  ...+.@.@ +                                     ",
"                                                      & j #.$.%.&.*.@.. .                                   ",
"                                                    # $ =.-.;.>.,.'.$ @ + +                                 ",
"                                                  v ).).!.~.{.].^.^ /.(.. _._.                              ",
"                                                _ :.< + <.[.}.!.^.|.1.1.1.|.2.3.                            ",
"                                4.5.          v 6.7.8.9.@ 0.& a.b.c.&.d.e.f.g.h.i.(./.. +                   ",
"                              j.k.          A l.= #.m.n.o.p.q.r.e.&.s.t.u.v.w.x.y.r.z.A.H G   .             ",
"                    B.C.    D.E.        F.G.H.I.T T J._ q.K.L.M.c.N.O.P.Q.R.S.T.U.K.V.|.y 7 9.W.@           ",
"          X.      E.Y.      Y.Z.      `. +.+++R U @+#+$ $+%+&+*+=+,.-+;+>+,+'+)+!+~+{+]+^+/+6 & @ +         ",
"          C.C.    X.        D.E.      (+_+:+<+[+}+|+l 1+2+3+M.4+5+6+7+8+9+0+a+b+c+d+e+f+|+T l g+).&         ",
"      E.h+      X.X.        D.i+    j+k+l+m+n+o+}+|+p+1+q+L.%+%+r+s+t+u+v+w+x+y+z+A+B+C+D+U T m =.9.@ .     ",
"      E.E+        X.        F+E.    G+H+I+J+K+L+U @+M+N+2+O+%+%+4+P+Q+R+S+T+U+V+W+X+Y+Z+`+|+@+#. @$ W..     ",
"      E.h+        X.        Y..@    +@@@#@J+$@o+@+|+m.7 %@L.%+%+&@*@=@-@;@>@>@,@'@)@!@~@`+|+@+#. @9.W..     ",
"      E.{@        X.        Y.]@    ^@/@(@_@:@<@U |+[@}@|@L.%+%+&@1@2@3@4@5@6@y+7@8@9@0@U @+( l a@v +       ",
"          C.B.    X.b@      F+E.      c@d@e@f@g@U @+/+z h@L.%+%+i@j@k@l@m@n@o@p@q@r@s@t@T #.M+% & .         ",
"          b@        B.      4.{@      u@v@w@% R U U l z x@%+y@%+z@A@B@C@D@E@F@G@H@I@J@M+ @j i & @           ",
"                    B.E.    D.B.        F.K@7 l #.|+m.^.$+K.3+L@M@N@O@P@Q@R@S@T@U@( 0 V@& $ v . @           ",
"                                W@            - = #.l % o.z.h@X@Y@Z@`@ #.#+#@#.###=.i $ J #                 ",
"                                $#D.          # g+I.%#).).0.&#S *#( 0 =#-##.U@;#>#@ v + .                   ",
"                                                  g+g+,#a.'#)#b.` g+a@g+- ` g+V                             ",
"                                                  & W.+ !#c.~#{#]#9.^#. @ + +                               ",
"                                                      . 1.{#~#>./#*.(#_#+ @                                 ",
"                                                      . :#{#%.<#c.[#}#+ @                                   ",
"                                                      o.:#|#1#-.2#(#3#@                                     ",
"                                                      . '#4#X 5#i W.W.                                      ",
"                                                      & l.h |+h a@.                                         ",
"                                                      v W h m W % +                                         ",
"                                                      & Q #.8 9.. +                                         ",
"                                                      . * k / . J > G W.6#7#8#9#0#a#b#                      ",
"                                                      & =.h W v ).< [ % _ c#d#$+e#f#g#                      ",
"                                                      ).j 0 / A w ( h 5 h h#i#j#k#l#m#n#o#                  ",
"                                                      . 6 x / S 8 9 5 R h p#$.q#r#s#s t#u#                  ",
"                                                      & 6 R j . _ A z S $ v#w#x#y#z#A#                      ",
"                                                      & 6.%#=.v G I W.> ; ) W.B#C#D#u#                      ",
"                                                      + ^ y _                                               ",
"                                                      + W.H                                                 ",
"                                                      + .                                                   "};
