/* XPM */
static char * Tutti_xpm[] = {
"32 32 6 1",
" 	c None",
".	c #FFFFFFFFFFFF",
"X	c #00000000FFFF",
"o	c #A0A02020F0F0",
"O	c #B2B222222222",
"+	c #FFFF00000000",
"...........XXoo                 ",
"........XXoooO         ........ ",
".......XoOO++          ........ ",
"......oOO+++           ........ ",
".....oO++++            o....... ",
"....XOO+++             oX...... ",
"...XoO+++              ooX..... ",
"..XXOO++   +++         ooXX.... ",
"..XoO++  +++++++       oooX.... ",
"..XoO+  +++++++++      oooX.... ",
".XXoO  +++++++++++     oooXX... ",
".XoO   +++++++++++     OoooX... ",
".Xo    +++++++++++     ooooX... ",
".X     +++++++++++     ooooX... ",
".      +++++++++++     oooXX... ",
"        O+++++++O      oooXX... ",
"         OO+++OO       oooXX... ",
"           OOO         ooXX.... ",
"                       ooXX.... ",
"                       oXXX.... ",
"                       oXX..... ",
"  ..X          o       XX...... ",
" .   X   o     o       X....... ",
" .   .         o       ........ ",
" .   .  XX     o       ........ ",
" .   .   X     X       ........ ",
" .   .   .     X       ........ ",
" .   .   .     .       ........ ",
" .   .   .             ........ ",
"  ...   ...    .       ........ ",
"                       ........ ",
"                                "};
