/* XPM */
static char * nave2_15_xpm[] = {
"54 50 642 2",
"  	c None",
". 	c #591BA6",
"+ 	c #5F208D",
"@ 	c #3E2F84",
"# 	c #76195C",
"$ 	c #870E05",
"% 	c #562A6D",
"& 	c #25308C",
"* 	c #323284",
"= 	c #323484",
"- 	c #323285",
"; 	c #622562",
"> 	c #8C0500",
", 	c #7B263D",
"' 	c #3E347D",
") 	c #313182",
"! 	c #33297B",
"~ 	c #331777",
"{ 	c #302E94",
"] 	c #312B8D",
"^ 	c #32337D",
"/ 	c #4A2778",
"( 	c #803B00",
"_ 	c #7C4070",
": 	c #4C3793",
"< 	c #293187",
"[ 	c #322D7E",
"} 	c #333681",
"| 	c #2B85B2",
"1 	c #2460D3",
"2 	c #2E2DA0",
"3 	c #33317E",
"4 	c #2E28A0",
"5 	c #312F87",
"6 	c #0F358C",
"7 	c #4C3A7C",
"8 	c #432AD9",
"9 	c #2F25D9",
"0 	c #2B2E9B",
"a 	c #32307E",
"b 	c #35398C",
"c 	c #307FC3",
"d 	c #1C94EC",
"e 	c #025BFF",
"f 	c #0700F6",
"g 	c #1F27D4",
"h 	c #1C40E5",
"i 	c #2E5FA5",
"j 	c #2F3094",
"k 	c #0C19E2",
"l 	c #0000FF",
"m 	c #1F21D0",
"n 	c #333182",
"o 	c #313183",
"p 	c #362394",
"q 	c #264CE1",
"r 	c #0B42F9",
"s 	c #0000F9",
"t 	c #0100F9",
"u 	c #001EFC",
"v 	c #0B86F9",
"w 	c #2A9CC5",
"x 	c #2D4DA3",
"y 	c #2A29AD",
"z 	c #2F3098",
"A 	c #333376",
"B 	c #282AB1",
"C 	c #070AF8",
"D 	c #0E0FF2",
"E 	c #2C2CA6",
"F 	c #343477",
"G 	c #333575",
"H 	c #33337D",
"I 	c #0505F1",
"J 	c #0000FC",
"K 	c #010CF9",
"L 	c #010BF9",
"M 	c #0248FA",
"N 	c #277AE4",
"O 	c #243DE2",
"P 	c #0C00F0",
"Q 	c #2526C2",
"R 	c #32337F",
"S 	c #2021D1",
"T 	c #0203FD",
"U 	c #1E20D5",
"V 	c #303090",
"W 	c #37377D",
"X 	c #3738BD",
"Y 	c #1D1EF4",
"Z 	c #0008FB",
"` 	c #010BFC",
" .	c #0005FC",
"..	c #0200FC",
"+.	c #152FF3",
"@.	c #1E00F4",
"#.	c #0001FF",
"$.	c #0D0EF4",
"%.	c #2A2BA5",
"&.	c #313285",
"*.	c #2B2CA7",
"=.	c #0D10F1",
"-.	c #0C0EF4",
";.	c #2C2DA5",
">.	c #343470",
",.	c #343387",
"'.	c #2F2FC6",
").	c #0B0CFB",
"!.	c #0003FE",
"~.	c #010CFF",
"{.	c #0105F9",
"].	c #0000DB",
"^.	c #2225BE",
"/.	c #1B1CD0",
"(.	c #0000F0",
"_.	c #0610F4",
":.	c #191AE2",
"<.	c #322DBB",
"[.	c #1711EF",
"}.	c #333475",
"|.	c #2324C6",
"1.	c #171AE2",
"2.	c #333379",
"3.	c #292AAF",
"4.	c #191BEF",
"5.	c #0E12FA",
"6.	c #0000E8",
"7.	c #07039E",
"8.	c #1E1B51",
"9.	c #5B5617",
"0.	c #787082",
"a.	c #3A36A2",
"b.	c #474689",
"c.	c #2E2FDF",
"d.	c #212CE5",
"e.	c #2F81D7",
"f.	c #197EEF",
"g.	c #2030CA",
"h.	c #34346D",
"i.	c #363856",
"j.	c #323281",
"k.	c #323280",
"l.	c #1F22D1",
"m.	c #2B2CA8",
"n.	c #2729B8",
"o.	c #1418E6",
"p.	c #343472",
"q.	c #2D2EA0",
"r.	c #2729DA",
"s.	c #181AF1",
"t.	c #0000DA",
"u.	c #504A6C",
"v.	c #887E00",
"w.	c #B7AA00",
"x.	c #D2C30D",
"y.	c #948A00",
"z.	c #8C831C",
"A.	c #7871A3",
"B.	c #32009D",
"C.	c #3E64C5",
"D.	c #2599EE",
"E.	c #0957F2",
"F.	c #2800B1",
"G.	c #332D75",
"H.	c #333374",
"I.	c #33337B",
"J.	c #353462",
"K.	c #2728B9",
"L.	c #313193",
"M.	c #343463",
"N.	c #34346E",
"O.	c #2A2BAD",
"P.	c #1E1FD6",
"Q.	c #060AF9",
"R.	c #0005FE",
"S.	c #080FF6",
"T.	c #2B2BAB",
"U.	c #32327F",
"V.	c #33337E",
"W.	c #1A1EDB",
"X.	c #1719F3",
"Y.	c #0305FD",
"Z.	c #0000EC",
"`.	c #988E7F",
" +	c #D7C800",
".+	c #F0E001",
"++	c #F2E100",
"@+	c #E3D300",
"#+	c #DECF05",
"$+	c #B8AC22",
"%+	c #504800",
"&+	c #002C91",
"*+	c #2F92D9",
"=+	c #0C89F7",
"-+	c #1A1DDA",
";+	c #322D84",
">+	c #313289",
",+	c #2627BF",
"'+	c #2C2DA1",
")+	c #2C2DA0",
"!+	c #1C1FD8",
"~+	c #141AEF",
"{+	c #2A2CCE",
"]+	c #2D2EAD",
"^+	c #2022CD",
"/+	c #070DF6",
"(+	c #0104FE",
"_+	c #040AFE",
":+	c #1217F6",
"<+	c #1B1EE7",
"[+	c #2A2BAB",
"}+	c #323282",
"|+	c #313187",
"1+	c #1F21D2",
"2+	c #0005EB",
"3+	c #0C0BB0",
"4+	c #8C832A",
"5+	c #E6D500",
"6+	c #F9E708",
"7+	c #F3E20A",
"8+	c #F2E109",
"9+	c #F3E202",
"0+	c #998E00",
"a+	c #403569",
"b+	c #346DBB",
"c+	c #269EE9",
"d+	c #0765F3",
"e+	c #2800B8",
"f+	c #2A2BAE",
"g+	c #0910F4",
"h+	c #191AE4",
"i+	c #0A0FF4",
"j+	c #0002FE",
"k+	c #050EFB",
"l+	c #2224E6",
"m+	c #1113F2",
"n+	c #0208FF",
"o+	c #1116F6",
"p+	c #1E21E5",
"q+	c #2A2BBF",
"r+	c #2F2F9B",
"s+	c #2829B5",
"t+	c #090FF6",
"u+	c #1C18DC",
"v+	c #3C365C",
"w+	c #605700",
"x+	c #BFB006",
"y+	c #E8D708",
"z+	c #E0D008",
"A+	c #F5E409",
"B+	c #F8E609",
"C+	c #E6D509",
"D+	c #938800",
"E+	c #34281D",
"F+	c #340093",
"G+	c #3496D4",
"H+	c #1692F1",
"I+	c #1141E7",
"J+	c #1804DF",
"K+	c #030AF9",
"L+	c #1C1CF4",
"M+	c #2222ED",
"N+	c #0205FB",
"O+	c #0A11F7",
"P+	c #040BFA",
"Q+	c #0103FE",
"R+	c #0C13F6",
"S+	c #1A1EEF",
"T+	c #292AC3",
"U+	c #2E2FA7",
"V+	c #33336D",
"W+	c #2D2D9F",
"X+	c #1318EB",
"Y+	c #2220BF",
"Z+	c #433D4C",
"`+	c #766D00",
" @	c #A59908",
".@	c #BAAC08",
"+@	c #B7A907",
"@@	c #D4C508",
"#@	c #CFC104",
"$@	c #968B00",
"%@	c #403B22",
"&@	c #000058",
"*@	c #161E9F",
"=@	c #269CE0",
"-@	c #2AB4E2",
";@	c #1269EB",
">@	c #0015FE",
",@	c #0108FA",
"'@	c #1E21EC",
")@	c #2223E9",
"!@	c #1114F6",
"~@	c #2B2CE6",
"{@	c #2326F0",
"]@	c #1B1EEB",
"^@	c #2426D4",
"/@	c #2D2DB0",
"(@	c #333375",
"_@	c #1D1ED9",
":@	c #080CF5",
"<@	c #201E9C",
"[@	c #2C2700",
"}@	c #625B00",
"|@	c #8A8004",
"1@	c #978D07",
"2@	c #776E04",
"3@	c #726900",
"4@	c #5D5600",
"5@	c #0D0D08",
"6@	c #00009B",
"7@	c #0000D3",
"8@	c #042BED",
"9@	c #3662E4",
"0@	c #4183BA",
"a@	c #2658CC",
"b@	c #0300F8",
"c@	c #030DFA",
"d@	c #0910F7",
"e@	c #0709FD",
"f@	c #3434DA",
"g@	c #1016ED",
"h@	c #2B2CAC",
"i@	c #31328A",
"j@	c #1D1FD8",
"k@	c #0E0EF6",
"l@	c #2020D2",
"m@	c #1F1C8C",
"n@	c #4A4330",
"o@	c #6F6601",
"p@	c #696200",
"q@	c #292600",
"r@	c #1B1819",
"s@	c #000091",
"t@	c #0000B7",
"u@	c #0109F8",
"v@	c #0107FB",
"w@	c #1D1AF3",
"x@	c #2527E4",
"y@	c #2B2DA6",
"z@	c #2822BA",
"A@	c #0709F9",
"B@	c #0008FC",
"C@	c #0F10EE",
"D@	c #2020CA",
"E@	c #2B2CA1",
"F@	c #0F2BB5",
"G@	c #3828A8",
"H@	c #2829B6",
"I@	c #0509F9",
"J@	c #0C10F8",
"K@	c #0B10D4",
"L@	c #00006E",
"M@	c #282400",
"N@	c #25213D",
"O@	c #000063",
"P@	c #0002B4",
"Q@	c #0108EF",
"R@	c #0009FA",
"S@	c #010CF8",
"T@	c #171BE0",
"U@	c #0B0FF4",
"V@	c #0D12F1",
"W@	c #2022D0",
"X@	c #2D2DA2",
"Y@	c #2019E0",
"Z@	c #6D158D",
"`@	c #68226F",
" #	c #383375",
".#	c #313189",
"+#	c #171BE1",
"@#	c #0002FF",
"##	c #1317F5",
"$#	c #181ABA",
"%#	c #0B0B5E",
"&#	c #0004BA",
"*#	c #0005DE",
"=#	c #010BFA",
"-#	c #010BF8",
";#	c #000BF9",
">#	c #0F14EF",
",#	c #2C2DA8",
"'#	c #2627BC",
")#	c #313186",
"!#	c #4427A0",
"~#	c #7F0F56",
"{#	c #890A00",
"]#	c #5F2460",
"^#	c #2C346C",
"/#	c #32337E",
"(#	c #353468",
"_#	c #2D2DA1",
":#	c #1114ED",
"<#	c #050BFD",
"[#	c #1216EA",
"}#	c #080FDB",
"|#	c #000BFC",
"1#	c #010BFD",
"2#	c #010BFB",
"3#	c #0009FB",
"4#	c #0003FF",
"5#	c #070BF8",
"6#	c #1D1EDA",
"7#	c #2F3096",
"8#	c #2D2DA0",
"9#	c #2325C7",
"0#	c #2A2CAC",
"a#	c #232F97",
"b#	c #651B87",
"c#	c #8C0A07",
"d#	c #793036",
"e#	c #41396F",
"f#	c #33327D",
"g#	c #31318A",
"h#	c #2022CF",
"i#	c #0007FE",
"j#	c #0006FF",
"k#	c #0007FF",
"l#	c #0007FC",
"m#	c #0208FC",
"n#	c #1115ED",
"o#	c #2828B9",
"p#	c #2425C5",
"q#	c #273564",
"r#	c #302CA5",
"s#	c #71397C",
"t#	c #6F4490",
"u#	c #3F31AC",
"v#	c #32336D",
"w#	c #2C2DA9",
"x#	c #2727BD",
"y#	c #2728BA",
"z#	c #070FF5",
"A#	c #0E12F1",
"B#	c #1C1ED9",
"C#	c #0509FB",
"D#	c #0109FB",
"E#	c #010AFA",
"F#	c #1617E7",
"G#	c #2224CB",
"H#	c #292AB1",
"I#	c #2A2BB0",
"J#	c #0F14EC",
"K#	c #080FF5",
"L#	c #0105FF",
"M#	c #0810F4",
"N#	c #1619E4",
"O#	c #303479",
"P#	c #3E31B2",
"Q#	c #3926E8",
"R#	c #0002F6",
"S#	c #2E2F98",
"T#	c #333378",
"U#	c #30308E",
"V#	c #181CE0",
"W#	c #0207FB",
"X#	c #1112EF",
"Y#	c #0209FB",
"Z#	c #191CDF",
"`#	c #2829B7",
" $	c #1217EA",
".$	c #000AFA",
"+$	c #1014EF",
"@$	c #191DDD",
"#$	c #2F2F92",
"$$	c #2325C6",
"%$	c #1D1FD9",
"&$	c #0C0CF5",
"*$	c #0005FD",
"=$	c #020BFA",
"-$	c #0F14F7",
";$	c #1A1DE6",
">$	c #2F318E",
",$	c #1C1FD9",
"'$	c #32337A",
")$	c #30308B",
"!$	c #2A2AAE",
"~$	c #1D1DF4",
"{$	c #0F10FB",
"]$	c #0D0DF3",
"^$	c #1A1EDC",
"/$	c #030BF9",
"($	c #1B1CDE",
"_$	c #2B2CAB",
":$	c #2626C0",
"<$	c #0106FE",
"[$	c #0007FD",
"}$	c #0006FC",
"|$	c #0004FF",
"1$	c #1B1EDE",
"2$	c #353556",
"3$	c #292AB4",
"4$	c #0B0DF6",
"5$	c #0B0DF5",
"6$	c #2B2BAA",
"7$	c #353554",
"8$	c #1417E2",
"9$	c #0E10EE",
"0$	c #1619F4",
"a$	c #3A3AD3",
"b$	c #2C2DE2",
"c$	c #090EFB",
"d$	c #1E20D3",
"e$	c #2F2F91",
"f$	c #2828BA",
"g$	c #2D2E9E",
"h$	c #1014EE",
"i$	c #000BFA",
"j$	c #0207FC",
"k$	c #1015EC",
"l$	c #1F21D1",
"m$	c #2D2E9F",
"n$	c #313284",
"o$	c #34346C",
"p$	c #303183",
"q$	c #2225DB",
"r$	c #2528EB",
"s$	c #090FFA",
"t$	c #171BF2",
"u$	c #2C2DE5",
"v$	c #171AF5",
"w$	c #0001FE",
"x$	c #0F14ED",
"y$	c #2324C7",
"z$	c #1719E5",
"A$	c #0008FD",
"B$	c #0B0BF3",
"C$	c #201DD0",
"D$	c #2C29A1",
"E$	c #32317B",
"F$	c #333278",
"G$	c #363650",
"H$	c #2C2DA7",
"I$	c #0D11F2",
"J$	c #0208FE",
"K$	c #2628C1",
"L$	c #343478",
"M$	c #353564",
"N$	c #3536A3",
"O$	c #3839D2",
"P$	c #0003FB",
"Q$	c #0910F8",
"R$	c #1416F2",
"S$	c #2223CD",
"T$	c #2C2DA4",
"U$	c #2628BC",
"V$	c #1719E1",
"W$	c #060AFB",
"X$	c #0609FD",
"Y$	c #0408FC",
"Z$	c #0106FD",
"`$	c #0906F7",
" %	c #1715E0",
".%	c #2C27A4",
"+%	c #323E7C",
"@%	c #334473",
"#%	c #322D7B",
"$%	c #1E21D4",
"%%	c #1A1CE9",
"&%	c #2B2CBA",
"*%	c #313190",
"=%	c #2729B4",
"-%	c #1517E5",
";%	c #181AF6",
">%	c #0B12F8",
",%	c #191DEE",
"'%	c #2628D1",
")%	c #2F2FA3",
"!%	c #323279",
"~%	c #34346A",
"{%	c #191CDE",
"]%	c #2123EC",
"^%	c #3436D8",
"/%	c #1C1EF3",
"(%	c #0004FE",
"_%	c #1918E0",
":%	c #2822B5",
"<%	c #2F3D8F",
"[%	c #335676",
"}%	c #2C71A0",
"|%	c #2A72AC",
"1%	c #31388D",
"2%	c #373741",
"3%	c #2C2CAB",
"4%	c #1B1DDB",
"5%	c #030AF7",
"6%	c #050DFC",
"7%	c #161AF2",
"8%	c #2C2DB3",
"9%	c #323286",
"0%	c #2F2F93",
"a%	c #2D2FCD",
"b%	c #3C3CC0",
"c%	c #2628D9",
"d%	c #2123CB",
"e%	c #333083",
"f%	c #343273",
"g%	c #2C6C9D",
"h%	c #2289C7",
"i%	c #1997DE",
"j%	c #218ACA",
"k%	c #119BE6",
"l%	c #2D2E99",
"m%	c #1F21CF",
"n%	c #0E13EF",
"o%	c #040CFB",
"p%	c #1317F7",
"q%	c #2224DC",
"r%	c #2A2BC1",
"s%	c #323283",
"t%	c #303187",
"u%	c #353269",
"v%	c #313885",
"w%	c #247DC1",
"x%	c #1F8ECE",
"y%	c #2583C0",
"z%	c #2F658D",
"A%	c #1417E9",
"B%	c #040BFE",
"C%	c #1116F5",
"D%	c #1D20E7",
"E%	c #292AC4",
"F%	c #303195",
"G%	c #323182",
"H%	c #321782",
"I%	c #2D6599",
"J%	c #354E64",
"K%	c #383532",
"L%	c #2021D2",
"M%	c #161BF5",
"N%	c #2829C4",
"O%	c #2E2FA6",
"P%	c #119DE9",
"Q%	c #119CE7",
"R%	c #2425C6",
"S%	c #292BB9",
"T%	c #333372",
"U%	c #119CE6",
"V%	c #119BE5",
"W%	c #119CE8",
"X%	c #119EEA",
"Y%	c #119DE8",
"                                                                                                            ",
"                                                                      . + @                                 ",
"                                                                      # $ % &                               ",
"                              * =                                   - ; > , '                               ",
"                            ) ! ~ { ] ^                               / ( _ : <                             ",
"                            [ } | 1 2 3 4 5                           6 7 8 9 0                             ",
"                          a b c d e f g h i                             j k l m n                           ",
"                          o p q r s t u v w x y z                       A B C D E F                         ",
"                          G H I J K L s M N O P Q                         R S T U V                         ",
"                          W X Y Z K `  ...+.@.#.$.%.                      &.*.=.-.;.>.                      ",
"                          ,.'.).!.~.{.].^./.(._.l :.<.[.                    }.|.!.1.2.                      ",
"                            3.4.5.6.7.8.9.0.a.b.c.d.e.f.g.h.i.            j.k.j l.m.n.o.o.                  ",
"                          p.q.r.s.t.u.v.w.x.y.z.A.B.C.D.E.F.G.H.I.J.  ) K.L.M.N.O.P.Q.R.S.T.h.U.            ",
"                          V.W.X.Y.Z.`. +.+++@+#+$+%+&+*+=+-+;+>+,+'+)+!+~+{+]+^+/+(+_+:+<+[+}+              ",
"                          |+1+#.2+3+4+5+6+7+8+9+@+0+a+b+c+d+e+f+g+h+i+j+k+l+m+ .n+o+p+q+r+                  ",
"                            s+t+u+v+w+x+y+z+A+B+C+D+E+F+G+H+I+J+K+L+M+N+O+P+Q+R+S+T+U+V+                    ",
"                            W+X+Y+Z+`+ @.@+@@@#@$@%@&@*@=@-@;@>@,@'@)@!@~@{@]@^@/@(@                        ",
"                            _@:@<@[@}@|@1@2@3@4@5@6@7@8@9@0@a@b@#.c@d@e@f@g@h@i@                            ",
"                            j@k@l@m@n@o@p@q@r@s@t@u@v@l w@x@y@z@A@R.B@C@D@E@                                ",
"  F@G@                      H@I@J@K@L@M@N@O@P@Q@R@~.S@L {.l T@H@U@V@W@X@                                    ",
"  Y@Z@`@ #                  .#+#@###$#%#&#*#L ~.=#L -#L ;#R.>#,#'#m.)#                                      ",
"  !#~#{#]#^#              /#(#_#:#<#[#}#|#1#2#L L L L 3#4#5#6#7#8#9#0#                                      ",
"  a#b#c#d#e#              f#}+g#h#P+i#j#k#L L L L R@l#m#n#o#O.p#U@#._@                                      ",
"  q#r#s#t#u#v#            U.w#x#y#z#A#B#C#D#K E#3#@#F#G#H#I#J#K#L#M#N#                                      ",
"    O#P#Q#R#S#          T#U#V#W#X#Y#Z#`# $3#.$4#+$@$#$$$%$&$*$=$-$;$                                        ",
"      >$T@(+,$'$        )$!$>#l ~${$]$n.^$#./$($_$'#:$<$D#[$.$}$|$1$                                        ",
"      2$3$4$5$6$7$    m.8$9$l 0$a$b$c$d$e$f$$$g$m h$C#|$i$l#j$k$l$m$                                        ",
"        n$%$@#_@F o$p$q$r$s$Y#t$u$v$w$x$H@#$y$z$w$Z L A$R.B$C$D$E$F$                                        ",
"        G$H$I$J$K$L$M$N$O$W#P$` Q$R$S$T$U$V$W$X$Y$l#Z$`$ %.%+%@%#%/#7#                                      ",
"          H.$%%%&%*%=%-%;%l >%,%'%)%!%~%{%l ]%^%/%(%_%:%<%[%}%|%1%                                          ",
"          2%U#3%0#4%5%|$6%7%^@8%9%      0%  a%b%c%d%e%f%g%h%i%j%          k%                                ",
"            l%m%n%@#o%p%q%r%s%                    t%u%v%w%x%y%z%                                            ",
"            A%j+B%C%D%E%F%                        )$G%H%  I%J%K%                                            ",
"            L%Y$M%N%O%H.                                              P%Q%                                  ",
"            #$R%S%T%                                                U%V%                                    ",
"          p.T#U.                                                W%k%                                        ",
"          U.                                                W%k%                                            ",
"                                                          k%                                                ",
"                                                                                                            ",
"                                                                        X%X%                                ",
"                                                                    X%X%                                    ",
"                                                                  X%X%                                      ",
"                                                                                                            ",
"                                                                                                            ",
"                                                                      Y%    Q%                              ",
"                                                                          Y%P%                              ",
"                                                                                                            ",
"                                                                                                            ",
"                                                                                                            ",
"                                                                                                            "};
