/* XPM */
static char * nave2_6_xpm[] = {
"54 50 577 2",
"  	c None",
". 	c #323278",
"+ 	c #313187",
"@ 	c #323274",
"# 	c #32327E",
"$ 	c #32337C",
"% 	c #119EEA",
"& 	c #333378",
"* 	c #36364C",
"= 	c #119BE6",
"- 	c #119DE9",
"; 	c #119CE7",
"> 	c #32327D",
", 	c #181CE5",
"' 	c #161AE3",
") 	c #31318B",
"! 	c #119BE7",
"~ 	c #333373",
"{ 	c #292AC8",
"] 	c #151AF5",
"^ 	c #0003FF",
"/ 	c #040EF7",
"( 	c #1099E3",
"_ 	c #119CE8",
": 	c #119EEB",
"< 	c #34336B",
"[ 	c #2B2CB8",
"} 	c #181CF3",
"| 	c #010BF9",
"1 	c #0004FF",
"2 	c #2526BF",
"3 	c #393800",
"4 	c #343464",
"5 	c #2E2EA8",
"6 	c #1C1FEF",
"7 	c #040EF8",
"8 	c #0002FF",
"9 	c #2022D0",
"0 	c #323284",
"a 	c #323380",
"b 	c #36363D",
"c 	c #119DE8",
"d 	c #119AE5",
"e 	c #109AE5",
"f 	c #109AE3",
"g 	c #34345E",
"h 	c #303098",
"i 	c #1F21EA",
"j 	c #0811F8",
"k 	c #161AE2",
"l 	c #323282",
"m 	c #0F15EE",
"n 	c #1F21D3",
"o 	c #30318D",
"p 	c #35354C",
"q 	c #119AE4",
"r 	c #313189",
"s 	c #2224E1",
"t 	c #0D14F7",
"u 	c #0004FE",
"v 	c #0C13F0",
"w 	c #31318A",
"x 	c #2F30AB",
"y 	c #1117FC",
"z 	c #1A1EDD",
"A 	c #2F309A",
"B 	c #35355A",
"C 	c #373700",
"D 	c #2527D6",
"E 	c #1117F7",
"F 	c #0002FC",
"G 	c #030CF8",
"H 	c #2B2B9B",
"I 	c #333375",
"J 	c #2829B5",
"K 	c #0001FF",
"L 	c #1318E8",
"M 	c #2D2EA6",
"N 	c #343467",
"O 	c #37371A",
"P 	c #109FEC",
"Q 	c #2B2CA7",
"R 	c #2B2CA5",
"S 	c #282AC8",
"T 	c #0009FA",
"U 	c #0007FA",
"V 	c #4445BD",
"W 	c #383892",
"X 	c #343473",
"Y 	c #323281",
"Z 	c #353561",
"` 	c #2D2DA1",
" .	c #0A12F1",
"..	c #0000FF",
"+.	c #0A12F2",
"@.	c #272AB4",
"#.	c #2E3181",
"$.	c #363627",
"%.	c #119BE5",
"&.	c #119AE3",
"*.	c #119FEB",
"=.	c #2D2EA0",
"-.	c #2C2D9D",
";.	c #32336C",
">.	c #2729B6",
",.	c #333374",
"'.	c #191DF2",
").	c #000AF9",
"!.	c #0000FC",
"~.	c #1E22F1",
"{.	c #0004FA",
"].	c #30318B",
"^.	c #363552",
"/.	c #30308E",
"(.	c #1419E6",
"_.	c #3524E6",
":.	c #5038A5",
"<.	c #192DA8",
"[.	c #353642",
"}.	c #392F1C",
"|.	c #373F48",
"1.	c #2C56A1",
"2.	c #321C81",
"3.	c #32317F",
"4.	c #33337D",
"5.	c #323280",
"6.	c #2F31D4",
"7.	c #3E3FB1",
"8.	c #050EF3",
"9.	c #1A1DDC",
"0.	c #343471",
"a.	c #292AB1",
"b.	c #060FF9",
"c.	c #0008FA",
"d.	c #161AF3",
"e.	c #0006FA",
"f.	c #000AFA",
"g.	c #0008FB",
"h.	c #353560",
"i.	c #36364B",
"j.	c #2522D3",
"k.	c #764C6C",
"l.	c #8B3100",
"m.	c #65178F",
"n.	c #1B2CB0",
"o.	c #32355C",
"p.	c #383736",
"q.	c #2E6B97",
"r.	c #1D8FD1",
"s.	c #2A6BAC",
"t.	c #322F80",
"u.	c #343375",
"v.	c #1C1FD6",
"w.	c #0009FE",
"x.	c #4747B3",
"y.	c #0F15F5",
"z.	c #1E21D2",
"A.	c #2F2F96",
"B.	c #020CF8",
"C.	c #0000FE",
"D.	c #3D3CD0",
"E.	c #3636DA",
"F.	c #0005FE",
"G.	c #2728BA",
"H.	c #343472",
"I.	c #363645",
"J.	c #2D317C",
"K.	c #5F3660",
"L.	c #840300",
"M.	c #8D0100",
"N.	c #741672",
"O.	c #1C21D2",
"P.	c #393125",
"Q.	c #306289",
"R.	c #1E8ED0",
"S.	c #159BE5",
"T.	c #2F6990",
"U.	c #343C6F",
"V.	c #2425C4",
"W.	c #0005FF",
"X.	c #0004FB",
"Y.	c #191CDF",
"Z.	c #33337B",
"`.	c #2728B9",
" +	c #0002FD",
".+	c #3131DF",
"++	c #0E14F6",
"@+	c #313286",
"#+	c #333370",
"$+	c #35363F",
"%+	c #25357C",
"&+	c #542B70",
"*+	c #831400",
"=+	c #6E1190",
"-+	c #041FDE",
";+	c #1199E2",
">+	c #277EB6",
",+	c #159BE4",
"'+	c #2B74A6",
")+	c #344872",
"!+	c #2922B0",
"~+	c #0007FD",
"{+	c #0F15EC",
"]+	c #2122CF",
"^+	c #2E2E9C",
"/+	c #2B2CA9",
"(+	c #020BF9",
"_+	c #2C2EA5",
":+	c #34346F",
"<+	c #363631",
"[+	c #263573",
"}+	c #442C8A",
"|+	c #2927BA",
"1+	c #30327E",
"2+	c #2E1C9A",
"3+	c #2F5197",
"4+	c #2D6E9D",
"5+	c #334D71",
"6+	c #2E279C",
"7+	c #0009FB",
"8+	c #040EF6",
"9+	c #1F22D1",
"0+	c #0008FC",
"a+	c #2829B4",
"b+	c #0810F4",
"c+	c #30308D",
"d+	c #2B2CAD",
"e+	c #313289",
"f+	c #32327F",
"g+	c #109AE4",
"h+	c #2D2E9E",
"i+	c #313285",
"j+	c #33297C",
"k+	c #333679",
"l+	c #312F8B",
"m+	c #0C11F0",
"n+	c #2D2DA2",
"o+	c #2628BB",
"p+	c #1C1FD7",
"q+	c #1D20D6",
"r+	c #30318E",
"s+	c #2E2E9D",
"t+	c #33327D",
"u+	c #1519E4",
"v+	c #2829B7",
"w+	c #2C2CA6",
"x+	c #0007FC",
"y+	c #30308F",
"z+	c #34346A",
"A+	c #34355F",
"B+	c #2E2F9B",
"C+	c #1E20D5",
"D+	c #2123CC",
"E+	c #303092",
"F+	c #010BFF",
"G+	c #0A10E3",
"H+	c #1C1FE5",
"I+	c #060FF7",
"J+	c #0911F2",
"K+	c #353463",
"L+	c #181BDF",
"M+	c #191CDE",
"N+	c #0D14EF",
"O+	c #0009E5",
"P+	c #040300",
"Q+	c #10118C",
"R+	c #1C1EE1",
"S+	c #0E14F3",
"T+	c #2728BB",
"U+	c #2427C3",
"V+	c #1D20ED",
"W+	c #050EF8",
"X+	c #171BE1",
"Y+	c #010BFD",
"Z+	c #010AF2",
"`+	c #000155",
" @	c #161400",
".@	c #2B2700",
"+@	c #000072",
"@@	c #2927B4",
"#@	c #2222CB",
"$@	c #1B1EDC",
"%@	c #1C20D8",
"&@	c #0B12F5",
"*@	c #0005FC",
"=@	c #010BFB",
"-@	c #00007E",
";@	c #151200",
">@	c #565002",
",@	c #7C7304",
"'@	c #504900",
")@	c #000000",
"!@	c #2C2971",
"~@	c #060FF6",
"{@	c #1117EA",
"]@	c #2A2BB1",
"^@	c #0000A0",
"/@	c #100D00",
"(@	c #484301",
"_@	c #8D8306",
":@	c #8F8506",
"<@	c #7F7606",
"[@	c #5A5210",
"}@	c #302C83",
"|@	c #0009FC",
"1@	c #1A1DDD",
"2@	c #313185",
"3@	c #353556",
"4@	c #1116EB",
"5@	c #2527BF",
"6@	c #2527C3",
"7@	c #0006FE",
"8@	c #020CF9",
"9@	c #0000BC",
"0@	c #1B1900",
"a@	c #5A5302",
"b@	c #847C05",
"c@	c #A49807",
"d@	c #B7AA07",
"e@	c #5B5400",
"f@	c #383360",
"g@	c #0007FB",
"h@	c #0E15EE",
"i@	c #313089",
"j@	c #323376",
"k@	c #2F2F97",
"l@	c #313186",
"m@	c #2223CA",
"n@	c #010BFA",
"o@	c #0000D3",
"p@	c #151300",
"q@	c #554F00",
"r@	c #D8C807",
"s@	c #E5D509",
"t@	c #C8B907",
"u@	c #EDDC09",
"v@	c #D5C607",
"w@	c #625A00",
"x@	c #000075",
"y@	c #0000FB",
"z@	c #1A42DF",
"A@	c #312F8A",
"B@	c #313288",
"C@	c #0D13EF",
"D@	c #0C12F0",
"E@	c #2F2C93",
"F@	c #271AB4",
"G@	c #4D59AC",
"H@	c #2551ED",
"I@	c #0000E5",
"J@	c #040313",
"K@	c #3E3A00",
"L@	c #C4B606",
"M@	c #F7E50A",
"N@	c #F3E209",
"O@	c #EFDE09",
"P@	c #F1E00F",
"Q@	c #D1C216",
"R@	c #403CDA",
"S@	c #147FF0",
"T@	c #2388D3",
"U@	c #2E2F97",
"V@	c #171BE2",
"W@	c #1D79D6",
"X@	c #32B5D9",
"Y@	c #1EB0E6",
"Z@	c #2A288B",
"`@	c #7B7200",
" #	c #E0D008",
".#	c #F2E109",
"+#	c #F3E109",
"@#	c #EEDD09",
"##	c #A19500",
"$#	c #484300",
"%#	c #0000DA",
"&#	c #0A57F6",
"*#	c #023FFA",
"=#	c #210BC5",
"-#	c #32327B",
";#	c #2D2D9B",
">#	c #343470",
",#	c #1F21D2",
"'#	c #030DF8",
")#	c #0006FB",
"!#	c #0000FD",
"~#	c #0000F9",
"{#	c #1183F4",
"]#	c #25AFE2",
"^#	c #4159C5",
"/#	c #2A008D",
"(#	c #282500",
"_#	c #A09500",
":#	c #D6C710",
"<#	c #CEBF00",
"[#	c #E6D60C",
"}#	c #B3A604",
"|#	c #564F00",
"1#	c #000060",
"2#	c #010BF6",
"3#	c #0002FA",
"4#	c #1C20F3",
"5#	c #45458E",
"6#	c #323283",
"7#	c #323277",
"8#	c #2426C1",
"9#	c #161AF7",
"0#	c #0D14F6",
"a#	c #1015F4",
"b#	c #3030DA",
"c#	c #2A28B0",
"d#	c #1200E8",
"e#	c #0375FA",
"f#	c #20B0E5",
"g#	c #3C77CD",
"h#	c #2B009E",
"i#	c #8A803C",
"j#	c #968D00",
"k#	c #383400",
"l#	c #7F7769",
"m#	c #676100",
"n#	c #040729",
"o#	c #0000EA",
"p#	c #010BFE",
"q#	c #0006FD",
"r#	c #30307E",
"s#	c #2E2EA7",
"t#	c #1C20EE",
"u#	c #3535DB",
"v#	c #2A2CE6",
"w#	c #0003FB",
"x#	c #2425E8",
"y#	c #2628BD",
"z#	c #1A00DB",
"A#	c #005BFC",
"B#	c #1BAEE9",
"C#	c #388BD3",
"D#	c #3824B0",
"E#	c #0000F3",
"F#	c #4645C3",
"G#	c #2E31A1",
"H#	c #2C30E8",
"I#	c #2729CC",
"J#	c #1017DB",
"K#	c #0009FF",
"L#	c #000EF5",
"M#	c #333283",
"N#	c #303183",
"O#	c #2F3093",
"P#	c #34345D",
"Q#	c #303097",
"R#	c #1F22E9",
"S#	c #0810F8",
"T#	c #1E21D1",
"U#	c #191DDF",
"V#	c #2F3099",
"W#	c #333376",
"X#	c #2100CA",
"Y#	c #003CFC",
"Z#	c #15A8EE",
"`#	c #395CCF",
" $	c #0912F7",
".$	c #1903F4",
"+$	c #0104F9",
"@$	c #0000FA",
"#$	c #0938FA",
"$$	c #4036B9",
"%$	c #333184",
"&$	c #333377",
"*$	c #313188",
"=$	c #0003FD",
"-$	c #0F15F4",
";$	c #2124EC",
">$	c #2022CF",
",$	c #36355F",
"'$	c #34346B",
")$	c #2910B3",
"!$	c #000CFA",
"~$	c #3722BA",
"{$	c #2B2BA4",
"]$	c #060FF5",
"^$	c #0704FB",
"/$	c #3A5CD0",
"($	c #1389F4",
"_$	c #0222F9",
":$	c #16B1EF",
"<$	c #3170AA",
"[$	c #30307C",
"}$	c #33346D",
"|$	c #32327C",
"1$	c #2527D5",
"2$	c #1117F6",
"3$	c #0006FC",
"4$	c #2F30A6",
"5$	c #2729E0",
"6$	c #1418E3",
"7$	c #333379",
"8$	c #363635",
"9$	c #35354D",
"0$	c #353558",
"a$	c #2226C6",
"b$	c #313184",
"c$	c #2F2F94",
"d$	c #191CE0",
"e$	c #1719E0",
"f$	c #2F3D9A",
"g$	c #25ABD1",
"h$	c #137EF7",
"i$	c #191EDD",
"j$	c #1354F9",
"k$	c #2A8EC0",
"l$	c #330575",
"m$	c #313287",
"n$	c #292AC7",
"o$	c #292AB2",
"p$	c #343468",
"q$	c #321F7D",
"r$	c #322B7E",
"s$	c #2926C6",
"t$	c #2F2A98",
"u$	c #2D12AF",
"v$	c #33317A",
"w$	c #323081",
"x$	c #353466",
"y$	c #2A2BB9",
"z$	c #1A1EF2",
"A$	c #2527C0",
"B$	c #292BB1",
"C$	c #31328A",
"D$	c #2D2DA0",
"E$	c #31318D",
"F$	c #333470",
"G$	c #313284",
"H$	c #32327A",
"I$	c #000AFC",
"J$	c #1F21D1",
"K$	c #161AE4",
"L$	c #30318F",
"M$	c #333372",
"N$	c #353564",
"O$	c #2B2CA8",
"P$	c #1317E8",
"Q$	c #171AE2",
"R$	c #0A11F2",
"S$	c #353544",
"T$	c #2E2E9E",
"U$	c #33337A",
"V$	c #2929B4",
"W$	c #343474",
"X$	c #303093",
"Y$	c #323285",
"Z$	c #1E20D4",
"`$	c #2325C7",
" %	c #343376",
".%	c #2F318A",
"+%	c #31318C",
"@%	c #2426C2",
"#%	c #3F30BE",
"$%	c #313282",
"%%	c #29328C",
"&%	c #303190",
"*%	c #303090",
"=%	c #262AB1",
"-%	c #3222E7",
";%	c #804F4A",
">%	c #7A293A",
",%	c #3D307C",
"'%	c #24338A",
")%	c #42377E",
"!%	c #7E3120",
"~%	c #8D0000",
"{%	c #821222",
"]%	c #4B2E73",
"^%	c #26308D",
"/%	c #39317E",
"(%	c #771B43",
"_%	c #8F0000",
":%	c #5F18A3",
"                                                                                                            ",
"                                                                                                            ",
"                                                                                                            ",
"                                                                                                            ",
"                                                                                                            ",
"                                                                                                            ",
"                                                                                    . +                     ",
"                                                                                  @ # $                     ",
"                        %                                                         + & *                     ",
"                  % = = - ;                                                     > , ' )                     ",
"                % !                                                           ~ { ] ^ /                     ",
"                ; =         % % ( _ :                                       < [ } | 1 2 3                   ",
"                            % %                                           4 5 6 7 8 9 0 a b                 ",
"                % c       % %           d e f _                         g h i j ^ k l m n o p               ",
"                        % %           q -                               r s t u v w x y ^ z A B C           ",
"                      % %           q c                               > D E F G H I ~ J | K L M N O         ",
"                      %           q ; P         Q R                 ~ S ] T U V W X Y Z `  ...+.@.#.$.      ",
"                      %.        &.= *.        =.0 + -.  ;.  >.,.  N [ '.| ).!.~.{.].  C ^./.(..._.:.<.[.    ",
"                      c %     &.%.%     }.|.1.2.3.4.5.6.7.8.1 9.0.a.b.c.d.e.f.g.Q h.      i.# j.k.l.m.n.o.  ",
"                              d %       p.q.r.s.t.u.v.w.x.y.^ z.A.B.C.D.E.).F.G.H.          I.J.K.L.M.N.O.  ",
"                            q -       P.Q.R.S.T.U.V.W.X.T ..Y.Z.`.8  +.+++U  .& @+#+          $+%+&+*+=+-+  ",
"                            ;+          >+,+'+)+!+~+f.| ~+{+l ]+^+/+(+u 8 f.W._+:+              <+[+}+|+1+  ",
"                              (       2+3+4+5+6+B.7+| g.8+/.9+W.0+a+r b+ .c+d+e+f+                          ",
"                            % g+    h+i+j+k+l+m+~+| f.0+n+o+W.| f.F.p+0+F.q+5.& l r+                        ",
"                                    s+f+# t+u+F.| | F.v+w+x+f.| | | | g.| ^ L y+z+A+                        ",
"                                      B+I C+1 | | 1 D+E+G 7+| | | | F+G+H+I+^ J+n+K+                        ",
"                                        L+W.c.| W.M+0 N+~+| | | | F+O+P+Q+R+S+^ 7+T+                        ",
"                                        U+V+W+~+{+l X+F.| | | | Y+Z+`+ @.@+@@@#@^ $@                        ",
"                                        %@&@*@8+/.9 1 | | | | =@=@-@;@>@,@'@)@!@~@r                         ",
"                                        {@^ 0+Q ]@1 | | | | | F+^@/@(@_@:@<@[@}@|@1@2@3@                    ",
"                                        /.4@5@0.6@7@| 8@| | F+9@0@a@b@c@d@:@e@f@g@8 h@i@j@                  ",
"                                          I k@' l@m@..n@C.F+o@p@q@r@s@t@u@v@w@x@f.y@z@A@B@                  ",
"                                          w C@K D@E@F@G@H@I@J@K@L@M@N@O@N@P@Q@R@..S@T@X U@                  ",
"                                        Z.V@F.| ~+| W@X@Y@Z@)@`@ #.#+#@#.#.###$#%#&#*#=#-#;#                ",
"                                      >#,#..'#8@)#!#~#{#]#^#/#(#_#:# #<#[#}#|#1#2#y@3#4#5#6#7#              ",
"                                    < 8#9#0#a#b#y.'#c#d#e#f#g#h#)@i#j#k#l#m#n#o#p#| ).q#W r#                ",
"                                  4 s#t#u#v#w#x#I+..y#> z#A#B#C#D#E#F#G#H#I#J#K#| | (+L#M#N#O#              ",
"                                P#Q#R#S#!.w#| ^ T#U#V## W#X#Y#Z#`# $..X.!#.$!#+$| | @$#$$$%$&$              ",
"                                *$s t =$-$;$K >$,$+ 0 #+> '$)$!$~${$]$7@^$/$($@$@$y@_$:$<$[$}$              ",
"                              |$1$2$3$B.4$5$6$7$8$9$0$C I.  #+a$  b$c$d$e$f$g$h$v i$j$k$l$l m$              ",
"                            ~ n$] T ~+o$p$*$0                       k@l o q$r$s$t$z+u$v$w$5.Y               ",
"                          x$y$z$| 1 A$0.7$5.                          B$C$  D$0 ~ E$i+F$].G$                ",
"                        H$A.7@I$8 J$y+K$/.& L$                                                              ",
"                      M$# N$O$f.P$> Q$..R$D$&$r+                                                            ",
"                      7#L$S$g   T$U$w ' ..| V$W$o                                                           ",
"                                  X$Y$4.Z$^ 7@`$ %.%                                                        ",
"                                      +%W#@%~+..#%$%%%&%                                                    ",
"                                        *%u.=%-%;%>%,%'%&%                                                  ",
"                                          E+7$)%!%~%{%]%                                                    ",
"                                            X$^%/%(%_%:%                                                    "};
