/* XPM */
static char * nave2_0_xpm[] = {
"54 50 121 2",
"  	c None",
". 	c #313288",
"+ 	c #323281",
"@ 	c #30318C",
"# 	c #313285",
"$ 	c #2F3093",
"% 	c #2E2F99",
"& 	c #363636",
"* 	c #4142BB",
"= 	c #1FB0E6",
"- 	c #1E21EB",
"; 	c #31318A",
"> 	c #2C2DA2",
", 	c #010BF9",
"' 	c #4A4AA6",
") 	c #313188",
"! 	c #313287",
"~ 	c #323284",
"{ 	c #313284",
"] 	c #0B11F1",
"^ 	c #221CDB",
"/ 	c #2F25BB",
"( 	c #2E2F9E",
"_ 	c #226ED3",
": 	c #3D3ECE",
"< 	c #2426C9",
"[ 	c #2921CB",
"} 	c #2921CC",
"| 	c #2A29B5",
"1 	c #8A0303",
"2 	c #801515",
"3 	c #171414",
"4 	c #000000",
"5 	c #383838",
"6 	c #30318E",
"7 	c #860C0C",
"8 	c #850D0D",
"9 	c #303091",
"0 	c #7C7311",
"a 	c #847A03",
"b 	c #7D752F",
"c 	c #292525",
"d 	c #DFCF08",
"e 	c #F0DF09",
"f 	c #D5C607",
"g 	c #4B4B4B",
"h 	c #2A2AB5",
"i 	c #7F4F4F",
"j 	c #764B4B",
"k 	c #2D2EA1",
"l 	c #181BE4",
"m 	c #1317EA",
"n 	c #322D80",
"o 	c #58511A",
"p 	c #655D03",
"q 	c #E2D208",
"r 	c #AA9E04",
"s 	c #8C8436",
"t 	c #7C4D4D",
"u 	c #7B4C4C",
"v 	c #353131",
"w 	c #776E04",
"x 	c #908606",
"y 	c #E6D509",
"z 	c #BAAD05",
"A 	c #2F3095",
"B 	c #343562",
"C 	c #2A28B5",
"D 	c #B4A707",
"E 	c #BCAE07",
"F 	c #343463",
"G 	c #323283",
"H 	c #1D1FDB",
"I 	c #968C06",
"J 	c #F1E009",
"K 	c #343465",
"L 	c #35355D",
"M 	c #323282",
"N 	c #2F2B01",
"O 	c #3A3501",
"P 	c #3D3801",
"Q 	c #665F02",
"R 	c #4D4701",
"S 	c #060606",
"T 	c #050404",
"U 	c #30318D",
"V 	c #2E2E9E",
"W 	c #2225EC",
"X 	c #577488",
"Y 	c #4D4EA8",
"Z 	c #3A39CC",
"` 	c #3839CC",
" .	c #3334DD",
"..	c #504EA8",
"+.	c #1F21EB",
"@.	c #4847BC",
"#.	c #353535",
"$.	c #2E2F9B",
"%.	c #1D20DB",
"&.	c #35355E",
"*.	c #2B2CA9",
"=.	c #1318EA",
"-.	c #52528F",
";.	c #171BE3",
">.	c #3738CF",
",.	c #306188",
"'.	c #2F6691",
").	c #315E82",
"!.	c #1994DB",
"~.	c #119EEA",
"{.	c #1F8ED0",
"].	c #2D2EA0",
"^.	c #2A75A8",
"/.	c #2978AD",
"(.	c #2B72A4",
"_.	c #1099E2",
":.	c #1095DC",
"<.	c #1099E3",
"[.	c #119AE4",
"}.	c #119BE6",
"|.	c #119CE7",
"                                                  . + + @                                                   ",
"                                                  # + + .                                                   ",
"                                              $ + + + + + + %                                               ",
"                                            & . + * = = - + ; &                                             ",
"                                          > + + + , , , , + + +                                             ",
"                                          > + ' , , , , , , - +                                             ",
"                                          > + , , , , , , , = +                                             ",
"              ) &                       ! ~ + , , , , , , , = + { !                       ; @               ",
"            ] ^ /                       + ( _ = , , , , , , : , < +                       [ }               ",
"          & | 1 2 + &                   + , , , , 3 4 4 5 , , , , +                   6 + 7 8 + 9           ",
"          & | 1 2 + &                   + , , , , 0 a a b : , , , +                   6 + 7 8 + 9           ",
"          & | 1 2 + &                   + , , c 4 d e e f 4 g , , +                   6 + 7 8 + 9           ",
"          & h i j + &               k l , m n o p q e e q r s , - * , k               6 + t u + 9           ",
"          & ( , , + &               + , , v 4 w x y e e e e z 4 * = , +               6 + , , + 9           ",
"          & ( , , + &           A B + , , C 4 w x D E e e e z 4 * = , + F &           6 + , , + 9           ",
"          & ( , , + &           G + + , , H 4 w x x I J e e z 4 * = , + + &           6 + , , + 9           ",
"          & ( , , + &       K L M + + , , H 4 N O O P Q Q Q R 4 * = , + + M L &       6 + , , + 9           ",
"          & ( , , + &       @ + ( ( + , , H S S S T T T T T T T * = , + ( ( + &       U + , , + 9           ",
"          & ( , , + + + + + + + , , + , , , , , , , , , , , , , = = , V , , + + + + + + + , , + 9           ",
"          & ( , W + + + , , , , , , , , , , , , , , , , , , , , X = , , , , , , , , + + + , , + 9           ",
"          & + + + + + + Y , , , , , , , + , , , , , , , , , , , , + , , , Z , , , ` + + + + + + 9           ",
"          , , , , , , , , , , ,  ..., , + , , , , , , , , , , , , + , , , +., , , , , , , , , , ,           ",
"      & + , , , , , , , , , , , , , , , + , , , , , , , , , , , , + , , , , , @., , , , , , , , , + #.      ",
"    $.L + , - - - - - - - - - - - , , , + m , , , , , , , , , , %.+ , , , , , , - - - - - - - - , + &.$.    ",
"    + + + + + + + + + + + + + + + + + + + + + + + + + + + + + + + + + + + + + + + + + + + + + + + + + +     ",
"                                    + , , , , , , , , , , , , , , , , +                                     ",
"                                    + , , , , , , , , , , , , , , , , +                                     ",
"                                      *.=.-., , , , , , , , , , - =.;.                                      ",
"                                        ! >., , , , , , , , , , , !                                         ",
"                                          > + + + + + + + + + +                                             ",
"                                          > + + + ,.'.'.).+ + +                                             ",
"                                          > + + + !.~.~.{.+ + +                                             ",
"                                            ].].].^././.(.].].].                                            ",
"                                                  5 5 5 5                                                   ",
"                                        _.                        _.                                        ",
"                                        ~.:.                    <.~.                                        ",
"                                            ~.~.~.~.~.~.~.~.~.~.                                            ",
"                                            [.[.[.[.[.[.[.[.[.[.                                            ",
"                                                                                                            ",
"                                                                                                            ",
"                                            ~.                ~.                                            ",
"                                            }.                }.                                            ",
"                                              ~.~.~.~.~.~.~.~.                                              ",
"                                                                                                            ",
"                                                                                                            ",
"                                              |.|.        |.                                                ",
"                                              ~.~.        ~.~.                                              ",
"                                                  }.}.}.}.                                                  ",
"                                                  ~.~.~.~.                                                  ",
"                                                                                                            "};
