/* XPM */
static char * nave1_11_xpm[] = {
"54 50 410 2",
"  	c None",
". 	c #383838",
"+ 	c #363636",
"@ 	c #393939",
"# 	c #343434",
"$ 	c #464646",
"% 	c #4C4C4C",
"& 	c #484848",
"* 	c #3A3A3A",
"= 	c #4E4E4E",
"- 	c #666666",
"; 	c #5F5F5F",
"> 	c #434343",
", 	c #333333",
"' 	c #2F2F2F",
") 	c #353535",
"! 	c #454545",
"~ 	c #6F6F6F",
"{ 	c #505050",
"] 	c #373737",
"^ 	c #313131",
"/ 	c #4A4A4A",
"( 	c #3D3D3D",
"_ 	c #565656",
": 	c #6B6B6B",
"< 	c #5C5C5C",
"[ 	c #353838",
"} 	c #2E2E2E",
"| 	c #333131",
"1 	c #3F3F3F",
"2 	c #4D4D4D",
"3 	c #5D5D5D",
"4 	c #6E6E6E",
"5 	c #696969",
"6 	c #323939",
"7 	c #273939",
"8 	c #3C3939",
"9 	c #3C3F3F",
"0 	c #575A5A",
"a 	c #676666",
"b 	c #717171",
"c 	c #707070",
"d 	c #444444",
"e 	c #3E3E3E",
"f 	c #5E5E5E",
"g 	c #585858",
"h 	c #2F3939",
"i 	c #3A3737",
"j 	c #5A2C2C",
"k 	c #6A3A3A",
"l 	c #715B5B",
"m 	c #737272",
"n 	c #686868",
"o 	c #555555",
"p 	c #4F4F4F",
"q 	c #636363",
"r 	c #323232",
"s 	c #543030",
"t 	c #781D1D",
"u 	c #870000",
"v 	c #892626",
"w 	c #775151",
"x 	c #635F5F",
"y 	c #515353",
"z 	c #3F3E3E",
"A 	c #303030",
"B 	c #363838",
"C 	c #5D2D2D",
"D 	c #801515",
"E 	c #7F1717",
"F 	c #6F2323",
"G 	c #463C3C",
"H 	c #3B3A3A",
"I 	c #575757",
"J 	c #3D3E3E",
"K 	c #303939",
"L 	c #3A3636",
"M 	c #4E3232",
"N 	c #4C3333",
"O 	c #263939",
"P 	c #353737",
"Q 	c #656565",
"R 	c #727171",
"S 	c #6A6868",
"T 	c #555353",
"U 	c #119EEA",
"V 	c #119BE7",
"W 	c #119CE7",
"X 	c #119EE9",
"Y 	c #119DE8",
"Z 	c #3C3C3C",
"` 	c #5B5B5B",
" .	c #747474",
"..	c #666363",
"+.	c #555252",
"@.	c #454343",
"#.	c #109AE4",
"$.	c #1099E3",
"%.	c #119AE4",
"&.	c #119BE6",
"*.	c #119DE9",
"=.	c #383737",
"-.	c #605F5F",
";.	c #5F5C5C",
">.	c #575353",
",.	c #4C4A4A",
"'.	c #3E3C3C",
").	c #353434",
"!.	c #119BE4",
"~.	c #119CE8",
"{.	c #373838",
"].	c #423F3F",
"^.	c #514D4D",
"/.	c #585454",
"(.	c #524F4F",
"_.	c #444242",
":.	c #404040",
"<.	c #119BE5",
"[.	c #504D4D",
"}.	c #555151",
"|.	c #545151",
"1.	c #484545",
"2.	c #373636",
"3.	c #3D3D3E",
"4.	c #363737",
"5.	c #383938",
"6.	c #109FEB",
"7.	c #3B3B3B",
"8.	c #414040",
"9.	c #4F4C4C",
"0.	c #4E4B4B",
"a.	c #484646",
"b.	c #424040",
"c.	c #6C6C6C",
"d.	c #676767",
"e.	c #3A2C11",
"f.	c #38393E",
"g.	c #393A3A",
"h.	c #3B3939",
"i.	c #393838",
"j.	c #403F3F",
"k.	c #606060",
"l.	c #727272",
"m.	c #737373",
"n.	c #545453",
"o.	c #2F2E2E",
"p.	c #36393F",
"q.	c #2E6A98",
"r.	c #315F86",
"s.	c #383A43",
"t.	c #109EEA",
"u.	c #119CE6",
"v.	c #595959",
"w.	c #6C6B6B",
"x.	c #423E3E",
"y.	c #4A4444",
"z.	c #454040",
"A.	c #363333",
"B.	c #656463",
"C.	c #404144",
"D.	c #2D5B80",
"E.	c #1E90D3",
"F.	c #2386C4",
"G.	c #344E65",
"H.	c #392F1F",
"I.	c #109CE8",
"J.	c #626262",
"K.	c #6A6A6A",
"L.	c #616060",
"M.	c #5E5A5A",
"N.	c #4F4949",
"O.	c #4A4343",
"P.	c #4E4747",
"Q.	c #3E3A3A",
"R.	c #6E6D6D",
"S.	c #4D4B48",
"T.	c #305372",
"U.	c #1F8CCE",
"V.	c #1C92D6",
"W.	c #316187",
"X.	c #393022",
"Y.	c #666665",
"Z.	c #5E5F63",
"`.	c #515154",
" +	c #33363F",
".+	c #2A282A",
"++	c #4A4243",
"@+	c #4D4646",
"#+	c #453F3F",
"$+	c #565757",
"%+	c #5F5C59",
"&+	c #35404D",
"*+	c #2875AB",
"=+	c #2C71A2",
"-+	c #36495C",
";+	c #4E4E4F",
">+	c #535456",
",+	c #383A48",
"'+	c #1C1E31",
")+	c #544D17",
"!+	c #474205",
"~+	c #130E0A",
"{+	c #3E373B",
"]+	c #504949",
"^+	c #3B3838",
"/+	c #4B4B4B",
"(+	c #6B6A69",
"_+	c #464748",
":+	c #2A4F6E",
"<+	c #2E6A97",
"[+	c #316189",
"}+	c #119AE5",
"|+	c #494949",
"1+	c #606063",
"2+	c #5A5A58",
"3+	c #686330",
"4+	c #887E00",
"5+	c #BBAE05",
"6+	c #A79B03",
"7+	c #3A3600",
"8+	c #26222B",
"9+	c #4C4646",
"0+	c #413C3C",
"a+	c #373535",
"b+	c #595A5A",
"c+	c #707171",
"d+	c #585654",
"e+	c #383734",
"f+	c #383432",
"g+	c #392F21",
"h+	c #727271",
"i+	c #67686B",
"j+	c #605E4C",
"k+	c #A59A22",
"l+	c #D9CA00",
"m+	c #EFDF09",
"n+	c #DECE07",
"o+	c #6D6400",
"p+	c #000017",
"q+	c #433D3F",
"r+	c #484242",
"s+	c #646464",
"t+	c #3C3B3A",
"u+	c #383939",
"v+	c #1099E2",
"w+	c #737374",
"x+	c #5B5C62",
"y+	c #3D3B2F",
"z+	c #BCAE0F",
"A+	c #EAD906",
"B+	c #F8E608",
"C+	c #F2E109",
"D+	c #A49903",
"E+	c #282505",
"F+	c #332D33",
"G+	c #4B4646",
"H+	c #3E3B3B",
"I+	c #757575",
"J+	c #525252",
"K+	c #119AE2",
"L+	c #6A6A6E",
"M+	c #646358",
"N+	c #9D922C",
"O+	c #D9C900",
"P+	c #EFDF0A",
"Q+	c #ECDC09",
"R+	c #B2A606",
"S+	c #343000",
"T+	c #231F26",
"U+	c #4D4647",
"V+	c #524B4B",
"W+	c #393737",
"X+	c #545454",
"Y+	c #747473",
"Z+	c #5E5F61",
"`+	c #4F4C36",
" @	c #AB9E12",
".@	c #EEDD00",
"+@	c #F7E50A",
"@@	c #ECDA09",
"#@	c #C3B408",
"$@	c #918706",
"%@	c #464100",
"&@	c #020204",
"*@	c #3F3B3C",
"=@	c #575252",
"-@	c #4F4A4A",
";@	c #4D4545",
">@	c #666767",
",@	c #5E5F62",
"'@	c #1A1919",
")@	c #837800",
"!@	c #E1D006",
"~@	c #F5E408",
"{@	c #EAD909",
"]@	c #C9BA08",
"^@	c #9E9307",
"/@	c #6D6503",
"(@	c #191602",
"_@	c #312F33",
":@	c #534F4F",
"<@	c #4E4646",
"[@	c #494444",
"}@	c #3F3B3B",
"|@	c #6C6C6D",
"1@	c #3D3E43",
"2@	c #595100",
"3@	c #BAAD07",
"4@	c #D3C407",
"5@	c #AFA203",
"6@	c #A49906",
"7@	c #897F05",
"8@	c #7A7003",
"9@	c #363200",
"0@	c #1C1A19",
"a@	c #504C4C",
"b@	c #4C4747",
"c@	c #443F3F",
"d@	c #3D3B3B",
"e@	c #3A3838",
"f@	c #333434",
"g@	c #515151",
"h@	c #5F5F61",
"i@	c #3B3735",
"j@	c #585125",
"k@	c #564F13",
"l@	c #564F0C",
"m@	c #6F6706",
"n@	c #625B00",
"o@	c #504902",
"p@	c #110F0C",
"q@	c #14131A",
"r@	c #474444",
"s@	c #565252",
"t@	c #494646",
"u@	c #464444",
"v@	c #403E3E",
"w@	c #474747",
"x@	c #6D6D6D",
"y@	c #504C51",
"z@	c #443E40",
"A@	c #2F2C34",
"B@	c #443E2C",
"C@	c #39331A",
"D@	c #201D0F",
"E@	c #242224",
"F@	c #373538",
"G@	c #423F40",
"H@	c #565151",
"I@	c #4C4848",
"J@	c #4B4848",
"K@	c #4F4B4B",
"L@	c #545050",
"M@	c #4C4949",
"N@	c #535353",
"O@	c #565251",
"P@	c #4D4445",
"Q@	c #4A4345",
"R@	c #423D40",
"S@	c #3B3738",
"T@	c #322E34",
"U@	c #484443",
"V@	c #514E4D",
"W@	c #4A4747",
"X@	c #626060",
"Y@	c #505151",
"Z@	c #414141",
"`@	c #464040",
" #	c #464242",
".#	c #413E3E",
"+#	c #403D3D",
"@#	c #464141",
"##	c #4D4848",
"$#	c #413F3F",
"%#	c #625F5F",
"&#	c #3C3A3A",
"*#	c #403C3C",
"=#	c #595656",
"-#	c #646363",
";#	c #5B5A5A",
">#	c #767676",
",#	c #5A5A5A",
"'#	c #303232",
")#	c #333636",
"!#	c #283838",
"~#	c #383535",
"{#	c #454949",
"]#	c #3F3535",
"^#	c #553333",
"/#	c #644C4C",
"(#	c #6B6A6A",
"_#	c #424242",
":#	c #612C2C",
"<#	c #791C1C",
"[#	c #851919",
"}#	c #834747",
"|#	c #736565",
"1#	c #5F6161",
"2#	c #493232",
"3#	c #791D1D",
"4#	c #8C0101",
"5#	c #7E1313",
"6#	c #682E2E",
"7#	c #4A4646",
"8#	c #573030",
"9#	c #5B2E2E",
"0#	c #423434",
"a#	c #333838",
"b#	c #2D3535",
"c#	c #2E3232",
"                                                                                                            ",
"                                                                                                            ",
"                                . .                                                                         ",
"                                + .                                                                         ",
"                                + @ #                                                                       ",
"                              $ % & *                                                                       ",
"                              = - ; > ,                                                                     ",
"                        ' ) + ! - ~ { ]                                                                     ",
"                    # , ^ / & ( _ : < ( '                                                                   ",
"              [ } | 1 2 3 4 : $ & 5 - & )                                                                   ",
"          6 7 8 9 0 a b c ~ 3 d e f c g *                                                                   ",
"        h i j k l m b n o & ] , + p : q > r                                                                 ",
"        s t u v w x y z A ) r ] @ 2 5 : p ]                                                                 ",
"      B C D E F G H , ^       ] d 3 c c I J #                                                               ",
"      K L M N 6 O P           ] d Q R S T z +                                 U V       W X Y               ",
"            6                   Z `  ...+.@.@                     #.$.  %.    Y &.Y U         &.*.          ",
"                              # =.% -.;.>.,.'.).+ @                     Y !.      U U         &.~.          ",
"                            ] {.].^././.>.(._.=.:.% { ,                 Y <.        U U         W           ",
"                            ] ] @.+.[.}.>.|.1.2.= n ; % { 3.4.5.        6.&.        U U         V           ",
"                          ] ] + ] 7.8.9.0.a.b.+ / c.4 - d.! 4.e.f.        ~.%.        U U     *.            ",
"                          ) + ] g.d p _ e h.H i.j.k.l.m.b n.o.p.q.r.s.    t.u.        U U     Y             ",
"                          @ e / v.n w.5 a.x.y.z.A.p c.m.m.B.C.D.E.F.G.H.    u.%.        I.                  ",
"                        :.p J.K.c - L.M.N.O.P.y.Q.z q b m.R.S.T.U.V.W.X.    *.<.      $.                    ",
"                        p Y.c.Z.`. +.+++@+@+@+@+#+h.$+~  .R %+&+*+V.=+-+    U W     *.*.                    ",
"                  ] ] 7.;+>+,+'+)+!+~+{+]+@+@+P.y.^+/+K.m. .(+_+:+<+[+        ~.}+                          ",
"                + @ |+3 1+2+3+4+5+6+7+8+9+P.@+@+9+0+a+b+c m.c+d+e+f+g+        %.                            ",
"                # . < h+i+j+k+l+m+n+o+p+q+P.@+@+P.r+i = : m.l.s+t+, u+.     v+                              ",
"              ) ] > ; w+x+y+z+A+B+C+D+E+F+P.@+@+@+G+H+8.q l.I+4 J+# ]       K+W                             ",
"          ] + ! o f c.L+M+N+O+P+C+Q+R+S+T+U+V+P.@+P.z.W+o ~ l.: X+                                          ",
"          + @ { K.b Y+Z+`+ @.@+@@@#@$@%@&@*@=@-@;@P.y.L > >@4 X+1                                           ",
"          ] + o c m.m.,@'@)@!@~@{@]@^@/@(@_@}.:@<@;@[@}@Z f c v.+                                           ",
"        ] . 2 n b l.m.|@1@2@3@4@5@6@7@8@9@0@a@>.b@c@d@e@f@$ I !                                             ",
"        ] @ g@:  .l.l. .h@i@j@k@l@m@n@o@p@q@r@s@t@* ( u@v@] * .                                             ",
"      . . + w@Q b m.m.m.x@y@z@A@B@C@D@E@F@G@a@H@I@J@K@L@M@1 ,                                               ",
"        . ) . N@< s+~ ~ d.O@P@Q@R@S@T@U@L@V@0._.v@W@}.X@- Y@.                                               ",
"        . ] ] Z * Z@3 o |+v@`@ #.#+#@###J@b.d@. $#a@/.%#R.< e A                                             ",
"              + + * 1 ] ) # &#H 4.h.*#Z H =.] 7.0.}.=#-#m.d./ )                                             ",
"                  + #     ] ] +       ] ] ] . ] a.u@;#b >#~ I Z                                             ",
"                                          . . + + 4.& c. . .s+d ,                                           ",
"                                              . ] ) :.3 c.c.: g@]                                           ",
"                                                    ] $ { ` c.f :.^                                         ",
"                                                    ] ] . d n : 2 ]                                         ",
"                                                    ] # # 7.,#4 ,#7.                                        ",
"                                                  ' r @ > * % K.Q $ ,                                       ",
"                                            '#r r ( { 3 d.,#1 J.4 J+*                                       ",
"                                        )#!#~#{#N@Q c m.K.N@e J+n ,#( +                                     ",
"                                      4.]#^#/#(#c+c n v.e * ^ _#J+d + ]                                     ",
"                                      :#<#[#}#|#1#2 :.} A )       A + .                                     ",
"                                    2#3#4#5#6#7#A ) ^                 .                                     ",
"                                    K 8#9#0#a#b#c#                                                          "};
