/* XPM */
static char * nave2_9_xpm[] = {
"54 50 510 2",
"  	c None",
". 	c #119CE7",
"+ 	c #119DE9",
"@ 	c #119EEA",
"# 	c #119BE6",
"$ 	c #119BE5",
"% 	c #119AE4",
"& 	c #119DE8",
"* 	c #119CE6",
"= 	c #39332A",
"- 	c #392C0C",
"; 	c #323282",
"> 	c #312E89",
", 	c #2E4099",
"' 	c #2979AC",
") 	c #2C71A2",
"! 	c #306188",
"~ 	c #345069",
"{ 	c #32327F",
"] 	c #332B7D",
"^ 	c #2E5A9A",
"/ 	c #1A96DC",
"( 	c #1995DB",
"_ 	c #2679B9",
": 	c #323283",
"< 	c #323280",
"[ 	c #30318D",
"} 	c #343473",
"| 	c #343273",
"1 	c #334874",
"2 	c #306289",
"3 	c #2B75A7",
"4 	c #2485BF",
"5 	c #2B68A9",
"6 	c #332178",
"7 	c #34346B",
"8 	c #2A2BAE",
"9 	c #2E2EA0",
"0 	c #33336D",
"a 	c #2527C2",
"b 	c #0710F9",
"c 	c #000AFA",
"d 	c #1217E8",
"e 	c #2123CB",
"f 	c #2C27A6",
"g 	c #323183",
"h 	c #343E73",
"i 	c #34496F",
"j 	c #333A7B",
"k 	c #323081",
"l 	c #34346E",
"m 	c #0A12F1",
"n 	c #1419F6",
"o 	c #1F22E8",
"p 	c #2527D5",
"q 	c #2B2CB9",
"r 	c #2F3099",
"s 	c #32327D",
"t 	c #34336B",
"u 	c #292AB2",
"v 	c #0008FB",
"w 	c #0C13F4",
"x 	c #191DEF",
"y 	c #0008FA",
"z 	c #0009FB",
"A 	c #0005FE",
"B 	c #0005FF",
"C 	c #020CF8",
"D 	c #1514E6",
"E 	c #231EC7",
"F 	c #2D2DA1",
"G 	c #343471",
"H 	c #0006FE",
"I 	c #0007FB",
"J 	c #020CF9",
"K 	c #0A12F7",
"L 	c #1318F6",
"M 	c #191DF2",
"N 	c #2628D3",
"O 	c #2C2DB4",
"P 	c #2E2E9A",
"Q 	c #33337A",
"R 	c #353466",
"S 	c #343465",
"T 	c #1C1FD8",
"U 	c #0000FF",
"V 	c #0004FF",
"W 	c #010BF9",
"X 	c #0008FC",
"Y 	c #010BF8",
"Z 	c #1C1FE1",
"` 	c #191CDE",
" .	c #0C12F0",
"..	c #0006FC",
"+.	c #0003FF",
"@.	c #0004FE",
"#.	c #030DF8",
"$.	c #0B12F8",
"%.	c #1519F5",
"&.	c #1318F7",
"*.	c #070FF4",
"=.	c #1A1DDC",
"-.	c #2728BA",
";.	c #2F2F97",
">.	c #292AB0",
",.	c #1F21D1",
"'.	c #0E14ED",
").	c #0006FD",
"!.	c #0000FE",
"~.	c #3638D6",
"{.	c #3E3FB0",
"].	c #313187",
"^.	c #1B1EDA",
"/.	c #0911F2",
"(.	c #0005FC",
"_.	c #0000FC",
":.	c #1F21EF",
"<.	c #4140C9",
"[.	c #0000FD",
"}.	c #0004FD",
"|.	c #1015EC",
"1.	c #333378",
"2.	c #2E2F9D",
"3.	c #313189",
"4.	c #2B2BAB",
"5.	c #1E21D3",
"6.	c #0C13F0",
"7.	c #0007FD",
"8.	c #000AF9",
"9.	c #2B2DE2",
"0.	c #2629E5",
"a.	c #343375",
"b.	c #1116EA",
"c.	c #050EF6",
"d.	c #2F2F94",
"e.	c #343470",
"f.	c #333271",
"g.	c #3637B9",
"h.	c #1C20EF",
"i.	c #0004FB",
"j.	c #1116F4",
"k.	c #0E14F5",
"l.	c #1C1FD7",
"m.	c #2D2EA0",
"n.	c #0911F5",
"o.	c #1F21D2",
"p.	c #2B2CAA",
"q.	c #313186",
"r.	c #31318A",
"s.	c #2A2AAF",
"t.	c #1D1FD7",
"u.	c #2F3092",
"v.	c #1519F0",
"w.	c #010BFD",
"x.	c #0003FC",
"y.	c #3534D4",
"z.	c #191CF0",
"A.	c #0009FA",
"B.	c #2022CF",
"C.	c #0F15ED",
"D.	c #2022CE",
"E.	c #2C2CA5",
"F.	c #323284",
"G.	c #30308D",
"H.	c #2829B7",
"I.	c #191CDF",
"J.	c #333376",
"K.	c #0002FF",
"L.	c #1318E8",
"M.	c #343374",
"N.	c #323281",
"O.	c #2D2DA0",
"P.	c #2526C1",
"Q.	c #161AE3",
"R.	c #030DF7",
"S.	c #1619F2",
"T.	c #321080",
"U.	c #0000F2",
"V.	c #1418E7",
"W.	c #2E2E9D",
"X.	c #323285",
"Y.	c #333377",
"Z.	c #2224CA",
"`.	c #353564",
" +	c #040DF7",
".+	c #1008EB",
"++	c #033DF8",
"@+	c #2AA1D2",
"#+	c #4148C7",
"$+	c #0009F9",
"%+	c #2D2E9E",
"&+	c #181CE0",
"*+	c #1016EA",
"=+	c #2728C4",
"-+	c #2F2FA0",
";+	c #333371",
">+	c #333375",
",+	c #1016EB",
"'+	c #2C2DA5",
")+	c #313284",
"!+	c #343464",
"~+	c #303094",
"{+	c #2628C0",
"]+	c #2600BE",
"^+	c #0B6EF7",
"/+	c #28B8DF",
"(+	c #3D83CC",
"_+	c #0710FA",
":+	c #181CF3",
"<+	c #1E21EB",
"[+	c #2526D8",
"}+	c #2B2CBC",
"|+	c #2F2F9D",
"1+	c #33336F",
"2+	c #30308E",
"3+	c #303189",
"4+	c #323286",
"5+	c #1700DF",
"6+	c #1099F3",
"7+	c #3394D7",
"8+	c #1C5ECC",
"9+	c #0000E8",
"0+	c #010BFC",
"a+	c #010BFF",
"b+	c #010BFB",
"c+	c #1419E6",
"d+	c #161AF3",
"e+	c #4947B9",
"f+	c #2023EE",
"g+	c #0911F8",
"h+	c #1217F6",
"i+	c #1F22E9",
"j+	c #30309A",
"k+	c #343469",
"l+	c #2C308A",
"m+	c #3A329B",
"n+	c #2618F6",
"o+	c #0314E9",
"p+	c #343474",
"q+	c #36363F",
"r+	c #33337C",
"s+	c #0500F5",
"t+	c #1BADEA",
"u+	c #4153C2",
"v+	c #160004",
"w+	c #0C0A00",
"x+	c #000040",
"y+	c #000091",
"z+	c #0000C7",
"A+	c #0008EB",
"B+	c #010BFA",
"C+	c #1D20D6",
"D+	c #050EF8",
"E+	c #2A2BE6",
"F+	c #1F22EE",
"G+	c #0006FA",
"H+	c #0A12F8",
"I+	c #1A1DF2",
"J+	c #181BE1",
"K+	c #32327E",
"L+	c #21318B",
"M+	c #6A3C51",
"N+	c #854E17",
"O+	c #5B4078",
"P+	c #2C3084",
"Q+	c #2E279B",
"R+	c #0044FC",
"S+	c #25AEE2",
"T+	c #3F34B3",
"U+	c #161300",
"V+	c #615A01",
"W+	c #544F00",
"X+	c #343100",
"Y+	c #211E00",
"Z+	c #0D0A00",
"`+	c #00004B",
" @	c #000098",
".@	c #0005CC",
"+@	c #010AED",
"@@	c #000AFB",
"#@	c #0007FC",
"$@	c #0005FA",
"%@	c #2F32E1",
"&@	c #2C2FD7",
"*@	c #0B12F0",
"=@	c #35355B",
"-@	c #263385",
";@	c #7F0C2E",
">@	c #8A0000",
",@	c #4B2F75",
"'@	c #2B318D",
")@	c #2500C0",
"!@	c #0479FA",
"~@	c #319CD9",
"{@	c #250099",
"]@	c #655D00",
"^@	c #D2C306",
"/@	c #EAD909",
"(@	c #CDBF06",
"_@	c #9F9304",
":@	c #443E01",
"<@	c #2D2800",
"[@	c #1A1700",
"}@	c #0D0B00",
"|@	c #070600",
"1@	c #1B1EDF",
"2@	c #0001FF",
"3@	c #181CDF",
"4@	c #272AF0",
"5@	c #39398B",
"6@	c #323274",
"7@	c #303091",
"8@	c #2829B2",
"9@	c #1D20D4",
"0@	c #0B12F1",
"a@	c #2F318D",
"b@	c #3C3179",
"c@	c #890900",
"d@	c #850E14",
"e@	c #30318E",
"f@	c #1200E5",
"g@	c #1499F1",
"h@	c #3C80CF",
"i@	c #00005F",
"j@	c #8C8200",
"k@	c #DECE07",
"l@	c #F4E309",
"m@	c #F8E70A",
"n@	c #D9C908",
"o@	c #8E8406",
"p@	c #887E05",
"q@	c #736B04",
"r@	c #403B00",
"s@	c #020471",
"t@	c #1B1DE8",
"u@	c #0F15EC",
"v@	c #2A2CB0",
"w@	c #2426C6",
"x@	c #34346D",
"y@	c #333379",
"z@	c #2F2F95",
"A@	c #2324BE",
"B@	c #2D2EBD",
"C@	c #323275",
"D@	c #7C0C66",
"E@	c #781B45",
"F@	c #243485",
"G@	c #030FF6",
"H@	c #403DBB",
"I@	c #2B32E0",
"J@	c #0000C5",
"K@	c #A29735",
"L@	c #E8D808",
"M@	c #F3E109",
"N@	c #F1E009",
"O@	c #D7C808",
"P@	c #B9AB07",
"Q@	c #9C9106",
"R@	c #877D05",
"S@	c #4E4700",
"T@	c #0000A3",
"U@	c #1318F1",
"V@	c #343472",
"W@	c #323380",
"X@	c #32337B",
"Y@	c #0E15FB",
"Z@	c #0005FD",
"`@	c #2E2F9C",
" #	c #363627",
".#	c #1826C7",
"+#	c #0009FC",
"@#	c #191CF9",
"##	c #807900",
"$#	c #AB9F02",
"%#	c #E6D608",
"&#	c #F0DF09",
"*#	c #F3E209",
"=#	c #E9D809",
"-#	c #9B9007",
";#	c #7E7405",
">#	c #292500",
",#	c #24229E",
"'#	c #0F14F1",
")#	c #2A2BAD",
"!#	c #36364D",
"~#	c #151AE6",
"{#	c #2728B9",
"]#	c #181DE8",
"^#	c #19226B",
"/#	c #6E6600",
"(#	c #E8D70C",
"_#	c #F6E50A",
":#	c #F1E00A",
"<#	c #D7C807",
"[#	c #696103",
"}#	c #675F14",
"|#	c #0B092F",
"1#	c #35313B",
"2#	c #35355E",
"3#	c #1C1FD9",
"4#	c #2124CD",
"5#	c #34346A",
"6#	c #33337B",
"7#	c #2026F1",
"8#	c #69648D",
"9#	c #A99D00",
"0#	c #CFC004",
"a#	c #E2D200",
"b#	c #B3A600",
"c#	c #000000",
"d#	c #3E3966",
"e#	c #2522BF",
"f#	c #0C13F2",
"g#	c #171AE4",
"h#	c #0A11F2",
"i#	c #2A2BB2",
"j#	c #353551",
"k#	c #2426C9",
"l#	c #0006FF",
"m#	c #2505EA",
"n#	c #3B3A71",
"o#	c #413C00",
"p#	c #574F00",
"q#	c #706800",
"r#	c #4B47CF",
"s#	c #0000D7",
"t#	c #080FE3",
"u#	c #2325C6",
"v#	c #060FF5",
"w#	c #2F309A",
"x#	c #363633",
"y#	c #313285",
"z#	c #302D89",
"A#	c #283DBA",
"B#	c #3676D5",
"C#	c #0810F0",
"D#	c #0000D0",
"E#	c #00009D",
"F#	c #000049",
"G#	c #050EF2",
"H#	c #2E2E9E",
"I#	c #353553",
"J#	c #2427BC",
"K#	c #0517E7",
"L#	c #323381",
"M#	c #2E7DA5",
"N#	c #12A3F2",
"O#	c #0000FA",
"P#	c #010CFE",
"Q#	c #0009FD",
"R#	c #0C14F7",
"S#	c #2A2CE5",
"T#	c #1016EC",
"U#	c #27307A",
"V#	c #614374",
"W#	c #6944A7",
"X#	c #3B2FBD",
"Y#	c #33346B",
"Z#	c #322D7B",
"`#	c #276BCD",
" $	c #0B68F9",
".$	c #020CFB",
"+$	c #2729D6",
"@$	c #2C2DA4",
"#$	c #30318F",
"$$	c #2C3381",
"%$	c #7C2326",
"&$	c #8B3500",
"*$	c #3E2DB0",
"=$	c #32345E",
"-$	c #2B09B6",
";$	c #1816E1",
">$	c #2627B7",
",$	c #343376",
"'$	c #313287",
")$	c #422F7B",
"!$	c #850D00",
"~$	c #860035",
"{$	c #222BB4",
"]$	c #36362D",
"^$	c #0006FB",
"/$	c #0004FA",
"($	c #4243C3",
"_$	c #33338A",
":$	c #5A296B",
"<$	c #8D0400",
"[$	c #781469",
"}$	c #1B2FA3",
"|$	c #2E1FA3",
"1$	c #1C63F1",
"2$	c #17A9F0",
"3$	c #1978F2",
"4$	c #201DE1",
"5$	c #3A3A84",
"6$	c #313184",
"7$	c #4A1AC0",
"8$	c #481BC2",
"9$	c #26318C",
"0$	c #333479",
"a$	c #313886",
"b$	c #2D72A4",
"c$	c #3573B3",
"d$	c #3C2A98",
"e$	c #30307F",
"f$	c #323278",
"g$	c #262DA3",
"h$	c #323182",
"i$	c #33217A",
"j$	c #312B7C",
"k$	c #313286",
"                                                                                                            ",
"                                                                                                            ",
"                                                              . + @                                         ",
"                                                          @       #                                         ",
"                                                          .                                                 ",
"                                                                    .                                       ",
"                                                                                                            ",
"                                                        @ @ @                                               ",
"                                                    +         @ @ @                                         ",
"                                                                                                            ",
"                                                                                                            ",
"                                                                                                            ",
"                                                  + . $ % %                                                 ",
"                                              &         @ + . $ % %                                         ",
"                                                                @ & *                                       ",
"                                                                                                            ",
"                                                        = -           .                                     ",
"                                                ; > , ' ) ! ~                                               ",
"                                                { ] ^ / @ ( _                                               ",
"      : <                                     [ } | 1 2 3 4 5 6 :                                           ",
"        7 8 9 < 0                         a b c d e f g h i j k {                                           ",
"        l m n o p q r s t             u v w x y z A B C D E F < G                                           ",
"          H I J K L M o N O P Q R   S T U V v W W W W W X B A Y Z                                           ",
"          `  ...+.@.v #.$.%.&.*.=.-.;.: >.,.'.X V ).c W W W W !.~.{.                                        ",
"          } < ].u ^./.(._.:.<.[.}.V A |.1.2.3.].4.5.6.7.V 7.c 8.9.0.                                        ",
"          a.b.c.d.e.f.g.h._.i.j.k.8.7.l.m.n.A 6.o.p.q.r.s.t./.).U A B u.                                    ",
"          q.c z q.< 1.v.w...x.y.z.A.V s.B.V W c ).V X C.D.E.F.G.H.I.|.J.                                    ",
"        F.p.K.L.M.: N.O.P.Q.R.S.#.v ).T.U.I W W W W W A.H V X V.W.: X.e.                                    ",
"        Y.D.U Z.1.        `.E.U  +.+++@+#+$+W W W W W W W W W A %+&+).*+=+-+F.;+                            ",
"        >+,++.'+)+        !+~+{+u ]+^+/+(+U W W W W W W W W W c ; *.8.U _+:+<+[+}+|+; 1+                    ",
"      2+3+..C : [           { 4+G 5+6+7+8+9+0+a+a+b+W W W W z c+].+.d+e+f+y J g+h+M i+p q j+{ k+            ",
"      l+m+n+o+p+            q+N.r+s+t+u+v+w+x+y+z+A+w.a+a+B+W |.C+A D+E+F+i.W G+!.I J H+L I+i+J+X.K+<       ",
"      L+M+N+O+P+              ;+Q+R+S+T+U+V+W+X+Y+Z+`+ @.@+@@@#@7./.z $@..c [.%@&@*@#@+.@.y @@C.7 =@        ",
"      -@;@>@,@'@                )@!@~@{@]@^@/@(@_@:@<@[@}@|@1@W v r+c.2@3@/.A 4@5@6@7@8@9@0@A &+            ",
"    a@b@c@d@; e@                f@g@h@i@j@k@l@m@n@o@p@q@r@s@t@7.u@1.v@w@x@y@z@A@q.< Y.B@p.{ C@              ",
"        D@E@F@                  G@H@I@J@K@L@M@N@O@P@Q@R@S@T@U@+.,.V@X.W@X@        K+7@Y@Z@`@ #              ",
"        .#                        d.+#@###$#%#&#*#=#-#;#>#,#'#+.)#y@;             !#H.U ~#:                 ",
"                                  {#K.]#^#/#(#_#:#<#[#}#|#1#W v 3.  e@            2#3#2@4#5#                ",
"                                6#=.7.U 7#8#9#0#a#b#c#d#e#f#B g#J.                J.h#A i#j#                ",
"                                N.k#l#m#U n#o#p#q#r#s#t#U u#                      z@).v#w#x#                ",
"                                y#z#A#B#$@C#D#E#F#G#2@X B H#                    I#J#U K#L#                  ",
"                                    M#N#O#c P#a+Q#R#S#T#0@{                     U#V#W#X#Y#                  ",
"                                  Z#`# $O#W W W W .$+$@$#$J.                    $$%$&$*$=$                  ",
"                                  : -$;$W W W W W U >$,$'$                      )$!$~${$]$                  ",
"                                    1.K+c O#O#^$/$($_$                          :$<$[$}$                    ",
"                                    r.|$1$2$3$4$1.5$6$                            7$8$9$                    ",
"                                      0$a$b$c$d$e$f$                              g$                        ",
"                                      '$h$i$j$s e@                                                          ",
"                                        N.N.k$                                                              ",
"                                                                                                            "};
