/* XPM */
static char * nave1_6_xpm[] = {
"54 50 485 2",
"  	c None",
". 	c #373737",
"+ 	c #383838",
"@ 	c #363636",
"# 	c #393939",
"$ 	c #343434",
"% 	c #434343",
"& 	c #505050",
"* 	c #454545",
"= 	c #119EE9",
"- 	c #313131",
"; 	c #424242",
"> 	c #575757",
", 	c #636363",
"' 	c #119DE9",
") 	c #119CE7",
"! 	c #119AE6",
"~ 	c #119DE8",
"{ 	c #3A3A3A",
"] 	c #545454",
"^ 	c #666666",
"/ 	c #676767",
"( 	c #525252",
"_ 	c #119CE8",
": 	c #119BE5",
"< 	c #119CE6",
"[ 	c #4D4D4D",
"} 	c #646464",
"| 	c #686868",
"1 	c #585858",
"2 	c #464646",
"3 	c #119EEA",
"4 	c #119AE4",
"5 	c #474747",
"6 	c #5E5E5E",
"7 	c #6C6C6C",
"8 	c #5C5C5C",
"9 	c #4C4C4C",
"0 	c #555555",
"a 	c #494949",
"b 	c #2D2E2E",
"c 	c #109AE4",
"d 	c #1199E2",
"e 	c #1198E1",
"f 	c #323232",
"g 	c #414141",
"h 	c #3D3D3D",
"i 	c #6D6D6D",
"j 	c #656565",
"k 	c #4F4F4F",
"l 	c #2D2D2D",
"m 	c #3B3B3B",
"n 	c #535353",
"o 	c #353535",
"p 	c #595858",
"q 	c #424444",
"r 	c #333333",
"s 	c #2D3030",
"t 	c #119BE6",
"u 	c #393838",
"v 	c #4B4B4B",
"w 	c #616161",
"x 	c #717171",
"y 	c #595959",
"z 	c #696A6A",
"A 	c #6C6D6D",
"B 	c #5E6060",
"C 	c #464444",
"D 	c #323838",
"E 	c #273636",
"F 	c #119AE5",
"G 	c #343535",
"H 	c #5D5D5D",
"I 	c #6E6E6E",
"J 	c #767777",
"K 	c #6D6E6E",
"L 	c #565656",
"M 	c #3E3E3E",
"N 	c #2E2E2E",
"O 	c #535454",
"P 	c #666868",
"Q 	c #6F6D6D",
"R 	c #6B5858",
"S 	c #5A3838",
"T 	c #3E3535",
"U 	c #2B3838",
"V 	c #109FEC",
"W 	c #3A280C",
"X 	c #37322D",
"Y 	c #353637",
"Z 	c #404040",
"` 	c #6D6C6C",
" .	c #737272",
"..	c #747575",
"+.	c #2D2C2C",
"@.	c #383939",
"#.	c #655656",
"$.	c #7A4545",
"%.	c #802020",
"&.	c #682525",
"*.	c #463333",
"=.	c #0E9FED",
"-.	c #354E68",
";.	c #383842",
">.	c #343029",
",.	c #363635",
"'.	c #515151",
").	c #5B5A5A",
"!.	c #555454",
"~.	c #4C4B4B",
"{.	c #626262",
"].	c #6F6F6F",
"^.	c #6C6A6A",
"/.	c #6A6B6B",
"(.	c #3F3F3F",
"_.	c #303030",
":.	c #323434",
"<.	c #473B3B",
"[.	c #673535",
"}.	c #840D0D",
"|.	c #820E0E",
"1.	c #662929",
"2.	c #109CE9",
"3.	c #364C66",
"4.	c #2E6D9C",
"5.	c #2975AB",
"6.	c #2E5E85",
"7.	c #34393E",
"8.	c #454140",
"9.	c #606060",
"0.	c #6A6A6A",
"a.	c #6E6D6D",
"b.	c #656464",
"c.	c #3C3B3B",
"d.	c #4E4B4B",
"e.	c #5E5B5B",
"f.	c #626060",
"g.	c #5C5959",
"h.	c #585757",
"i.	c #494848",
"j.	c #2B3636",
"k.	c #423535",
"l.	c #672828",
"m.	c #751E1E",
"n.	c #5F2C2C",
"o.	c #3D3636",
"p.	c #119BE7",
"q.	c #38363C",
"r.	c #2E6997",
"s.	c #218DCE",
"t.	c #1F85C4",
"u.	c #29628C",
"v.	c #3E434A",
"w.	c #5A5956",
"x.	c #747474",
"y.	c #565555",
"z.	c #363737",
"A.	c #3B3A3A",
"B.	c #4C4A4A",
"C.	c #545050",
"D.	c #575252",
"E.	c #534F4F",
"F.	c #514E4E",
"G.	c #4B4949",
"H.	c #283838",
"I.	c #513131",
"J.	c #443434",
"K.	c #335877",
"L.	c #287CB3",
"M.	c #1699E0",
"N.	c #2379B1",
"O.	c #35516C",
"P.	c #53504D",
"Q.	c #6B6A68",
"R.	c #747573",
"S.	c #757574",
"T.	c #6B6C6C",
"U.	c #424040",
"V.	c #3A3737",
"W.	c #3A3838",
"X.	c #3F3E3E",
"Y.	c #474545",
"Z.	c #4D4949",
"`.	c #464343",
" +	c #464545",
".+	c #454444",
"++	c #365067",
"@+	c #2D6D9A",
"#+	c #2575AA",
"$+	c #315A7D",
"%+	c #4D4C4C",
"&+	c #67635E",
"*+	c #737271",
"=+	c #5F6060",
"-+	c #403B3B",
";+	c #464040",
">+	c #443E3E",
",+	c #3E3B3B",
"'+	c #434141",
")+	c #444242",
"!+	c #373838",
"~+	c #1098E2",
"{+	c #1099E4",
"]+	c #393630",
"^+	c #34404D",
"/+	c #30455A",
"(+	c #434447",
"_+	c #625F5C",
":+	c #70706F",
"<+	c #757575",
"[+	c #707070",
"}+	c #4E4D4D",
"|+	c #3C3939",
"1+	c #4E4646",
"2+	c #4C4444",
"3+	c #474343",
"4+	c #4C4949",
"5+	c #524F4F",
"6+	c #514D4D",
"7+	c #3C3D3D",
"8+	c #109BE6",
"9+	c #393737",
"0+	c #363430",
"a+	c #352C1E",
"b+	c #3F3D3A",
"c+	c #595754",
"d+	c #6E6E6D",
"e+	c #747475",
"f+	c #727272",
"g+	c #494A4A",
"h+	c #3F3D3D",
"i+	c #423D3D",
"j+	c #494343",
"k+	c #4E4747",
"l+	c #514C4C",
"m+	c #524E4E",
"n+	c #504C4C",
"o+	c #494646",
"p+	c #403F3F",
"q+	c #323131",
"r+	c #393938",
"s+	c #6B6B6B",
"t+	c #737474",
"u+	c #5B5B5B",
"v+	c #3F3B3B",
"w+	c #4A4343",
"x+	c #4D4646",
"y+	c #514A4A",
"z+	c #565252",
"A+	c #3B3838",
"B+	c #363336",
"C+	c #474446",
"D+	c #504D4D",
"E+	c #3A393A",
"F+	c #484848",
"G+	c #767676",
"H+	c #484646",
"I+	c #3E3A3A",
"J+	c #4D4747",
"K+	c #534C4C",
"L+	c #434043",
"M+	c #1D1C1E",
"N+	c #1B1816",
"O+	c #2F2E2F",
"P+	c #39373E",
"Q+	c #464243",
"R+	c #454141",
"S+	c #3D3B3A",
"T+	c #453F3F",
"U+	c #4C4545",
"V+	c #4F4847",
"W+	c #4F4747",
"X+	c #3C383E",
"Y+	c #282429",
"Z+	c #3D3706",
"`+	c #4B4400",
" @	c #3D3801",
".@	c #2A2721",
"+@	c #332F32",
"@@	c #413C3D",
"#@	c #3D3A3B",
"$@	c #353636",
"%@	c #696969",
"&@	c #545353",
"*@	c #413C3C",
"=@	c #4F4746",
"-@	c #0D0923",
";@	c #2A2708",
">@	c #696101",
",@	c #7E7501",
"'@	c #736B00",
")@	c #4C470C",
"!@	c #322E29",
"~@	c #413E3E",
"{@	c #5A5A5A",
"]@	c #3F3939",
"^@	c #423C41",
"/@	c #322D33",
"(@	c #312D0C",
"_@	c #565100",
":@	c #8C8205",
"<@	c #A09507",
"[@	c #968C04",
"}@	c #5F5808",
"|@	c #393429",
"1@	c #484142",
"2@	c #494443",
"3@	c #3A3939",
"4@	c #4A4A4A",
"5@	c #383737",
"6@	c #403C3C",
"7@	c #494444",
"8@	c #4B4446",
"9@	c #171432",
"0@	c #393319",
"a@	c #847A03",
"b@	c #A59A01",
"c@	c #B7AB07",
"d@	c #C6B809",
"e@	c #C1B305",
"f@	c #8E8404",
"g@	c #3F3A1D",
"h@	c #2E2739",
"i@	c #4A4345",
"j@	c #454040",
"k@	c #383636",
"l@	c #373939",
"m@	c #3D3E3E",
"n@	c #403D3D",
"o@	c #4A4444",
"p@	c #403A3C",
"q@	c #1B1914",
"r@	c #6B6302",
"s@	c #CCBD04",
"t@	c #E8D708",
"u@	c #E4D409",
"v@	c #ECDA0A",
"w@	c #EEDD05",
"x@	c #C4B603",
"y@	c #726B1E",
"z@	c #3F393A",
"A@	c #4E494C",
"B@	c #504C4B",
"C@	c #3E3D3D",
"D@	c #323333",
"E@	c #3E3C3C",
"F@	c #4A4747",
"G@	c #4B4A4A",
"H@	c #525050",
"I@	c #595555",
"J@	c #484346",
"K@	c #29252D",
"L@	c #494405",
"M@	c #A39700",
"N@	c #EEDD08",
"O@	c #F9E70A",
"P@	c #F4E308",
"Q@	c #F7E50A",
"R@	c #F9E707",
"S@	c #D4C605",
"T@	c #7F7513",
"U@	c #453E3A",
"V@	c #5E5B5E",
"W@	c #646263",
"X@	c #353434",
"Y@	c #474444",
"Z@	c #555252",
"`@	c #4F4C4C",
" #	c #5D5C5C",
".#	c #696868",
"+#	c #585758",
"@#	c #302F33",
"##	c #484201",
"$#	c #A79B00",
"%#	c #E5D503",
"&#	c #EFDF02",
"*#	c #E8D800",
"=#	c #EAD902",
"-#	c #DECE00",
";#	c #AEA100",
">#	c #57511D",
",#	c #3F3F4A",
"'#	c #6C6D6E",
")#	c #3C3C3C",
"!#	c #444141",
"~#	c #4F4B4B",
"{#	c #565353",
"]#	c #585454",
"^#	c #6A696A",
"/#	c #69696A",
"(#	c #525457",
"_#	c #40413E",
":#	c #726A1C",
"<#	c #AFA308",
"[#	c #C1B413",
"}#	c #B8AB0F",
"|#	c #B8AA0D",
"1#	c #A79B25",
"2#	c #6E661B",
"3#	c #3E3F40",
"4#	c #585960",
"5#	c #727373",
"6#	c #777777",
"7#	c #434242",
"8#	c #5A5656",
"9#	c #5D5B5B",
"0#	c #585555",
"a#	c #545151",
"b#	c #484747",
"c#	c #595A5F",
"d#	c #353744",
"e#	c #47442B",
"f#	c #79743C",
"g#	c #6B6540",
"h#	c #514E45",
"i#	c #625F51",
"j#	c #51514D",
"k#	c #5F6062",
"l#	c #6D6D6E",
"m#	c #636161",
"n#	c #6A6767",
"o#	c #676565",
"p#	c #535050",
"q#	c #4A4949",
"r#	c #373636",
"s#	c #616160",
"t#	c #696A6B",
"u#	c #5A5C62",
"v#	c #535458",
"w#	c #5F6064",
"x#	c #63646B",
"y#	c #61616B",
"z#	c #696A6C",
"A#	c #6F7071",
"B#	c #737373",
"C#	c #676666",
"D#	c #525151",
"E#	c #444343",
"F#	c #464645",
"G#	c #5A5A59",
"H#	c #5F5F60",
"I#	c #535255",
"J#	c #575758",
"K#	c #727273",
"L#	c #696869",
"M#	c #575656",
"N#	c #4A4A49",
"O#	c #454544",
"P#	c #434342",
"Q#	c #4F4E4E",
"R#	c #545453",
"S#	c #5F5F5F",
"T#	c #4E4E4E",
"U#	c #2F2F2E",
"V#	c #444444",
"W#	c #2A2A2A",
"X#	c #616060",
"Y#	c #303131",
"Z#	c #595A5A",
"`#	c #434444",
" $	c #313838",
".$	c #6B6D6D",
"+$	c #5C5454",
"@$	c #453B3B",
"#$	c #313737",
"$$	c #253A3A",
"%$	c #2E2F2F",
"&$	c #525454",
"*$	c #696363",
"=$	c #795555",
"-$	c #773333",
";$	c #5E2C2C",
">$	c #3E3636",
",$	c #313A3A",
"'$	c #3D3F3F",
")$	c #574848",
"!$	c #773C3C",
"~$	c #851F1F",
"{$	c #7D1616",
"]$	c #622A2A",
"^$	c #323535",
"/$	c #6C2626",
"($	c #7C1919",
"_$	c #6B2626",
":$	c #493434",
"                                                                                                            ",
"                                                                                                            ",
"                                                                                                            ",
"                                                                                                            ",
"                                                                                                            ",
"                                                                                  . +                       ",
"                                                                                  . @                       ",
"                                                                                . # $                       ",
"                                                                              . % & *                       ",
"                      =                                                     - ; > , >                       ",
"                ' ) ! ) ~                                                   { ] ^ / ( {                     ",
"              ' _ :             < =                                       + [ } | 1 2 + -                   ",
"                _         3 3 ) 4 ~                                     $ 5 6 7 8 5 9 0 a . b               ",
"                ~         3 3           c   d e                       f g 1 / } 9 h 1 i j k + l             ",
"                ~       3 3           ) '                             m n | / n m o [ , i | p q r s         ",
"                      3 3           t _                             u v w x | [ + f r % y z A B C D E       ",
"                      3 =         F _                             G 2 H I J K L M o N f M O P Q R S T U     ",
"                      ~         4 ) V         W X Y     o Z % + o Z y `  ...| k {       +.@.[ #.$.%.&.*.    ",
"                      _         ) =.        -.;.>.,.9 n '.).!.M { ~.{.].^./.> (.o         _.:.<.[.}.|.1.    ",
"                      '       : 2.      3.4.5.6.7.8.9.0.0.a.b.; c.d.e.f.g.h.i.+ o             j.k.l.m.n.o.  ",
"                            F p.3     q.r.s.t.u.v.w.].x.x | y.z.A.B.C.D.E.F.G.h @               H.. I.J.D   ",
"                            t _       K.L.M.N.O.P.Q.R.S.T.O U.V.W.X.Y.Z.`. +.+A..                           ",
"                                      ++@+#+$+%+&+*+S.I =+M -+;+>+,+'+Y.)+h # . !++                         ",
"                            ~+{+      ]+^+/+(+_+:+<+[+w }+|+>+1+2+3+4+5+6+Y.7+. . .                         ",
"                              8+    9+0+a+b+c+d+e+f+/ g+h+i+j+k+k+l+C.m+n+d.o+p+# @                         ",
"                                      q+r+L s+x.t+/.u+h v+w+x+x+y+z+5+A+B+C+D+4+U.E+                        ",
"                                        F+j f+G+].u+H+I+;+J+x+k+K+E.L+M+N+O+P+Q+R+S+                        ",
"                                        * H [+f+j * ,+T+U+x+x+V+W+X+Y+Z+`+ @.@+@@@#@$@                      ",
"                                        m 8 i %@&@W.*@U+x+x+=@W+w+-@;@>@,@'@)@!@v+~@# @                     ",
"                                          {@^ L U.]@w+k+x+V+V+^@/@(@_@:@<@[@}@|@1@2@~@3@.                   ",
"                                          4@'.m 5@6@7@x+x+W+8@9@0@a@b@c@d@e@f@g@h@i@j@k@o                   ",
"                                          l@m@h h c.n@o@W+2+p@q@r@s@t@u@v@w@x@y@z@A@B@C@r                   ",
"                                          D@E@F@G@p+(.H@I@J@K@L@M@N@O@P@Q@R@S@T@U@V@W@> % .                 ",
"                                        X@c.Y@5+Z@`@~. #.#+#@###$#%#&#*#=#-#;#>#,#'#x 0.] )#@               ",
"                                        W.!#~#{#]#E.G@> ^#/#(#_#:#<#[#}#|#1#2#3#4#5#6#].y { o               ",
"                                      !+7#`@8#9#0#a#b#Z & , %@c#d#e#f#g#h#i#j#k#l#f+x.].{@)#o               ",
"                                    @ 2 h.m#n#o#g.p#q#r#m v s#t#u#v#{@w#x#y#z#A#x.f+B#f+{.* #               ",
"                                  f ; y %@[+ .C#D#Y.E## G + F#G#H#I#J#| K#L#0.x B#f+B#I H % +               ",
"                                  h n / 7 s+0.M#X.u c.. o $ @ Z N#O#P#k {@Q#R#, 0.} } S#4@# o .             ",
"                                . 9 } | H ( T#g o r @               U#{ M o + v '.2 2 V#{ o +               ",
"                              @ 5 6 7 u+; + { .                         . r f # { . o + . . +               ",
"                            f % u+%@, v @ - -                                   . @                         ",
"                            { & ^ ^ ( 2 % )#r                                                               ",
"                          . h n , 1 % n | } v # W#                                                          ",
"                        . @ . % ( % { '.%@].X#a X@Y#                                                        ",
"                          @         - # a w a.7 Z#`# $                                                      ",
"                                      N + v w .$T.+$@$#$$$                                                  ",
"                                          %$@.&$*$=$-$;$>$,$                                                ",
"                                            D@'$)$!$~${$]$                                                  ",
"                                                ^$k./$($_$:$                                                "};
