/* XPM */
static char * tiro11_xpm[] = {
"35 37 244 2",
"  	c None",
". 	c #555555",
"+ 	c #161616",
"@ 	c #575757",
"# 	c #171717",
"$ 	c #FA837E",
"% 	c #606161",
"& 	c #393939",
"* 	c #181817",
"= 	c #1E2221",
"- 	c #F99F9D",
"; 	c #F85B57",
"> 	c #F69189",
", 	c #F7656E",
"' 	c #FA5657",
") 	c #F8645E",
"! 	c #FB7573",
"~ 	c #5B5758",
"{ 	c #8C0104",
"] 	c #7F0202",
"^ 	c #302727",
"/ 	c #F8807B",
"( 	c #F8864D",
"_ 	c #F99732",
": 	c #F4444A",
"< 	c #F63B09",
"[ 	c #FABC0D",
"} 	c #FBA114",
"| 	c #F97B6C",
"1 	c #802D2E",
"2 	c #D9020B",
"3 	c #AD4140",
"4 	c #7F6B6A",
"5 	c #F74F58",
"6 	c #F68830",
"7 	c #F5AF0F",
"8 	c #F8BF0A",
"9 	c #FDF201",
"0 	c #FEDC05",
"a 	c #FB9A42",
"b 	c #F7A199",
"c 	c #444545",
"d 	c #460F10",
"e 	c #690307",
"f 	c #732323",
"g 	c #888A8C",
"h 	c #F76661",
"i 	c #F9B10D",
"j 	c #FDF202",
"k 	c #FCEF02",
"l 	c #FB9E0B",
"m 	c #FC6F23",
"n 	c #F9573C",
"o 	c #505050",
"p 	c #14161A",
"q 	c #0D0A15",
"r 	c #00416C",
"s 	c #335D89",
"t 	c #3A4A60",
"u 	c #4D4C4B",
"v 	c #A7948C",
"w 	c #AFA23D",
"x 	c #F6E40F",
"y 	c #FAC506",
"z 	c #F8C006",
"A 	c #F8882F",
"B 	c #F94455",
"C 	c #4A4A4A",
"D 	c #343435",
"E 	c #13131A",
"F 	c #023C65",
"G 	c #045A93",
"H 	c #0368A8",
"I 	c #0570B5",
"J 	c #063F63",
"K 	c #040C16",
"L 	c #373738",
"M 	c #B0987A",
"N 	c #EF8763",
"O 	c #FA7735",
"P 	c #F7982F",
"Q 	c #F7852E",
"R 	c #494949",
"S 	c #363638",
"T 	c #17171D",
"U 	c #01375D",
"V 	c #025A90",
"W 	c #0367A6",
"X 	c #0571B1",
"Y 	c #056BA9",
"Z 	c #024775",
"` 	c #021B31",
" .	c #01223C",
"..	c #4E4E4E",
"+.	c #FA666F",
"@.	c #F88883",
"#.	c #F8655E",
"$.	c #3A3A3B",
"%.	c #1C1C21",
"&.	c #013054",
"*.	c #04558B",
"=.	c #0467A7",
"-.	c #026CB2",
";.	c #037BC2",
">.	c #0589C3",
",.	c #01242D",
"'.	c #014979",
").	c #0167A5",
"!.	c #214C74",
"~.	c #484D55",
"{.	c #F88A8B",
"].	c #3D3D3E",
"^.	c #212125",
"/.	c #012949",
"(.	c #035186",
"_.	c #0466A6",
":.	c #036CB2",
"<.	c #0178C0",
"[.	c #029FE2",
"}.	c #03BEFF",
"|.	c #04A0E1",
"1.	c #016DAC",
"2.	c #0169A9",
"3.	c #016EB1",
"4.	c #325E8C",
"5.	c #75777F",
"6.	c #414040",
"7.	c #252526",
"8.	c #011E37",
"9.	c #034E80",
"0.	c #0465A4",
"a.	c #026BB0",
"b.	c #0071BB",
"c.	c #029BDE",
"d.	c #03BBFC",
"e.	c #02A9EB",
"f.	c #028DD0",
"g.	c #027CBE",
"h.	c #036FB0",
"i.	c #035F98",
"j.	c #033E66",
"k.	c #3A0F2A",
"l.	c #887A7B",
"m.	c #7B6F6D",
"n.	c #262626",
"o.	c #1B0001",
"p.	c #001527",
"q.	c #06568D",
"r.	c #0369AC",
"s.	c #0170B9",
"t.	c #0197DA",
"u.	c #03B7F8",
"v.	c #03ADEE",
"w.	c #0191D5",
"x.	c #017EC2",
"y.	c #0272B3",
"z.	c #015F9A",
"A.	c #01416B",
"B.	c #0D2135",
"C.	c #271422",
"D.	c #730203",
"E.	c #C23031",
"F.	c #7E0506",
"G.	c #12191A",
"H.	c #9F2728",
"I.	c #9C0506",
"J.	c #560C15",
"K.	c #01497A",
"L.	c #0288C7",
"M.	c #03B3F5",
"N.	c #03B0F1",
"O.	c #0295D7",
"P.	c #0280C4",
"Q.	c #0374B6",
"R.	c #02629F",
"S.	c #014572",
"T.	c #112337",
"U.	c #31363E",
"V.	c #3D3D3D",
"W.	c #270606",
"X.	c #8A0101",
"Y.	c #C22124",
"Z.	c #450102",
"`.	c #211B1B",
" +	c #6C7475",
".+	c #A84343",
"++	c #E30B0F",
"@+	c #8D1D0F",
"#+	c #002E44",
"$+	c #0398D2",
"%+	c #0296D8",
"&+	c #0281C5",
"*+	c #0175B7",
"=+	c #0266A4",
"-+	c #024B7A",
";+	c #092037",
">+	c #2E343D",
",+	c #434444",
"'+	c #696967",
")+	c #A8A1A0",
"!+	c #796F70",
"~+	c #444141",
"{+	c #101010",
"]+	c #717174",
"^+	c #853516",
"/+	c #F85406",
"(+	c #C04405",
"_+	c #671E1A",
":+	c #01527E",
"<+	c #026EAC",
"[+	c #0269A9",
"}+	c #014E80",
"|+	c #001C37",
"1+	c #2B323C",
"2+	c #414243",
"3+	c #757575",
"4+	c #4F4F4F",
"5+	c #9D554A",
"6+	c #DF5419",
"7+	c #D94705",
"8+	c #EC250C",
"9+	c #8E0D09",
"0+	c #010C19",
"a+	c #01446F",
"b+	c #002544",
"c+	c #272F3C",
"d+	c #3E4042",
"e+	c #595959",
"f+	c #222222",
"g+	c #857877",
"h+	c #8E706C",
"i+	c #63403A",
"j+	c #DC201E",
"k+	c #990003",
"l+	c #2E0102",
"m+	c #24272C",
"n+	c #3C3E40",
"o+	c #727272",
"p+	c #B3B3B3",
"q+	c #7E7D7C",
"r+	c #6C7272",
"s+	c #978282",
"t+	c #3D1616",
"u+	c #3E3A3A",
"                                                                      ",
"                                                                      ",
"                                                                      ",
"                                                                      ",
"                                                                      ",
"                                                                      ",
"                                                                      ",
"                                    .                                 ",
"                                    . +                               ",
"                                    @ #           $                   ",
"                                  % & * =       - ; > , ' )   !       ",
"                                  ~ { ] ^       / ( _ : < [ } |       ",
"                                  1 2 3 4       5 6 7 8 9 0 a b       ",
"                                c d e f g       h i j k l m n         ",
"                                o p q r s t u v w x y z A B           ",
"                            C D E F G H I J K L M N O P Q             ",
"                        R S T U V W X Y Z `  ...    +.@.#.            ",
"                    C $.%.&.*.=.-.;.>.,.'.).!.~.        {.            ",
"                C ].^./.(._.:.<.[.}.|.1.2.3.4.5.                      ",
"              6.7.8.9.0.a.b.c.d.e.f.g.h.i.j.k.l.m.                    ",
"            n.o.p.q.r.s.t.u.v.w.x.y.z.A.B.C.D.E.F.G.                  ",
"            H.I.J.K.L.M.N.O.P.Q.R.S.T.U.V.W.X.Y.Z.`.                  ",
"           +.+++@+#+$+%+&+*+=+-+;+>+,+    '+)+!+~+,+{+                ",
"          ]+^+/+(+_+:+<+[+}+|+1+2+                3+4+                ",
"          5+6+7+8+9+0+a+b+c+d+,+                                      ",
"      e+f+g+h+i+j+k+l+m+n+,+                                          ",
"      o+p+  q+r+s+t+u+,+                                              ",
"                  4+                                                  ",
"                                                                      ",
"                                                                      ",
"                                                                      ",
"                                                                      ",
"                                                                      ",
"                                                                      ",
"                                                                      ",
"                                                                      ",
"                                                                      "};
