/* XPM */
static char * tiro12_xpm[] = {
"35 37 228 2",
"  	c None",
". 	c #5A5A5A",
"+ 	c #787878",
"@ 	c #252525",
"# 	c #5F6060",
"$ 	c #454545",
"% 	c #1C1C1C",
"& 	c #211818",
"* 	c #0E0C09",
"= 	c #1B1B1B",
"- 	c #1D1E1E",
"; 	c #88090A",
"> 	c #F60410",
", 	c #990001",
"' 	c #221514",
") 	c #404040",
"! 	c #434343",
"~ 	c #464646",
"{ 	c #464647",
"] 	c #474747",
"^ 	c #484848",
"/ 	c #494949",
"( 	c #4A4A4A",
"_ 	c #505050",
": 	c #171818",
"< 	c #540408",
"[ 	c #A30001",
"} 	c #916967",
"| 	c #565556",
"1 	c #F9A9A7",
"2 	c #FA807B",
"3 	c #581212",
"4 	c #2F0101",
"5 	c #030103",
"6 	c #01162B",
"7 	c #001932",
"8 	c #00172F",
"9 	c #00142B",
"0 	c #001127",
"a 	c #000E22",
"b 	c #00091D",
"c 	c #000516",
"d 	c #00000D",
"e 	c #020210",
"f 	c #030916",
"g 	c #090A15",
"h 	c #210001",
"i 	c #858586",
"j 	c #F88383",
"k 	c #F8413B",
"l 	c #777677",
"m 	c #556465",
"n 	c #E40B0C",
"o 	c #890708",
"p 	c #100C17",
"q 	c #06568E",
"r 	c #0566A5",
"s 	c #0465A5",
"t 	c #0466A4",
"u 	c #0565A4",
"v 	c #0564A4",
"w 	c #0465A3",
"x 	c #0366A3",
"y 	c #03659F",
"z 	c #05619F",
"A 	c #03619D",
"B 	c #00619F",
"C 	c #445A77",
"D 	c #52504E",
"E 	c #F7515A",
"F 	c #F68D49",
"G 	c #FB980C",
"H 	c #F26B74",
"I 	c #FB4751",
"J 	c #FB6E6D",
"K 	c #876E6E",
"L 	c #662506",
"M 	c #FE2612",
"N 	c #9C1209",
"O 	c #0B121F",
"P 	c #026BA9",
"Q 	c #0179C1",
"R 	c #0178C0",
"S 	c #0076BF",
"T 	c #0175BE",
"U 	c #0174BD",
"V 	c #0071BB",
"W 	c #026EBA",
"X 	c #046FB7",
"Y 	c #0677B8",
"Z 	c #0674B8",
"` 	c #0375BD",
" .	c #0F466B",
"..	c #181312",
"+.	c #F69698",
"@.	c #F73A25",
"#.	c #F68D15",
"$.	c #F6B60E",
"%.	c #F5322A",
"&.	c #F7391C",
"*.	c #F7442E",
"=.	c #424242",
"-.	c #3E3F3F",
";.	c #C84C27",
">.	c #F35D05",
",.	c #FE5E02",
"'.	c #9C3706",
").	c #001A29",
"!.	c #03A3DD",
"~.	c #03BAFB",
"{.	c #03BBFC",
"].	c #03BCFD",
"^.	c #03BDFE",
"/.	c #03BEFF",
"(.	c #07B4F4",
"_.	c #022421",
":.	c #001122",
"<.	c #021629",
"[.	c #020A16",
"}.	c #010103",
"|.	c #202121",
"1.	c #9C9D24",
"2.	c #FAF403",
"3.	c #FEF601",
"4.	c #FCF804",
"5.	c #FBF002",
"6.	c #FEEF01",
"7.	c #FEEE07",
"8.	c #FA762F",
"9.	c #FB524F",
"0.	c #8B706D",
"a.	c #742A15",
"b.	c #FD270E",
"c.	c #981506",
"d.	c #001525",
"e.	c #0274AF",
"f.	c #0183C9",
"g.	c #0283C7",
"h.	c #0184C8",
"i.	c #0284C9",
"j.	c #0184C9",
"k.	c #0084C9",
"l.	c #0185C9",
"m.	c #0282C5",
"n.	c #0166A5",
"o.	c #0161A0",
"p.	c #0164A1",
"q.	c #01375D",
"r.	c #0A0A0A",
"s.	c #B1B0B0",
"t.	c #D6A085",
"u.	c #FB8D15",
"v.	c #F9BA04",
"w.	c #FAD301",
"x.	c #FB8B0C",
"y.	c #FC9809",
"z.	c #FC9912",
"A.	c #F89583",
"B.	c #F6A7A9",
"C.	c #737676",
"D.	c #4F5353",
"E.	c #E80001",
"F.	c #8A0006",
"G.	c #001121",
"H.	c #035C93",
"I.	c #0268A7",
"J.	c #0168A8",
"K.	c #046BAA",
"L.	c #0369AB",
"M.	c #036AAA",
"N.	c #026AAB",
"O.	c #016BAC",
"P.	c #036CAD",
"Q.	c #026DAF",
"R.	c #026FB0",
"S.	c #026FB3",
"T.	c #345170",
"U.	c #4D4C4A",
"V.	c #FB4648",
"W.	c #F7952A",
"X.	c #F6B605",
"Y.	c #F83447",
"Z.	c #FB4C41",
"`.	c #F84F42",
" +	c #420A0A",
".+	c #2E1010",
"++	c #0F1011",
"@+	c #0D1C2F",
"#+	c #0C2038",
"$+	c #0A2037",
"%+	c #091F37",
"&+	c #071F37",
"*+	c #051F36",
"=+	c #031E36",
"-+	c #021E35",
";+	c #001C35",
">+	c #001F39",
",+	c #05263F",
"'+	c #042641",
")+	c #0F2341",
"!+	c #828087",
"~+	c #F88378",
"{+	c #F9571B",
"]+	c #2F2E2E",
"^+	c #444444",
"/+	c #434444",
"(+	c #120E10",
"_+	c #420509",
":+	c #761819",
"<+	c #938A8A",
"[+	c #F98D8F",
"}+	c #F6625E",
"|+	c #1F0000",
"1+	c #920001",
"2+	c #F70510",
"3+	c #8F1B1B",
"4+	c #101C1C",
"5+	c #A39C9D",
"6+	c #5E0001",
"7+	c #350404",
"8+	c #191B1B",
"9+	c #494B4B",
"0+	c #2C2C2C",
"a+	c #1A1A1A",
"b+	c #6C6C6C",
"c+	c #0E0E0E",
"d+	c #737373",
"e+	c #242424",
"                                                                      ",
"                                                                      ",
"                                                                      ",
"                                                                      ",
"                                                                      ",
"                                                                      ",
"                                                                      ",
"                                                                      ",
"                                                                      ",
"                                              .                       ",
"                                            + @                       ",
"                                          # $ %                       ",
"                                          & * =                       ",
"                                      - ; > , '                       ",
"            ) ! $ $ ~ { ] ] ] ^ / ( _ : < [ } |       1 2             ",
"            3 4 5 6 7 8 9 0 a b c d e f g h i         j k             ",
"        l m n o p q r s t u v v w x y z A B C D     E F G H I J       ",
"        K L M N O P Q R S S T U V W X Y Z `  ...  +.@.#.$.%.&.*.      ",
"  =.) -.;.>.,.'.).!.~.{.{.].].^.^./.(._.:.<.[.}.|.1.2.3.4.5.6.7.8.9.  ",
"        0.a.b.c.d.e.f.g.h.i.j.k.i.l.m.n.o.p.q.r.s.t.u.v.w.x.y.z.A.B.  ",
"        C.D.E.F.G.H.I.I.J.K.L.M.N.O.P.Q.R.S.T.U.    V.W.X.Y.Z.`.      ",
"             +.+++@+#+$+%+&+*+=+-+;+>+,+'+)+!+        ~+{+            ",
"            ]+^+/+/+/+/+/+/+/+/+/+/+=.(+_+:+<+        [+}+            ",
"                                      |+1+2+3+4+                      ",
"                                        5+6+7+8+                      ",
"                                          9+0+a+                      ",
"                                            b+c+                      ",
"                                            d+e+                      ",
"                                                                      ",
"                                                                      ",
"                                                                      ",
"                                                                      ",
"                                                                      ",
"                                                                      ",
"                                                                      ",
"                                                                      ",
"                                                                      "};
