/* XPM */
static char * tiro5_xpm[] = {
"35 37 242 2",
"  	c None",
". 	c #252525",
"+ 	c #1B1B1B",
"@ 	c #4D4D4D",
"# 	c #F66765",
"$ 	c #191919",
"% 	c #515252",
"& 	c #F88080",
"* 	c #F7A29A",
"= 	c #F97553",
"- 	c #FA4A43",
"; 	c #F95D67",
"> 	c #F4A29C",
", 	c #F8564A",
"' 	c #F98E8F",
") 	c #1C2021",
"! 	c #221515",
"~ 	c #3A2E2E",
"{ 	c #4C4F4F",
"] 	c #FB7260",
"^ 	c #FBA21C",
"/ 	c #FDC50A",
"( 	c #FC7A0D",
"_ 	c #FA5436",
": 	c #F7A222",
"< 	c #F78D48",
"[ 	c #F88E89",
"} 	c #372D2C",
"| 	c #7F0202",
"1 	c #950104",
"2 	c #8A8282",
"3 	c #F8853E",
"4 	c #FCD706",
"5 	c #FDF202",
"6 	c #FBC906",
"7 	c #F9C503",
"8 	c #F89925",
"9 	c #FB3B4D",
"0 	c #8E8785",
"a 	c #A55150",
"b 	c #D5030A",
"c 	c #895252",
"d 	c #F95A55",
"e 	c #F73A24",
"f 	c #F78C0C",
"g 	c #FBEB06",
"h 	c #FDF401",
"i 	c #FBC00C",
"j 	c #F1845E",
"k 	c #585A5D",
"l 	c #878489",
"m 	c #5A2934",
"n 	c #4E050A",
"o 	c #3E0607",
"p 	c #424242",
"q 	c #F65A65",
"r 	c #F68043",
"s 	c #F6AB11",
"t 	c #F9B508",
"u 	c #F6E20E",
"v 	c #ACA43F",
"w 	c #A0968E",
"x 	c #565656",
"y 	c #34465C",
"z 	c #2D6192",
"A 	c #014B7D",
"B 	c #0C2036",
"C 	c #111E2B",
"D 	c #444444",
"E 	c #F97A31",
"F 	c #F7923B",
"G 	c #F7683D",
"H 	c #F76B67",
"I 	c #BC9478",
"J 	c #2B2B2B",
"K 	c #000814",
"L 	c #01355A",
"M 	c #0267A6",
"N 	c #016CAD",
"O 	c #0265A2",
"P 	c #024674",
"Q 	c #112337",
"R 	c #31363E",
"S 	c #434444",
"T 	c #F96D6A",
"U 	c #F8807D",
"V 	c #444342",
"W 	c #072941",
"X 	c #021F37",
"Y 	c #013D66",
"Z 	c #015C96",
"` 	c #016DAD",
" .	c #0372B3",
"..	c #015F9A",
"+.	c #01406B",
"@.	c #172638",
"#.	c #34383F",
"$.	c #F9A19F",
"%.	c #4B4F56",
"&.	c #295279",
"*.	c #0376BE",
"=.	c #03568B",
"-.	c #022731",
";.	c #048BC4",
">.	c #028BCE",
",.	c #017CBF",
"'.	c #0270B2",
").	c #025C96",
"!.	c #013C64",
"~.	c #1B2839",
"{.	c #363A40",
"].	c #797E84",
"^.	c #365A82",
"/.	c #0265A4",
"(.	c #056EAF",
"_.	c #0575B5",
":.	c #059ADC",
"<.	c #03BEFF",
"[.	c #02A6E8",
"}.	c #0189CE",
"|.	c #027BBF",
"1.	c #036FB1",
"2.	c #025A91",
"3.	c #00365B",
"4.	c #202A3A",
"5.	c #393C41",
"6.	c #6A5555",
"7.	c #8C6968",
"8.	c #4F0001",
"9.	c #013254",
"0.	c #04548A",
"a.	c #0467A5",
"b.	c #036BB1",
"c.	c #017CC4",
"d.	c #02A4E6",
"e.	c #03BBFC",
"f.	c #02A3E5",
"g.	c #0285CA",
"h.	c #017ABC",
"i.	c #026DAE",
"j.	c #01568C",
"k.	c #002C4D",
"l.	c #23282F",
"m.	c #3D3C3C",
"n.	c #404040",
"o.	c #141B1A",
"p.	c #7F0606",
"q.	c #C82627",
"r.	c #8B0205",
"s.	c #340A10",
"t.	c #0E1119",
"u.	c #01375C",
"v.	c #025A90",
"w.	c #0368A9",
"x.	c #026EB4",
"y.	c #0183C9",
"z.	c #02A8EA",
"A.	c #03B9FA",
"B.	c #02A0E2",
"C.	c #0284C8",
"D.	c #0277BA",
"E.	c #035F98",
"F.	c #00182C",
"G.	c #330001",
"H.	c #3B1F1F",
"I.	c #706E6E",
"J.	c #1F1F1F",
"K.	c #320200",
"L.	c #BE0E13",
"M.	c #8D0000",
"N.	c #2F1314",
"O.	c #454545",
"P.	c #363637",
"Q.	c #111119",
"R.	c #023C65",
"S.	c #045B95",
"T.	c #0468AA",
"U.	c #016EB6",
"V.	c #0187CD",
"W.	c #02ABED",
"X.	c #03B6F7",
"Y.	c #0292D0",
"Z.	c #015784",
"`.	c #5C0D16",
" +	c #AD0005",
".+	c #B32526",
"++	c #090909",
"@+	c #4B4B4B",
"#+	c #555253",
"$+	c #4A4A4A",
"%+	c #303032",
"&+	c #090913",
"*+	c #02406D",
"=+	c #045E9A",
"-+	c #0369AB",
";+	c #026FB6",
">+	c #028ACD",
",+	c #0395CF",
"'+	c #002F45",
")+	c #8E230D",
"!+	c #E6220B",
"~+	c #B13029",
"{+	c #5B6363",
"]+	c #5D5D5D",
"^+	c #797979",
"/+	c #464646",
"(+	c #2C2C2F",
"_+	c #01010E",
":+	c #024573",
"<+	c #04619E",
"[+	c #04619F",
"}+	c #014574",
"|+	c #661A1A",
"1+	c #C04206",
"2+	c #FA5704",
"3+	c #A73F14",
"4+	c #886F6B",
"5+	c #29292C",
"6+	c #001227",
"7+	c #033B63",
"8+	c #000D17",
"9+	c #86070B",
"0+	c #EA0C11",
"a+	c #CD3F06",
"b+	c #DB541E",
"c+	c #A25A4D",
"d+	c #A2A3A3",
"e+	c #414141",
"f+	c #262626",
"g+	c #1D0102",
"h+	c #860303",
"i+	c #CE3232",
"j+	c #465051",
"k+	c #747377",
"l+	c #7B6B69",
"m+	c #1F1F1E",
"n+	c #676767",
"o+	c #3E3D3D",
"p+	c #1F1E1E",
"q+	c #8F8182",
"r+	c #787D7E",
"s+	c #656565",
"                                                                      ",
"                                                                      ",
"                                                                      ",
"                                                                      ",
"                                                                      ",
"                                                                      ",
"                                                                      ",
"                                .                                     ",
"                              + @                                     ",
"                  #           $ %                                     ",
"      & * = - ; > , '       ) ! ~ {                                   ",
"      ] ^ / ( _ : < [       } | 1 2                                   ",
"        3 4 5 6 7 8 9       0 a b c                                   ",
"        d e f g h i j     k l m n o p                                 ",
"          q r s t u v w x y z A B C D                                 ",
"            E F G H I J K L M N O P Q R S                             ",
"            T U       V W X Y Z `  ...+.@.#.S                         ",
"            $.        %.&.*.=.-.;.>.,.'.).!.~.{.S                     ",
"                      ].^./.(._.:.<.[.}.|.1.2.3.4.5.S                 ",
"                    6.7.8.9.0.a.b.c.d.e.f.g.h.i.j.k.l.m.n.            ",
"                  o.p.q.r.s.t.u.v.w.x.y.z.A.B.C.D.E.F.G.H.I.          ",
"                  J.K.L.M.N.O.P.Q.R.S.T.U.V.W.X.Y.Z.`. +.+            ",
"                ++@+@ #+        $+%+&+*+=+-+;+>+,+'+)+!+~+{+          ",
"                ]+^+                /+(+_+:+<+[+}+|+1+2+3+4+          ",
"                                        D 5+6+7+8+9+0+a+b+c+d+        ",
"                                            e+f+g+h+i+j+k+l+m+n+      ",
"                                              $+o+p+q+r+      s+      ",
"                                                                      ",
"                                                                      ",
"                                                                      ",
"                                                                      ",
"                                                                      ",
"                                                                      ",
"                                                                      ",
"                                                                      ",
"                                                                      ",
"                                                                      "};
