/* XPM */
static char * tiro13_xpm[] = {
"35 37 243 2",
"  	c None",
". 	c #2A2A2A",
"+ 	c #7A797B",
"@ 	c #787E7F",
"# 	c #898484",
"$ 	c #494949",
"% 	c #929292",
"& 	c #393939",
"* 	c #8E5B54",
"= 	c #676568",
"- 	c #5B4E4E",
"; 	c #CE2324",
"> 	c #620202",
", 	c #1E1D1D",
"' 	c #3F3F40",
") 	c #B1ADAD",
"! 	c #B85946",
"~ 	c #E45814",
"{ 	c #DD350B",
"] 	c #D2090D",
"^ 	c #74080D",
"/ 	c #001527",
"( 	c #000715",
"_ 	c #313132",
": 	c #4A4A4A",
"< 	c #807B7A",
"[ 	c #7A554F",
"} 	c #D34205",
"| 	c #F05902",
"1 	c #9A2A08",
"2 	c #410F1B",
"3 	c #034C7E",
"4 	c #05578E",
"5 	c #01365D",
"6 	c #1F1F24",
"7 	c #414142",
"8 	c #614747",
"9 	c #F31F0F",
"0 	c #BB2207",
"a 	c #69241C",
"b 	c #016891",
"c 	c #027CBB",
"d 	c #026DB4",
"e 	c #0466A6",
"f 	c #024C7D",
"g 	c #02020E",
"h 	c #323234",
"i 	c #815556",
"j 	c #B00002",
"k 	c #7D090E",
"l 	c #002E49",
"m 	c #0288C1",
"n 	c #03B6F6",
"o 	c #029EE0",
"p 	c #0170B9",
"q 	c #0369AC",
"r 	c #045B95",
"s 	c #013257",
"t 	c #212125",
"u 	c #434343",
"v 	c #707070",
"w 	c #515151",
"x 	c #382929",
"y 	c #2F1414",
"z 	c #24040C",
"A 	c #025081",
"B 	c #0274B3",
"C 	c #028DD1",
"D 	c #03AEEF",
"E 	c #02B0F1",
"F 	c #0186CB",
"G 	c #026DB3",
"H 	c #0565A5",
"I 	c #024979",
"J 	c #070712",
"K 	c #353536",
"L 	c #545454",
"M 	c #353636",
"N 	c #672F30",
"O 	c #784B4D",
"P 	c #3B3939",
"Q 	c #404141",
"R 	c #313131",
"S 	c #424343",
"T 	c #272A2F",
"U 	c #002E4F",
"V 	c #015E97",
"W 	c #0273B5",
"X 	c #0181C5",
"Y 	c #029FE1",
"Z 	c #03BCFD",
"` 	c #029CDE",
" .	c #0171B9",
"..	c #0369AB",
"+.	c #035B92",
"@.	c #013051",
"#.	c #202125",
"$.	c #261012",
"%.	c #740204",
"&.	c #EE040F",
"*.	c #810203",
"=.	c #191918",
"-.	c #1E1E1E",
";.	c #434444",
">.	c #35393F",
",.	c #102238",
"'.	c #014C7E",
").	c #026CAD",
"!.	c #037BBE",
"~.	c #018FD2",
"{.	c #02AEEF",
"].	c #0181C8",
"^.	c #036BB1",
"/.	c #0365A1",
"(.	c #044675",
"_.	c #100A15",
":.	c #6D0206",
"<.	c #AB3A3A",
"[.	c #842F2E",
"}.	c #0E1818",
"|.	c #404243",
"1.	c #252E3B",
"2.	c #01375D",
"3.	c #025F9A",
"4.	c #0274B6",
"5.	c #0182C6",
"6.	c #02A1E3",
"7.	c #03BEFF",
"8.	c #0594D6",
"9.	c #0573B5",
"0.	c #0569A8",
"a.	c #02578D",
"b.	c #243952",
"c.	c #897B7C",
"d.	c #6C6162",
"e.	c #33383F",
"f.	c #0C2137",
"g.	c #014F81",
"h.	c #026CAE",
"i.	c #017CBE",
"j.	c #028FD1",
"k.	c #048CC2",
"l.	c #03476B",
"m.	c #056CAD",
"n.	c #026EB2",
"o.	c #355C86",
"p.	c #636973",
"q.	c #3F4143",
"r.	c #232D3A",
"s.	c #003A61",
"t.	c #01619C",
"u.	c #0373B5",
"v.	c #0169A9",
"w.	c #014A7A",
"x.	c #011223",
"y.	c #044E7E",
"z.	c #1C405E",
"A.	c #474542",
"B.	c #32373E",
"C.	c #071F36",
"D.	c #035386",
"E.	c #026DAF",
"F.	c #0168A8",
"G.	c #01578C",
"H.	c #02192E",
"I.	c #050D18",
"J.	c #7A7A7A",
"K.	c #F86A6A",
"L.	c #F88485",
"M.	c #F97773",
"N.	c #515252",
"O.	c #2F3134",
"P.	c #111D30",
"Q.	c #034069",
"R.	c #0066A6",
"S.	c #225582",
"T.	c #0C2943",
"U.	c #454546",
"V.	c #50511E",
"W.	c #D09B6E",
"X.	c #F7483D",
"Y.	c #F67F3E",
"Z.	c #F88A3F",
"`.	c #F86958",
" +	c #070707",
".+	c #470506",
"++	c #4F0D20",
"@+	c #52515B",
"#+	c #596272",
"$+	c #4C4C4A",
"%+	c #C29F80",
"&+	c #DDD224",
"*+	c #FAD807",
"=+	c #F6A409",
"-+	c #F8A916",
";+	c #F36C6B",
">+	c #8B7070",
",+	c #BE0206",
"'+	c #B72C2D",
")+	c #928A8A",
"!+	c #F27667",
"~+	c #FB8017",
"{+	c #FCDE02",
"]+	c #FDF903",
"^+	c #F8B40B",
"/+	c #F6382E",
"(+	c #FA4D4D",
"_+	c #FA7876",
":+	c #948F90",
"<+	c #8F1F20",
"[+	c #A20103",
"}+	c #6B4040",
"|+	c #FA606A",
"1+	c #F88633",
"2+	c #F8B90D",
"3+	c #FBCA05",
"4+	c #FCEF02",
"5+	c #FBCE04",
"6+	c #F65113",
"7+	c #F87C7A",
"8+	c #4C5050",
"9+	c #3E3333",
"0+	c #250F0F",
"a+	c #121A1A",
"b+	c #F8825B",
"c+	c #F6A41D",
"d+	c #F95938",
"e+	c #FC790B",
"f+	c #FDD307",
"g+	c #FCCA1A",
"h+	c #F98A7B",
"i+	c #1C1C1C",
"j+	c #F99092",
"k+	c #F85B53",
"l+	c #F4A6A3",
"m+	c #F8636D",
"n+	c #FA4F40",
"o+	c #FA743C",
"p+	c #F98F73",
"q+	c #FA5C4C",
"r+	c #787878",
"s+	c #F87774",
"t+	c #262626",
"                                                                      ",
"                                                                      ",
"                                                                      ",
"                                                                      ",
"                                                                      ",
"                                                                      ",
"                                                                      ",
"                                                                      ",
"                                                                      ",
"        .     + @ # . $                                               ",
"        % & * = - ; > , '                                             ",
"          ) ! ~ { ] ^ / ( _ :                                         ",
"          < [ } | 1 2 3 4 5 6 7                                       ",
"            8 9 0 a b c d e f g h $                                   ",
"            i j k l m n o p q r s t u               v w               ",
"            x y z A B C D E F G H I J K L M N O P Q R                 ",
"              S T U V W X Y Z `  ...+.@.#.$.%.&.*.=.-.                ",
"                ;.>.,.'.).!.~.E {.].^./.(._.:.<.[.}.                  ",
"                    |.1.2.3.4.5.6.7.8.9.0.a.b.c.d.                    ",
"                      ;.e.f.g.h.i.j.k.l.m.n.o.p.                      ",
"                          q.r.s.t.u.v.w.x.y.z.A.                      ",
"                            ;.B.C.D.E.F.G.H.I.J.  K.  L.M.            ",
"                              N.O.P.Q.R.S.T.U.V.W.X.Y.Z.`.            ",
"                                 +.+++@+#+$+  %+&+*+=+-+;+            ",
"                                >+,+'+)+      !+~+{+]+^+/+(+_+        ",
"                                :+<+[+}+      |+1+2+3+4+5+6+7+        ",
"                                8+9+0+a+        b+c+d+e+f+g+h+        ",
"                                  N.i+        j+k+l+m+n+o+p+q+        ",
"                                r+$ i+                  s+            ",
"                                  t+                                  ",
"                                                                      ",
"                                                                      ",
"                                                                      ",
"                                                                      ",
"                                                                      ",
"                                                                      ",
"                                                                      "};
