/* XPM */
static char * tiro7_xpm[] = {
"35 37 233 2",
"  	c None",
". 	c #FA6349",
"+ 	c #F7A49C",
"@ 	c #F87A75",
"# 	c #FA9C3B",
"$ 	c #FCB437",
"% 	c #FA6432",
"& 	c #FA4649",
"* 	c #F96A66",
"= 	c #F88E11",
"- 	c #FFF303",
"; 	c #FC7A0D",
"> 	c #FA3D46",
", 	c #F2BDC3",
"' 	c #FB5B5E",
") 	c #F73A23",
"! 	c #FBD704",
"~ 	c #FCBF08",
"{ 	c #F98C28",
"] 	c #F7932E",
"^ 	c #F85B51",
"/ 	c #F88688",
"( 	c #F44F59",
"_ 	c #F7A20D",
": 	c #FCF902",
"< 	c #F9C502",
"[ 	c #F79F23",
"} 	c #F88676",
"| 	c #F99133",
"1 	c #F6AB12",
"2 	c #FBE304",
"3 	c #FBD504",
"4 	c #FA7F2E",
"5 	c #FA5762",
"6 	c #151515",
"7 	c #404040",
"8 	c #F96B67",
"9 	c #F87F59",
"0 	c #F68738",
"a 	c #F8940F",
"b 	c #F6F305",
"c 	c #ED8E61",
"d 	c #121A1B",
"e 	c #1E1A1A",
"f 	c #383939",
"g 	c #747474",
"h 	c #F9A6A4",
"i 	c #F7525B",
"j 	c #F76663",
"k 	c #BAA050",
"l 	c #A4926B",
"m 	c #7B1414",
"n 	c #500202",
"o 	c #413B3B",
"p 	c #1E1F1F",
"q 	c #4F4F4F",
"r 	c #454950",
"s 	c #6D707A",
"t 	c #8A7F80",
"u 	c #B83B3B",
"v 	c #CE0B11",
"w 	c #736566",
"x 	c #4B4A49",
"y 	c #060F1A",
"z 	c #011E36",
"A 	c #1E4970",
"B 	c #315F8F",
"C 	c #310F2B",
"D 	c #6D0203",
"E 	c #960102",
"F 	c #A49999",
"G 	c #3D4E63",
"H 	c #07436A",
"I 	c #020C1B",
"J 	c #01639F",
"K 	c #016EB0",
"L 	c #03436D",
"M 	c #281524",
"N 	c #310606",
"O 	c #626260",
"P 	c #1D201F",
"Q 	c #3E2020",
"R 	c #816968",
"S 	c #848283",
"T 	c #355D88",
"U 	c #0470B4",
"V 	c #024D7E",
"W 	c #014574",
"X 	c #0168A8",
"Y 	c #03619B",
"Z 	c #0B2136",
"` 	c #393939",
" .	c #0D0D0D",
"..	c #1F1F1F",
"+.	c #1B1B1A",
"@.	c #800100",
"#.	c #B53837",
"$.	c #791616",
"%.	c #003C64",
"&.	c #0367A6",
"*.	c #056EAD",
"=.	c #021E1C",
"-.	c #016CAB",
";.	c #026FB1",
">.	c #01426D",
",.	c #31363E",
"'.	c #626262",
").	c #616262",
"!.	c #800104",
"~.	c #D5020B",
"{.	c #650307",
"].	c #140A14",
"^.	c #045890",
"/.	c #0570B1",
"(.	c #0588C3",
"_.	c #04A1E2",
":.	c #027CBF",
"<.	c #015F9A",
"[.	c #122337",
"}.	c #434444",
"|.	c #7B3233",
"1.	c #401111",
"2.	c #181A1D",
"3.	c #023A61",
"4.	c #037AC1",
"5.	c #03BEFF",
"6.	c #028CD0",
"7.	c #0271B3",
"8.	c #01436F",
"9.	c #2F353E",
"0.	c #4E4E4E",
"a.	c #505050",
"b.	c #14141B",
"c.	c #025A90",
"d.	c #026CB2",
"e.	c #02A0E3",
"f.	c #02A8EA",
"g.	c #017DC1",
"h.	c #02609C",
"i.	c #102237",
"j.	c #333335",
"k.	c #013960",
"l.	c #0467A8",
"m.	c #017BC2",
"n.	c #03BDFE",
"o.	c #018ED2",
"p.	c #0372B5",
"q.	c #014673",
"r.	c #2E343D",
"s.	c #4A4A4A",
"t.	c #04578F",
"u.	c #026DB3",
"v.	c #029FE2",
"w.	c #02A9EB",
"x.	c #037EC2",
"y.	c #02629E",
"z.	c #0D2137",
"A.	c #424344",
"B.	c #343435",
"C.	c #01365C",
"D.	c #0466A8",
"E.	c #0078C1",
"F.	c #03BCFD",
"G.	c #0190D2",
"H.	c #0173B4",
"I.	c #014775",
"J.	c #2D343D",
"K.	c #494949",
"L.	c #16161C",
"M.	c #03568D",
"N.	c #029EE0",
"O.	c #03ABEC",
"P.	c #027EC2",
"Q.	c #0263A0",
"R.	c #0A1F36",
"S.	c #414243",
"T.	c #363637",
"U.	c #013459",
"V.	c #0366A7",
"W.	c #0176BE",
"X.	c #03BAFB",
"Y.	c #018ED1",
"Z.	c #026CA9",
"`.	c #013D65",
" +	c #2C2F33",
".+	c #18181F",
"++	c #03558B",
"@+	c #036AAF",
"#+	c #0291CF",
"$+	c #0293CC",
"%+	c #01517D",
"&+	c #001324",
"*+	c #1D0707",
"=+	c #424141",
"-+	c #373738",
";+	c #012D4F",
">+	c #05578E",
",+	c #014B7B",
"'+	c #003046",
")+	c #651919",
"!+	c #8A090A",
"~+	c #810002",
"{+	c #3B2020",
"]+	c #1A1A1C",
"^+	c #001426",
"/+	c #5C0C15",
"(+	c #8F250F",
"_+	c #BF3E06",
":+	c #E9200A",
"<+	c #D52323",
"[+	c #918B8B",
"}+	c #383838",
"|+	c #3A0203",
"1+	c #A70507",
"2+	c #E90E11",
"3+	c #FC5E03",
"4+	c #CA3A05",
"5+	c #54433F",
"6+	c #7B8080",
"7+	c #474747",
"8+	c #1A1919",
"9+	c #B52D2D",
"0+	c #A5393A",
"a+	c #B04515",
"b+	c #CE542D",
"c+	c #89716D",
"d+	c #666D6E",
"e+	c #727175",
"f+	c #A14029",
"g+	c #9E9695",
"h+	c #5B5B5B",
"i+	c #2D2D2D",
"j+	c #979797",
"                                                                      ",
"                                                                      ",
"                                                                      ",
"                                                                      ",
"                    . + @                                             ",
"                    # $ % &                                           ",
"                  * = - ; > ,                                         ",
"                  ' ) ! ~ { ] ^ /                                     ",
"                    ( _ : < [ }                                       ",
"                    | 1 2 3 4 5           6 7                         ",
"                  8 9 0 a b c         d e f g                         ",
"                  h   i j k l         m n o                           ",
"                            p q r s t u v w                           ",
"                          x y z A B C D E F                           ",
"                          G H I J K L M N O                           ",
"                  P Q R S T U V W X Y Z `                             ",
"               ...+.@.#.$.%.&.*.=.-.;.>.,.                            ",
"              '.).7 !.~.{.].^./.(._.:.<.[.}.                          ",
"                  ).  |.1.2.3.&.4.5.6.7.8.9.                          ",
"                        0.a.b.c.d.e.f.g.h.i.}.                        ",
"                            j.k.l.m.n.o.p.q.r.                        ",
"                            s.b.t.u.v.w.x.y.z.A.                      ",
"                              B.C.D.E.F.G.H.I.J.                      ",
"                              K.L.M.d.N.O.P.Q.R.S.                    ",
"                                T.U.V.W.X.Y.Z.`. +}.                  ",
"                                s..+++@+#+$+%+&+*+=+                  ",
"                                  -+;+>+,+'+)+!+~+{+                  ",
"                                  s.]+^+/+(+_+:+<+[+                  ",
"                                    }+|+1+2+3+4+5+6+                  ",
"                                    7+8+9+0+a+b+c+                    ",
"                                          d+e+f+g+                    ",
"                                              g h+                    ",
"                                                i+j+                  ",
"                                                                      ",
"                                                                      ",
"                                                                      ",
"                                                                      "};
