/* XPM */
static char * tiro6_xpm[] = {
"35 37 244 2",
"  	c None",
". 	c #FA5F5C",
"+ 	c #F98275",
"@ 	c #F8998D",
"# 	c #F85455",
"$ 	c #FA902C",
"% 	c #FCB92D",
"& 	c #FB6B2A",
"* 	c #FB4049",
"= 	c #F6827F",
"- 	c #F66D6C",
"; 	c #F88383",
"> 	c #F87F29",
", 	c #FEF603",
"' 	c #FDB407",
") 	c #FA5832",
"! 	c #F78A43",
"~ 	c #F95B37",
"{ 	c #F88585",
"] 	c #121212",
"^ 	c #595959",
"/ 	c #FB7271",
"( 	c #F8483F",
"_ 	c #F89008",
": 	c #FCFF00",
"< 	c #FAC805",
"[ 	c #F8B90D",
"} 	c #F78F49",
"| 	c #1A1A1A",
"1 	c #444444",
"2 	c #757575",
"3 	c #F75762",
"4 	c #F44B46",
"5 	c #F8C60B",
"6 	c #FDFB01",
"7 	c #F9BE04",
"8 	c #FA7436",
"9 	c #FA5F68",
"0 	c #151516",
"a 	c #261010",
"b 	c #3A3636",
"c 	c #F99433",
"d 	c #F7A319",
"e 	c #FAC506",
"f 	c #FBF004",
"g 	c #EE9357",
"h 	c #864949",
"i 	c #A50105",
"j 	c #573333",
"k 	c #F9645F",
"l 	c #F87356",
"m 	c #F68644",
"n 	c #F74E2D",
"o 	c #E0AF45",
"p 	c #9A9345",
"q 	c #C1B7B4",
"r 	c #5E5D5C",
"s 	c #575A5F",
"t 	c #8A8689",
"u 	c #845C5C",
"v 	c #D7030B",
"w 	c #A16262",
"x 	c #F99996",
"y 	c #F89090",
"z 	c #F86768",
"A 	c #68645E",
"B 	c #393939",
"C 	c #112336",
"D 	c #324E6D",
"E 	c #3B587F",
"F 	c #3E1129",
"G 	c #4E0304",
"H 	c #540202",
"I 	c #504E4E",
"J 	c #051423",
"K 	c #022440",
"L 	c #075D96",
"M 	c #016FB2",
"N 	c #034874",
"O 	c #171B2C",
"P 	c #282929",
"Q 	c #404B5B",
"R 	c #074B75",
"S 	c #03375C",
"T 	c #014877",
"U 	c #0166A6",
"V 	c #026DAF",
"W 	c #033F68",
"X 	c #2D333D",
"Y 	c #464747",
"Z 	c #52647D",
"` 	c #1167A5",
" .	c #0470B4",
"..	c #013250",
"+.	c #015182",
"@.	c #0273B4",
"#.	c #0268A7",
"$.	c #00355A",
"%.	c #30353D",
"&.	c #434444",
"*.	c #0D1818",
"=.	c #793F3E",
"-.	c #8F605E",
";.	c #341A1A",
">.	c #015286",
",.	c #056BAB",
"'.	c #056EA9",
").	c #058EC1",
"!.	c #0397D8",
"~.	c #017BBE",
"{.	c #0163A0",
"].	c #002C4B",
"^.	c #34383F",
"/.	c #191919",
"(.	c #180E0C",
"_.	c #AD0205",
":.	c #D40209",
"<.	c #640308",
"[.	c #010E1C",
"}.	c #05568E",
"|.	c #046BAC",
"1.	c #0486CB",
"2.	c #03BEFF",
"3.	c #0296D8",
"4.	c #0279BC",
"5.	c #025F9A",
"6.	c #001F39",
"7.	c #383B40",
"8.	c #2D2D2D",
"9.	c #4E4E4E",
"0.	c #3E3E3E",
"a.	c #5F1315",
"b.	c #AC181A",
"c.	c #560B0D",
"d.	c #15171A",
"e.	c #011D37",
"f.	c #035D95",
"g.	c #026BB1",
"h.	c #0190D4",
"i.	c #03BAFB",
"j.	c #0191D4",
"k.	c #0277BA",
"l.	c #025B94",
"m.	c #0B2137",
"n.	c #3B3E41",
"o.	c #7B7B7B",
"p.	c #5F6060",
"q.	c #2A2B2B",
"r.	c #505050",
"s.	c #353537",
"t.	c #012A4A",
"u.	c #04619D",
"v.	c #026DB3",
"w.	c #0298DB",
"x.	c #03B6F7",
"y.	c #028BCF",
"z.	c #0376B7",
"A.	c #01568B",
"B.	c #152438",
"C.	c #3F4143",
"D.	c #4A4A4A",
"E.	c #2E2E30",
"F.	c #013358",
"G.	c #0564A3",
"H.	c #026EB5",
"I.	c #029EE0",
"J.	c #03B2F3",
"K.	c #0185C9",
"L.	c #0272B4",
"M.	c #015084",
"N.	c #1C283A",
"O.	c #424344",
"P.	c #494949",
"Q.	c #28282B",
"R.	c #023B64",
"S.	c #0565A5",
"T.	c #016FB7",
"U.	c #02A3E6",
"V.	c #03AEEF",
"W.	c #0283C8",
"X.	c #0271B3",
"Y.	c #014572",
"Z.	c #222730",
"`.	c #222226",
" +	c #02426F",
".+	c #0367A7",
"++	c #0170B8",
"@+	c #02A9EB",
"#+	c #02A8EA",
"$+	c #0277B5",
"%+	c #024E7C",
"&+	c #12040B",
"*+	c #322828",
"=+	c #3C3C3C",
"-+	c #1D1D21",
";+	c #024878",
">+	c #0468A9",
",+	c #016FB8",
"'+	c #039DDA",
")+	c #016D9A",
"!+	c #3A101B",
"~+	c #84030B",
"{+	c #760001",
"]+	c #4A3738",
"^+	c #454545",
"/+	c #15151C",
"(+	c #034C7D",
"_+	c #055C98",
":+	c #014A77",
"<+	c #4C2123",
"[+	c #92280B",
"}+	c #D61B08",
"|+	c #D92121",
"1+	c #9F9999",
"2+	c #404041",
"3+	c #0C0C11",
"4+	c #012B4A",
"5+	c #500C16",
"6+	c #98170A",
"7+	c #E05304",
"8+	c #EC4308",
"9+	c #6E342A",
"0+	c #646B6B",
"a+	c #050000",
"b+	c #790506",
"c+	c #DB070B",
"d+	c #DC330B",
"e+	c #FD6106",
"f+	c #A45C4F",
"g+	c #8E8382",
"h+	c #363636",
"i+	c #460000",
"j+	c #AE4D4D",
"k+	c #434C4D",
"l+	c #9C5E56",
"m+	c #9E3E24",
"n+	c #A6A7A7",
"o+	c #414141",
"p+	c #767677",
"q+	c #747576",
"r+	c #747474",
"s+	c #404040",
"t+	c #AFAFAF",
"u+	c #666666",
"                                                                      ",
"                                                                      ",
"                                                                      ",
"                                                                      ",
"                                                                      ",
"                                                                      ",
"            . + @ #                                                   ",
"              $ % & *   = -                                           ",
"            ; > , ' ) ! ~ {           ] ^                             ",
"            / ( _ : < [ }           | 1 2                             ",
"              3 4 5 6 7 8 9       0 a b                               ",
"                c d e f g         h i j                               ",
"              k l m n o p q r s t u v w                               ",
"              x y   z   A B C D E F G H                               ",
"                        I J K L M N O P                               ",
"                        Q R S T U V W X Y                             ",
"                        Z `  ...+.@.#.$.%.&.                          ",
"                  *.=.-.;.>.,.'.).!.~.{.].^.&.                        ",
"                /.(._.:.<.[.}.|.1.2.3.4.5.6.7.                        ",
"              8.9.0.a.b.c.d.e.f.g.h.i.j.k.l.m.n.                      ",
"              o.  p.    q.r.s.t.u.v.w.x.y.z.A.B.C.                    ",
"                            D.E.F.G.H.I.J.K.L.M.N.O.                  ",
"                              P.Q.R.S.T.U.V.W.X.Y.Z.&.                ",
"                                P.`. +.+++@+#+$+%+&+*+=+              ",
"                                  P.-+;+>+,+'+)+!+~+{+]+              ",
"                                    ^+/+(+_+:+<+[+}+|+1+              ",
"                                      2+3+4+5+6+7+8+9+0+              ",
"                                        =+a+b+c+d+e+f+g+              ",
"                                          h+i+j+k+l+m+n+              ",
"                                          o+p+  q+  r+s+t+            ",
"                                                      u+r.            ",
"                                                                      ",
"                                                                      ",
"                                                                      ",
"                                                                      ",
"                                                                      ",
"                                                                      "};
