/* XPM */
static char * tiro9_xpm[] = {
"35 37 247 2",
"  	c None",
". 	c #FB7271",
"+ 	c #F77B7A",
"@ 	c #FA7C60",
"# 	c #F9746A",
"$ 	c #F95F69",
"% 	c #F94943",
"& 	c #F88F11",
"* 	c #FDCF14",
"= 	c #F89988",
"- 	c #F96B67",
"; 	c #F87658",
"> 	c #F36264",
", 	c #F62F16",
"' 	c #FDE702",
") 	c #FDBB09",
"! 	c #F96A40",
"~ 	c #4C4C4C",
"{ 	c #F87E7F",
"] 	c #F99234",
"^ 	c #F7AA16",
"/ 	c #F9CB09",
"( 	c #FCDB05",
"_ 	c #FB6F20",
": 	c #FA4146",
"< 	c #676767",
"[ 	c #242424",
"} 	c #212121",
"| 	c #F76861",
"1 	c #F68038",
"2 	c #F8B708",
"3 	c #FDFC02",
"4 	c #FABB05",
"5 	c #F9543F",
"6 	c #F77D85",
"7 	c #686969",
"8 	c #3A3B3B",
"9 	c #171716",
"0 	c #0D1918",
"a 	c #F86B6A",
"b 	c #F74535",
"c 	c #FBE804",
"d 	c #FBD203",
"e 	c #F8B412",
"f 	c #F79A1D",
"g 	c #F4A09E",
"h 	c #616262",
"i 	c #353333",
"j 	c #830202",
"k 	c #803635",
"l 	c #C69D61",
"m 	c #E0C92F",
"n 	c #FB7A23",
"o 	c #F87F38",
"p 	c #F87C66",
"q 	c #F7645F",
"r 	c #7E4243",
"s 	c #F5040F",
"t 	c #A44241",
"u 	c #8B8181",
"v 	c #5E646E",
"w 	c #454340",
"x 	c #717171",
"y 	c #4D501B",
"z 	c #CBA28C",
"A 	c #F46F66",
"B 	c #FA6F76",
"C 	c #F99193",
"D 	c #6C2C2C",
"E 	c #7A0205",
"F 	c #6B0206",
"G 	c #29405C",
"H 	c #345B84",
"I 	c #153D5C",
"J 	c #040A13",
"K 	c #4B4B4B",
"L 	c #303030",
"M 	c #290F12",
"N 	c #090A15",
"O 	c #025991",
"P 	c #026FB4",
"Q 	c #044977",
"R 	c #021E36",
"S 	c #162E47",
"T 	c #4E4D4B",
"U 	c #545454",
"V 	c #1E1F23",
"W 	c #044878",
"X 	c #056AA9",
"Y 	c #010814",
"Z 	c #015A92",
"` 	c #245785",
" .	c #5E6675",
"..	c #353536",
"+.	c #013153",
"@.	c #0365A2",
"#.	c #0573B6",
"$.	c #034365",
"%.	c #014D7E",
"&.	c #0169A9",
"*.	c #0063A1",
"=.	c #524D57",
"-.	c #928888",
";.	c #6F3938",
">.	c #121919",
",.	c #444444",
"'.	c #090913",
").	c #035A92",
"!.	c #036BB1",
"~.	c #0595D7",
"{.	c #048CC3",
"].	c #0169AA",
"^.	c #026EAF",
"/.	c #033C62",
"(.	c #500D1E",
"_.	c #C02123",
":.	c #A40104",
"<.	c #271111",
"[.	c #1E1F1F",
"}.	c #171717",
"|.	c #494949",
"1.	c #242427",
"2.	c #024777",
"3.	c #0369AB",
"4.	c #0181C8",
"5.	c #03BEFF",
"6.	c #028ED0",
"7.	c #0373B5",
"8.	c #035184",
"9.	c #111C2F",
"0.	c #480506",
"a.	c #B8070B",
"b.	c #853434",
"c.	c #413838",
"d.	c #585959",
"e.	c #535353",
"f.	c #252525",
"g.	c #012E50",
"h.	c #0565A4",
"i.	c #0170B8",
"j.	c #02ACEE",
"k.	c #02A2E3",
"l.	c #017CBF",
"m.	c #01609C",
"n.	c #092037",
"o.	c #323336",
"p.	c #121212",
"q.	c #8B7575",
"r.	c #9B9899",
"s.	c #4D5050",
"t.	c #454545",
"u.	c #0C0C15",
"v.	c #045890",
"w.	c #026CB2",
"x.	c #0298DC",
"y.	c #02B1F2",
"z.	c #0182C7",
"A.	c #026DAE",
"B.	c #003A62",
"C.	c #32373E",
"D.	c #505151",
"E.	c #4A4A4A",
"F.	c #262629",
"G.	c #024675",
"H.	c #0368AB",
"I.	c #0080C7",
"J.	c #03BDFE",
"K.	c #0192D5",
"L.	c #0275B8",
"M.	c #025184",
"N.	c #222C3A",
"O.	c #434444",
"P.	c #373738",
"Q.	c #012B4D",
"R.	c #0464A4",
"S.	c #016FB7",
"T.	c #02ABED",
"U.	c #02A3E5",
"V.	c #037DC0",
"W.	c #03629E",
"X.	c #061F36",
"Y.	c #3E4042",
"Z.	c #464646",
"`.	c #0E0E13",
" +	c #045286",
".+	c #036CB1",
"++	c #0297DA",
"@+	c #03B2F3",
"#+	c #0183C7",
"$+	c #013D65",
"%+	c #31363E",
"&+	c #272727",
"*+	c #001527",
"=+	c #034C7D",
"-+	c #0272B3",
";+	c #03B7F7",
">+	c #0293D6",
",+	c #015286",
"'+	c #212B3A",
")+	c #323232",
"!+	c #470101",
"~+	c #6F090D",
"{+	c #3C0F1B",
"]+	c #01638D",
"^+	c #028DC6",
"/+	c #0276B6",
"(+	c #02639F",
"_+	c #031E37",
":+	c #3D3F42",
"<+	c #818181",
"[+	c #BF1E1E",
"}+	c #CC070B",
"|+	c #992409",
"1+	c #69271D",
"2+	c #002D47",
"3+	c #025182",
"4+	c #01385E",
"5+	c #30353D",
"6+	c #685859",
"7+	c #D6220D",
"8+	c #F05B02",
"9+	c #BC2B07",
"0+	c #800C0E",
"a+	c #2F060F",
"b+	c #1F2329",
"c+	c #777677",
"d+	c #666669",
"e+	c #CF521E",
"f+	c #DF4C05",
"g+	c #F2230F",
"h+	c #C20003",
"i+	c #2D0000",
"j+	c #3E3D3D",
"k+	c #926F6C",
"l+	c #C14F32",
"m+	c #81544D",
"n+	c #5A3F3E",
"o+	c #965353",
"p+	c #3A2222",
"q+	c #3E3E3E",
"r+	c #1E1E1E",
"s+	c #9D9594",
"t+	c #897F7E",
"u+	c #727777",
"v+	c #505050",
"w+	c #737373",
"x+	c #BABABA",
"                                                                      ",
"                                                                      ",
"                                                                      ",
"                                                                      ",
"                                                                      ",
"                                              . + @ #                 ",
"                                            $ % & * =                 ",
"                                        - ; > , ' ) !                 ",
"                          ~             { ] ^ / ( _ :                 ",
"                          < [ }         | 1 2 3 4 5 6                 ",
"                          7 8 9 0       a b c d e f g                 ",
"                          h i j k         l m n o p q                 ",
"                            r s t u v w x y z A B   C                 ",
"                            D E F G H I J K                           ",
"                            L M N O P Q R S T                         ",
"                            U V W X X Y Z `  .                        ",
"                            ..+.@.#.$.%.&.*.=.-.;.>.                  ",
"                          ,.'.).!.~.{.].^./.(._.:.<.[.}.              ",
"                        |.1.2.3.4.5.6.7.8.9.0.a.b.c.d.e.f.            ",
"                        ..g.h.i.j.k.l.m.n.o.p.q.r.s.                  ",
"                      t.u.v.w.x.y.z.A.B.C.D.                          ",
"                    E.F.G.H.I.J.K.L.M.N.O.                            ",
"                    P.Q.R.S.T.U.V.W.X.Y.                              ",
"                  Z.`. +.+++@+#+^.$+%+                                ",
"                |.&+*+=+-+;+>+L.,+'+O.                                ",
"                )+!+~+{+]+^+/+(+_+:+                                  ",
"                <+[+}+|+1+2+3+4+5+O.                                  ",
"                  6+7+8+9+0+a+b+O.                                    ",
"                c+d+e+f+g+h+i+j+                                      ",
"                  k+l+m+n+o+p+q+                                      ",
"                  r+s+t+u+                                            ",
"                v+w+                                                  ",
"                  x+                                                  ",
"                                                                      ",
"                                                                      ",
"                                                                      ",
"                                                                      "};
