/* XPM */
static char * tiro3_xpm[] = {
"35 37 243 2",
"  	c None",
". 	c #444444",
"+ 	c #382929",
"@ 	c #8A8484",
"# 	c #808586",
"$ 	c #747777",
"% 	c #B8B8B8",
"& 	c #6B6B6B",
"* 	c #414243",
"= 	c #2E2828",
"- 	c #530001",
"; 	c #CE1718",
"> 	c #693C39",
", 	c #826561",
"' 	c #9C7E7A",
") 	c #383939",
"! 	c #5A5A5A",
"~ 	c #434444",
"{ 	c #35393F",
"] 	c #121E30",
"^ 	c #00182C",
"/ 	c #7A040D",
"( 	c #D31707",
"_ 	c #DD2F09",
": 	c #D2521D",
"< 	c #C24D2F",
"[ 	c #404243",
"} 	c #262E3B",
"| 	c #003459",
"1 	c #02588F",
"2 	c #025688",
"3 	c #3C111C",
"4 	c #992706",
"5 	c #F05902",
"6 	c #DA4A06",
"7 	c #525153",
"8 	c #7F7E80",
"9 	c #33383F",
"0 	c #0E2137",
"a 	c #014D7E",
"b 	c #026BAC",
"c 	c #017BBE",
"d 	c #0280BD",
"e 	c #01658E",
"f 	c #6A271D",
"g 	c #BD250B",
"h 	c #EC1517",
"i 	c #645F60",
"j 	c #797B7C",
"k 	c #222222",
"l 	c #5F5F5F",
"m 	c #606161",
"n 	c #4C5050",
"o 	c #3F4142",
"p 	c #242D3B",
"q 	c #01385E",
"r 	c #03609A",
"s 	c #0274B5",
"t 	c #0281C5",
"u 	c #029EE0",
"v 	c #03B6F6",
"w 	c #0288C2",
"x 	c #002641",
"y 	c #7A090F",
"z 	c #B50303",
"A 	c #8D5253",
"B 	c #212121",
"C 	c #2C2B2B",
"D 	c #472A2A",
"E 	c #996D6D",
"F 	c #774848",
"G 	c #292929",
"H 	c #494949",
"I 	c #32373E",
"J 	c #092036",
"K 	c #014F81",
"L 	c #036CAE",
"M 	c #027BBF",
"N 	c #028ED2",
"O 	c #02AEEF",
"P 	c #03B0F2",
"Q 	c #0188CD",
"R 	c #0367A9",
"S 	c #044978",
"T 	c #2A070D",
"U 	c #1B0000",
"V 	c #2A2A2A",
"W 	c #211515",
"X 	c #870103",
"Y 	c #F5040F",
"Z 	c #720203",
"` 	c #1F1017",
" .	c #1A2636",
"..	c #003B63",
"+.	c #01609B",
"@.	c #0274B6",
"#.	c #0082C6",
"$.	c #02A0E2",
"%.	c #03BCFE",
"&.	c #019CDF",
"*.	c #0170B9",
"=.	c #0369AD",
"-.	c #045D97",
";.	c #023053",
">.	c #1E1E1F",
",.	c #3F3F3F",
"'.	c #0B1718",
").	c #814645",
"!.	c #925555",
"~.	c #4F0D20",
"{.	c #082137",
"].	c #035387",
"^.	c #036EAF",
"/.	c #0290D3",
"(.	c #02B0F1",
"_.	c #02AEF0",
":.	c #0185CB",
"<.	c #026DB3",
"[.	c #0466A6",
"}.	c #024B7D",
"|.	c #000314",
"1.	c #313132",
"2.	c #4A4A4A",
"3.	c #8C8689",
"4.	c #29486D",
"5.	c #0266A3",
"6.	c #0170B1",
"7.	c #049DDE",
"8.	c #03BEFF",
"9.	c #029ADD",
"0.	c #0469AC",
"a.	c #045A94",
"b.	c #013459",
"c.	c #202024",
"d.	c #414142",
"e.	c #575D69",
"f.	c #2A5A87",
"g.	c #016AAA",
"h.	c #015993",
"i.	c #013A59",
"j.	c #058AC2",
"k.	c #037FC5",
"l.	c #026BB2",
"m.	c #0466A5",
"n.	c #034979",
"o.	c #040410",
"p.	c #323234",
"q.	c #F88586",
"r.	c #464544",
"s.	c #0A3354",
"t.	c #013E67",
"u.	c #011122",
"v.	c #045B90",
"w.	c #0675B5",
"x.	c #0469A8",
"y.	c #025A91",
"z.	c #013154",
"A.	c #222226",
"B.	c #424242",
"C.	c #F85B53",
"D.	c #F8827D",
"E.	c #FA6A65",
"F.	c #F76160",
"G.	c #D5A69E",
"H.	c #787878",
"I.	c #000610",
"J.	c #04263D",
"K.	c #0469A9",
"L.	c #046EB0",
"M.	c #0463A1",
"N.	c #034675",
"O.	c #0B0B16",
"P.	c #353536",
"Q.	c #F78562",
"R.	c #F79F28",
"S.	c #F88F2B",
"T.	c #F97933",
"U.	c #BBA25B",
"V.	c #4F511D",
"W.	c #414040",
"X.	c #1E364D",
"Y.	c #2D5A87",
"Z.	c #00568E",
"`.	c #012E4D",
" +	c #160C14",
".+	c #3A3B3B",
"++	c #FA545B",
"@+	c #F84744",
"#+	c #F8BE09",
"$+	c #FACD03",
"%+	c #FCEF03",
"&+	c #E3C232",
"*+	c #E79F97",
"=+	c #514F4C",
"-+	c #656D7A",
";+	c #574B4C",
">+	c #6D0206",
",+	c #54080B",
"'+	c #1E2020",
")+	c #F84E4F",
"!+	c #FB6035",
"~+	c #FB730C",
"{+	c #FBD805",
"]+	c #FDF903",
"^+	c #F9C005",
"/+	c #F74E29",
"(+	c #F86F6F",
"_+	c #8F6E6C",
":+	c #CE171A",
"<+	c #B60509",
"[+	c #704A4B",
"}+	c #F98C75",
"|+	c #FCAF0C",
"1+	c #FFF002",
"2+	c #FACF06",
"3+	c #F6A20F",
"4+	c #F7A01E",
"5+	c #F68149",
"6+	c #6E2C2C",
"7+	c #A30204",
"8+	c #6D1C1D",
"9+	c #F4B9BC",
"0+	c #F97F5F",
"a+	c #FCCB1A",
"b+	c #F9A00D",
"c+	c #F63929",
"d+	c #F3615C",
"e+	c #FA8924",
"f+	c #F8766A",
"g+	c #151A1A",
"h+	c #181716",
"i+	c #454545",
"j+	c #FB7167",
"k+	c #F79294",
"l+	c #F85C55",
"m+	c #FB5359",
"n+	c #F97773",
"o+	c #F9A9A7",
"p+	c #242525",
"q+	c #606060",
"r+	c #101010",
"s+	c #5E5E5E",
"t+	c #555555",
"                                                                      ",
"                                                                      ",
"                                                                      ",
"                                                                      ",
"                                                                      ",
"                                                                      ",
"                                                                      ",
"                                                                      ",
"                                                                      ",
"                                              . + @ # $   % &         ",
"                                            * = - ; > , ' ) !         ",
"                                        ~ { ] ^ / ( _ : <             ",
"                                      [ } | 1 2 3 4 5 6 7 8           ",
"                                  ~ 9 0 a b c d e f g h i j           ",
"              k l m n           o p q r s t u v w x y z A             ",
"                B C D E F G H I J K L M N O P Q R S T U V             ",
"                k W X Y Z `  ...+.@.#.$.%.&.*.=.-.;.>.,.              ",
"                  '.).!.~.{.].^.c /.(._.:.<.[.}.|.1.2.                ",
"                      3.4.5.b 6.7.8.9.*.0.a.b.c.d.                    ",
"                      e.f.g.h.i.j.k.l.m.n.o.p.H                       ",
"            q.        r.s.t.u.v.w.x.y.z.A.B.                          ",
"            C.D.E.F.G.H.I.J.K.L.M.N.O.P.2.                            ",
"            Q.R.S.T.U.V.W.X.Y.Z.`. +.+                                ",
"          ++@+#+$+%+&+*+  =+-+;+>+,+'+                                ",
"        )+!+~+{+]+^+/+(+      _+:+<+[+                                ",
"        }+|+1+2+3+4+5+        6+7+8+                                  ",
"      9+0+a+b+c+d+e+f+        g+h+i+                                  ",
"        j+k+l+m+    n+o+        p+q+                                  ",
"                                r+s+                                  ",
"                                  t+                                  ",
"                                                                      ",
"                                                                      ",
"                                                                      ",
"                                                                      ",
"                                                                      ",
"                                                                      ",
"                                                                      "};
