/* XPM */
static char * Nose_xpm[] = {
"32 32 4 1",
" 	c #FFFFFFFFFFFF",
".	c #000000000000",
"X	c #FFFFB0B5B0B5",
"o	c #32269992CCD8",
"                                ",
"                                ",
"          .....                 ",
"         .XXXXX.                ",
"        .XXXXXXX.               ",
"        .XXXXXXXX.              ",
"        .XXXXXX......           ",
"        .XXXXX.    . .          ",
"        .XXXX..ooooo..          ",
"        .XXXX.   oooX.          ",
"        .XXXX.   oooXX.         ",
"        .XXXXX.   oXXXX.        ",
"        .XXXXXX...XXXXXX.       ",
"        .XXXXXXXXXXXXXXXX.      ",
"        .XX..XXXXXXXXXXXXX.     ",
"        .X.XXXXXXXXXXXXXXX.     ",
"         .XXXXXXXXXXXXXXXXX.    ",
"         .XXXXXXXXXXXXXXXXX.    ",
"        .XXXXXXXXXXXXXXXXXX.    ",
"        .XXXXXXXXXXXXXXXXXX.    ",
"        .XXXXXXXXXXXXXXXXXX.    ",
"        .XXXXXXXXXXXXXXXXX.     ",
"        .XXXXXXXXXXXXXXXXX.     ",
"         .XXX...XXXXXXXXX.      ",
"          ....X...XXXXX..       ",
"            .XX.XX.....         ",
"            .XX.XX.             ",
"            .XX.XX.             ",
"            .XXX..... ..        ",
"           .XXX.XXXXX..X..      ",
"          .XXXXXXXXXXXX.XX.     ",
"          .................     "};
