/* XPM */
static char * Tutti_xpm[] = {
"54 50 151 2",
"  	c #000000000000",
". 	c #382638263826",
"X 	c #362636263626",
"o 	c #594A594A594A",
"O 	c #5D4B5D4B5D4B",
"+ 	c #564A564A564A",
"@ 	c #6C6D6C6D6C6D",
"# 	c #726D726D726D",
"$ 	c #686C686C686C",
"% 	c #5A4A5A4A5A4A",
"& 	c #666C666C666C",
"* 	c #706D706D706D",
"= 	c #6F6D6F6D6F6D",
"- 	c #646C646C646C",
"; 	c #5E4B5E4B5E4B",
": 	c #454835263526",
"> 	c #434833263326",
", 	c #392639263926",
"< 	c #3B273A273A27",
"1 	c #626B616B616B",
"2 	c #6B6D6B6D6B6D",
"3 	c #6D6D6D6D6D6D",
"4 	c #606B606B606B",
"5 	c #404740474047",
"6 	c #3B273B273B27",
"7 	c #444834263426",
"8 	c #3A2737263726",
"9 	c #899003000300",
"0 	c #808F15021502",
"q 	c #43483F273F27",
"w 	c #4D4946484648",
"e 	c #170214021402",
"r 	c #544A544A544A",
"t 	c #85900C010C01",
"y 	c #84900D010D01",
"u 	c #44483E273E27",
"i 	c #40473B273B27",
"p 	c #7C6F736D1102",
"a 	c #838F7A6E0300",
"s 	c #7D6F756E2F25",
"d 	c #292425242524",
"f 	c #DEDACED90800",
"g 	c #EFFDDEDA0901",
"h 	c #D4D9C5D70700",
"j 	c #4B494B494B49",
"k 	c #3A2738263826",
"l 	c #7F6F4F494F49",
"z 	c #766E4B494B49",
"x 	c #3C273A273A27",
"c 	c #3D2739263926",
"v 	c #382632263226",
"b 	c #584A51491A03",
"n 	c #656C5D4B0300",
"m 	c #E1FBD1D90800",
"M 	c #A9B49D930400",
"N 	c #8B90838F3626",
"B 	c #534A534A534A",
"V 	c #464846484648",
"C 	c #7C6F4D494D49",
"Z 	c #7B6E4C494C49",
"A 	c #716D716D716D",
"S 	c #696C696C696C",
"D 	c #3F273D273D27",
"F 	c #352631253125",
"G 	c #776E6E6D0400",
"H 	c #8F9185900600",
"J 	c #E5FBD4D90901",
"K 	c #B9B6ACB40500",
"L 	c #484848484848",
"P 	c #6E6D6E6D6E6D",
"I 	c #372637263726",
"U 	c #424840474047",
"Y 	c #534A4E494E49",
"T 	c #3A2736263626",
"R 	c #B3B5A6B40700",
"E 	c #BBB6ADB50700",
"W 	c #434841474147",
"Q 	c #564A52495249",
"! 	c #3C2739263926",
"~ 	c #95928B900600",
"^ 	c #F0FDDFDB0901",
"/ 	c #2F252B250100",
"( 	c #3A2735260100",
") 	c #3D2738260100",
"_ 	c #666C5F4B0200",
"` 	c #4D4947480100",
"' 	c #060006000600",
"] 	c #050004000400",
"[ 	c #544A51495149",
"{ 	c #534A4F494F49",
"} 	c #4E4947484748",
"| 	c #656C636C636C",
" .	c #392638263826",
"..	c #554A52495249",
"X.	c #52494E494E49",
"o.	c #616B616B616B",
"O.	c #424842484248",
"+.	c #554A51495149",
"@.	c #544A50495049",
"#.	c #3F273E273E27",
"$.	c #454843484348",
"%.	c #51494D494D49",
"&.	c #5F4B5D4B5D4B",
"*.	c #494849484948",
"=.	c #40473F273F27",
"-.	c #656C656C656C",
";.	c #584A554A554A",
":.	c #4E494B494B49",
">.	c #41473E273E27",
",.	c #51494E494E49",
"<.	c #5B4B584A584A",
"1.	c #584A584A584A",
"2.	c #514951495149",
"3.	c #636C616B616B",
"4.	c #616B5E4B5E4B",
"5.	c #594A564A564A",
"6.	c #686C676C676C",
"7.	c #6C6D6B6D6B6D",
"8.	c #636C636C636C",
"9.	c #6A6C6A6C6A6C",
"0.	c #616B5F4B5F4B",
"q.	c #352635263526",
"w.	c #464844484448",
"e.	c #424841474147",
"r.	c #3D273B273B27",
"t.	c #42483E273E27",
"y.	c #3C273B273B27",
"u.	c #444842484248",
"i.	c #4C494B494B49",
"p.	c #4E494E494E49",
"a.	c #4A484A484A48",
"s.	c #676C676C676C",
"d.	c #444844484448",
"f.	c #4F494F494F49",
"g.	c #3D273D273D27",
"h.	c #5B4B5B4B5B4B",
"j.	c #3025616B8790",
"k.	c #2F25666C9091",
"l.	c #31255E4B818F",
"z.	c #19039391DADA",
"x.	c #11029D93E9FC",
"c.	c #1F038D91CFD9",
"v.	c #2A25756EA7B4",
"b.	c #2924786EACB4",
"n.	c #2B25726DA3B3",
"m.	c #10019892E1FB",
"M.	c #10019592DBDA",
"N.	c #10019892E2FB",
"B.	c #11029992E3FB",
"V.	c #11029A92E5FB",
"C.	c #11029B92E6FB",
"                                                  . . . .                                                   ",
"                                                  . . . .                                                   ",
"                                              . . . . . . . .                                               ",
"                                            X . . o O O + . . X                                             ",
"                                            . . . @ # # $ . . .                                             ",
"                                            . % & * # # = & + .                                             ",
"                                            . - # # # # # # ; .                                             ",
"              . X                       . . . - # # # # # # ; . . .                       . .               ",
"              : >                       . , < 1 = @ 2 2 3 # 4 5 6 .                       7 7               ",
"          X 8 9 0 . X                   . q w w w e     . # # # r .                   . . t y . .           ",
"          X 8 9 0 . X                   . q w u i p a a s 4 $ # r .                   . . t y . .           ",
"          X 8 9 0 . X                   . q w d   f g g h   j # r .                   . . t y . .           ",
"          X k l z . X                 x q c v b n m g g m M N B + o V                 . . C Z . .           ",
"          X , A S . X               . D w F   G H J g g g g K   o # L .               . . = P . .           ",
"          X , A S . X           . I . U Y T   G H R E g g g K   o # L . I X           . . = P . .           ",
"          X , A S . X           . . . W Q !   G H H ~ ^ g g K   o # L . . X           . . = P . .           ",
"          X , A S . X       I I . . . W Q !   / ( ( ) _ _ _ `   o # L . . . I X       . . = P . .           ",
"          X , A S . X       . . , , . W Q ! ' ' ' ] ] ] ] ] ] ] o # L . , , . X       . . = P . .           ",
"          X , A S . . . . . . . [ { . W Q Q Q Q Q } w w w w w w | # L  ...X.. . . . . . . = P . .           ",
"          X , $ o.. . . O.L L L +.@.#.$.%.X.@.@.@.} w w w w w w &.S *.=.Q @.L L L 5 . . . & -.. .           ",
"          X . . . . . . ; # # # ;.Q Q :.. q w w w w w w w w w w >.. ,.Q Q <.# # # 1.. . . . . . .           ",
"          2.r r r r r r & # # # 3.4.Q :.. q w w w w w w w w w w >.. ,.Q Q 5.6.7.# 8.r r r r r r 2.          ",
"      X . 9.# # # # # # # # # # # = Q :.. q w w w w w w w w w w >.. ,.Q Q Q Q 0.# # # # # # # # -.. q.      ",
"    . I . 2.+ + + + + + + + + + + r w.e.. r.t.t.t.t.t.t.t.t.t.t.y.. u.w.w.w.w.i.+ + + + + + + + p.. I .     ",
"    . . . . . . . . . . . . . . . . . . . . . . . . . . . . . . . . . . . . . . . . . . . . . . . . . .     ",
"                                    . a.s.s.s.s.s.s.s.s.s.s.s.s.s.s.d..                                     ",
"                                    . f.# # # # # # # # # # # # # # L .                                     ",
"                                        g.h.# # # # # # # # # # + g.                                        ",
"                                        . 1.@ @ @ @ @ @ @ @ @ @ B .                                         ",
"                                            . . . . . . . . . .                                             ",
"                                            . . . j.k.k.l.. . .                                             ",
"                                            . . . z.x.x.c.. . .                                             ",
"                                                  v.b.b.n.                                                  ",
"                                                  . . . .                                                   ",
"                                        m.                        m.                                        ",
"                                        x.M.                    N.x.                                        ",
"                                            x.x.x.x.x.x.x.x.x.x.                                            ",
"                                            B.B.B.B.B.B.B.B.B.B.                                            ",
"                                                                                                            ",
"                                                                                                            ",
"                                            x.                x.                                            ",
"                                            V.                V.                                            ",
"                                              x.x.x.x.x.x.x.x.                                              ",
"                                                                                                            ",
"                                                                                                            ",
"                                              C.C.        C.                                                ",
"                                              x.x.        x.x.                                              ",
"                                                  V.V.V.V.                                                  ",
"                                                  x.x.x.x.                                                  ",
"                                                                                                            "};
