/* XPM */
static char * tiro4_xpm[] = {
"35 37 239 2",
"  	c None",
". 	c #383838",
"+ 	c #2A2A2A",
"@ 	c #747474",
"# 	c #1D1D1D",
"$ 	c #383A3A",
"% 	c #4B4F4F",
"& 	c #1B1A1A",
"* 	c #2F0A0A",
"= 	c #572F2F",
"- 	c #ABA8A8",
"; 	c #281314",
"> 	c #990001",
", 	c #F20811",
"' 	c #861C1D",
") 	c #1C1C1B",
"! 	c #F66A68",
"~ 	c #F99193",
"{ 	c #93807F",
"] 	c #820001",
"^ 	c #430405",
"/ 	c #141414",
"( 	c #444545",
"_ 	c #434444",
": 	c #424344",
"< 	c #414243",
"[ 	c #404243",
"} 	c #404143",
"| 	c #3F4143",
"1 	c #3F4042",
"2 	c #3E3F41",
"3 	c #3D3E3E",
"4 	c #403C3C",
"5 	c #3A3131",
"6 	c #F94530",
"7 	c #F88584",
"8 	c #848085",
"9 	c #1B112F",
"0 	c #0B2037",
"a 	c #052138",
"b 	c #021E36",
"c 	c #001C35",
"d 	c #00203A",
"e 	c #00233E",
"f 	c #002542",
"g 	c #002846",
"h 	c #002949",
"i 	c #002C4C",
"j 	c #002D4F",
"k 	c #002745",
"l 	c #090204",
"m 	c #4C0001",
"n 	c #7E1919",
"o 	c #A4A8A9",
"p 	c #F84749",
"q 	c #FB4248",
"r 	c #F75867",
"s 	c #F7A606",
"t 	c #F78E42",
"u 	c #FB4655",
"v 	c #4F4F4F",
"w 	c #3B5676",
"x 	c #006DB0",
"y 	c #026DAD",
"z 	c #026CAD",
"A 	c #036BAC",
"B 	c #016BAC",
"C 	c #026BAD",
"D 	c #036CAD",
"E 	c #036CAF",
"F 	c #046FAF",
"G 	c #016DAE",
"H 	c #026EAF",
"I 	c #026FB0",
"J 	c #036199",
"K 	c #170D1A",
"L 	c #980506",
"M 	c #F41008",
"N 	c #45423F",
"O 	c #7B7675",
"P 	c #F89C91",
"Q 	c #FA7023",
"R 	c #FC7221",
"S 	c #FA6423",
"T 	c #F8C901",
"U 	c #F8A910",
"V 	c #FB7127",
"W 	c #DE9E8D",
"X 	c #B8B8B8",
"Y 	c #141517",
"Z 	c #0A3C63",
"` 	c #0168A6",
" .	c #0164A3",
"..	c #0168A8",
"+.	c #0282C5",
"@.	c #0185C9",
"#.	c #0285CA",
"$.	c #0087CC",
"%.	c #0188CD",
"&.	c #0289CE",
"*.	c #018BCE",
"=.	c #028CCF",
"-.	c #018CD1",
";.	c #027CB7",
">.	c #0F1320",
",.	c #9C2005",
"'.	c #FE390D",
").	c #9D3807",
"!.	c #9E6962",
"~.	c #9FA0A0",
"{.	c #9C9C9C",
"].	c #989898",
"^.	c #FA6361",
"/.	c #FA7B3E",
"(.	c #FEEA07",
"_.	c #FEEC02",
":.	c #FCEC03",
"<.	c #FCF702",
"[.	c #FEF501",
"}.	c #FAF204",
"|.	c #9D9D2D",
"1.	c #333333",
"2.	c #000103",
"3.	c #020A18",
"4.	c #02172A",
"5.	c #001123",
"6.	c #022423",
"7.	c #07B4F4",
"8.	c #03BEFF",
"9.	c #03BDFE",
"0.	c #03BCFD",
"a.	c #03BBFC",
"b.	c #03BAFB",
"c.	c #03B9FB",
"d.	c #03B9FA",
"e.	c #03B8F9",
"f.	c #03A0DB",
"g.	c #001A28",
"h.	c #9C3507",
"i.	c #FE5B04",
"j.	c #E95905",
"k.	c #C25035",
"l.	c #3A3939",
"m.	c #3E3E3E",
"n.	c #F88A7E",
"o.	c #F88A16",
"p.	c #F88507",
"q.	c #F67B0D",
"r.	c #F6C60D",
"s.	c #F7A607",
"t.	c #F77415",
"u.	c #E8978A",
"v.	c #140D08",
"w.	c #084164",
"x.	c #0372B8",
"y.	c #0671B5",
"z.	c #0676B5",
"A.	c #0471B8",
"B.	c #026EBA",
"C.	c #0070BA",
"D.	c #0172BA",
"E.	c #0170BA",
"F.	c #006FB8",
"G.	c #0170B8",
"H.	c #0170B9",
"I.	c #0262A1",
"J.	c #001524",
"K.	c #960609",
"L.	c #F90D11",
"M.	c #342E2D",
"N.	c #747376",
"O.	c #FA635F",
"P.	c #FA4245",
"Q.	c #F35763",
"R.	c #FAA40E",
"S.	c #F68F39",
"T.	c #F74F51",
"U.	c #4D4B48",
"V.	c #3F5673",
"W.	c #0564A3",
"X.	c #0364A0",
"Y.	c #0563A2",
"Z.	c #0365A0",
"`.	c #0366A3",
" +	c #0464A2",
".+	c #0563A1",
"++	c #0562A0",
"@+	c #05619E",
"#+	c #04619D",
"$+	c #045F9C",
"%+	c #04609B",
"&+	c #055185",
"*+	c #00111F",
"=+	c #770607",
"-+	c #CE0000",
";+	c #6E7374",
">+	c #777778",
",+	c #F8552B",
"'+	c #F87F75",
")+	c #82858A",
"!+	c #12202F",
"~+	c #00172A",
"{+	c #031326",
"]+	c #00071A",
"^+	c #00000D",
"/+	c #02020F",
"(+	c #050510",
"_+	c #070712",
":+	c #090913",
"<+	c #0C0C15",
"[+	c #0E0E18",
"}+	c #101018",
"|+	c #121216",
"1+	c #181515",
"2+	c #FA7570",
"3+	c #F99F9E",
"4+	c #8D706E",
"5+	c #9B1615",
"6+	c #580308",
"7+	c #1B1213",
"8+	c #4C4C4C",
"9+	c #4A4A4A",
"0+	c #494949",
"a+	c #414141",
"b+	c #101D1D",
"c+	c #8F1919",
"d+	c #F40511",
"e+	c #970002",
"f+	c #2D1616",
"g+	c #1C1D1D",
"h+	c #2A0603",
"i+	c #480001",
"j+	c #191919",
"k+	c #393A3A",
"l+	c #585959",
"m+	c #060606",
"n+	c #6C6C6C",
"o+	c #505050",
"p+	c #7E7E7E",
"                                                                      ",
"                                                                      ",
"                                                                      ",
"                                                                      ",
"                                                                      ",
"                                                                      ",
"                                                                      ",
"                                                                      ",
"                                                                      ",
"                      .                                               ",
"                      + @                                             ",
"                      # $ %                                           ",
"                      & * = -                                         ",
"                      ; > , ' )                                       ",
"            ! ~         { ] ^ / ( _ : : < [ } | 1 2 3 4 5             ",
"            6 7         8 9 0 a b c d e f g h i j k l m n o           ",
"      p q r s t u     v w x y z A B C D E F G H I J K L M N O         ",
"    P Q R S T U V W X Y Z `  ...+.@.#.$.%.&.*.=.-.;.>.,.'.).!.~.{.].  ",
"  ^./.(._.:.<.[.}.|.1.2.3.4.5.6.7.8.9.0.a.b.c.d.e.f.g.h.i.j.k.l.m.m.  ",
"    n.o.p.q.r.s.t.u.  v.w.x.y.z.A.B.C.D.E.C.F.G.H.I.J.K.L.M.N.        ",
"      O.P.Q.R.S.T.    U.V.W.X.Y.Z.`. +.+++@+#+$+%+&+*+=+-+;+>+        ",
"            ,+'+        )+!+~+{+]+^+/+(+_+:+<+[+}+|+/ 1+/             ",
"            2+3+        4+5+6+7+8+9+9+0+0+0+9+9+9+9+9+0+a+            ",
"                      b+c+d+e+f+                                      ",
"                      g+h+i+                                          ",
"                      j+k+l+                                          ",
"                      m+n+                                            ",
"                      o+p+                                            ",
"                                                                      ",
"                                                                      ",
"                                                                      ",
"                                                                      ",
"                                                                      ",
"                                                                      ",
"                                                                      ",
"                                                                      ",
"                                                                      "};
