/* XPM */
static char * tiro2_xpm[] = {
"35 37 231 2",
"  	c None",
". 	c #888888",
"+ 	c #545454",
"@ 	c #8A8A8A",
"# 	c #1E1E1E",
"$ 	c #444444",
"% 	c #3A2323",
"& 	c #8F4E4E",
"* 	c #3C4D4D",
"= 	c #7E6562",
"- 	c #A0746E",
"; 	c #1C1C1C",
"> 	c #434444",
", 	c #2F2D2D",
"' 	c #4E0002",
") 	c #D10003",
"! 	c #DA2717",
"~ 	c #B6430A",
"{ 	c #D94F17",
"] 	c #937776",
"^ 	c #2C313A",
"/ 	c #00223C",
"( 	c #420915",
"_ 	c #911009",
": 	c #DF3B08",
"< 	c #FC6003",
"[ 	c #853209",
"} 	c #68696C",
"| 	c #2D333D",
"1 	c #00385F",
"2 	c #035E97",
"3 	c #01517D",
"4 	c #47191F",
"5 	c #95360D",
"6 	c #DE2C0D",
"7 	c #D0292A",
"8 	c #677576",
"9 	c #00385E",
"0 	c #0267A6",
"a 	c #017BBF",
"b 	c #028DC9",
"c 	c #027AA8",
"d 	c #46151E",
"e 	c #89070B",
"f 	c #B30203",
"g 	c #694A4A",
"h 	c #2D343D",
"i 	c #01385D",
"j 	c #0166A5",
"k 	c #027CBE",
"l 	c #029BDD",
"m 	c #03BAFB",
"n 	c #027DBC",
"o 	c #024573",
"p 	c #340912",
"q 	c #2D0101",
"r 	c #303030",
"s 	c #2E343D",
"t 	c #01365C",
"u 	c #0367A5",
"v 	c #027CBF",
"w 	c #029ADC",
"x 	c #03BCFD",
"y 	c #028BCF",
"z 	c #036BAF",
"A 	c #055387",
"B 	c #001326",
"C 	c #333333",
"D 	c #00365A",
"E 	c #0366A4",
"F 	c #027BBF",
"G 	c #03BDFE",
"H 	c #018BD0",
"I 	c #026BB0",
"J 	c #045D97",
"K 	c #012441",
"L 	c #333334",
"M 	c #4B4B4B",
"N 	c #696969",
"O 	c #474B4B",
"P 	c #706565",
"Q 	c #9A8383",
"R 	c #2B0101",
"S 	c #393939",
"T 	c #2F343D",
"U 	c #003459",
"V 	c #0265A3",
"W 	c #027BBE",
"X 	c #0199DC",
"Y 	c #018CD1",
"Z 	c #026CB1",
"` 	c #035E98",
" .	c #012543",
"..	c #323234",
"+.	c #171717",
"@.	c #272828",
"#.	c #2F1E1E",
"$.	c #990105",
"%.	c #CE0209",
"&.	c #510405",
"*.	c #111928",
"=.	c #02365A",
"-.	c #0266A4",
";.	c #017BBE",
">.	c #0298DB",
",.	c #03BEFF",
"'.	c #028DD1",
").	c #036CB1",
"!.	c #045D98",
"~.	c #012644",
"{.	c #4A4A4A",
"].	c #1F2020",
"^.	c #3B1212",
"/.	c #9E0F10",
"(.	c #A63434",
"_.	c #490F22",
":.	c #04375A",
"<.	c #0267A5",
"[.	c #0273B5",
"}.	c #0395D6",
"|.	c #045D99",
"1.	c #012746",
"2.	c #313133",
"3.	c #494949",
"4.	c #101C1D",
"5.	c #796765",
"6.	c #8B8284",
"7.	c #324360",
"8.	c #0168A8",
"9.	c #0169A9",
"0.	c #01598F",
"a.	c #058FC2",
"b.	c #048ACE",
"c.	c #026BB1",
"d.	c #035F9A",
"e.	c #012847",
"f.	c #303032",
"g.	c #405979",
"h.	c #0C649F",
"i.	c #01578D",
"j.	c #000D12",
"k.	c #05669D",
"l.	c #046DAF",
"m.	c #035F98",
"n.	c #012A49",
"o.	c #50504E",
"p.	c #2F3A4B",
"q.	c #013357",
"r.	c #020813",
"s.	c #03629F",
"t.	c #056EAF",
"u.	c #055D99",
"v.	c #022A4A",
"w.	c #343436",
"x.	c #535353",
"y.	c #010206",
"z.	c #063B5D",
"A.	c #1168A6",
"B.	c #015E99",
"C.	c #012C4B",
"D.	c #190E14",
"E.	c #3D3D3D",
"F.	c #F86D69",
"G.	c #F8857B",
"H.	c #FA5C52",
"I.	c #F3775F",
"J.	c #C09E7F",
"K.	c #32331A",
"L.	c #444443",
"M.	c #2F3B4B",
"N.	c #465C78",
"O.	c #344459",
"P.	c #610307",
"Q.	c #5D0509",
"R.	c #3A1414",
"S.	c #F7755F",
"T.	c #F79D29",
"U.	c #F89C21",
"V.	c #FBAD11",
"W.	c #CFD20E",
"X.	c #C99878",
"Y.	c #52504D",
"Z.	c #8B7878",
"`.	c #B22E2D",
" +	c #D2020A",
".+	c #814F50",
"++	c #F75268",
"@+	c #F8AA1B",
"#+	c #FAD202",
"$+	c #FEFC00",
"%+	c #F8A80F",
"&+	c #F76764",
"*+	c #6B5353",
"=+	c #981818",
"-+	c #940205",
";+	c #4C494A",
">+	c #FA4447",
",+	c #FB5F32",
"'+	c #FB9F0B",
")+	c #FDFC02",
"!+	c #F8CC09",
"~+	c #F68928",
"{+	c #F76355",
"]+	c #172222",
"^+	c #381414",
"/+	c #242423",
"(+	c #565757",
"_+	c #F96940",
":+	c #FCA50A",
"<+	c #FEF901",
"[+	c #F8A20B",
"}+	c #F69926",
"|+	c #F9972A",
"1+	c #F88274",
"2+	c #222222",
"3+	c #292929",
"4+	c #6B6C6C",
"5+	c #F99671",
"6+	c #FEEC0A",
"7+	c #F9A70B",
"8+	c #F73C33",
"9+	c #F26471",
"0+	c #F86E53",
"a+	c #F97370",
"b+	c #F9A9A7",
"c+	c #151515",
"d+	c #505050",
"e+	c #FA613A",
"f+	c #F98D62",
"g+	c #F8574C",
"h+	c #FB5A5D",
"                                                                      ",
"                                                                      ",
"                                                                      ",
"                                                                      ",
"                                                                      ",
"                                                                      ",
"                                                        .             ",
"                                            +         @ #             ",
"                                          $ % & * = - ;               ",
"                                        > , ' ) ! ~ { ]               ",
"                                      > ^ / ( _ : < [ }               ",
"                                    > | 1 2 3 4 5 6 7 8               ",
"                                  > | 9 0 a b c d e f g               ",
"                                > h i j k l m n o p q r               ",
"                              > s t u v w x y z A B C                 ",
"                            > s D E F w G H I J K L                   ",
"              M N O P Q R S T U V W X G Y Z `  ...                    ",
"              +.@.#.$.%.&.*.=.-.;.>.,.'.).!.~...{.                    ",
"                ].^./.(._.:.<.[.}.,.Y Z |.1.2.3.                      ",
"                  4.5.6.7.8.9.0.a.b.c.d.e.f.3.                        ",
"                        g.h.i.j.k.l.m.n.2.{.                          ",
"                      o.p.q.r.s.t.u.v.w.{.                            ",
"                        x.y.z.A.B.C.D.E.                              ",
"              F.G.H.I.J.K.L.M.N.O.P.Q.R.                              ",
"              S.T.U.V.W.X.  Y.  Z.`. +.+                              ",
"              ++@+#+$+%+&+      *+=+-+;+                              ",
"            >+,+'+)+!+~+{+      ]+^+/+(+                              ",
"            _+:+<+[+}+|+1+        2+3+4+                              ",
"            5+6+7+8+9+0+a+b+        c+d+                              ",
"            e+f+g+h+                                                  ",
"                                                                      ",
"                                                                      ",
"                                                                      ",
"                                                                      ",
"                                                                      ",
"                                                                      ",
"                                                                      "};
