/* XPM */
static char * tiro7_xpm[] = {
"35 37 239 2",
"  	c None",
". 	c #FA6766",
"+ 	c #F88979",
"@ 	c #FA7D43",
"# 	c #F89B90",
"$ 	c #FA625E",
"% 	c #F89115",
"& 	c #FEE707",
"* 	c #FA6E25",
"= 	c #F84749",
"- 	c #FA4244",
"; 	c #F88C07",
"> 	c #FEE902",
", 	c #FC7023",
"' 	c #FB4349",
") 	c #F35561",
"! 	c #F7830D",
"~ 	c #FCE903",
"{ 	c #FA6325",
"] 	c #F75E6B",
"^ 	c #F9746F",
"/ 	c #F8592C",
"( 	c #FAA40F",
"_ 	c #F7C80D",
": 	c #FCF602",
"< 	c #F8C801",
"[ 	c #F7A408",
"} 	c #F84734",
"| 	c #F66A69",
"1 	c #F99E9C",
"2 	c #F87F73",
"3 	c #F69038",
"4 	c #F8AA07",
"5 	c #FEF301",
"6 	c #F8A812",
"7 	c #F78D45",
"8 	c #F88584",
"9 	c #F99193",
"0 	c #F74F50",
"a 	c #F77A14",
"b 	c #FAEF05",
"c 	c #FB7029",
"d 	c #FB4856",
"e 	c #E69888",
"f 	c #9E9D30",
"g 	c #DE9D8C",
"h 	c #373737",
"i 	c #B8B8B8",
"j 	c #4F4F4F",
"k 	c #070707",
"l 	c #191919",
"m 	c #1B1D1D",
"n 	c #121F1E",
"o 	c #4D4B48",
"p 	c #140D0A",
"q 	c #000103",
"r 	c #171819",
"s 	c #2B1314",
"t 	c #1B1A1A",
"u 	c #1E1E1E",
"v 	c #2E2E2E",
"w 	c #3A3A3A",
"x 	c #7D7D7D",
"y 	c #6A6A6A",
"z 	c #383939",
"A 	c #2D0604",
"B 	c #8E1C1B",
"C 	c #8D706F",
"D 	c #818489",
"E 	c #3E5673",
"F 	c #084064",
"G 	c #020C1A",
"H 	c #0B3D64",
"I 	c #3C5776",
"J 	c #837F84",
"K 	c #937E7D",
"L 	c #9A0002",
"M 	c #300B0B",
"N 	c #3A3C3C",
"O 	c #747474",
"P 	c #575858",
"Q 	c #4C0101",
"R 	c #F30611",
"S 	c #9A1817",
"T 	c #142233",
"U 	c #0664A3",
"V 	c #0371B7",
"W 	c #02192E",
"X 	c #0168A6",
"Y 	c #006CAF",
"Z 	c #1E112F",
"` 	c #840101",
" .	c #F00912",
"..	c #583233",
"+.	c #4B4F4F",
"@.	c #980002",
"#.	c #590308",
"$.	c #00192C",
"%.	c #0364A1",
"&.	c #0671B5",
"*.	c #001326",
"=.	c #0164A3",
"-.	c #026CAC",
";.	c #0C2037",
">.	c #430405",
",.	c #861F1F",
"'.	c #ABA8A9",
").	c #301515",
"!.	c #1C1213",
"~.	c #031427",
"{.	c #0563A2",
"].	c #0676B5",
"^.	c #022525",
"/.	c #0168A8",
"(.	c #026BAC",
"_.	c #052138",
":.	c #151515",
"<.	c #4C4C4C",
"[.	c #00081C",
"}.	c #0365A0",
"|.	c #0471B8",
"1.	c #07B4F4",
"2.	c #0282C5",
"3.	c #036BAC",
"4.	c #031E36",
"5.	c #454545",
"6.	c #4A4A4A",
"7.	c #00000E",
"8.	c #0366A3",
"9.	c #026EBA",
"0.	c #03BEFF",
"a.	c #0185C9",
"b.	c #016BAC",
"c.	c #001C35",
"d.	c #434444",
"e.	c #03030F",
"f.	c #0464A2",
"g.	c #0070BA",
"h.	c #03BDFE",
"i.	c #0285CA",
"j.	c #026CAD",
"k.	c #00203A",
"l.	c #424344",
"m.	c #494949",
"n.	c #050511",
"o.	c #0562A0",
"p.	c #0172BA",
"q.	c #03BCFD",
"r.	c #0088CC",
"s.	c #036CAD",
"t.	c #002340",
"u.	c #424343",
"v.	c #080813",
"w.	c #05619F",
"x.	c #0170BA",
"y.	c #03BBFC",
"z.	c #0189CD",
"A.	c #036DAF",
"B.	c #002644",
"C.	c #414243",
"D.	c #0B0B14",
"E.	c #05619E",
"F.	c #0070B9",
"G.	c #03BAFB",
"H.	c #028ACE",
"I.	c #046FAF",
"J.	c #002948",
"K.	c #404243",
"L.	c #0E0E16",
"M.	c #04619C",
"N.	c #006FB8",
"O.	c #03B9FA",
"P.	c #018BCF",
"Q.	c #016EAF",
"R.	c #002B4B",
"S.	c #3F4143",
"T.	c #101019",
"U.	c #045F9B",
"V.	c #0170B8",
"W.	c #03B8F9",
"X.	c #028DD0",
"Y.	c #026EAF",
"Z.	c #002E4F",
"`.	c #3F4042",
" +	c #121219",
".+	c #045F9A",
"++	c #03B7F8",
"@+	c #018ED2",
"#+	c #026FB0",
"$+	c #002F52",
"%+	c #3E4042",
"&+	c #141418",
"*+	c #055084",
"=+	c #0362A1",
"-+	c #039FDA",
";+	c #027DB8",
">+	c #03619A",
",+	c #3D3F41",
"'+	c #161616",
")+	c #001221",
"!+	c #001525",
"~+	c #001A28",
"{+	c #101321",
"]+	c #1A0D1A",
"^+	c #0C0205",
"/+	c #3D3D3D",
"(+	c #1A1717",
"_+	c #760607",
":+	c #950609",
"<+	c #9C3407",
"[+	c #9D2105",
"}+	c #980506",
"|+	c #500001",
"1+	c #3F3B3B",
"2+	c #414141",
"3+	c #CB0000",
"4+	c #F80C11",
"5+	c #FE5905",
"6+	c #FE3B0C",
"7+	c #F41209",
"8+	c #841B1B",
"9+	c #3C3232",
"0+	c #717576",
"a+	c #383131",
"b+	c #E55705",
"c+	c #A23A07",
"d+	c #48413F",
"e+	c #A0A4A4",
"f+	c #777778",
"g+	c #747376",
"h+	c #C05139",
"i+	c #A16860",
"j+	c #7C7675",
"k+	c #403F3E",
"l+	c #9B9C9C",
"m+	c #434343",
"n+	c #979797",
"o+	c #444444",
"p+	c #939393",
"                                                                      ",
"                                                                      ",
"                                  .                                   ",
"                                + @ #                                 ",
"                              $ % & * =                               ",
"                              - ; > , '                               ",
"                              ) ! ~ { ]                               ",
"                          ^ / ( _ : < [ } |                           ",
"                          1 2 3 4 5 6 7 8 9                           ",
"                              0 a b c d                               ",
"                                e f g                                 ",
"                                  h i                                 ",
"                j k l m n     o p q r j     s t u v w                 ",
"                x y z A B C D E F G H I J K L M N O                   ",
"                    P Q R S T U V W X Y Z `  ...+.                    ",
"                        @.#.$.%.&.*.=.-.;.>.,.'.                      ",
"                        ).!.~.{.].^./.(._.:.u                         ",
"                          <.[.}.|.1.2.3.4.5.                          ",
"                          6.7.8.9.0.a.b.c.d.                          ",
"                          6.e.f.g.h.i.j.k.l.                          ",
"                          m.n.o.p.q.r.s.t.u.                          ",
"                          m.v.w.x.y.z.A.B.C.                          ",
"                          m.D.E.F.G.H.I.J.K.                          ",
"                          6.L.M.N.O.P.Q.R.S.                          ",
"                          6.T.U.V.W.X.Y.Z.`.                          ",
"                          6. +.+V.++@+#+$+%+                          ",
"                          6.&+*+=+-+;+>+J.,+                          ",
"                          6.'+)+!+~+{+]+^+/+                          ",
"                          m.(+_+:+<+[+}+|+1+                          ",
"                          2+'+3+4+5+6+7+8+9+                          ",
"                              0+a+b+c+d+e+                            ",
"                              f+g+h+i+j+                              ",
"                                  k+l+                                ",
"                                  m+n+                                ",
"                                  o+p+                                ",
"                                                                      ",
"                                                                      "};
