/* XPM */
static char * nave1_13_xpm[] = {
"54 50 462 2",
"  	c None",
". 	c #383838",
"+ 	c #592E2E",
"@ 	c #612B2B",
"# 	c #4B3131",
"$ 	c #3F3636",
"% 	c #2F3A3A",
"& 	c #2E3333",
"* 	c #433535",
"= 	c #6A2727",
"- 	c #840D0D",
"; 	c #810C0C",
"> 	c #6D3030",
", 	c #503F3F",
"' 	c #3B3D3D",
") 	c #312F2F",
"! 	c #2E2E2E",
"~ 	c #5C2D2D",
"{ 	c #791C1C",
"] 	c #821616",
"^ 	c #7E3F3F",
"/ 	c #735F5F",
"( 	c #606060",
"_ 	c #555656",
": 	c #474747",
"< 	c #252525",
"[ 	c #363636",
"} 	c #353535",
"| 	c #373737",
"1 	c #363838",
"2 	c #443535",
"3 	c #583131",
"4 	c #654949",
"5 	c #6A6363",
"6 	c #6F6F6F",
"7 	c #707070",
"8 	c #646464",
"9 	c #565656",
"0 	c #4A4A4A",
"a 	c #3F3F3F",
"b 	c #343434",
"c 	c #414141",
"d 	c #505050",
"e 	c #454545",
"f 	c #393939",
"g 	c #2A3939",
"h 	c #2D3737",
"i 	c #333939",
"j 	c #484949",
"k 	c #585A5A",
"l 	c #6D6D6D",
"m 	c #717171",
"n 	c #696969",
"o 	c #535353",
"p 	c #3C3C3C",
"q 	c #626262",
"r 	c #333333",
"s 	c #403F3F",
"t 	c #5F5F5F",
"u 	c #5D5D5D",
"v 	c #404040",
"w 	c #5C5C5C",
"x 	c #6E6E6E",
"y 	c #595959",
"z 	c #3E3E3E",
"A 	c #484848",
"B 	c #434343",
"C 	c #494949",
"D 	c #616161",
"E 	c #6B6B6B",
"F 	c #4F4F4F",
"G 	c #303030",
"H 	c #323232",
"I 	c #575757",
"J 	c #6A6A6A",
"K 	c #444444",
"L 	c #424242",
"M 	c #4C4C4C",
"N 	c #585858",
"O 	c #636363",
"P 	c #676666",
"Q 	c #3B3B3B",
"R 	c #686868",
"S 	c #727171",
"T 	c #636464",
"U 	c #4B4B4B",
"V 	c #444141",
"W 	c #494646",
"X 	c #6C6B6B",
"Y 	c #6E6D6D",
"Z 	c #646161",
"` 	c #3D3E3E",
" .	c #3A3A3A",
"..	c #3D3D3D",
"+.	c #454544",
"@.	c #353636",
"#.	c #4B4848",
"$.	c #565252",
"%.	c #585656",
"&.	c #605E5E",
"*.	c #5F5C5C",
"=.	c #525050",
"-.	c #434242",
";.	c #373838",
">.	c #626261",
",.	c #565658",
"'.	c #555556",
").	c #656564",
"!.	c #656565",
"~.	c #515150",
"{.	c #3F4040",
"].	c #414040",
"^.	c #4E4B4B",
"/.	c #565151",
"(.	c #585454",
"_.	c #4A4848",
":.	c #515151",
"<.	c #5E5E5E",
"[.	c #676767",
"}.	c #666666",
"|.	c #686869",
"1.	c #737374",
"2.	c #6B6C6F",
"3.	c #5F6061",
"4.	c #545554",
"5.	c #464854",
"6.	c #5D5F65",
"7.	c #696A6C",
"8.	c #676768",
"9.	c #464646",
"0.	c #4D4B4B",
"a.	c #524F4F",
"b.	c #454343",
"c.	c #393838",
"d.	c #737373",
"e.	c #757574",
"f.	c #6E6E70",
"g.	c #69696E",
"h.	c #67676A",
"i.	c #494C59",
"j.	c #5D5B4A",
"k.	c #6E693A",
"l.	c #4D492B",
"m.	c #38383E",
"n.	c #4C4C52",
"o.	c #5F6062",
"p.	c #6A6A69",
"q.	c #5B5B5B",
"r.	c #4D4C4C",
"s.	c #4F4C4C",
"t.	c #534F4F",
"u.	c #3F3D3D",
"v.	c #363535",
"w.	c #525252",
"x.	c #747474",
"y.	c #707171",
"z.	c #5D5E61",
"A.	c #51504E",
"B.	c #767049",
"C.	c #746D2C",
"D.	c #A49820",
"E.	c #BEB111",
"F.	c #B0A400",
"G.	c #827800",
"H.	c #4E4820",
"I.	c #2C2E36",
"J.	c #4E4D4D",
"K.	c #676565",
"L.	c #403E3E",
"M.	c #474545",
"N.	c #413F3F",
"O.	c #3B3939",
"P.	c #68686B",
"Q.	c #2D303E",
"R.	c #605916",
"S.	c #B1A319",
"T.	c #CDBE06",
"U.	c #DCCC00",
"V.	c #ECDA03",
"W.	c #E9D904",
"X.	c #C3B504",
"Y.	c #655E00",
"Z.	c #1D1813",
"`.	c #423C3D",
" +	c #544D4D",
".+	c #4E4949",
"++	c #403C3C",
"@+	c #3D3B3B",
"#+	c #3C3B3B",
"$+	c #4E4E4E",
"%+	c #606063",
"&+	c #3A382C",
"*+	c #887D00",
"=+	c #E1D101",
"-+	c #F2E005",
";+	c #F1E106",
">+	c #F9E709",
",+	c #F6E409",
"'+	c #C3B503",
")+	c #4D4707",
"!+	c #1D192A",
"~+	c #484042",
"{+	c #4D4646",
"]+	c #4B4444",
"^+	c #4C4545",
"/+	c #484242",
"(+	c #3A3838",
"_+	c #545358",
":+	c #56502B",
"<+	c #A99C00",
"[+	c #EDDB07",
"}+	c #FAE80A",
"|+	c #F0DE0A",
"1+	c #EEDE09",
"2+	c #E2D207",
"3+	c #968C00",
"4+	c #292612",
"5+	c #343038",
"6+	c #4D4647",
"7+	c #4F4848",
"8+	c #4E4747",
"9+	c #494343",
"0+	c #393535",
"a+	c #4A4949",
"b+	c #545454",
"c+	c #656464",
"d+	c #4E4A4E",
"e+	c #4C4633",
"f+	c #9B9012",
"g+	c #D1C206",
"h+	c #E4D407",
"i+	c #D7C609",
"j+	c #C2B408",
"k+	c #AEA303",
"l+	c #605A05",
"m+	c #000022",
"n+	c #464042",
"o+	c #4D4545",
"p+	c #443E3E",
"q+	c #3C3A3A",
"r+	c #4F4B4B",
"s+	c #4C4448",
"t+	c #342E39",
"u+	c #302B1B",
"v+	c #837903",
"w+	c #B1A505",
"x+	c #B8AB07",
"y+	c #938906",
"z+	c #585200",
"A+	c #232010",
"B+	c #2B2534",
"C+	c #4A4444",
"D+	c #3F3B3B",
"E+	c #757575",
"F+	c #555555",
"G+	c #383839",
"H+	c #363737",
"I+	c #119CE6",
"J+	c #323333",
"K+	c #443F3F",
"L+	c #4B4445",
"M+	c #403A40",
"N+	c #3E382D",
"O+	c #5C5510",
"P+	c #807703",
"Q+	c #918606",
"R+	c #7D7403",
"S+	c #3F3A00",
"T+	c #13111B",
"U+	c #494244",
"V+	c #504848",
"W+	c #4E4746",
"X+	c #4E4646",
"Y+	c #4D4747",
"Z+	c #454040",
"`+	c #3E3B3B",
" @	c #727272",
".@	c #646463",
"+@	c #353430",
"@@	c #373735",
"#@	c #383530",
"$@	c #1099E3",
"%@	c #109AE4",
"&@	c #3E3C3C",
"*@	c #454041",
"=@	c #3B3737",
"-@	c #393319",
";@	c #534D02",
">@	c #6A6100",
",@	c #5B5300",
"'@	c #29260D",
")@	c #2E2C33",
"!@	c #4F4A4A",
"~@	c #534C4C",
"{@	c #4C4646",
"]@	c #413B3B",
"^@	c #6F6E6E",
"/@	c #5B5A59",
"(@	c #363536",
"_@	c #352F27",
":@	c #392E1D",
"<@	c #119AE4",
"[@	c #3F3C3D",
"}@	c #3A3639",
"|@	c #29262D",
"1@	c #201E1D",
"2@	c #363115",
"3@	c #221F04",
"4@	c #181617",
"5@	c #474446",
"6@	c #555151",
"7@	c #504A4A",
"8@	c #474141",
"9@	c #3E3939",
"0@	c #444343",
"a@	c #686663",
"b@	c #494848",
"c@	c #314D68",
"d@	c #2F5E84",
"e@	c #345574",
"f@	c #119DE8",
"g@	c #3F3C3B",
"h@	c #474344",
"i@	c #494546",
"j@	c #373539",
"k@	c #1E1E24",
"l@	c #393636",
"m@	c #555050",
"n@	c #4E4848",
"o@	c #423E3E",
"p@	c #727170",
"q@	c #5E5B56",
"r@	c #3B4B5D",
"s@	c #2473A8",
"t@	c #1D90D4",
"u@	c #2C72A3",
"v@	c #119FE9",
"w@	c #119CE7",
"x@	c #119DEA",
"y@	c #413F3E",
"z@	c #4C4848",
"A@	c #514D4D",
"B@	c #4E4B4A",
"C@	c #4A4747",
"D@	c #504B4B",
"E@	c #575353",
"F@	c #4E4545",
"G@	c #4F4646",
"H@	c #494444",
"I@	c #454444",
"J@	c #737474",
"K@	c #6D6D6C",
"L@	c #4D4A44",
"M@	c #2F5C82",
"N@	c #1C89CA",
"O@	c #1F8ED1",
"P@	c #2D6D9B",
"Q@	c #39322D",
"R@	c #119DE9",
"S@	c #119BE5",
"T@	c #434141",
"U@	c #4C4949",
"V@	c #524E4E",
"W@	c #504D4D",
"X@	c #444242",
"Y@	c #453F3F",
"Z@	c #433D3D",
"`@	c #3A3737",
" #	c #6C6C6C",
".#	c #717172",
"+#	c #626260",
"@#	c #41454A",
"##	c #285C85",
"$#	c #1E8ED1",
"%#	c #287DB5",
"&#	c #34526C",
"*#	c #119CE8",
"=#	c #373636",
"-#	c #383737",
";#	c #464343",
">#	c #4B4747",
",#	c #3C3939",
"'#	c #5D5E5E",
")#	c #717272",
"!#	c #525150",
"~#	c #3B362E",
"{#	c #304C66",
"]#	c #2E70A0",
"^#	c #2F6893",
"/#	c #39393F",
"(#	c #109EEA",
"_#	c #119BE6",
":#	c #119EEA",
"<#	c #434040",
"[#	c #4D4949",
"}#	c #4F5050",
"|#	c #696A6A",
"1#	c #6C6D6D",
"2#	c #333231",
"3#	c #38332E",
"4#	c #374254",
"5#	c #109DE8",
"6#	c #119CE5",
"7#	c #484646",
"8#	c #5A5656",
"9#	c #3B3A3A",
"0#	c #39352E",
"a#	c #424040",
"b#	c #5C5959",
"c#	c #666464",
"d#	c #5F5E5E",
"e#	c #535252",
"f#	c #646363",
"g#	c #6A6969",
"h#	c #6C6A6A",
"i#	c #444545",
"j#	c #313131",
"k#	c #119BE7",
"l#	c #119AE5",
"m#	c #2C3838",
"n#	c #293838",
"o#	c #3C3D3D",
"p#	c #0F9AE3",
"q#	c #1098E0",
"r#	c #1199E2",
"s#	c #109CE8",
"t#	c #333737",
"u#	c #4E3030",
"v#	c #632B2B",
"w#	c #513030",
"x#	c #3E3434",
"y#	c #2E3737",
"z#	c #233232",
"A#	c #767676",
"B#	c #119BE4",
"C#	c #5C2E2E",
"D#	c #7D1919",
"E#	c #811414",
"F#	c #6B2A2A",
"G#	c #533E3E",
"H#	c #424141",
"I#	c #2C2C2C",
"J#	c #563030",
"K#	c #781C1C",
"L#	c #840808",
"M#	c #833131",
"N#	c #775757",
"O#	c #605F5F",
"P#	c #4F5151",
"Q#	c #4D4D4D",
"R#	c #2F3838",
"S#	c #3B3535",
"T#	c #553131",
"U#	c #6A3D3D",
"V#	c #6D6161",
"W#	c #6E6F6F",
"X#	c #6F7070",
"Y#	c #323737",
"Z#	c #555757",
"`#	c #2C3232",
" $	c #2E2F2F",
".$	c #2A2A2A",
"                                    . + @ # $ % &                                                           ",
"                                    * = - ; > , ' ) !                                                       ",
"                                      ~ { ] ^ / ( _ : . <         [ } | .                                   ",
"                                      1 2 3 4 5 6 7 8 9 0 a b c d e f |                                     ",
"                                        g h i j k 8 l m n o p d q 9 c }                                     ",
"                                            [ r r s d t n u v w x y v                                       ",
"                                                  ! [ z A B C D E F .                                       ",
"                                                    b G H f I J u B H                                       ",
"                                                    } . | K q l o .                                         ",
"                                                    . L M N J O C b                                         ",
"                                                } H a I P E E y Q                                           ",
"                                          | | | | | j R S S T U }                                           ",
"                  [ }     b . [       } [ [ } f V W I X Y Z o `                                             ",
"              [ r  .c ..r . B B [ +.d U p [ @.. #.$.%.&.*.=.-.;.                                            ",
"        . [ | p ..: N I 0 d >.( ,.'.).!.t ~.{.. ].^./.(.$._.Q }                                             ",
"        . } z :.<.[.x x }.|.1.2.3.4.5.6.7.8.q 9 9.0.$.(.a.b.c.                                              ",
"        | } C O 7 m d.e.f.g.h.i.j.k.l.m.n.o.p.n q.r.s.t.^.u.v.                                              ",
"        | } w.J x.d.d.y.z.A.B.C.D.E.F.G.H.I.J.K.q.v L.M.N.O. .|                                             ",
"        |  .U 8 d.d.x.P.Q.R.S.T.U.V.W.X.Y.Z.`. +.+++@+#+[ K $+:                                             ",
"          }  .N x x.1.%+&+*+=+-+;+>+,+'+)+!+~+{+]+^+/+(+v y J N                                             ",
"          } | F n 7 m _+:+<+[+}+|+1+2+3+4+5+6+7+{+8+9+0+a+R x y c                                           ",
"            f c b+D c+d+e+f+g+h+i+j+k+l+m+n+8+{+{+o+p+q+o l m D b+                                          ",
"              }  .c r+s+t+u+v+w+x+y+z+A+B+C+8+{+8+^+D+s D m E+E F+G+H+      I+                              ",
"                J+v.K+L+M+N+O+P+Q+R+S+T+U+V+W+X+Y+Z+`+F n  @x..@B +@@@#@    $@%@                            ",
"                | . &@V *@=@-@;@>@,@'@)@!@~@8+{+{@]@u.( 7 E+^@/@(@_@:@        <@                            ",
"                  [ | . [@}@|@1@2@3@4@5@6@7@{+Y+8@9@0@}.d.x.a@b@c@d@e@        f@<@                          ",
"                        g@*@h@i@j@k@l@a.m@n@o+Y+o@@+I l E+p@q@r@s@t@u@      v@w@      x@                    ",
"                        q+y@z@A@B@C@D@E@D@F@G@H@D+I@8  @J@K@L@M@N@O@P@Q@    R@S@      w@                    ",
"                        [ c.&@T@U@r+V@W@X@Y@/+Z@`@o  #E+.#+#@###$#%#&#      *#<@      f@                    ",
"                          [ =#-#O.u.;#>#s  .@+,#c '#)#E+7 !#~#{#]#^#/#    (#_#        :#:#                  ",
"                          | . [ p L.<##.[#M.&@r }#|#1# #!.+.2#3#4#        5#6#        :#:#    f@            ",
"                            . [ 7#^.W@6@8#a.V 9#:.x <.:.d p r 0#        :#_#        :#:#      f@            ",
"                            | c.a#A@(.b#c#d#0@. K :.0 [                 f@S@        :#:#        _#          ",
"                              J+. e#f#g#h#( i#j#} f                   w@k#l#      R@:#        k#*#          ",
"            m#n#              b c w d.E+ #o o#                    p#q#r#l#      $@s#:#        w@R@          ",
"      t#u#v#w#x#y#z#          } 0 }.A#x.8 : r                     B#          *#_#      f@R@w@*#            ",
"      1 C#D#E#F#G#H#1 I#    [ . A 8 m 7 N a                                                                 ",
"        J#K#L#M#N#O#P#e | j#b r p 9 J }.Q#[                                                                 ",
"        R#S#T#U#V#W#X#8 N U  .r | I E w c j#                                                                ",
"          Y#Y#| i#Z#D l d.n y a 9.q J b+|                                                                   ",
"              `# $b L b+u [.D 9.F  #D C H                                                                   ",
"                    ! .$f A A C w E N Q                                                                     ",
"                        G b [ Q#n !.U b                                                                     ",
"                             .o }.q.a                                                                       ",
"                              : F A f                                                                       ",
"                              G . } [                                                                       ",
"                                [ |                                                                         ",
"                                . |                                                                         ",
"                                                                                                            ",
"                                                                                                            "};
