/* XPM */
static char * nave2_1_xpm[] = {
"54 50 568 2",
"  	c None",
". 	c #313285",
"+ 	c #32337F",
"@ 	c #323283",
"# 	c #323280",
"$ 	c #313188",
"% 	c #2F3092",
"& 	c #323282",
"* 	c #31327D",
"= 	c #331276",
"- 	c #33217B",
"; 	c #313287",
"> 	c #31318D",
", 	c #353554",
"' 	c #30308D",
") 	c #33336B",
"! 	c #313185",
"~ 	c #343187",
"{ 	c #4050B1",
"] 	c #2993C0",
"^ 	c #2E6DA4",
"/ 	c #31318A",
"( 	c #32327F",
"_ 	c #2F3091",
": 	c #0F1BE3",
"< 	c #1C1BDF",
"[ 	c #1E29B8",
"} 	c #2D2E92",
"| 	c #383881",
"1 	c #353585",
"2 	c #292AB3",
"3 	c #163AF7",
"4 	c #0D8BF6",
"5 	c #168EF4",
"6 	c #2200DC",
"7 	c #333379",
"8 	c #30318C",
"9 	c #353548",
"0 	c #3328B1",
"a 	c #890320",
"b 	c #731964",
"c 	c #2E2E9D",
"d 	c #31317E",
"e 	c #3C3DB0",
"f 	c #2A2CE8",
"g 	c #0002FB",
"h 	c #0000FB",
"i 	c #0000FA",
"j 	c #0000FE",
"k 	c #2124CC",
"l 	c #353564",
"m 	c #333374",
"n 	c #343468",
"o 	c #2B3375",
"p 	c #5022A5",
"q 	c #8D0100",
"r 	c #761D3A",
"s 	c #27347D",
"t 	c #363623",
"u 	c #313286",
"v 	c #323286",
"w 	c #342D6F",
"x 	c #0000F6",
"y 	c #0007FA",
"z 	c #010BF9",
"A 	c #020BF9",
"B 	c #1D00E7",
"C 	c #302799",
"D 	c #2E3099",
"E 	c #1F2F97",
"F 	c #691F88",
"G 	c #8C0000",
"H 	c #65235E",
"I 	c #263573",
"J 	c #323085",
"K 	c #303896",
"L 	c #2965B8",
"M 	c #0C68F6",
"N 	c #0108F9",
"O 	c #1C9FEC",
"P 	c #313F8C",
"Q 	c #2C2BA5",
"R 	c #37370A",
"S 	c #242BA3",
"T 	c #70487F",
"U 	c #814D00",
"V 	c #4E3771",
"W 	c #2D3460",
"X 	c #2829B6",
"Y 	c #0A1FF3",
"Z 	c #1368EE",
"` 	c #178FF0",
" .	c #0000F9",
"..	c #000BFF",
"+.	c #010CFF",
"@.	c #000AFE",
"#.	c #0544F8",
"$.	c #1FB4DF",
"%.	c #341F6C",
"&.	c #2E2F9B",
"*.	c #363637",
"=.	c #2F309B",
"-.	c #0006FA",
";.	c #261BF0",
">.	c #333288",
",.	c #353542",
"'.	c #35355D",
").	c #1D20D6",
"!.	c #0000FF",
"~.	c #1617B4",
"{.	c #000048",
"].	c #00009E",
"^.	c #0002CB",
"/.	c #000EF3",
"(.	c #252EE9",
"_.	c #335DD6",
":.	c #240BBE",
"<.	c #30318E",
"[.	c #303191",
"}.	c #353552",
"|.	c #292BB4",
"1.	c #0005FE",
"2.	c #0612F0",
"3.	c #343472",
"4.	c #36362A",
"5.	c #0E14EE",
"6.	c #0003FF",
"7.	c #1113CB",
"8.	c #0000E7",
"9.	c #70687F",
"0.	c #6E6600",
"a.	c #564F00",
"b.	c #4D4900",
"c.	c #2B2CCC",
"d.	c #0007FD",
"e.	c #1108F6",
"f.	c #0311F6",
"g.	c #2C2CA9",
"h.	c #303092",
"i.	c #343469",
"j.	c #2224CD",
"k.	c #0001FF",
"l.	c #1C1FD8",
"m.	c #35355F",
"n.	c #2E2F9A",
"o.	c #0E14F1",
"p.	c #0007FC",
"q.	c #1116ED",
"r.	c #2D29AF",
"s.	c #403B00",
"t.	c #1E1A00",
"u.	c #DCCC07",
"v.	c #E2D207",
"w.	c #CEBF05",
"x.	c #A59900",
"y.	c #4847B9",
"z.	c #040FFA",
"A.	c #0006FB",
"B.	c #0002FF",
"C.	c #2D2DA1",
"D.	c #2C2DA6",
"E.	c #373704",
"F.	c #171BE3",
"G.	c #2728BA",
"H.	c #363550",
"I.	c #313284",
"J.	c #35355B",
"K.	c #292AB2",
"L.	c #1B1CDB",
"M.	c #2B2800",
"N.	c #373224",
"O.	c #6A6201",
"P.	c #8B8003",
"Q.	c #E9D808",
"R.	c #F3E109",
"S.	c #F3E20A",
"T.	c #D6C700",
"U.	c #020200",
"V.	c #424375",
"W.	c #000AFA",
"X.	c #0009FA",
"Y.	c #313182",
"Z.	c #1B29BB",
"`.	c #272EA3",
" +	c #36362C",
".+	c #2F3095",
"++	c #0811F3",
"@+	c #2E2F99",
"#+	c #36363C",
"$+	c #34346F",
"%+	c #1E21D3",
"&+	c #1F1FDE",
"*+	c #080970",
"=+	c #504900",
"-+	c #837907",
";+	c #B8AB08",
">+	c #EFDE09",
",+	c #F3E209",
"'+	c #DDCE05",
")+	c #A59A00",
"!+	c #726C8C",
"~+	c #1B18E7",
"{+	c #353185",
"]+	c #303190",
"^+	c #2A318E",
"/+	c #631999",
"(+	c #4C1CB9",
"_+	c #353549",
":+	c #2B2CAC",
"<+	c #040EF5",
"[+	c #33337C",
"}+	c #34346B",
"|+	c #313281",
"1+	c #343374",
"2+	c #1015EC",
"3+	c #1A1DE9",
"4+	c #00006C",
"5+	c #675F00",
"6+	c #8C8206",
"7+	c #A59907",
"8+	c #BAAC07",
"9+	c #E4D308",
"0+	c #F1E009",
"a+	c #F6E40A",
"b+	c #DBCC0A",
"c+	c #7E753A",
"d+	c #0000BC",
"e+	c #375DD4",
"f+	c #3145DC",
"g+	c #0913EB",
"h+	c #2E318D",
"i+	c #413079",
"j+	c #8C0400",
"k+	c #851000",
"l+	c #2D3383",
"m+	c #2F2F98",
"n+	c #37373A",
"o+	c #2A2BAD",
"p+	c #1117F4",
"q+	c #2729D9",
"r+	c #333373",
"s+	c #323281",
"t+	c #323284",
"u+	c #343471",
"v+	c #333376",
"w+	c #2F3096",
"x+	c #313186",
"y+	c #1D1FDD",
"z+	c #000029",
"A+	c #544D00",
"B+	c #7C7304",
"C+	c #898006",
"D+	c #938906",
"E+	c #EEDE09",
"F+	c #F6E509",
"G+	c #F5E409",
"H+	c #CCBE06",
"I+	c #5A5300",
"J+	c #2E0098",
"K+	c #2EA6DD",
"L+	c #0070FC",
"M+	c #270FB8",
"N+	c #27338C",
"O+	c #5A286A",
"P+	c #751B47",
"Q+	c #223389",
"R+	c #171BE1",
"S+	c #1F22CF",
"T+	c #2B2BAB",
"U+	c #313187",
"V+	c #33337E",
"W+	c #34346D",
"X+	c #2C2DBB",
"Y+	c #0004FF",
"Z+	c #1318E8",
"`+	c #2022CE",
" @	c #2123CC",
".@	c #1B1EDA",
"+@	c #2F2F94",
"@@	c #0710F6",
"#@	c #1C1ECA",
"$@	c #040300",
"%@	c #100E00",
"&@	c #1F1B00",
"*@	c #302C00",
"=@	c #4D4701",
"-@	c #A59A04",
";@	c #C7B906",
">@	c #E1D108",
",@	c #BDB005",
"'@	c #221E00",
")@	c #3F36B5",
"!@	c #24AFE3",
"~@	c #003BFC",
"{@	c #2F2B96",
"]@	c #343460",
"^@	c #242F89",
"/@	c #6C3D4E",
"(@	c #8B3500",
"_@	c #612C61",
":@	c #24338C",
"<@	c #363638",
"[@	c #343373",
"}@	c #0A11F2",
"|@	c #0B12F1",
"1@	c #1A1DDC",
"2@	c #2325BD",
"3@	c #4647A4",
"4@	c #2D2FE4",
"5@	c #0000FD",
"6@	c #0006FE",
"7@	c #070FF4",
"8@	c #010BF8",
"9@	c #0109DF",
"0@	c #0003BC",
"a@	c #000088",
"b@	c #01013C",
"c@	c #0F0D00",
"d@	c #201E00",
"e@	c #302D00",
"f@	c #484300",
"g@	c #494300",
"h@	c #000043",
"i@	c #4058C4",
"j@	c #1BADEA",
"k@	c #0500F5",
"l@	c #33337B",
"m@	c #333378",
"n@	c #30318F",
"o@	c #323378",
"p@	c #4832C9",
"q@	c #6541AD",
"r@	c #44377E",
"s@	c #2C2F8E",
"t@	c #32327B",
"u@	c #30318D",
"v@	c #1117F6",
"w@	c #0911F8",
"x@	c #020CF9",
"y@	c #0008FB",
"z@	c #0004FE",
"A@	c #000AF9",
"B@	c #1419F4",
"C@	c #0A12F7",
"D@	c #0007FB",
"E@	c #191CDE",
"F@	c #050EF6",
"G@	c #010BFC",
"H@	c #010BFF",
"I@	c #0007EB",
"J@	c #0000CB",
"K@	c #00009D",
"L@	c #00005D",
"M@	c #000000",
"N@	c #29005F",
"O@	c #3D77CE",
"P@	c #119CF2",
"Q@	c #1600E2",
"R@	c #33327C",
"S@	c #303090",
"T@	c #32327A",
"U@	c #2B2CAA",
"V@	c #2B2CBE",
"W@	c #2527D7",
"X@	c #1F22E9",
"Y@	c #1A1DF2",
"Z@	c #1419F6",
"`@	c #0C13F7",
" #	c #050EF8",
".#	c #0008FA",
"+#	c #2F31E1",
"@#	c #504EA8",
"##	c #060FF8",
"$#	c #010BFB",
"%#	c #010BFE",
"&#	c #0000F4",
"*#	c #1D81DE",
"=#	c #29AADF",
"-#	c #077CF8",
";#	c #2300C4",
">#	c #33337D",
",#	c #31328C",
"'#	c #353550",
")#	c #2B2CA7",
"!#	c #1317E8",
"~#	c #333375",
"{#	c #343463",
"]#	c #33336F",
"^#	c #303098",
"/#	c #2C2DB4",
"(#	c #2728CF",
"_#	c #2123E4",
":#	c #1C1FEF",
"<#	c #161AF5",
"[#	c #0F15F7",
"}#	c #313189",
"|#	c #4B85AD",
"1#	c #26B7E3",
"2#	c #034EFA",
"3#	c #2B20AD",
"4#	c #1C1FDA",
"5#	c #191DDF",
"6#	c #2F3094",
"7#	c #2224C9",
"8#	c #34345F",
"9#	c #34336A",
"0#	c #31318E",
"a#	c #2D2EAA",
"b#	c #292BC5",
"c#	c #1C1FE3",
"d#	c #2B2CA9",
"e#	c #020DF9",
"f#	c #3542D7",
"g#	c #278FC7",
"h#	c #0107F9",
"i#	c #020CF8",
"j#	c #353466",
"k#	c #30318B",
"l#	c #343474",
"m#	c #1519E4",
"n#	c #34345B",
"o#	c #343466",
"p#	c #343370",
"q#	c #2A2BAF",
"r#	c #0A11F3",
"s#	c #1000E4",
"t#	c #300C90",
"u#	c #000AFF",
"v#	c #1016F4",
"w#	c #2829E4",
"x#	c #0009FB",
"y#	c #1A1DD6",
"z#	c #040DF7",
"A#	c #0008FC",
"B#	c #30308E",
"C#	c #2325C7",
"D#	c #2D2E9E",
"E#	c #30308F",
"F#	c #1D20D5",
"G#	c #0D13EF",
"H#	c #2426C3",
"I#	c #2627BE",
"J#	c #0005FF",
"K#	c #1A1DEF",
"L#	c #2B2BE1",
"M#	c #0001FC",
"N#	c #181CF2",
"O#	c #3031CC",
"P#	c #2E2E9C",
"Q#	c #1217EA",
"R#	c #2123CD",
"S#	c #2B2CA8",
"T#	c #2C2DA4",
"U#	c #1418E7",
"V#	c #1016EF",
"W#	c #2F2F95",
"X#	c #171BE2",
"Y#	c #0810F7",
"Z#	c #171BF3",
"`#	c #0F15F5",
" $	c #2426DA",
".$	c #292AAD",
"+$	c #32327E",
"@$	c #303093",
"#$	c #1318E3",
"$$	c #1B1FEE",
"%$	c #1E22ED",
"&$	c #0A12F1",
"*$	c #1C1FD9",
"=$	c #31318B",
"-$	c #1B1ED9",
";$	c #0006FD",
">$	c #4141CA",
",$	c #1E21EF",
"'$	c #0002FC",
")$	c #0002FE",
"!$	c #0B12F0",
"~$	c #1D1FD6",
"{$	c #2728B9",
"]$	c #2C2DA5",
"^$	c #292B9E",
"/$	c #3D3EB4",
"($	c #3F3FC7",
"_$	c #030DF7",
":$	c #2123CB",
"<$	c #2E2E9A",
"[$	c #2829B5",
"}$	c #1E20D5",
"|$	c #030CF0",
"1$	c #1D20ED",
"2$	c #171CF4",
"3$	c #1117F7",
"4$	c #3334BC",
"5$	c #1C1FE9",
"6$	c #0004FD",
"7$	c #1A1DDD",
"8$	c #343464",
"9$	c #353558",
"0$	c #353563",
"a$	c #2E2FA3",
"b$	c #2A2BBF",
"c$	c #2526D8",
"d$	c #1319F6",
"e$	c #0C13F8",
"f$	c #2A2B9C",
"g$	c #2A2BAC",
"h$	c #211DCD",
"i$	c #1313E7",
"j$	c #191DEF",
"k$	c #1217F1",
"l$	c #030DF8",
"m$	c #2426D4",
"n$	c #1519E3",
"o$	c #34346C",
"p$	c #353557",
"q$	c #2D2E9C",
"r$	c #333579",
"s$	c #34476E",
"t$	c #343D73",
"u$	c #2D289F",
"v$	c #2526C1",
"w$	c #191CDF",
"x$	c #0810F3",
"y$	c #0009FD",
"z$	c #292AB4",
"A$	c #1F21D4",
"B$	c #343467",
"C$	c #303187",
"D$	c #33297B",
"E$	c #2E5497",
"F$	c #2682B9",
"G$	c #2B74A6",
"H$	c #30648C",
"I$	c #334E75",
"J$	c #343275",
"K$	c #2D2EA0",
"L$	c #2F1B99",
"M$	c #286DB2",
"N$	c #1996DB",
"O$	c #119EEA",
"P$	c #1799E1",
"Q$	c #2B6CA9",
"R$	c #33277B",
"S$	c #1098E1",
"T$	c #335172",
"U$	c #306389",
"V$	c #2C71A1",
"W$	c #2979AC",
"X$	c #2C55A2",
"Y$	c #31278A",
"Z$	c #2F2F96",
"`$	c #119DE8",
" %	c #392D10",
".%	c #392C0D",
"+%	c #393228",
"@%	c #373E46",
"#%	c #119CE7",
"$%	c #119EE9",
"%%	c #119FEB",
"&%	c #1096DE",
"*%	c #119AE3",
"=%	c #119AE4",
"-%	c #119BE5",
";%	c #119EEB",
">%	c #119BE6",
",%	c #119DE9",
"'%	c #109AE4",
")%	c #119CE8",
"                                                              .                                             ",
"                                                            + @ # $                                         ",
"                                                        % & * = - ;                                         ",
"                      > ,                           ' ) ! ~ { ] ^ / ( _                                     ",
"                    : < [                           } | 1 2 3 4 5 6 7 8                                     ",
"                  9 0 a b c                         d e f g h i j k l m n                                   ",
"                  o p q r s t                   u v w x y z z z A y B C D                                   ",
"                  E F G H I                     J K L M N z z z z i O P Q                                   ",
"                R S T U V W                   , X Y Z `  ...+.@.h #.$.%.&.                                  ",
"                *.=.-.;.>.,.                  '.).j j !.~.{.].^./.(._.:.<.[.                                ",
"                }.|.1.2.3.4.                  / 5.6.7.8.9.0.a.b.c.d.e.f.g.h.                                ",
"                i.j.k.l.m.                n.o.p.q.r.s.t.u.v.w.x.y.z.A.B.C.D.                                ",
"              E.+ F.k.G.H.            I.J.K.!.L.M.N.O.P.Q.R.S.T.U.V.W.X.Y.                      Z.`.        ",
"               +.+++1.@+#+          # & $+%+B.&+*+=+-+;+>+,+>+'+)+!+!.~+{+                  ]+^+/+(+        ",
"              _+:+d.<+[+}+      |+}+& # 1+2+p.3+4+5+6+7+8+9+0+a+b+c+d+e+f+g+                h+i+j+k+l+m+    ",
"              n+o+p+q+r+s+$ t+u+v+& :+w+x+W.z y+z+A+B+C+D+E+F+G+H+I+J+K+L+M+                N+O+G P+Q+h.    ",
"            R+S+T+U+V+W+) X+Y+Z+`+ @!..@+@Y+@@#@$@%@&@*@=@-@;@>@,@'@)@!@~@{@]@            ]+^@/@(@_@:@      ",
"        <@[@}@B.6.p.|@1@2@3@4@5@6@p.z 7@Z+1.X.8@9@0@a@b@c@d@e@f@g@h@i@j@k@l@m@4.          n@o@p@q@r@s@      ",
"    t@u@l ' 6.v@w@x@y@z@6.5@x@A@y B@C@D@6@E@F@z G@H@H@G@I@J@K@L@M@N@O@P@Q@u+R@,           8 $ !.!.@ S@      ",
"      T@s+t+U@V@W@X@Y@Z@`@ #A@.#A@+#@###y@v+}@W.z z z z $#%#H@%#&#*#=#-#;#>#,#V+'#        @ )#B.!#~#h.      ",
"              {#]## ^#/#(#_#:#<#[#A.A@D@5.}#d.z z z z z z z z z j |#1#2#3#4#5#6#J.        7 7#!.`+m@        ",
"                      8#9#7 0#a#b#c#y@!.l.d#Y+z z z z z z z z z e#f#g#h#i#W.!.K./ 1+j#  k#l#m#k.o+@         ",
"                              n#o#p#x+C.S@q#r#1.Y+d.W.z z z z z p.s#t#u#X.v#w#B.x#5.y## # ( z#A#8 B#        ",
"                                    ~#l.C#D#& E#K.F#G#A#Y+1.x#z 6.H#I#J#X.K#L#M#y N#O#i.[+P#!.7@m@h.        ",
"                                    ' B.6.!.W.Q#R#S#$ ! T#7#U#X.V#W#X#d.z Y#8@Z#z `# $.$E#+$T+K.1+@$        ",
"                                      #$$$%$z x#6@Y+p.&$*$X % s+=$3.-$7@;$6.!.>$,$'$)$6.p.!$~${$]$          ",
"                                      ^$/$($j z z z z W.d.Y+1._$m#:$<$l@W#[$}$|$1$2$3$w@x@y@z@B.Y+:$        ",
"                                        4$5$6$Y+1.x#z z z z z A@;$!.7$8$  9$0$r+$ a$b$c$X@Y@d$e$z @         ",
"                                        f$m@=$g$h$i$i#1.Y+p.y@j$k$l$G.              {#]## ^#/#m$n$o$p$      ",
"                                        q$# # r$s$t$s+u$v$w$x$y$z$A$                        8#B$l@( s+C$    ",
"                                        <$s+D$E$F$G$H$I$J$u+>#                                      ]#      ",
"                                          K$L$M$N$O$P$Q$R$( =$                                              ",
"                                    S$        T$U$V$W$X$Y$t+Z$                                              ",
"                                    `$         %.%+%@%                                                      ",
"                                                                                                            ",
"                                      #%$%O$%%              &%                                              ",
"                                      *%=%=%-%#%`$O$;%;%    #%$%                                            ",
"                                              *%=%=%-%>%`$*%                                                ",
"                                                        *%                                                  ",
"                                    ,%>%                                                                    ",
"                                      '%                                                                    ",
"                                      ;%O$O$O$O$O$    )%O$                                                  ",
"                                          O$O$O$O$O$,%                                                      ",
"                                                                                                            ",
"                                      `$                                                                    ",
"                                      O$        #%#%                                                        ",
"                                        >%>%    O$O$                                                        ",
"                                        O$,%#%>%                                                            ",
"                                                                                                            ",
"                                                                                                            "};
