/* XPM */
static char * nave1_15_xpm[] = {
"54 50 466 2",
"  	c None",
". 	c #463434",
"+ 	c #5A2E2E",
"@ 	c #582F2F",
"# 	c #383737",
"$ 	c #373737",
"% 	c #572F2F",
"& 	c #771F1F",
"* 	c #781B1B",
"= 	c #4B3131",
"- 	c #2D3939",
"; 	c #383838",
"> 	c #353535",
", 	c #363636",
"' 	c #2F3939",
") 	c #553030",
"! 	c #7B1717",
"~ 	c #840F0F",
"{ 	c #632B2B",
"] 	c #393737",
"^ 	c #3D3D3D",
"/ 	c #3F3F3F",
"( 	c #652828",
"_ 	c #7F2F2F",
": 	c #703C3C",
"< 	c #483939",
"[ 	c #2B3434",
"} 	c #333333",
"| 	c #3C3C3C",
"1 	c #4B4B4B",
"2 	c #565656",
"3 	c #555555",
"4 	c #484848",
"5 	c #414141",
"6 	c #2C3737",
"7 	c #4A3939",
"8 	c #6E4B4B",
"9 	c #765F5F",
"0 	c #575353",
"a 	c #383939",
"b 	c #3A3A3A",
"c 	c #4A4A4A",
"d 	c #626262",
"e 	c #6C6C6C",
"f 	c #686868",
"g 	c #606060",
"h 	c #535353",
"i 	c #3E3E3E",
"j 	c #313131",
"k 	c #343434",
"l 	c #353A3A",
"m 	c #6D6A6A",
"n 	c #656666",
"o 	c #484949",
"p 	c #2E2D2D",
"q 	c #323232",
"r 	c #393939",
"s 	c #525252",
"t 	c #6A6A6A",
"u 	c #747474",
"v 	c #737373",
"w 	c #717171",
"x 	c #707070",
"y 	c #636363",
"z 	c #494949",
"A 	c #3B3B3B",
"B 	c #303434",
"C 	c #444646",
"D 	c #636464",
"E 	c #6D6D6D",
"F 	c #585858",
"G 	c #404040",
"H 	c #5B5B5B",
"I 	c #6F6F6F",
"J 	c #747574",
"K 	c #5F5F60",
"L 	c #575756",
"M 	c #50504F",
"N 	c #646464",
"O 	c #474747",
"P 	c #2D2D2D",
"Q 	c #727272",
"R 	c #737474",
"S 	c #707071",
"T 	c #696B6C",
"U 	c #6A6B6E",
"V 	c #6C6C70",
"W 	c #6C6D6E",
"X 	c #666665",
"Y 	c #505050",
"Z 	c #39393A",
"` 	c #2F2E2E",
" .	c #434242",
"..	c #616161",
"+.	c #727271",
"@.	c #68686B",
"#.	c #52535A",
"$.	c #46484B",
"%.	c #545454",
"&.	c #666565",
"*.	c #63646C",
"=.	c #68696B",
"-.	c #58585B",
";.	c #4F5051",
">.	c #4F4F4E",
",.	c #424241",
"'.	c #444444",
").	c #605F63",
"!.	c #48484D",
"~.	c #413E2E",
"{.	c #675F0E",
"].	c #82792B",
"^.	c #7C7442",
"/.	c #57564B",
"(.	c #535453",
"_.	c #535454",
":.	c #56575A",
"<.	c #646462",
"[.	c #515151",
"}.	c #5A5A5A",
"|.	c #434343",
"1.	c #363535",
"2.	c #464343",
"3.	c #555152",
"4.	c #4A474A",
"5.	c #544E2E",
"6.	c #8E8307",
"7.	c #C1B200",
"8.	c #D0C007",
"9.	c #BBAD0E",
"0.	c #A4981C",
"a.	c #948A2F",
"b.	c #635F3A",
"c.	c #484A52",
"d.	c #626467",
"e.	c #5F5F5F",
"f.	c #424242",
"g.	c #373636",
"h.	c #5C5C5C",
"i.	c #3C3939",
"j.	c #484242",
"k.	c #494146",
"l.	c #3E383A",
"m.	c #7B7222",
"n.	c #C4B500",
"o.	c #F1DF04",
"p.	c #F4E304",
"q.	c #E9D900",
"r.	c #E0CF01",
"s.	c #CCBE09",
"t.	c #8A8010",
"u.	c #3B3A3B",
"v.	c #585961",
"w.	c #666667",
"x.	c #515150",
"y.	c #363737",
"z.	c #3E3D3D",
"A.	c #3D3B3B",
"B.	c #3C3B3B",
"C.	c #3C3D3D",
"D.	c #575757",
"E.	c #6B6B6B",
"F.	c #4D4D4D",
"G.	c #464242",
"H.	c #443E42",
"I.	c #140E31",
"J.	c #605814",
"K.	c #C3B504",
"L.	c #F0DE09",
"M.	c #F6E40A",
"N.	c #F5E408",
"O.	c #F8E607",
"P.	c #EAD901",
"Q.	c #B3A600",
"R.	c #5F5820",
"S.	c #4F4F51",
"T.	c #666768",
"U.	c #3A3939",
"V.	c #4A4747",
"W.	c #4C4949",
"X.	c #605F5F",
"Y.	c #5F5E5E",
"Z.	c #666666",
"`.	c #403C3E",
" +	c #423C3E",
".+	c #403B2E",
"++	c #645C0F",
"@+	c #AA9F03",
"#+	c #D5C607",
"$+	c #DCCB0A",
"%+	c #ECDB09",
"&+	c #F6E409",
"*+	c #E2D206",
"=+	c #AEA100",
"-+	c #61590B",
";+	c #393A3D",
">+	c #606162",
",+	c #696968",
"'+	c #4D4A4A",
")+	c #575454",
"!+	c #5B5A5A",
"~+	c #6B6A6A",
"{+	c #717070",
"]+	c #696969",
"^+	c #464646",
"/+	c #3B3939",
"(+	c #3F3C3D",
"_+	c #393538",
":+	c #383324",
"<+	c #605903",
"[+	c #938903",
"}+	c #B1A507",
"|+	c #B2A507",
"1+	c #C0B305",
"2+	c #C5B803",
"3+	c #A29701",
"4+	c #5D5703",
"5+	c #29250B",
"6+	c #2B2930",
"7+	c #565556",
"8+	c #595959",
"9+	c #4B4A4A",
"0+	c #514D4D",
"a+	c #5D5B5B",
"b+	c #686666",
"c+	c #6E6B6B",
"d+	c #6D6C6C",
"e+	c #686969",
"f+	c #3E3B3B",
"g+	c #433F40",
"h+	c #3A373A",
"i+	c #242121",
"j+	c #4F4900",
"k+	c #7C7102",
"l+	c #897F04",
"m+	c #766F01",
"n+	c #706900",
"o+	c #676103",
"p+	c #3D3914",
"q+	c #000025",
"r+	c #2D2833",
"s+	c #453D3F",
"t+	c #565050",
"u+	c #545555",
"v+	c #4E4C4C",
"w+	c #545151",
"x+	c #585353",
"y+	c #595454",
"z+	c #595656",
"A+	c #585555",
"B+	c #515252",
"C+	c #433434",
"D+	c #3C3B3A",
"E+	c #474443",
"F+	c #4A4647",
"G+	c #3B3739",
"H+	c #393417",
"I+	c #584F00",
"J+	c #5A5301",
"K+	c #2D2903",
"L+	c #0B0910",
"M+	c #1E1926",
"N+	c #2B2734",
"O+	c #3F3940",
"P+	c #4A4345",
"Q+	c #4E4747",
"R+	c #4E4847",
"S+	c #4C4848",
"T+	c #424141",
"U+	c #514E4E",
"V+	c #555252",
"W+	c #524F4F",
"X+	c #4B4848",
"Y+	c #3A3B3B",
"Z+	c #493434",
"`+	c #622B2B",
" @	c #662929",
".@	c #4B3232",
"+@	c #293838",
"@@	c #353636",
"#@	c #393838",
"$@	c #444242",
"%@	c #504C4C",
"&@	c #444144",
"*@	c #222125",
"=@	c #171300",
"-@	c #262213",
";@	c #242227",
">@	c #322C34",
",@	c #453E42",
"'@	c #4A4445",
")@	c #4C4545",
"!@	c #474141",
"~@	c #413F3F",
"{@	c #494646",
"]@	c #464444",
"^@	c #4A3333",
"/@	c #742020",
"(@	c #821111",
"_@	c #632929",
":@	c #383535",
"<@	c #3D3C3B",
"[@	c #363437",
"}@	c #2E2C2D",
"|@	c #3E3D3F",
"1@	c #484447",
"2@	c #4F494A",
"3@	c #524A4A",
"4@	c #4F4747",
"5@	c #4D4646",
"6@	c #433E3E",
"7@	c #3B3A3A",
"8@	c #3E3535",
"9@	c #6C2222",
"0@	c #860D0D",
"a@	c #752B2B",
"b@	c #473737",
"c@	c #273535",
"d@	c #454242",
"e@	c #504C4B",
"f@	c #565251",
"g@	c #524C4C",
"h@	c #504949",
"i@	c #4E4646",
"j@	c #4E4647",
"k@	c #4A4343",
"l@	c #443E3E",
"m@	c #3C3838",
"n@	c #4D3333",
"o@	c #763737",
"p@	c #784A4A",
"q@	c #594848",
"r@	c #373A3A",
"s@	c #534E4E",
"t@	c #535050",
"u@	c #514B4B",
"v@	c #4D4747",
"w@	c #4A4444",
"x@	c #403B3B",
"y@	c #3B3737",
"z@	c #434141",
"A@	c #5E5E5E",
"B@	c #5C4747",
"C@	c #736363",
"D@	c #616060",
"E@	c #424545",
"F@	c #303131",
"G@	c #484646",
"H@	c #424040",
"I@	c #444141",
"J@	c #454444",
"K@	c #4F4646",
"L@	c #464040",
"M@	c #6E6E6E",
"N@	c #4C4C4C",
"O@	c #2D3232",
"P@	c #6D7070",
"Q@	c #565757",
"R@	c #323333",
"S@	c #524E4E",
"T@	c #4F4C4C",
"U@	c #484545",
"V@	c #3E3C3C",
"W@	c #413D3D",
"X@	c #4B4444",
"Y@	c #474343",
"Z@	c #403C3C",
"`@	c #3E3939",
" #	c #353737",
".#	c #6A6B6B",
"+#	c #636262",
"@#	c #575555",
"##	c #5A5757",
"$#	c #585454",
"%#	c #423E3E",
"&#	c #403A3A",
"*#	c #3E3A3A",
"=#	c #757575",
"-#	c #656565",
";#	c #696868",
">#	c #656363",
",#	c #636060",
"'#	c #3D3C3C",
")#	c #5B5B5C",
"!#	c #767676",
"~#	c #737272",
"{#	c #6C6A6A",
"]#	c #646363",
"^#	c #515050",
"/#	c #585959",
"(#	c #747575",
"_#	c #716F6E",
":#	c #686664",
"<#	c #5D5C59",
"[#	c #4C4B4A",
"}#	c #3E3E3B",
"|#	c #393A39",
"1#	c #2A2A2A",
"2#	c #5D5D5D",
"3#	c #6A6C6C",
"4#	c #707171",
"5#	c #6A6A67",
"6#	c #5D5A55",
"7#	c #4E4E4E",
"8#	c #3F4A56",
"9#	c #303843",
"0#	c #352A11",
"a#	c #37332C",
"b#	c #373736",
"c#	c #3B3C3C",
"d#	c #626363",
"e#	c #5F5D5B",
"f#	c #4E4E4B",
"g#	c #3C4C5E",
"h#	c #2F618A",
"i#	c #266D9E",
"j#	c #2D5F88",
"k#	c #354354",
"l#	c #393022",
"m#	c #4F4E4E",
"n#	c #423E37",
"o#	c #354355",
"p#	c #256797",
"q#	c #1C88C9",
"r#	c #1A92D7",
"s#	c #2680BA",
"t#	c #335B7E",
"u#	c #109BE6",
"v#	c #676767",
"w#	c #34302C",
"x#	c #324C65",
"y#	c #2777AD",
"z#	c #2289C9",
"A#	c #2682BE",
"B#	c #2D6D9A",
"C#	c #36465A",
"D#	c #0F99E3",
"E#	c #109AE4",
"F#	c #454545",
"G#	c #343333",
"H#	c #38332B",
"I#	c #374557",
"J#	c #30668F",
"K#	c #306791",
"L#	c #335775",
"M#	c #373F53",
"N#	c #3A3023",
"O#	c #3B1E13",
"P#	c #119EE8",
"Q#	c #119CE7",
"R#	c #0F9EEB",
"S#	c #119DE8",
"T#	c #119BE5",
"U#	c #0EA0EB",
"V#	c #119BE6",
"W#	c #0F99E1",
"X#	c #119DE9",
"Y#	c #109CE6",
"Z#	c #119EEA",
"`#	c #1199E3",
" $	c #1099E1",
".$	c #1199E2",
"+$	c #119BE7",
"@$	c #119AE5",
"#$	c #119EE9",
"$$	c #119CE8",
"                                                                                                            ",
"                                                                      . + @ #                               ",
"                                $                                     % & * = -                             ",
"                            ; ; > , , >                             ' ) ! ~ { ]                             ",
"                            , > ; ^ / $ , ,                           ] ( _ : < [                           ",
"                            } | 1 2 3 4 5 5 ;                         6 7 8 9 0 a                           ",
"                          $ b c d e e f g h i j k                       l 0 m n o p                         ",
"                          q r s t u v w x y z A r $                     B C D E F A                         ",
"                          k G H I u v u J E K L M G                       > s e N O P                       ",
"                          r O y Q u R S T U V W X Y Z                     `  .d I H A                       ",
"                          k O ..+.v @.#.$.%.&.*.=.-.;.>.,.                  $ h e ..'.k                     ",
"                          } | 2 f ).!.~.{.].^./.(._.:.<.[.; > , $         k j 5 H }./ |.c                   ",
"                          > 1.2.3.4.5.6.7.8.9.0.a.b.c.d.e.f.k > $ g.} q $ ; q q / z 4 }.h.z r , ;           ",
"                          $ i.j.k.l.m.n.o.p.q.r.s.t.u.v.w.x.y., z.A.> B.'.|.C.r 1 D.d E...F.A , ;           ",
"                          $ B.G.H.I.J.K.L.M.N.O.P.Q.R.S.T.g |.U.V.W.z D.X.Y.D.D.N t Z...[.5 $ ,             ",
"                            ; `. +.+++@+#+$+%+&+*+=+-+;+>+,+h G '+)+!+~+{+{+~+]+]+..Y ^+A k                 ",
"                            /+(+_+:+<+[+}+|+1+2+3+4+5+6+7+f 8+9+0+0 a+b+c+d+e+g h O ; q                     ",
"                            f+g+h+i+j+k+l+m+n+o+p+q+r+s+t+Y.u+v+w+x+y+z+A+2 B+^+A >                         ",
"    C+                      D+E+F+G+H+I+J+K+L+M+N+O+P+Q+R+S+T+ .U+V+W+X+ .G Y+k                             ",
"  Z+`+ @.@+@              @@#@$@%@&@*@=@-@;@>@,@'@Q+Q+Q+)@!@f+~@{@W.]@z.; >                                 ",
"  ^@/@(@_@:@              g.g.<@X+'+[@}@|@1@2@3@4@Q+5@5@Q+)@6@b 7@A.#@1.                                    ",
"  8@9@0@a@b@c@            ; , #@d@e@%@%@w+f@g@h@i@j@Q+i@k@l@m@A G 5 B.}                                     ",
"  +@n@o@p@q@r@          $ , b | A.{@s@t@s@u@v@5@5@v@w@j.x@y@z@%.A@}.4                                       ",
"    $ B@C@D@E@F@        > /+$@G@H@I@S+J@w@K@i@v@w@L@x@f+H@9+h.E.M@d N@                                      ",
"    O@^+n P@Q@#@        R@$ X+S@T@W.U@V@W@X@X@Y@Z@`@A.s h.Z.x v ]+D.|.                                      ",
"       #_..#+#J@P     > ^ ^+@###0 $#%@T+A.%#&#*#~@9+3 f I w =#v -#s                                         ",
"      ` '.-#E 3 b } , G s d t ;#>#,#w+d@# /+'#9+H -#E v =#u x f )#N@                                        ",
"        , %.E Z.4 q > 4 N v !#~#{#]#^#'#b 1 /#N I v (#=#_#:#<#[#}#|#                                        ",
"        1#f.e.-#1 } b s f u v E.2#_.G ; O Z.3#4#!#u S 5#6#7#8#9#0#a#b#                                      ",
"          , 4 s '.^+%.y t t ..s '.c#} > O ..d#]+x t e#f#g#h#i#j#k#l#                                        ",
"          j A 1 h A@]+t e.s O | q       A z 1 [.h.m#n#o#p#q#r#s#t#        u#                                ",
"            7#d v#f y 8+4 A k                   f.$ w#x#y#z#A#B#C#      D#E#                                ",
"          F#8+f N D.z / }                         G#H#I#J#K#L#M#                                            ",
"          | 1 %.F.^ k                               N#      O#        P#Q#                                  ",
"          k $ ^ $                                                 R#S#Q#T#                                  ",
"        $ $ ,                                                 U#S#V#T#                                      ",
"                                                    W#    X#Q#Y#T#          Z#                              ",
"                                                  `# $.$+$+$T#            Q#Q#                              ",
"                                                        @$                S#                                ",
"                                                                      Z#Z#Z#                                ",
"                                                                  Z#Z#Z#Z#                                  ",
"                                                            T#u#X#Z#Z#                                      ",
"                                                                            S##$                            ",
"                                                                            Q#                              ",
"                                                                    X#    +$+$                              ",
"                                                                    X#V#Q#S#$$                              ",
"                                                                                                            ",
"                                                                                                            ",
"                                                                                                            ",
"                                                                                                            "};
