/* XPM */
static char * nave1_12_xpm[] = {
"54 50 444 2",
"  	c None",
". 	c #383838",
"+ 	c #343434",
"@ 	c #373737",
"# 	c #404040",
"$ 	c #3C3C3C",
"% 	c #393939",
"& 	c #353535",
"* 	c #545454",
"= 	c #454545",
"- 	c #363636",
"; 	c #2D3A3A",
"> 	c #303939",
", 	c #223A3A",
"' 	c #333838",
") 	c #2F3030",
"! 	c #2F2C2C",
"~ 	c #353636",
"{ 	c #2B2B2B",
"] 	c #3F3F3F",
"^ 	c #606060",
"/ 	c #686868",
"( 	c #505050",
"_ 	c #4A3333",
": 	c #4E3030",
"< 	c #573333",
"[ 	c #514040",
"} 	c #494B4B",
"| 	c #555656",
"1 	c #555555",
"2 	c #595959",
"3 	c #5D5D5D",
"4 	c #4C4C4C",
"5 	c #3E3E3E",
"6 	c #5E5E5E",
"7 	c #707070",
"8 	c #535353",
"9 	c #373838",
"0 	c #5C2D2D",
"a 	c #7D1919",
"b 	c #850101",
"c 	c #832626",
"d 	c #785353",
"e 	c #736E6E",
"f 	c #717171",
"g 	c #414141",
"h 	c #585858",
"i 	c #6A6A6A",
"j 	c #343838",
"k 	c #572F2F",
"l 	c #7B1B1B",
"m 	c #7F1616",
"n 	c #7A2626",
"o 	c #6C4D4D",
"p 	c #636060",
"q 	c #5F6060",
"r 	c #5F5F5F",
"s 	c #575757",
"t 	c #4A4A4A",
"u 	c #3D3D3D",
"v 	c #5A5A5A",
"w 	c #6B6B6B",
"x 	c #565656",
"y 	c #463434",
"z 	c #483434",
"A 	c #433535",
"B 	c #363A3A",
"C 	c #3B3B3B",
"D 	c #3B3C3C",
"E 	c #343333",
"F 	c #313131",
"G 	c #333333",
"H 	c #2F3A3A",
"I 	c #323939",
"J 	c #253939",
"K 	c #303737",
"L 	c #6C6C6C",
"M 	c #5C5C5C",
"N 	c #4D4D4D",
"O 	c #616161",
"P 	c #6D6D6D",
"Q 	c #444444",
"R 	c #706F6F",
"S 	c #5A5B5B",
"T 	c #474747",
"U 	c #727171",
"V 	c #696767",
"W 	c #545353",
"X 	c #3C3D3D",
"Y 	c #353434",
"Z 	c #464747",
"` 	c #676767",
" .	c #6E6D6D",
"..	c #5F5C5C",
"+.	c #4C4A4A",
"@.	c #3B3A3A",
"#.	c #423F3F",
"$.	c #4E4B4B",
"%.	c #5B5A5A",
"&.	c #605D5D",
"*.	c #595555",
"=.	c #4B4949",
"-.	c #343535",
";.	c #4C4949",
">.	c #565252",
",.	c #585454",
"'.	c #4D4B4B",
").	c #3E3C3C",
"!.	c #3C3B3B",
"~.	c #474545",
"{.	c #504D4D",
"].	c #575353",
"^.	c #4F4C4C",
"/.	c #3F3D3D",
"(.	c #3A3A3A",
"_.	c #3D3E3E",
":.	c #4E4C4C",
"<.	c #4B4848",
"[.	c #3A3838",
"}.	c #414040",
"|.	c #4E4E4E",
"1.	c #119CE6",
"2.	c #656565",
"3.	c #605F5F",
"4.	c #413F3F",
"5.	c #403F3F",
"6.	c #4B4B4B",
"7.	c #696969",
"8.	c #464646",
"9.	c #1099E3",
"0.	c #626261",
"a.	c #67686A",
"b.	c #6A6A6C",
"c.	c #6B6A6A",
"d.	c #5A5959",
"e.	c #3E3B3B",
"f.	c #393838",
"g.	c #4F4F4F",
"h.	c #6E6E6E",
"i.	c #3B3B3C",
"j.	c #363737",
"k.	c #383839",
"l.	c #119CE7",
"m.	c #119AE4",
"n.	c #119DE9",
"o.	c #323232",
"p.	c #5D5D5E",
"q.	c #59595C",
"r.	c #505153",
"s.	c #333647",
"t.	c #2F3246",
"u.	c #474646",
"v.	c #343740",
"w.	c #414041",
"x.	c #585353",
"y.	c #514B4B",
"z.	c #484242",
"A.	c #4B4545",
"B.	c #393535",
"C.	c #4D4C4C",
"D.	c #727272",
"E.	c #363634",
"F.	c #383734",
"G.	c #119DE8",
"H.	c #119BE5",
"I.	c #119EEA",
"J.	c #70706F",
"K.	c #6B6C6F",
"L.	c #5D5E5E",
"M.	c #686443",
"N.	c #6C651E",
"O.	c #7B7208",
"P.	c #706700",
"Q.	c #343105",
"R.	c #211B20",
"S.	c #494142",
"T.	c #4D4646",
"U.	c #4C4545",
"V.	c #4E4747",
"W.	c #4A4444",
"X.	c #3B3737",
"Y.	c #737373",
"Z.	c #747474",
"`.	c #60605F",
" +	c #3A3A39",
".+	c #352C1C",
"++	c #393432",
"@+	c #666666",
"#+	c #727274",
"$+	c #5D5E65",
"%+	c #434443",
"&+	c #A19626",
"*+	c #C9BC04",
"=+	c #D7C802",
"-+	c #BFB204",
";+	c #645D00",
">+	c #1F1B25",
",+	c #484143",
"'+	c #4F4848",
")+	c #4B4444",
"!+	c #3F3B3B",
"~+	c #434343",
"{+	c #656463",
"]+	c #3C3C3E",
"^+	c #334356",
"/+	c #2F6894",
"(+	c #325A7D",
"_+	c #119AE5",
":+	c #119BE6",
"<+	c #636363",
"[+	c #6F6F6F",
"}+	c #717170",
"|+	c #6D6D6F",
"1+	c #646468",
"2+	c #6C6851",
"3+	c #857C20",
"4+	c #CABB08",
"5+	c #ECDA04",
"6+	c #F7E509",
"7+	c #E1D107",
"8+	c #675F00",
"9+	c #14121F",
"0+	c #484243",
"a+	c #3E3A3A",
"b+	c #656361",
"c+	c #3F454D",
"d+	c #286997",
"e+	c #1D91D5",
"f+	c #2979AF",
"g+	c #373F4A",
"h+	c #119BE7",
"i+	c #757574",
"j+	c #646567",
"k+	c #8D832B",
"l+	c #CEBE0E",
"m+	c #E8D800",
"n+	c #F2E209",
"o+	c #F9E709",
"p+	c #E0D007",
"q+	c #7E7600",
"r+	c #00001C",
"s+	c #453F41",
"t+	c #4C4646",
"u+	c #454444",
"v+	c #666360",
"w+	c #42454A",
"x+	c #2672A6",
"y+	c #1A94DA",
"z+	c #287CB4",
"A+	c #364451",
"B+	c #109EEA",
"C+	c #727373",
"D+	c #606163",
"E+	c #1A191A",
"F+	c #8E8305",
"G+	c #E8D702",
"H+	c #F1DF0A",
"I+	c #E6D609",
"J+	c #C9BC07",
"K+	c #6F6800",
"L+	c #05011F",
"M+	c #423C3F",
"N+	c #4F4847",
"O+	c #4E4646",
"P+	c #413B3B",
"Q+	c #3B3939",
"R+	c #6A6968",
"S+	c #404244",
"T+	c #2A6999",
"U+	c #1B92D7",
"V+	c #2A77AB",
"W+	c #374453",
"X+	c #0F9EEA",
"Y+	c #636366",
"Z+	c #373630",
"`+	c #887D00",
" @	c #E2D106",
".@	c #F6E508",
"+@	c #ECDA09",
"@@	c #C0B108",
"#@	c #928806",
"$@	c #443F00",
"%@	c #161319",
"&@	c #494244",
"*@	c #51494A",
"=@	c #413C3C",
"-@	c #737474",
";@	c #6A6A69",
">@	c #474849",
",@	c #2A4E6D",
"'@	c #2C73A5",
")@	c #2E6C9A",
"!@	c #757575",
"~@	c #6A6A6B",
"{@	c #444243",
"]@	c #746B17",
"^@	c #BDB00B",
"/@	c #CCBD05",
"(@	c #C4B606",
"_@	c #B6A907",
":@	c #8F8506",
"<@	c #4F4900",
"[@	c #040511",
"}@	c #444041",
"|@	c #565050",
"1@	c #4E4848",
"2@	c #4D4747",
"3@	c #413E3E",
"4@	c #494743",
"5@	c #363029",
"6@	c #373D48",
"7@	c #374255",
"8@	c #109BE7",
"9@	c #424242",
"0@	c #646464",
"a@	c #4E4A4F",
"b@	c #413C36",
"c@	c #423C1B",
"d@	c #655D08",
"e@	c #898004",
"f@	c #8B8105",
"g@	c #837804",
"h@	c #534C00",
"i@	c #16161C",
"j@	c #464345",
"k@	c #4E4949",
"l@	c #4D4545",
"m@	c #443F3F",
"n@	c #3C3A3A",
"o@	c #484847",
"p@	c #383530",
"q@	c #393328",
"r@	c #119CE8",
"s@	c #616060",
"t@	c #534D4E",
"u@	c #433C42",
"v@	c #312D35",
"w@	c #453F25",
"x@	c #554E0C",
"y@	c #5B5400",
"z@	c #5A5200",
"A@	c #2F2B00",
"B@	c #14120C",
"C@	c #4B4747",
"D@	c #504949",
"E@	c #4E4545",
"F@	c #423D3D",
"G@	c #595A5A",
"H@	c #707171",
"I@	c #119AE3",
"J@	c #4B4445",
"K@	c #474143",
"L@	c #3E3939",
"M@	c #2A2624",
"N@	c #1A1818",
"O@	c #2B2823",
"P@	c #1F1E26",
"Q@	c #232226",
"R@	c #464040",
"S@	c #444040",
"T@	c #403C3C",
"U@	c #3A3939",
"V@	c #5B5C5C",
"W@	c #6E6F6F",
"X@	c #515151",
"Y@	c #1099E2",
"Z@	c #3F3C3C",
"`@	c #434040",
" #	c #3F3C3D",
".#	c #3A3539",
"+#	c #413D3E",
"@#	c #4B4748",
"##	c #494646",
"$#	c #4A4747",
"%#	c #544F4F",
"&#	c #545050",
"*#	c #444242",
"=#	c #119BE4",
"-#	c #464141",
";#	c #4D4848",
">#	c #504C4C",
",#	c #4F4C4B",
"'#	c #4C4848",
")#	c #494747",
"!#	c #454343",
"~#	c #3D3B3B",
"{#	c #3D3C3C",
"]#	c #403E3E",
"^#	c #534F4F",
"/#	c #595656",
"(#	c #4F4B4B",
"_#	c #3E3D3D",
":#	c #373636",
"<#	c #524E4E",
"[#	c #5A5656",
"}#	c #656363",
"|#	c #494A4A",
"1#	c #5D5B5B",
"2#	c #6B6969",
"3#	c #686767",
"4#	c #4C4D4D",
"5#	c #434242",
"6#	c #5B5959",
"7#	c #333434",
"8#	c #767676",
"9#	c #525252",
"0#	c #233939",
"a#	c #2F3737",
"b#	c #313737",
"c#	c #253636",
"d#	c #313333",
"e#	c #2F2F2F",
"f#	c #5B5B5B",
"g#	c #503232",
"h#	c #513030",
"i#	c #4F3131",
"j#	c #533E3E",
"k#	c #4E5050",
"l#	c #503030",
"m#	c #762020",
"n#	c #831212",
"o#	c #851717",
"p#	c #7E4747",
"q#	c #716868",
"r#	c #6F7171",
"s#	c #2D3939",
"t#	c #463535",
"u#	c #702424",
"v#	c #821111",
"w#	c #7B1A1A",
"x#	c #723F3F",
"y#	c #685F5F",
"z#	c #5E6060",
"A#	c #453535",
"B#	c #423434",
"C#	c #3F3636",
"D#	c #413838",
"E#	c #2E2E2E",
"F#	c #494949",
"G#	c #626262",
"H#	c #323737",
"I#	c #2A3434",
"J#	c #2D3232",
"K#	c #2D2D2D",
"                                                . .                                                         ",
"                                              + @ .                                                         ",
"                                            # $ % &                                                         ",
"                                          # * * = -                                                         ",
"                    ; > , ' ) ! ~ - { $ @ ] ^ / ( .                                                         ",
"                    _ : < [ } | 1 * 2 3 4 5 6 7 8 %                                                         ",
"                9 0 a b c d e f f f f 7 ^ g h i 1 @                                                         ",
"                j k l m n o p q r h h s t u v w x %                                                         ",
"                    y z A B C D E F % F G . s 7 2 $                                                         ",
"                    H I J K           + @ C 1 L M C                                                         ",
"                                      - 5 N O P M u                                                         ",
"                                      @ Q O R f S 5                                                         ",
"                                      & T / U V W X                                                         ",
"                                    & Y Z `  ...+.@.+                                                       ",
"                                  @ . #.$.%.&.*.=.$ -.                                                      ",
"                                @ - @.;.>.>.,.>.'.).E                                                       ",
"                              & - & ~ !.~.{.].].^./.@ (.                                                    ",
"                            (.$ (.5 _.] Q :.{.{.<.[.}.N |.              1.                                  ",
"                          Q 8 v ^ r O 2.3.1 5 4.5.- 6.7.^ 8.            9.9.                                ",
"                  - % $ (.4 0.L a.b.7./ c.d./.e.@.f.g.h.w 2 * i.j.k.        l.m.    n.                      ",
"                + o.Q s p.q.r.s.t.u.v.w.x.y.z.A.z.B.C.w D.h.r X E.F.        G.H.      l.      G.I.          ",
"          @ & u (.$ x J.K.L.M.N.O.P.Q.R.S.T.U.V.W.X.8.7.Y.Z.`. +.+++        G.H.      I.I.    G.G.          ",
"          - u g.2 v @+#+$+%+&+*+=+-+;+>+,+'+T.T.)+!+~+` D.Y.{+]+^+/+(+      n._+      I.I.        :+n.      ",
"        - G 8.<+[+}+|+1+2+3+4+5+6+7+8+9+0+V.T.V.U.a+8.2.Y.Y.b+c+d+e+f+g+    n._+      I.I.        h+n.      ",
"      @ % 4 O [+Y.i+j+8.k+l+m+n+o+p+q+r+s+V.T.T.t+a+u+` Y.Z.v+w+x+y+z+A+    B+1.        I.        l.n.      ",
"    . - # v h.D.D.C+D+E+F+G+6+H+I+J+K+L+M+N+T.O+t+P+Q+^ D.Z.R+S+T+U+V+W+    X+H.        I.      l.h+        ",
"    . & 5 3 f Z.D.Y.Y+Z+`+ @.@+@@@#@$@%@&@*@V.T.t+=@}.r D.-@;@>@,@'@)@      I.H.        I.I.  G.n.          ",
"    . - @ x / D.Y.!@~@{@]@^@/@(@_@:@<@[@}@|@1@T.2@3@).^ f Z.7.4@5@6@7@      I.1.      9.8@                  ",
"      @ . 9@( 0@f D.P a@b@c@d@e@f@g@h@i@j@>.k@l@2@m@n@3 D.!@P o@G p@q@      n.h+    r@:+                    ",
"        - & - ( <+0@s@t@u@v@w@x@y@z@A@B@C@>.D@E@T.F@Q+G@H@f 7.g.o.k.        I@m.                            ",
"          & . ] ~+~+}.z.J@K@L@M@N@O@P@Q@C@].C@R@S@T@U@V@W@^ X@T           Y@                                ",
"            & & G G + Z@`@#. #.#+#@###$#%#&#*#% C [.~ 1 h.v $             =#                                ",
"                    @ f.. j.e.-#;#>#,#^.'#$#C@##)#!#U@~+X@=                                                 ",
"                              ~#{#]#{#~#@./.$#^#/#(#_#& .                                                   ",
"                              - @ @ :#. 5.##<#[#}#0@|#G                                                     ",
"                                  @ . - ##<#].1#2#3#4#+                                                     ",
"                                    . - ]#5#6#i Y.i 4 &                                                     ",
"                                      @ 7#% x Y.8#L g.-                                                     ",
"                                        + (.x [+!@h.9#.                                                     ",
"                                          @ 4 <+L L 9#.                                                     ",
"                                          @ $ t 6 L 1 .                                                     ",
"                                          & o.@ s L 2 (.                                                    ",
"                        0#a#b#c#d#-.e#G - & . @ x P f#5                                                     ",
"                        g#h#i#j#{.k#8 x h v 1 5 X@P M $                                                     ",
"                      l#m#n#o#p#q#r#7 7 Y.7 0@4 ( w r 5                                                     ",
"                    s#t#u#v#w#x#y#z#f#6 v ( |.# ( w r g                                                     ",
"                        A#B#C#D#j G % + E#F - o.F#G#f#]                                                     ",
"                          K H#I#J#&               F#g - -                                                   ",
"                                                  K#+ @ @                                                   ",
"                                                      . @                                                   "};
