/* XPM */
static char * nave2_13_xpm[] = {
"54 50 521 2",
"  	c None",
". 	c #213389",
"+ 	c #28328E",
"@ 	c #1D2BB5",
"# 	c #5C1AA4",
"$ 	c #702145",
"% 	c #522B70",
"& 	c #323281",
"* 	c #293084",
"= 	c #33327F",
"- 	c #30308F",
"; 	c #313187",
"> 	c #1725C9",
", 	c #7B0F67",
"' 	c #8E0000",
") 	c #8B0000",
"! 	c #814000",
"~ 	c #4A35B4",
"{ 	c #2428B6",
"] 	c #313188",
"^ 	c #343375",
"/ 	c #33337D",
"( 	c #31318C",
"_ 	c #353562",
": 	c #35355E",
"< 	c #472F77",
"[ 	c #66255E",
"} 	c #7D1336",
"| 	c #814D2B",
"1 	c #2718F7",
"2 	c #0000FF",
"3 	c #000AFA",
"4 	c #161AE3",
"5 	c #2627BC",
"6 	c #303090",
"7 	c #333375",
"8 	c #343472",
"9 	c #1F21D1",
"0 	c #0009FA",
"a 	c #1A1DDC",
"b 	c #2C2CA5",
"c 	c #32327C",
"d 	c #2C328A",
"e 	c #22338B",
"f 	c #263386",
"g 	c #3C3580",
"h 	c #2025C1",
"i 	c #1519E4",
"j 	c #0001FF",
"k 	c #0008FC",
"l 	c #0F14ED",
"m 	c #323280",
"n 	c #1217EA",
"o 	c #0006FC",
"p 	c #0811FD",
"q 	c #292AB3",
"r 	c #2F318B",
"s 	c #33337A",
"t 	c #313189",
"u 	c #2829B5",
"v 	c #191CDE",
"w 	c #010BF9",
"x 	c #060FF5",
"y 	c #020CF9",
"z 	c #1F22EB",
"A 	c #323286",
"B 	c #30318C",
"C 	c #32337E",
"D 	c #343473",
"E 	c #323282",
"F 	c #303091",
"G 	c #2728B8",
"H 	c #0002FF",
"I 	c #0B12F8",
"J 	c #2527D5",
"K 	c #33336F",
"L 	c #343471",
"M 	c #0005FD",
"N 	c #1519F5",
"O 	c #2C2DB2",
"P 	c #323284",
"Q 	c #333377",
"R 	c #303081",
"S 	c #000AF9",
"T 	c #1C20EE",
"U 	c #31318D",
"V 	c #2224C4",
"W 	c #2427E4",
"X 	c #2F30C7",
"Y 	c #0911F8",
"Z 	c #2426DB",
"` 	c #333373",
" .	c #34346E",
"..	c #1519E5",
"+.	c #0D14F8",
"@.	c #151AF3",
"#.	c #0001FC",
"$.	c #1318F6",
"%.	c #2B2CBA",
"&.	c #34336F",
"*.	c #313186",
"=.	c #0009FB",
"-.	c #0008FA",
";.	c #161BF3",
">.	c #1B1FF0",
",.	c #303094",
"'.	c #35355B",
").	c #34346B",
"!.	c #313289",
"~.	c #1F21CF",
"{.	c #0004FF",
"].	c #191DF1",
"^.	c #4342C7",
"/.	c #0810EF",
"(.	c #333376",
"_.	c #31328A",
":.	c #34346D",
"<.	c #32327E",
"[.	c #303191",
"}.	c #0A12F2",
"|.	c #3131DA",
"1.	c #2929E3",
"2.	c #0007FA",
"3.	c #2022CD",
"4.	c #333378",
"5.	c #323481",
"6.	c #313085",
"7.	c #2E2F9F",
"8.	c #292AB6",
"9.	c #2E2E9A",
"0.	c #323276",
"a.	c #3428A5",
"b.	c #1A3BF3",
"c.	c #0110F9",
"d.	c #1400E4",
"e.	c #2500BD",
"f.	c #302E8F",
"g.	c #33337C",
"h.	c #2223CC",
"i.	c #0810F7",
"j.	c #1318F3",
"k.	c #040DF8",
"l.	c #0004FE",
"m.	c #2D2DA1",
"n.	c #31318B",
"o.	c #2723CC",
"p.	c #2E70A5",
"q.	c #333C7C",
"r.	c #0E0BE9",
"s.	c #0009FC",
"t.	c #0005FE",
"u.	c #0911F0",
"v.	c #2E20D2",
"w.	c #348CD5",
"x.	c #1AB3E9",
"y.	c #119CF2",
"z.	c #0370FB",
"A.	c #0028FB",
"B.	c #1000EA",
"C.	c #1B00DA",
"D.	c #0000FE",
"E.	c #0810F3",
"F.	c #33337B",
"G.	c #30318A",
"H.	c #333479",
"I.	c #2F269A",
"J.	c #302C93",
"K.	c #2C2BA8",
"L.	c #073BFD",
"M.	c #17A6F0",
"N.	c #25A7E3",
"O.	c #3528DC",
"P.	c #351DAE",
"Q.	c #414FC0",
"R.	c #3B7FD0",
"S.	c #2EA2DC",
"T.	c #20B0E5",
"U.	c #189EED",
"V.	c #057CF8",
"W.	c #0828F3",
"X.	c #000AFE",
"Y.	c #0005FF",
"Z.	c #1D20D6",
"`.	c #353467",
" +	c #331975",
".+	c #2571D7",
"++	c #0627FC",
"@+	c #0310F6",
"#+	c #0000FC",
"$+	c #0000FA",
"%+	c #0419F8",
"&+	c #1603F5",
"*+	c #0008FF",
"=+	c #1F24D6",
"-+	c #575678",
";+	c #6661AF",
">+	c #423C00",
",+	c #000039",
"'+	c #000078",
")+	c #3A1DA2",
"!+	c #4147BD",
"~+	c #20B8E4",
"{+	c #3DA9C7",
"]+	c #31478F",
"^+	c #302C91",
"/+	c #2426C3",
"(+	c #0B12F1",
"_+	c #2C2DA3",
":+	c #2728BB",
"<+	c #2B2CAA",
"[+	c #323283",
"}+	c #323180",
"|+	c #323A84",
"1+	c #1DB9E7",
"2+	c #0223F9",
"3+	c #0106F9",
"4+	c #1D22BF",
"5+	c #4847C1",
"6+	c #000079",
"7+	c #716A00",
"8+	c #C1B400",
"9+	c #C6B808",
"0+	c #AEA200",
"a+	c #6F6700",
"b+	c #000100",
"c+	c #0A168F",
"d+	c #1C67F3",
"e+	c #484CBA",
"f+	c #151AE4",
"g+	c #2829B8",
"h+	c #0003FF",
"i+	c #313285",
"j+	c #313180",
"k+	c #36519A",
"l+	c #268BE9",
"m+	c #010BFA",
"n+	c #000AF5",
"o+	c #282700",
"p+	c #7F7700",
"q+	c #D0C10C",
"r+	c #D0C100",
"s+	c #EFDE08",
"t+	c #F2E109",
"u+	c #EFDE09",
"v+	c #8D8303",
"w+	c #181500",
"x+	c #0000CC",
"y+	c #0007FC",
"z+	c #000AFB",
"A+	c #2627C2",
"B+	c #2C2DA5",
"C+	c #191CE0",
"D+	c #32337A",
"E+	c #382D8C",
"F+	c #2D20CD",
"G+	c #0002FC",
"H+	c #010BFE",
"I+	c #0000D0",
"J+	c #383300",
"K+	c #A99D00",
"L+	c #F4E309",
"M+	c #EEDD09",
"N+	c #F0DF09",
"O+	c #676002",
"P+	c #0E0C00",
"Q+	c #0009F3",
"R+	c #2B2BAB",
"S+	c #1F22D0",
"T+	c #1419F2",
"U+	c #171BEE",
"V+	c #2F3091",
"W+	c #303184",
"X+	c #343469",
"Y+	c #0911F1",
"Z+	c #0007FB",
"`+	c #020BF9",
" @	c #000AFF",
".@	c #000088",
"+@	c #5B5300",
"@@	c #CDBF00",
"#@	c #F5E409",
"$@	c #F3E209",
"%@	c #ECDB09",
"&@	c #D8C907",
"*@	c #3D3900",
"=@	c #00007A",
"-@	c #010BFF",
";@	c #0911F2",
">@	c #119CE7",
",@	c #333371",
"'@	c #373682",
")@	c #4646B8",
"!@	c #030CF9",
"~@	c #050CDF",
"{@	c #5953AB",
"]@	c #CEC01A",
"^@	c #E9D80B",
"/@	c #F2E009",
"(@	c #C8B907",
"_@	c #A79B07",
":@	c #7F7603",
"<@	c #1D1B00",
"[@	c #0000C1",
"}@	c #171BE2",
"|@	c #2F2F96",
"1@	c #040DF6",
"2@	c #32327F",
"3@	c #109AE5",
"4@	c #303085",
"5@	c #333388",
"6@	c #2325BE",
"7@	c #2325DF",
"8@	c #2E2FE3",
"9@	c #0000ED",
"0@	c #000000",
"a@	c #897E02",
"b@	c #C1B308",
"c@	c #AEA107",
"d@	c #918706",
"e@	c #3E3901",
"f@	c #0A0800",
"g@	c #0009ED",
"h@	c #010BFB",
"i@	c #2325C7",
"j@	c #0007FD",
"k@	c #343371",
"l@	c #2C2DA6",
"m@	c #1318EB",
"n@	c #0006FD",
"o@	c #1013D0",
"p@	c #413B00",
"q@	c #6A6200",
"r@	c #847B07",
"s@	c #8F8506",
"t@	c #837A05",
"u@	c #252100",
"v@	c #000068",
"w@	c #0F15ED",
"x@	c #2925B3",
"y@	c #333D74",
"z@	c #323983",
"A@	c #31208A",
"B@	c #119DE9",
"C@	c #119AE4",
"D@	c #313287",
"E@	c #303093",
"F@	c #020CF8",
"G@	c #2F2BA4",
"H@	c #3C371D",
"I@	c #5C5500",
"J@	c #756C00",
"K@	c #5B5402",
"L@	c #121000",
"M@	c #0002B5",
"N@	c #1217E9",
"O@	c #30308D",
"P@	c #000BF9",
"Q@	c #312F87",
"R@	c #315E80",
"S@	c #208DCD",
"T@	c #2A71AC",
"U@	c #119BE6",
"V@	c #33327B",
"W@	c #2527C0",
"X@	c #1318E7",
"Y@	c #1719E3",
"Z@	c #272300",
"`@	c #000063",
" #	c #00002A",
".#	c #131100",
"+#	c #060500",
"@#	c #0009E6",
"##	c #010BFC",
"$#	c #2527BF",
"%#	c #2627BD",
"&#	c #1615E3",
"*#	c #343F73",
"=#	c #2B74A6",
"-#	c #129DE9",
";#	c #2B72A3",
">#	c #383530",
",#	c #119EEA",
"'#	c #2020D1",
")#	c #2222D9",
"!#	c #1C1EDE",
"~#	c #191BBE",
"{#	c #12149C",
"]#	c #010BFD",
"^#	c #1418E7",
"/#	c #0008FB",
"(#	c #261FBC",
"_#	c #334D72",
":#	c #2289C7",
"<#	c #1A94DB",
"[#	c #316086",
"}#	c #392C0C",
"|#	c #0006FE",
"1#	c #0E14F4",
"2#	c #1116F2",
"3#	c #0C13F0",
"4#	c #32487E",
"5#	c #2185C8",
"6#	c #2582BC",
"7#	c #354C60",
"8#	c #2E2F99",
"9#	c #2325C6",
"0#	c #1116EA",
"a#	c #2526C1",
"b#	c #2224CA",
"c#	c #0A12F1",
"d#	c #2425C6",
"e#	c #0005FB",
"f#	c #343374",
"g#	c #322B7F",
"h#	c #33237B",
"i#	c #119AE5",
"j#	c #353564",
"k#	c #2628BB",
"l#	c #171BE1",
"m#	c #2A2BAF",
"n#	c #30308E",
"o#	c #181BE1",
"p#	c #383AD0",
"q#	c #2225EE",
"r#	c #2325C5",
"s#	c #31318A",
"t#	c #2E2E9E",
"u#	c #0003FE",
"v#	c #181BE0",
"w#	c #313185",
"x#	c #393ACB",
"y#	c #3B3BBC",
"z#	c #31318F",
"A#	c #0F16ED",
"B#	c #3232DD",
"C#	c #1E21EE",
"D#	c #1C1FD8",
"E#	c #2F2F95",
"F#	c #030DF7",
"G#	c #119BE5",
"H#	c #2022CF",
"I#	c #4342C5",
"J#	c #2023ED",
"K#	c #2A2BAD",
"L#	c #353563",
"M#	c #119DE8",
"N#	c #2E2E9B",
"O#	c #030DF9",
"P#	c #1E21EF",
"Q#	c #1E21EA",
"R#	c #0004FB",
"S#	c #0D14F7",
"T#	c #2728D0",
"U#	c #33336C",
"V#	c #2F3658",
"W#	c #050EF3",
"X#	c #161AF5",
"Y#	c #2D2EAD",
"Z#	c #212BAE",
"`#	c #5B2580",
" $	c #492E76",
".$	c #2E3381",
"+$	c #253279",
"@$	c #323457",
"#$	c #1E22E2",
"$$	c #4C4DAD",
"%$	c #0006FA",
"&$	c #1D20EC",
"*$	c #241ED6",
"=$	c #8A0600",
"-$	c #860F00",
";$	c #7D1326",
">$	c #654057",
",$	c #322EA4",
"'$	c #36364F",
")$	c #33336A",
"!$	c #282ABC",
"~$	c #0A12F8",
"{$	c #2527D7",
"]$	c #333370",
"^$	c #701879",
"/$	c #840540",
"($	c #8C1A00",
"_$	c #7C4F60",
":$	c #1A1DDD",
"<$	c #161AE2",
"[$	c #1419F5",
"}$	c #2C2DB4",
"|$	c #1C309C",
"1$	c #202BB4",
"2$	c #422BAE",
"3$	c #4D38B1",
"4$	c #0009F4",
"5$	c #171BE4",
"6$	c #2E2FB2",
"7$	c #1C1FEF",
"8$	c #36362A",
"9$	c #303367",
"0$	c #30327B",
"a$	c #2B2DAB",
"b$	c #2224CD",
"c$	c #1318E9",
"d$	c #2628D2",
"e$	c #2A2BA9",
"f$	c #0811F8",
"g$	c #2325DD",
"h$	c #333374",
"i$	c #35354C",
"j$	c #2D2EA5",
"k$	c #2225CA",
"l$	c #1C1FD7",
"m$	c #1218F6",
"n$	c #2B2CBC",
"o$	c #363645",
"p$	c #343464",
"q$	c #050EF6",
"r$	c #303096",
"s$	c #1B1EE9",
"t$	c #2D2E9E",
"u$	c #2526BF",
"v$	c #363657",
"                                    . +                                                                     ",
"                                @ # $ % & * = -                   ;                                         ",
"                                > , ' ) ! ~ { ] ^ / (         _ : &                                         ",
"                                  < [ } | 1 2 3 4 5 6 7 8 9 0 a b c                                         ",
"                                  d e f g h i 3 j 2 k l m n o p q                                           ",
"                                        r s 7 t u v w x ; k y z A                                           ",
"                                              B C D E F G H I J K                                           ",
"                                                  E & L i M N O                                             ",
"                                                  P Q R 3 S T U                                             ",
"                                                  V W X H Y Z `                                             ",
"                                                 ...+.@.#.$.%.                                              ",
"                                            _ &.*.=.-.0 ;.>.,.                                              ",
"                                        '.).!.q ~.{.#.].^./.(.                                              ",
"                        _.          ; :.Q <.[.}.2 |.1.2.j 3.                                                ",
"                4.5.  6.7.8.9.0.a.b.c.d.e.f.g.h.w i.j.k.l.m.                                                ",
"            n.*.E o.p.q.r.s.t.u.v.w.x.y.z.A.B.C.D.S 3 3 E.F.                                                ",
"        G.H.I.J.K.L.M.N.O.-.w 2 D.P.Q.R.S.T.U.V.W.X.Y.{.Z.`.                                                ",
"      m &  +.+++@+#+$+%+&+*+=+-+;+>+,+'+)+!+~+{+]+^+/+(+_+:+<+                                              ",
"      [+}+|+1+2+3+w w H 4+5+6+7+8+9+0+a+b+c+d+e+2 f+g+[+& =.h+                                              ",
"      i+j+k+l+$+w w m+n+o+p+q+r+s+t+u+v+w+x+2 #+w y+z+A+B+{.k.C+                                            ",
"        D+E+F+G+w w H+I+J+K+L+M+N+N+u+O+P+Q+m+w w w H R+S+l.T+U+                                            ",
"        V+W+X+Y+Z+`+ @.@+@@@#@$@%@#@&@*@=@-@w w w w 3 [+;@3 0 Y.:+          >@                              ",
"          ,@'@)@2 s.!@~@{@]@^@/@(@_@:@<@[@-@w w w k }@|@t.w w 1@2@2@E       3@                              ",
"            4@5@6@7@8@H 9@0@a@b@c@d@e@f@g@h@w w w {.u i@t.w j@a k@}+i+                                      ",
"                8 l@m@n@o@p@q@r@s@t@u@v@-@w w w w k ] w@=.w {.x@y@z@A@        B@C@                          ",
"                D@E@F@{.H G@H@I@J@K@L@M@-@w w w =.N@O@n@w w P@Q@R@S@T@        U@      B@                    ",
"                  V@|@W@X@Y@Z@`@ #.#+#@###w w w Y.$#%#{.w k &#*#=#-#;#>#    ,#C@                            ",
"                        u n@'#)#!#~#{#]#w w w w n@- ^#/#w {.(#_#:#<#[#}#    B@C@        ,#                  ",
"                          !@2 |#y 1#2#/#=.t.3 0 3#*./#w w k - 4#5#6#7#      >@          ,#    >@,#          ",
"                          8#9#0#k h+j@{.a#b#c#s.d#q {.e#D.N@f#g#h#          i#        ,#                    ",
"                            j#^ 6 k#l#w v m#i+n#& o#2 p#q#r#L 2@s#        B@C@        ,#                    ",
"                            C m [+t#:+{.u#2 /#v#w#3 S x#y#    ]           >@          ,#        U@,#        ",
"                              <.z#A#{.D.B#C#n@D#E#P@F#                    G#        ,#,#        >@          ",
"                              : ; H#w e#I#J#2 K#L#F.                            >@          M#              ",
"                                m N#Y.O#P#S Q#E                     G#                      ,#              ",
"                                  H#t.S R#S#T#U#                                                            ",
"              V#                Q W#m+2.0 X#Y#                                                              ",
"          Z#`# $.$+$@$          O@#$$$%$w &$]                                                               ",
"        O@*$=$-$;$>$,$& j#'$  K g.)$!$2 ~${$]$                                                              ",
"            ^$/$($_$2 F#:$u t L (.8 <$M [$}$                                                                ",
"            |$1$2$3$4$k j j 0 5$6$*.w S 7$z#                                                                ",
"              8$9$0$U a$b$c$3 {.d$e$h+f$g$h$                                                                ",
"                      i$).!.j$k$9.l$l.m$n$                                                                  ",
"                            o$p$` q$0 >.r$                                                                  ",
"                                  h+{.s$4.                                                                  ",
"                                  t$5 u$                                                                    ",
"                                    v$<.                                                                    ",
"                                    <.&                                                                     ",
"                                                                                                            ",
"                                                                                                            "};
