/* XPM */
static char *_574017478318[] = {
/* columns rows colors chars-per-pixel */
"412 42 2 1 ",
"  c #EFFF0E",
". c None",
/* pixels */
".....          ..................................................          ..................................................     .............................................                    ........................................................     .........................................................................................................     ..................     ..................     ",
".....          ..................................................          ..................................................     .............................................                    ........................................................     .........................................................................................................     ..................     ..................     ",
".....          ..................................................          ..................................................     .............................................                    ........................................................     .........................................................................................................     ..................     ..................     ",
".....          ..................................................          ..................................................     .............................................                    ........................................................     .....      ....................................................................      ....................     ..................     .....      .......     ",
".....          ..................................................          ..................................................     .............................................                    ........................................................     .....      ....................................................................      ....................     ..................     .....      .......     ",
"     ..........     ........................................     ..........     ........................................          .............................................     .......................................................................     .....      ....................................................................      ....................     ............................      .......     ",
"     ..........     ........................................     ..........     ........................................          .............................................     ...............     ...................................................     .....      ....................................................................      ....................     ............................      .......     ",
"     ..........     ........................................     ..........     ........................................          .............................................     ...............     ...................................................     .....      ....................................................................      ....................     ............................      .......     ",
"     ..........     ........................................     ..........     ........................................          .............................................     ...............     ........          ........                  .......     ...          .......................               ........               ...          ..................     ..................     ...          .....     ",
"     ..........     ........................................     ..........     ........................................          .............................................     ...............     ........          ........                  .......     ...          .......................               ........               ...          ..................     ..................     ...          .....     ",
"...............     .........................................................................................................     .............................................     ...............     ........          ........                  ...............          .......................               ........               ...          ..................     ..................     ...          .....     ",
"...............     ..................................................     ..................................................     .............................................     ...............     ........          ........                  ...............          .......................               ........               ...          ..................     .....     ........     ...          .....     ",
"...............     ..................................................     ..................................................     .............................................     ...............     ........          ........                  ...............          .......................               ........               ...          ..................     .....     ........     ...          .....     ",
"..........     .......................................................     ..................................................     .............................................     ...............     ...     ..........     ...     ............     .............      ....................     ..........     ...     ..........     .....      ....................     .....     ........     .....      .......     ",
"..........     .......................................................     ..................................................     .............................................     ...............     ...     ..........     ...     ............      ............      ....................     ..........     ...     ..........     .....      ....................     .....     ........     .....      .......     ",
"..........     .......................................................     ..................................................     .............................................     ...............     ...     ..........     ...     ............      ............      ....................     ..........     ...     ..........     .....      ....................     .....     ........     .....      .......     ",
"..........     ..................................................     .......................................................     .............................................     ...............     ...     ..........     ...     ............      ............      ....................     ..........     ...                    .....      ....................          .....     ...     .....      .......     ",
"..........     ..................................................     .......................................................     .............................................     ...............     ...     ..........     ...     ............      ............      ....................     ..........     ...                    .....      ....................          .....     ...     .....      .......     ",
"...............     .............................................     .......................................................     .............................................     ...............     ...     ..........     ...     ............      ............      .........................               ...               ..........      ....................          .....     ...     .....      .......     ",
"...............     .............................................     .......................................................     .............................................     ...............     ...     ..........     ...     ............      ............      .........................               ...               ..........      ....................          .....     ...     .....      .......     ",
"...............     .............................................     .......................................................     .............................................     ...............     ...     ..........     ...     ............      ............      .........................               ...               ..........      ....................          .....     ...     .....      .......     ",
"     ..........     ........................................     ............................................................     .............................................     ...............     ...     ..........     ...     ............      ............      .........................               ...     ....................      ....................     ..........     ...     .....      .......     ",
"     ..........     ........................................     ............................................................     .............................................     ...............     ...     ..........     ...     ............      ............      .........................               ...     ....................      ....................     ..........     ...     .....      .......     ",
"     ..........     ........................................     ............................................................     .............................................     ...............     ...     ..........     ...     ............      ............      ...................................     ...     ..........     .....      ....................     ..........     ...     .....      ............",
"     ..........     ........................................     ............................................................     .............................................     ...............     ...     ..........     ...     ............      ............      ...................................     ...     ..........     .....      ....................     ..........     ...     .....      ............",
"     ..........     ........................................     ............................................................     .............................................     ...............     ...     ..........     ...     ............      .............     ...................................     ...     ..........     ......     ....................     ..........     ...     ......     ............",
".....          ........     ...     ...     ................                    ...     ...     ...     ................               ...     ...     ...     ................                    .............          ........     ............      .................      ..............................     ........               ..........      ...............     ..........     ...     ..........      ..     ",
".....          ........     ...     ...     ................                    ...     ...     ...     ................               ...     ...     ...     ................                    .............          ........     ............      .................      ..............................     ........               ..........      ...............     ..........     ...     ..........      ..     ",
".....          ........     ...     ...     ................                    ...     ...     ...     ................               ...     ...     ...     ................                    .............          ........     ............      .................      ..............................     ........               ..........      ...............     ..........     ...     ..........      ..     ",
".....          ........     ...     ...     ................                    ...     ...     ...     ................               ...     ...     ...     ................                    .............          ........     ............      .................      ..............................     ........               ..........      ...............     ..........     ...     ..........      ..     ",
".....          ........     ...     ...     ................                    ...     ...     ...     ................               ...     ...     ...     ................                    .............          ........     ............      .................      ..............................     ........               ..........      ...............     ..........     ...     ..........      ..     ",
"...............................................................................................................................................................................................................................................................................................     ..........     .........................................................................................................",
"...............................................................................................................................................................................................................................................................................................     ..........     .........................................................................................................",
"...............................................................................................................................................................................................................................................................................................     ..........     .........................................................................................................",
"...............................................................................................................................................................................................................................................................................................     ..........     .........................................................................................................",
"...............................................................................................................................................................................................................................................................................................     ..........     .........................................................................................................",
"....................................................................................................................................................................................................................................................................................................          ..............................................................................................................",
"....................................................................................................................................................................................................................................................................................................          ..............................................................................................................",
"....................................................................................................................................................................................................................................................................................................          ..............................................................................................................",
"....................................................................................................................................................................................................................................................................................................          ..............................................................................................................",
"....................................................................................................................................................................................................................................................................................................          ..............................................................................................................",
"............................................................................................................................................................................................................................................................................................................................................................................................................................"
};
