/* XPM */
static char * tiro1_xpm[] = {
"35 37 242 2",
"  	c None",
". 	c #7E7E7E",
"+ 	c #4C4C4C",
"@ 	c #B7B8B8",
"# 	c #292929",
"$ 	c #676767",
"% 	c #62696A",
"& 	c #846F6C",
"* 	c #A1655C",
"= 	c #6C5755",
"- 	c #414141",
"; 	c #3A2424",
"> 	c #A42323",
", 	c #B1302C",
"' 	c #933713",
") 	c #E75405",
"! 	c #846F70",
"~ 	c #404040",
"{ 	c #260404",
"] 	c #A30004",
"^ 	c #E41F0A",
"/ 	c #F85206",
"( 	c #D74806",
"_ 	c #41494A",
": 	c #737879",
"< 	c #434444",
"[ 	c #282C32",
"} 	c #00182C",
"| 	c #5A0C16",
"1 	c #8D1F0D",
"2 	c #C04605",
"3 	c #ED1611",
"4 	c #CF3132",
"5 	c #917D7E",
"6 	c #3C3E42",
"7 	c #00223F",
"8 	c #035C94",
"9 	c #015684",
"0 	c #002E44",
"a 	c #671D1B",
"b 	c #89070B",
"c 	c #930303",
"d 	c #171616",
"e 	c #626262",
"f 	c #242D3B",
"g 	c #015286",
"h 	c #0276B8",
"i 	c #028ECC",
"j 	c #0399D3",
"k 	c #014574",
"l 	c #0D0C17",
"m 	c #2A0203",
"n 	c #383838",
"o 	c #383C40",
"p 	c #003053",
"q 	c #026BAC",
"r 	c #0282C6",
"s 	c #03B3F4",
"t 	c #0290D2",
"u 	c #0462A0",
"v 	c #033E68",
"w 	c #202020",
"x 	c #4A4A4A",
"y 	c #1E2A3A",
"z 	c #02578D",
"A 	c #0179BB",
"B 	c #029DDF",
"C 	c #02AFF1",
"D 	c #0170B8",
"E 	c #0565A3",
"F 	c #01213C",
"G 	c #3D3D3D",
"H 	c #35393F",
"I 	c #013960",
"J 	c #036EB0",
"K 	c #0284C9",
"L 	c #03B7F8",
"M 	c #018CD0",
"N 	c #036AAD",
"O 	c #02497A",
"P 	c #252529",
"Q 	c #182638",
"R 	c #025B94",
"S 	c #027BBE",
"T 	c #02A1E3",
"U 	c #02AAEC",
"V 	c #016FB6",
"W 	c #04619D",
"X 	c #001127",
"Y 	c #414142",
"Z 	c #31363E",
"` 	c #01406A",
" .	c #0270B1",
"..	c #0188CC",
"+.	c #03BAFB",
"@.	c #0185CB",
"#.	c #0468AB",
"$.	c #024371",
"%.	c #2A2A2C",
"&.	c #959491",
"*.	c #424243",
"=.	c #112337",
"-.	c #015F9A",
";.	c #017CBF",
">.	c #02A6E7",
",.	c #02A5E7",
"'.	c #026EB5",
").	c #045C97",
"!.	c #050511",
"~.	c #444445",
"{.	c #787878",
"].	c #4B4F4F",
"^.	c #867C7C",
"/.	c #8B4D4E",
"(.	c #410607",
"_.	c #0F1D2B",
":.	c #024875",
"<.	c #0372B3",
"[.	c #028CCE",
"}.	c #03BEFF",
"|.	c #017CC4",
"1.	c #0368A9",
"2.	c #023D67",
"3.	c #2F2F31",
"4.	c #262626",
"5.	c #454545",
"6.	c #4B4B4B",
"7.	c #382B2B",
"8.	c #990105",
"9.	c #D6030A",
"0.	c #4F060E",
"a.	c #092137",
"b.	c #0266A4",
"c.	c #016CAD",
"d.	c #048BC4",
"e.	c #0599DB",
"f.	c #036BB1",
"g.	c #025A91",
"h.	c #111118",
"i.	c #49494A",
"j.	c #1A1A1A",
"k.	c #211515",
"l.	c #7F0303",
"m.	c #A05757",
"n.	c #592F39",
"o.	c #014E81",
"p.	c #015A94",
"q.	c #022B39",
"r.	c #0575B6",
"s.	c #0467A4",
"t.	c #01365B",
"u.	c #363637",
"v.	c #1D2222",
"w.	c #313130",
"x.	c #8D8685",
"y.	c #838187",
"z.	c #2B6193",
"A.	c #0267A5",
"B.	c #013A61",
"C.	c #03588E",
"D.	c #056EAE",
"E.	c #045288",
"F.	c #10121A",
"G.	c #484848",
"H.	c #565759",
"I.	c #32445A",
"J.	c #013356",
"K.	c #032641",
"L.	c #0375BD",
"M.	c #0265A3",
"N.	c #012F4F",
"O.	c #340B10",
"P.	c #271414",
"Q.	c #595858",
"R.	c #000611",
"S.	c #072B45",
"T.	c #2B547B",
"U.	c #35587F",
"V.	c #540102",
"W.	c #8B0205",
"X.	c #890808",
"Y.	c #978F85",
"Z.	c #353535",
"`.	c #434241",
" +	c #4D5159",
".+	c #8D6564",
"++	c #CE2123",
"@+	c #B61418",
"#+	c #595758",
"$+	c #F98C8D",
"%+	c #F8897F",
"&+	c #FB4449",
"*+	c #F0875D",
"=+	c #A7A432",
"-+	c #C69883",
";+	c #6B5252",
">+	c #800505",
",+	c #1B0200",
"'+	c #515151",
")+	c #F66664",
"!+	c #F84F40",
"~+	c #F79240",
"{+	c #F89D20",
"]+	c #FBCB0A",
"^+	c #F6D713",
"/+	c #F76B68",
"(+	c #151A1A",
"_+	c #212121",
":+	c #7A7A7A",
"<+	c #F59B93",
"[+	c #F7A421",
"}+	c #F9C902",
"|+	c #FEFA01",
"1+	c #F8A709",
"2+	c #F76842",
"3+	c #0A0A0A",
"4+	c #646464",
"5+	c #F94F5B",
"6+	c #FA5B2F",
"7+	c #FBD505",
"8+	c #FAE307",
"9+	c #F6A914",
"0+	c #F78F43",
"a+	c #F88182",
"b+	c #FA533E",
"c+	c #FC9309",
"d+	c #FEFE00",
"e+	c #F6690E",
"f+	c #F68248",
"g+	c #F96F2F",
"h+	c #F97572",
"i+	c #FA7B54",
"j+	c #FDD608",
"k+	c #FBC308",
"l+	c #F73C2E",
"m+	c #F6626D",
"n+	c #F89889",
"o+	c #FBA119",
"p+	c #F76344",
"q+	c #FA5F5D",
"r+	c #F96D6D",
"s+	c #FB8073",
"                                                                      ",
"                                                                      ",
"                                                                      ",
"                                                                      ",
"                                                . +                   ",
"                                              @ #                     ",
"                                      $   % & * =                     ",
"                                    - ; > , ' ) !                     ",
"                                    ~ { ] ^ / ( _ :                   ",
"                                  < [ } | 1 2 3 4 5                   ",
"                                  6 7 8 9 0 a b c d e                 ",
"                                < f g h i j k l m n                   ",
"                                o p q r s t u v w x                   ",
"                              < y z A B C D E F G                     ",
"                              H I J K L M N O P x                     ",
"                            < Q R S T U V W X Y                       ",
"                            Z `  ...+.@.#.$.%.                        ",
"                      &.G *.=.-.;.>.,.'.).!.~.                        ",
"              {.  ].^./.(._.:.<.[.}.|.1.2.3.                          ",
"            4.5.6.7.8.9.0.a.b.c.d.e.f.g.h.i.                          ",
"                j.k.l.m.n.o.c.p.q.r.s.t.u.                            ",
"                  v.w.x.y.z.A.B.C.D.E.F.G.                            ",
"                        H.I.J.K.L.M.N.O.P.                            ",
"                          Q.R.S.T.U.V.W.X.                            ",
"                          Y.Z.`. +  .+++@+#+                          ",
"                  $+%+&+*+=+-+      ;+>+,+'+                          ",
"                )+!+~+{+]+^+/+        (+_+'+:+                        ",
"                  <+[+}+|+1+2+          _+3+4+                        ",
"                  5+6+7+8+9+0+a+                                      ",
"                  b+c+d+e+f+g+h+                                      ",
"                  i+j+k+l+m+                                          ",
"                  n+o+p+q+                                            ",
"                  r+s+                                                ",
"                                                                      ",
"                                                                      ",
"                                                                      ",
"                                                                      "};
