/* XPM */
static char * tiro15_xpm[] = {
"35 37 245 2",
"  	c None",
". 	c #1F1F1F",
"+ 	c #6C6C6C",
"@ 	c #5F5F5F",
"# 	c #B2B3B3",
"$ 	c #502821",
"% 	c #917979",
"& 	c #717274",
"* 	c #848A8B",
"= 	c #988E8D",
"- 	c #AF6052",
"; 	c #C95430",
"> 	c #283030",
", 	c #AC4F50",
"' 	c #4D0F0F",
") 	c #3A3939",
"! 	c #656766",
"~ 	c #793A2D",
"{ 	c #F35B04",
"] 	c #F23B0D",
"^ 	c #D5070A",
"/ 	c #770304",
"( 	c #211F1F",
"_ 	c #4A4A4A",
": 	c #8A6667",
"< 	c #DA261B",
"[ 	c #EF3D0A",
"} 	c #C04206",
"| 	c #8A080F",
"1 	c #4A0B13",
"2 	c #001020",
"3 	c #363637",
"4 	c #656161",
"5 	c #610000",
"6 	c #C10004",
"7 	c #931408",
"8 	c #69251C",
"9 	c #002C42",
"0 	c #024979",
"a 	c #044B7B",
"b 	c #141419",
"c 	c #393838",
"d 	c #372828",
"e 	c #500208",
"f 	c #250D1A",
"g 	c #015882",
"h 	c #039FD9",
"i 	c #0273B5",
"j 	c #0467A8",
"k 	c #023D67",
"l 	c #2F2F31",
"m 	c #404141",
"n 	c #09101A",
"o 	c #024E7E",
"p 	c #0274B1",
"q 	c #02A3E4",
"r 	c #02A4E6",
"s 	c #026EB4",
"t 	c #035D99",
"u 	c #00000E",
"v 	c #434343",
"w 	c #2F343B",
"x 	c #013F69",
"y 	c #0271B2",
"z 	c #0288CC",
"A 	c #03BAFB",
"B 	c #0187CD",
"C 	c #0369AC",
"D 	c #024777",
"E 	c #262629",
"F 	c #494949",
"G 	c #434444",
"H 	c #182639",
"I 	c #015A93",
"J 	c #017ABC",
"K 	c #029FE1",
"L 	c #02ADEF",
"M 	c #016FB8",
"N 	c #0564A3",
"O 	c #012340",
"P 	c #3B3B3C",
"Q 	c #363A40",
"R 	c #00355A",
"S 	c #026DAE",
"T 	c #0283C7",
"U 	c #03B3F4",
"V 	c #0293D7",
"W 	c #036BAF",
"X 	c #035085",
"Y 	c #1C1C21",
"Z 	c #222C3A",
"` 	c #025387",
" .	c #0277B9",
"..	c #0197DA",
"+.	c #03B6F7",
"@.	c #0171BB",
"#.	c #0466A6",
"$.	c #013559",
"%.	c #343436",
"&.	c #3C3E41",
"*.	c #002440",
"=.	c #0366A5",
"-.	c #017FC3",
";.	c #02ACED",
">.	c #029DE0",
",.	c #026CB2",
"'.	c #025A90",
").	c #111119",
"!.	c #484848",
"~.	c #353636",
"{.	c #2A323C",
"].	c #014978",
"^.	c #0272B4",
"/.	c #028ED1",
"(.	c #03BEFF",
"_.	c #037CC3",
":.	c #0368A7",
"<.	c #03406B",
"[.	c #0B0E15",
"}.	c #4E0D0E",
"|.	c #8B2222",
"1.	c #474243",
"2.	c #5A5B5B",
"3.	c #6B6B6B",
"4.	c #808080",
"5.	c #424343",
"6.	c #0F2236",
"7.	c #015F9A",
"8.	c #017CBE",
"9.	c #049FE0",
"0.	c #0589C2",
"a.	c #0673B3",
"b.	c #045E99",
"c.	c #011527",
"d.	c #6D0307",
"e.	c #DD030B",
"f.	c #9B0205",
"g.	c #2B2B2B",
"h.	c #323232",
"i.	c #32363E",
"j.	c #013E68",
"k.	c #036FB0",
"l.	c #016FB0",
"m.	c #012E42",
"n.	c #0565A0",
"o.	c #046AAB",
"p.	c #00497A",
"q.	c #683535",
"r.	c #9E5251",
"s.	c #7F0606",
"t.	c #201716",
"u.	c #1C1C1C",
"v.	c #444444",
"w.	c #122335",
"x.	c #035A92",
"y.	c #026AAA",
"z.	c #015084",
"A.	c #02395F",
"B.	c #0571B6",
"C.	c #305D8A",
"D.	c #7A7F86",
"E.	c #7C6D6E",
"F.	c #2D3334",
"G.	c #0C0D0D",
"H.	c #25131E",
"I.	c #043455",
"J.	c #016FB2",
"K.	c #0168A7",
"L.	c #022C4A",
"M.	c #053656",
"N.	c #314359",
"O.	c #565554",
"P.	c #822D2D",
"Q.	c #780204",
"R.	c #450F27",
"S.	c #325984",
"T.	c #25517B",
"U.	c #012846",
"V.	c #02040A",
"W.	c #504F4F",
"X.	c #868181",
"Y.	c #AC4041",
"Z.	c #D91B1E",
"`.	c #877070",
" +	c #878489",
".+	c #4C525C",
"++	c #494848",
"@+	c #565656",
"#+	c #827564",
"$+	c #4A4C4C",
"%+	c #3D1010",
"&+	c #7F0202",
"*+	c #795F5E",
"=+	c #C7A697",
"-+	c #A0A515",
";+	c #F08753",
">+	c #F74F48",
",+	c #F77D67",
"'+	c #F88D8C",
")+	c #FA918D",
"!+	c #555555",
"~+	c #252020",
"{+	c #1F1818",
"]+	c #222928",
"^+	c #F17C63",
"/+	c #F7C31D",
"(+	c #FADC06",
"_+	c #F68A1D",
":+	c #F89533",
"<+	c #F84830",
"[+	c #F9807C",
"}+	c #666666",
"|+	c #353535",
"1+	c #1D1D1D",
"2+	c #FA6342",
"3+	c #F9A30D",
"4+	c #FDF401",
"5+	c #F8CD0A",
"6+	c #F7982D",
"7+	c #F48378",
"8+	c #F78C51",
"9+	c #F7B610",
"0+	c #FAD803",
"a+	c #FBED04",
"b+	c #F52A1C",
"c+	c #F84D57",
"d+	c #F87573",
"e+	c #F95017",
"f+	c #F7833C",
"g+	c #FB6222",
"h+	c #FDE004",
"i+	c #FAB605",
"j+	c #F8493D",
"k+	c #FB7472",
"l+	c #F77F87",
"m+	c #FB573B",
"n+	c #FC9F0A",
"o+	c #FFF905",
"p+	c #F7704E",
"q+	c #F94548",
"r+	c #FA7649",
"s+	c #FA9E4D",
"t+	c #FA7A59",
"u+	c #F6ACA9",
"v+	c #FA4F4C",
"                                                                      ",
"                                                                      ",
"                                                                      ",
"                                                                      ",
"                  .                                                   ",
"                  + @                                                 ",
"                  # $ % & *                                           ",
"                  = - ; > , ' )                                       ",
"                  ! ~ { ] ^ / ( _                                     ",
"                  : < [ } | 1 2 3                                     ",
"                4 5 6 7 8 9 0 a b _                                   ",
"                c d e f g h i j k l                                   ",
"                  m n o p q r s t u v                                 ",
"                    w x y z A B C D E F                               ",
"                    G H I J K L M N O P                               ",
"                      Q R S T U V W X Y _                             ",
"                      G Z `  ...+.@.#.$.%.                            ",
"                        &.*.=.-.;.>.,.'.).!.~.                        ",
"                        G {.].^./.(._.:.<.[.}.|.1.2.3.4.              ",
"                          5.6.7.8.9.0.a.b.c.d.e.f.g.5.h.              ",
"                            i.j.k.l.m.n.o.p.q.r.s.t.u.                ",
"                            v.w.x.y.z.A.B.C.D.E.F.                    ",
"                            G.H.I.J.K.L.M.N.O.                        ",
"                            P.Q.R.S.T.U.V.W.                          ",
"                          X.Y.Z.`. +.+++@+#+                          ",
"                          $+%+&+*+      =+-+;+>+,+'+)+                ",
"                          !+~+{+]+      ^+/+(+_+:+<+[+                ",
"                        }+|+1+          2+3+4+5+6+7+                  ",
"                                      '+8+9+0+a+b+c+                  ",
"                                      d+e+f+g+h+i+j+k+                ",
"                                          l+m+n+o+p+                  ",
"                                            q+r+s+t+                  ",
"                                                u+v+                  ",
"                                                                      ",
"                                                                      ",
"                                                                      ",
"                                                                      "};
