/* XPM */
static char * tiro14_xpm[] = {
"35 37 241 2",
"  	c None",
". 	c #2E2E2E",
"+ 	c #7C7C7C",
"@ 	c #363636",
"# 	c #797B7C",
"$ 	c #6D6E6E",
"% 	c #767777",
"& 	c #9C4A3B",
"* 	c #6C6467",
"= 	c #4F5C5D",
"- 	c #A24E4E",
"; 	c #151414",
"> 	c #434343",
", 	c #9A8A88",
"' 	c #BF573D",
") 	c #DA530A",
"! 	c #D20E11",
"~ 	c #D00507",
"{ 	c #600404",
"] 	c #1B1B1B",
"^ 	c #474747",
"/ 	c #696766",
"( 	c #742A14",
"_ 	c #F35205",
": 	c #E04708",
"< 	c #94060B",
"[ 	c #480C15",
"} 	c #012642",
"| 	c #1F1F21",
"1 	c #4A4A4A",
"2 	c #827E7E",
"3 	c #DB221E",
"4 	c #DB220B",
"5 	c #942F0C",
"6 	c #4B1D21",
"7 	c #014574",
"8 	c #055B94",
"9 	c #02406B",
"0 	c #222226",
"a 	c #594444",
"b 	c #9D0002",
"c 	c #89080A",
"d 	c #41121C",
"e 	c #0173A0",
"f 	c #0292CF",
"g 	c #026EB5",
"h 	c #0466A6",
"i 	c #013D68",
"j 	c #262629",
"k 	c #494949",
"l 	c #3A3636",
"m 	c #2C1717",
"n 	c #26060F",
"o 	c #024F7D",
"p 	c #027CB9",
"q 	c #03B1F2",
"r 	c #029FE1",
"s 	c #016EB5",
"t 	c #0466A4",
"u 	c #013961",
"v 	c #28282B",
"w 	c #3D3E3E",
"x 	c #111A27",
"y 	c #025082",
"z 	c #0275B8",
"A 	c #028ACE",
"B 	c #03B5F6",
"C 	c #019BDE",
"D 	c #0564A3",
"E 	c #01345A",
"F 	c #2B2B2E",
"G 	c #3B3D40",
"H 	c #0B2038",
"I 	c #015A92",
"J 	c #0276B8",
"K 	c #018ED1",
"L 	c #03B7F8",
"M 	c #0297DB",
"N 	c #026DB4",
"O 	c #0562A0",
"P 	c #012F52",
"Q 	c #2F2F31",
"R 	c #393C40",
"S 	c #031E36",
"T 	c #015C96",
"U 	c #0378BA",
"V 	c #0291D4",
"W 	c #03B9FA",
"X 	c #0294D7",
"Y 	c #026DB2",
"Z 	c #03609C",
"` 	c #012A49",
" .	c #353537",
"..	c #1C1E1E",
"+.	c #5E5C5C",
"@.	c #5E5F5F",
"#.	c #747474",
"$.	c #6D6D6D",
"%.	c #363A40",
"&.	c #00223D",
"*.	c #03609B",
"=.	c #0279BC",
"-.	c #0194D7",
";.	c #03BCFD",
">.	c #018FD3",
",.	c #026BB1",
"'.	c #035E96",
").	c #01233F",
"!.	c #0D1014",
"~.	c #5A090B",
"{.	c #BD0C10",
"].	c #7B0104",
"^.	c #343434",
"/.	c #3F4040",
"(.	c #030303",
"_.	c #434444",
":.	c #34393F",
"<.	c #002948",
"[.	c #02629E",
"}.	c #0279BD",
"|.	c #0297D9",
"1.	c #03BEFF",
"2.	c #0488CC",
"3.	c #046CAD",
"4.	c #055992",
"5.	c #011D33",
"6.	c #640308",
"7.	c #C81518",
"8.	c #AA0104",
"9.	c #301110",
"0.	c #32373E",
"a.	c #003051",
"b.	c #0164A1",
"c.	c #017BBE",
"d.	c #0396D8",
"e.	c #058EC1",
"f.	c #056BA5",
"g.	c #056CAC",
"h.	c #01578E",
"i.	c #272B31",
"j.	c #8C6868",
"k.	c #734746",
"l.	c #0C1919",
"m.	c #2F353D",
"n.	c #00355A",
"o.	c #0267A6",
"p.	c #0273B4",
"q.	c #015487",
"r.	c #01263E",
"s.	c #046BAC",
"t.	c #1267A6",
"u.	c #4F627D",
"v.	c #454646",
"w.	c #2E333D",
"x.	c #033C63",
"y.	c #026BAC",
"z.	c #0167A7",
"A.	c #014E80",
"B.	c #022947",
"C.	c #07456C",
"D.	c #3A4555",
"E.	c #2F2F2F",
"F.	c #151A2B",
"G.	c #04426B",
"H.	c #0170B3",
"I.	c #0A609A",
"J.	c #030E1A",
"K.	c #4F4E4E",
"L.	c #490101",
"M.	c #4E0405",
"N.	c #441126",
"O.	c #395276",
"P.	c #345171",
"Q.	c #202D3F",
"R.	c #454545",
"S.	c #504E42",
"T.	c #F1A2A1",
"U.	c #F76867",
"V.	c #F76360",
"W.	c #F88687",
"X.	c #F9908D",
"Y.	c #9B7374",
"Z.	c #D5030A",
"`.	c #8E4E4D",
" +	c #8C8789",
".+	c #5F6167",
"++	c #545352",
"@+	c #C1B7B5",
"#+	c #A8975D",
"$+	c #D9C033",
"%+	c #F74D18",
"&+	c #F6873B",
"*+	c #F88147",
"=+	c #F85A55",
"-+	c #624B4C",
";+	c #A30205",
">+	c #8B3C3B",
",+	c #F0845E",
"'+	c #FBDA09",
")+	c #FCDF03",
"!+	c #F6A710",
"~+	c #F89731",
"{+	c #F38F91",
"]+	c #3F3F3F",
"^+	c #281313",
"/+	c #2F1515",
"(+	c #FA663F",
"_+	c #F8AA0C",
":+	c #FCED02",
"<+	c #FAE007",
"[+	c #F53129",
"}+	c #F84B53",
"|+	c #535454",
"1+	c #1C1C1C",
"2+	c #F78A5F",
"3+	c #F7B113",
"4+	c #FAB107",
"5+	c #FCE104",
"6+	c #FAC705",
"7+	c #F73F27",
"8+	c #FA6967",
"9+	c #686868",
"0+	c #202020",
"a+	c #F98D8F",
"b+	c #F8584C",
"c+	c #F78A54",
"d+	c #F94440",
"e+	c #FC7E0B",
"f+	c #FEE804",
"g+	c #FBBC20",
"h+	c #F78485",
"i+	c #F66E6B",
"j+	c #FA5159",
"k+	c #FA5A39",
"l+	c #FB8C37",
"m+	c #FA9234",
"n+	c #FA7F6F",
"o+	c #F75858",
"p+	c #F89388",
"q+	c #F7A49F",
"r+	c #FA5A58",
"                                                                      ",
"                                                                      ",
"                                                                      ",
"                                                                      ",
"                                                                      ",
"                                                                      ",
"            .                                                         ",
"            + @     #   $                                             ",
"              % & * = - ; >                                           ",
"              , ' ) ! ~ { ] ^                                         ",
"              / ( _ : < [ } | 1                                       ",
"              2 3 4 5 6 7 8 9 0 1                                     ",
"              a b c d e f g h i j k                                   ",
"              l m n o p q r s t u v k                                 ",
"                w x y z A B C s D E F k                               ",
"                  G H I J K L M N O P Q 1                             ",
"                    R S T U V W X Y Z `  .k ..  +.@.#.$.              ",
"                      %.&.*.=.-.;.>.,.'.).!.~.{.].^./.(.              ",
"                      _.:.<.[.}.|.1.2.3.4.5.6.7.8.9.]                 ",
"                        _.0.a.b.c.d.e.f.g.h.i.j.k.l.                  ",
"                          _.m.n.o.p.q.r.s.t.u.                        ",
"                            v.w.x.y.z.A.B.C.D.                        ",
"                              E.F.G.H.I.` J.K.                        ",
"                              L.M.N.O.P.Q.R.S.T.U.V.W.X.              ",
"                              Y.Z.`. +.+++@+#+$+%+&+*+=+              ",
"                              -+;+>+        ,+'+)+!+~+{+              ",
"                              ]+^+/+        (+_+:+<+[+}+              ",
"                              |+1+          2+3+4+5+6+7+8+            ",
"                            9+0+          a+b+c+d+e+f+g+h+            ",
"                                            i+  j+k+l+m+n+            ",
"                                                  o+p+q+r+            ",
"                                                                      ",
"                                                                      ",
"                                                                      ",
"                                                                      ",
"                                                                      ",
"                                                                      "};
