/* XPM */
static char *_575764628191[] = {
/* columns rows colors chars-per-pixel */
"235 60 2 1 ",
"  c #EFFF0E",
". c None",
/* pixels */
"                                        ...............                                             ..............................                         ...............          ..............................          .....          ",
"                                        ...............                                             ..............................                         ...............          ..............................          .....          ",
"                                        ...............                                             ..............................                         ...............          ..............................          .....          ",
"                                        ...............                                             ..............................                         ...............          ..............................          .....          ",
"                                        ...............                                             ..............................                         ...............          ..............................          .....          ",
"                                        ...............                                             ..............................                         ...............          ..............................          .....          ",
"                                        ...............                                             ..............................                         ...............          ..............................          .....          ",
"                                        ...............                                             ..............................                         ...............          ..............................          .....          ",
"                                        ...............                                             ..............................                         ...............          ..............................          .....          ",
"                                        ...............                                             ..............................                         ...............          ..............................          .....          ",
"          ..............................          .....          ...................................          ..........          .........................          .....          ..............................          .....          ",
"          ..............................          .....          ...................................          ..........          .........................          .....          ..............................          .....          ",
"          ..............................          .....          ...................................          ..........          .........................          .....          ..............................          .....          ",
"          ..............................          .....          ...................................          ..........          .........................          .....          ..............................          .....          ",
"          ..............................          .....          ...................................          ..........          .........................          .....          ..............................          .....          ",
"          ..............................          .....          ...................................          ..........          .........................          .....          ..............................          .....          ",
"          ..............................          .....          ...................................          ..........          .........................          .....          ..............................          .....          ",
"          ..............................          .....          ...................................          ..........          .........................          .....          ..............................          .....          ",
"          ..............................          .....          ...................................          ..........          .........................          .....          ..............................          .....          ",
"          ..............................          .....          ...................................          ..........          .........................          .....          ..............................          .....          ",
"          ..............................          .....                                             ....................                                             .....          ..............................          .....          ",
"          ..............................          .....                                             ....................                                             .....          ..............................          .....          ",
"          ..............................          .....                                             ....................                                             .....          ..............................          .....          ",
"          ..............................          .....                                             ....................                                             .....          ..............................          .....          ",
"          ..............................          .....                                             ....................                                             .....          ..............................          .....          ",
"          ..............................          .....                                             ....................                                             .....          ..............................          .....          ",
"          ..............................          .....                                             ....................                                             .....          ..............................          .....          ",
"          ..............................          .....                                             ....................                                             .....          ..............................          .....          ",
"          ..............................          .....                                             ....................                                             .....          ..............................          .....          ",
"          ..............................          .....                                             ....................                                             .....          ..............................          .....          ",
"          ..............................          .....          ....................          .........................          .........................          .....          ..........          ..........          .....          ",
"          ..............................          .....          ....................          .........................          .........................          .....          ..........          ..........          .....          ",
"          ..............................          .....          ....................          .........................          .........................          .....          ..........          ..........          .....          ",
"          ..............................          .....          ....................          .........................          .........................          .....          ..........          ..........          .....          ",
"          ..............................          .....          ....................          .........................          .........................          .....          ..........          ..........          .....          ",
"          ..............................          .....          ....................          .........................          .........................          .....          ..........          ..........          .....          ",
"          ..............................          .....          ....................          .........................          .........................          .....          ..........          ..........          .....          ",
"          ..............................          .....          ....................          .........................          .........................          .....          ..........          ..........          .....          ",
"          ..............................          .....          ....................          .........................          .........................          .....          ..........          ..........          .....          ",
"          ..............................          .....          ....................          .........................          .........................          .....          ..........          ..........          .....          ",
"          ..............................          .....          ..............................          ...............          .........................          .....                    ..........                    .....          ",
"          ..............................          .....          ..............................          ...............          .........................          .....                    ..........                    .....          ",
"          ..............................          .....          ..............................          ...............          .........................          .....                    ..........                    .....          ",
"          ..............................          .....          ..............................          ...............          .........................          .....                    ..........                    .....          ",
"          ..............................          .....          ..............................          ...............          .........................          .....                    ..........                    .....          ",
"          ..............................          .....          ..............................          ...............          .........................          .....                    ..........                    ...............",
"          ..............................          .....          ..............................          ...............          .........................          .....                    ..........                    ...............",
"          ..............................          .....          ..............................          ...............          .........................          .....                    ..........                    ...............",
"          ..............................          .....          ..............................          ...............          .........................          .....                    ..........                    ...............",
"          ..............................          .....          ..............................          ...............          .........................          .....                    ..........                    ...............",
"                                        ...............          ........................................          .....          .........................          .....          ..............................          .....          ",
"                                        ...............          ........................................          .....          .........................          .....          ..............................          .....          ",
"                                        ...............          ........................................          .....          .........................          .....          ..............................          .....          ",
"                                        ...............          ........................................          .....          .........................          .....          ..............................          .....          ",
"                                        ...............          ........................................          .....          .........................          .....          ..............................          .....          ",
"                                        ...............          ........................................          .....          .........................          .....          ..............................          .....          ",
"                                        ...............          ........................................          .....          .........................          .....          ..............................          .....          ",
"                                        ...............          ........................................          .....          .........................          .....          ..............................          .....          ",
"                                        ...............          ........................................          .....          .........................          .....          ..............................          .....          ",
"                                        ...............          ........................................          .....          .........................          .....          ..............................          .....          "
};
